<?xml version="1.0" encoding="UTF-8"?>
<!DOCTYPE svg PUBLIC '-//W3C//DTD SVG 1.0//EN'
    'http://www.w3.org/TR/2001/REC-SVG-20010904/DTD/svg10.dtd' >

<svg style="stroke-dasharray:none; shape-rendering:auto; font-family:'Dialog'; text-rendering:auto; fill-opacity:1; color-interpolation:auto; color-rendering:auto; font-size:12px; fill:black; stroke:black; image-rendering:auto; stroke-miterlimit:10; stroke-linecap:square; stroke-linejoin:miter; font-style:normal; stroke-width:1; stroke-dashoffset:0; font-weight:normal; stroke-opacity:1;"
     xmlns="http://www.w3.org/2000/svg" contentScriptType="text/ecmascript"
     preserveAspectRatio="xMidYMid meet"
     xmlns:xlink="http://www.w3.org/1999/xlink" zoomAndPan="magnify"
     version="1.0" contentStyleType="text/css">
    <!--Generated by the Batik Graphics2D SVG Generator-->
    <defs id="genericDefs"/>
    <g>
        <defs id="defs1">
            <clipPath clipPathUnits="userSpaceOnUse" id="clipPath1">
                <path d="M85 355 L334 355 L334 379 L85 379 L85 355 Z"/>
            </clipPath>
            <clipPath clipPathUnits="userSpaceOnUse" id="clipPath2">
                <path d="M88 358 L88 376 L198 376 L198 358 Z"/>
            </clipPath>
            <clipPath clipPathUnits="userSpaceOnUse" id="clipPath3">
                <path d="M-2 -1 L-2 17 L108 17 L108 -1 Z"/>
            </clipPath>
            <clipPath clipPathUnits="userSpaceOnUse" id="clipPath4">
                <path d="M0 0 L0 18 L110 18 L110 0 Z"/>
            </clipPath>
            <clipPath clipPathUnits="userSpaceOnUse" id="clipPath5">
                <path d="M37 0 L37 17 L109 17 L109 0 Z"/>
            </clipPath>
            <clipPath clipPathUnits="userSpaceOnUse" id="clipPath6">
                <path d="M197 358 L197 376 L332 376 L332 358 Z"/>
            </clipPath>
            <clipPath clipPathUnits="userSpaceOnUse" id="clipPath7">
                <path d="M-2 -1 L-2 17 L133 17 L133 -1 Z"/>
            </clipPath>
            <clipPath clipPathUnits="userSpaceOnUse" id="clipPath8">
                <path d="M0 0 L0 18 L135 18 L135 0 Z"/>
            </clipPath>
            <clipPath clipPathUnits="userSpaceOnUse" id="clipPath9">
                <path d="M37 0 L37 17 L134 17 L134 0 Z"/>
            </clipPath>
            <clipPath clipPathUnits="userSpaceOnUse" id="clipPath10">
                <path d="M0 0 L410 0 L410 347 L0 347 L0 0 Z"/>
            </clipPath>
            <clipPath clipPathUnits="userSpaceOnUse" id="clipPath11">
                <path d="M96 0 L96 307 L410 307 L410 0 Z"/>
            </clipPath>
            <clipPath clipPathUnits="userSpaceOnUse" id="clipPath12">
                <path d="M234 328 L234 346 L270 346 L270 328 Z"/>
            </clipPath>
            <clipPath clipPathUnits="userSpaceOnUse" id="clipPath13">
                <path d="M5 5 L415 5 L415 352 L5 352 L5 5 Z"/>
            </clipPath>
            <clipPath clipPathUnits="userSpaceOnUse" id="clipPath14">
                <path d="M1 144 L1 162 L64 162 L64 144 Z"/>
            </clipPath>
            <clipPath clipPathUnits="userSpaceOnUse" id="clipPath15">
                <path d="M-14 -4 L-14 14 L49 14 L49 -4 Z"/>
            </clipPath>
            <clipPath clipPathUnits="userSpaceOnUse" id="clipPath16">
                <path d="M-25 -4 L-25 14 L38 14 L38 -4 Z"/>
            </clipPath>
        </defs>
        <g style="stroke-linecap:butt; font-size:13px; fill:rgb(0,116,204); text-rendering:optimizeLegibility; image-rendering:optimizeQuality; color-rendering:optimizeQuality; font-family:'Times New Roman'; stroke-linejoin:round; stroke:rgb(0,116,204); color-interpolation:linearRGB; stroke-width:1.5;"
           transform="translate(90,359)">
            <path d="M0 7 L34 7" style="fill:none; clip-path:url(#clipPath3);"/>
        </g>
        <g transform="translate(88,358)"
           style="stroke-linecap:butt; font-size:13px; text-rendering:optimizeLegibility; image-rendering:optimizeQuality; color-rendering:optimizeQuality; font-family:'Times New Roman'; stroke-linejoin:round; color-interpolation:linearRGB; stroke-width:1.5;">
            <path d="M51.0312 3.8438 L51.2656 7.2188 L51.0312 7.2188 Q50.5781 5.7031 49.7344 5.0391 Q48.8906 4.375 47.7188 4.375 Q46.7188 4.375 45.9219 4.875 Q45.125 5.375 44.6719 6.4688 Q44.2188 7.5625 44.2188 9.2031 Q44.2188 10.5469 44.6484 11.5391 Q45.0781 12.5312 45.9453 13.0547 Q46.8125 13.5781 47.9219 13.5781 Q48.8906 13.5781 49.6328 13.1641 Q50.375 12.75 51.2656 11.5312 L51.4844 11.6719 Q50.7344 13 49.7422 13.6172 Q48.75 14.2344 47.375 14.2344 Q44.9062 14.2344 43.5469 12.3906 Q42.5469 11.0312 42.5469 9.1875 Q42.5469 7.7031 43.2109 6.4531 Q43.875 5.2031 45.0469 4.5234 Q46.2188 3.8438 47.5938 3.8438 Q48.6719 3.8438 49.7188 4.375 Q50.0312 4.5312 50.1562 4.5312 Q50.3594 4.5312 50.5 4.3906 Q50.6875 4.1875 50.7812 3.8438 L51.0312 3.8438 ZM55.7549 7.0938 Q57.2861 7.0938 58.208 8.25 Q58.9893 9.2344 58.9893 10.5156 Q58.9893 11.4219 58.5518 12.3438 Q58.1143 13.2656 57.3564 13.7344 Q56.5986 14.2031 55.6768 14.2031 Q54.1611 14.2031 53.2705 13 Q52.5049 11.9844 52.5049 10.7188 Q52.5049 9.7812 52.9658 8.875 Q53.4268 7.9688 54.1768 7.5312 Q54.9268 7.0938 55.7549 7.0938 ZM55.5205 7.5625 Q55.1455 7.5625 54.7471 7.7969 Q54.3486 8.0312 54.1143 8.6094 Q53.8799 9.1875 53.8799 10.0938 Q53.8799 11.5625 54.458 12.625 Q55.0361 13.6875 55.9893 13.6875 Q56.6924 13.6875 57.1611 13.1016 Q57.6299 12.5156 57.6299 11.0781 Q57.6299 9.2969 56.8486 8.2656 Q56.333 7.5625 55.5205 7.5625 ZM61.9736 8.5156 Q62.6924 7.7812 62.833 7.6719 Q63.1611 7.4062 63.5439 7.25 Q63.9268 7.0938 64.3018 7.0938 Q64.9268 7.0938 65.3799 7.4609 Q65.833 7.8281 65.9893 8.5156 Q66.7393 7.6406 67.2627 7.3672 Q67.7861 7.0938 68.333 7.0938 Q68.8643 7.0938 69.2783 7.3672 Q69.6924 7.6406 69.9424 8.2656 Q70.0986 8.6875 70.0986 9.5938 L70.0986 12.4844 Q70.0986 13.1094 70.1924 13.3438 Q70.2705 13.5156 70.4658 13.625 Q70.6611 13.7344 71.1143 13.7344 L71.1143 14 L67.8018 14 L67.8018 13.7344 L67.9424 13.7344 Q68.3643 13.7344 68.6143 13.5625 Q68.7705 13.4531 68.8486 13.1875 Q68.8799 13.0625 68.8799 12.4844 L68.8799 9.5938 Q68.8799 8.7812 68.6768 8.4375 Q68.3955 7.9688 67.7705 7.9688 Q67.3799 7.9688 66.9893 8.1641 Q66.5986 8.3594 66.0361 8.8906 L66.0205 8.9688 L66.0361 9.2812 L66.0361 12.4844 Q66.0361 13.1719 66.1143 13.3438 Q66.1924 13.5156 66.4033 13.625 Q66.6143 13.7344 67.1299 13.7344 L67.1299 14 L63.7393 14 L63.7393 13.7344 Q64.3018 13.7344 64.5049 13.6016 Q64.708 13.4688 64.7861 13.2031 Q64.833 13.0781 64.833 12.4844 L64.833 9.5938 Q64.833 8.7812 64.583 8.4219 Q64.2705 7.9531 63.6924 7.9531 Q63.2861 7.9531 62.9111 8.1562 Q62.3018 8.4844 61.9736 8.8906 L61.9736 12.4844 Q61.9736 13.1406 62.0596 13.3359 Q62.1455 13.5312 62.3252 13.6328 Q62.5049 13.7344 63.0518 13.7344 L63.0518 14 L59.7393 14 L59.7393 13.7344 Q60.208 13.7344 60.3877 13.6328 Q60.5674 13.5312 60.6611 13.3203 Q60.7549 13.1094 60.7549 12.4844 L60.7549 9.9219 Q60.7549 8.8125 60.6924 8.4844 Q60.6455 8.25 60.5361 8.1562 Q60.4268 8.0625 60.2236 8.0625 Q60.0205 8.0625 59.7393 8.1719 L59.6299 7.9062 L61.6455 7.0938 L61.9736 7.0938 L61.9736 8.5156 ZM71.1567 7.9531 L73.2192 7.125 L73.5005 7.125 L73.5005 8.6875 Q74.0161 7.7969 74.5396 7.4453 Q75.063 7.0938 75.6411 7.0938 Q76.6567 7.0938 77.3286 7.8906 Q78.1567 8.8438 78.1567 10.4062 Q78.1567 12.1406 77.1567 13.2812 Q76.3442 14.2031 75.0942 14.2031 Q74.563 14.2031 74.1567 14.0469 Q73.8755 13.9375 73.5005 13.6094 L73.5005 15.6562 Q73.5005 16.3438 73.5864 16.5312 Q73.6724 16.7188 73.8833 16.8281 Q74.0942 16.9375 74.6411 16.9375 L74.6411 17.2031 L71.1255 17.2031 L71.1255 16.9375 L71.2974 16.9375 Q71.7036 16.9375 72.0005 16.7812 Q72.1255 16.7031 72.2036 16.5234 Q72.2817 16.3438 72.2817 15.6094 L72.2817 9.2656 Q72.2817 8.6094 72.2271 8.4375 Q72.1724 8.2656 72.0396 8.1797 Q71.9067 8.0938 71.688 8.0938 Q71.5161 8.0938 71.2505 8.1875 L71.1567 7.9531 ZM73.5005 9.125 L73.5005 11.625 Q73.5005 12.4375 73.563 12.7031 Q73.6724 13.125 74.0708 13.4453 Q74.4692 13.7656 75.0786 13.7656 Q75.813 13.7656 76.2661 13.1875 Q76.8599 12.4531 76.8599 11.0938 Q76.8599 9.5469 76.188 8.7188 Q75.7192 8.1562 75.063 8.1562 Q74.7192 8.1562 74.3755 8.3281 Q74.1099 8.4688 73.5005 9.125 ZM85.0161 7.2969 L85.0161 11.3594 Q85.0161 12.5156 85.0708 12.7812 Q85.1255 13.0469 85.2505 13.1484 Q85.3755 13.25 85.5317 13.25 Q85.7661 13.25 86.0474 13.125 L86.1567 13.375 L84.1411 14.2031 L83.813 14.2031 L83.813 12.7812 Q82.9536 13.7188 82.5005 13.9609 Q82.0474 14.2031 81.5317 14.2031 Q80.9692 14.2031 80.5552 13.875 Q80.1411 13.5469 79.9849 13.0391 Q79.8286 12.5312 79.8286 11.5938 L79.8286 8.5938 Q79.8286 8.125 79.7192 7.9375 Q79.6099 7.75 79.4146 7.6484 Q79.2192 7.5469 78.688 7.5625 L78.688 7.2969 L81.0317 7.2969 L81.0317 11.7812 Q81.0317 12.7188 81.3599 13.0078 Q81.688 13.2969 82.1567 13.2969 Q82.4692 13.2969 82.8677 13.1016 Q83.2661 12.9062 83.813 12.3594 L83.813 8.5469 Q83.813 7.9844 83.6021 7.7812 Q83.3911 7.5781 82.7349 7.5625 L82.7349 7.2969 L85.0161 7.2969 ZM88.5942 5.0938 L88.5942 7.2969 L90.1567 7.2969 L90.1567 7.7969 L88.5942 7.7969 L88.5942 12.1562 Q88.5942 12.8125 88.7817 13.0391 Q88.9692 13.2656 89.2505 13.2656 Q89.5005 13.2656 89.7271 13.1094 Q89.9536 12.9531 90.0786 12.6719 L90.3599 12.6719 Q90.1099 13.3906 89.6411 13.75 Q89.1724 14.1094 88.6724 14.1094 Q88.3286 14.1094 88.0083 13.9219 Q87.688 13.7344 87.5317 13.3906 Q87.3755 13.0469 87.3755 12.3125 L87.3755 7.7969 L86.313 7.7969 L86.313 7.5625 Q86.7192 7.4062 87.1411 7.0156 Q87.563 6.625 87.8911 6.1094 Q88.063 5.8281 88.3599 5.0938 L88.5942 5.0938 ZM91.9336 9.8125 Q91.9336 11.3125 92.668 12.1562 Q93.3867 13.0156 94.3867 13.0156 Q95.043 13.0156 95.5273 12.6484 Q96.0117 12.2812 96.3398 11.4062 L96.5742 11.5469 Q96.418 12.5625 95.6758 13.3828 Q94.9336 14.2031 93.8242 14.2031 Q92.6211 14.2031 91.7617 13.2656 Q90.9023 12.3281 90.9023 10.7344 Q90.9023 9.0156 91.7852 8.0469 Q92.668 7.0781 93.9961 7.0781 Q95.1211 7.0781 95.8477 7.8281 Q96.5742 8.5781 96.5742 9.8125 L91.9336 9.8125 ZM91.9336 9.3906 L95.043 9.3906 Q95.0117 8.75 94.8867 8.4844 Q94.6992 8.0781 94.3398 7.8438 Q93.9805 7.6094 93.5898 7.6094 Q92.9805 7.6094 92.4961 8.0781 Q92.0117 8.5469 91.9336 9.3906 ZM102.2007 13.25 Q101.7163 13.7656 101.2476 13.9844 Q100.7788 14.2031 100.2319 14.2031 Q99.1382 14.2031 98.3179 13.2812 Q97.4976 12.3594 97.4976 10.9219 Q97.4976 9.4844 98.4038 8.2812 Q99.3101 7.0781 100.7476 7.0781 Q101.6226 7.0781 102.2007 7.6562 L102.2007 6.4062 Q102.2007 5.2656 102.146 5 Q102.0913 4.7344 101.9741 4.6406 Q101.8569 4.5469 101.6851 4.5469 Q101.4976 4.5469 101.1851 4.6562 L101.0913 4.4062 L103.0913 3.5781 L103.4194 3.5781 L103.4194 11.3438 Q103.4194 12.5156 103.4741 12.7812 Q103.5288 13.0469 103.646 13.1484 Q103.7632 13.25 103.9194 13.25 Q104.1226 13.25 104.4507 13.125 L104.5288 13.375 L102.5444 14.2031 L102.2007 14.2031 L102.2007 13.25 ZM102.2007 12.7344 L102.2007 9.2812 Q102.1538 8.7812 101.9351 8.3672 Q101.7163 7.9531 101.3569 7.75 Q100.9976 7.5469 100.6538 7.5469 Q100.0132 7.5469 99.4976 8.125 Q98.8413 8.875 98.8413 10.3438 Q98.8413 11.8281 99.4819 12.6172 Q100.1226 13.4062 100.9194 13.4062 Q101.5757 13.4062 102.2007 12.7344 Z"
                  style="stroke:none; clip-path:url(#clipPath5);"/>
        </g>
        <g style="stroke-linecap:butt; font-size:13px; fill:rgb(204,0,116); text-rendering:optimizeLegibility; image-rendering:optimizeQuality; color-rendering:optimizeQuality; font-family:'Times New Roman'; stroke-linejoin:round; stroke:rgb(204,0,116); color-interpolation:linearRGB; stroke-width:1.5;"
           transform="translate(199,359)">
            <path d="M0 7 L34 7" style="fill:none; clip-path:url(#clipPath7);"/>
        </g>
        <g transform="translate(197,358)"
           style="stroke-linecap:butt; font-size:13px; text-rendering:optimizeLegibility; image-rendering:optimizeQuality; color-rendering:optimizeQuality; font-family:'Times New Roman'; stroke-linejoin:round; color-interpolation:linearRGB; stroke-width:1.5;">
            <path d="M48.875 3.8438 L48.875 7.2812 L48.6094 7.2812 Q48.4688 6.2812 48.1328 5.6953 Q47.7969 5.1094 47.1641 4.7656 Q46.5312 4.4219 45.8594 4.4219 Q45.0938 4.4219 44.6016 4.8906 Q44.1094 5.3594 44.1094 5.9531 Q44.1094 6.4062 44.4219 6.7812 Q44.875 7.3281 46.5781 8.25 Q47.9688 8.9844 48.4766 9.3828 Q48.9844 9.7812 49.2578 10.3281 Q49.5312 10.875 49.5312 11.4688 Q49.5312 12.5938 48.6562 13.4141 Q47.7812 14.2344 46.4062 14.2344 Q45.9844 14.2344 45.5938 14.1562 Q45.375 14.125 44.6562 13.8906 Q43.9375 13.6562 43.75 13.6562 Q43.5625 13.6562 43.4609 13.7656 Q43.3594 13.875 43.2969 14.2344 L43.0312 14.2344 L43.0312 10.8281 L43.2969 10.8281 Q43.5 11.8906 43.8203 12.4219 Q44.1406 12.9531 44.8047 13.3047 Q45.4688 13.6562 46.25 13.6562 Q47.1719 13.6562 47.7031 13.1719 Q48.2344 12.6875 48.2344 12.0312 Q48.2344 11.6562 48.0312 11.2891 Q47.8281 10.9219 47.4062 10.5938 Q47.125 10.375 45.8516 9.6641 Q44.5781 8.9531 44.0391 8.5234 Q43.5 8.0938 43.2188 7.5859 Q42.9375 7.0781 42.9375 6.4531 Q42.9375 5.3906 43.7578 4.6172 Q44.5781 3.8438 45.8438 3.8438 Q46.6406 3.8438 47.5156 4.2344 Q47.9375 4.4062 48.0938 4.4062 Q48.2969 4.4062 48.4141 4.2969 Q48.5312 4.1875 48.6094 3.8438 L48.875 3.8438 ZM52.5142 3.5781 Q52.8267 3.5781 53.0454 3.7969 Q53.2642 4.0156 53.2642 4.3281 Q53.2642 4.625 53.0454 4.8516 Q52.8267 5.0781 52.5142 5.0781 Q52.2173 5.0781 51.9907 4.8516 Q51.7642 4.625 51.7642 4.3281 Q51.7642 4.0156 51.9829 3.7969 Q52.2017 3.5781 52.5142 3.5781 ZM53.1235 7.0938 L53.1235 12.4844 Q53.1235 13.1094 53.2173 13.3203 Q53.311 13.5312 53.4907 13.6328 Q53.6704 13.7344 54.1392 13.7344 L54.1392 14 L50.8892 14 L50.8892 13.7344 Q51.3735 13.7344 51.5454 13.6406 Q51.7173 13.5469 51.811 13.3281 Q51.9048 13.1094 51.9048 12.4844 L51.9048 9.8906 Q51.9048 8.8125 51.8423 8.4844 Q51.7954 8.25 51.686 8.1562 Q51.5767 8.0625 51.3892 8.0625 Q51.1704 8.0625 50.8892 8.1719 L50.7798 7.9062 L52.811 7.0938 L53.1235 7.0938 ZM56.9785 8.5156 Q57.6973 7.7812 57.8379 7.6719 Q58.166 7.4062 58.5488 7.25 Q58.9316 7.0938 59.3066 7.0938 Q59.9316 7.0938 60.3848 7.4609 Q60.8379 7.8281 60.9941 8.5156 Q61.7441 7.6406 62.2676 7.3672 Q62.791 7.0938 63.3379 7.0938 Q63.8691 7.0938 64.2832 7.3672 Q64.6973 7.6406 64.9473 8.2656 Q65.1035 8.6875 65.1035 9.5938 L65.1035 12.4844 Q65.1035 13.1094 65.1973 13.3438 Q65.2754 13.5156 65.4707 13.625 Q65.666 13.7344 66.1191 13.7344 L66.1191 14 L62.8066 14 L62.8066 13.7344 L62.9473 13.7344 Q63.3691 13.7344 63.6191 13.5625 Q63.7754 13.4531 63.8535 13.1875 Q63.8848 13.0625 63.8848 12.4844 L63.8848 9.5938 Q63.8848 8.7812 63.6816 8.4375 Q63.4004 7.9688 62.7754 7.9688 Q62.3848 7.9688 61.9941 8.1641 Q61.6035 8.3594 61.041 8.8906 L61.0254 8.9688 L61.041 9.2812 L61.041 12.4844 Q61.041 13.1719 61.1191 13.3438 Q61.1973 13.5156 61.4082 13.625 Q61.6191 13.7344 62.1348 13.7344 L62.1348 14 L58.7441 14 L58.7441 13.7344 Q59.3066 13.7344 59.5098 13.6016 Q59.7129 13.4688 59.791 13.2031 Q59.8379 13.0781 59.8379 12.4844 L59.8379 9.5938 Q59.8379 8.7812 59.5879 8.4219 Q59.2754 7.9531 58.6973 7.9531 Q58.291 7.9531 57.916 8.1562 Q57.3066 8.4844 56.9785 8.8906 L56.9785 12.4844 Q56.9785 13.1406 57.0645 13.3359 Q57.1504 13.5312 57.3301 13.6328 Q57.5098 13.7344 58.0566 13.7344 L58.0566 14 L54.7441 14 L54.7441 13.7344 Q55.2129 13.7344 55.3926 13.6328 Q55.5723 13.5312 55.666 13.3203 Q55.7598 13.1094 55.7598 12.4844 L55.7598 9.9219 Q55.7598 8.8125 55.6973 8.4844 Q55.6504 8.25 55.541 8.1562 Q55.4316 8.0625 55.2285 8.0625 Q55.0254 8.0625 54.7441 8.1719 L54.6348 7.9062 L56.6504 7.0938 L56.9785 7.0938 L56.9785 8.5156 ZM72.521 7.2969 L72.521 11.3594 Q72.521 12.5156 72.5757 12.7812 Q72.6304 13.0469 72.7554 13.1484 Q72.8804 13.25 73.0366 13.25 Q73.271 13.25 73.5522 13.125 L73.6616 13.375 L71.646 14.2031 L71.3179 14.2031 L71.3179 12.7812 Q70.4585 13.7188 70.0054 13.9609 Q69.5522 14.2031 69.0366 14.2031 Q68.4741 14.2031 68.0601 13.875 Q67.646 13.5469 67.4897 13.0391 Q67.3335 12.5312 67.3335 11.5938 L67.3335 8.5938 Q67.3335 8.125 67.2241 7.9375 Q67.1147 7.75 66.9194 7.6484 Q66.7241 7.5469 66.1929 7.5625 L66.1929 7.2969 L68.5366 7.2969 L68.5366 11.7812 Q68.5366 12.7188 68.8647 13.0078 Q69.1929 13.2969 69.6616 13.2969 Q69.9741 13.2969 70.3726 13.1016 Q70.771 12.9062 71.3179 12.3594 L71.3179 8.5469 Q71.3179 7.9844 71.1069 7.7812 Q70.896 7.5781 70.2397 7.5625 L70.2397 7.2969 L72.521 7.2969 ZM76.4585 3.5781 L76.4585 12.4844 Q76.4585 13.1094 76.5444 13.3203 Q76.6304 13.5312 76.8257 13.6328 Q77.021 13.7344 77.5366 13.7344 L77.5366 14 L74.2554 14 L74.2554 13.7344 Q74.7085 13.7344 74.8804 13.6406 Q75.0522 13.5469 75.146 13.3281 Q75.2397 13.1094 75.2397 12.4844 L75.2397 6.3906 Q75.2397 5.25 75.1851 4.9922 Q75.1304 4.7344 75.021 4.6406 Q74.9116 4.5469 74.7397 4.5469 Q74.5366 4.5469 74.2554 4.6562 L74.1304 4.4062 L76.1304 3.5781 L76.4585 3.5781 ZM82.1104 13.0312 Q81.0791 13.8281 80.8135 13.9531 Q80.4229 14.1406 79.9697 14.1406 Q79.2822 14.1406 78.8291 13.6641 Q78.376 13.1875 78.376 12.4062 Q78.376 11.9219 78.5947 11.5625 Q78.9072 11.0625 79.6494 10.625 Q80.3916 10.1875 82.1104 9.5469 L82.1104 9.2969 Q82.1104 8.2812 81.7979 7.9141 Q81.4854 7.5469 80.876 7.5469 Q80.4072 7.5469 80.1416 7.7812 Q79.8604 8.0312 79.8604 8.3594 L79.876 8.7812 Q79.876 9.125 79.7041 9.3047 Q79.5322 9.4844 79.251 9.4844 Q78.9854 9.4844 78.8135 9.2969 Q78.6416 9.1094 78.6416 8.7812 Q78.6416 8.1406 79.2822 7.6172 Q79.9229 7.0938 81.0947 7.0938 Q81.9854 7.0938 82.5479 7.3906 Q82.9854 7.625 83.1885 8.1094 Q83.3291 8.4219 83.3291 9.3906 L83.3291 11.6719 Q83.3291 12.625 83.3604 12.8438 Q83.3916 13.0625 83.4775 13.1328 Q83.5635 13.2031 83.6729 13.2031 Q83.7979 13.2031 83.876 13.1562 Q84.0322 13.0625 84.4697 12.625 L84.4697 13.0312 Q83.6572 14.125 82.9072 14.125 Q82.5479 14.125 82.3369 13.8828 Q82.126 13.6406 82.1104 13.0312 ZM82.1104 12.5625 L82.1104 10 Q81.0166 10.4375 80.6885 10.625 Q80.1104 10.9531 79.8604 11.3047 Q79.6104 11.6562 79.6104 12.0625 Q79.6104 12.5938 79.9229 12.9453 Q80.2354 13.2969 80.6572 13.2969 Q81.2041 13.2969 82.1104 12.5625 ZM86.9243 5.0938 L86.9243 7.2969 L88.4868 7.2969 L88.4868 7.7969 L86.9243 7.7969 L86.9243 12.1562 Q86.9243 12.8125 87.1118 13.0391 Q87.2993 13.2656 87.5806 13.2656 Q87.8306 13.2656 88.0571 13.1094 Q88.2837 12.9531 88.4087 12.6719 L88.6899 12.6719 Q88.4399 13.3906 87.9712 13.75 Q87.5024 14.1094 87.0024 14.1094 Q86.6587 14.1094 86.3384 13.9219 Q86.0181 13.7344 85.8618 13.3906 Q85.7056 13.0469 85.7056 12.3125 L85.7056 7.7969 L84.6431 7.7969 L84.6431 7.5625 Q85.0493 7.4062 85.4712 7.0156 Q85.8931 6.625 86.2212 6.1094 Q86.3931 5.8281 86.6899 5.0938 L86.9243 5.0938 ZM92.4199 7.0938 Q93.9512 7.0938 94.873 8.25 Q95.6543 9.2344 95.6543 10.5156 Q95.6543 11.4219 95.2168 12.3438 Q94.7793 13.2656 94.0215 13.7344 Q93.2637 14.2031 92.3418 14.2031 Q90.8262 14.2031 89.9355 13 Q89.1699 11.9844 89.1699 10.7188 Q89.1699 9.7812 89.6309 8.875 Q90.0918 7.9688 90.8418 7.5312 Q91.5918 7.0938 92.4199 7.0938 ZM92.1855 7.5625 Q91.8105 7.5625 91.4121 7.7969 Q91.0137 8.0312 90.7793 8.6094 Q90.5449 9.1875 90.5449 10.0938 Q90.5449 11.5625 91.123 12.625 Q91.7012 13.6875 92.6543 13.6875 Q93.3574 13.6875 93.8262 13.1016 Q94.2949 12.5156 94.2949 11.0781 Q94.2949 9.2969 93.5137 8.2656 Q92.998 7.5625 92.1855 7.5625 ZM98.6074 7.0938 L98.6074 8.6094 Q99.4512 7.0938 100.3262 7.0938 Q100.7324 7.0938 100.998 7.3359 Q101.2637 7.5781 101.2637 7.9062 Q101.2637 8.1875 101.0684 8.3906 Q100.873 8.5938 100.623 8.5938 Q100.3574 8.5938 100.0371 8.3359 Q99.7168 8.0781 99.5762 8.0781 Q99.4355 8.0781 99.2793 8.2344 Q98.9512 8.5312 98.6074 9.2188 L98.6074 12.4375 Q98.6074 12.9844 98.748 13.2812 Q98.8418 13.4688 99.084 13.6016 Q99.3262 13.7344 99.7793 13.7344 L99.7793 14 L96.3418 14 L96.3418 13.7344 Q96.8574 13.7344 97.1074 13.5781 Q97.2793 13.4531 97.3574 13.2031 Q97.3887 13.0781 97.3887 12.4844 L97.3887 9.8906 Q97.3887 8.7188 97.3418 8.4922 Q97.2949 8.2656 97.1699 8.1641 Q97.0449 8.0625 96.8574 8.0625 Q96.623 8.0625 96.3418 8.1719 L96.2637 7.9062 L98.2949 7.0938 L98.6074 7.0938 ZM110.1182 13.25 Q109.6338 13.7656 109.165 13.9844 Q108.6963 14.2031 108.1494 14.2031 Q107.0557 14.2031 106.2354 13.2812 Q105.415 12.3594 105.415 10.9219 Q105.415 9.4844 106.3213 8.2812 Q107.2275 7.0781 108.665 7.0781 Q109.54 7.0781 110.1182 7.6562 L110.1182 6.4062 Q110.1182 5.2656 110.0635 5 Q110.0088 4.7344 109.8916 4.6406 Q109.7744 4.5469 109.6025 4.5469 Q109.415 4.5469 109.1025 4.6562 L109.0088 4.4062 L111.0088 3.5781 L111.3369 3.5781 L111.3369 11.3438 Q111.3369 12.5156 111.3916 12.7812 Q111.4463 13.0469 111.5635 13.1484 Q111.6807 13.25 111.8369 13.25 Q112.04 13.25 112.3682 13.125 L112.4463 13.375 L110.4619 14.2031 L110.1182 14.2031 L110.1182 13.25 ZM110.1182 12.7344 L110.1182 9.2812 Q110.0713 8.7812 109.8525 8.3672 Q109.6338 7.9531 109.2744 7.75 Q108.915 7.5469 108.5713 7.5469 Q107.9307 7.5469 107.415 8.125 Q106.7588 8.875 106.7588 10.3438 Q106.7588 11.8281 107.3994 12.6172 Q108.04 13.4062 108.8369 13.4062 Q109.4932 13.4062 110.1182 12.7344 ZM116.6807 13.0312 Q115.6494 13.8281 115.3838 13.9531 Q114.9932 14.1406 114.54 14.1406 Q113.8525 14.1406 113.3994 13.6641 Q112.9463 13.1875 112.9463 12.4062 Q112.9463 11.9219 113.165 11.5625 Q113.4775 11.0625 114.2197 10.625 Q114.9619 10.1875 116.6807 9.5469 L116.6807 9.2969 Q116.6807 8.2812 116.3682 7.9141 Q116.0557 7.5469 115.4463 7.5469 Q114.9775 7.5469 114.7119 7.7812 Q114.4307 8.0312 114.4307 8.3594 L114.4463 8.7812 Q114.4463 9.125 114.2744 9.3047 Q114.1025 9.4844 113.8213 9.4844 Q113.5557 9.4844 113.3838 9.2969 Q113.2119 9.1094 113.2119 8.7812 Q113.2119 8.1406 113.8525 7.6172 Q114.4932 7.0938 115.665 7.0938 Q116.5557 7.0938 117.1182 7.3906 Q117.5557 7.625 117.7588 8.1094 Q117.8994 8.4219 117.8994 9.3906 L117.8994 11.6719 Q117.8994 12.625 117.9307 12.8438 Q117.9619 13.0625 118.0479 13.1328 Q118.1338 13.2031 118.2432 13.2031 Q118.3682 13.2031 118.4463 13.1562 Q118.6025 13.0625 119.04 12.625 L119.04 13.0312 Q118.2275 14.125 117.4775 14.125 Q117.1182 14.125 116.9072 13.8828 Q116.6963 13.6406 116.6807 13.0312 ZM116.6807 12.5625 L116.6807 10 Q115.5869 10.4375 115.2588 10.625 Q114.6807 10.9531 114.4307 11.3047 Q114.1807 11.6562 114.1807 12.0625 Q114.1807 12.5938 114.4932 12.9453 Q114.8057 13.2969 115.2275 13.2969 Q115.7744 13.2969 116.6807 12.5625 ZM121.4946 5.0938 L121.4946 7.2969 L123.0571 7.2969 L123.0571 7.7969 L121.4946 7.7969 L121.4946 12.1562 Q121.4946 12.8125 121.6821 13.0391 Q121.8696 13.2656 122.1509 13.2656 Q122.4009 13.2656 122.6274 13.1094 Q122.854 12.9531 122.979 12.6719 L123.2603 12.6719 Q123.0103 13.3906 122.5415 13.75 Q122.0728 14.1094 121.5728 14.1094 Q121.229 14.1094 120.9087 13.9219 Q120.5884 13.7344 120.4321 13.3906 Q120.2759 13.0469 120.2759 12.3125 L120.2759 7.7969 L119.2134 7.7969 L119.2134 7.5625 Q119.6196 7.4062 120.0415 7.0156 Q120.4634 6.625 120.7915 6.1094 Q120.9634 5.8281 121.2603 5.0938 L121.4946 5.0938 ZM127.5059 13.0312 Q126.4746 13.8281 126.209 13.9531 Q125.8184 14.1406 125.3652 14.1406 Q124.6777 14.1406 124.2246 13.6641 Q123.7715 13.1875 123.7715 12.4062 Q123.7715 11.9219 123.9902 11.5625 Q124.3027 11.0625 125.0449 10.625 Q125.7871 10.1875 127.5059 9.5469 L127.5059 9.2969 Q127.5059 8.2812 127.1934 7.9141 Q126.8809 7.5469 126.2715 7.5469 Q125.8027 7.5469 125.5371 7.7812 Q125.2559 8.0312 125.2559 8.3594 L125.2715 8.7812 Q125.2715 9.125 125.0996 9.3047 Q124.9277 9.4844 124.6465 9.4844 Q124.3809 9.4844 124.209 9.2969 Q124.0371 9.1094 124.0371 8.7812 Q124.0371 8.1406 124.6777 7.6172 Q125.3184 7.0938 126.4902 7.0938 Q127.3809 7.0938 127.9434 7.3906 Q128.3809 7.625 128.584 8.1094 Q128.7246 8.4219 128.7246 9.3906 L128.7246 11.6719 Q128.7246 12.625 128.7559 12.8438 Q128.7871 13.0625 128.873 13.1328 Q128.959 13.2031 129.0684 13.2031 Q129.1934 13.2031 129.2715 13.1562 Q129.4277 13.0625 129.8652 12.625 L129.8652 13.0312 Q129.0527 14.125 128.3027 14.125 Q127.9434 14.125 127.7324 13.8828 Q127.5215 13.6406 127.5059 13.0312 ZM127.5059 12.5625 L127.5059 10 Q126.4121 10.4375 126.084 10.625 Q125.5059 10.9531 125.2559 11.3047 Q125.0059 11.6562 125.0059 12.0625 Q125.0059 12.5938 125.3184 12.9453 Q125.6309 13.2969 126.0527 13.2969 Q126.5996 13.2969 127.5059 12.5625 Z"
                  style="stroke:none; clip-path:url(#clipPath9);"/>
        </g>
        <g style="text-rendering:optimizeLegibility; font-size:13px; font-family:'Times New Roman'; color-interpolation:linearRGB; color-rendering:optimizeQuality; image-rendering:optimizeQuality;">
            <rect x="86" y="356" width="245"
                  style="fill:none; clip-path:url(#clipPath1);" height="20"/>
        </g>
        <g style="stroke-linecap:butt; font-size:13px; fill:rgb(165,165,165); text-rendering:optimizeLegibility; image-rendering:optimizeQuality; color-rendering:optimizeQuality; font-family:'Times New Roman'; stroke-linejoin:round; stroke-dasharray:2,5; stroke:rgb(165,165,165); color-interpolation:linearRGB;"
           transform="translate(5,5)">
            <path d="M97 304 L408.9975 304"
                  style="fill:none; clip-path:url(#clipPath10);"/>
            <path d="M97 260.7937 L408.9975 260.7937"
                  style="fill:none; clip-path:url(#clipPath10);"/>
            <path d="M97 217.5874 L408.9975 217.5874"
                  style="fill:none; clip-path:url(#clipPath10);"/>
            <path d="M97 174.3811 L408.9975 174.3811"
                  style="fill:none; clip-path:url(#clipPath10);"/>
            <path d="M97 131.1748 L408.9975 131.1748"
                  style="fill:none; clip-path:url(#clipPath10);"/>
            <path d="M97 87.9685 L408.9975 87.9685"
                  style="fill:none; clip-path:url(#clipPath10);"/>
            <path d="M97 44.7622 L408.9975 44.7622"
                  style="fill:none; clip-path:url(#clipPath10);"/>
            <path d="M97 282.3969 L408.9975 282.3969"
                  style="fill:none; clip-path:url(#clipPath10); stroke:rgb(233,233,233);"/>
            <path d="M97 239.1906 L408.9975 239.1906"
                  style="fill:none; clip-path:url(#clipPath10); stroke:rgb(233,233,233);"/>
            <path d="M97 195.9843 L408.9975 195.9843"
                  style="fill:none; clip-path:url(#clipPath10); stroke:rgb(233,233,233);"/>
            <path d="M97 152.778 L408.9975 152.778"
                  style="fill:none; clip-path:url(#clipPath10); stroke:rgb(233,233,233);"/>
            <path d="M97 109.5717 L408.9975 109.5717"
                  style="fill:none; clip-path:url(#clipPath10); stroke:rgb(233,233,233);"/>
            <path d="M97 66.3654 L408.9975 66.3654"
                  style="fill:none; clip-path:url(#clipPath10); stroke:rgb(233,233,233);"/>
            <path d="M97 23.1591 L408.9975 23.1591"
                  style="fill:none; clip-path:url(#clipPath10); stroke:rgb(233,233,233);"/>
        </g>
        <g style="stroke-linecap:butt; font-size:13px; fill:rgb(0,116,204); text-rendering:optimizeLegibility; image-rendering:optimizeQuality; color-rendering:optimizeQuality; font-family:'Times New Roman'; stroke-linejoin:round; stroke:rgb(0,116,204); color-interpolation:linearRGB; stroke-width:1.5;"
           transform="translate(5,5)">
            <path d="M99 304 L100.54 302.5186 L102.08 301.0366 L103.62 299.5542 L105.16 298.0713 L106.6999 296.5879 L108.2399 295.1041 L109.7799 293.6198 L111.3199 292.1351 L112.8599 290.6499 L114.3999 289.1643 L115.9399 287.6783 L117.4799 286.1918 L119.0198 284.7049 L120.5598 283.2176 L122.0998 281.7299 L123.6398 280.2418 L125.1798 278.7533 L126.7198 277.2644 L128.2598 275.7751 L129.7998 274.2854 L131.3397 272.7954 L132.8797 271.305 L134.4197 269.8142 L135.9597 268.3231 L137.4997 266.8316 L139.0397 265.3397 L140.5797 263.8475 L142.1197 262.355 L143.6596 260.8621 L145.1996 259.3689 L146.7396 257.8754 L148.2796 256.3815 L149.8196 254.8873 L151.3596 253.3928 L152.8996 251.898 L154.4396 250.4029 L155.9795 248.9075 L157.5195 247.4118 L159.0595 245.9158 L160.5995 244.4195 L162.1395 242.9229 L163.6795 241.426 L165.2195 239.9289 L166.7595 238.4314 L168.2994 236.9337 L169.8394 235.4358 L171.3794 233.9376 L172.9194 232.4391 L174.4594 230.9403 L175.9994 229.4413 L177.5394 227.9421 L179.0793 226.4426 L180.6193 224.9429 L182.1593 223.4429 L183.6993 221.9427 L185.2393 220.4422 L186.7793 218.9416 L188.3193 217.4407 L189.8593 215.9395 L191.3993 214.4382 L192.9392 212.9366 L194.4792 211.4348 L196.0192 209.9328 L197.5592 208.4306 L199.0992 206.9282 L200.6392 205.4256 L202.1792 203.9228 L203.7192 202.4198 L205.2592 200.9166 L206.7991 199.4132 L208.3391 197.9096 L209.8791 196.4058 L211.4191 194.9019 L212.9591 193.3977 L214.4991 191.8934 L216.0391 190.3889 L217.579 188.8842 L219.119 187.3794 L220.659 185.8744 L222.199 184.3692 L223.739 182.8639 L225.279 181.3583 L226.819 179.8527 L228.359 178.3468 L229.899 176.8409 L231.4389 175.3347 L232.9789 173.8284 L234.5189 172.322 L236.0589 170.8154 L237.5989 169.3086 L239.1389 167.8018 L240.6789 166.2947 L242.2189 164.7876 L243.7588 163.2803 L245.2988 161.7728 L246.8388 160.2652 L248.3788 158.7576 L249.9188 157.2497 L251.4588 155.7417 L252.9988 154.2337 L254.5388 152.7254 L256.0787 151.2171 L257.6187 149.7086 L259.1587 148.2 L260.6987 146.6913 L262.2387 145.1825 L263.7787 143.6736 L265.3187 142.1645 L266.8586 140.6554 L268.3987 139.1461 L269.9386 137.6367 L271.4786 136.1272 L273.0186 134.6176 L274.5586 133.1079 L276.0986 131.5981 L277.6385 130.0882 L279.1785 128.5782 L280.7185 127.0681 L282.2585 125.5579 L283.7985 124.0476 L285.3385 122.5372 L286.8785 121.0267 L288.4185 119.5162 L289.9585 118.0055 L291.4985 116.4948 L293.0385 114.9839 L294.5784 113.473 L296.1184 111.9619 L297.6584 110.4508 L299.1984 108.9396 L300.7384 107.4284 L302.2784 105.917 L303.8184 104.4056 L305.3583 102.8941 L306.8983 101.3825 L308.4383 99.8708 L309.9783 98.3591 L311.5183 96.8472 L313.0583 95.3353 L314.5983 93.8234 L316.1382 92.3113 L317.6782 90.7992 L319.2182 89.287 L320.7582 87.7748 L322.2982 86.2625 L323.8382 84.7501 L325.3782 83.2376 L326.9182 81.7251 L328.4582 80.2125 L329.9981 78.6999 L331.5381 77.1872 L333.0781 75.6744 L334.6181 74.1616 L336.1581 72.6487 L337.6981 71.1358 L339.2381 69.6227 L340.7781 68.1097 L342.3181 66.5965 L343.858 65.0834 L345.398 63.5701 L346.938 62.0569 L348.478 60.5435 L350.018 59.0301 L351.558 57.5167 L353.098 56.0032 L354.6379 54.4896 L356.1779 52.976 L357.7179 51.4624 L359.2579 49.9487 L360.7979 48.435 L362.3379 46.9212 L363.8779 45.4073 L365.4179 43.8934 L366.9579 42.3795 L368.4978 40.8655 L370.0378 39.3515 L371.5778 37.8374 L373.1178 36.3233 L374.6578 34.8092 L376.1978 33.295 L377.7378 31.7808 L379.2778 30.2665 L380.8177 28.7522 L382.3577 27.2378 L383.8977 25.7234 L385.4377 24.209 L386.9777 22.6945 L388.5177 21.1801 L390.0576 19.6655 L391.5977 18.1509 L393.1376 16.6363 L394.6776 15.1217 L396.2176 13.607 L397.7576 12.0923 L399.2976 10.5775 L400.8376 9.0627 L402.3776 7.5479 L403.9175 6.0331 L405.4576 4.5182 L406.9975 3.0033"
                  style="fill:none; clip-path:url(#clipPath11);"/>
        </g>
        <g style="stroke-linecap:butt; font-size:13px; fill:rgb(204,0,116); text-rendering:optimizeLegibility; image-rendering:optimizeQuality; color-rendering:optimizeQuality; font-family:'Times New Roman'; stroke-linejoin:round; stroke:rgb(204,0,116); color-interpolation:linearRGB; stroke-width:1.5;"
           transform="translate(5,5)">
            <path d="M99 304 L100.7907 302.2775 L102.5814 300.5547 L104.372 298.8318 L106.1627 297.1086 L107.9534 295.3853 L109.7441 293.6617 L111.5348 291.9379 L113.3255 290.2139 L115.1161 288.4897 L116.9068 286.7654 L118.6975 285.0408 L120.4882 283.3159 L122.2789 281.5905 L124.0696 279.8651 L125.8602 278.139 L127.6509 276.4125 L129.4416 274.6858 L131.2323 272.9586 L133.023 271.231 L134.8137 269.5031 L136.6043 267.7746 L138.395 266.0459 L140.1857 264.3167 L141.9764 262.587 L143.7671 260.857 L145.5578 259.1264 L147.3484 257.3954 L149.1391 255.6641 L150.9298 253.9322 L152.7205 252.1998 L154.5112 250.4672 L156.3019 248.7341 L158.0925 247.0005 L159.8832 245.2664 L161.6739 243.5321 L163.4646 241.7972 L165.2553 240.062 L167.046 238.3264 L168.8366 236.5904 L170.6273 234.8541 L172.418 233.1173 L174.2087 231.3802 L175.9994 229.6426 L177.7901 227.9048 L179.5807 226.1666 L181.3714 224.428 L183.1621 222.6892 L184.9528 220.9499 L186.7435 219.2104 L188.5342 217.4705 L190.3248 215.7302 L192.1155 213.9897 L193.9062 212.2488 L195.6969 210.5076 L197.4876 208.7683 L199.2783 207.0291 L201.069 205.2903 L202.8596 203.5514 L204.6503 201.8125 L206.441 200.0735 L208.2317 198.3343 L210.0224 196.595 L211.813 194.8554 L213.6037 193.1156 L215.3944 191.3755 L217.1851 189.6351 L218.9758 187.8943 L220.7665 186.1532 L222.5572 184.4116 L224.3478 182.6699 L226.1385 180.9278 L227.9292 179.1853 L229.7199 177.4425 L231.5106 175.6991 L233.3013 173.9556 L235.0919 172.2116 L236.8826 170.4673 L238.6733 168.7225 L240.464 166.9774 L242.2547 165.2321 L244.0453 163.4863 L245.836 161.7402 L247.6267 159.9939 L249.4174 158.2474 L251.2081 156.5002 L252.9988 154.7529 L254.7894 153.0053 L256.5801 151.2574 L258.3708 149.509 L260.1615 147.7603 L261.9522 146.0113 L263.7429 144.262 L265.5336 142.5125 L267.3242 140.7625 L269.1149 139.0123 L270.9056 137.2619 L272.6963 135.5112 L274.4869 133.76 L276.2776 132.0087 L278.0683 130.2571 L279.859 128.5051 L281.6497 126.753 L283.4404 125.0005 L285.2311 123.2477 L287.0217 121.4946 L288.8124 119.7413 L290.6031 117.9876 L292.3938 116.2337 L294.1845 114.4796 L295.9752 112.7252 L297.7659 110.9706 L299.5565 109.2157 L301.3472 107.4606 L303.1379 105.7052 L304.9286 103.9496 L306.7193 102.1938 L308.5099 100.4377 L310.3007 98.6814 L312.0913 96.9249 L313.882 95.1681 L315.6727 93.411 L317.4634 91.6537 L319.254 89.8962 L321.0447 88.1385 L322.8354 86.3807 L324.6261 84.6225 L326.4168 82.8641 L328.2075 81.1054 L329.9981 79.3465 L331.7888 77.5874 L333.5795 75.8281 L335.3702 74.0685 L337.1609 72.3087 L338.9516 70.5486 L340.7422 68.7885 L342.5329 67.0281 L344.3236 65.2674 L346.1143 63.5065 L347.905 61.7456 L349.6956 59.9843 L351.4863 58.2229 L353.277 56.4613 L355.0677 54.6995 L356.8584 52.9374 L358.6491 51.1752 L360.4398 49.4128 L362.2304 47.6503 L364.0211 45.8875 L365.8118 44.1245 L367.6025 42.3614 L369.3932 40.5982 L371.1839 38.8348 L372.9745 37.0713 L374.7652 35.3075 L376.5559 33.5437 L378.3466 31.7796 L380.1373 30.0153 L381.928 28.2509 L383.7187 26.4865 L385.5093 24.7218 L387.3 22.9569 L389.0907 21.192 L390.8814 19.4268 L392.6721 17.6616 L394.4627 15.8962 L396.2534 14.1306 L398.0441 12.3648 L399.8348 10.599 L401.6255 8.8329 L403.4162 7.0667 L405.2068 5.3004 L406.9975 3.5338"
                  style="fill:none; clip-path:url(#clipPath11);"/>
        </g>
        <g transform="translate(5,5)"
           style="stroke-linecap:butt; font-size:13px; text-rendering:optimizeLegibility; image-rendering:optimizeQuality; color-rendering:optimizeQuality; font-family:'Times New Roman'; stroke-linejoin:round; color-interpolation:linearRGB;">
            <path d="M97 306 L408.9975 306"
                  style="fill:none; clip-path:url(#clipPath10);"/>
            <path d="M97 1.0033 L408.9975 1.0033"
                  style="fill:none; clip-path:url(#clipPath10);"/>
        </g>
        <g transform="translate(5,5)"
           style="stroke-linecap:butt; font-size:13px; text-rendering:optimizeLegibility; image-rendering:optimizeQuality; color-rendering:optimizeQuality; font-family:'Times New Roman'; stroke-linejoin:round; color-interpolation:linearRGB;">
            <path d="M244.1562 333.9844 L243.5469 336.1094 L244.7812 336.1094 L244.6406 336.6094 L243.4219 336.6094 L242.0781 341.2188 Q241.8594 341.9531 241.8594 342.1719 Q241.8594 342.3125 241.9219 342.3828 Q241.9844 342.4531 242.0781 342.4531 Q242.2656 342.4531 242.5938 342.1719 Q242.7812 342.0156 243.4219 341.2188 L243.6875 341.4062 Q242.9688 342.4531 242.3281 342.8906 Q241.8906 343.1875 241.4375 343.1875 Q241.0938 343.1875 240.875 342.9688 Q240.6562 342.75 240.6562 342.4219 Q240.6562 342 240.9062 341.125 L242.2188 336.6094 L241.0312 336.6094 L241.1094 336.2969 Q241.9688 336.0625 242.5391 335.6016 Q243.1094 335.1406 243.8125 333.9844 L244.1562 333.9844 Z"
                  style="stroke:none; clip-path:url(#clipPath12);"/>
            <path d="M253.75 346.1719 L250.3125 346.1719 L250.3125 332.1562 L253.75 332.1562 L253.75 332.7812 L251.4844 332.7812 L251.4844 345.5625 L253.75 345.5625 L253.75 346.1719 ZM259.4531 335.625 L259.4531 338.0625 L259.2031 338.0625 Q258.9062 336.9219 258.4375 336.5078 Q257.9688 336.0938 257.25 336.0938 Q256.7031 336.0938 256.3672 336.3828 Q256.0312 336.6719 256.0312 337.0156 Q256.0312 337.4531 256.2812 337.7656 Q256.5312 338.0938 257.2656 338.4531 L258.4062 339 Q260 339.7812 260 341.0469 Q260 342.0156 259.2578 342.6172 Q258.5156 343.2188 257.6094 343.2188 Q256.9531 343.2188 256.1094 342.9844 Q255.8438 342.9062 255.6875 342.9062 Q255.5 342.9062 255.4062 343.1094 L255.1406 343.1094 L255.1406 340.5469 L255.4062 340.5469 Q255.625 341.6406 256.2422 342.1953 Q256.8594 342.75 257.625 342.75 Q258.1562 342.75 258.5 342.4375 Q258.8438 342.125 258.8438 341.6719 Q258.8438 341.1406 258.4609 340.7734 Q258.0781 340.4062 256.9453 339.8438 Q255.8125 339.2812 255.4688 338.8281 Q255.1094 338.375 255.1094 337.7031 Q255.1094 336.8125 255.7188 336.2188 Q256.3281 335.625 257.2812 335.625 Q257.7031 335.625 258.3125 335.8125 Q258.7031 335.9219 258.8438 335.9219 Q258.9688 335.9219 259.0391 335.8672 Q259.1094 335.8125 259.2031 335.625 L259.4531 335.625 ZM261.1484 332.1562 L264.5859 332.1562 L264.5859 346.1875 L261.1484 346.1875 L261.1484 345.5625 L263.4141 345.5625 L263.4141 332.7812 L261.1484 332.7812 L261.1484 332.1562 Z"
                  style="clip-path:url(#clipPath12); stroke:none;"/>
        </g>
        <g transform="translate(5,5)"
           style="font-size:13px; text-rendering:optimizeLegibility; color-rendering:optimizeQuality; image-rendering:optimizeQuality; font-family:'Times New Roman'; color-interpolation:linearRGB;">
            <path d="M99 306 L99 310.025"
                  style="fill:none; clip-path:url(#clipPath10);"/>
            <path d="M100.5781 324.7656 Q100.5781 322.9531 101.125 321.6406 Q101.6719 320.3281 102.5781 319.6875 Q103.2812 319.1875 104.0312 319.1875 Q105.25 319.1875 106.2188 320.4219 Q107.4375 321.9688 107.4375 324.5938 Q107.4375 326.4375 106.9062 327.7266 Q106.375 329.0156 105.5469 329.6016 Q104.7188 330.1875 103.9531 330.1875 Q102.4375 330.1875 101.4375 328.3906 Q100.5781 326.8906 100.5781 324.7656 ZM102.1094 324.9531 Q102.1094 327.1406 102.6562 328.5312 Q103.0938 329.6875 103.9844 329.6875 Q104.4062 329.6875 104.8594 329.3125 Q105.3125 328.9375 105.5469 328.0469 Q105.9062 326.7031 105.9062 324.25 Q105.9062 322.4375 105.5312 321.2344 Q105.25 320.3281 104.7969 319.9531 Q104.4844 319.7031 104.0312 319.7031 Q103.5 319.7031 103.0781 320.1719 Q102.5156 320.8281 102.3125 322.2188 Q102.1094 323.6094 102.1094 324.9531 Z"
                  style="clip-path:url(#clipPath13); stroke:none;"
                  transform="translate(-5,-5)"/>
        </g>
        <g transform="translate(5,5)"
           style="font-size:13px; text-rendering:optimizeLegibility; color-rendering:optimizeQuality; image-rendering:optimizeQuality; font-family:'Times New Roman'; color-interpolation:linearRGB;">
            <path d="M134.8137 306 L134.8137 310.025"
                  style="fill:none; clip-path:url(#clipPath10);"/>
            <path d="M136.875 320.4375 L139.4531 319.1875 L139.7188 319.1875 L139.7188 328.125 Q139.7188 329.0156 139.7891 329.2344 Q139.8594 329.4531 140.0938 329.5703 Q140.3281 329.6875 141.0469 329.7031 L141.0469 330 L137.0625 330 L137.0625 329.7031 Q137.8125 329.6875 138.0312 329.5781 Q138.25 329.4688 138.3359 329.2734 Q138.4219 329.0781 138.4219 328.125 L138.4219 322.4062 Q138.4219 321.25 138.3438 320.9219 Q138.2969 320.6719 138.1484 320.5547 Q138 320.4375 137.7969 320.4375 Q137.5156 320.4375 137 320.6875 L136.875 320.4375 Z"
                  style="clip-path:url(#clipPath13); stroke:none;"
                  transform="translate(-5,-5)"/>
        </g>
        <g transform="translate(5,5)"
           style="font-size:13px; text-rendering:optimizeLegibility; color-rendering:optimizeQuality; image-rendering:optimizeQuality; font-family:'Times New Roman'; color-interpolation:linearRGB;">
            <path d="M170.6273 306 L170.6273 310.025"
                  style="fill:none; clip-path:url(#clipPath10);"/>
            <path d="M178.3438 327.9531 L177.5938 330 L171.3438 330 L171.3438 329.7031 Q174.1094 327.1875 175.2344 325.5938 Q176.3594 324 176.3594 322.6875 Q176.3594 321.6719 175.7422 321.0234 Q175.125 320.375 174.2656 320.375 Q173.4844 320.375 172.8594 320.8359 Q172.2344 321.2969 171.9375 322.1719 L171.6562 322.1719 Q171.8438 320.7344 172.6562 319.9609 Q173.4688 319.1875 174.6719 319.1875 Q175.9688 319.1875 176.8281 320.0156 Q177.6875 320.8438 177.6875 321.9688 Q177.6875 322.7656 177.3125 323.5781 Q176.7344 324.8438 175.4375 326.25 Q173.5 328.375 173.0156 328.8125 L175.7812 328.8125 Q176.625 328.8125 176.9609 328.75 Q177.2969 328.6875 177.5703 328.5 Q177.8438 328.3125 178.0469 327.9531 L178.3438 327.9531 Z"
                  style="clip-path:url(#clipPath13); stroke:none;"
                  transform="translate(-5,-5)"/>
        </g>
        <g transform="translate(5,5)"
           style="font-size:13px; text-rendering:optimizeLegibility; color-rendering:optimizeQuality; image-rendering:optimizeQuality; font-family:'Times New Roman'; color-interpolation:linearRGB;">
            <path d="M206.441 306 L206.441 310.025"
                  style="fill:none; clip-path:url(#clipPath10);"/>
            <path d="M207.8125 321.4219 Q208.2656 320.3438 208.9609 319.7656 Q209.6562 319.1875 210.6875 319.1875 Q211.9531 319.1875 212.6406 320.0156 Q213.1562 320.625 213.1562 321.3281 Q213.1562 322.4844 211.7031 323.7188 Q212.6719 324.1094 213.1719 324.8203 Q213.6719 325.5312 213.6719 326.4844 Q213.6719 327.8594 212.7969 328.875 Q211.6562 330.1875 209.5 330.1875 Q208.4219 330.1875 208.0391 329.9219 Q207.6562 329.6562 207.6562 329.3438 Q207.6562 329.125 207.8359 328.9531 Q208.0156 328.7812 208.2812 328.7812 Q208.4688 328.7812 208.6719 328.8438 Q208.8125 328.875 209.2812 329.125 Q209.75 329.375 209.9219 329.4219 Q210.2188 329.5 210.5469 329.5 Q211.3438 329.5 211.9297 328.8828 Q212.5156 328.2656 212.5156 327.4219 Q212.5156 326.8125 212.25 326.2188 Q212.0469 325.7812 211.7969 325.5625 Q211.4688 325.25 210.8828 324.9922 Q210.2969 324.7344 209.6875 324.7344 L209.4375 324.7344 L209.4375 324.5 Q210.0469 324.4219 210.6719 324.0547 Q211.2969 323.6875 211.5781 323.1719 Q211.8594 322.6562 211.8594 322.0469 Q211.8594 321.2344 211.3516 320.7422 Q210.8438 320.25 210.0938 320.25 Q208.8906 320.25 208.0781 321.5469 L207.8125 321.4219 Z"
                  style="clip-path:url(#clipPath13); stroke:none;"
                  transform="translate(-5,-5)"/>
        </g>
        <g transform="translate(5,5)"
           style="font-size:13px; text-rendering:optimizeLegibility; color-rendering:optimizeQuality; image-rendering:optimizeQuality; font-family:'Times New Roman'; color-interpolation:linearRGB;">
            <path d="M242.2547 306 L242.2547 310.025"
                  style="fill:none; clip-path:url(#clipPath10);"/>
            <path d="M250.4531 326.0938 L250.4531 327.2031 L249.0312 327.2031 L249.0312 330 L247.7344 330 L247.7344 327.2031 L243.25 327.2031 L243.25 326.2031 L248.1719 319.1875 L249.0312 319.1875 L249.0312 326.0938 L250.4531 326.0938 ZM247.7344 326.0938 L247.7344 320.8281 L244.0156 326.0938 L247.7344 326.0938 Z"
                  style="clip-path:url(#clipPath13); stroke:none;"
                  transform="translate(-5,-5)"/>
        </g>
        <g transform="translate(5,5)"
           style="font-size:13px; text-rendering:optimizeLegibility; color-rendering:optimizeQuality; image-rendering:optimizeQuality; font-family:'Times New Roman'; color-interpolation:linearRGB;">
            <path d="M278.0683 306 L278.0683 310.025"
                  style="fill:none; clip-path:url(#clipPath10);"/>
            <path d="M285.9531 319.4062 L285.3438 320.7344 L282.1562 320.7344 L281.4531 322.1562 Q283.5312 322.4531 284.7344 323.6875 Q285.7812 324.75 285.7812 326.1875 Q285.7812 327.0312 285.4375 327.7422 Q285.0938 328.4531 284.5781 328.9531 Q284.0625 329.4531 283.4375 329.75 Q282.5312 330.1875 281.5938 330.1875 Q280.6406 330.1875 280.2031 329.8594 Q279.7656 329.5312 279.7656 329.1406 Q279.7656 328.9219 279.9453 328.7578 Q280.125 328.5938 280.4062 328.5938 Q280.6094 328.5938 280.7578 328.6562 Q280.9062 328.7188 281.2812 328.9688 Q281.8594 329.375 282.4688 329.375 Q283.375 329.375 284.0703 328.6875 Q284.7656 328 284.7656 327 Q284.7656 326.0469 284.1484 325.2109 Q283.5312 324.375 282.4375 323.9219 Q281.5938 323.5781 280.125 323.5156 L282.1562 319.4062 L285.9531 319.4062 Z"
                  style="clip-path:url(#clipPath13); stroke:none;"
                  transform="translate(-5,-5)"/>
        </g>
        <g transform="translate(5,5)"
           style="font-size:13px; text-rendering:optimizeLegibility; color-rendering:optimizeQuality; image-rendering:optimizeQuality; font-family:'Times New Roman'; color-interpolation:linearRGB;">
            <path d="M313.882 306 L313.882 310.025"
                  style="fill:none; clip-path:url(#clipPath10);"/>
            <path d="M321.1719 319.1875 L321.1719 319.4688 Q320.1406 319.5781 319.4922 319.8828 Q318.8438 320.1875 318.2031 320.8203 Q317.5625 321.4531 317.1484 322.2344 Q316.7344 323.0156 316.4531 324.0781 Q317.5781 323.3125 318.7031 323.3125 Q319.7969 323.3125 320.5938 324.1875 Q321.3906 325.0625 321.3906 326.4375 Q321.3906 327.7656 320.5781 328.8594 Q319.6094 330.1875 318.0156 330.1875 Q316.9375 330.1875 316.1719 329.4688 Q314.6875 328.0625 314.6875 325.8438 Q314.6875 324.4219 315.2578 323.1406 Q315.8281 321.8594 316.8906 320.8672 Q317.9531 319.875 318.9219 319.5312 Q319.8906 319.1875 320.7188 319.1875 L321.1719 319.1875 ZM316.3125 324.6562 Q316.1719 325.7031 316.1719 326.3594 Q316.1719 327.1094 316.4531 327.9844 Q316.7344 328.8594 317.2812 329.375 Q317.6719 329.75 318.25 329.75 Q318.9219 329.75 319.4609 329.1094 Q320 328.4688 320 327.2812 Q320 325.9375 319.4688 324.9609 Q318.9375 323.9844 317.9531 323.9844 Q317.6562 323.9844 317.3203 324.1094 Q316.9844 324.2344 316.3125 324.6562 Z"
                  style="clip-path:url(#clipPath13); stroke:none;"
                  transform="translate(-5,-5)"/>
        </g>
        <g transform="translate(5,5)"
           style="font-size:13px; text-rendering:optimizeLegibility; color-rendering:optimizeQuality; image-rendering:optimizeQuality; font-family:'Times New Roman'; color-interpolation:linearRGB;">
            <path d="M349.6956 306 L349.6956 310.025"
                  style="fill:none; clip-path:url(#clipPath10);"/>
            <path d="M351.6094 319.4062 L357.2969 319.4062 L357.2969 319.7031 L353.7656 330.2188 L352.8906 330.2188 L356.0469 320.6719 L353.1406 320.6719 Q352.25 320.6719 351.875 320.8906 Q351.2188 321.25 350.8281 322 L350.5938 321.9062 L351.6094 319.4062 Z"
                  style="clip-path:url(#clipPath13); stroke:none;"
                  transform="translate(-5,-5)"/>
        </g>
        <g transform="translate(5,5)"
           style="font-size:13px; text-rendering:optimizeLegibility; color-rendering:optimizeQuality; image-rendering:optimizeQuality; font-family:'Times New Roman'; color-interpolation:linearRGB;">
            <path d="M385.5093 306 L385.5093 310.025"
                  style="fill:none; clip-path:url(#clipPath10);"/>
            <path d="M389.0781 324.6562 Q387.8125 323.625 387.4531 323 Q387.0938 322.375 387.0938 321.7031 Q387.0938 320.6719 387.8906 319.9297 Q388.6875 319.1875 390 319.1875 Q391.2812 319.1875 392.0625 319.8828 Q392.8438 320.5781 392.8438 321.4688 Q392.8438 322.0625 392.4219 322.6797 Q392 323.2969 390.6719 324.125 Q392.0469 325.1875 392.4844 325.7969 Q393.0781 326.5938 393.0781 327.4844 Q393.0781 328.5938 392.2266 329.3906 Q391.375 330.1875 390 330.1875 Q388.4844 330.1875 387.6406 329.2344 Q386.9688 328.4844 386.9688 327.5781 Q386.9688 326.875 387.4453 326.1875 Q387.9219 325.5 389.0781 324.6562 ZM390.2969 323.8281 Q391.2344 322.9844 391.4844 322.4922 Q391.7344 322 391.7344 321.3906 Q391.7344 320.5625 391.2734 320.1016 Q390.8125 319.6406 390.0156 319.6406 Q389.2188 319.6406 388.7188 320.1016 Q388.2188 320.5625 388.2188 321.1719 Q388.2188 321.5781 388.4297 321.9844 Q388.6406 322.3906 389.0156 322.7656 L390.2969 323.8281 ZM389.4375 324.9531 Q388.7969 325.5 388.4844 326.1484 Q388.1719 326.7969 388.1719 327.5469 Q388.1719 328.5469 388.7188 329.1562 Q389.2656 329.7656 390.125 329.7656 Q390.9688 329.7656 391.4766 329.2891 Q391.9844 328.8125 391.9844 328.125 Q391.9844 327.5625 391.6875 327.125 Q391.125 326.2969 389.4375 324.9531 Z"
                  style="clip-path:url(#clipPath13); stroke:none;"
                  transform="translate(-5,-5)"/>
        </g>
        <g transform="translate(5,5)"
           style="font-size:13px; text-rendering:optimizeLegibility; color-rendering:optimizeQuality; image-rendering:optimizeQuality; font-family:'Times New Roman'; color-interpolation:linearRGB;">
            <path d="M116.9068 306 L116.9068 308.0125"
                  style="fill:none; clip-path:url(#clipPath10);"/>
        </g>
        <g transform="translate(5,5)"
           style="font-size:13px; text-rendering:optimizeLegibility; color-rendering:optimizeQuality; image-rendering:optimizeQuality; font-family:'Times New Roman'; color-interpolation:linearRGB;">
            <path d="M152.7205 306 L152.7205 308.0125"
                  style="fill:none; clip-path:url(#clipPath10);"/>
        </g>
        <g transform="translate(5,5)"
           style="font-size:13px; text-rendering:optimizeLegibility; color-rendering:optimizeQuality; image-rendering:optimizeQuality; font-family:'Times New Roman'; color-interpolation:linearRGB;">
            <path d="M188.5342 306 L188.5342 308.0125"
                  style="fill:none; clip-path:url(#clipPath10);"/>
        </g>
        <g transform="translate(5,5)"
           style="font-size:13px; text-rendering:optimizeLegibility; color-rendering:optimizeQuality; image-rendering:optimizeQuality; font-family:'Times New Roman'; color-interpolation:linearRGB;">
            <path d="M224.3478 306 L224.3478 308.0125"
                  style="fill:none; clip-path:url(#clipPath10);"/>
        </g>
        <g transform="translate(5,5)"
           style="font-size:13px; text-rendering:optimizeLegibility; color-rendering:optimizeQuality; image-rendering:optimizeQuality; font-family:'Times New Roman'; color-interpolation:linearRGB;">
            <path d="M260.1615 306 L260.1615 308.0125"
                  style="fill:none; clip-path:url(#clipPath10);"/>
        </g>
        <g transform="translate(5,5)"
           style="font-size:13px; text-rendering:optimizeLegibility; color-rendering:optimizeQuality; image-rendering:optimizeQuality; font-family:'Times New Roman'; color-interpolation:linearRGB;">
            <path d="M295.9752 306 L295.9752 308.0125"
                  style="fill:none; clip-path:url(#clipPath10);"/>
        </g>
        <g transform="translate(5,5)"
           style="font-size:13px; text-rendering:optimizeLegibility; color-rendering:optimizeQuality; image-rendering:optimizeQuality; font-family:'Times New Roman'; color-interpolation:linearRGB;">
            <path d="M331.7888 306 L331.7888 308.0125"
                  style="fill:none; clip-path:url(#clipPath10);"/>
        </g>
        <g transform="translate(5,5)"
           style="font-size:13px; text-rendering:optimizeLegibility; color-rendering:optimizeQuality; image-rendering:optimizeQuality; font-family:'Times New Roman'; color-interpolation:linearRGB;">
            <path d="M367.6025 306 L367.6025 308.0125"
                  style="fill:none; clip-path:url(#clipPath10);"/>
        </g>
        <g transform="translate(5,5)"
           style="font-size:13px; text-rendering:optimizeLegibility; color-rendering:optimizeQuality; image-rendering:optimizeQuality; font-family:'Times New Roman'; color-interpolation:linearRGB;">
            <path d="M403.4162 306 L403.4162 308.0125"
                  style="fill:none; clip-path:url(#clipPath10);"/>
        </g>
        <g transform="translate(5,5)"
           style="stroke-linecap:butt; font-size:13px; text-rendering:optimizeLegibility; image-rendering:optimizeQuality; color-rendering:optimizeQuality; font-family:'Times New Roman'; stroke-linejoin:round; color-interpolation:linearRGB;">
            <path d="M97 306 L97 1.0033"
                  style="fill:none; clip-path:url(#clipPath10);"/>
            <path d="M408.9975 306 L408.9975 1.0033"
                  style="fill:none; clip-path:url(#clipPath10);"/>
        </g>
        <g transform="translate(5,5)"
           style="stroke-linecap:butt; font-size:13px; text-rendering:optimizeLegibility; image-rendering:optimizeQuality; color-rendering:optimizeQuality; font-family:'Times New Roman'; stroke-linejoin:round; color-interpolation:linearRGB;">
            <path d="M12.8125 151.9219 L12.3281 154.3281 L12.0469 154.3281 Q12 153.2812 11.5938 152.8047 Q11.1875 152.3281 10.5938 152.3281 Q10.1094 152.3281 9.8203 152.5938 Q9.5312 152.8594 9.5312 153.2344 Q9.5312 153.4844 9.6484 153.7188 Q9.7656 153.9531 10.1406 154.375 Q11.1562 155.4844 11.4531 156.0469 Q11.75 156.6094 11.75 157.1094 Q11.75 157.9219 11.0781 158.5547 Q10.4062 159.1875 9.375 159.1875 Q8.8125 159.1875 8.0781 158.9219 Q7.8125 158.8281 7.6719 158.8281 Q7.3281 158.8281 7.1406 159.1875 L6.8438 159.1875 L7.3281 156.6562 L7.625 156.6562 Q7.6719 157.8438 8.1172 158.3359 Q8.5625 158.8281 9.3281 158.8281 Q9.9219 158.8281 10.2734 158.4922 Q10.625 158.1562 10.625 157.6719 Q10.625 157.3594 10.5 157.0938 Q10.2812 156.625 9.5781 155.7969 Q8.875 154.9688 8.6797 154.5547 Q8.4844 154.1406 8.4844 153.7344 Q8.4844 152.9688 9.0312 152.4453 Q9.5781 151.9219 10.4531 151.9219 Q10.7031 151.9219 10.9062 151.9688 Q11.0156 151.9844 11.4141 152.1406 Q11.8125 152.2969 11.9531 152.2969 Q12.2812 152.2969 12.5156 151.9219 L12.8125 151.9219 Z"
                  style="stroke:none; clip-path:url(#clipPath14);"/>
            <path d="M24.1562 149.9844 L23.5469 152.1094 L24.7812 152.1094 L24.6406 152.6094 L23.4219 152.6094 L22.0781 157.2188 Q21.8594 157.9531 21.8594 158.1719 Q21.8594 158.3125 21.9219 158.3828 Q21.9844 158.4531 22.0781 158.4531 Q22.2656 158.4531 22.5938 158.1719 Q22.7812 158.0156 23.4219 157.2188 L23.6875 157.4062 Q22.9688 158.4531 22.3281 158.8906 Q21.8906 159.1875 21.4375 159.1875 Q21.0938 159.1875 20.875 158.9688 Q20.6562 158.75 20.6562 158.4219 Q20.6562 158 20.9062 157.125 L22.2188 152.6094 L21.0312 152.6094 L21.1094 152.2969 Q21.9688 152.0625 22.5391 151.6016 Q23.1094 151.1406 23.8125 149.9844 L24.1562 149.9844 Z"
                  style="clip-path:url(#clipPath14); stroke:none;"/>
            <path d="M3.1007 13.643 L2.8752 14 Q0 12.2148 0 6.86 L0 7 L0 7.14 Q0 1.7664 2.8752 0 L3.1007 0.3383 Q1.8228 1.4282 1.3906 3.4013 Q1.1275 4.6228 1.1275 6.86 L1.1275 7 L1.1275 7.14 Q1.1275 9.3584 1.3906 10.5799 Q1.8228 12.553 3.1007 13.643 Z"
                  style="clip-path:url(#clipPath15); stroke:none;"
                  transform="translate(15,148)"/>
            <path d="M0 0.357 L0.2255 0 Q3.1007 1.7852 3.1007 7.14 L3.1007 7 L3.1007 6.86 Q3.1007 12.2336 0.2255 14 L0 13.6617 Q1.2779 12.5718 1.7101 10.5987 Q1.9732 9.3772 1.9732 7.14 L1.9732 7 L1.9732 6.86 Q1.9732 4.6416 1.7101 3.4201 Q1.2779 1.447 0 0.357 Z"
                  style="clip-path:url(#clipPath16); stroke:none;"
                  transform="translate(26,148)"/>
            <path d="M40.75 162.1719 L37.3125 162.1719 L37.3125 148.1562 L40.75 148.1562 L40.75 148.7812 L38.4844 148.7812 L38.4844 161.5625 L40.75 161.5625 L40.75 162.1719 ZM43.9531 153.1562 Q44.7344 152.375 44.875 152.25 Q45.2344 151.9531 45.6406 151.7891 Q46.0469 151.625 46.4375 151.625 Q47.1094 151.625 47.5938 152.0156 Q48.0781 152.4062 48.25 153.1562 Q49.0469 152.2188 49.6016 151.9219 Q50.1562 151.625 50.75 151.625 Q51.3125 151.625 51.7578 151.9219 Q52.2031 152.2188 52.4531 152.875 Q52.625 153.3281 52.625 154.2969 L52.625 157.375 Q52.625 158.0469 52.7344 158.2969 Q52.8125 158.4688 53.0234 158.5938 Q53.2344 158.7188 53.7031 158.7188 L53.7031 159 L50.1719 159 L50.1719 158.7188 L50.3281 158.7188 Q50.7812 158.7188 51.0469 158.5312 Q51.2188 158.4062 51.2969 158.1406 Q51.3281 158 51.3281 157.375 L51.3281 154.2969 Q51.3281 153.4219 51.125 153.0625 Q50.8125 152.5625 50.1406 152.5625 Q49.7344 152.5625 49.3125 152.7734 Q48.8906 152.9844 48.2969 153.5469 L48.2812 153.625 L48.2969 153.9688 L48.2969 157.375 Q48.2969 158.1094 48.3828 158.2891 Q48.4688 158.4688 48.6953 158.5938 Q48.9219 158.7188 49.4688 158.7188 L49.4688 159 L45.8438 159 L45.8438 158.7188 Q46.4375 158.7188 46.6641 158.5781 Q46.8906 158.4375 46.9688 158.1562 Q47.0156 158.0156 47.0156 157.375 L47.0156 154.2969 Q47.0156 153.4219 46.75 153.0469 Q46.4062 152.5469 45.7969 152.5469 Q45.375 152.5469 44.9531 152.7656 Q44.3125 153.1094 43.9531 153.5469 L43.9531 157.375 Q43.9531 158.0781 44.0547 158.2891 Q44.1562 158.5 44.3438 158.6094 Q44.5312 158.7188 45.125 158.7188 L45.125 159 L41.5781 159 L41.5781 158.7188 Q42.0781 158.7188 42.2734 158.6094 Q42.4688 158.5 42.5703 158.2734 Q42.6719 158.0469 42.6719 157.375 L42.6719 154.6406 Q42.6719 153.4688 42.5938 153.125 Q42.5469 152.8594 42.4297 152.7656 Q42.3125 152.6719 42.1094 152.6719 Q41.8906 152.6719 41.5781 152.7812 L41.4688 152.5 L43.625 151.625 L43.9531 151.625 L43.9531 153.1562 ZM54.3672 148.1562 L57.8047 148.1562 L57.8047 162.1875 L54.3672 162.1875 L54.3672 161.5625 L56.6328 161.5625 L56.6328 148.7812 L54.3672 148.7812 L54.3672 148.1562 Z"
                  style="clip-path:url(#clipPath14); stroke:none;"/>
        </g>
        <g transform="translate(5,5)"
           style="font-size:13px; text-rendering:optimizeLegibility; color-rendering:optimizeQuality; image-rendering:optimizeQuality; font-family:'Times New Roman'; color-interpolation:linearRGB;">
            <path d="M97 304 L92.975 304"
                  style="fill:none; clip-path:url(#clipPath10);"/>
            <path d="M89.5781 309.7656 Q89.5781 307.9531 90.125 306.6406 Q90.6719 305.3281 91.5781 304.6875 Q92.2812 304.1875 93.0312 304.1875 Q94.25 304.1875 95.2188 305.4219 Q96.4375 306.9688 96.4375 309.5938 Q96.4375 311.4375 95.9062 312.7266 Q95.375 314.0156 94.5469 314.6016 Q93.7188 315.1875 92.9531 315.1875 Q91.4375 315.1875 90.4375 313.3906 Q89.5781 311.8906 89.5781 309.7656 ZM91.1094 309.9531 Q91.1094 312.1406 91.6562 313.5312 Q92.0938 314.6875 92.9844 314.6875 Q93.4062 314.6875 93.8594 314.3125 Q94.3125 313.9375 94.5469 313.0469 Q94.9062 311.7031 94.9062 309.25 Q94.9062 307.4375 94.5312 306.2344 Q94.25 305.3281 93.7969 304.9531 Q93.4844 304.7031 93.0312 304.7031 Q92.5 304.7031 92.0781 305.1719 Q91.5156 305.8281 91.3125 307.2188 Q91.1094 308.6094 91.1094 309.9531 Z"
                  style="clip-path:url(#clipPath13); stroke:none;"
                  transform="translate(-5,-5)"/>
        </g>
        <g transform="translate(5,5)"
           style="font-size:13px; text-rendering:optimizeLegibility; color-rendering:optimizeQuality; image-rendering:optimizeQuality; font-family:'Times New Roman'; color-interpolation:linearRGB;">
            <path d="M97 260.7937 L92.975 260.7937"
                  style="fill:none; clip-path:url(#clipPath10);"/>
            <path d="M74.875 261.4375 L77.4531 260.1875 L77.7188 260.1875 L77.7188 269.125 Q77.7188 270.0156 77.7891 270.2344 Q77.8594 270.4531 78.0938 270.5703 Q78.3281 270.6875 79.0469 270.7031 L79.0469 271 L75.0625 271 L75.0625 270.7031 Q75.8125 270.6875 76.0312 270.5781 Q76.25 270.4688 76.3359 270.2734 Q76.4219 270.0781 76.4219 269.125 L76.4219 263.4062 Q76.4219 262.25 76.3438 261.9219 Q76.2969 261.6719 76.1484 261.5547 Q76 261.4375 75.7969 261.4375 Q75.5156 261.4375 75 261.6875 L74.875 261.4375 ZM81.5781 265.7656 Q81.5781 263.9531 82.125 262.6406 Q82.6719 261.3281 83.5781 260.6875 Q84.2812 260.1875 85.0312 260.1875 Q86.25 260.1875 87.2188 261.4219 Q88.4375 262.9688 88.4375 265.5938 Q88.4375 267.4375 87.9062 268.7266 Q87.375 270.0156 86.5469 270.6016 Q85.7188 271.1875 84.9531 271.1875 Q83.4375 271.1875 82.4375 269.3906 Q81.5781 267.8906 81.5781 265.7656 ZM83.1094 265.9531 Q83.1094 268.1406 83.6562 269.5312 Q84.0938 270.6875 84.9844 270.6875 Q85.4062 270.6875 85.8594 270.3125 Q86.3125 269.9375 86.5469 269.0469 Q86.9062 267.7031 86.9062 265.25 Q86.9062 263.4375 86.5312 262.2344 Q86.25 261.3281 85.7969 260.9531 Q85.4844 260.7031 85.0312 260.7031 Q84.5 260.7031 84.0781 261.1719 Q83.5156 261.8281 83.3125 263.2188 Q83.1094 264.6094 83.1094 265.9531 ZM89.5781 265.7656 Q89.5781 263.9531 90.125 262.6406 Q90.6719 261.3281 91.5781 260.6875 Q92.2812 260.1875 93.0312 260.1875 Q94.25 260.1875 95.2188 261.4219 Q96.4375 262.9688 96.4375 265.5938 Q96.4375 267.4375 95.9062 268.7266 Q95.375 270.0156 94.5469 270.6016 Q93.7188 271.1875 92.9531 271.1875 Q91.4375 271.1875 90.4375 269.3906 Q89.5781 267.8906 89.5781 265.7656 ZM91.1094 265.9531 Q91.1094 268.1406 91.6562 269.5312 Q92.0938 270.6875 92.9844 270.6875 Q93.4062 270.6875 93.8594 270.3125 Q94.3125 269.9375 94.5469 269.0469 Q94.9062 267.7031 94.9062 265.25 Q94.9062 263.4375 94.5312 262.2344 Q94.25 261.3281 93.7969 260.9531 Q93.4844 260.7031 93.0312 260.7031 Q92.5 260.7031 92.0781 261.1719 Q91.5156 261.8281 91.3125 263.2188 Q91.1094 264.6094 91.1094 265.9531 Z"
                  style="clip-path:url(#clipPath13); stroke:none;"
                  transform="translate(-5,-5)"/>
        </g>
        <g transform="translate(5,5)"
           style="font-size:13px; text-rendering:optimizeLegibility; color-rendering:optimizeQuality; image-rendering:optimizeQuality; font-family:'Times New Roman'; color-interpolation:linearRGB;">
            <path d="M97 217.5874 L92.975 217.5874"
                  style="fill:none; clip-path:url(#clipPath10);"/>
            <path d="M80.3438 225.9531 L79.5938 228 L73.3438 228 L73.3438 227.7031 Q76.1094 225.1875 77.2344 223.5938 Q78.3594 222 78.3594 220.6875 Q78.3594 219.6719 77.7422 219.0234 Q77.125 218.375 76.2656 218.375 Q75.4844 218.375 74.8594 218.8359 Q74.2344 219.2969 73.9375 220.1719 L73.6562 220.1719 Q73.8438 218.7344 74.6562 217.9609 Q75.4688 217.1875 76.6719 217.1875 Q77.9688 217.1875 78.8281 218.0156 Q79.6875 218.8438 79.6875 219.9688 Q79.6875 220.7656 79.3125 221.5781 Q78.7344 222.8438 77.4375 224.25 Q75.5 226.375 75.0156 226.8125 L77.7812 226.8125 Q78.625 226.8125 78.9609 226.75 Q79.2969 226.6875 79.5703 226.5 Q79.8438 226.3125 80.0469 225.9531 L80.3438 225.9531 ZM81.5781 222.7656 Q81.5781 220.9531 82.125 219.6406 Q82.6719 218.3281 83.5781 217.6875 Q84.2812 217.1875 85.0312 217.1875 Q86.25 217.1875 87.2188 218.4219 Q88.4375 219.9688 88.4375 222.5938 Q88.4375 224.4375 87.9062 225.7266 Q87.375 227.0156 86.5469 227.6016 Q85.7188 228.1875 84.9531 228.1875 Q83.4375 228.1875 82.4375 226.3906 Q81.5781 224.8906 81.5781 222.7656 ZM83.1094 222.9531 Q83.1094 225.1406 83.6562 226.5312 Q84.0938 227.6875 84.9844 227.6875 Q85.4062 227.6875 85.8594 227.3125 Q86.3125 226.9375 86.5469 226.0469 Q86.9062 224.7031 86.9062 222.25 Q86.9062 220.4375 86.5312 219.2344 Q86.25 218.3281 85.7969 217.9531 Q85.4844 217.7031 85.0312 217.7031 Q84.5 217.7031 84.0781 218.1719 Q83.5156 218.8281 83.3125 220.2188 Q83.1094 221.6094 83.1094 222.9531 ZM89.5781 222.7656 Q89.5781 220.9531 90.125 219.6406 Q90.6719 218.3281 91.5781 217.6875 Q92.2812 217.1875 93.0312 217.1875 Q94.25 217.1875 95.2188 218.4219 Q96.4375 219.9688 96.4375 222.5938 Q96.4375 224.4375 95.9062 225.7266 Q95.375 227.0156 94.5469 227.6016 Q93.7188 228.1875 92.9531 228.1875 Q91.4375 228.1875 90.4375 226.3906 Q89.5781 224.8906 89.5781 222.7656 ZM91.1094 222.9531 Q91.1094 225.1406 91.6562 226.5312 Q92.0938 227.6875 92.9844 227.6875 Q93.4062 227.6875 93.8594 227.3125 Q94.3125 226.9375 94.5469 226.0469 Q94.9062 224.7031 94.9062 222.25 Q94.9062 220.4375 94.5312 219.2344 Q94.25 218.3281 93.7969 217.9531 Q93.4844 217.7031 93.0312 217.7031 Q92.5 217.7031 92.0781 218.1719 Q91.5156 218.8281 91.3125 220.2188 Q91.1094 221.6094 91.1094 222.9531 Z"
                  style="clip-path:url(#clipPath13); stroke:none;"
                  transform="translate(-5,-5)"/>
        </g>
        <g transform="translate(5,5)"
           style="font-size:13px; text-rendering:optimizeLegibility; color-rendering:optimizeQuality; image-rendering:optimizeQuality; font-family:'Times New Roman'; color-interpolation:linearRGB;">
            <path d="M97 174.3811 L92.975 174.3811"
                  style="fill:none; clip-path:url(#clipPath10);"/>
            <path d="M73.8125 176.4219 Q74.2656 175.3438 74.9609 174.7656 Q75.6562 174.1875 76.6875 174.1875 Q77.9531 174.1875 78.6406 175.0156 Q79.1562 175.625 79.1562 176.3281 Q79.1562 177.4844 77.7031 178.7188 Q78.6719 179.1094 79.1719 179.8203 Q79.6719 180.5312 79.6719 181.4844 Q79.6719 182.8594 78.7969 183.875 Q77.6562 185.1875 75.5 185.1875 Q74.4219 185.1875 74.0391 184.9219 Q73.6562 184.6562 73.6562 184.3438 Q73.6562 184.125 73.8359 183.9531 Q74.0156 183.7812 74.2812 183.7812 Q74.4688 183.7812 74.6719 183.8438 Q74.8125 183.875 75.2812 184.125 Q75.75 184.375 75.9219 184.4219 Q76.2188 184.5 76.5469 184.5 Q77.3438 184.5 77.9297 183.8828 Q78.5156 183.2656 78.5156 182.4219 Q78.5156 181.8125 78.25 181.2188 Q78.0469 180.7812 77.7969 180.5625 Q77.4688 180.25 76.8828 179.9922 Q76.2969 179.7344 75.6875 179.7344 L75.4375 179.7344 L75.4375 179.5 Q76.0469 179.4219 76.6719 179.0547 Q77.2969 178.6875 77.5781 178.1719 Q77.8594 177.6562 77.8594 177.0469 Q77.8594 176.2344 77.3516 175.7422 Q76.8438 175.25 76.0938 175.25 Q74.8906 175.25 74.0781 176.5469 L73.8125 176.4219 ZM81.5781 179.7656 Q81.5781 177.9531 82.125 176.6406 Q82.6719 175.3281 83.5781 174.6875 Q84.2812 174.1875 85.0312 174.1875 Q86.25 174.1875 87.2188 175.4219 Q88.4375 176.9688 88.4375 179.5938 Q88.4375 181.4375 87.9062 182.7266 Q87.375 184.0156 86.5469 184.6016 Q85.7188 185.1875 84.9531 185.1875 Q83.4375 185.1875 82.4375 183.3906 Q81.5781 181.8906 81.5781 179.7656 ZM83.1094 179.9531 Q83.1094 182.1406 83.6562 183.5312 Q84.0938 184.6875 84.9844 184.6875 Q85.4062 184.6875 85.8594 184.3125 Q86.3125 183.9375 86.5469 183.0469 Q86.9062 181.7031 86.9062 179.25 Q86.9062 177.4375 86.5312 176.2344 Q86.25 175.3281 85.7969 174.9531 Q85.4844 174.7031 85.0312 174.7031 Q84.5 174.7031 84.0781 175.1719 Q83.5156 175.8281 83.3125 177.2188 Q83.1094 178.6094 83.1094 179.9531 ZM89.5781 179.7656 Q89.5781 177.9531 90.125 176.6406 Q90.6719 175.3281 91.5781 174.6875 Q92.2812 174.1875 93.0312 174.1875 Q94.25 174.1875 95.2188 175.4219 Q96.4375 176.9688 96.4375 179.5938 Q96.4375 181.4375 95.9062 182.7266 Q95.375 184.0156 94.5469 184.6016 Q93.7188 185.1875 92.9531 185.1875 Q91.4375 185.1875 90.4375 183.3906 Q89.5781 181.8906 89.5781 179.7656 ZM91.1094 179.9531 Q91.1094 182.1406 91.6562 183.5312 Q92.0938 184.6875 92.9844 184.6875 Q93.4062 184.6875 93.8594 184.3125 Q94.3125 183.9375 94.5469 183.0469 Q94.9062 181.7031 94.9062 179.25 Q94.9062 177.4375 94.5312 176.2344 Q94.25 175.3281 93.7969 174.9531 Q93.4844 174.7031 93.0312 174.7031 Q92.5 174.7031 92.0781 175.1719 Q91.5156 175.8281 91.3125 177.2188 Q91.1094 178.6094 91.1094 179.9531 Z"
                  style="clip-path:url(#clipPath13); stroke:none;"
                  transform="translate(-5,-5)"/>
        </g>
        <g transform="translate(5,5)"
           style="font-size:13px; text-rendering:optimizeLegibility; color-rendering:optimizeQuality; image-rendering:optimizeQuality; font-family:'Times New Roman'; color-interpolation:linearRGB;">
            <path d="M97 131.1748 L92.975 131.1748"
                  style="fill:none; clip-path:url(#clipPath10);"/>
            <path d="M80.4531 138.0938 L80.4531 139.2031 L79.0312 139.2031 L79.0312 142 L77.7344 142 L77.7344 139.2031 L73.25 139.2031 L73.25 138.2031 L78.1719 131.1875 L79.0312 131.1875 L79.0312 138.0938 L80.4531 138.0938 ZM77.7344 138.0938 L77.7344 132.8281 L74.0156 138.0938 L77.7344 138.0938 ZM81.5781 136.7656 Q81.5781 134.9531 82.125 133.6406 Q82.6719 132.3281 83.5781 131.6875 Q84.2812 131.1875 85.0312 131.1875 Q86.25 131.1875 87.2188 132.4219 Q88.4375 133.9688 88.4375 136.5938 Q88.4375 138.4375 87.9062 139.7266 Q87.375 141.0156 86.5469 141.6016 Q85.7188 142.1875 84.9531 142.1875 Q83.4375 142.1875 82.4375 140.3906 Q81.5781 138.8906 81.5781 136.7656 ZM83.1094 136.9531 Q83.1094 139.1406 83.6562 140.5312 Q84.0938 141.6875 84.9844 141.6875 Q85.4062 141.6875 85.8594 141.3125 Q86.3125 140.9375 86.5469 140.0469 Q86.9062 138.7031 86.9062 136.25 Q86.9062 134.4375 86.5312 133.2344 Q86.25 132.3281 85.7969 131.9531 Q85.4844 131.7031 85.0312 131.7031 Q84.5 131.7031 84.0781 132.1719 Q83.5156 132.8281 83.3125 134.2188 Q83.1094 135.6094 83.1094 136.9531 ZM89.5781 136.7656 Q89.5781 134.9531 90.125 133.6406 Q90.6719 132.3281 91.5781 131.6875 Q92.2812 131.1875 93.0312 131.1875 Q94.25 131.1875 95.2188 132.4219 Q96.4375 133.9688 96.4375 136.5938 Q96.4375 138.4375 95.9062 139.7266 Q95.375 141.0156 94.5469 141.6016 Q93.7188 142.1875 92.9531 142.1875 Q91.4375 142.1875 90.4375 140.3906 Q89.5781 138.8906 89.5781 136.7656 ZM91.1094 136.9531 Q91.1094 139.1406 91.6562 140.5312 Q92.0938 141.6875 92.9844 141.6875 Q93.4062 141.6875 93.8594 141.3125 Q94.3125 140.9375 94.5469 140.0469 Q94.9062 138.7031 94.9062 136.25 Q94.9062 134.4375 94.5312 133.2344 Q94.25 132.3281 93.7969 131.9531 Q93.4844 131.7031 93.0312 131.7031 Q92.5 131.7031 92.0781 132.1719 Q91.5156 132.8281 91.3125 134.2188 Q91.1094 135.6094 91.1094 136.9531 Z"
                  style="clip-path:url(#clipPath13); stroke:none;"
                  transform="translate(-5,-5)"/>
        </g>
        <g transform="translate(5,5)"
           style="font-size:13px; text-rendering:optimizeLegibility; color-rendering:optimizeQuality; image-rendering:optimizeQuality; font-family:'Times New Roman'; color-interpolation:linearRGB;">
            <path d="M97 87.9685 L92.975 87.9685"
                  style="fill:none; clip-path:url(#clipPath10);"/>
            <path d="M79.9531 87.4062 L79.3438 88.7344 L76.1562 88.7344 L75.4531 90.1562 Q77.5312 90.4531 78.7344 91.6875 Q79.7812 92.75 79.7812 94.1875 Q79.7812 95.0312 79.4375 95.7422 Q79.0938 96.4531 78.5781 96.9531 Q78.0625 97.4531 77.4375 97.75 Q76.5312 98.1875 75.5938 98.1875 Q74.6406 98.1875 74.2031 97.8594 Q73.7656 97.5312 73.7656 97.1406 Q73.7656 96.9219 73.9453 96.7578 Q74.125 96.5938 74.4062 96.5938 Q74.6094 96.5938 74.7578 96.6562 Q74.9062 96.7188 75.2812 96.9688 Q75.8594 97.375 76.4688 97.375 Q77.375 97.375 78.0703 96.6875 Q78.7656 96 78.7656 95 Q78.7656 94.0469 78.1484 93.2109 Q77.5312 92.375 76.4375 91.9219 Q75.5938 91.5781 74.125 91.5156 L76.1562 87.4062 L79.9531 87.4062 ZM81.5781 92.7656 Q81.5781 90.9531 82.125 89.6406 Q82.6719 88.3281 83.5781 87.6875 Q84.2812 87.1875 85.0312 87.1875 Q86.25 87.1875 87.2188 88.4219 Q88.4375 89.9688 88.4375 92.5938 Q88.4375 94.4375 87.9062 95.7266 Q87.375 97.0156 86.5469 97.6016 Q85.7188 98.1875 84.9531 98.1875 Q83.4375 98.1875 82.4375 96.3906 Q81.5781 94.8906 81.5781 92.7656 ZM83.1094 92.9531 Q83.1094 95.1406 83.6562 96.5312 Q84.0938 97.6875 84.9844 97.6875 Q85.4062 97.6875 85.8594 97.3125 Q86.3125 96.9375 86.5469 96.0469 Q86.9062 94.7031 86.9062 92.25 Q86.9062 90.4375 86.5312 89.2344 Q86.25 88.3281 85.7969 87.9531 Q85.4844 87.7031 85.0312 87.7031 Q84.5 87.7031 84.0781 88.1719 Q83.5156 88.8281 83.3125 90.2188 Q83.1094 91.6094 83.1094 92.9531 ZM89.5781 92.7656 Q89.5781 90.9531 90.125 89.6406 Q90.6719 88.3281 91.5781 87.6875 Q92.2812 87.1875 93.0312 87.1875 Q94.25 87.1875 95.2188 88.4219 Q96.4375 89.9688 96.4375 92.5938 Q96.4375 94.4375 95.9062 95.7266 Q95.375 97.0156 94.5469 97.6016 Q93.7188 98.1875 92.9531 98.1875 Q91.4375 98.1875 90.4375 96.3906 Q89.5781 94.8906 89.5781 92.7656 ZM91.1094 92.9531 Q91.1094 95.1406 91.6562 96.5312 Q92.0938 97.6875 92.9844 97.6875 Q93.4062 97.6875 93.8594 97.3125 Q94.3125 96.9375 94.5469 96.0469 Q94.9062 94.7031 94.9062 92.25 Q94.9062 90.4375 94.5312 89.2344 Q94.25 88.3281 93.7969 87.9531 Q93.4844 87.7031 93.0312 87.7031 Q92.5 87.7031 92.0781 88.1719 Q91.5156 88.8281 91.3125 90.2188 Q91.1094 91.6094 91.1094 92.9531 Z"
                  style="clip-path:url(#clipPath13); stroke:none;"
                  transform="translate(-5,-5)"/>
        </g>
        <g transform="translate(5,5)"
           style="font-size:13px; text-rendering:optimizeLegibility; color-rendering:optimizeQuality; image-rendering:optimizeQuality; font-family:'Times New Roman'; color-interpolation:linearRGB;">
            <path d="M97 44.7622 L92.975 44.7622"
                  style="fill:none; clip-path:url(#clipPath10);"/>
            <path d="M80.1719 44.1875 L80.1719 44.4688 Q79.1406 44.5781 78.4922 44.8828 Q77.8438 45.1875 77.2031 45.8203 Q76.5625 46.4531 76.1484 47.2344 Q75.7344 48.0156 75.4531 49.0781 Q76.5781 48.3125 77.7031 48.3125 Q78.7969 48.3125 79.5938 49.1875 Q80.3906 50.0625 80.3906 51.4375 Q80.3906 52.7656 79.5781 53.8594 Q78.6094 55.1875 77.0156 55.1875 Q75.9375 55.1875 75.1719 54.4688 Q73.6875 53.0625 73.6875 50.8438 Q73.6875 49.4219 74.2578 48.1406 Q74.8281 46.8594 75.8906 45.8672 Q76.9531 44.875 77.9219 44.5312 Q78.8906 44.1875 79.7188 44.1875 L80.1719 44.1875 ZM75.3125 49.6562 Q75.1719 50.7031 75.1719 51.3594 Q75.1719 52.1094 75.4531 52.9844 Q75.7344 53.8594 76.2812 54.375 Q76.6719 54.75 77.25 54.75 Q77.9219 54.75 78.4609 54.1094 Q79 53.4688 79 52.2812 Q79 50.9375 78.4688 49.9609 Q77.9375 48.9844 76.9531 48.9844 Q76.6562 48.9844 76.3203 49.1094 Q75.9844 49.2344 75.3125 49.6562 ZM81.5781 49.7656 Q81.5781 47.9531 82.125 46.6406 Q82.6719 45.3281 83.5781 44.6875 Q84.2812 44.1875 85.0312 44.1875 Q86.25 44.1875 87.2188 45.4219 Q88.4375 46.9688 88.4375 49.5938 Q88.4375 51.4375 87.9062 52.7266 Q87.375 54.0156 86.5469 54.6016 Q85.7188 55.1875 84.9531 55.1875 Q83.4375 55.1875 82.4375 53.3906 Q81.5781 51.8906 81.5781 49.7656 ZM83.1094 49.9531 Q83.1094 52.1406 83.6562 53.5312 Q84.0938 54.6875 84.9844 54.6875 Q85.4062 54.6875 85.8594 54.3125 Q86.3125 53.9375 86.5469 53.0469 Q86.9062 51.7031 86.9062 49.25 Q86.9062 47.4375 86.5312 46.2344 Q86.25 45.3281 85.7969 44.9531 Q85.4844 44.7031 85.0312 44.7031 Q84.5 44.7031 84.0781 45.1719 Q83.5156 45.8281 83.3125 47.2188 Q83.1094 48.6094 83.1094 49.9531 ZM89.5781 49.7656 Q89.5781 47.9531 90.125 46.6406 Q90.6719 45.3281 91.5781 44.6875 Q92.2812 44.1875 93.0312 44.1875 Q94.25 44.1875 95.2188 45.4219 Q96.4375 46.9688 96.4375 49.5938 Q96.4375 51.4375 95.9062 52.7266 Q95.375 54.0156 94.5469 54.6016 Q93.7188 55.1875 92.9531 55.1875 Q91.4375 55.1875 90.4375 53.3906 Q89.5781 51.8906 89.5781 49.7656 ZM91.1094 49.9531 Q91.1094 52.1406 91.6562 53.5312 Q92.0938 54.6875 92.9844 54.6875 Q93.4062 54.6875 93.8594 54.3125 Q94.3125 53.9375 94.5469 53.0469 Q94.9062 51.7031 94.9062 49.25 Q94.9062 47.4375 94.5312 46.2344 Q94.25 45.3281 93.7969 44.9531 Q93.4844 44.7031 93.0312 44.7031 Q92.5 44.7031 92.0781 45.1719 Q91.5156 45.8281 91.3125 47.2188 Q91.1094 48.6094 91.1094 49.9531 Z"
                  style="clip-path:url(#clipPath13); stroke:none;"
                  transform="translate(-5,-5)"/>
        </g>
        <g transform="translate(5,5)"
           style="font-size:13px; text-rendering:optimizeLegibility; color-rendering:optimizeQuality; image-rendering:optimizeQuality; font-family:'Times New Roman'; color-interpolation:linearRGB;">
            <path d="M97 282.3969 L94.9875 282.3969"
                  style="fill:none; clip-path:url(#clipPath10);"/>
        </g>
        <g transform="translate(5,5)"
           style="font-size:13px; text-rendering:optimizeLegibility; color-rendering:optimizeQuality; image-rendering:optimizeQuality; font-family:'Times New Roman'; color-interpolation:linearRGB;">
            <path d="M97 239.1906 L94.9875 239.1906"
                  style="fill:none; clip-path:url(#clipPath10);"/>
        </g>
        <g transform="translate(5,5)"
           style="font-size:13px; text-rendering:optimizeLegibility; color-rendering:optimizeQuality; image-rendering:optimizeQuality; font-family:'Times New Roman'; color-interpolation:linearRGB;">
            <path d="M97 195.9843 L94.9875 195.9843"
                  style="fill:none; clip-path:url(#clipPath10);"/>
        </g>
        <g transform="translate(5,5)"
           style="font-size:13px; text-rendering:optimizeLegibility; color-rendering:optimizeQuality; image-rendering:optimizeQuality; font-family:'Times New Roman'; color-interpolation:linearRGB;">
            <path d="M97 152.778 L94.9875 152.778"
                  style="fill:none; clip-path:url(#clipPath10);"/>
        </g>
        <g transform="translate(5,5)"
           style="font-size:13px; text-rendering:optimizeLegibility; color-rendering:optimizeQuality; image-rendering:optimizeQuality; font-family:'Times New Roman'; color-interpolation:linearRGB;">
            <path d="M97 109.5717 L94.9875 109.5717"
                  style="fill:none; clip-path:url(#clipPath10);"/>
        </g>
        <g transform="translate(5,5)"
           style="font-size:13px; text-rendering:optimizeLegibility; color-rendering:optimizeQuality; image-rendering:optimizeQuality; font-family:'Times New Roman'; color-interpolation:linearRGB;">
            <path d="M97 66.3654 L94.9875 66.3654"
                  style="fill:none; clip-path:url(#clipPath10);"/>
        </g>
        <g transform="translate(5,5)"
           style="font-size:13px; text-rendering:optimizeLegibility; color-rendering:optimizeQuality; image-rendering:optimizeQuality; font-family:'Times New Roman'; color-interpolation:linearRGB;">
            <path d="M97 23.1591 L94.9875 23.1591"
                  style="fill:none; clip-path:url(#clipPath10);"/>
        </g>
    </g>
</svg>
