<?xml version="1.0" encoding="UTF-8"?>
<!DOCTYPE svg PUBLIC '-//W3C//DTD SVG 1.0//EN'
    'http://www.w3.org/TR/2001/REC-SVG-20010904/DTD/svg10.dtd' >

<svg style="stroke-dasharray:none; shape-rendering:auto; font-family:'Dialog'; text-rendering:auto; fill-opacity:1; color-interpolation:auto; color-rendering:auto; font-size:12px; fill:black; stroke:black; image-rendering:auto; stroke-miterlimit:10; stroke-linecap:square; stroke-linejoin:miter; font-style:normal; stroke-width:1; stroke-dashoffset:0; font-weight:normal; stroke-opacity:1;"
     xmlns="http://www.w3.org/2000/svg" contentScriptType="text/ecmascript"
     preserveAspectRatio="xMidYMid meet"
     xmlns:xlink="http://www.w3.org/1999/xlink" zoomAndPan="magnify"
     version="1.0" contentStyleType="text/css">
    <!--Generated by the Batik Graphics2D SVG Generator-->
    <defs id="genericDefs"/>
    <g>
        <defs id="defs1">
            <clipPath clipPathUnits="userSpaceOnUse" id="clipPath1">
                <path d="M85 355 L334 355 L334 379 L85 379 L85 355 Z"/>
            </clipPath>
            <clipPath clipPathUnits="userSpaceOnUse" id="clipPath2">
                <path d="M88 358 L88 376 L198 376 L198 358 Z"/>
            </clipPath>
            <clipPath clipPathUnits="userSpaceOnUse" id="clipPath3">
                <path d="M-2 -1 L-2 17 L108 17 L108 -1 Z"/>
            </clipPath>
            <clipPath clipPathUnits="userSpaceOnUse" id="clipPath4">
                <path d="M0 0 L0 18 L110 18 L110 0 Z"/>
            </clipPath>
            <clipPath clipPathUnits="userSpaceOnUse" id="clipPath5">
                <path d="M37 0 L37 17 L109 17 L109 0 Z"/>
            </clipPath>
            <clipPath clipPathUnits="userSpaceOnUse" id="clipPath6">
                <path d="M197 358 L197 376 L332 376 L332 358 Z"/>
            </clipPath>
            <clipPath clipPathUnits="userSpaceOnUse" id="clipPath7">
                <path d="M-2 -1 L-2 17 L133 17 L133 -1 Z"/>
            </clipPath>
            <clipPath clipPathUnits="userSpaceOnUse" id="clipPath8">
                <path d="M0 0 L0 18 L135 18 L135 0 Z"/>
            </clipPath>
            <clipPath clipPathUnits="userSpaceOnUse" id="clipPath9">
                <path d="M37 0 L37 17 L134 17 L134 0 Z"/>
            </clipPath>
            <clipPath clipPathUnits="userSpaceOnUse" id="clipPath10">
                <path d="M0 0 L410 0 L410 347 L0 347 L0 0 Z"/>
            </clipPath>
            <clipPath clipPathUnits="userSpaceOnUse" id="clipPath11">
                <path d="M117 0 L117 307 L410 307 L410 0 Z"/>
            </clipPath>
            <clipPath clipPathUnits="userSpaceOnUse" id="clipPath12">
                <path d="M245 328 L245 346 L281 346 L281 328 Z"/>
            </clipPath>
            <clipPath clipPathUnits="userSpaceOnUse" id="clipPath13">
                <path d="M5 5 L415 5 L415 352 L5 352 L5 5 Z"/>
            </clipPath>
            <clipPath clipPathUnits="userSpaceOnUse" id="clipPath14">
                <path d="M1 144 L1 162 L85 162 L85 144 Z"/>
            </clipPath>
            <clipPath clipPathUnits="userSpaceOnUse" id="clipPath15">
                <path d="M-15 -4 L-15 14 L69 14 L69 -4 Z"/>
            </clipPath>
            <clipPath clipPathUnits="userSpaceOnUse" id="clipPath16">
                <path d="M-26 -4 L-26 14 L58 14 L58 -4 Z"/>
            </clipPath>
        </defs>
        <g style="stroke-linecap:butt; font-size:13px; fill:rgb(0,116,204); text-rendering:optimizeLegibility; image-rendering:optimizeQuality; color-rendering:optimizeQuality; font-family:'Times New Roman'; stroke-linejoin:round; stroke:rgb(0,116,204); color-interpolation:linearRGB; stroke-width:1.5;"
           transform="translate(90,359)">
            <path d="M0 7 L34 7" style="fill:none; clip-path:url(#clipPath3);"/>
        </g>
        <g transform="translate(88,358)"
           style="stroke-linecap:butt; font-size:13px; text-rendering:optimizeLegibility; image-rendering:optimizeQuality; color-rendering:optimizeQuality; font-family:'Times New Roman'; stroke-linejoin:round; color-interpolation:linearRGB; stroke-width:1.5;">
            <path d="M51.0312 3.8438 L51.2656 7.2188 L51.0312 7.2188 Q50.5781 5.7031 49.7344 5.0391 Q48.8906 4.375 47.7188 4.375 Q46.7188 4.375 45.9219 4.875 Q45.125 5.375 44.6719 6.4688 Q44.2188 7.5625 44.2188 9.2031 Q44.2188 10.5469 44.6484 11.5391 Q45.0781 12.5312 45.9453 13.0547 Q46.8125 13.5781 47.9219 13.5781 Q48.8906 13.5781 49.6328 13.1641 Q50.375 12.75 51.2656 11.5312 L51.4844 11.6719 Q50.7344 13 49.7422 13.6172 Q48.75 14.2344 47.375 14.2344 Q44.9062 14.2344 43.5469 12.3906 Q42.5469 11.0312 42.5469 9.1875 Q42.5469 7.7031 43.2109 6.4531 Q43.875 5.2031 45.0469 4.5234 Q46.2188 3.8438 47.5938 3.8438 Q48.6719 3.8438 49.7188 4.375 Q50.0312 4.5312 50.1562 4.5312 Q50.3594 4.5312 50.5 4.3906 Q50.6875 4.1875 50.7812 3.8438 L51.0312 3.8438 ZM55.7549 7.0938 Q57.2861 7.0938 58.208 8.25 Q58.9893 9.2344 58.9893 10.5156 Q58.9893 11.4219 58.5518 12.3438 Q58.1143 13.2656 57.3564 13.7344 Q56.5986 14.2031 55.6768 14.2031 Q54.1611 14.2031 53.2705 13 Q52.5049 11.9844 52.5049 10.7188 Q52.5049 9.7812 52.9658 8.875 Q53.4268 7.9688 54.1768 7.5312 Q54.9268 7.0938 55.7549 7.0938 ZM55.5205 7.5625 Q55.1455 7.5625 54.7471 7.7969 Q54.3486 8.0312 54.1143 8.6094 Q53.8799 9.1875 53.8799 10.0938 Q53.8799 11.5625 54.458 12.625 Q55.0361 13.6875 55.9893 13.6875 Q56.6924 13.6875 57.1611 13.1016 Q57.6299 12.5156 57.6299 11.0781 Q57.6299 9.2969 56.8486 8.2656 Q56.333 7.5625 55.5205 7.5625 ZM61.9736 8.5156 Q62.6924 7.7812 62.833 7.6719 Q63.1611 7.4062 63.5439 7.25 Q63.9268 7.0938 64.3018 7.0938 Q64.9268 7.0938 65.3799 7.4609 Q65.833 7.8281 65.9893 8.5156 Q66.7393 7.6406 67.2627 7.3672 Q67.7861 7.0938 68.333 7.0938 Q68.8643 7.0938 69.2783 7.3672 Q69.6924 7.6406 69.9424 8.2656 Q70.0986 8.6875 70.0986 9.5938 L70.0986 12.4844 Q70.0986 13.1094 70.1924 13.3438 Q70.2705 13.5156 70.4658 13.625 Q70.6611 13.7344 71.1143 13.7344 L71.1143 14 L67.8018 14 L67.8018 13.7344 L67.9424 13.7344 Q68.3643 13.7344 68.6143 13.5625 Q68.7705 13.4531 68.8486 13.1875 Q68.8799 13.0625 68.8799 12.4844 L68.8799 9.5938 Q68.8799 8.7812 68.6768 8.4375 Q68.3955 7.9688 67.7705 7.9688 Q67.3799 7.9688 66.9893 8.1641 Q66.5986 8.3594 66.0361 8.8906 L66.0205 8.9688 L66.0361 9.2812 L66.0361 12.4844 Q66.0361 13.1719 66.1143 13.3438 Q66.1924 13.5156 66.4033 13.625 Q66.6143 13.7344 67.1299 13.7344 L67.1299 14 L63.7393 14 L63.7393 13.7344 Q64.3018 13.7344 64.5049 13.6016 Q64.708 13.4688 64.7861 13.2031 Q64.833 13.0781 64.833 12.4844 L64.833 9.5938 Q64.833 8.7812 64.583 8.4219 Q64.2705 7.9531 63.6924 7.9531 Q63.2861 7.9531 62.9111 8.1562 Q62.3018 8.4844 61.9736 8.8906 L61.9736 12.4844 Q61.9736 13.1406 62.0596 13.3359 Q62.1455 13.5312 62.3252 13.6328 Q62.5049 13.7344 63.0518 13.7344 L63.0518 14 L59.7393 14 L59.7393 13.7344 Q60.208 13.7344 60.3877 13.6328 Q60.5674 13.5312 60.6611 13.3203 Q60.7549 13.1094 60.7549 12.4844 L60.7549 9.9219 Q60.7549 8.8125 60.6924 8.4844 Q60.6455 8.25 60.5361 8.1562 Q60.4268 8.0625 60.2236 8.0625 Q60.0205 8.0625 59.7393 8.1719 L59.6299 7.9062 L61.6455 7.0938 L61.9736 7.0938 L61.9736 8.5156 ZM71.1567 7.9531 L73.2192 7.125 L73.5005 7.125 L73.5005 8.6875 Q74.0161 7.7969 74.5396 7.4453 Q75.063 7.0938 75.6411 7.0938 Q76.6567 7.0938 77.3286 7.8906 Q78.1567 8.8438 78.1567 10.4062 Q78.1567 12.1406 77.1567 13.2812 Q76.3442 14.2031 75.0942 14.2031 Q74.563 14.2031 74.1567 14.0469 Q73.8755 13.9375 73.5005 13.6094 L73.5005 15.6562 Q73.5005 16.3438 73.5864 16.5312 Q73.6724 16.7188 73.8833 16.8281 Q74.0942 16.9375 74.6411 16.9375 L74.6411 17.2031 L71.1255 17.2031 L71.1255 16.9375 L71.2974 16.9375 Q71.7036 16.9375 72.0005 16.7812 Q72.1255 16.7031 72.2036 16.5234 Q72.2817 16.3438 72.2817 15.6094 L72.2817 9.2656 Q72.2817 8.6094 72.2271 8.4375 Q72.1724 8.2656 72.0396 8.1797 Q71.9067 8.0938 71.688 8.0938 Q71.5161 8.0938 71.2505 8.1875 L71.1567 7.9531 ZM73.5005 9.125 L73.5005 11.625 Q73.5005 12.4375 73.563 12.7031 Q73.6724 13.125 74.0708 13.4453 Q74.4692 13.7656 75.0786 13.7656 Q75.813 13.7656 76.2661 13.1875 Q76.8599 12.4531 76.8599 11.0938 Q76.8599 9.5469 76.188 8.7188 Q75.7192 8.1562 75.063 8.1562 Q74.7192 8.1562 74.3755 8.3281 Q74.1099 8.4688 73.5005 9.125 ZM85.0161 7.2969 L85.0161 11.3594 Q85.0161 12.5156 85.0708 12.7812 Q85.1255 13.0469 85.2505 13.1484 Q85.3755 13.25 85.5317 13.25 Q85.7661 13.25 86.0474 13.125 L86.1567 13.375 L84.1411 14.2031 L83.813 14.2031 L83.813 12.7812 Q82.9536 13.7188 82.5005 13.9609 Q82.0474 14.2031 81.5317 14.2031 Q80.9692 14.2031 80.5552 13.875 Q80.1411 13.5469 79.9849 13.0391 Q79.8286 12.5312 79.8286 11.5938 L79.8286 8.5938 Q79.8286 8.125 79.7192 7.9375 Q79.6099 7.75 79.4146 7.6484 Q79.2192 7.5469 78.688 7.5625 L78.688 7.2969 L81.0317 7.2969 L81.0317 11.7812 Q81.0317 12.7188 81.3599 13.0078 Q81.688 13.2969 82.1567 13.2969 Q82.4692 13.2969 82.8677 13.1016 Q83.2661 12.9062 83.813 12.3594 L83.813 8.5469 Q83.813 7.9844 83.6021 7.7812 Q83.3911 7.5781 82.7349 7.5625 L82.7349 7.2969 L85.0161 7.2969 ZM88.5942 5.0938 L88.5942 7.2969 L90.1567 7.2969 L90.1567 7.7969 L88.5942 7.7969 L88.5942 12.1562 Q88.5942 12.8125 88.7817 13.0391 Q88.9692 13.2656 89.2505 13.2656 Q89.5005 13.2656 89.7271 13.1094 Q89.9536 12.9531 90.0786 12.6719 L90.3599 12.6719 Q90.1099 13.3906 89.6411 13.75 Q89.1724 14.1094 88.6724 14.1094 Q88.3286 14.1094 88.0083 13.9219 Q87.688 13.7344 87.5317 13.3906 Q87.3755 13.0469 87.3755 12.3125 L87.3755 7.7969 L86.313 7.7969 L86.313 7.5625 Q86.7192 7.4062 87.1411 7.0156 Q87.563 6.625 87.8911 6.1094 Q88.063 5.8281 88.3599 5.0938 L88.5942 5.0938 ZM91.9336 9.8125 Q91.9336 11.3125 92.668 12.1562 Q93.3867 13.0156 94.3867 13.0156 Q95.043 13.0156 95.5273 12.6484 Q96.0117 12.2812 96.3398 11.4062 L96.5742 11.5469 Q96.418 12.5625 95.6758 13.3828 Q94.9336 14.2031 93.8242 14.2031 Q92.6211 14.2031 91.7617 13.2656 Q90.9023 12.3281 90.9023 10.7344 Q90.9023 9.0156 91.7852 8.0469 Q92.668 7.0781 93.9961 7.0781 Q95.1211 7.0781 95.8477 7.8281 Q96.5742 8.5781 96.5742 9.8125 L91.9336 9.8125 ZM91.9336 9.3906 L95.043 9.3906 Q95.0117 8.75 94.8867 8.4844 Q94.6992 8.0781 94.3398 7.8438 Q93.9805 7.6094 93.5898 7.6094 Q92.9805 7.6094 92.4961 8.0781 Q92.0117 8.5469 91.9336 9.3906 ZM102.2007 13.25 Q101.7163 13.7656 101.2476 13.9844 Q100.7788 14.2031 100.2319 14.2031 Q99.1382 14.2031 98.3179 13.2812 Q97.4976 12.3594 97.4976 10.9219 Q97.4976 9.4844 98.4038 8.2812 Q99.3101 7.0781 100.7476 7.0781 Q101.6226 7.0781 102.2007 7.6562 L102.2007 6.4062 Q102.2007 5.2656 102.146 5 Q102.0913 4.7344 101.9741 4.6406 Q101.8569 4.5469 101.6851 4.5469 Q101.4976 4.5469 101.1851 4.6562 L101.0913 4.4062 L103.0913 3.5781 L103.4194 3.5781 L103.4194 11.3438 Q103.4194 12.5156 103.4741 12.7812 Q103.5288 13.0469 103.646 13.1484 Q103.7632 13.25 103.9194 13.25 Q104.1226 13.25 104.4507 13.125 L104.5288 13.375 L102.5444 14.2031 L102.2007 14.2031 L102.2007 13.25 ZM102.2007 12.7344 L102.2007 9.2812 Q102.1538 8.7812 101.9351 8.3672 Q101.7163 7.9531 101.3569 7.75 Q100.9976 7.5469 100.6538 7.5469 Q100.0132 7.5469 99.4976 8.125 Q98.8413 8.875 98.8413 10.3438 Q98.8413 11.8281 99.4819 12.6172 Q100.1226 13.4062 100.9194 13.4062 Q101.5757 13.4062 102.2007 12.7344 Z"
                  style="stroke:none; clip-path:url(#clipPath5);"/>
        </g>
        <g style="stroke-linecap:butt; font-size:13px; fill:rgb(204,0,116); text-rendering:optimizeLegibility; image-rendering:optimizeQuality; color-rendering:optimizeQuality; font-family:'Times New Roman'; stroke-linejoin:round; stroke:rgb(204,0,116); color-interpolation:linearRGB; stroke-width:1.5;"
           transform="translate(199,359)">
            <path d="M0 7 L34 7" style="fill:none; clip-path:url(#clipPath7);"/>
        </g>
        <g transform="translate(197,358)"
           style="stroke-linecap:butt; font-size:13px; text-rendering:optimizeLegibility; image-rendering:optimizeQuality; color-rendering:optimizeQuality; font-family:'Times New Roman'; stroke-linejoin:round; color-interpolation:linearRGB; stroke-width:1.5;">
            <path d="M48.875 3.8438 L48.875 7.2812 L48.6094 7.2812 Q48.4688 6.2812 48.1328 5.6953 Q47.7969 5.1094 47.1641 4.7656 Q46.5312 4.4219 45.8594 4.4219 Q45.0938 4.4219 44.6016 4.8906 Q44.1094 5.3594 44.1094 5.9531 Q44.1094 6.4062 44.4219 6.7812 Q44.875 7.3281 46.5781 8.25 Q47.9688 8.9844 48.4766 9.3828 Q48.9844 9.7812 49.2578 10.3281 Q49.5312 10.875 49.5312 11.4688 Q49.5312 12.5938 48.6562 13.4141 Q47.7812 14.2344 46.4062 14.2344 Q45.9844 14.2344 45.5938 14.1562 Q45.375 14.125 44.6562 13.8906 Q43.9375 13.6562 43.75 13.6562 Q43.5625 13.6562 43.4609 13.7656 Q43.3594 13.875 43.2969 14.2344 L43.0312 14.2344 L43.0312 10.8281 L43.2969 10.8281 Q43.5 11.8906 43.8203 12.4219 Q44.1406 12.9531 44.8047 13.3047 Q45.4688 13.6562 46.25 13.6562 Q47.1719 13.6562 47.7031 13.1719 Q48.2344 12.6875 48.2344 12.0312 Q48.2344 11.6562 48.0312 11.2891 Q47.8281 10.9219 47.4062 10.5938 Q47.125 10.375 45.8516 9.6641 Q44.5781 8.9531 44.0391 8.5234 Q43.5 8.0938 43.2188 7.5859 Q42.9375 7.0781 42.9375 6.4531 Q42.9375 5.3906 43.7578 4.6172 Q44.5781 3.8438 45.8438 3.8438 Q46.6406 3.8438 47.5156 4.2344 Q47.9375 4.4062 48.0938 4.4062 Q48.2969 4.4062 48.4141 4.2969 Q48.5312 4.1875 48.6094 3.8438 L48.875 3.8438 ZM52.5142 3.5781 Q52.8267 3.5781 53.0454 3.7969 Q53.2642 4.0156 53.2642 4.3281 Q53.2642 4.625 53.0454 4.8516 Q52.8267 5.0781 52.5142 5.0781 Q52.2173 5.0781 51.9907 4.8516 Q51.7642 4.625 51.7642 4.3281 Q51.7642 4.0156 51.9829 3.7969 Q52.2017 3.5781 52.5142 3.5781 ZM53.1235 7.0938 L53.1235 12.4844 Q53.1235 13.1094 53.2173 13.3203 Q53.311 13.5312 53.4907 13.6328 Q53.6704 13.7344 54.1392 13.7344 L54.1392 14 L50.8892 14 L50.8892 13.7344 Q51.3735 13.7344 51.5454 13.6406 Q51.7173 13.5469 51.811 13.3281 Q51.9048 13.1094 51.9048 12.4844 L51.9048 9.8906 Q51.9048 8.8125 51.8423 8.4844 Q51.7954 8.25 51.686 8.1562 Q51.5767 8.0625 51.3892 8.0625 Q51.1704 8.0625 50.8892 8.1719 L50.7798 7.9062 L52.811 7.0938 L53.1235 7.0938 ZM56.9785 8.5156 Q57.6973 7.7812 57.8379 7.6719 Q58.166 7.4062 58.5488 7.25 Q58.9316 7.0938 59.3066 7.0938 Q59.9316 7.0938 60.3848 7.4609 Q60.8379 7.8281 60.9941 8.5156 Q61.7441 7.6406 62.2676 7.3672 Q62.791 7.0938 63.3379 7.0938 Q63.8691 7.0938 64.2832 7.3672 Q64.6973 7.6406 64.9473 8.2656 Q65.1035 8.6875 65.1035 9.5938 L65.1035 12.4844 Q65.1035 13.1094 65.1973 13.3438 Q65.2754 13.5156 65.4707 13.625 Q65.666 13.7344 66.1191 13.7344 L66.1191 14 L62.8066 14 L62.8066 13.7344 L62.9473 13.7344 Q63.3691 13.7344 63.6191 13.5625 Q63.7754 13.4531 63.8535 13.1875 Q63.8848 13.0625 63.8848 12.4844 L63.8848 9.5938 Q63.8848 8.7812 63.6816 8.4375 Q63.4004 7.9688 62.7754 7.9688 Q62.3848 7.9688 61.9941 8.1641 Q61.6035 8.3594 61.041 8.8906 L61.0254 8.9688 L61.041 9.2812 L61.041 12.4844 Q61.041 13.1719 61.1191 13.3438 Q61.1973 13.5156 61.4082 13.625 Q61.6191 13.7344 62.1348 13.7344 L62.1348 14 L58.7441 14 L58.7441 13.7344 Q59.3066 13.7344 59.5098 13.6016 Q59.7129 13.4688 59.791 13.2031 Q59.8379 13.0781 59.8379 12.4844 L59.8379 9.5938 Q59.8379 8.7812 59.5879 8.4219 Q59.2754 7.9531 58.6973 7.9531 Q58.291 7.9531 57.916 8.1562 Q57.3066 8.4844 56.9785 8.8906 L56.9785 12.4844 Q56.9785 13.1406 57.0645 13.3359 Q57.1504 13.5312 57.3301 13.6328 Q57.5098 13.7344 58.0566 13.7344 L58.0566 14 L54.7441 14 L54.7441 13.7344 Q55.2129 13.7344 55.3926 13.6328 Q55.5723 13.5312 55.666 13.3203 Q55.7598 13.1094 55.7598 12.4844 L55.7598 9.9219 Q55.7598 8.8125 55.6973 8.4844 Q55.6504 8.25 55.541 8.1562 Q55.4316 8.0625 55.2285 8.0625 Q55.0254 8.0625 54.7441 8.1719 L54.6348 7.9062 L56.6504 7.0938 L56.9785 7.0938 L56.9785 8.5156 ZM72.521 7.2969 L72.521 11.3594 Q72.521 12.5156 72.5757 12.7812 Q72.6304 13.0469 72.7554 13.1484 Q72.8804 13.25 73.0366 13.25 Q73.271 13.25 73.5522 13.125 L73.6616 13.375 L71.646 14.2031 L71.3179 14.2031 L71.3179 12.7812 Q70.4585 13.7188 70.0054 13.9609 Q69.5522 14.2031 69.0366 14.2031 Q68.4741 14.2031 68.0601 13.875 Q67.646 13.5469 67.4897 13.0391 Q67.3335 12.5312 67.3335 11.5938 L67.3335 8.5938 Q67.3335 8.125 67.2241 7.9375 Q67.1147 7.75 66.9194 7.6484 Q66.7241 7.5469 66.1929 7.5625 L66.1929 7.2969 L68.5366 7.2969 L68.5366 11.7812 Q68.5366 12.7188 68.8647 13.0078 Q69.1929 13.2969 69.6616 13.2969 Q69.9741 13.2969 70.3726 13.1016 Q70.771 12.9062 71.3179 12.3594 L71.3179 8.5469 Q71.3179 7.9844 71.1069 7.7812 Q70.896 7.5781 70.2397 7.5625 L70.2397 7.2969 L72.521 7.2969 ZM76.4585 3.5781 L76.4585 12.4844 Q76.4585 13.1094 76.5444 13.3203 Q76.6304 13.5312 76.8257 13.6328 Q77.021 13.7344 77.5366 13.7344 L77.5366 14 L74.2554 14 L74.2554 13.7344 Q74.7085 13.7344 74.8804 13.6406 Q75.0522 13.5469 75.146 13.3281 Q75.2397 13.1094 75.2397 12.4844 L75.2397 6.3906 Q75.2397 5.25 75.1851 4.9922 Q75.1304 4.7344 75.021 4.6406 Q74.9116 4.5469 74.7397 4.5469 Q74.5366 4.5469 74.2554 4.6562 L74.1304 4.4062 L76.1304 3.5781 L76.4585 3.5781 ZM82.1104 13.0312 Q81.0791 13.8281 80.8135 13.9531 Q80.4229 14.1406 79.9697 14.1406 Q79.2822 14.1406 78.8291 13.6641 Q78.376 13.1875 78.376 12.4062 Q78.376 11.9219 78.5947 11.5625 Q78.9072 11.0625 79.6494 10.625 Q80.3916 10.1875 82.1104 9.5469 L82.1104 9.2969 Q82.1104 8.2812 81.7979 7.9141 Q81.4854 7.5469 80.876 7.5469 Q80.4072 7.5469 80.1416 7.7812 Q79.8604 8.0312 79.8604 8.3594 L79.876 8.7812 Q79.876 9.125 79.7041 9.3047 Q79.5322 9.4844 79.251 9.4844 Q78.9854 9.4844 78.8135 9.2969 Q78.6416 9.1094 78.6416 8.7812 Q78.6416 8.1406 79.2822 7.6172 Q79.9229 7.0938 81.0947 7.0938 Q81.9854 7.0938 82.5479 7.3906 Q82.9854 7.625 83.1885 8.1094 Q83.3291 8.4219 83.3291 9.3906 L83.3291 11.6719 Q83.3291 12.625 83.3604 12.8438 Q83.3916 13.0625 83.4775 13.1328 Q83.5635 13.2031 83.6729 13.2031 Q83.7979 13.2031 83.876 13.1562 Q84.0322 13.0625 84.4697 12.625 L84.4697 13.0312 Q83.6572 14.125 82.9072 14.125 Q82.5479 14.125 82.3369 13.8828 Q82.126 13.6406 82.1104 13.0312 ZM82.1104 12.5625 L82.1104 10 Q81.0166 10.4375 80.6885 10.625 Q80.1104 10.9531 79.8604 11.3047 Q79.6104 11.6562 79.6104 12.0625 Q79.6104 12.5938 79.9229 12.9453 Q80.2354 13.2969 80.6572 13.2969 Q81.2041 13.2969 82.1104 12.5625 ZM86.9243 5.0938 L86.9243 7.2969 L88.4868 7.2969 L88.4868 7.7969 L86.9243 7.7969 L86.9243 12.1562 Q86.9243 12.8125 87.1118 13.0391 Q87.2993 13.2656 87.5806 13.2656 Q87.8306 13.2656 88.0571 13.1094 Q88.2837 12.9531 88.4087 12.6719 L88.6899 12.6719 Q88.4399 13.3906 87.9712 13.75 Q87.5024 14.1094 87.0024 14.1094 Q86.6587 14.1094 86.3384 13.9219 Q86.0181 13.7344 85.8618 13.3906 Q85.7056 13.0469 85.7056 12.3125 L85.7056 7.7969 L84.6431 7.7969 L84.6431 7.5625 Q85.0493 7.4062 85.4712 7.0156 Q85.8931 6.625 86.2212 6.1094 Q86.3931 5.8281 86.6899 5.0938 L86.9243 5.0938 ZM92.4199 7.0938 Q93.9512 7.0938 94.873 8.25 Q95.6543 9.2344 95.6543 10.5156 Q95.6543 11.4219 95.2168 12.3438 Q94.7793 13.2656 94.0215 13.7344 Q93.2637 14.2031 92.3418 14.2031 Q90.8262 14.2031 89.9355 13 Q89.1699 11.9844 89.1699 10.7188 Q89.1699 9.7812 89.6309 8.875 Q90.0918 7.9688 90.8418 7.5312 Q91.5918 7.0938 92.4199 7.0938 ZM92.1855 7.5625 Q91.8105 7.5625 91.4121 7.7969 Q91.0137 8.0312 90.7793 8.6094 Q90.5449 9.1875 90.5449 10.0938 Q90.5449 11.5625 91.123 12.625 Q91.7012 13.6875 92.6543 13.6875 Q93.3574 13.6875 93.8262 13.1016 Q94.2949 12.5156 94.2949 11.0781 Q94.2949 9.2969 93.5137 8.2656 Q92.998 7.5625 92.1855 7.5625 ZM98.6074 7.0938 L98.6074 8.6094 Q99.4512 7.0938 100.3262 7.0938 Q100.7324 7.0938 100.998 7.3359 Q101.2637 7.5781 101.2637 7.9062 Q101.2637 8.1875 101.0684 8.3906 Q100.873 8.5938 100.623 8.5938 Q100.3574 8.5938 100.0371 8.3359 Q99.7168 8.0781 99.5762 8.0781 Q99.4355 8.0781 99.2793 8.2344 Q98.9512 8.5312 98.6074 9.2188 L98.6074 12.4375 Q98.6074 12.9844 98.748 13.2812 Q98.8418 13.4688 99.084 13.6016 Q99.3262 13.7344 99.7793 13.7344 L99.7793 14 L96.3418 14 L96.3418 13.7344 Q96.8574 13.7344 97.1074 13.5781 Q97.2793 13.4531 97.3574 13.2031 Q97.3887 13.0781 97.3887 12.4844 L97.3887 9.8906 Q97.3887 8.7188 97.3418 8.4922 Q97.2949 8.2656 97.1699 8.1641 Q97.0449 8.0625 96.8574 8.0625 Q96.623 8.0625 96.3418 8.1719 L96.2637 7.9062 L98.2949 7.0938 L98.6074 7.0938 ZM110.1182 13.25 Q109.6338 13.7656 109.165 13.9844 Q108.6963 14.2031 108.1494 14.2031 Q107.0557 14.2031 106.2354 13.2812 Q105.415 12.3594 105.415 10.9219 Q105.415 9.4844 106.3213 8.2812 Q107.2275 7.0781 108.665 7.0781 Q109.54 7.0781 110.1182 7.6562 L110.1182 6.4062 Q110.1182 5.2656 110.0635 5 Q110.0088 4.7344 109.8916 4.6406 Q109.7744 4.5469 109.6025 4.5469 Q109.415 4.5469 109.1025 4.6562 L109.0088 4.4062 L111.0088 3.5781 L111.3369 3.5781 L111.3369 11.3438 Q111.3369 12.5156 111.3916 12.7812 Q111.4463 13.0469 111.5635 13.1484 Q111.6807 13.25 111.8369 13.25 Q112.04 13.25 112.3682 13.125 L112.4463 13.375 L110.4619 14.2031 L110.1182 14.2031 L110.1182 13.25 ZM110.1182 12.7344 L110.1182 9.2812 Q110.0713 8.7812 109.8525 8.3672 Q109.6338 7.9531 109.2744 7.75 Q108.915 7.5469 108.5713 7.5469 Q107.9307 7.5469 107.415 8.125 Q106.7588 8.875 106.7588 10.3438 Q106.7588 11.8281 107.3994 12.6172 Q108.04 13.4062 108.8369 13.4062 Q109.4932 13.4062 110.1182 12.7344 ZM116.6807 13.0312 Q115.6494 13.8281 115.3838 13.9531 Q114.9932 14.1406 114.54 14.1406 Q113.8525 14.1406 113.3994 13.6641 Q112.9463 13.1875 112.9463 12.4062 Q112.9463 11.9219 113.165 11.5625 Q113.4775 11.0625 114.2197 10.625 Q114.9619 10.1875 116.6807 9.5469 L116.6807 9.2969 Q116.6807 8.2812 116.3682 7.9141 Q116.0557 7.5469 115.4463 7.5469 Q114.9775 7.5469 114.7119 7.7812 Q114.4307 8.0312 114.4307 8.3594 L114.4463 8.7812 Q114.4463 9.125 114.2744 9.3047 Q114.1025 9.4844 113.8213 9.4844 Q113.5557 9.4844 113.3838 9.2969 Q113.2119 9.1094 113.2119 8.7812 Q113.2119 8.1406 113.8525 7.6172 Q114.4932 7.0938 115.665 7.0938 Q116.5557 7.0938 117.1182 7.3906 Q117.5557 7.625 117.7588 8.1094 Q117.8994 8.4219 117.8994 9.3906 L117.8994 11.6719 Q117.8994 12.625 117.9307 12.8438 Q117.9619 13.0625 118.0479 13.1328 Q118.1338 13.2031 118.2432 13.2031 Q118.3682 13.2031 118.4463 13.1562 Q118.6025 13.0625 119.04 12.625 L119.04 13.0312 Q118.2275 14.125 117.4775 14.125 Q117.1182 14.125 116.9072 13.8828 Q116.6963 13.6406 116.6807 13.0312 ZM116.6807 12.5625 L116.6807 10 Q115.5869 10.4375 115.2588 10.625 Q114.6807 10.9531 114.4307 11.3047 Q114.1807 11.6562 114.1807 12.0625 Q114.1807 12.5938 114.4932 12.9453 Q114.8057 13.2969 115.2275 13.2969 Q115.7744 13.2969 116.6807 12.5625 ZM121.4946 5.0938 L121.4946 7.2969 L123.0571 7.2969 L123.0571 7.7969 L121.4946 7.7969 L121.4946 12.1562 Q121.4946 12.8125 121.6821 13.0391 Q121.8696 13.2656 122.1509 13.2656 Q122.4009 13.2656 122.6274 13.1094 Q122.854 12.9531 122.979 12.6719 L123.2603 12.6719 Q123.0103 13.3906 122.5415 13.75 Q122.0728 14.1094 121.5728 14.1094 Q121.229 14.1094 120.9087 13.9219 Q120.5884 13.7344 120.4321 13.3906 Q120.2759 13.0469 120.2759 12.3125 L120.2759 7.7969 L119.2134 7.7969 L119.2134 7.5625 Q119.6196 7.4062 120.0415 7.0156 Q120.4634 6.625 120.7915 6.1094 Q120.9634 5.8281 121.2603 5.0938 L121.4946 5.0938 ZM127.5059 13.0312 Q126.4746 13.8281 126.209 13.9531 Q125.8184 14.1406 125.3652 14.1406 Q124.6777 14.1406 124.2246 13.6641 Q123.7715 13.1875 123.7715 12.4062 Q123.7715 11.9219 123.9902 11.5625 Q124.3027 11.0625 125.0449 10.625 Q125.7871 10.1875 127.5059 9.5469 L127.5059 9.2969 Q127.5059 8.2812 127.1934 7.9141 Q126.8809 7.5469 126.2715 7.5469 Q125.8027 7.5469 125.5371 7.7812 Q125.2559 8.0312 125.2559 8.3594 L125.2715 8.7812 Q125.2715 9.125 125.0996 9.3047 Q124.9277 9.4844 124.6465 9.4844 Q124.3809 9.4844 124.209 9.2969 Q124.0371 9.1094 124.0371 8.7812 Q124.0371 8.1406 124.6777 7.6172 Q125.3184 7.0938 126.4902 7.0938 Q127.3809 7.0938 127.9434 7.3906 Q128.3809 7.625 128.584 8.1094 Q128.7246 8.4219 128.7246 9.3906 L128.7246 11.6719 Q128.7246 12.625 128.7559 12.8438 Q128.7871 13.0625 128.873 13.1328 Q128.959 13.2031 129.0684 13.2031 Q129.1934 13.2031 129.2715 13.1562 Q129.4277 13.0625 129.8652 12.625 L129.8652 13.0312 Q129.0527 14.125 128.3027 14.125 Q127.9434 14.125 127.7324 13.8828 Q127.5215 13.6406 127.5059 13.0312 ZM127.5059 12.5625 L127.5059 10 Q126.4121 10.4375 126.084 10.625 Q125.5059 10.9531 125.2559 11.3047 Q125.0059 11.6562 125.0059 12.0625 Q125.0059 12.5938 125.3184 12.9453 Q125.6309 13.2969 126.0527 13.2969 Q126.5996 13.2969 127.5059 12.5625 Z"
                  style="stroke:none; clip-path:url(#clipPath9);"/>
        </g>
        <g style="text-rendering:optimizeLegibility; font-size:13px; font-family:'Times New Roman'; color-interpolation:linearRGB; color-rendering:optimizeQuality; image-rendering:optimizeQuality;">
            <rect x="86" y="356" width="245"
                  style="fill:none; clip-path:url(#clipPath1);" height="20"/>
        </g>
        <g style="stroke-linecap:butt; font-size:13px; fill:rgb(165,165,165); text-rendering:optimizeLegibility; image-rendering:optimizeQuality; color-rendering:optimizeQuality; font-family:'Times New Roman'; stroke-linejoin:round; stroke-dasharray:2,5; stroke:rgb(165,165,165); color-interpolation:linearRGB;"
           transform="translate(5,5)">
            <path d="M118 263.7286 L408.9975 263.7286"
                  style="fill:none; clip-path:url(#clipPath10);"/>
            <path d="M118 222.8357 L408.9975 222.8357"
                  style="fill:none; clip-path:url(#clipPath10);"/>
            <path d="M118 181.9427 L408.9975 181.9427"
                  style="fill:none; clip-path:url(#clipPath10);"/>
            <path d="M118 141.0497 L408.9975 141.0497"
                  style="fill:none; clip-path:url(#clipPath10);"/>
            <path d="M118 100.1568 L408.9975 100.1568"
                  style="fill:none; clip-path:url(#clipPath10);"/>
            <path d="M118 59.2638 L408.9975 59.2638"
                  style="fill:none; clip-path:url(#clipPath10);"/>
            <path d="M118 18.3709 L408.9975 18.3709"
                  style="fill:none; clip-path:url(#clipPath10);"/>
            <path d="M118 284.1751 L408.9975 284.1751"
                  style="fill:none; clip-path:url(#clipPath10); stroke:rgb(233,233,233);"/>
            <path d="M118 243.2821 L408.9975 243.2821"
                  style="fill:none; clip-path:url(#clipPath10); stroke:rgb(233,233,233);"/>
            <path d="M118 202.3892 L408.9975 202.3892"
                  style="fill:none; clip-path:url(#clipPath10); stroke:rgb(233,233,233);"/>
            <path d="M118 161.4962 L408.9975 161.4962"
                  style="fill:none; clip-path:url(#clipPath10); stroke:rgb(233,233,233);"/>
            <path d="M118 120.6033 L408.9975 120.6033"
                  style="fill:none; clip-path:url(#clipPath10); stroke:rgb(233,233,233);"/>
            <path d="M118 79.7103 L408.9975 79.7103"
                  style="fill:none; clip-path:url(#clipPath10); stroke:rgb(233,233,233);"/>
            <path d="M118 38.8174 L408.9975 38.8174"
                  style="fill:none; clip-path:url(#clipPath10); stroke:rgb(233,233,233);"/>
        </g>
        <g style="stroke-linecap:butt; font-size:13px; fill:rgb(0,116,204); text-rendering:optimizeLegibility; image-rendering:optimizeQuality; color-rendering:optimizeQuality; font-family:'Times New Roman'; stroke-linejoin:round; stroke:rgb(0,116,204); color-interpolation:linearRGB; stroke-width:1.5;"
           transform="translate(5,5)">
            <path d="M120 304 L121.435 300.1214 L122.87 296.2945 L124.305 292.5186 L125.74 288.7932 L127.1749 285.1175 L128.6099 281.4909 L130.0449 277.9128 L131.4799 274.3825 L132.9149 270.8996 L134.3499 267.4632 L135.7849 264.0729 L137.2198 260.728 L138.6548 257.428 L140.0898 254.1723 L141.5248 250.9603 L142.9598 247.7914 L144.3948 244.6652 L145.8298 241.5809 L147.2648 238.5382 L148.6998 235.5364 L150.1347 232.5751 L151.5697 229.6536 L153.0047 226.7715 L154.4397 223.9282 L155.8747 221.1234 L157.3097 218.3563 L158.7447 215.6266 L160.1797 212.9337 L161.6146 210.2772 L163.0496 207.6566 L164.4846 205.0715 L165.9196 202.5214 L167.3546 200.0057 L168.7896 197.5241 L170.2246 195.0762 L171.6596 192.6614 L173.0945 190.2793 L174.5295 187.9296 L175.9645 185.6117 L177.3995 183.3252 L178.8345 181.0698 L180.2695 178.8451 L181.7045 176.6505 L183.1395 174.4857 L184.5744 172.3504 L186.0094 170.2441 L187.4444 168.1664 L188.8794 166.117 L190.3144 164.0954 L191.7494 162.1014 L193.1844 160.1345 L194.6194 158.1944 L196.0544 156.2807 L197.4893 154.3931 L198.9243 152.5312 L200.3593 150.6948 L201.7943 148.8834 L203.2293 147.0967 L204.6643 145.3344 L206.0993 143.5962 L207.5342 141.8817 L208.9692 140.1906 L210.4042 138.5227 L211.8392 136.8775 L213.2742 135.2549 L214.7092 133.6544 L216.1442 132.0758 L217.5792 130.5188 L219.0141 128.9832 L220.4491 127.4685 L221.8841 125.9745 L223.3191 124.501 L224.7541 123.0477 L226.1891 121.6142 L227.6241 120.2004 L229.0591 118.8059 L230.494 117.4305 L231.929 116.074 L233.364 114.7361 L234.799 113.4165 L236.234 112.115 L237.669 110.8314 L239.104 109.5654 L240.539 108.3168 L241.974 107.0853 L243.4089 105.8708 L244.8439 104.6729 L246.2789 103.4915 L247.7139 102.3264 L249.1489 101.1773 L250.5839 100.0439 L252.0189 98.9262 L253.4539 97.8238 L254.8888 96.7366 L256.3238 95.6644 L257.7588 94.6069 L259.1938 93.5639 L260.6288 92.5353 L262.0638 91.5209 L263.4988 90.5204 L264.9337 89.5336 L266.3687 88.5605 L267.8037 87.6007 L269.2387 86.6542 L270.6737 85.7206 L272.1087 84.7999 L273.5437 83.8919 L274.9787 82.9963 L276.4136 82.1131 L277.8486 81.2421 L279.2836 80.383 L280.7186 79.5358 L282.1536 78.7003 L283.5886 77.8764 L285.0236 77.0638 L286.4586 76.2624 L287.8936 75.472 L289.3286 74.6926 L290.7635 73.924 L292.1985 73.1659 L293.6335 72.4184 L295.0685 71.6811 L296.5035 70.9541 L297.9385 70.2371 L299.3735 69.53 L300.8084 68.8327 L302.2434 68.145 L303.6784 67.4668 L305.1134 66.798 L306.5484 66.1384 L307.9834 65.4879 L309.4184 64.8465 L310.8534 64.2139 L312.2883 63.59 L313.7233 62.9747 L315.1583 62.368 L316.5933 61.7696 L318.0283 61.1795 L319.4633 60.5975 L320.8983 60.0235 L322.3333 59.4575 L323.7682 58.8993 L325.2032 58.3488 L326.6382 57.8059 L328.0732 57.2705 L329.5082 56.7425 L330.9432 56.2218 L332.3782 55.7083 L333.8132 55.202 L335.2481 54.7026 L336.6831 54.2102 L338.1181 53.7246 L339.5531 53.2457 L340.9881 52.7735 L342.4231 52.3078 L343.8581 51.8485 L345.2931 51.3956 L346.7281 50.9491 L348.163 50.5087 L349.598 50.0744 L351.033 49.6461 L352.468 49.2238 L353.903 48.8073 L355.338 48.3966 L356.7729 47.9915 L358.2079 47.5921 L359.6429 47.1983 L361.0779 46.8098 L362.5129 46.4268 L363.9479 46.0491 L365.3829 45.6766 L366.8179 45.3092 L368.2529 44.947 L369.6879 44.5898 L371.1228 44.2375 L372.5578 43.89 L373.9928 43.5474 L375.4278 43.2095 L376.8628 42.8763 L378.2978 42.5476 L379.7328 42.2236 L381.1678 41.904 L382.6028 41.5888 L384.0377 41.2781 L385.4727 40.9716 L386.9077 40.6694 L388.3427 40.3714 L389.7777 40.0775 L391.2127 39.7877 L392.6476 39.5019 L394.0826 39.2201 L395.5176 38.9422 L396.9526 38.6682 L398.3876 38.398 L399.8226 38.1315 L401.2576 37.8688 L402.6926 37.6097 L404.1276 37.3542 L405.5625 37.1022 L406.9975 36.8538"
                  style="fill:none; clip-path:url(#clipPath11);"/>
        </g>
        <g style="stroke-linecap:butt; font-size:13px; fill:rgb(204,0,116); text-rendering:optimizeLegibility; image-rendering:optimizeQuality; color-rendering:optimizeQuality; font-family:'Times New Roman'; stroke-linejoin:round; stroke:rgb(204,0,116); color-interpolation:linearRGB; stroke-width:1.5;"
           transform="translate(5,5)">
            <path d="M120 304 L121.6686 302.7242 L123.3372 301.3174 L125.0058 300.0661 L126.6744 298.2995 L128.343 296.9991 L130.0115 295.2325 L131.6801 294.292 L133.3487 293.1143 L135.0173 291.1678 L136.6859 290.2027 L138.3545 288.8451 L140.0231 286.5142 L141.6917 283.7007 L143.3603 282.6375 L145.0289 278.401 L146.6974 276.0374 L148.366 273.9927 L150.0346 270.6886 L151.7032 268.4722 L153.3718 265.8878 L155.0404 262.51 L156.709 260.6535 L158.3776 257.0385 L160.0462 254.0533 L161.7148 251.3708 L163.3833 247.993 L165.0519 244.697 L166.7205 243.045 L168.3891 239.2746 L170.0577 235.5452 L171.7263 233.6641 L173.3949 230.589 L175.0635 227.4975 L176.7321 224.2505 L178.4007 222.4185 L180.0692 218.4438 L181.7378 216.3091 L183.4064 213.7492 L185.075 210.7314 L186.7436 208.564 L188.4122 205.7997 L190.0808 203.297 L191.7494 200.4836 L193.418 198.3408 L195.0866 195.7563 L196.7552 193.4582 L198.4237 191.7488 L200.0923 188.6737 L201.7609 186.6617 L203.4295 184.4617 L205.0981 181.6728 L206.7667 180.0698 L208.4353 177.9188 L210.1039 175.4898 L211.7725 188.3302 L213.4411 189.0417 L215.1096 191.5934 L216.7782 191.4217 L218.4468 190.9882 L220.1154 190.7592 L221.784 189.2953 L223.4526 188.3792 L225.1212 186.3019 L226.7898 184.9524 L228.4584 183.1859 L230.127 180.6259 L231.7955 178.5077 L233.4641 175.9232 L235.1327 173.0853 L236.8013 172.0221 L238.4699 169.4049 L240.1385 166.5424 L241.8071 164.2197 L243.4757 161.0709 L245.1443 159.4189 L246.8129 156.3682 L248.4814 154.1764 L250.15 151.2321 L251.8186 149.2447 L253.4872 147.0446 L255.1558 144.4357 L256.8244 141.7776 L258.493 141.0988 L260.1616 139.0705 L261.8302 134.8422 L263.4988 134.1225 L265.1674 131.7589 L266.8359 129.4607 L268.5045 126.6718 L270.1731 124.3491 L271.8417 122.2799 L273.5103 120.5951 L275.1789 118.7794 L276.8475 115.8597 L278.5161 114.0522 L280.1847 112.4165 L281.8533 110.6008 L283.5219 107.861 L285.1904 106.7978 L286.859 104.3606 L288.5276 102.0624 L290.1962 100.8929 L291.8648 98.2512 L293.5334 96.6482 L295.202 94.3173 L296.8706 92.9433 L298.5392 90.8168 L300.2078 88.9276 L301.8763 87.4473 L303.5449 85.6561 L305.2135 83.8159 L306.8821 82.3356 L308.5507 80.9044 L310.2193 78.7534 L311.8879 77.4039 L313.5565 75.8173 L315.2251 73.8217 L316.8937 72.8566 L318.5623 71.1391 L320.2308 69.119 L321.8994 67.4342 L323.568 65.6186 L325.2366 64.3182 L326.9052 63.4513 L328.5738 61.9137 L330.2424 59.7382 L331.9109 58.0289 L333.5796 56.3931 L335.2481 54.7574 L336.9167 53.6615 L338.5853 52.2793 L340.2539 49.7685 L341.9225 48.7298 L343.5911 47.1922 L345.2597 46.0963 L346.9283 44.7141 L348.5969 42.923 L350.2655 41.4427 L351.9341 40.9111 L353.6026 38.8828 L355.2712 37.3534 L356.9398 36.4619 L358.6084 35.1043 L360.277 33.4931 L361.9456 32.3972 L363.6142 31.1949 L365.2828 29.7882 L366.9514 28.3569 L368.6199 27.4655 L370.2885 26.1078 L371.9572 25.2164 L373.6257 24.5784 L375.2943 23.0654 L376.9629 21.9695 L378.6315 21.127 L380.3001 19.4095 L381.9687 18.469 L383.6373 17.4712 L385.3058 16.9887 L386.9745 15.5002 L388.643 14.2243 L390.3116 13.3574 L391.9802 12.7195 L393.6488 11.5663 L395.3174 10.3395 L396.986 9.6525 L398.6546 7.7796 L400.3232 7.7141 L401.9918 5.7595 L403.6603 4.9498 L405.3289 4.3364 L406.9975 3.0033"
                  style="fill:none; clip-path:url(#clipPath11);"/>
        </g>
        <g transform="translate(5,5)"
           style="stroke-linecap:butt; font-size:13px; text-rendering:optimizeLegibility; image-rendering:optimizeQuality; color-rendering:optimizeQuality; font-family:'Times New Roman'; stroke-linejoin:round; color-interpolation:linearRGB;">
            <path d="M118 306 L408.9975 306"
                  style="fill:none; clip-path:url(#clipPath10);"/>
            <path d="M118 1.0033 L408.9975 1.0033"
                  style="fill:none; clip-path:url(#clipPath10);"/>
        </g>
        <g transform="translate(5,5)"
           style="stroke-linecap:butt; font-size:13px; text-rendering:optimizeLegibility; image-rendering:optimizeQuality; color-rendering:optimizeQuality; font-family:'Times New Roman'; stroke-linejoin:round; color-interpolation:linearRGB;">
            <path d="M255.1562 333.9844 L254.5469 336.1094 L255.7812 336.1094 L255.6406 336.6094 L254.4219 336.6094 L253.0781 341.2188 Q252.8594 341.9531 252.8594 342.1719 Q252.8594 342.3125 252.9219 342.3828 Q252.9844 342.4531 253.0781 342.4531 Q253.2656 342.4531 253.5938 342.1719 Q253.7812 342.0156 254.4219 341.2188 L254.6875 341.4062 Q253.9688 342.4531 253.3281 342.8906 Q252.8906 343.1875 252.4375 343.1875 Q252.0938 343.1875 251.875 342.9688 Q251.6562 342.75 251.6562 342.4219 Q251.6562 342 251.9062 341.125 L253.2188 336.6094 L252.0312 336.6094 L252.1094 336.2969 Q252.9688 336.0625 253.5391 335.6016 Q254.1094 335.1406 254.8125 333.9844 L255.1562 333.9844 Z"
                  style="stroke:none; clip-path:url(#clipPath12);"/>
            <path d="M264.75 346.1719 L261.3125 346.1719 L261.3125 332.1562 L264.75 332.1562 L264.75 332.7812 L262.4844 332.7812 L262.4844 345.5625 L264.75 345.5625 L264.75 346.1719 ZM270.4531 335.625 L270.4531 338.0625 L270.2031 338.0625 Q269.9062 336.9219 269.4375 336.5078 Q268.9688 336.0938 268.25 336.0938 Q267.7031 336.0938 267.3672 336.3828 Q267.0312 336.6719 267.0312 337.0156 Q267.0312 337.4531 267.2812 337.7656 Q267.5312 338.0938 268.2656 338.4531 L269.4062 339 Q271 339.7812 271 341.0469 Q271 342.0156 270.2578 342.6172 Q269.5156 343.2188 268.6094 343.2188 Q267.9531 343.2188 267.1094 342.9844 Q266.8438 342.9062 266.6875 342.9062 Q266.5 342.9062 266.4062 343.1094 L266.1406 343.1094 L266.1406 340.5469 L266.4062 340.5469 Q266.625 341.6406 267.2422 342.1953 Q267.8594 342.75 268.625 342.75 Q269.1562 342.75 269.5 342.4375 Q269.8438 342.125 269.8438 341.6719 Q269.8438 341.1406 269.4609 340.7734 Q269.0781 340.4062 267.9453 339.8438 Q266.8125 339.2812 266.4688 338.8281 Q266.1094 338.375 266.1094 337.7031 Q266.1094 336.8125 266.7188 336.2188 Q267.3281 335.625 268.2812 335.625 Q268.7031 335.625 269.3125 335.8125 Q269.7031 335.9219 269.8438 335.9219 Q269.9688 335.9219 270.0391 335.8672 Q270.1094 335.8125 270.2031 335.625 L270.4531 335.625 ZM272.1484 332.1562 L275.5859 332.1562 L275.5859 346.1875 L272.1484 346.1875 L272.1484 345.5625 L274.4141 345.5625 L274.4141 332.7812 L272.1484 332.7812 L272.1484 332.1562 Z"
                  style="clip-path:url(#clipPath12); stroke:none;"/>
        </g>
        <g transform="translate(5,5)"
           style="font-size:13px; text-rendering:optimizeLegibility; color-rendering:optimizeQuality; image-rendering:optimizeQuality; font-family:'Times New Roman'; color-interpolation:linearRGB;">
            <path d="M120 306 L120 310.025"
                  style="fill:none; clip-path:url(#clipPath10);"/>
            <path d="M121.5781 324.7656 Q121.5781 322.9531 122.125 321.6406 Q122.6719 320.3281 123.5781 319.6875 Q124.2812 319.1875 125.0312 319.1875 Q126.25 319.1875 127.2188 320.4219 Q128.4375 321.9688 128.4375 324.5938 Q128.4375 326.4375 127.9062 327.7266 Q127.375 329.0156 126.5469 329.6016 Q125.7188 330.1875 124.9531 330.1875 Q123.4375 330.1875 122.4375 328.3906 Q121.5781 326.8906 121.5781 324.7656 ZM123.1094 324.9531 Q123.1094 327.1406 123.6562 328.5312 Q124.0938 329.6875 124.9844 329.6875 Q125.4062 329.6875 125.8594 329.3125 Q126.3125 328.9375 126.5469 328.0469 Q126.9062 326.7031 126.9062 324.25 Q126.9062 322.4375 126.5312 321.2344 Q126.25 320.3281 125.7969 319.9531 Q125.4844 319.7031 125.0312 319.7031 Q124.5 319.7031 124.0781 320.1719 Q123.5156 320.8281 123.3125 322.2188 Q123.1094 323.6094 123.1094 324.9531 Z"
                  style="clip-path:url(#clipPath13); stroke:none;"
                  transform="translate(-5,-5)"/>
        </g>
        <g transform="translate(5,5)"
           style="font-size:13px; text-rendering:optimizeLegibility; color-rendering:optimizeQuality; image-rendering:optimizeQuality; font-family:'Times New Roman'; color-interpolation:linearRGB;">
            <path d="M153.3718 306 L153.3718 310.025"
                  style="fill:none; clip-path:url(#clipPath10);"/>
            <path d="M155.875 320.4375 L158.4531 319.1875 L158.7188 319.1875 L158.7188 328.125 Q158.7188 329.0156 158.7891 329.2344 Q158.8594 329.4531 159.0938 329.5703 Q159.3281 329.6875 160.0469 329.7031 L160.0469 330 L156.0625 330 L156.0625 329.7031 Q156.8125 329.6875 157.0312 329.5781 Q157.25 329.4688 157.3359 329.2734 Q157.4219 329.0781 157.4219 328.125 L157.4219 322.4062 Q157.4219 321.25 157.3438 320.9219 Q157.2969 320.6719 157.1484 320.5547 Q157 320.4375 156.7969 320.4375 Q156.5156 320.4375 156 320.6875 L155.875 320.4375 Z"
                  style="clip-path:url(#clipPath13); stroke:none;"
                  transform="translate(-5,-5)"/>
        </g>
        <g transform="translate(5,5)"
           style="font-size:13px; text-rendering:optimizeLegibility; color-rendering:optimizeQuality; image-rendering:optimizeQuality; font-family:'Times New Roman'; color-interpolation:linearRGB;">
            <path d="M186.7436 306 L186.7436 310.025"
                  style="fill:none; clip-path:url(#clipPath10);"/>
            <path d="M194.3438 327.9531 L193.5938 330 L187.3438 330 L187.3438 329.7031 Q190.1094 327.1875 191.2344 325.5938 Q192.3594 324 192.3594 322.6875 Q192.3594 321.6719 191.7422 321.0234 Q191.125 320.375 190.2656 320.375 Q189.4844 320.375 188.8594 320.8359 Q188.2344 321.2969 187.9375 322.1719 L187.6562 322.1719 Q187.8438 320.7344 188.6562 319.9609 Q189.4688 319.1875 190.6719 319.1875 Q191.9688 319.1875 192.8281 320.0156 Q193.6875 320.8438 193.6875 321.9688 Q193.6875 322.7656 193.3125 323.5781 Q192.7344 324.8438 191.4375 326.25 Q189.5 328.375 189.0156 328.8125 L191.7812 328.8125 Q192.625 328.8125 192.9609 328.75 Q193.2969 328.6875 193.5703 328.5 Q193.8438 328.3125 194.0469 327.9531 L194.3438 327.9531 Z"
                  style="clip-path:url(#clipPath13); stroke:none;"
                  transform="translate(-5,-5)"/>
        </g>
        <g transform="translate(5,5)"
           style="font-size:13px; text-rendering:optimizeLegibility; color-rendering:optimizeQuality; image-rendering:optimizeQuality; font-family:'Times New Roman'; color-interpolation:linearRGB;">
            <path d="M220.1154 306 L220.1154 310.025"
                  style="fill:none; clip-path:url(#clipPath10);"/>
            <path d="M221.8125 321.4219 Q222.2656 320.3438 222.9609 319.7656 Q223.6562 319.1875 224.6875 319.1875 Q225.9531 319.1875 226.6406 320.0156 Q227.1562 320.625 227.1562 321.3281 Q227.1562 322.4844 225.7031 323.7188 Q226.6719 324.1094 227.1719 324.8203 Q227.6719 325.5312 227.6719 326.4844 Q227.6719 327.8594 226.7969 328.875 Q225.6562 330.1875 223.5 330.1875 Q222.4219 330.1875 222.0391 329.9219 Q221.6562 329.6562 221.6562 329.3438 Q221.6562 329.125 221.8359 328.9531 Q222.0156 328.7812 222.2812 328.7812 Q222.4688 328.7812 222.6719 328.8438 Q222.8125 328.875 223.2812 329.125 Q223.75 329.375 223.9219 329.4219 Q224.2188 329.5 224.5469 329.5 Q225.3438 329.5 225.9297 328.8828 Q226.5156 328.2656 226.5156 327.4219 Q226.5156 326.8125 226.25 326.2188 Q226.0469 325.7812 225.7969 325.5625 Q225.4688 325.25 224.8828 324.9922 Q224.2969 324.7344 223.6875 324.7344 L223.4375 324.7344 L223.4375 324.5 Q224.0469 324.4219 224.6719 324.0547 Q225.2969 323.6875 225.5781 323.1719 Q225.8594 322.6562 225.8594 322.0469 Q225.8594 321.2344 225.3516 320.7422 Q224.8438 320.25 224.0938 320.25 Q222.8906 320.25 222.0781 321.5469 L221.8125 321.4219 Z"
                  style="clip-path:url(#clipPath13); stroke:none;"
                  transform="translate(-5,-5)"/>
        </g>
        <g transform="translate(5,5)"
           style="font-size:13px; text-rendering:optimizeLegibility; color-rendering:optimizeQuality; image-rendering:optimizeQuality; font-family:'Times New Roman'; color-interpolation:linearRGB;">
            <path d="M253.4872 306 L253.4872 310.025"
                  style="fill:none; clip-path:url(#clipPath10);"/>
            <path d="M261.4531 326.0938 L261.4531 327.2031 L260.0312 327.2031 L260.0312 330 L258.7344 330 L258.7344 327.2031 L254.25 327.2031 L254.25 326.2031 L259.1719 319.1875 L260.0312 319.1875 L260.0312 326.0938 L261.4531 326.0938 ZM258.7344 326.0938 L258.7344 320.8281 L255.0156 326.0938 L258.7344 326.0938 Z"
                  style="clip-path:url(#clipPath13); stroke:none;"
                  transform="translate(-5,-5)"/>
        </g>
        <g transform="translate(5,5)"
           style="font-size:13px; text-rendering:optimizeLegibility; color-rendering:optimizeQuality; image-rendering:optimizeQuality; font-family:'Times New Roman'; color-interpolation:linearRGB;">
            <path d="M286.859 306 L286.859 310.025"
                  style="fill:none; clip-path:url(#clipPath10);"/>
            <path d="M293.9531 319.4062 L293.3438 320.7344 L290.1562 320.7344 L289.4531 322.1562 Q291.5312 322.4531 292.7344 323.6875 Q293.7812 324.75 293.7812 326.1875 Q293.7812 327.0312 293.4375 327.7422 Q293.0938 328.4531 292.5781 328.9531 Q292.0625 329.4531 291.4375 329.75 Q290.5312 330.1875 289.5938 330.1875 Q288.6406 330.1875 288.2031 329.8594 Q287.7656 329.5312 287.7656 329.1406 Q287.7656 328.9219 287.9453 328.7578 Q288.125 328.5938 288.4062 328.5938 Q288.6094 328.5938 288.7578 328.6562 Q288.9062 328.7188 289.2812 328.9688 Q289.8594 329.375 290.4688 329.375 Q291.375 329.375 292.0703 328.6875 Q292.7656 328 292.7656 327 Q292.7656 326.0469 292.1484 325.2109 Q291.5312 324.375 290.4375 323.9219 Q289.5938 323.5781 288.125 323.5156 L290.1562 319.4062 L293.9531 319.4062 Z"
                  style="clip-path:url(#clipPath13); stroke:none;"
                  transform="translate(-5,-5)"/>
        </g>
        <g transform="translate(5,5)"
           style="font-size:13px; text-rendering:optimizeLegibility; color-rendering:optimizeQuality; image-rendering:optimizeQuality; font-family:'Times New Roman'; color-interpolation:linearRGB;">
            <path d="M320.2308 306 L320.2308 310.025"
                  style="fill:none; clip-path:url(#clipPath10);"/>
            <path d="M328.1719 319.1875 L328.1719 319.4688 Q327.1406 319.5781 326.4922 319.8828 Q325.8438 320.1875 325.2031 320.8203 Q324.5625 321.4531 324.1484 322.2344 Q323.7344 323.0156 323.4531 324.0781 Q324.5781 323.3125 325.7031 323.3125 Q326.7969 323.3125 327.5938 324.1875 Q328.3906 325.0625 328.3906 326.4375 Q328.3906 327.7656 327.5781 328.8594 Q326.6094 330.1875 325.0156 330.1875 Q323.9375 330.1875 323.1719 329.4688 Q321.6875 328.0625 321.6875 325.8438 Q321.6875 324.4219 322.2578 323.1406 Q322.8281 321.8594 323.8906 320.8672 Q324.9531 319.875 325.9219 319.5312 Q326.8906 319.1875 327.7188 319.1875 L328.1719 319.1875 ZM323.3125 324.6562 Q323.1719 325.7031 323.1719 326.3594 Q323.1719 327.1094 323.4531 327.9844 Q323.7344 328.8594 324.2812 329.375 Q324.6719 329.75 325.25 329.75 Q325.9219 329.75 326.4609 329.1094 Q327 328.4688 327 327.2812 Q327 325.9375 326.4688 324.9609 Q325.9375 323.9844 324.9531 323.9844 Q324.6562 323.9844 324.3203 324.1094 Q323.9844 324.2344 323.3125 324.6562 Z"
                  style="clip-path:url(#clipPath13); stroke:none;"
                  transform="translate(-5,-5)"/>
        </g>
        <g transform="translate(5,5)"
           style="font-size:13px; text-rendering:optimizeLegibility; color-rendering:optimizeQuality; image-rendering:optimizeQuality; font-family:'Times New Roman'; color-interpolation:linearRGB;">
            <path d="M353.6026 306 L353.6026 310.025"
                  style="fill:none; clip-path:url(#clipPath10);"/>
            <path d="M355.6094 319.4062 L361.2969 319.4062 L361.2969 319.7031 L357.7656 330.2188 L356.8906 330.2188 L360.0469 320.6719 L357.1406 320.6719 Q356.25 320.6719 355.875 320.8906 Q355.2188 321.25 354.8281 322 L354.5938 321.9062 L355.6094 319.4062 Z"
                  style="clip-path:url(#clipPath13); stroke:none;"
                  transform="translate(-5,-5)"/>
        </g>
        <g transform="translate(5,5)"
           style="font-size:13px; text-rendering:optimizeLegibility; color-rendering:optimizeQuality; image-rendering:optimizeQuality; font-family:'Times New Roman'; color-interpolation:linearRGB;">
            <path d="M386.9745 306 L386.9745 310.025"
                  style="fill:none; clip-path:url(#clipPath10);"/>
            <path d="M390.0781 324.6562 Q388.8125 323.625 388.4531 323 Q388.0938 322.375 388.0938 321.7031 Q388.0938 320.6719 388.8906 319.9297 Q389.6875 319.1875 391 319.1875 Q392.2812 319.1875 393.0625 319.8828 Q393.8438 320.5781 393.8438 321.4688 Q393.8438 322.0625 393.4219 322.6797 Q393 323.2969 391.6719 324.125 Q393.0469 325.1875 393.4844 325.7969 Q394.0781 326.5938 394.0781 327.4844 Q394.0781 328.5938 393.2266 329.3906 Q392.375 330.1875 391 330.1875 Q389.4844 330.1875 388.6406 329.2344 Q387.9688 328.4844 387.9688 327.5781 Q387.9688 326.875 388.4453 326.1875 Q388.9219 325.5 390.0781 324.6562 ZM391.2969 323.8281 Q392.2344 322.9844 392.4844 322.4922 Q392.7344 322 392.7344 321.3906 Q392.7344 320.5625 392.2734 320.1016 Q391.8125 319.6406 391.0156 319.6406 Q390.2188 319.6406 389.7188 320.1016 Q389.2188 320.5625 389.2188 321.1719 Q389.2188 321.5781 389.4297 321.9844 Q389.6406 322.3906 390.0156 322.7656 L391.2969 323.8281 ZM390.4375 324.9531 Q389.7969 325.5 389.4844 326.1484 Q389.1719 326.7969 389.1719 327.5469 Q389.1719 328.5469 389.7188 329.1562 Q390.2656 329.7656 391.125 329.7656 Q391.9688 329.7656 392.4766 329.2891 Q392.9844 328.8125 392.9844 328.125 Q392.9844 327.5625 392.6875 327.125 Q392.125 326.2969 390.4375 324.9531 Z"
                  style="clip-path:url(#clipPath13); stroke:none;"
                  transform="translate(-5,-5)"/>
        </g>
        <g transform="translate(5,5)"
           style="font-size:13px; text-rendering:optimizeLegibility; color-rendering:optimizeQuality; image-rendering:optimizeQuality; font-family:'Times New Roman'; color-interpolation:linearRGB;">
            <path d="M136.6859 306 L136.6859 308.0125"
                  style="fill:none; clip-path:url(#clipPath10);"/>
        </g>
        <g transform="translate(5,5)"
           style="font-size:13px; text-rendering:optimizeLegibility; color-rendering:optimizeQuality; image-rendering:optimizeQuality; font-family:'Times New Roman'; color-interpolation:linearRGB;">
            <path d="M170.0577 306 L170.0577 308.0125"
                  style="fill:none; clip-path:url(#clipPath10);"/>
        </g>
        <g transform="translate(5,5)"
           style="font-size:13px; text-rendering:optimizeLegibility; color-rendering:optimizeQuality; image-rendering:optimizeQuality; font-family:'Times New Roman'; color-interpolation:linearRGB;">
            <path d="M203.4295 306 L203.4295 308.0125"
                  style="fill:none; clip-path:url(#clipPath10);"/>
        </g>
        <g transform="translate(5,5)"
           style="font-size:13px; text-rendering:optimizeLegibility; color-rendering:optimizeQuality; image-rendering:optimizeQuality; font-family:'Times New Roman'; color-interpolation:linearRGB;">
            <path d="M236.8013 306 L236.8013 308.0125"
                  style="fill:none; clip-path:url(#clipPath10);"/>
        </g>
        <g transform="translate(5,5)"
           style="font-size:13px; text-rendering:optimizeLegibility; color-rendering:optimizeQuality; image-rendering:optimizeQuality; font-family:'Times New Roman'; color-interpolation:linearRGB;">
            <path d="M270.1731 306 L270.1731 308.0125"
                  style="fill:none; clip-path:url(#clipPath10);"/>
        </g>
        <g transform="translate(5,5)"
           style="font-size:13px; text-rendering:optimizeLegibility; color-rendering:optimizeQuality; image-rendering:optimizeQuality; font-family:'Times New Roman'; color-interpolation:linearRGB;">
            <path d="M303.5449 306 L303.5449 308.0125"
                  style="fill:none; clip-path:url(#clipPath10);"/>
        </g>
        <g transform="translate(5,5)"
           style="font-size:13px; text-rendering:optimizeLegibility; color-rendering:optimizeQuality; image-rendering:optimizeQuality; font-family:'Times New Roman'; color-interpolation:linearRGB;">
            <path d="M336.9167 306 L336.9167 308.0125"
                  style="fill:none; clip-path:url(#clipPath10);"/>
        </g>
        <g transform="translate(5,5)"
           style="font-size:13px; text-rendering:optimizeLegibility; color-rendering:optimizeQuality; image-rendering:optimizeQuality; font-family:'Times New Roman'; color-interpolation:linearRGB;">
            <path d="M370.2885 306 L370.2885 308.0125"
                  style="fill:none; clip-path:url(#clipPath10);"/>
        </g>
        <g transform="translate(5,5)"
           style="font-size:13px; text-rendering:optimizeLegibility; color-rendering:optimizeQuality; image-rendering:optimizeQuality; font-family:'Times New Roman'; color-interpolation:linearRGB;">
            <path d="M403.6603 306 L403.6603 308.0125"
                  style="fill:none; clip-path:url(#clipPath10);"/>
        </g>
        <g transform="translate(5,5)"
           style="stroke-linecap:butt; font-size:13px; text-rendering:optimizeLegibility; image-rendering:optimizeQuality; color-rendering:optimizeQuality; font-family:'Times New Roman'; stroke-linejoin:round; color-interpolation:linearRGB;">
            <path d="M118 306 L118 1.0033"
                  style="fill:none; clip-path:url(#clipPath10);"/>
            <path d="M408.9975 306 L408.9975 1.0033"
                  style="fill:none; clip-path:url(#clipPath10);"/>
        </g>
        <g transform="translate(5,5)"
           style="stroke-linecap:butt; font-size:13px; text-rendering:optimizeLegibility; image-rendering:optimizeQuality; color-rendering:optimizeQuality; font-family:'Times New Roman'; stroke-linejoin:round; color-interpolation:linearRGB;">
            <path d="M7.3438 152.4062 L9.6094 151.9219 Q9.8438 152.5 10 153.1094 Q10.2031 153.9844 10.3438 155.2031 Q10.4062 155.8125 10.5156 157.7812 Q11.4844 156.7031 11.6719 156.4375 Q12.7031 155.0469 12.8594 154.7969 Q13.125 154.3906 13.2188 154.0781 Q13.3125 153.8438 13.3125 153.625 Q13.3125 153.4219 12.9453 153.1562 Q12.5781 152.8906 12.5781 152.5625 Q12.5781 152.3125 12.7812 152.1172 Q12.9844 151.9219 13.25 151.9219 Q13.5781 151.9219 13.8281 152.1953 Q14.0781 152.4688 14.0781 152.8594 Q14.0781 153.2656 13.9531 153.625 Q13.75 154.2188 13.1953 155.0781 Q12.6406 155.9375 11.4062 157.375 Q11.25 157.5469 9.6719 159.1875 L9.3906 159.1875 Q9.2031 154.2344 8.6094 153.0156 Q8.4062 152.6094 7.9531 152.6094 Q7.7656 152.6094 7.4062 152.6875 L7.3438 152.4062 Z"
                  style="stroke:none; clip-path:url(#clipPath14);"/>
            <path d="M25.1562 149.9844 L24.5469 152.1094 L25.7812 152.1094 L25.6406 152.6094 L24.4219 152.6094 L23.0781 157.2188 Q22.8594 157.9531 22.8594 158.1719 Q22.8594 158.3125 22.9219 158.3828 Q22.9844 158.4531 23.0781 158.4531 Q23.2656 158.4531 23.5938 158.1719 Q23.7812 158.0156 24.4219 157.2188 L24.6875 157.4062 Q23.9688 158.4531 23.3281 158.8906 Q22.8906 159.1875 22.4375 159.1875 Q22.0938 159.1875 21.875 158.9688 Q21.6562 158.75 21.6562 158.4219 Q21.6562 158 21.9062 157.125 L23.2188 152.6094 L22.0312 152.6094 L22.1094 152.2969 Q22.9688 152.0625 23.5391 151.6016 Q24.1094 151.1406 24.8125 149.9844 L25.1562 149.9844 Z"
                  style="clip-path:url(#clipPath14); stroke:none;"/>
            <path d="M3.1007 13.643 L2.8752 14 Q0 12.2148 0 6.86 L0 7 L0 7.14 Q0 1.7664 2.8752 0 L3.1007 0.3383 Q1.8228 1.4282 1.3906 3.4013 Q1.1275 4.6228 1.1275 6.86 L1.1275 7 L1.1275 7.14 Q1.1275 9.3584 1.3906 10.5799 Q1.8228 12.553 3.1007 13.643 Z"
                  style="clip-path:url(#clipPath15); stroke:none;"
                  transform="translate(16,148)"/>
            <path d="M0 0.357 L0.2255 0 Q3.1007 1.7852 3.1007 7.14 L3.1007 7 L3.1007 6.86 Q3.1007 12.2336 0.2255 14 L0 13.6617 Q1.2779 12.5718 1.7101 10.5987 Q1.9732 9.3772 1.9732 7.14 L1.9732 7 L1.9732 6.86 Q1.9732 4.6416 1.7101 3.4201 Q1.2779 1.447 0 0.357 Z"
                  style="clip-path:url(#clipPath16); stroke:none;"
                  transform="translate(27,148)"/>
            <path d="M41.75 162.1719 L38.3125 162.1719 L38.3125 148.1562 L41.75 148.1562 L41.75 148.7812 L39.4844 148.7812 L39.4844 161.5625 L41.75 161.5625 L41.75 162.1719 ZM44.9531 147.8906 L44.9531 155 L46.7656 153.3438 Q47.3438 152.8125 47.4375 152.6719 Q47.5 152.5781 47.5 152.4844 Q47.5 152.3281 47.375 152.2188 Q47.25 152.1094 46.9531 152.0938 L46.9531 151.8438 L50.0625 151.8438 L50.0625 152.0938 Q49.4219 152.1094 48.9922 152.2891 Q48.5625 152.4688 48.0625 152.9219 L46.2188 154.625 L48.0625 156.9375 Q48.8281 157.9062 49.0938 158.1562 Q49.4688 158.5312 49.75 158.6406 Q49.9375 158.7188 50.4219 158.7188 L50.4219 159 L46.9531 159 L46.9531 158.7188 Q47.25 158.7031 47.3516 158.625 Q47.4531 158.5469 47.4531 158.3906 Q47.4531 158.2188 47.1406 157.8125 L44.9531 155.0156 L44.9531 157.3906 Q44.9531 158.0781 45.0469 158.2969 Q45.1406 158.5156 45.3203 158.6094 Q45.5 158.7031 46.1094 158.7188 L46.1094 159 L42.4688 159 L42.4688 158.7188 Q43.0156 158.7188 43.2812 158.5781 Q43.4531 158.5 43.5312 158.3125 Q43.6562 158.0625 43.6562 157.4219 L43.6562 150.9062 Q43.6562 149.6719 43.6016 149.3906 Q43.5469 149.1094 43.4219 149.0078 Q43.2969 148.9062 43.0938 148.9062 Q42.9219 148.9062 42.5938 149.0312 L42.4688 148.7656 L44.5938 147.8906 L44.9531 147.8906 ZM52.9531 153.1562 Q53.7344 152.375 53.875 152.25 Q54.2344 151.9531 54.6406 151.7891 Q55.0469 151.625 55.4375 151.625 Q56.1094 151.625 56.5938 152.0156 Q57.0781 152.4062 57.25 153.1562 Q58.0469 152.2188 58.6016 151.9219 Q59.1562 151.625 59.75 151.625 Q60.3125 151.625 60.7578 151.9219 Q61.2031 152.2188 61.4531 152.875 Q61.625 153.3281 61.625 154.2969 L61.625 157.375 Q61.625 158.0469 61.7344 158.2969 Q61.8125 158.4688 62.0234 158.5938 Q62.2344 158.7188 62.7031 158.7188 L62.7031 159 L59.1719 159 L59.1719 158.7188 L59.3281 158.7188 Q59.7812 158.7188 60.0469 158.5312 Q60.2188 158.4062 60.2969 158.1406 Q60.3281 158 60.3281 157.375 L60.3281 154.2969 Q60.3281 153.4219 60.125 153.0625 Q59.8125 152.5625 59.1406 152.5625 Q58.7344 152.5625 58.3125 152.7734 Q57.8906 152.9844 57.2969 153.5469 L57.2812 153.625 L57.2969 153.9688 L57.2969 157.375 Q57.2969 158.1094 57.3828 158.2891 Q57.4688 158.4688 57.6953 158.5938 Q57.9219 158.7188 58.4688 158.7188 L58.4688 159 L54.8438 159 L54.8438 158.7188 Q55.4375 158.7188 55.6641 158.5781 Q55.8906 158.4375 55.9688 158.1562 Q56.0156 158.0156 56.0156 157.375 L56.0156 154.2969 Q56.0156 153.4219 55.75 153.0469 Q55.4062 152.5469 54.7969 152.5469 Q54.375 152.5469 53.9531 152.7656 Q53.3125 153.1094 52.9531 153.5469 L52.9531 157.375 Q52.9531 158.0781 53.0547 158.2891 Q53.1562 158.5 53.3438 158.6094 Q53.5312 158.7188 54.125 158.7188 L54.125 159 L50.5781 159 L50.5781 158.7188 Q51.0781 158.7188 51.2734 158.6094 Q51.4688 158.5 51.5703 158.2734 Q51.6719 158.0469 51.6719 157.375 L51.6719 154.6406 Q51.6719 153.4688 51.5938 153.125 Q51.5469 152.8594 51.4297 152.7656 Q51.3125 152.6719 51.1094 152.6719 Q50.8906 152.6719 50.5781 152.7812 L50.4688 152.5 L52.625 151.625 L52.9531 151.625 L52.9531 153.1562 ZM67.2578 147.8906 L63.4297 159.2188 L62.8047 159.2188 L66.6328 147.8906 L67.2578 147.8906 ZM69.8281 147.8906 L69.8281 153.125 Q70.6875 152.1719 71.1953 151.8984 Q71.7031 151.625 72.2188 151.625 Q72.8281 151.625 73.2656 151.9609 Q73.7031 152.2969 73.9062 153.0156 Q74.0625 153.5156 74.0625 154.8438 L74.0625 157.375 Q74.0625 158.0625 74.1719 158.3125 Q74.25 158.5 74.4375 158.6094 Q74.625 158.7188 75.125 158.7188 L75.125 159 L71.6094 159 L71.6094 158.7188 L71.7656 158.7188 Q72.2656 158.7188 72.4609 158.5625 Q72.6562 158.4062 72.7344 158.1094 Q72.7656 157.9844 72.7656 157.375 L72.7656 154.8438 Q72.7656 153.6719 72.6406 153.3047 Q72.5156 152.9375 72.25 152.7578 Q71.9844 152.5781 71.6094 152.5781 Q71.2344 152.5781 70.8203 152.7812 Q70.4062 152.9844 69.8281 153.5938 L69.8281 157.375 Q69.8281 158.1094 69.9062 158.2891 Q69.9844 158.4688 70.2109 158.5938 Q70.4375 158.7188 70.9844 158.7188 L70.9844 159 L67.4375 159 L67.4375 158.7188 Q67.9062 158.7188 68.1875 158.5625 Q68.3438 158.4844 68.4375 158.2656 Q68.5312 158.0469 68.5312 157.375 L68.5312 150.9062 Q68.5312 149.6719 68.4688 149.3906 Q68.4062 149.1094 68.2891 149.0078 Q68.1719 148.9062 67.9688 148.9062 Q67.7969 148.9062 67.4375 149.0312 L67.3281 148.7656 L69.4688 147.8906 L69.8281 147.8906 ZM75.8125 148.1562 L79.25 148.1562 L79.25 162.1875 L75.8125 162.1875 L75.8125 161.5625 L78.0781 161.5625 L78.0781 148.7812 L75.8125 148.7812 L75.8125 148.1562 Z"
                  style="clip-path:url(#clipPath14); stroke:none;"/>
        </g>
        <g transform="translate(5,5)"
           style="font-size:13px; text-rendering:optimizeLegibility; color-rendering:optimizeQuality; image-rendering:optimizeQuality; font-family:'Times New Roman'; color-interpolation:linearRGB;">
            <path d="M118 263.7286 L113.975 263.7286"
                  style="fill:none; clip-path:url(#clipPath10);"/>
            <path d="M101.3438 271.9531 L100.5938 274 L94.3438 274 L94.3438 273.7031 Q97.1094 271.1875 98.2344 269.5938 Q99.3594 268 99.3594 266.6875 Q99.3594 265.6719 98.7422 265.0234 Q98.125 264.375 97.2656 264.375 Q96.4844 264.375 95.8594 264.8359 Q95.2344 265.2969 94.9375 266.1719 L94.6562 266.1719 Q94.8438 264.7344 95.6562 263.9609 Q96.4688 263.1875 97.6719 263.1875 Q98.9688 263.1875 99.8281 264.0156 Q100.6875 264.8438 100.6875 265.9688 Q100.6875 266.7656 100.3125 267.5781 Q99.7344 268.8438 98.4375 270.25 Q96.5 272.375 96.0156 272.8125 L98.7812 272.8125 Q99.625 272.8125 99.9609 272.75 Q100.2969 272.6875 100.5703 272.5 Q100.8438 272.3125 101.0469 271.9531 L101.3438 271.9531 ZM105.0781 268.6562 Q103.8125 267.625 103.4531 267 Q103.0938 266.375 103.0938 265.7031 Q103.0938 264.6719 103.8906 263.9297 Q104.6875 263.1875 106 263.1875 Q107.2812 263.1875 108.0625 263.8828 Q108.8438 264.5781 108.8438 265.4688 Q108.8438 266.0625 108.4219 266.6797 Q108 267.2969 106.6719 268.125 Q108.0469 269.1875 108.4844 269.7969 Q109.0781 270.5938 109.0781 271.4844 Q109.0781 272.5938 108.2266 273.3906 Q107.375 274.1875 106 274.1875 Q104.4844 274.1875 103.6406 273.2344 Q102.9688 272.4844 102.9688 271.5781 Q102.9688 270.875 103.4453 270.1875 Q103.9219 269.5 105.0781 268.6562 ZM106.2969 267.8281 Q107.2344 266.9844 107.4844 266.4922 Q107.7344 266 107.7344 265.3906 Q107.7344 264.5625 107.2734 264.1016 Q106.8125 263.6406 106.0156 263.6406 Q105.2188 263.6406 104.7188 264.1016 Q104.2188 264.5625 104.2188 265.1719 Q104.2188 265.5781 104.4297 265.9844 Q104.6406 266.3906 105.0156 266.7656 L106.2969 267.8281 ZM105.4375 268.9531 Q104.7969 269.5 104.4844 270.1484 Q104.1719 270.7969 104.1719 271.5469 Q104.1719 272.5469 104.7188 273.1562 Q105.2656 273.7656 106.125 273.7656 Q106.9688 273.7656 107.4766 273.2891 Q107.9844 272.8125 107.9844 272.125 Q107.9844 271.5625 107.6875 271.125 Q107.125 270.2969 105.4375 268.9531 ZM113.0781 268.6562 Q111.8125 267.625 111.4531 267 Q111.0938 266.375 111.0938 265.7031 Q111.0938 264.6719 111.8906 263.9297 Q112.6875 263.1875 114 263.1875 Q115.2812 263.1875 116.0625 263.8828 Q116.8438 264.5781 116.8438 265.4688 Q116.8438 266.0625 116.4219 266.6797 Q116 267.2969 114.6719 268.125 Q116.0469 269.1875 116.4844 269.7969 Q117.0781 270.5938 117.0781 271.4844 Q117.0781 272.5938 116.2266 273.3906 Q115.375 274.1875 114 274.1875 Q112.4844 274.1875 111.6406 273.2344 Q110.9688 272.4844 110.9688 271.5781 Q110.9688 270.875 111.4453 270.1875 Q111.9219 269.5 113.0781 268.6562 ZM114.2969 267.8281 Q115.2344 266.9844 115.4844 266.4922 Q115.7344 266 115.7344 265.3906 Q115.7344 264.5625 115.2734 264.1016 Q114.8125 263.6406 114.0156 263.6406 Q113.2188 263.6406 112.7188 264.1016 Q112.2188 264.5625 112.2188 265.1719 Q112.2188 265.5781 112.4297 265.9844 Q112.6406 266.3906 113.0156 266.7656 L114.2969 267.8281 ZM113.4375 268.9531 Q112.7969 269.5 112.4844 270.1484 Q112.1719 270.7969 112.1719 271.5469 Q112.1719 272.5469 112.7188 273.1562 Q113.2656 273.7656 114.125 273.7656 Q114.9688 273.7656 115.4766 273.2891 Q115.9844 272.8125 115.9844 272.125 Q115.9844 271.5625 115.6875 271.125 Q115.125 270.2969 113.4375 268.9531 Z"
                  style="clip-path:url(#clipPath13); stroke:none;"
                  transform="translate(-5,-5)"/>
        </g>
        <g transform="translate(5,5)"
           style="font-size:13px; text-rendering:optimizeLegibility; color-rendering:optimizeQuality; image-rendering:optimizeQuality; font-family:'Times New Roman'; color-interpolation:linearRGB;">
            <path d="M118 222.8357 L113.975 222.8357"
                  style="fill:none; clip-path:url(#clipPath10);"/>
            <path d="M101.3438 230.9531 L100.5938 233 L94.3438 233 L94.3438 232.7031 Q97.1094 230.1875 98.2344 228.5938 Q99.3594 227 99.3594 225.6875 Q99.3594 224.6719 98.7422 224.0234 Q98.125 223.375 97.2656 223.375 Q96.4844 223.375 95.8594 223.8359 Q95.2344 224.2969 94.9375 225.1719 L94.6562 225.1719 Q94.8438 223.7344 95.6562 222.9609 Q96.4688 222.1875 97.6719 222.1875 Q98.9688 222.1875 99.8281 223.0156 Q100.6875 223.8438 100.6875 224.9688 Q100.6875 225.7656 100.3125 226.5781 Q99.7344 227.8438 98.4375 229.25 Q96.5 231.375 96.0156 231.8125 L98.7812 231.8125 Q99.625 231.8125 99.9609 231.75 Q100.2969 231.6875 100.5703 231.5 Q100.8438 231.3125 101.0469 230.9531 L101.3438 230.9531 ZM105.0781 227.6562 Q103.8125 226.625 103.4531 226 Q103.0938 225.375 103.0938 224.7031 Q103.0938 223.6719 103.8906 222.9297 Q104.6875 222.1875 106 222.1875 Q107.2812 222.1875 108.0625 222.8828 Q108.8438 223.5781 108.8438 224.4688 Q108.8438 225.0625 108.4219 225.6797 Q108 226.2969 106.6719 227.125 Q108.0469 228.1875 108.4844 228.7969 Q109.0781 229.5938 109.0781 230.4844 Q109.0781 231.5938 108.2266 232.3906 Q107.375 233.1875 106 233.1875 Q104.4844 233.1875 103.6406 232.2344 Q102.9688 231.4844 102.9688 230.5781 Q102.9688 229.875 103.4453 229.1875 Q103.9219 228.5 105.0781 227.6562 ZM106.2969 226.8281 Q107.2344 225.9844 107.4844 225.4922 Q107.7344 225 107.7344 224.3906 Q107.7344 223.5625 107.2734 223.1016 Q106.8125 222.6406 106.0156 222.6406 Q105.2188 222.6406 104.7188 223.1016 Q104.2188 223.5625 104.2188 224.1719 Q104.2188 224.5781 104.4297 224.9844 Q104.6406 225.3906 105.0156 225.7656 L106.2969 226.8281 ZM105.4375 227.9531 Q104.7969 228.5 104.4844 229.1484 Q104.1719 229.7969 104.1719 230.5469 Q104.1719 231.5469 104.7188 232.1562 Q105.2656 232.7656 106.125 232.7656 Q106.9688 232.7656 107.4766 232.2891 Q107.9844 231.8125 107.9844 231.125 Q107.9844 230.5625 107.6875 230.125 Q107.125 229.2969 105.4375 227.9531 ZM110.8438 233.2188 L110.8438 232.9219 Q111.8594 232.9062 112.7344 232.4531 Q113.6094 232 114.4297 230.8594 Q115.25 229.7188 115.5625 228.3438 Q114.3438 229.1406 113.3438 229.1406 Q112.2344 229.1406 111.4375 228.2734 Q110.6406 227.4062 110.6406 225.9844 Q110.6406 224.5938 111.4375 223.5 Q112.3906 222.1875 113.9375 222.1875 Q115.25 222.1875 116.1719 223.2656 Q117.3125 224.5938 117.3125 226.5625 Q117.3125 228.3281 116.4453 229.8516 Q115.5781 231.375 114.0312 232.3906 Q112.7812 233.2188 111.2969 233.2188 L110.8438 233.2188 ZM115.6875 227.7656 Q115.8281 226.75 115.8281 226.1406 Q115.8281 225.3906 115.5703 224.5078 Q115.3125 223.625 114.8438 223.1562 Q114.375 222.6875 113.7656 222.6875 Q113.0781 222.6875 112.5547 223.3125 Q112.0312 223.9375 112.0312 225.1719 Q112.0312 226.8281 112.7188 227.75 Q113.2344 228.4219 113.9688 228.4219 Q114.3281 228.4219 114.8203 228.25 Q115.3125 228.0781 115.6875 227.7656 Z"
                  style="clip-path:url(#clipPath13); stroke:none;"
                  transform="translate(-5,-5)"/>
        </g>
        <g transform="translate(5,5)"
           style="font-size:13px; text-rendering:optimizeLegibility; color-rendering:optimizeQuality; image-rendering:optimizeQuality; font-family:'Times New Roman'; color-interpolation:linearRGB;">
            <path d="M118 181.9427 L113.975 181.9427"
                  style="fill:none; clip-path:url(#clipPath10);"/>
            <path d="M101.3438 189.9531 L100.5938 192 L94.3438 192 L94.3438 191.7031 Q97.1094 189.1875 98.2344 187.5938 Q99.3594 186 99.3594 184.6875 Q99.3594 183.6719 98.7422 183.0234 Q98.125 182.375 97.2656 182.375 Q96.4844 182.375 95.8594 182.8359 Q95.2344 183.2969 94.9375 184.1719 L94.6562 184.1719 Q94.8438 182.7344 95.6562 181.9609 Q96.4688 181.1875 97.6719 181.1875 Q98.9688 181.1875 99.8281 182.0156 Q100.6875 182.8438 100.6875 183.9688 Q100.6875 184.7656 100.3125 185.5781 Q99.7344 186.8438 98.4375 188.25 Q96.5 190.375 96.0156 190.8125 L98.7812 190.8125 Q99.625 190.8125 99.9609 190.75 Q100.2969 190.6875 100.5703 190.5 Q100.8438 190.3125 101.0469 189.9531 L101.3438 189.9531 ZM102.8438 192.2188 L102.8438 191.9219 Q103.8594 191.9062 104.7344 191.4531 Q105.6094 191 106.4297 189.8594 Q107.25 188.7188 107.5625 187.3438 Q106.3438 188.1406 105.3438 188.1406 Q104.2344 188.1406 103.4375 187.2734 Q102.6406 186.4062 102.6406 184.9844 Q102.6406 183.5938 103.4375 182.5 Q104.3906 181.1875 105.9375 181.1875 Q107.25 181.1875 108.1719 182.2656 Q109.3125 183.5938 109.3125 185.5625 Q109.3125 187.3281 108.4453 188.8516 Q107.5781 190.375 106.0312 191.3906 Q104.7812 192.2188 103.2969 192.2188 L102.8438 192.2188 ZM107.6875 186.7656 Q107.8281 185.75 107.8281 185.1406 Q107.8281 184.3906 107.5703 183.5078 Q107.3125 182.625 106.8438 182.1562 Q106.375 181.6875 105.7656 181.6875 Q105.0781 181.6875 104.5547 182.3125 Q104.0312 182.9375 104.0312 184.1719 Q104.0312 185.8281 104.7188 186.75 Q105.2344 187.4219 105.9688 187.4219 Q106.3281 187.4219 106.8203 187.25 Q107.3125 187.0781 107.6875 186.7656 ZM110.5781 186.7656 Q110.5781 184.9531 111.125 183.6406 Q111.6719 182.3281 112.5781 181.6875 Q113.2812 181.1875 114.0312 181.1875 Q115.25 181.1875 116.2188 182.4219 Q117.4375 183.9688 117.4375 186.5938 Q117.4375 188.4375 116.9062 189.7266 Q116.375 191.0156 115.5469 191.6016 Q114.7188 192.1875 113.9531 192.1875 Q112.4375 192.1875 111.4375 190.3906 Q110.5781 188.8906 110.5781 186.7656 ZM112.1094 186.9531 Q112.1094 189.1406 112.6562 190.5312 Q113.0938 191.6875 113.9844 191.6875 Q114.4062 191.6875 114.8594 191.3125 Q115.3125 190.9375 115.5469 190.0469 Q115.9062 188.7031 115.9062 186.25 Q115.9062 184.4375 115.5312 183.2344 Q115.25 182.3281 114.7969 181.9531 Q114.4844 181.7031 114.0312 181.7031 Q113.5 181.7031 113.0781 182.1719 Q112.5156 182.8281 112.3125 184.2188 Q112.1094 185.6094 112.1094 186.9531 Z"
                  style="clip-path:url(#clipPath13); stroke:none;"
                  transform="translate(-5,-5)"/>
        </g>
        <g transform="translate(5,5)"
           style="font-size:13px; text-rendering:optimizeLegibility; color-rendering:optimizeQuality; image-rendering:optimizeQuality; font-family:'Times New Roman'; color-interpolation:linearRGB;">
            <path d="M118 141.0497 L113.975 141.0497"
                  style="fill:none; clip-path:url(#clipPath10);"/>
            <path d="M101.3438 149.9531 L100.5938 152 L94.3438 152 L94.3438 151.7031 Q97.1094 149.1875 98.2344 147.5938 Q99.3594 146 99.3594 144.6875 Q99.3594 143.6719 98.7422 143.0234 Q98.125 142.375 97.2656 142.375 Q96.4844 142.375 95.8594 142.8359 Q95.2344 143.2969 94.9375 144.1719 L94.6562 144.1719 Q94.8438 142.7344 95.6562 141.9609 Q96.4688 141.1875 97.6719 141.1875 Q98.9688 141.1875 99.8281 142.0156 Q100.6875 142.8438 100.6875 143.9688 Q100.6875 144.7656 100.3125 145.5781 Q99.7344 146.8438 98.4375 148.25 Q96.5 150.375 96.0156 150.8125 L98.7812 150.8125 Q99.625 150.8125 99.9609 150.75 Q100.2969 150.6875 100.5703 150.5 Q100.8438 150.3125 101.0469 149.9531 L101.3438 149.9531 ZM102.8438 152.2188 L102.8438 151.9219 Q103.8594 151.9062 104.7344 151.4531 Q105.6094 151 106.4297 149.8594 Q107.25 148.7188 107.5625 147.3438 Q106.3438 148.1406 105.3438 148.1406 Q104.2344 148.1406 103.4375 147.2734 Q102.6406 146.4062 102.6406 144.9844 Q102.6406 143.5938 103.4375 142.5 Q104.3906 141.1875 105.9375 141.1875 Q107.25 141.1875 108.1719 142.2656 Q109.3125 143.5938 109.3125 145.5625 Q109.3125 147.3281 108.4453 148.8516 Q107.5781 150.375 106.0312 151.3906 Q104.7812 152.2188 103.2969 152.2188 L102.8438 152.2188 ZM107.6875 146.7656 Q107.8281 145.75 107.8281 145.1406 Q107.8281 144.3906 107.5703 143.5078 Q107.3125 142.625 106.8438 142.1562 Q106.375 141.6875 105.7656 141.6875 Q105.0781 141.6875 104.5547 142.3125 Q104.0312 142.9375 104.0312 144.1719 Q104.0312 145.8281 104.7188 146.75 Q105.2344 147.4219 105.9688 147.4219 Q106.3281 147.4219 106.8203 147.25 Q107.3125 147.0781 107.6875 146.7656 ZM111.875 142.4375 L114.4531 141.1875 L114.7188 141.1875 L114.7188 150.125 Q114.7188 151.0156 114.7891 151.2344 Q114.8594 151.4531 115.0938 151.5703 Q115.3281 151.6875 116.0469 151.7031 L116.0469 152 L112.0625 152 L112.0625 151.7031 Q112.8125 151.6875 113.0312 151.5781 Q113.25 151.4688 113.3359 151.2734 Q113.4219 151.0781 113.4219 150.125 L113.4219 144.4062 Q113.4219 143.25 113.3438 142.9219 Q113.2969 142.6719 113.1484 142.5547 Q113 142.4375 112.7969 142.4375 Q112.5156 142.4375 112 142.6875 L111.875 142.4375 Z"
                  style="clip-path:url(#clipPath13); stroke:none;"
                  transform="translate(-5,-5)"/>
        </g>
        <g transform="translate(5,5)"
           style="font-size:13px; text-rendering:optimizeLegibility; color-rendering:optimizeQuality; image-rendering:optimizeQuality; font-family:'Times New Roman'; color-interpolation:linearRGB;">
            <path d="M118 100.1568 L113.975 100.1568"
                  style="fill:none; clip-path:url(#clipPath10);"/>
            <path d="M101.3438 108.9531 L100.5938 111 L94.3438 111 L94.3438 110.7031 Q97.1094 108.1875 98.2344 106.5938 Q99.3594 105 99.3594 103.6875 Q99.3594 102.6719 98.7422 102.0234 Q98.125 101.375 97.2656 101.375 Q96.4844 101.375 95.8594 101.8359 Q95.2344 102.2969 94.9375 103.1719 L94.6562 103.1719 Q94.8438 101.7344 95.6562 100.9609 Q96.4688 100.1875 97.6719 100.1875 Q98.9688 100.1875 99.8281 101.0156 Q100.6875 101.8438 100.6875 102.9688 Q100.6875 103.7656 100.3125 104.5781 Q99.7344 105.8438 98.4375 107.25 Q96.5 109.375 96.0156 109.8125 L98.7812 109.8125 Q99.625 109.8125 99.9609 109.75 Q100.2969 109.6875 100.5703 109.5 Q100.8438 109.3125 101.0469 108.9531 L101.3438 108.9531 ZM102.8438 111.2188 L102.8438 110.9219 Q103.8594 110.9062 104.7344 110.4531 Q105.6094 110 106.4297 108.8594 Q107.25 107.7188 107.5625 106.3438 Q106.3438 107.1406 105.3438 107.1406 Q104.2344 107.1406 103.4375 106.2734 Q102.6406 105.4062 102.6406 103.9844 Q102.6406 102.5938 103.4375 101.5 Q104.3906 100.1875 105.9375 100.1875 Q107.25 100.1875 108.1719 101.2656 Q109.3125 102.5938 109.3125 104.5625 Q109.3125 106.3281 108.4453 107.8516 Q107.5781 109.375 106.0312 110.3906 Q104.7812 111.2188 103.2969 111.2188 L102.8438 111.2188 ZM107.6875 105.7656 Q107.8281 104.75 107.8281 104.1406 Q107.8281 103.3906 107.5703 102.5078 Q107.3125 101.625 106.8438 101.1562 Q106.375 100.6875 105.7656 100.6875 Q105.0781 100.6875 104.5547 101.3125 Q104.0312 101.9375 104.0312 103.1719 Q104.0312 104.8281 104.7188 105.75 Q105.2344 106.4219 105.9688 106.4219 Q106.3281 106.4219 106.8203 106.25 Q107.3125 106.0781 107.6875 105.7656 ZM117.3438 108.9531 L116.5938 111 L110.3438 111 L110.3438 110.7031 Q113.1094 108.1875 114.2344 106.5938 Q115.3594 105 115.3594 103.6875 Q115.3594 102.6719 114.7422 102.0234 Q114.125 101.375 113.2656 101.375 Q112.4844 101.375 111.8594 101.8359 Q111.2344 102.2969 110.9375 103.1719 L110.6562 103.1719 Q110.8438 101.7344 111.6562 100.9609 Q112.4688 100.1875 113.6719 100.1875 Q114.9688 100.1875 115.8281 101.0156 Q116.6875 101.8438 116.6875 102.9688 Q116.6875 103.7656 116.3125 104.5781 Q115.7344 105.8438 114.4375 107.25 Q112.5 109.375 112.0156 109.8125 L114.7812 109.8125 Q115.625 109.8125 115.9609 109.75 Q116.2969 109.6875 116.5703 109.5 Q116.8438 109.3125 117.0469 108.9531 L117.3438 108.9531 Z"
                  style="clip-path:url(#clipPath13); stroke:none;"
                  transform="translate(-5,-5)"/>
        </g>
        <g transform="translate(5,5)"
           style="font-size:13px; text-rendering:optimizeLegibility; color-rendering:optimizeQuality; image-rendering:optimizeQuality; font-family:'Times New Roman'; color-interpolation:linearRGB;">
            <path d="M118 59.2638 L113.975 59.2638"
                  style="fill:none; clip-path:url(#clipPath10);"/>
            <path d="M101.3438 67.9531 L100.5938 70 L94.3438 70 L94.3438 69.7031 Q97.1094 67.1875 98.2344 65.5938 Q99.3594 64 99.3594 62.6875 Q99.3594 61.6719 98.7422 61.0234 Q98.125 60.375 97.2656 60.375 Q96.4844 60.375 95.8594 60.8359 Q95.2344 61.2969 94.9375 62.1719 L94.6562 62.1719 Q94.8438 60.7344 95.6562 59.9609 Q96.4688 59.1875 97.6719 59.1875 Q98.9688 59.1875 99.8281 60.0156 Q100.6875 60.8438 100.6875 61.9688 Q100.6875 62.7656 100.3125 63.5781 Q99.7344 64.8438 98.4375 66.25 Q96.5 68.375 96.0156 68.8125 L98.7812 68.8125 Q99.625 68.8125 99.9609 68.75 Q100.2969 68.6875 100.5703 68.5 Q100.8438 68.3125 101.0469 67.9531 L101.3438 67.9531 ZM102.8438 70.2188 L102.8438 69.9219 Q103.8594 69.9062 104.7344 69.4531 Q105.6094 69 106.4297 67.8594 Q107.25 66.7188 107.5625 65.3438 Q106.3438 66.1406 105.3438 66.1406 Q104.2344 66.1406 103.4375 65.2734 Q102.6406 64.4062 102.6406 62.9844 Q102.6406 61.5938 103.4375 60.5 Q104.3906 59.1875 105.9375 59.1875 Q107.25 59.1875 108.1719 60.2656 Q109.3125 61.5938 109.3125 63.5625 Q109.3125 65.3281 108.4453 66.8516 Q107.5781 68.375 106.0312 69.3906 Q104.7812 70.2188 103.2969 70.2188 L102.8438 70.2188 ZM107.6875 64.7656 Q107.8281 63.75 107.8281 63.1406 Q107.8281 62.3906 107.5703 61.5078 Q107.3125 60.625 106.8438 60.1562 Q106.375 59.6875 105.7656 59.6875 Q105.0781 59.6875 104.5547 60.3125 Q104.0312 60.9375 104.0312 62.1719 Q104.0312 63.8281 104.7188 64.75 Q105.2344 65.4219 105.9688 65.4219 Q106.3281 65.4219 106.8203 65.25 Q107.3125 65.0781 107.6875 64.7656 ZM110.8125 61.4219 Q111.2656 60.3438 111.9609 59.7656 Q112.6562 59.1875 113.6875 59.1875 Q114.9531 59.1875 115.6406 60.0156 Q116.1562 60.625 116.1562 61.3281 Q116.1562 62.4844 114.7031 63.7188 Q115.6719 64.1094 116.1719 64.8203 Q116.6719 65.5312 116.6719 66.4844 Q116.6719 67.8594 115.7969 68.875 Q114.6562 70.1875 112.5 70.1875 Q111.4219 70.1875 111.0391 69.9219 Q110.6562 69.6562 110.6562 69.3438 Q110.6562 69.125 110.8359 68.9531 Q111.0156 68.7812 111.2812 68.7812 Q111.4688 68.7812 111.6719 68.8438 Q111.8125 68.875 112.2812 69.125 Q112.75 69.375 112.9219 69.4219 Q113.2188 69.5 113.5469 69.5 Q114.3438 69.5 114.9297 68.8828 Q115.5156 68.2656 115.5156 67.4219 Q115.5156 66.8125 115.25 66.2188 Q115.0469 65.7812 114.7969 65.5625 Q114.4688 65.25 113.8828 64.9922 Q113.2969 64.7344 112.6875 64.7344 L112.4375 64.7344 L112.4375 64.5 Q113.0469 64.4219 113.6719 64.0547 Q114.2969 63.6875 114.5781 63.1719 Q114.8594 62.6562 114.8594 62.0469 Q114.8594 61.2344 114.3516 60.7422 Q113.8438 60.25 113.0938 60.25 Q111.8906 60.25 111.0781 61.5469 L110.8125 61.4219 Z"
                  style="clip-path:url(#clipPath13); stroke:none;"
                  transform="translate(-5,-5)"/>
        </g>
        <g transform="translate(5,5)"
           style="font-size:13px; text-rendering:optimizeLegibility; color-rendering:optimizeQuality; image-rendering:optimizeQuality; font-family:'Times New Roman'; color-interpolation:linearRGB;">
            <path d="M118 18.3709 L113.975 18.3709"
                  style="fill:none; clip-path:url(#clipPath10);"/>
            <path d="M101.3438 26.9531 L100.5938 29 L94.3438 29 L94.3438 28.7031 Q97.1094 26.1875 98.2344 24.5938 Q99.3594 23 99.3594 21.6875 Q99.3594 20.6719 98.7422 20.0234 Q98.125 19.375 97.2656 19.375 Q96.4844 19.375 95.8594 19.8359 Q95.2344 20.2969 94.9375 21.1719 L94.6562 21.1719 Q94.8438 19.7344 95.6562 18.9609 Q96.4688 18.1875 97.6719 18.1875 Q98.9688 18.1875 99.8281 19.0156 Q100.6875 19.8438 100.6875 20.9688 Q100.6875 21.7656 100.3125 22.5781 Q99.7344 23.8438 98.4375 25.25 Q96.5 27.375 96.0156 27.8125 L98.7812 27.8125 Q99.625 27.8125 99.9609 27.75 Q100.2969 27.6875 100.5703 27.5 Q100.8438 27.3125 101.0469 26.9531 L101.3438 26.9531 ZM102.8438 29.2188 L102.8438 28.9219 Q103.8594 28.9062 104.7344 28.4531 Q105.6094 28 106.4297 26.8594 Q107.25 25.7188 107.5625 24.3438 Q106.3438 25.1406 105.3438 25.1406 Q104.2344 25.1406 103.4375 24.2734 Q102.6406 23.4062 102.6406 21.9844 Q102.6406 20.5938 103.4375 19.5 Q104.3906 18.1875 105.9375 18.1875 Q107.25 18.1875 108.1719 19.2656 Q109.3125 20.5938 109.3125 22.5625 Q109.3125 24.3281 108.4453 25.8516 Q107.5781 27.375 106.0312 28.3906 Q104.7812 29.2188 103.2969 29.2188 L102.8438 29.2188 ZM107.6875 23.7656 Q107.8281 22.75 107.8281 22.1406 Q107.8281 21.3906 107.5703 20.5078 Q107.3125 19.625 106.8438 19.1562 Q106.375 18.6875 105.7656 18.6875 Q105.0781 18.6875 104.5547 19.3125 Q104.0312 19.9375 104.0312 21.1719 Q104.0312 22.8281 104.7188 23.75 Q105.2344 24.4219 105.9688 24.4219 Q106.3281 24.4219 106.8203 24.25 Q107.3125 24.0781 107.6875 23.7656 ZM117.4531 25.0938 L117.4531 26.2031 L116.0312 26.2031 L116.0312 29 L114.7344 29 L114.7344 26.2031 L110.25 26.2031 L110.25 25.2031 L115.1719 18.1875 L116.0312 18.1875 L116.0312 25.0938 L117.4531 25.0938 ZM114.7344 25.0938 L114.7344 19.8281 L111.0156 25.0938 L114.7344 25.0938 Z"
                  style="clip-path:url(#clipPath13); stroke:none;"
                  transform="translate(-5,-5)"/>
        </g>
        <g transform="translate(5,5)"
           style="font-size:13px; text-rendering:optimizeLegibility; color-rendering:optimizeQuality; image-rendering:optimizeQuality; font-family:'Times New Roman'; color-interpolation:linearRGB;">
            <path d="M118 284.1751 L115.9875 284.1751"
                  style="fill:none; clip-path:url(#clipPath10);"/>
        </g>
        <g transform="translate(5,5)"
           style="font-size:13px; text-rendering:optimizeLegibility; color-rendering:optimizeQuality; image-rendering:optimizeQuality; font-family:'Times New Roman'; color-interpolation:linearRGB;">
            <path d="M118 243.2821 L115.9875 243.2821"
                  style="fill:none; clip-path:url(#clipPath10);"/>
        </g>
        <g transform="translate(5,5)"
           style="font-size:13px; text-rendering:optimizeLegibility; color-rendering:optimizeQuality; image-rendering:optimizeQuality; font-family:'Times New Roman'; color-interpolation:linearRGB;">
            <path d="M118 202.3892 L115.9875 202.3892"
                  style="fill:none; clip-path:url(#clipPath10);"/>
        </g>
        <g transform="translate(5,5)"
           style="font-size:13px; text-rendering:optimizeLegibility; color-rendering:optimizeQuality; image-rendering:optimizeQuality; font-family:'Times New Roman'; color-interpolation:linearRGB;">
            <path d="M118 161.4962 L115.9875 161.4962"
                  style="fill:none; clip-path:url(#clipPath10);"/>
        </g>
        <g transform="translate(5,5)"
           style="font-size:13px; text-rendering:optimizeLegibility; color-rendering:optimizeQuality; image-rendering:optimizeQuality; font-family:'Times New Roman'; color-interpolation:linearRGB;">
            <path d="M118 120.6033 L115.9875 120.6033"
                  style="fill:none; clip-path:url(#clipPath10);"/>
        </g>
        <g transform="translate(5,5)"
           style="font-size:13px; text-rendering:optimizeLegibility; color-rendering:optimizeQuality; image-rendering:optimizeQuality; font-family:'Times New Roman'; color-interpolation:linearRGB;">
            <path d="M118 79.7103 L115.9875 79.7103"
                  style="fill:none; clip-path:url(#clipPath10);"/>
        </g>
        <g transform="translate(5,5)"
           style="font-size:13px; text-rendering:optimizeLegibility; color-rendering:optimizeQuality; image-rendering:optimizeQuality; font-family:'Times New Roman'; color-interpolation:linearRGB;">
            <path d="M118 38.8174 L115.9875 38.8174"
                  style="fill:none; clip-path:url(#clipPath10);"/>
        </g>
    </g>
</svg>
