<?xml version="1.0" encoding="UTF-8"?>
<!DOCTYPE svg PUBLIC '-//W3C//DTD SVG 1.0//EN'
    'http://www.w3.org/TR/2001/REC-SVG-20010904/DTD/svg10.dtd' >

<svg style="stroke-dasharray:none; shape-rendering:auto; font-family:'Dialog'; text-rendering:auto; fill-opacity:1; color-interpolation:auto; color-rendering:auto; font-size:12px; fill:black; stroke:black; image-rendering:auto; stroke-miterlimit:10; stroke-linecap:square; stroke-linejoin:miter; font-style:normal; stroke-width:1; stroke-dashoffset:0; font-weight:normal; stroke-opacity:1;"
     xmlns="http://www.w3.org/2000/svg" contentScriptType="text/ecmascript"
     preserveAspectRatio="xMidYMid meet"
     xmlns:xlink="http://www.w3.org/1999/xlink" zoomAndPan="magnify"
     version="1.0" contentStyleType="text/css">
    <!--Generated by the Batik Graphics2D SVG Generator-->
    <defs id="genericDefs"/>
    <g>
        <defs id="defs1">
            <clipPath clipPathUnits="userSpaceOnUse" id="clipPath1">
                <path d="M85 285 L334 285 L334 309 L85 309 L85 285 Z"/>
            </clipPath>
            <clipPath clipPathUnits="userSpaceOnUse" id="clipPath2">
                <path d="M88 288 L88 306 L198 306 L198 288 Z"/>
            </clipPath>
            <clipPath clipPathUnits="userSpaceOnUse" id="clipPath3">
                <path d="M-2 -1 L-2 17 L108 17 L108 -1 Z"/>
            </clipPath>
            <clipPath clipPathUnits="userSpaceOnUse" id="clipPath4">
                <path d="M0 0 L0 18 L110 18 L110 0 Z"/>
            </clipPath>
            <clipPath clipPathUnits="userSpaceOnUse" id="clipPath5">
                <path d="M37 0 L37 17 L109 17 L109 0 Z"/>
            </clipPath>
            <clipPath clipPathUnits="userSpaceOnUse" id="clipPath6">
                <path d="M197 288 L197 306 L332 306 L332 288 Z"/>
            </clipPath>
            <clipPath clipPathUnits="userSpaceOnUse" id="clipPath7">
                <path d="M-2 -1 L-2 17 L133 17 L133 -1 Z"/>
            </clipPath>
            <clipPath clipPathUnits="userSpaceOnUse" id="clipPath8">
                <path d="M0 0 L0 18 L135 18 L135 0 Z"/>
            </clipPath>
            <clipPath clipPathUnits="userSpaceOnUse" id="clipPath9">
                <path d="M37 0 L37 17 L134 17 L134 0 Z"/>
            </clipPath>
            <clipPath clipPathUnits="userSpaceOnUse" id="clipPath10">
                <path d="M0 0 L410 0 L410 277 L0 277 L0 0 Z"/>
            </clipPath>
            <clipPath clipPathUnits="userSpaceOnUse" id="clipPath11">
                <path d="M114 0 L114 239 L404.9876 239 L404.9876 0 Z"/>
            </clipPath>
            <clipPath clipPathUnits="userSpaceOnUse" id="clipPath12">
                <path d="M240 258 L240 276 L276 276 L276 258 Z"/>
            </clipPath>
            <clipPath clipPathUnits="userSpaceOnUse" id="clipPath13">
                <path d="M5 5 L415 5 L415 282 L5 282 L5 5 Z"/>
            </clipPath>
            <clipPath clipPathUnits="userSpaceOnUse" id="clipPath14">
                <path d="M0 110 L0 128 L84 128 L84 110 Z"/>
            </clipPath>
            <clipPath clipPathUnits="userSpaceOnUse" id="clipPath15">
                <path d="M-15 -4 L-15 14 L69 14 L69 -4 Z"/>
            </clipPath>
            <clipPath clipPathUnits="userSpaceOnUse" id="clipPath16">
                <path d="M-26 -4 L-26 14 L58 14 L58 -4 Z"/>
            </clipPath>
        </defs>
        <g style="stroke-linecap:butt; font-size:13px; fill:rgb(0,116,204); text-rendering:optimizeLegibility; image-rendering:optimizeQuality; color-rendering:optimizeQuality; font-family:'Times New Roman'; stroke-linejoin:round; stroke:rgb(0,116,204); color-interpolation:linearRGB; stroke-width:1.5;"
           transform="translate(90,289)">
            <path d="M0 7 L34 7" style="fill:none; clip-path:url(#clipPath3);"/>
        </g>
        <g transform="translate(88,288)"
           style="stroke-linecap:butt; font-size:13px; text-rendering:optimizeLegibility; image-rendering:optimizeQuality; color-rendering:optimizeQuality; font-family:'Times New Roman'; stroke-linejoin:round; color-interpolation:linearRGB; stroke-width:1.5;">
            <path d="M51.0312 3.8438 L51.2656 7.2188 L51.0312 7.2188 Q50.5781 5.7031 49.7344 5.0391 Q48.8906 4.375 47.7188 4.375 Q46.7188 4.375 45.9219 4.875 Q45.125 5.375 44.6719 6.4688 Q44.2188 7.5625 44.2188 9.2031 Q44.2188 10.5469 44.6484 11.5391 Q45.0781 12.5312 45.9453 13.0547 Q46.8125 13.5781 47.9219 13.5781 Q48.8906 13.5781 49.6328 13.1641 Q50.375 12.75 51.2656 11.5312 L51.4844 11.6719 Q50.7344 13 49.7422 13.6172 Q48.75 14.2344 47.375 14.2344 Q44.9062 14.2344 43.5469 12.3906 Q42.5469 11.0312 42.5469 9.1875 Q42.5469 7.7031 43.2109 6.4531 Q43.875 5.2031 45.0469 4.5234 Q46.2188 3.8438 47.5938 3.8438 Q48.6719 3.8438 49.7188 4.375 Q50.0312 4.5312 50.1562 4.5312 Q50.3594 4.5312 50.5 4.3906 Q50.6875 4.1875 50.7812 3.8438 L51.0312 3.8438 ZM55.7549 7.0938 Q57.2861 7.0938 58.208 8.25 Q58.9893 9.2344 58.9893 10.5156 Q58.9893 11.4219 58.5518 12.3438 Q58.1143 13.2656 57.3564 13.7344 Q56.5986 14.2031 55.6768 14.2031 Q54.1611 14.2031 53.2705 13 Q52.5049 11.9844 52.5049 10.7188 Q52.5049 9.7812 52.9658 8.875 Q53.4268 7.9688 54.1768 7.5312 Q54.9268 7.0938 55.7549 7.0938 ZM55.5205 7.5625 Q55.1455 7.5625 54.7471 7.7969 Q54.3486 8.0312 54.1143 8.6094 Q53.8799 9.1875 53.8799 10.0938 Q53.8799 11.5625 54.458 12.625 Q55.0361 13.6875 55.9893 13.6875 Q56.6924 13.6875 57.1611 13.1016 Q57.6299 12.5156 57.6299 11.0781 Q57.6299 9.2969 56.8486 8.2656 Q56.333 7.5625 55.5205 7.5625 ZM61.9736 8.5156 Q62.6924 7.7812 62.833 7.6719 Q63.1611 7.4062 63.5439 7.25 Q63.9268 7.0938 64.3018 7.0938 Q64.9268 7.0938 65.3799 7.4609 Q65.833 7.8281 65.9893 8.5156 Q66.7393 7.6406 67.2627 7.3672 Q67.7861 7.0938 68.333 7.0938 Q68.8643 7.0938 69.2783 7.3672 Q69.6924 7.6406 69.9424 8.2656 Q70.0986 8.6875 70.0986 9.5938 L70.0986 12.4844 Q70.0986 13.1094 70.1924 13.3438 Q70.2705 13.5156 70.4658 13.625 Q70.6611 13.7344 71.1143 13.7344 L71.1143 14 L67.8018 14 L67.8018 13.7344 L67.9424 13.7344 Q68.3643 13.7344 68.6143 13.5625 Q68.7705 13.4531 68.8486 13.1875 Q68.8799 13.0625 68.8799 12.4844 L68.8799 9.5938 Q68.8799 8.7812 68.6768 8.4375 Q68.3955 7.9688 67.7705 7.9688 Q67.3799 7.9688 66.9893 8.1641 Q66.5986 8.3594 66.0361 8.8906 L66.0205 8.9688 L66.0361 9.2812 L66.0361 12.4844 Q66.0361 13.1719 66.1143 13.3438 Q66.1924 13.5156 66.4033 13.625 Q66.6143 13.7344 67.1299 13.7344 L67.1299 14 L63.7393 14 L63.7393 13.7344 Q64.3018 13.7344 64.5049 13.6016 Q64.708 13.4688 64.7861 13.2031 Q64.833 13.0781 64.833 12.4844 L64.833 9.5938 Q64.833 8.7812 64.583 8.4219 Q64.2705 7.9531 63.6924 7.9531 Q63.2861 7.9531 62.9111 8.1562 Q62.3018 8.4844 61.9736 8.8906 L61.9736 12.4844 Q61.9736 13.1406 62.0596 13.3359 Q62.1455 13.5312 62.3252 13.6328 Q62.5049 13.7344 63.0518 13.7344 L63.0518 14 L59.7393 14 L59.7393 13.7344 Q60.208 13.7344 60.3877 13.6328 Q60.5674 13.5312 60.6611 13.3203 Q60.7549 13.1094 60.7549 12.4844 L60.7549 9.9219 Q60.7549 8.8125 60.6924 8.4844 Q60.6455 8.25 60.5361 8.1562 Q60.4268 8.0625 60.2236 8.0625 Q60.0205 8.0625 59.7393 8.1719 L59.6299 7.9062 L61.6455 7.0938 L61.9736 7.0938 L61.9736 8.5156 ZM71.1567 7.9531 L73.2192 7.125 L73.5005 7.125 L73.5005 8.6875 Q74.0161 7.7969 74.5396 7.4453 Q75.063 7.0938 75.6411 7.0938 Q76.6567 7.0938 77.3286 7.8906 Q78.1567 8.8438 78.1567 10.4062 Q78.1567 12.1406 77.1567 13.2812 Q76.3442 14.2031 75.0942 14.2031 Q74.563 14.2031 74.1567 14.0469 Q73.8755 13.9375 73.5005 13.6094 L73.5005 15.6562 Q73.5005 16.3438 73.5864 16.5312 Q73.6724 16.7188 73.8833 16.8281 Q74.0942 16.9375 74.6411 16.9375 L74.6411 17.2031 L71.1255 17.2031 L71.1255 16.9375 L71.2974 16.9375 Q71.7036 16.9375 72.0005 16.7812 Q72.1255 16.7031 72.2036 16.5234 Q72.2817 16.3438 72.2817 15.6094 L72.2817 9.2656 Q72.2817 8.6094 72.2271 8.4375 Q72.1724 8.2656 72.0396 8.1797 Q71.9067 8.0938 71.688 8.0938 Q71.5161 8.0938 71.2505 8.1875 L71.1567 7.9531 ZM73.5005 9.125 L73.5005 11.625 Q73.5005 12.4375 73.563 12.7031 Q73.6724 13.125 74.0708 13.4453 Q74.4692 13.7656 75.0786 13.7656 Q75.813 13.7656 76.2661 13.1875 Q76.8599 12.4531 76.8599 11.0938 Q76.8599 9.5469 76.188 8.7188 Q75.7192 8.1562 75.063 8.1562 Q74.7192 8.1562 74.3755 8.3281 Q74.1099 8.4688 73.5005 9.125 ZM85.0161 7.2969 L85.0161 11.3594 Q85.0161 12.5156 85.0708 12.7812 Q85.1255 13.0469 85.2505 13.1484 Q85.3755 13.25 85.5317 13.25 Q85.7661 13.25 86.0474 13.125 L86.1567 13.375 L84.1411 14.2031 L83.813 14.2031 L83.813 12.7812 Q82.9536 13.7188 82.5005 13.9609 Q82.0474 14.2031 81.5317 14.2031 Q80.9692 14.2031 80.5552 13.875 Q80.1411 13.5469 79.9849 13.0391 Q79.8286 12.5312 79.8286 11.5938 L79.8286 8.5938 Q79.8286 8.125 79.7192 7.9375 Q79.6099 7.75 79.4146 7.6484 Q79.2192 7.5469 78.688 7.5625 L78.688 7.2969 L81.0317 7.2969 L81.0317 11.7812 Q81.0317 12.7188 81.3599 13.0078 Q81.688 13.2969 82.1567 13.2969 Q82.4692 13.2969 82.8677 13.1016 Q83.2661 12.9062 83.813 12.3594 L83.813 8.5469 Q83.813 7.9844 83.6021 7.7812 Q83.3911 7.5781 82.7349 7.5625 L82.7349 7.2969 L85.0161 7.2969 ZM88.5942 5.0938 L88.5942 7.2969 L90.1567 7.2969 L90.1567 7.7969 L88.5942 7.7969 L88.5942 12.1562 Q88.5942 12.8125 88.7817 13.0391 Q88.9692 13.2656 89.2505 13.2656 Q89.5005 13.2656 89.7271 13.1094 Q89.9536 12.9531 90.0786 12.6719 L90.3599 12.6719 Q90.1099 13.3906 89.6411 13.75 Q89.1724 14.1094 88.6724 14.1094 Q88.3286 14.1094 88.0083 13.9219 Q87.688 13.7344 87.5317 13.3906 Q87.3755 13.0469 87.3755 12.3125 L87.3755 7.7969 L86.313 7.7969 L86.313 7.5625 Q86.7192 7.4062 87.1411 7.0156 Q87.563 6.625 87.8911 6.1094 Q88.063 5.8281 88.3599 5.0938 L88.5942 5.0938 ZM91.9336 9.8125 Q91.9336 11.3125 92.668 12.1562 Q93.3867 13.0156 94.3867 13.0156 Q95.043 13.0156 95.5273 12.6484 Q96.0117 12.2812 96.3398 11.4062 L96.5742 11.5469 Q96.418 12.5625 95.6758 13.3828 Q94.9336 14.2031 93.8242 14.2031 Q92.6211 14.2031 91.7617 13.2656 Q90.9023 12.3281 90.9023 10.7344 Q90.9023 9.0156 91.7852 8.0469 Q92.668 7.0781 93.9961 7.0781 Q95.1211 7.0781 95.8477 7.8281 Q96.5742 8.5781 96.5742 9.8125 L91.9336 9.8125 ZM91.9336 9.3906 L95.043 9.3906 Q95.0117 8.75 94.8867 8.4844 Q94.6992 8.0781 94.3398 7.8438 Q93.9805 7.6094 93.5898 7.6094 Q92.9805 7.6094 92.4961 8.0781 Q92.0117 8.5469 91.9336 9.3906 ZM102.2007 13.25 Q101.7163 13.7656 101.2476 13.9844 Q100.7788 14.2031 100.2319 14.2031 Q99.1382 14.2031 98.3179 13.2812 Q97.4976 12.3594 97.4976 10.9219 Q97.4976 9.4844 98.4038 8.2812 Q99.3101 7.0781 100.7476 7.0781 Q101.6226 7.0781 102.2007 7.6562 L102.2007 6.4062 Q102.2007 5.2656 102.146 5 Q102.0913 4.7344 101.9741 4.6406 Q101.8569 4.5469 101.6851 4.5469 Q101.4976 4.5469 101.1851 4.6562 L101.0913 4.4062 L103.0913 3.5781 L103.4194 3.5781 L103.4194 11.3438 Q103.4194 12.5156 103.4741 12.7812 Q103.5288 13.0469 103.646 13.1484 Q103.7632 13.25 103.9194 13.25 Q104.1226 13.25 104.4507 13.125 L104.5288 13.375 L102.5444 14.2031 L102.2007 14.2031 L102.2007 13.25 ZM102.2007 12.7344 L102.2007 9.2812 Q102.1538 8.7812 101.9351 8.3672 Q101.7163 7.9531 101.3569 7.75 Q100.9976 7.5469 100.6538 7.5469 Q100.0132 7.5469 99.4976 8.125 Q98.8413 8.875 98.8413 10.3438 Q98.8413 11.8281 99.4819 12.6172 Q100.1226 13.4062 100.9194 13.4062 Q101.5757 13.4062 102.2007 12.7344 Z"
                  style="stroke:none; clip-path:url(#clipPath5);"/>
        </g>
        <g style="stroke-linecap:butt; font-size:13px; fill:rgb(204,0,116); text-rendering:optimizeLegibility; image-rendering:optimizeQuality; color-rendering:optimizeQuality; font-family:'Times New Roman'; stroke-linejoin:round; stroke:rgb(204,0,116); color-interpolation:linearRGB; stroke-width:1.5;"
           transform="translate(199,289)">
            <path d="M0 7 L34 7" style="fill:none; clip-path:url(#clipPath7);"/>
        </g>
        <g transform="translate(197,288)"
           style="stroke-linecap:butt; font-size:13px; text-rendering:optimizeLegibility; image-rendering:optimizeQuality; color-rendering:optimizeQuality; font-family:'Times New Roman'; stroke-linejoin:round; color-interpolation:linearRGB; stroke-width:1.5;">
            <path d="M48.875 3.8438 L48.875 7.2812 L48.6094 7.2812 Q48.4688 6.2812 48.1328 5.6953 Q47.7969 5.1094 47.1641 4.7656 Q46.5312 4.4219 45.8594 4.4219 Q45.0938 4.4219 44.6016 4.8906 Q44.1094 5.3594 44.1094 5.9531 Q44.1094 6.4062 44.4219 6.7812 Q44.875 7.3281 46.5781 8.25 Q47.9688 8.9844 48.4766 9.3828 Q48.9844 9.7812 49.2578 10.3281 Q49.5312 10.875 49.5312 11.4688 Q49.5312 12.5938 48.6562 13.4141 Q47.7812 14.2344 46.4062 14.2344 Q45.9844 14.2344 45.5938 14.1562 Q45.375 14.125 44.6562 13.8906 Q43.9375 13.6562 43.75 13.6562 Q43.5625 13.6562 43.4609 13.7656 Q43.3594 13.875 43.2969 14.2344 L43.0312 14.2344 L43.0312 10.8281 L43.2969 10.8281 Q43.5 11.8906 43.8203 12.4219 Q44.1406 12.9531 44.8047 13.3047 Q45.4688 13.6562 46.25 13.6562 Q47.1719 13.6562 47.7031 13.1719 Q48.2344 12.6875 48.2344 12.0312 Q48.2344 11.6562 48.0312 11.2891 Q47.8281 10.9219 47.4062 10.5938 Q47.125 10.375 45.8516 9.6641 Q44.5781 8.9531 44.0391 8.5234 Q43.5 8.0938 43.2188 7.5859 Q42.9375 7.0781 42.9375 6.4531 Q42.9375 5.3906 43.7578 4.6172 Q44.5781 3.8438 45.8438 3.8438 Q46.6406 3.8438 47.5156 4.2344 Q47.9375 4.4062 48.0938 4.4062 Q48.2969 4.4062 48.4141 4.2969 Q48.5312 4.1875 48.6094 3.8438 L48.875 3.8438 ZM52.5142 3.5781 Q52.8267 3.5781 53.0454 3.7969 Q53.2642 4.0156 53.2642 4.3281 Q53.2642 4.625 53.0454 4.8516 Q52.8267 5.0781 52.5142 5.0781 Q52.2173 5.0781 51.9907 4.8516 Q51.7642 4.625 51.7642 4.3281 Q51.7642 4.0156 51.9829 3.7969 Q52.2017 3.5781 52.5142 3.5781 ZM53.1235 7.0938 L53.1235 12.4844 Q53.1235 13.1094 53.2173 13.3203 Q53.311 13.5312 53.4907 13.6328 Q53.6704 13.7344 54.1392 13.7344 L54.1392 14 L50.8892 14 L50.8892 13.7344 Q51.3735 13.7344 51.5454 13.6406 Q51.7173 13.5469 51.811 13.3281 Q51.9048 13.1094 51.9048 12.4844 L51.9048 9.8906 Q51.9048 8.8125 51.8423 8.4844 Q51.7954 8.25 51.686 8.1562 Q51.5767 8.0625 51.3892 8.0625 Q51.1704 8.0625 50.8892 8.1719 L50.7798 7.9062 L52.811 7.0938 L53.1235 7.0938 ZM56.9785 8.5156 Q57.6973 7.7812 57.8379 7.6719 Q58.166 7.4062 58.5488 7.25 Q58.9316 7.0938 59.3066 7.0938 Q59.9316 7.0938 60.3848 7.4609 Q60.8379 7.8281 60.9941 8.5156 Q61.7441 7.6406 62.2676 7.3672 Q62.791 7.0938 63.3379 7.0938 Q63.8691 7.0938 64.2832 7.3672 Q64.6973 7.6406 64.9473 8.2656 Q65.1035 8.6875 65.1035 9.5938 L65.1035 12.4844 Q65.1035 13.1094 65.1973 13.3438 Q65.2754 13.5156 65.4707 13.625 Q65.666 13.7344 66.1191 13.7344 L66.1191 14 L62.8066 14 L62.8066 13.7344 L62.9473 13.7344 Q63.3691 13.7344 63.6191 13.5625 Q63.7754 13.4531 63.8535 13.1875 Q63.8848 13.0625 63.8848 12.4844 L63.8848 9.5938 Q63.8848 8.7812 63.6816 8.4375 Q63.4004 7.9688 62.7754 7.9688 Q62.3848 7.9688 61.9941 8.1641 Q61.6035 8.3594 61.041 8.8906 L61.0254 8.9688 L61.041 9.2812 L61.041 12.4844 Q61.041 13.1719 61.1191 13.3438 Q61.1973 13.5156 61.4082 13.625 Q61.6191 13.7344 62.1348 13.7344 L62.1348 14 L58.7441 14 L58.7441 13.7344 Q59.3066 13.7344 59.5098 13.6016 Q59.7129 13.4688 59.791 13.2031 Q59.8379 13.0781 59.8379 12.4844 L59.8379 9.5938 Q59.8379 8.7812 59.5879 8.4219 Q59.2754 7.9531 58.6973 7.9531 Q58.291 7.9531 57.916 8.1562 Q57.3066 8.4844 56.9785 8.8906 L56.9785 12.4844 Q56.9785 13.1406 57.0645 13.3359 Q57.1504 13.5312 57.3301 13.6328 Q57.5098 13.7344 58.0566 13.7344 L58.0566 14 L54.7441 14 L54.7441 13.7344 Q55.2129 13.7344 55.3926 13.6328 Q55.5723 13.5312 55.666 13.3203 Q55.7598 13.1094 55.7598 12.4844 L55.7598 9.9219 Q55.7598 8.8125 55.6973 8.4844 Q55.6504 8.25 55.541 8.1562 Q55.4316 8.0625 55.2285 8.0625 Q55.0254 8.0625 54.7441 8.1719 L54.6348 7.9062 L56.6504 7.0938 L56.9785 7.0938 L56.9785 8.5156 ZM72.521 7.2969 L72.521 11.3594 Q72.521 12.5156 72.5757 12.7812 Q72.6304 13.0469 72.7554 13.1484 Q72.8804 13.25 73.0366 13.25 Q73.271 13.25 73.5522 13.125 L73.6616 13.375 L71.646 14.2031 L71.3179 14.2031 L71.3179 12.7812 Q70.4585 13.7188 70.0054 13.9609 Q69.5522 14.2031 69.0366 14.2031 Q68.4741 14.2031 68.0601 13.875 Q67.646 13.5469 67.4897 13.0391 Q67.3335 12.5312 67.3335 11.5938 L67.3335 8.5938 Q67.3335 8.125 67.2241 7.9375 Q67.1147 7.75 66.9194 7.6484 Q66.7241 7.5469 66.1929 7.5625 L66.1929 7.2969 L68.5366 7.2969 L68.5366 11.7812 Q68.5366 12.7188 68.8647 13.0078 Q69.1929 13.2969 69.6616 13.2969 Q69.9741 13.2969 70.3726 13.1016 Q70.771 12.9062 71.3179 12.3594 L71.3179 8.5469 Q71.3179 7.9844 71.1069 7.7812 Q70.896 7.5781 70.2397 7.5625 L70.2397 7.2969 L72.521 7.2969 ZM76.4585 3.5781 L76.4585 12.4844 Q76.4585 13.1094 76.5444 13.3203 Q76.6304 13.5312 76.8257 13.6328 Q77.021 13.7344 77.5366 13.7344 L77.5366 14 L74.2554 14 L74.2554 13.7344 Q74.7085 13.7344 74.8804 13.6406 Q75.0522 13.5469 75.146 13.3281 Q75.2397 13.1094 75.2397 12.4844 L75.2397 6.3906 Q75.2397 5.25 75.1851 4.9922 Q75.1304 4.7344 75.021 4.6406 Q74.9116 4.5469 74.7397 4.5469 Q74.5366 4.5469 74.2554 4.6562 L74.1304 4.4062 L76.1304 3.5781 L76.4585 3.5781 ZM82.1104 13.0312 Q81.0791 13.8281 80.8135 13.9531 Q80.4229 14.1406 79.9697 14.1406 Q79.2822 14.1406 78.8291 13.6641 Q78.376 13.1875 78.376 12.4062 Q78.376 11.9219 78.5947 11.5625 Q78.9072 11.0625 79.6494 10.625 Q80.3916 10.1875 82.1104 9.5469 L82.1104 9.2969 Q82.1104 8.2812 81.7979 7.9141 Q81.4854 7.5469 80.876 7.5469 Q80.4072 7.5469 80.1416 7.7812 Q79.8604 8.0312 79.8604 8.3594 L79.876 8.7812 Q79.876 9.125 79.7041 9.3047 Q79.5322 9.4844 79.251 9.4844 Q78.9854 9.4844 78.8135 9.2969 Q78.6416 9.1094 78.6416 8.7812 Q78.6416 8.1406 79.2822 7.6172 Q79.9229 7.0938 81.0947 7.0938 Q81.9854 7.0938 82.5479 7.3906 Q82.9854 7.625 83.1885 8.1094 Q83.3291 8.4219 83.3291 9.3906 L83.3291 11.6719 Q83.3291 12.625 83.3604 12.8438 Q83.3916 13.0625 83.4775 13.1328 Q83.5635 13.2031 83.6729 13.2031 Q83.7979 13.2031 83.876 13.1562 Q84.0322 13.0625 84.4697 12.625 L84.4697 13.0312 Q83.6572 14.125 82.9072 14.125 Q82.5479 14.125 82.3369 13.8828 Q82.126 13.6406 82.1104 13.0312 ZM82.1104 12.5625 L82.1104 10 Q81.0166 10.4375 80.6885 10.625 Q80.1104 10.9531 79.8604 11.3047 Q79.6104 11.6562 79.6104 12.0625 Q79.6104 12.5938 79.9229 12.9453 Q80.2354 13.2969 80.6572 13.2969 Q81.2041 13.2969 82.1104 12.5625 ZM86.9243 5.0938 L86.9243 7.2969 L88.4868 7.2969 L88.4868 7.7969 L86.9243 7.7969 L86.9243 12.1562 Q86.9243 12.8125 87.1118 13.0391 Q87.2993 13.2656 87.5806 13.2656 Q87.8306 13.2656 88.0571 13.1094 Q88.2837 12.9531 88.4087 12.6719 L88.6899 12.6719 Q88.4399 13.3906 87.9712 13.75 Q87.5024 14.1094 87.0024 14.1094 Q86.6587 14.1094 86.3384 13.9219 Q86.0181 13.7344 85.8618 13.3906 Q85.7056 13.0469 85.7056 12.3125 L85.7056 7.7969 L84.6431 7.7969 L84.6431 7.5625 Q85.0493 7.4062 85.4712 7.0156 Q85.8931 6.625 86.2212 6.1094 Q86.3931 5.8281 86.6899 5.0938 L86.9243 5.0938 ZM92.4199 7.0938 Q93.9512 7.0938 94.873 8.25 Q95.6543 9.2344 95.6543 10.5156 Q95.6543 11.4219 95.2168 12.3438 Q94.7793 13.2656 94.0215 13.7344 Q93.2637 14.2031 92.3418 14.2031 Q90.8262 14.2031 89.9355 13 Q89.1699 11.9844 89.1699 10.7188 Q89.1699 9.7812 89.6309 8.875 Q90.0918 7.9688 90.8418 7.5312 Q91.5918 7.0938 92.4199 7.0938 ZM92.1855 7.5625 Q91.8105 7.5625 91.4121 7.7969 Q91.0137 8.0312 90.7793 8.6094 Q90.5449 9.1875 90.5449 10.0938 Q90.5449 11.5625 91.123 12.625 Q91.7012 13.6875 92.6543 13.6875 Q93.3574 13.6875 93.8262 13.1016 Q94.2949 12.5156 94.2949 11.0781 Q94.2949 9.2969 93.5137 8.2656 Q92.998 7.5625 92.1855 7.5625 ZM98.6074 7.0938 L98.6074 8.6094 Q99.4512 7.0938 100.3262 7.0938 Q100.7324 7.0938 100.998 7.3359 Q101.2637 7.5781 101.2637 7.9062 Q101.2637 8.1875 101.0684 8.3906 Q100.873 8.5938 100.623 8.5938 Q100.3574 8.5938 100.0371 8.3359 Q99.7168 8.0781 99.5762 8.0781 Q99.4355 8.0781 99.2793 8.2344 Q98.9512 8.5312 98.6074 9.2188 L98.6074 12.4375 Q98.6074 12.9844 98.748 13.2812 Q98.8418 13.4688 99.084 13.6016 Q99.3262 13.7344 99.7793 13.7344 L99.7793 14 L96.3418 14 L96.3418 13.7344 Q96.8574 13.7344 97.1074 13.5781 Q97.2793 13.4531 97.3574 13.2031 Q97.3887 13.0781 97.3887 12.4844 L97.3887 9.8906 Q97.3887 8.7188 97.3418 8.4922 Q97.2949 8.2656 97.1699 8.1641 Q97.0449 8.0625 96.8574 8.0625 Q96.623 8.0625 96.3418 8.1719 L96.2637 7.9062 L98.2949 7.0938 L98.6074 7.0938 ZM110.1182 13.25 Q109.6338 13.7656 109.165 13.9844 Q108.6963 14.2031 108.1494 14.2031 Q107.0557 14.2031 106.2354 13.2812 Q105.415 12.3594 105.415 10.9219 Q105.415 9.4844 106.3213 8.2812 Q107.2275 7.0781 108.665 7.0781 Q109.54 7.0781 110.1182 7.6562 L110.1182 6.4062 Q110.1182 5.2656 110.0635 5 Q110.0088 4.7344 109.8916 4.6406 Q109.7744 4.5469 109.6025 4.5469 Q109.415 4.5469 109.1025 4.6562 L109.0088 4.4062 L111.0088 3.5781 L111.3369 3.5781 L111.3369 11.3438 Q111.3369 12.5156 111.3916 12.7812 Q111.4463 13.0469 111.5635 13.1484 Q111.6807 13.25 111.8369 13.25 Q112.04 13.25 112.3682 13.125 L112.4463 13.375 L110.4619 14.2031 L110.1182 14.2031 L110.1182 13.25 ZM110.1182 12.7344 L110.1182 9.2812 Q110.0713 8.7812 109.8525 8.3672 Q109.6338 7.9531 109.2744 7.75 Q108.915 7.5469 108.5713 7.5469 Q107.9307 7.5469 107.415 8.125 Q106.7588 8.875 106.7588 10.3438 Q106.7588 11.8281 107.3994 12.6172 Q108.04 13.4062 108.8369 13.4062 Q109.4932 13.4062 110.1182 12.7344 ZM116.6807 13.0312 Q115.6494 13.8281 115.3838 13.9531 Q114.9932 14.1406 114.54 14.1406 Q113.8525 14.1406 113.3994 13.6641 Q112.9463 13.1875 112.9463 12.4062 Q112.9463 11.9219 113.165 11.5625 Q113.4775 11.0625 114.2197 10.625 Q114.9619 10.1875 116.6807 9.5469 L116.6807 9.2969 Q116.6807 8.2812 116.3682 7.9141 Q116.0557 7.5469 115.4463 7.5469 Q114.9775 7.5469 114.7119 7.7812 Q114.4307 8.0312 114.4307 8.3594 L114.4463 8.7812 Q114.4463 9.125 114.2744 9.3047 Q114.1025 9.4844 113.8213 9.4844 Q113.5557 9.4844 113.3838 9.2969 Q113.2119 9.1094 113.2119 8.7812 Q113.2119 8.1406 113.8525 7.6172 Q114.4932 7.0938 115.665 7.0938 Q116.5557 7.0938 117.1182 7.3906 Q117.5557 7.625 117.7588 8.1094 Q117.8994 8.4219 117.8994 9.3906 L117.8994 11.6719 Q117.8994 12.625 117.9307 12.8438 Q117.9619 13.0625 118.0479 13.1328 Q118.1338 13.2031 118.2432 13.2031 Q118.3682 13.2031 118.4463 13.1562 Q118.6025 13.0625 119.04 12.625 L119.04 13.0312 Q118.2275 14.125 117.4775 14.125 Q117.1182 14.125 116.9072 13.8828 Q116.6963 13.6406 116.6807 13.0312 ZM116.6807 12.5625 L116.6807 10 Q115.5869 10.4375 115.2588 10.625 Q114.6807 10.9531 114.4307 11.3047 Q114.1807 11.6562 114.1807 12.0625 Q114.1807 12.5938 114.4932 12.9453 Q114.8057 13.2969 115.2275 13.2969 Q115.7744 13.2969 116.6807 12.5625 ZM121.4946 5.0938 L121.4946 7.2969 L123.0571 7.2969 L123.0571 7.7969 L121.4946 7.7969 L121.4946 12.1562 Q121.4946 12.8125 121.6821 13.0391 Q121.8696 13.2656 122.1509 13.2656 Q122.4009 13.2656 122.6274 13.1094 Q122.854 12.9531 122.979 12.6719 L123.2603 12.6719 Q123.0103 13.3906 122.5415 13.75 Q122.0728 14.1094 121.5728 14.1094 Q121.229 14.1094 120.9087 13.9219 Q120.5884 13.7344 120.4321 13.3906 Q120.2759 13.0469 120.2759 12.3125 L120.2759 7.7969 L119.2134 7.7969 L119.2134 7.5625 Q119.6196 7.4062 120.0415 7.0156 Q120.4634 6.625 120.7915 6.1094 Q120.9634 5.8281 121.2603 5.0938 L121.4946 5.0938 ZM127.5059 13.0312 Q126.4746 13.8281 126.209 13.9531 Q125.8184 14.1406 125.3652 14.1406 Q124.6777 14.1406 124.2246 13.6641 Q123.7715 13.1875 123.7715 12.4062 Q123.7715 11.9219 123.9902 11.5625 Q124.3027 11.0625 125.0449 10.625 Q125.7871 10.1875 127.5059 9.5469 L127.5059 9.2969 Q127.5059 8.2812 127.1934 7.9141 Q126.8809 7.5469 126.2715 7.5469 Q125.8027 7.5469 125.5371 7.7812 Q125.2559 8.0312 125.2559 8.3594 L125.2715 8.7812 Q125.2715 9.125 125.0996 9.3047 Q124.9277 9.4844 124.6465 9.4844 Q124.3809 9.4844 124.209 9.2969 Q124.0371 9.1094 124.0371 8.7812 Q124.0371 8.1406 124.6777 7.6172 Q125.3184 7.0938 126.4902 7.0938 Q127.3809 7.0938 127.9434 7.3906 Q128.3809 7.625 128.584 8.1094 Q128.7246 8.4219 128.7246 9.3906 L128.7246 11.6719 Q128.7246 12.625 128.7559 12.8438 Q128.7871 13.0625 128.873 13.1328 Q128.959 13.2031 129.0684 13.2031 Q129.1934 13.2031 129.2715 13.1562 Q129.4277 13.0625 129.8652 12.625 L129.8652 13.0312 Q129.0527 14.125 128.3027 14.125 Q127.9434 14.125 127.7324 13.8828 Q127.5215 13.6406 127.5059 13.0312 ZM127.5059 12.5625 L127.5059 10 Q126.4121 10.4375 126.084 10.625 Q125.5059 10.9531 125.2559 11.3047 Q125.0059 11.6562 125.0059 12.0625 Q125.0059 12.5938 125.3184 12.9453 Q125.6309 13.2969 126.0527 13.2969 Q126.5996 13.2969 127.5059 12.5625 Z"
                  style="stroke:none; clip-path:url(#clipPath9);"/>
        </g>
        <g style="text-rendering:optimizeLegibility; font-size:13px; font-family:'Times New Roman'; color-interpolation:linearRGB; color-rendering:optimizeQuality; image-rendering:optimizeQuality;">
            <rect x="86" y="286" width="245"
                  style="fill:none; clip-path:url(#clipPath1);" height="20"/>
        </g>
        <g style="stroke-linecap:butt; font-size:13px; fill:rgb(165,165,165); text-rendering:optimizeLegibility; image-rendering:optimizeQuality; color-rendering:optimizeQuality; font-family:'Times New Roman'; stroke-linejoin:round; stroke-dasharray:2,5; stroke:rgb(165,165,165); color-interpolation:linearRGB;"
           transform="translate(5,5)">
            <path d="M115 216.1778 L402.9876 216.1778"
                  style="fill:none; clip-path:url(#clipPath10);"/>
            <path d="M115 171.7733 L402.9876 171.7733"
                  style="fill:none; clip-path:url(#clipPath10);"/>
            <path d="M115 127.3688 L402.9876 127.3688"
                  style="fill:none; clip-path:url(#clipPath10);"/>
            <path d="M115 82.9643 L402.9876 82.9643"
                  style="fill:none; clip-path:url(#clipPath10);"/>
            <path d="M115 38.5598 L402.9876 38.5598"
                  style="fill:none; clip-path:url(#clipPath10);"/>
            <path d="M115 233.9396 L402.9876 233.9396"
                  style="fill:none; clip-path:url(#clipPath10); stroke:rgb(233,233,233);"/>
            <path d="M115 225.0587 L402.9876 225.0587"
                  style="fill:none; clip-path:url(#clipPath10); stroke:rgb(233,233,233);"/>
            <path d="M115 207.2969 L402.9876 207.2969"
                  style="fill:none; clip-path:url(#clipPath10); stroke:rgb(233,233,233);"/>
            <path d="M115 198.416 L402.9876 198.416"
                  style="fill:none; clip-path:url(#clipPath10); stroke:rgb(233,233,233);"/>
            <path d="M115 189.5351 L402.9876 189.5351"
                  style="fill:none; clip-path:url(#clipPath10); stroke:rgb(233,233,233);"/>
            <path d="M115 180.6542 L402.9876 180.6542"
                  style="fill:none; clip-path:url(#clipPath10); stroke:rgb(233,233,233);"/>
            <path d="M115 162.8924 L402.9876 162.8924"
                  style="fill:none; clip-path:url(#clipPath10); stroke:rgb(233,233,233);"/>
            <path d="M115 154.0115 L402.9876 154.0115"
                  style="fill:none; clip-path:url(#clipPath10); stroke:rgb(233,233,233);"/>
            <path d="M115 145.1306 L402.9876 145.1306"
                  style="fill:none; clip-path:url(#clipPath10); stroke:rgb(233,233,233);"/>
            <path d="M115 136.2497 L402.9876 136.2497"
                  style="fill:none; clip-path:url(#clipPath10); stroke:rgb(233,233,233);"/>
            <path d="M115 118.4879 L402.9876 118.4879"
                  style="fill:none; clip-path:url(#clipPath10); stroke:rgb(233,233,233);"/>
            <path d="M115 109.607 L402.9876 109.607"
                  style="fill:none; clip-path:url(#clipPath10); stroke:rgb(233,233,233);"/>
            <path d="M115 100.7261 L402.9876 100.7261"
                  style="fill:none; clip-path:url(#clipPath10); stroke:rgb(233,233,233);"/>
            <path d="M115 91.8452 L402.9876 91.8452"
                  style="fill:none; clip-path:url(#clipPath10); stroke:rgb(233,233,233);"/>
            <path d="M115 74.0834 L402.9876 74.0834"
                  style="fill:none; clip-path:url(#clipPath10); stroke:rgb(233,233,233);"/>
            <path d="M115 65.2025 L402.9876 65.2025"
                  style="fill:none; clip-path:url(#clipPath10); stroke:rgb(233,233,233);"/>
            <path d="M115 56.3216 L402.9876 56.3216"
                  style="fill:none; clip-path:url(#clipPath10); stroke:rgb(233,233,233);"/>
            <path d="M115 47.4407 L402.9876 47.4407"
                  style="fill:none; clip-path:url(#clipPath10); stroke:rgb(233,233,233);"/>
            <path d="M115 29.6788 L402.9876 29.6788"
                  style="fill:none; clip-path:url(#clipPath10); stroke:rgb(233,233,233);"/>
            <path d="M115 20.7979 L402.9876 20.7979"
                  style="fill:none; clip-path:url(#clipPath10); stroke:rgb(233,233,233);"/>
            <path d="M115 11.917 L402.9876 11.917"
                  style="fill:none; clip-path:url(#clipPath10); stroke:rgb(233,233,233);"/>
            <path d="M115 3.0361 L402.9876 3.0361"
                  style="fill:none; clip-path:url(#clipPath10); stroke:rgb(233,233,233);"/>
        </g>
        <g style="stroke-linecap:butt; font-size:13px; fill:rgb(0,116,204); text-rendering:optimizeLegibility; image-rendering:optimizeQuality; color-rendering:optimizeQuality; font-family:'Times New Roman'; stroke-linejoin:round; stroke:rgb(0,116,204); color-interpolation:linearRGB; stroke-width:1.5;"
           transform="translate(5,5)">
            <path d="M117 236 L118.4199 234.077 L119.8399 232.1817 L121.2598 230.3138 L122.6797 228.4728 L124.0997 226.6585 L125.5196 224.8705 L126.9396 223.1085 L128.3595 221.372 L129.7794 219.6608 L131.1994 217.9745 L132.6193 216.3128 L134.0393 214.6754 L135.4592 213.0618 L136.8791 211.4719 L138.2991 209.9052 L139.719 208.3615 L141.1389 206.8405 L142.5589 205.3418 L143.9788 203.8651 L145.3988 202.4102 L146.8187 200.9767 L148.2386 199.5643 L149.6586 198.1729 L151.0785 196.8019 L152.4984 195.4512 L153.9184 194.1206 L155.3383 192.8096 L156.7583 191.5181 L158.1782 190.2457 L159.5981 188.9923 L161.0181 187.7574 L162.438 186.541 L163.858 185.3426 L165.2779 184.1622 L166.6978 182.9993 L168.1178 181.8538 L169.5377 180.7254 L170.9576 179.6138 L172.3776 178.519 L173.7975 177.4404 L175.2175 176.3781 L176.6374 175.3317 L178.0573 174.301 L179.4773 173.2858 L180.8972 172.2858 L182.3171 171.3008 L183.7371 170.3307 L185.157 169.3752 L186.577 168.434 L187.9969 167.5071 L189.4168 166.5941 L190.8368 165.6949 L192.2567 164.8093 L193.6767 163.9371 L195.0966 162.8607 L196.5165 160.2234 L197.9365 157.6226 L199.3564 155.058 L200.7763 152.5291 L202.1963 150.0353 L203.6162 147.5765 L205.0361 145.152 L206.4561 142.7615 L207.876 140.4045 L209.296 138.0807 L210.7159 135.7895 L212.1358 133.5307 L213.5558 131.3037 L214.9757 129.1083 L216.3957 126.944 L217.8156 124.8103 L219.2355 122.707 L220.6555 120.6335 L222.0754 118.5897 L223.4953 116.575 L224.9153 114.5891 L226.3352 112.6316 L227.7552 110.7021 L229.1751 108.8003 L230.595 106.9259 L232.015 105.0784 L233.4349 103.2574 L234.8548 101.4628 L236.2748 99.6941 L237.6947 97.9509 L239.1147 96.2329 L240.5346 94.5398 L241.9545 92.8712 L243.3745 91.2269 L244.7944 89.6065 L246.2144 88.0096 L247.6343 86.4359 L249.0542 84.8853 L250.4742 83.3572 L251.8941 81.8515 L253.314 80.3678 L254.734 78.9058 L256.1539 77.4652 L257.5739 76.0458 L258.9938 74.6472 L260.4137 73.2692 L261.8337 71.9114 L263.2536 70.5736 L264.6735 69.2556 L266.0935 67.957 L267.5134 66.6775 L268.9333 65.417 L270.3533 64.1751 L271.7733 62.9515 L273.1932 61.7461 L274.6131 60.5585 L276.0331 59.3885 L277.453 58.2359 L278.8729 57.1004 L280.2928 55.9818 L281.7128 54.8798 L283.1327 53.7943 L284.5527 52.7249 L285.9726 51.6714 L287.3925 50.6337 L288.8125 49.6115 L290.2324 48.6045 L291.6523 47.6126 L293.0723 46.6355 L294.4922 45.6731 L295.9122 44.7251 L297.3321 43.7913 L298.752 42.8715 L300.172 41.9655 L301.5919 41.0731 L303.0118 40.1941 L304.4318 39.3283 L305.8517 38.4756 L307.2717 37.6356 L308.6916 36.8083 L310.1116 35.9935 L311.5315 35.1909 L312.9514 34.4004 L314.3714 33.6219 L315.7913 32.8551 L317.2112 32.0999 L318.6312 31.3561 L320.0511 30.6235 L321.4711 29.9021 L322.891 29.1915 L324.3109 28.4917 L325.7309 27.8026 L327.1508 27.1238 L328.5707 26.4554 L329.9907 25.7971 L331.4106 25.1488 L332.8306 24.5103 L334.2505 23.8815 L335.6704 23.2623 L337.0904 22.6525 L338.5103 22.052 L339.9302 21.4606 L341.3502 20.8782 L342.7701 20.3046 L344.1901 19.7398 L345.61 19.1835 L347.0299 18.6358 L348.4499 18.0964 L349.8698 17.5652 L351.2897 17.0421 L352.7097 16.527 L354.1296 16.0197 L355.5496 15.5202 L356.9695 15.0284 L358.3895 14.544 L359.8094 14.0671 L361.2293 13.5974 L362.6493 13.135 L364.0692 12.6796 L365.4891 12.2312 L366.9091 11.7897 L368.329 11.3549 L369.749 10.9268 L371.1689 10.5052 L372.5888 10.0901 L374.0088 9.6814 L375.4287 9.2789 L376.8486 8.8826 L378.2686 8.4924 L379.6885 8.1081 L381.1085 7.7298 L382.5284 7.3572 L383.9483 6.9904 L385.3683 6.6292 L386.7882 6.2735 L388.2081 5.9233 L389.6281 5.5785 L391.048 5.239 L392.468 4.9047 L393.8879 4.5755 L395.3078 4.2515 L396.7278 3.9324 L398.1477 3.6182 L399.5677 3.3088 L400.9876 3.0043"
                  style="fill:none; clip-path:url(#clipPath11);"/>
        </g>
        <g style="stroke-linecap:butt; font-size:13px; fill:rgb(204,0,116); text-rendering:optimizeLegibility; image-rendering:optimizeQuality; color-rendering:optimizeQuality; font-family:'Times New Roman'; stroke-linejoin:round; stroke:rgb(204,0,116); color-interpolation:linearRGB; stroke-width:1.5;"
           transform="translate(5,5)">
            <path d="M117 236 L118.4199 234.2238 L119.8399 232.5915 L121.2598 231.0338 L122.6797 229.6271 L124.0997 228.096 L125.5196 226.4157 L126.9396 225.009 L128.3595 223.4779 L129.7794 221.8936 L131.1994 220.4247 L132.6193 218.9629 L134.0393 217.6378 L135.4592 216.3466 L136.8791 214.9665 L138.2991 213.5455 L139.719 212.2684 L141.1389 210.9221 L142.5589 209.6521 L143.9788 208.5385 L145.3988 207.288 L146.8187 206.0518 L148.2386 204.8493 L149.6586 203.7019 L151.0785 202.6362 L152.4984 201.6185 L153.9184 200.5936 L155.3383 199.5279 L156.7583 198.4622 L158.1782 197.4444 L159.5981 196.4675 L161.0181 195.5866 L162.438 194.6434 L163.858 193.6257 L165.2779 192.6488 L166.6978 191.6239 L168.1178 190.6541 L169.5377 189.9099 L170.9576 188.9525 L172.3776 187.8531 L173.7975 187.116 L175.2175 186.2474 L176.6374 185.2368 L178.0573 184.4446 L179.4773 183.7341 L180.8972 182.8798 L182.3171 182.0467 L183.7371 181.2883 L185.157 180.489 L186.577 179.7377 L187.9969 179.1231 L189.4168 178.3505 L190.8368 177.6134 L192.2567 176.8887 L193.6767 176.0486 L195.0966 175.1054 L196.5165 173.7999 L197.9365 172.3861 L199.3564 171.054 L200.7763 169.5779 L202.1963 168.459 L203.6162 167.0771 L205.0361 165.5549 L206.4561 164.4004 L207.876 163.102 L209.296 161.5851 L210.7159 160.1784 L212.1358 158.6953 L213.5558 157.1518 L214.9757 155.6349 L216.3957 154.1323 L217.8156 152.6154 L219.2355 150.921 L220.6555 149.4805 L222.0754 148.0382 L223.4953 146.3508 L224.9153 144.9512 L226.3352 143.6049 L227.7552 142.0471 L229.1751 140.5925 L230.595 139.3083 L232.015 137.9211 L233.4349 136.6031 L234.8548 135.3048 L236.2748 133.9318 L237.6947 132.6476 L239.1147 131.3084 L240.5346 129.9833 L241.9545 128.74 L243.3745 127.5446 L244.7944 126.3901 L246.2144 125.1876 L247.6343 123.8964 L249.0542 122.7561 L250.4742 121.5873 L251.8941 120.3511 L253.314 119.2925 L254.734 118.1238 L256.1539 117.0314 L257.5739 115.9515 L258.9938 114.9 L260.4137 113.868 L261.8337 112.7135 L263.2536 111.6549 L264.6735 110.726 L266.0935 109.694 L267.5134 108.5875 L268.9333 107.6656 L270.3533 106.6745 L271.7733 105.5679 L273.1932 104.5982 L274.6131 103.6142 L276.0331 102.7882 L277.453 101.8309 L278.8729 100.7794 L280.2928 99.8433 L281.7128 98.9144 L283.1327 98.0742 L284.5527 97.227 L285.9726 96.243 L287.3925 95.3212 L288.8125 94.5698 L290.2324 93.6675 L291.6523 92.7457 L293.0723 91.9944 L294.4922 91.188 L295.9122 90.3958 L297.3321 89.7812 L298.752 89.0566 L300.172 88.0726 L301.5919 87.1987 L303.0118 86.4882 L304.4318 85.7777 L305.8517 85.1152 L307.2717 84.3017 L308.6916 83.5167 L310.1116 82.9909 L311.5315 82.1632 L312.9514 81.3444 L314.3714 80.7636 L315.7913 80.046 L317.2112 79.3427 L318.6312 78.6251 L320.0511 77.9217 L321.4711 77.3 L322.891 76.6784 L324.3109 76.0088 L325.7309 75.3942 L327.1508 74.7175 L328.5707 73.9662 L329.9907 73.3516 L331.4106 72.8667 L332.8306 72.2788 L334.2505 71.6642 L335.6704 71.0834 L337.0904 70.4617 L338.5103 69.888 L339.9302 69.3072 L341.3502 68.7335 L342.7701 68.2007 L344.1901 67.6199 L345.61 67.0941 L347.0299 66.5541 L348.4499 65.9325 L349.8698 65.3588 L351.2897 64.778 L352.7097 64.2522 L354.1296 63.7602 L355.5496 63.1794 L356.9695 62.6537 L358.3895 62.1617 L359.8094 61.6768 L361.2293 61.2327 L362.6493 60.7407 L364.0692 60.2558 L365.4891 59.8118 L366.9091 59.3198 L368.329 58.8349 L369.749 58.3908 L371.1689 57.9468 L372.5888 57.5507 L374.0088 57.1475 L375.4287 56.7034 L376.8486 56.2114 L378.2686 55.7745 L379.6885 55.4193 L381.1085 55.0161 L382.5284 54.62 L383.9483 54.2647 L385.3683 53.9095 L386.7882 53.5063 L388.2081 53.0623 L389.6281 52.6662 L391.048 52.4069 L392.468 52.0374 L393.8879 51.5525 L395.3078 51.2044 L396.7278 50.89 L398.1477 50.4868 L399.5677 50.1387 L400.9876 49.7284"
                  style="fill:none; clip-path:url(#clipPath11);"/>
        </g>
        <g transform="translate(5,5)"
           style="stroke-linecap:butt; font-size:13px; text-rendering:optimizeLegibility; image-rendering:optimizeQuality; color-rendering:optimizeQuality; font-family:'Times New Roman'; stroke-linejoin:round; color-interpolation:linearRGB;">
            <path d="M115 238 L402.9876 238"
                  style="fill:none; clip-path:url(#clipPath10);"/>
            <path d="M115 1.0043 L402.9876 1.0043"
                  style="fill:none; clip-path:url(#clipPath10);"/>
        </g>
        <g transform="translate(5,5)"
           style="stroke-linecap:butt; font-size:13px; text-rendering:optimizeLegibility; image-rendering:optimizeQuality; color-rendering:optimizeQuality; font-family:'Times New Roman'; stroke-linejoin:round; color-interpolation:linearRGB;">
            <path d="M250.1562 263.9844 L249.5469 266.1094 L250.7812 266.1094 L250.6406 266.6094 L249.4219 266.6094 L248.0781 271.2188 Q247.8594 271.9531 247.8594 272.1719 Q247.8594 272.3125 247.9219 272.3828 Q247.9844 272.4531 248.0781 272.4531 Q248.2656 272.4531 248.5938 272.1719 Q248.7812 272.0156 249.4219 271.2188 L249.6875 271.4062 Q248.9688 272.4531 248.3281 272.8906 Q247.8906 273.1875 247.4375 273.1875 Q247.0938 273.1875 246.875 272.9688 Q246.6562 272.75 246.6562 272.4219 Q246.6562 272 246.9062 271.125 L248.2188 266.6094 L247.0312 266.6094 L247.1094 266.2969 Q247.9688 266.0625 248.5391 265.6016 Q249.1094 265.1406 249.8125 263.9844 L250.1562 263.9844 Z"
                  style="stroke:none; clip-path:url(#clipPath12);"/>
            <path d="M259.75 276.1719 L256.3125 276.1719 L256.3125 262.1562 L259.75 262.1562 L259.75 262.7812 L257.4844 262.7812 L257.4844 275.5625 L259.75 275.5625 L259.75 276.1719 ZM265.4531 265.625 L265.4531 268.0625 L265.2031 268.0625 Q264.9062 266.9219 264.4375 266.5078 Q263.9688 266.0938 263.25 266.0938 Q262.7031 266.0938 262.3672 266.3828 Q262.0312 266.6719 262.0312 267.0156 Q262.0312 267.4531 262.2812 267.7656 Q262.5312 268.0938 263.2656 268.4531 L264.4062 269 Q266 269.7812 266 271.0469 Q266 272.0156 265.2578 272.6172 Q264.5156 273.2188 263.6094 273.2188 Q262.9531 273.2188 262.1094 272.9844 Q261.8438 272.9062 261.6875 272.9062 Q261.5 272.9062 261.4062 273.1094 L261.1406 273.1094 L261.1406 270.5469 L261.4062 270.5469 Q261.625 271.6406 262.2422 272.1953 Q262.8594 272.75 263.625 272.75 Q264.1562 272.75 264.5 272.4375 Q264.8438 272.125 264.8438 271.6719 Q264.8438 271.1406 264.4609 270.7734 Q264.0781 270.4062 262.9453 269.8438 Q261.8125 269.2812 261.4688 268.8281 Q261.1094 268.375 261.1094 267.7031 Q261.1094 266.8125 261.7188 266.2188 Q262.3281 265.625 263.2812 265.625 Q263.7031 265.625 264.3125 265.8125 Q264.7031 265.9219 264.8438 265.9219 Q264.9688 265.9219 265.0391 265.8672 Q265.1094 265.8125 265.2031 265.625 L265.4531 265.625 ZM267.1484 262.1562 L270.5859 262.1562 L270.5859 276.1875 L267.1484 276.1875 L267.1484 275.5625 L269.4141 275.5625 L269.4141 262.7812 L267.1484 262.7812 L267.1484 262.1562 Z"
                  style="clip-path:url(#clipPath12); stroke:none;"/>
        </g>
        <g transform="translate(5,5)"
           style="font-size:13px; text-rendering:optimizeLegibility; color-rendering:optimizeQuality; image-rendering:optimizeQuality; font-family:'Times New Roman'; color-interpolation:linearRGB;">
            <path d="M117 238 L117 241.675"
                  style="fill:none; clip-path:url(#clipPath10);"/>
            <path d="M118.5781 255.7656 Q118.5781 253.9531 119.125 252.6406 Q119.6719 251.3281 120.5781 250.6875 Q121.2812 250.1875 122.0312 250.1875 Q123.25 250.1875 124.2188 251.4219 Q125.4375 252.9688 125.4375 255.5938 Q125.4375 257.4375 124.9062 258.7266 Q124.375 260.0156 123.5469 260.6016 Q122.7188 261.1875 121.9531 261.1875 Q120.4375 261.1875 119.4375 259.3906 Q118.5781 257.8906 118.5781 255.7656 ZM120.1094 255.9531 Q120.1094 258.1406 120.6562 259.5312 Q121.0938 260.6875 121.9844 260.6875 Q122.4062 260.6875 122.8594 260.3125 Q123.3125 259.9375 123.5469 259.0469 Q123.9062 257.7031 123.9062 255.25 Q123.9062 253.4375 123.5312 252.2344 Q123.25 251.3281 122.7969 250.9531 Q122.4844 250.7031 122.0312 250.7031 Q121.5 250.7031 121.0781 251.1719 Q120.5156 251.8281 120.3125 253.2188 Q120.1094 254.6094 120.1094 255.9531 Z"
                  style="clip-path:url(#clipPath13); stroke:none;"
                  transform="translate(-5,-5)"/>
        </g>
        <g transform="translate(5,5)"
           style="font-size:13px; text-rendering:optimizeLegibility; color-rendering:optimizeQuality; image-rendering:optimizeQuality; font-family:'Times New Roman'; color-interpolation:linearRGB;">
            <path d="M173.7975 238 L173.7975 241.675"
                  style="fill:none; clip-path:url(#clipPath10);"/>
            <path d="M181.3438 258.9531 L180.5938 261 L174.3438 261 L174.3438 260.7031 Q177.1094 258.1875 178.2344 256.5938 Q179.3594 255 179.3594 253.6875 Q179.3594 252.6719 178.7422 252.0234 Q178.125 251.375 177.2656 251.375 Q176.4844 251.375 175.8594 251.8359 Q175.2344 252.2969 174.9375 253.1719 L174.6562 253.1719 Q174.8438 251.7344 175.6562 250.9609 Q176.4688 250.1875 177.6719 250.1875 Q178.9688 250.1875 179.8281 251.0156 Q180.6875 251.8438 180.6875 252.9688 Q180.6875 253.7656 180.3125 254.5781 Q179.7344 255.8438 178.4375 257.25 Q176.5 259.375 176.0156 259.8125 L178.7812 259.8125 Q179.625 259.8125 179.9609 259.75 Q180.2969 259.6875 180.5703 259.5 Q180.8438 259.3125 181.0469 258.9531 L181.3438 258.9531 Z"
                  style="clip-path:url(#clipPath13); stroke:none;"
                  transform="translate(-5,-5)"/>
        </g>
        <g transform="translate(5,5)"
           style="font-size:13px; text-rendering:optimizeLegibility; color-rendering:optimizeQuality; image-rendering:optimizeQuality; font-family:'Times New Roman'; color-interpolation:linearRGB;">
            <path d="M230.595 238 L230.595 241.675"
                  style="fill:none; clip-path:url(#clipPath10);"/>
            <path d="M238.4531 257.0938 L238.4531 258.2031 L237.0312 258.2031 L237.0312 261 L235.7344 261 L235.7344 258.2031 L231.25 258.2031 L231.25 257.2031 L236.1719 250.1875 L237.0312 250.1875 L237.0312 257.0938 L238.4531 257.0938 ZM235.7344 257.0938 L235.7344 251.8281 L232.0156 257.0938 L235.7344 257.0938 Z"
                  style="clip-path:url(#clipPath13); stroke:none;"
                  transform="translate(-5,-5)"/>
        </g>
        <g transform="translate(5,5)"
           style="font-size:13px; text-rendering:optimizeLegibility; color-rendering:optimizeQuality; image-rendering:optimizeQuality; font-family:'Times New Roman'; color-interpolation:linearRGB;">
            <path d="M287.3925 238 L287.3925 241.675"
                  style="fill:none; clip-path:url(#clipPath10);"/>
            <path d="M295.1719 250.1875 L295.1719 250.4688 Q294.1406 250.5781 293.4922 250.8828 Q292.8438 251.1875 292.2031 251.8203 Q291.5625 252.4531 291.1484 253.2344 Q290.7344 254.0156 290.4531 255.0781 Q291.5781 254.3125 292.7031 254.3125 Q293.7969 254.3125 294.5938 255.1875 Q295.3906 256.0625 295.3906 257.4375 Q295.3906 258.7656 294.5781 259.8594 Q293.6094 261.1875 292.0156 261.1875 Q290.9375 261.1875 290.1719 260.4688 Q288.6875 259.0625 288.6875 256.8438 Q288.6875 255.4219 289.2578 254.1406 Q289.8281 252.8594 290.8906 251.8672 Q291.9531 250.875 292.9219 250.5312 Q293.8906 250.1875 294.7188 250.1875 L295.1719 250.1875 ZM290.3125 255.6562 Q290.1719 256.7031 290.1719 257.3594 Q290.1719 258.1094 290.4531 258.9844 Q290.7344 259.8594 291.2812 260.375 Q291.6719 260.75 292.25 260.75 Q292.9219 260.75 293.4609 260.1094 Q294 259.4688 294 258.2812 Q294 256.9375 293.4688 255.9609 Q292.9375 254.9844 291.9531 254.9844 Q291.6562 254.9844 291.3203 255.1094 Q290.9844 255.2344 290.3125 255.6562 Z"
                  style="clip-path:url(#clipPath13); stroke:none;"
                  transform="translate(-5,-5)"/>
        </g>
        <g transform="translate(5,5)"
           style="font-size:13px; text-rendering:optimizeLegibility; color-rendering:optimizeQuality; image-rendering:optimizeQuality; font-family:'Times New Roman'; color-interpolation:linearRGB;">
            <path d="M344.1901 238 L344.1901 241.675"
                  style="fill:none; clip-path:url(#clipPath10);"/>
            <path d="M348.0781 255.6562 Q346.8125 254.625 346.4531 254 Q346.0938 253.375 346.0938 252.7031 Q346.0938 251.6719 346.8906 250.9297 Q347.6875 250.1875 349 250.1875 Q350.2812 250.1875 351.0625 250.8828 Q351.8438 251.5781 351.8438 252.4688 Q351.8438 253.0625 351.4219 253.6797 Q351 254.2969 349.6719 255.125 Q351.0469 256.1875 351.4844 256.7969 Q352.0781 257.5938 352.0781 258.4844 Q352.0781 259.5938 351.2266 260.3906 Q350.375 261.1875 349 261.1875 Q347.4844 261.1875 346.6406 260.2344 Q345.9688 259.4844 345.9688 258.5781 Q345.9688 257.875 346.4453 257.1875 Q346.9219 256.5 348.0781 255.6562 ZM349.2969 254.8281 Q350.2344 253.9844 350.4844 253.4922 Q350.7344 253 350.7344 252.3906 Q350.7344 251.5625 350.2734 251.1016 Q349.8125 250.6406 349.0156 250.6406 Q348.2188 250.6406 347.7188 251.1016 Q347.2188 251.5625 347.2188 252.1719 Q347.2188 252.5781 347.4297 252.9844 Q347.6406 253.3906 348.0156 253.7656 L349.2969 254.8281 ZM348.4375 255.9531 Q347.7969 256.5 347.4844 257.1484 Q347.1719 257.7969 347.1719 258.5469 Q347.1719 259.5469 347.7188 260.1562 Q348.2656 260.7656 349.125 260.7656 Q349.9688 260.7656 350.4766 260.2891 Q350.9844 259.8125 350.9844 259.125 Q350.9844 258.5625 350.6875 258.125 Q350.125 257.2969 348.4375 255.9531 Z"
                  style="clip-path:url(#clipPath13); stroke:none;"
                  transform="translate(-5,-5)"/>
        </g>
        <g transform="translate(5,5)"
           style="font-size:13px; text-rendering:optimizeLegibility; color-rendering:optimizeQuality; image-rendering:optimizeQuality; font-family:'Times New Roman'; color-interpolation:linearRGB;">
            <path d="M400.9876 238 L400.9876 241.675"
                  style="fill:none; clip-path:url(#clipPath10);"/>
            <path d="M398.875 251.4375 L401.4531 250.1875 L401.7188 250.1875 L401.7188 259.125 Q401.7188 260.0156 401.7891 260.2344 Q401.8594 260.4531 402.0938 260.5703 Q402.3281 260.6875 403.0469 260.7031 L403.0469 261 L399.0625 261 L399.0625 260.7031 Q399.8125 260.6875 400.0312 260.5781 Q400.25 260.4688 400.3359 260.2734 Q400.4219 260.0781 400.4219 259.125 L400.4219 253.4062 Q400.4219 252.25 400.3438 251.9219 Q400.2969 251.6719 400.1484 251.5547 Q400 251.4375 399.7969 251.4375 Q399.5156 251.4375 399 251.6875 L398.875 251.4375 ZM405.5781 255.7656 Q405.5781 253.9531 406.125 252.6406 Q406.6719 251.3281 407.5781 250.6875 Q408.2812 250.1875 409.0312 250.1875 Q410.25 250.1875 411.2188 251.4219 Q412.4375 252.9688 412.4375 255.5938 Q412.4375 257.4375 411.9062 258.7266 Q411.375 260.0156 410.5469 260.6016 Q409.7188 261.1875 408.9531 261.1875 Q407.4375 261.1875 406.4375 259.3906 Q405.5781 257.8906 405.5781 255.7656 ZM407.1094 255.9531 Q407.1094 258.1406 407.6562 259.5312 Q408.0938 260.6875 408.9844 260.6875 Q409.4062 260.6875 409.8594 260.3125 Q410.3125 259.9375 410.5469 259.0469 Q410.9062 257.7031 410.9062 255.25 Q410.9062 253.4375 410.5312 252.2344 Q410.25 251.3281 409.7969 250.9531 Q409.4844 250.7031 409.0312 250.7031 Q408.5 250.7031 408.0781 251.1719 Q407.5156 251.8281 407.3125 253.2188 Q407.1094 254.6094 407.1094 255.9531 Z"
                  style="clip-path:url(#clipPath13); stroke:none;"
                  transform="translate(-5,-5)"/>
        </g>
        <g transform="translate(5,5)"
           style="font-size:13px; text-rendering:optimizeLegibility; color-rendering:optimizeQuality; image-rendering:optimizeQuality; font-family:'Times New Roman'; color-interpolation:linearRGB;">
            <path d="M145.3988 238 L145.3988 239.8375"
                  style="fill:none; clip-path:url(#clipPath10);"/>
        </g>
        <g transform="translate(5,5)"
           style="font-size:13px; text-rendering:optimizeLegibility; color-rendering:optimizeQuality; image-rendering:optimizeQuality; font-family:'Times New Roman'; color-interpolation:linearRGB;">
            <path d="M202.1963 238 L202.1963 239.8375"
                  style="fill:none; clip-path:url(#clipPath10);"/>
        </g>
        <g transform="translate(5,5)"
           style="font-size:13px; text-rendering:optimizeLegibility; color-rendering:optimizeQuality; image-rendering:optimizeQuality; font-family:'Times New Roman'; color-interpolation:linearRGB;">
            <path d="M258.9938 238 L258.9938 239.8375"
                  style="fill:none; clip-path:url(#clipPath10);"/>
        </g>
        <g transform="translate(5,5)"
           style="font-size:13px; text-rendering:optimizeLegibility; color-rendering:optimizeQuality; image-rendering:optimizeQuality; font-family:'Times New Roman'; color-interpolation:linearRGB;">
            <path d="M315.7913 238 L315.7913 239.8375"
                  style="fill:none; clip-path:url(#clipPath10);"/>
        </g>
        <g transform="translate(5,5)"
           style="font-size:13px; text-rendering:optimizeLegibility; color-rendering:optimizeQuality; image-rendering:optimizeQuality; font-family:'Times New Roman'; color-interpolation:linearRGB;">
            <path d="M372.5888 238 L372.5888 239.8375"
                  style="fill:none; clip-path:url(#clipPath10);"/>
        </g>
        <g transform="translate(5,5)"
           style="stroke-linecap:butt; font-size:13px; text-rendering:optimizeLegibility; image-rendering:optimizeQuality; color-rendering:optimizeQuality; font-family:'Times New Roman'; stroke-linejoin:round; color-interpolation:linearRGB;">
            <path d="M115 238 L115 1.0043"
                  style="fill:none; clip-path:url(#clipPath10);"/>
            <path d="M402.9876 238 L402.9876 1.0043"
                  style="fill:none; clip-path:url(#clipPath10);"/>
        </g>
        <g transform="translate(5,5)"
           style="stroke-linecap:butt; font-size:13px; text-rendering:optimizeLegibility; image-rendering:optimizeQuality; color-rendering:optimizeQuality; font-family:'Times New Roman'; stroke-linejoin:round; color-interpolation:linearRGB;">
            <path d="M6.3438 118.4062 L8.6094 117.9219 Q8.8438 118.5 9 119.1094 Q9.2031 119.9844 9.3438 121.2031 Q9.4062 121.8125 9.5156 123.7812 Q10.4844 122.7031 10.6719 122.4375 Q11.7031 121.0469 11.8594 120.7969 Q12.125 120.3906 12.2188 120.0781 Q12.3125 119.8438 12.3125 119.625 Q12.3125 119.4219 11.9453 119.1562 Q11.5781 118.8906 11.5781 118.5625 Q11.5781 118.3125 11.7812 118.1172 Q11.9844 117.9219 12.25 117.9219 Q12.5781 117.9219 12.8281 118.1953 Q13.0781 118.4688 13.0781 118.8594 Q13.0781 119.2656 12.9531 119.625 Q12.75 120.2188 12.1953 121.0781 Q11.6406 121.9375 10.4062 123.375 Q10.25 123.5469 8.6719 125.1875 L8.3906 125.1875 Q8.2031 120.2344 7.6094 119.0156 Q7.4062 118.6094 6.9531 118.6094 Q6.7656 118.6094 6.4062 118.6875 L6.3438 118.4062 Z"
                  style="stroke:none; clip-path:url(#clipPath14);"/>
            <path d="M24.1562 115.9844 L23.5469 118.1094 L24.7812 118.1094 L24.6406 118.6094 L23.4219 118.6094 L22.0781 123.2188 Q21.8594 123.9531 21.8594 124.1719 Q21.8594 124.3125 21.9219 124.3828 Q21.9844 124.4531 22.0781 124.4531 Q22.2656 124.4531 22.5938 124.1719 Q22.7812 124.0156 23.4219 123.2188 L23.6875 123.4062 Q22.9688 124.4531 22.3281 124.8906 Q21.8906 125.1875 21.4375 125.1875 Q21.0938 125.1875 20.875 124.9688 Q20.6562 124.75 20.6562 124.4219 Q20.6562 124 20.9062 123.125 L22.2188 118.6094 L21.0312 118.6094 L21.1094 118.2969 Q21.9688 118.0625 22.5391 117.6016 Q23.1094 117.1406 23.8125 115.9844 L24.1562 115.9844 Z"
                  style="clip-path:url(#clipPath14); stroke:none;"/>
            <path d="M3.1007 13.643 L2.8752 14 Q0 12.2148 0 6.86 L0 7 L0 7.14 Q0 1.7664 2.8752 0 L3.1007 0.3383 Q1.8228 1.4282 1.3906 3.4013 Q1.1275 4.6228 1.1275 6.86 L1.1275 7 L1.1275 7.14 Q1.1275 9.3584 1.3906 10.5799 Q1.8228 12.553 3.1007 13.643 Z"
                  style="clip-path:url(#clipPath15); stroke:none;"
                  transform="translate(15,114)"/>
            <path d="M0 0.357 L0.2255 0 Q3.1007 1.7852 3.1007 7.14 L3.1007 7 L3.1007 6.86 Q3.1007 12.2336 0.2255 14 L0 13.6617 Q1.2779 12.5718 1.7101 10.5987 Q1.9732 9.3772 1.9732 7.14 L1.9732 7 L1.9732 6.86 Q1.9732 4.6416 1.7101 3.4201 Q1.2779 1.447 0 0.357 Z"
                  style="clip-path:url(#clipPath16); stroke:none;"
                  transform="translate(26,114)"/>
            <path d="M40.75 128.1719 L37.3125 128.1719 L37.3125 114.1562 L40.75 114.1562 L40.75 114.7812 L38.4844 114.7812 L38.4844 127.5625 L40.75 127.5625 L40.75 128.1719 ZM43.9531 113.8906 L43.9531 121 L45.7656 119.3438 Q46.3438 118.8125 46.4375 118.6719 Q46.5 118.5781 46.5 118.4844 Q46.5 118.3281 46.375 118.2188 Q46.25 118.1094 45.9531 118.0938 L45.9531 117.8438 L49.0625 117.8438 L49.0625 118.0938 Q48.4219 118.1094 47.9922 118.2891 Q47.5625 118.4688 47.0625 118.9219 L45.2188 120.625 L47.0625 122.9375 Q47.8281 123.9062 48.0938 124.1562 Q48.4688 124.5312 48.75 124.6406 Q48.9375 124.7188 49.4219 124.7188 L49.4219 125 L45.9531 125 L45.9531 124.7188 Q46.25 124.7031 46.3516 124.625 Q46.4531 124.5469 46.4531 124.3906 Q46.4531 124.2188 46.1406 123.8125 L43.9531 121.0156 L43.9531 123.3906 Q43.9531 124.0781 44.0469 124.2969 Q44.1406 124.5156 44.3203 124.6094 Q44.5 124.7031 45.1094 124.7188 L45.1094 125 L41.4688 125 L41.4688 124.7188 Q42.0156 124.7188 42.2812 124.5781 Q42.4531 124.5 42.5312 124.3125 Q42.6562 124.0625 42.6562 123.4219 L42.6562 116.9062 Q42.6562 115.6719 42.6016 115.3906 Q42.5469 115.1094 42.4219 115.0078 Q42.2969 114.9062 42.0938 114.9062 Q41.9219 114.9062 41.5938 115.0312 L41.4688 114.7656 L43.5938 113.8906 L43.9531 113.8906 ZM51.9531 119.1562 Q52.7344 118.375 52.875 118.25 Q53.2344 117.9531 53.6406 117.7891 Q54.0469 117.625 54.4375 117.625 Q55.1094 117.625 55.5938 118.0156 Q56.0781 118.4062 56.25 119.1562 Q57.0469 118.2188 57.6016 117.9219 Q58.1562 117.625 58.75 117.625 Q59.3125 117.625 59.7578 117.9219 Q60.2031 118.2188 60.4531 118.875 Q60.625 119.3281 60.625 120.2969 L60.625 123.375 Q60.625 124.0469 60.7344 124.2969 Q60.8125 124.4688 61.0234 124.5938 Q61.2344 124.7188 61.7031 124.7188 L61.7031 125 L58.1719 125 L58.1719 124.7188 L58.3281 124.7188 Q58.7812 124.7188 59.0469 124.5312 Q59.2188 124.4062 59.2969 124.1406 Q59.3281 124 59.3281 123.375 L59.3281 120.2969 Q59.3281 119.4219 59.125 119.0625 Q58.8125 118.5625 58.1406 118.5625 Q57.7344 118.5625 57.3125 118.7734 Q56.8906 118.9844 56.2969 119.5469 L56.2812 119.625 L56.2969 119.9688 L56.2969 123.375 Q56.2969 124.1094 56.3828 124.2891 Q56.4688 124.4688 56.6953 124.5938 Q56.9219 124.7188 57.4688 124.7188 L57.4688 125 L53.8438 125 L53.8438 124.7188 Q54.4375 124.7188 54.6641 124.5781 Q54.8906 124.4375 54.9688 124.1562 Q55.0156 124.0156 55.0156 123.375 L55.0156 120.2969 Q55.0156 119.4219 54.75 119.0469 Q54.4062 118.5469 53.7969 118.5469 Q53.375 118.5469 52.9531 118.7656 Q52.3125 119.1094 51.9531 119.5469 L51.9531 123.375 Q51.9531 124.0781 52.0547 124.2891 Q52.1562 124.5 52.3438 124.6094 Q52.5312 124.7188 53.125 124.7188 L53.125 125 L49.5781 125 L49.5781 124.7188 Q50.0781 124.7188 50.2734 124.6094 Q50.4688 124.5 50.5703 124.2734 Q50.6719 124.0469 50.6719 123.375 L50.6719 120.6406 Q50.6719 119.4688 50.5938 119.125 Q50.5469 118.8594 50.4297 118.7656 Q50.3125 118.6719 50.1094 118.6719 Q49.8906 118.6719 49.5781 118.7812 L49.4688 118.5 L51.625 117.625 L51.9531 117.625 L51.9531 119.1562 ZM66.2578 113.8906 L62.4297 125.2188 L61.8047 125.2188 L65.6328 113.8906 L66.2578 113.8906 ZM68.8281 113.8906 L68.8281 119.125 Q69.6875 118.1719 70.1953 117.8984 Q70.7031 117.625 71.2188 117.625 Q71.8281 117.625 72.2656 117.9609 Q72.7031 118.2969 72.9062 119.0156 Q73.0625 119.5156 73.0625 120.8438 L73.0625 123.375 Q73.0625 124.0625 73.1719 124.3125 Q73.25 124.5 73.4375 124.6094 Q73.625 124.7188 74.125 124.7188 L74.125 125 L70.6094 125 L70.6094 124.7188 L70.7656 124.7188 Q71.2656 124.7188 71.4609 124.5625 Q71.6562 124.4062 71.7344 124.1094 Q71.7656 123.9844 71.7656 123.375 L71.7656 120.8438 Q71.7656 119.6719 71.6406 119.3047 Q71.5156 118.9375 71.25 118.7578 Q70.9844 118.5781 70.6094 118.5781 Q70.2344 118.5781 69.8203 118.7812 Q69.4062 118.9844 68.8281 119.5938 L68.8281 123.375 Q68.8281 124.1094 68.9062 124.2891 Q68.9844 124.4688 69.2109 124.5938 Q69.4375 124.7188 69.9844 124.7188 L69.9844 125 L66.4375 125 L66.4375 124.7188 Q66.9062 124.7188 67.1875 124.5625 Q67.3438 124.4844 67.4375 124.2656 Q67.5312 124.0469 67.5312 123.375 L67.5312 116.9062 Q67.5312 115.6719 67.4688 115.3906 Q67.4062 115.1094 67.2891 115.0078 Q67.1719 114.9062 66.9688 114.9062 Q66.7969 114.9062 66.4375 115.0312 L66.3281 114.7656 L68.4688 113.8906 L68.8281 113.8906 ZM74.8125 114.1562 L78.25 114.1562 L78.25 128.1875 L74.8125 128.1875 L74.8125 127.5625 L77.0781 127.5625 L77.0781 114.7812 L74.8125 114.7812 L74.8125 114.1562 Z"
                  style="clip-path:url(#clipPath14); stroke:none;"/>
        </g>
        <g transform="translate(5,5)"
           style="font-size:13px; text-rendering:optimizeLegibility; color-rendering:optimizeQuality; image-rendering:optimizeQuality; font-family:'Times New Roman'; color-interpolation:linearRGB;">
            <path d="M115 216.1778 L111.325 216.1778"
                  style="fill:none; clip-path:url(#clipPath10);"/>
            <path d="M92.8125 218.4219 Q93.2656 217.3438 93.9609 216.7656 Q94.6562 216.1875 95.6875 216.1875 Q96.9531 216.1875 97.6406 217.0156 Q98.1562 217.625 98.1562 218.3281 Q98.1562 219.4844 96.7031 220.7188 Q97.6719 221.1094 98.1719 221.8203 Q98.6719 222.5312 98.6719 223.4844 Q98.6719 224.8594 97.7969 225.875 Q96.6562 227.1875 94.5 227.1875 Q93.4219 227.1875 93.0391 226.9219 Q92.6562 226.6562 92.6562 226.3438 Q92.6562 226.125 92.8359 225.9531 Q93.0156 225.7812 93.2812 225.7812 Q93.4688 225.7812 93.6719 225.8438 Q93.8125 225.875 94.2812 226.125 Q94.75 226.375 94.9219 226.4219 Q95.2188 226.5 95.5469 226.5 Q96.3438 226.5 96.9297 225.8828 Q97.5156 225.2656 97.5156 224.4219 Q97.5156 223.8125 97.25 223.2188 Q97.0469 222.7812 96.7969 222.5625 Q96.4688 222.25 95.8828 221.9922 Q95.2969 221.7344 94.6875 221.7344 L94.4375 221.7344 L94.4375 221.5 Q95.0469 221.4219 95.6719 221.0547 Q96.2969 220.6875 96.5781 220.1719 Q96.8594 219.6562 96.8594 219.0469 Q96.8594 218.2344 96.3516 217.7422 Q95.8438 217.25 95.0938 217.25 Q93.8906 217.25 93.0781 218.5469 L92.8125 218.4219 ZM100.5781 221.7656 Q100.5781 219.9531 101.125 218.6406 Q101.6719 217.3281 102.5781 216.6875 Q103.2812 216.1875 104.0312 216.1875 Q105.25 216.1875 106.2188 217.4219 Q107.4375 218.9688 107.4375 221.5938 Q107.4375 223.4375 106.9062 224.7266 Q106.375 226.0156 105.5469 226.6016 Q104.7188 227.1875 103.9531 227.1875 Q102.4375 227.1875 101.4375 225.3906 Q100.5781 223.8906 100.5781 221.7656 ZM102.1094 221.9531 Q102.1094 224.1406 102.6562 225.5312 Q103.0938 226.6875 103.9844 226.6875 Q104.4062 226.6875 104.8594 226.3125 Q105.3125 225.9375 105.5469 225.0469 Q105.9062 223.7031 105.9062 221.25 Q105.9062 219.4375 105.5312 218.2344 Q105.25 217.3281 104.7969 216.9531 Q104.4844 216.7031 104.0312 216.7031 Q103.5 216.7031 103.0781 217.1719 Q102.5156 217.8281 102.3125 219.2188 Q102.1094 220.6094 102.1094 221.9531 ZM114.9531 216.4062 L114.3438 217.7344 L111.1562 217.7344 L110.4531 219.1562 Q112.5312 219.4531 113.7344 220.6875 Q114.7812 221.75 114.7812 223.1875 Q114.7812 224.0312 114.4375 224.7422 Q114.0938 225.4531 113.5781 225.9531 Q113.0625 226.4531 112.4375 226.75 Q111.5312 227.1875 110.5938 227.1875 Q109.6406 227.1875 109.2031 226.8594 Q108.7656 226.5312 108.7656 226.1406 Q108.7656 225.9219 108.9453 225.7578 Q109.125 225.5938 109.4062 225.5938 Q109.6094 225.5938 109.7578 225.6562 Q109.9062 225.7188 110.2812 225.9688 Q110.8594 226.375 111.4688 226.375 Q112.375 226.375 113.0703 225.6875 Q113.7656 225 113.7656 224 Q113.7656 223.0469 113.1484 222.2109 Q112.5312 221.375 111.4375 220.9219 Q110.5938 220.5781 109.125 220.5156 L111.1562 216.4062 L114.9531 216.4062 Z"
                  style="clip-path:url(#clipPath13); stroke:none;"
                  transform="translate(-5,-5)"/>
        </g>
        <g transform="translate(5,5)"
           style="font-size:13px; text-rendering:optimizeLegibility; color-rendering:optimizeQuality; image-rendering:optimizeQuality; font-family:'Times New Roman'; color-interpolation:linearRGB;">
            <path d="M115 171.7733 L111.325 171.7733"
                  style="fill:none; clip-path:url(#clipPath10);"/>
            <path d="M92.8125 173.4219 Q93.2656 172.3438 93.9609 171.7656 Q94.6562 171.1875 95.6875 171.1875 Q96.9531 171.1875 97.6406 172.0156 Q98.1562 172.625 98.1562 173.3281 Q98.1562 174.4844 96.7031 175.7188 Q97.6719 176.1094 98.1719 176.8203 Q98.6719 177.5312 98.6719 178.4844 Q98.6719 179.8594 97.7969 180.875 Q96.6562 182.1875 94.5 182.1875 Q93.4219 182.1875 93.0391 181.9219 Q92.6562 181.6562 92.6562 181.3438 Q92.6562 181.125 92.8359 180.9531 Q93.0156 180.7812 93.2812 180.7812 Q93.4688 180.7812 93.6719 180.8438 Q93.8125 180.875 94.2812 181.125 Q94.75 181.375 94.9219 181.4219 Q95.2188 181.5 95.5469 181.5 Q96.3438 181.5 96.9297 180.8828 Q97.5156 180.2656 97.5156 179.4219 Q97.5156 178.8125 97.25 178.2188 Q97.0469 177.7812 96.7969 177.5625 Q96.4688 177.25 95.8828 176.9922 Q95.2969 176.7344 94.6875 176.7344 L94.4375 176.7344 L94.4375 176.5 Q95.0469 176.4219 95.6719 176.0547 Q96.2969 175.6875 96.5781 175.1719 Q96.8594 174.6562 96.8594 174.0469 Q96.8594 173.2344 96.3516 172.7422 Q95.8438 172.25 95.0938 172.25 Q93.8906 172.25 93.0781 173.5469 L92.8125 173.4219 ZM101.875 172.4375 L104.4531 171.1875 L104.7188 171.1875 L104.7188 180.125 Q104.7188 181.0156 104.7891 181.2344 Q104.8594 181.4531 105.0938 181.5703 Q105.3281 181.6875 106.0469 181.7031 L106.0469 182 L102.0625 182 L102.0625 181.7031 Q102.8125 181.6875 103.0312 181.5781 Q103.25 181.4688 103.3359 181.2734 Q103.4219 181.0781 103.4219 180.125 L103.4219 174.4062 Q103.4219 173.25 103.3438 172.9219 Q103.2969 172.6719 103.1484 172.5547 Q103 172.4375 102.7969 172.4375 Q102.5156 172.4375 102 172.6875 L101.875 172.4375 ZM108.5781 176.7656 Q108.5781 174.9531 109.125 173.6406 Q109.6719 172.3281 110.5781 171.6875 Q111.2812 171.1875 112.0312 171.1875 Q113.25 171.1875 114.2188 172.4219 Q115.4375 173.9688 115.4375 176.5938 Q115.4375 178.4375 114.9062 179.7266 Q114.375 181.0156 113.5469 181.6016 Q112.7188 182.1875 111.9531 182.1875 Q110.4375 182.1875 109.4375 180.3906 Q108.5781 178.8906 108.5781 176.7656 ZM110.1094 176.9531 Q110.1094 179.1406 110.6562 180.5312 Q111.0938 181.6875 111.9844 181.6875 Q112.4062 181.6875 112.8594 181.3125 Q113.3125 180.9375 113.5469 180.0469 Q113.9062 178.7031 113.9062 176.25 Q113.9062 174.4375 113.5312 173.2344 Q113.25 172.3281 112.7969 171.9531 Q112.4844 171.7031 112.0312 171.7031 Q111.5 171.7031 111.0781 172.1719 Q110.5156 172.8281 110.3125 174.2188 Q110.1094 175.6094 110.1094 176.9531 Z"
                  style="clip-path:url(#clipPath13); stroke:none;"
                  transform="translate(-5,-5)"/>
        </g>
        <g transform="translate(5,5)"
           style="font-size:13px; text-rendering:optimizeLegibility; color-rendering:optimizeQuality; image-rendering:optimizeQuality; font-family:'Times New Roman'; color-interpolation:linearRGB;">
            <path d="M115 127.3688 L111.325 127.3688"
                  style="fill:none; clip-path:url(#clipPath10);"/>
            <path d="M92.8125 129.4219 Q93.2656 128.3438 93.9609 127.7656 Q94.6562 127.1875 95.6875 127.1875 Q96.9531 127.1875 97.6406 128.0156 Q98.1562 128.625 98.1562 129.3281 Q98.1562 130.4844 96.7031 131.7188 Q97.6719 132.1094 98.1719 132.8203 Q98.6719 133.5312 98.6719 134.4844 Q98.6719 135.8594 97.7969 136.875 Q96.6562 138.1875 94.5 138.1875 Q93.4219 138.1875 93.0391 137.9219 Q92.6562 137.6562 92.6562 137.3438 Q92.6562 137.125 92.8359 136.9531 Q93.0156 136.7812 93.2812 136.7812 Q93.4688 136.7812 93.6719 136.8438 Q93.8125 136.875 94.2812 137.125 Q94.75 137.375 94.9219 137.4219 Q95.2188 137.5 95.5469 137.5 Q96.3438 137.5 96.9297 136.8828 Q97.5156 136.2656 97.5156 135.4219 Q97.5156 134.8125 97.25 134.2188 Q97.0469 133.7812 96.7969 133.5625 Q96.4688 133.25 95.8828 132.9922 Q95.2969 132.7344 94.6875 132.7344 L94.4375 132.7344 L94.4375 132.5 Q95.0469 132.4219 95.6719 132.0547 Q96.2969 131.6875 96.5781 131.1719 Q96.8594 130.6562 96.8594 130.0469 Q96.8594 129.2344 96.3516 128.7422 Q95.8438 128.25 95.0938 128.25 Q93.8906 128.25 93.0781 129.5469 L92.8125 129.4219 ZM101.875 128.4375 L104.4531 127.1875 L104.7188 127.1875 L104.7188 136.125 Q104.7188 137.0156 104.7891 137.2344 Q104.8594 137.4531 105.0938 137.5703 Q105.3281 137.6875 106.0469 137.7031 L106.0469 138 L102.0625 138 L102.0625 137.7031 Q102.8125 137.6875 103.0312 137.5781 Q103.25 137.4688 103.3359 137.2734 Q103.4219 137.0781 103.4219 136.125 L103.4219 130.4062 Q103.4219 129.25 103.3438 128.9219 Q103.2969 128.6719 103.1484 128.5547 Q103 128.4375 102.7969 128.4375 Q102.5156 128.4375 102 128.6875 L101.875 128.4375 ZM114.9531 127.4062 L114.3438 128.7344 L111.1562 128.7344 L110.4531 130.1562 Q112.5312 130.4531 113.7344 131.6875 Q114.7812 132.75 114.7812 134.1875 Q114.7812 135.0312 114.4375 135.7422 Q114.0938 136.4531 113.5781 136.9531 Q113.0625 137.4531 112.4375 137.75 Q111.5312 138.1875 110.5938 138.1875 Q109.6406 138.1875 109.2031 137.8594 Q108.7656 137.5312 108.7656 137.1406 Q108.7656 136.9219 108.9453 136.7578 Q109.125 136.5938 109.4062 136.5938 Q109.6094 136.5938 109.7578 136.6562 Q109.9062 136.7188 110.2812 136.9688 Q110.8594 137.375 111.4688 137.375 Q112.375 137.375 113.0703 136.6875 Q113.7656 136 113.7656 135 Q113.7656 134.0469 113.1484 133.2109 Q112.5312 132.375 111.4375 131.9219 Q110.5938 131.5781 109.125 131.5156 L111.1562 127.4062 L114.9531 127.4062 Z"
                  style="clip-path:url(#clipPath13); stroke:none;"
                  transform="translate(-5,-5)"/>
        </g>
        <g transform="translate(5,5)"
           style="font-size:13px; text-rendering:optimizeLegibility; color-rendering:optimizeQuality; image-rendering:optimizeQuality; font-family:'Times New Roman'; color-interpolation:linearRGB;">
            <path d="M115 82.9643 L111.325 82.9643"
                  style="fill:none; clip-path:url(#clipPath10);"/>
            <path d="M92.8125 84.4219 Q93.2656 83.3438 93.9609 82.7656 Q94.6562 82.1875 95.6875 82.1875 Q96.9531 82.1875 97.6406 83.0156 Q98.1562 83.625 98.1562 84.3281 Q98.1562 85.4844 96.7031 86.7188 Q97.6719 87.1094 98.1719 87.8203 Q98.6719 88.5312 98.6719 89.4844 Q98.6719 90.8594 97.7969 91.875 Q96.6562 93.1875 94.5 93.1875 Q93.4219 93.1875 93.0391 92.9219 Q92.6562 92.6562 92.6562 92.3438 Q92.6562 92.125 92.8359 91.9531 Q93.0156 91.7812 93.2812 91.7812 Q93.4688 91.7812 93.6719 91.8438 Q93.8125 91.875 94.2812 92.125 Q94.75 92.375 94.9219 92.4219 Q95.2188 92.5 95.5469 92.5 Q96.3438 92.5 96.9297 91.8828 Q97.5156 91.2656 97.5156 90.4219 Q97.5156 89.8125 97.25 89.2188 Q97.0469 88.7812 96.7969 88.5625 Q96.4688 88.25 95.8828 87.9922 Q95.2969 87.7344 94.6875 87.7344 L94.4375 87.7344 L94.4375 87.5 Q95.0469 87.4219 95.6719 87.0547 Q96.2969 86.6875 96.5781 86.1719 Q96.8594 85.6562 96.8594 85.0469 Q96.8594 84.2344 96.3516 83.7422 Q95.8438 83.25 95.0938 83.25 Q93.8906 83.25 93.0781 84.5469 L92.8125 84.4219 ZM107.3438 90.9531 L106.5938 93 L100.3438 93 L100.3438 92.7031 Q103.1094 90.1875 104.2344 88.5938 Q105.3594 87 105.3594 85.6875 Q105.3594 84.6719 104.7422 84.0234 Q104.125 83.375 103.2656 83.375 Q102.4844 83.375 101.8594 83.8359 Q101.2344 84.2969 100.9375 85.1719 L100.6562 85.1719 Q100.8438 83.7344 101.6562 82.9609 Q102.4688 82.1875 103.6719 82.1875 Q104.9688 82.1875 105.8281 83.0156 Q106.6875 83.8438 106.6875 84.9688 Q106.6875 85.7656 106.3125 86.5781 Q105.7344 87.8438 104.4375 89.25 Q102.5 91.375 102.0156 91.8125 L104.7812 91.8125 Q105.625 91.8125 105.9609 91.75 Q106.2969 91.6875 106.5703 91.5 Q106.8438 91.3125 107.0469 90.9531 L107.3438 90.9531 ZM108.5781 87.7656 Q108.5781 85.9531 109.125 84.6406 Q109.6719 83.3281 110.5781 82.6875 Q111.2812 82.1875 112.0312 82.1875 Q113.25 82.1875 114.2188 83.4219 Q115.4375 84.9688 115.4375 87.5938 Q115.4375 89.4375 114.9062 90.7266 Q114.375 92.0156 113.5469 92.6016 Q112.7188 93.1875 111.9531 93.1875 Q110.4375 93.1875 109.4375 91.3906 Q108.5781 89.8906 108.5781 87.7656 ZM110.1094 87.9531 Q110.1094 90.1406 110.6562 91.5312 Q111.0938 92.6875 111.9844 92.6875 Q112.4062 92.6875 112.8594 92.3125 Q113.3125 91.9375 113.5469 91.0469 Q113.9062 89.7031 113.9062 87.25 Q113.9062 85.4375 113.5312 84.2344 Q113.25 83.3281 112.7969 82.9531 Q112.4844 82.7031 112.0312 82.7031 Q111.5 82.7031 111.0781 83.1719 Q110.5156 83.8281 110.3125 85.2188 Q110.1094 86.6094 110.1094 87.9531 Z"
                  style="clip-path:url(#clipPath13); stroke:none;"
                  transform="translate(-5,-5)"/>
        </g>
        <g transform="translate(5,5)"
           style="font-size:13px; text-rendering:optimizeLegibility; color-rendering:optimizeQuality; image-rendering:optimizeQuality; font-family:'Times New Roman'; color-interpolation:linearRGB;">
            <path d="M115 38.5598 L111.325 38.5598"
                  style="fill:none; clip-path:url(#clipPath10);"/>
            <path d="M92.8125 40.4219 Q93.2656 39.3438 93.9609 38.7656 Q94.6562 38.1875 95.6875 38.1875 Q96.9531 38.1875 97.6406 39.0156 Q98.1562 39.625 98.1562 40.3281 Q98.1562 41.4844 96.7031 42.7188 Q97.6719 43.1094 98.1719 43.8203 Q98.6719 44.5312 98.6719 45.4844 Q98.6719 46.8594 97.7969 47.875 Q96.6562 49.1875 94.5 49.1875 Q93.4219 49.1875 93.0391 48.9219 Q92.6562 48.6562 92.6562 48.3438 Q92.6562 48.125 92.8359 47.9531 Q93.0156 47.7812 93.2812 47.7812 Q93.4688 47.7812 93.6719 47.8438 Q93.8125 47.875 94.2812 48.125 Q94.75 48.375 94.9219 48.4219 Q95.2188 48.5 95.5469 48.5 Q96.3438 48.5 96.9297 47.8828 Q97.5156 47.2656 97.5156 46.4219 Q97.5156 45.8125 97.25 45.2188 Q97.0469 44.7812 96.7969 44.5625 Q96.4688 44.25 95.8828 43.9922 Q95.2969 43.7344 94.6875 43.7344 L94.4375 43.7344 L94.4375 43.5 Q95.0469 43.4219 95.6719 43.0547 Q96.2969 42.6875 96.5781 42.1719 Q96.8594 41.6562 96.8594 41.0469 Q96.8594 40.2344 96.3516 39.7422 Q95.8438 39.25 95.0938 39.25 Q93.8906 39.25 93.0781 40.5469 L92.8125 40.4219 ZM107.3438 46.9531 L106.5938 49 L100.3438 49 L100.3438 48.7031 Q103.1094 46.1875 104.2344 44.5938 Q105.3594 43 105.3594 41.6875 Q105.3594 40.6719 104.7422 40.0234 Q104.125 39.375 103.2656 39.375 Q102.4844 39.375 101.8594 39.8359 Q101.2344 40.2969 100.9375 41.1719 L100.6562 41.1719 Q100.8438 39.7344 101.6562 38.9609 Q102.4688 38.1875 103.6719 38.1875 Q104.9688 38.1875 105.8281 39.0156 Q106.6875 39.8438 106.6875 40.9688 Q106.6875 41.7656 106.3125 42.5781 Q105.7344 43.8438 104.4375 45.25 Q102.5 47.375 102.0156 47.8125 L104.7812 47.8125 Q105.625 47.8125 105.9609 47.75 Q106.2969 47.6875 106.5703 47.5 Q106.8438 47.3125 107.0469 46.9531 L107.3438 46.9531 ZM114.9531 38.4062 L114.3438 39.7344 L111.1562 39.7344 L110.4531 41.1562 Q112.5312 41.4531 113.7344 42.6875 Q114.7812 43.75 114.7812 45.1875 Q114.7812 46.0312 114.4375 46.7422 Q114.0938 47.4531 113.5781 47.9531 Q113.0625 48.4531 112.4375 48.75 Q111.5312 49.1875 110.5938 49.1875 Q109.6406 49.1875 109.2031 48.8594 Q108.7656 48.5312 108.7656 48.1406 Q108.7656 47.9219 108.9453 47.7578 Q109.125 47.5938 109.4062 47.5938 Q109.6094 47.5938 109.7578 47.6562 Q109.9062 47.7188 110.2812 47.9688 Q110.8594 48.375 111.4688 48.375 Q112.375 48.375 113.0703 47.6875 Q113.7656 47 113.7656 46 Q113.7656 45.0469 113.1484 44.2109 Q112.5312 43.375 111.4375 42.9219 Q110.5938 42.5781 109.125 42.5156 L111.1562 38.4062 L114.9531 38.4062 Z"
                  style="clip-path:url(#clipPath13); stroke:none;"
                  transform="translate(-5,-5)"/>
        </g>
        <g transform="translate(5,5)"
           style="font-size:13px; text-rendering:optimizeLegibility; color-rendering:optimizeQuality; image-rendering:optimizeQuality; font-family:'Times New Roman'; color-interpolation:linearRGB;">
            <path d="M115 233.9396 L113.1625 233.9396"
                  style="fill:none; clip-path:url(#clipPath10);"/>
        </g>
        <g transform="translate(5,5)"
           style="font-size:13px; text-rendering:optimizeLegibility; color-rendering:optimizeQuality; image-rendering:optimizeQuality; font-family:'Times New Roman'; color-interpolation:linearRGB;">
            <path d="M115 225.0587 L113.1625 225.0587"
                  style="fill:none; clip-path:url(#clipPath10);"/>
        </g>
        <g transform="translate(5,5)"
           style="font-size:13px; text-rendering:optimizeLegibility; color-rendering:optimizeQuality; image-rendering:optimizeQuality; font-family:'Times New Roman'; color-interpolation:linearRGB;">
            <path d="M115 207.2969 L113.1625 207.2969"
                  style="fill:none; clip-path:url(#clipPath10);"/>
        </g>
        <g transform="translate(5,5)"
           style="font-size:13px; text-rendering:optimizeLegibility; color-rendering:optimizeQuality; image-rendering:optimizeQuality; font-family:'Times New Roman'; color-interpolation:linearRGB;">
            <path d="M115 198.416 L113.1625 198.416"
                  style="fill:none; clip-path:url(#clipPath10);"/>
        </g>
        <g transform="translate(5,5)"
           style="font-size:13px; text-rendering:optimizeLegibility; color-rendering:optimizeQuality; image-rendering:optimizeQuality; font-family:'Times New Roman'; color-interpolation:linearRGB;">
            <path d="M115 189.5351 L113.1625 189.5351"
                  style="fill:none; clip-path:url(#clipPath10);"/>
        </g>
        <g transform="translate(5,5)"
           style="font-size:13px; text-rendering:optimizeLegibility; color-rendering:optimizeQuality; image-rendering:optimizeQuality; font-family:'Times New Roman'; color-interpolation:linearRGB;">
            <path d="M115 180.6542 L113.1625 180.6542"
                  style="fill:none; clip-path:url(#clipPath10);"/>
        </g>
        <g transform="translate(5,5)"
           style="font-size:13px; text-rendering:optimizeLegibility; color-rendering:optimizeQuality; image-rendering:optimizeQuality; font-family:'Times New Roman'; color-interpolation:linearRGB;">
            <path d="M115 162.8924 L113.1625 162.8924"
                  style="fill:none; clip-path:url(#clipPath10);"/>
        </g>
        <g transform="translate(5,5)"
           style="font-size:13px; text-rendering:optimizeLegibility; color-rendering:optimizeQuality; image-rendering:optimizeQuality; font-family:'Times New Roman'; color-interpolation:linearRGB;">
            <path d="M115 154.0115 L113.1625 154.0115"
                  style="fill:none; clip-path:url(#clipPath10);"/>
        </g>
        <g transform="translate(5,5)"
           style="font-size:13px; text-rendering:optimizeLegibility; color-rendering:optimizeQuality; image-rendering:optimizeQuality; font-family:'Times New Roman'; color-interpolation:linearRGB;">
            <path d="M115 145.1306 L113.1625 145.1306"
                  style="fill:none; clip-path:url(#clipPath10);"/>
        </g>
        <g transform="translate(5,5)"
           style="font-size:13px; text-rendering:optimizeLegibility; color-rendering:optimizeQuality; image-rendering:optimizeQuality; font-family:'Times New Roman'; color-interpolation:linearRGB;">
            <path d="M115 136.2497 L113.1625 136.2497"
                  style="fill:none; clip-path:url(#clipPath10);"/>
        </g>
        <g transform="translate(5,5)"
           style="font-size:13px; text-rendering:optimizeLegibility; color-rendering:optimizeQuality; image-rendering:optimizeQuality; font-family:'Times New Roman'; color-interpolation:linearRGB;">
            <path d="M115 118.4879 L113.1625 118.4879"
                  style="fill:none; clip-path:url(#clipPath10);"/>
        </g>
        <g transform="translate(5,5)"
           style="font-size:13px; text-rendering:optimizeLegibility; color-rendering:optimizeQuality; image-rendering:optimizeQuality; font-family:'Times New Roman'; color-interpolation:linearRGB;">
            <path d="M115 109.607 L113.1625 109.607"
                  style="fill:none; clip-path:url(#clipPath10);"/>
        </g>
        <g transform="translate(5,5)"
           style="font-size:13px; text-rendering:optimizeLegibility; color-rendering:optimizeQuality; image-rendering:optimizeQuality; font-family:'Times New Roman'; color-interpolation:linearRGB;">
            <path d="M115 100.7261 L113.1625 100.7261"
                  style="fill:none; clip-path:url(#clipPath10);"/>
        </g>
        <g transform="translate(5,5)"
           style="font-size:13px; text-rendering:optimizeLegibility; color-rendering:optimizeQuality; image-rendering:optimizeQuality; font-family:'Times New Roman'; color-interpolation:linearRGB;">
            <path d="M115 91.8452 L113.1625 91.8452"
                  style="fill:none; clip-path:url(#clipPath10);"/>
        </g>
        <g transform="translate(5,5)"
           style="font-size:13px; text-rendering:optimizeLegibility; color-rendering:optimizeQuality; image-rendering:optimizeQuality; font-family:'Times New Roman'; color-interpolation:linearRGB;">
            <path d="M115 74.0834 L113.1625 74.0834"
                  style="fill:none; clip-path:url(#clipPath10);"/>
        </g>
        <g transform="translate(5,5)"
           style="font-size:13px; text-rendering:optimizeLegibility; color-rendering:optimizeQuality; image-rendering:optimizeQuality; font-family:'Times New Roman'; color-interpolation:linearRGB;">
            <path d="M115 65.2025 L113.1625 65.2025"
                  style="fill:none; clip-path:url(#clipPath10);"/>
        </g>
        <g transform="translate(5,5)"
           style="font-size:13px; text-rendering:optimizeLegibility; color-rendering:optimizeQuality; image-rendering:optimizeQuality; font-family:'Times New Roman'; color-interpolation:linearRGB;">
            <path d="M115 56.3216 L113.1625 56.3216"
                  style="fill:none; clip-path:url(#clipPath10);"/>
        </g>
        <g transform="translate(5,5)"
           style="font-size:13px; text-rendering:optimizeLegibility; color-rendering:optimizeQuality; image-rendering:optimizeQuality; font-family:'Times New Roman'; color-interpolation:linearRGB;">
            <path d="M115 47.4407 L113.1625 47.4407"
                  style="fill:none; clip-path:url(#clipPath10);"/>
        </g>
        <g transform="translate(5,5)"
           style="font-size:13px; text-rendering:optimizeLegibility; color-rendering:optimizeQuality; image-rendering:optimizeQuality; font-family:'Times New Roman'; color-interpolation:linearRGB;">
            <path d="M115 29.6788 L113.1625 29.6788"
                  style="fill:none; clip-path:url(#clipPath10);"/>
        </g>
        <g transform="translate(5,5)"
           style="font-size:13px; text-rendering:optimizeLegibility; color-rendering:optimizeQuality; image-rendering:optimizeQuality; font-family:'Times New Roman'; color-interpolation:linearRGB;">
            <path d="M115 20.7979 L113.1625 20.7979"
                  style="fill:none; clip-path:url(#clipPath10);"/>
        </g>
        <g transform="translate(5,5)"
           style="font-size:13px; text-rendering:optimizeLegibility; color-rendering:optimizeQuality; image-rendering:optimizeQuality; font-family:'Times New Roman'; color-interpolation:linearRGB;">
            <path d="M115 11.917 L113.1625 11.917"
                  style="fill:none; clip-path:url(#clipPath10);"/>
        </g>
        <g transform="translate(5,5)"
           style="font-size:13px; text-rendering:optimizeLegibility; color-rendering:optimizeQuality; image-rendering:optimizeQuality; font-family:'Times New Roman'; color-interpolation:linearRGB;">
            <path d="M115 3.0361 L113.1625 3.0361"
                  style="fill:none; clip-path:url(#clipPath10);"/>
        </g>
    </g>
</svg>
