<?xml version="1.0" encoding="UTF-8"?>
<!DOCTYPE svg PUBLIC '-//W3C//DTD SVG 1.0//EN'
    'http://www.w3.org/TR/2001/REC-SVG-20010904/DTD/svg10.dtd' >

<svg style="stroke-dasharray:none; shape-rendering:auto; font-family:'Dialog'; text-rendering:auto; fill-opacity:1; color-interpolation:auto; color-rendering:auto; font-size:12px; fill:black; stroke:black; image-rendering:auto; stroke-miterlimit:10; stroke-linecap:square; stroke-linejoin:miter; font-style:normal; stroke-width:1; stroke-dashoffset:0; font-weight:normal; stroke-opacity:1;"
     xmlns="http://www.w3.org/2000/svg" contentScriptType="text/ecmascript"
     preserveAspectRatio="xMidYMid meet"
     xmlns:xlink="http://www.w3.org/1999/xlink" zoomAndPan="magnify"
     version="1.0" contentStyleType="text/css">
    <!--Generated by the Batik Graphics2D SVG Generator-->
    <defs id="genericDefs"/>
    <g>
        <defs id="defs1">
            <clipPath clipPathUnits="userSpaceOnUse" id="clipPath1">
                <path d="M85 285 L334 285 L334 309 L85 309 L85 285 Z"/>
            </clipPath>
            <clipPath clipPathUnits="userSpaceOnUse" id="clipPath2">
                <path d="M88 288 L88 306 L198 306 L198 288 Z"/>
            </clipPath>
            <clipPath clipPathUnits="userSpaceOnUse" id="clipPath3">
                <path d="M-2 -1 L-2 17 L108 17 L108 -1 Z"/>
            </clipPath>
            <clipPath clipPathUnits="userSpaceOnUse" id="clipPath4">
                <path d="M0 0 L0 18 L110 18 L110 0 Z"/>
            </clipPath>
            <clipPath clipPathUnits="userSpaceOnUse" id="clipPath5">
                <path d="M37 0 L37 17 L109 17 L109 0 Z"/>
            </clipPath>
            <clipPath clipPathUnits="userSpaceOnUse" id="clipPath6">
                <path d="M197 288 L197 306 L332 306 L332 288 Z"/>
            </clipPath>
            <clipPath clipPathUnits="userSpaceOnUse" id="clipPath7">
                <path d="M-2 -1 L-2 17 L133 17 L133 -1 Z"/>
            </clipPath>
            <clipPath clipPathUnits="userSpaceOnUse" id="clipPath8">
                <path d="M0 0 L0 18 L135 18 L135 0 Z"/>
            </clipPath>
            <clipPath clipPathUnits="userSpaceOnUse" id="clipPath9">
                <path d="M37 0 L37 17 L134 17 L134 0 Z"/>
            </clipPath>
            <clipPath clipPathUnits="userSpaceOnUse" id="clipPath10">
                <path d="M0 0 L410 0 L410 277 L0 277 L0 0 Z"/>
            </clipPath>
            <clipPath clipPathUnits="userSpaceOnUse" id="clipPath11">
                <path d="M93 0 L93 239 L404.9876 239 L404.9876 0 Z"/>
            </clipPath>
            <clipPath clipPathUnits="userSpaceOnUse" id="clipPath12">
                <path d="M230 258 L230 276 L266 276 L266 258 Z"/>
            </clipPath>
            <clipPath clipPathUnits="userSpaceOnUse" id="clipPath13">
                <path d="M5 5 L415 5 L415 282 L5 282 L5 5 Z"/>
            </clipPath>
            <clipPath clipPathUnits="userSpaceOnUse" id="clipPath14">
                <path d="M1 110 L1 128 L64 128 L64 110 Z"/>
            </clipPath>
            <clipPath clipPathUnits="userSpaceOnUse" id="clipPath15">
                <path d="M-14 -4 L-14 14 L49 14 L49 -4 Z"/>
            </clipPath>
            <clipPath clipPathUnits="userSpaceOnUse" id="clipPath16">
                <path d="M-25 -4 L-25 14 L38 14 L38 -4 Z"/>
            </clipPath>
        </defs>
        <g style="stroke-linecap:butt; font-size:13px; fill:rgb(0,116,204); text-rendering:optimizeLegibility; image-rendering:optimizeQuality; color-rendering:optimizeQuality; font-family:'Times New Roman'; stroke-linejoin:round; stroke:rgb(0,116,204); color-interpolation:linearRGB; stroke-width:1.5;"
           transform="translate(90,289)">
            <path d="M0 7 L34 7" style="fill:none; clip-path:url(#clipPath3);"/>
        </g>
        <g transform="translate(88,288)"
           style="stroke-linecap:butt; font-size:13px; text-rendering:optimizeLegibility; image-rendering:optimizeQuality; color-rendering:optimizeQuality; font-family:'Times New Roman'; stroke-linejoin:round; color-interpolation:linearRGB; stroke-width:1.5;">
            <path d="M51.0312 3.8438 L51.2656 7.2188 L51.0312 7.2188 Q50.5781 5.7031 49.7344 5.0391 Q48.8906 4.375 47.7188 4.375 Q46.7188 4.375 45.9219 4.875 Q45.125 5.375 44.6719 6.4688 Q44.2188 7.5625 44.2188 9.2031 Q44.2188 10.5469 44.6484 11.5391 Q45.0781 12.5312 45.9453 13.0547 Q46.8125 13.5781 47.9219 13.5781 Q48.8906 13.5781 49.6328 13.1641 Q50.375 12.75 51.2656 11.5312 L51.4844 11.6719 Q50.7344 13 49.7422 13.6172 Q48.75 14.2344 47.375 14.2344 Q44.9062 14.2344 43.5469 12.3906 Q42.5469 11.0312 42.5469 9.1875 Q42.5469 7.7031 43.2109 6.4531 Q43.875 5.2031 45.0469 4.5234 Q46.2188 3.8438 47.5938 3.8438 Q48.6719 3.8438 49.7188 4.375 Q50.0312 4.5312 50.1562 4.5312 Q50.3594 4.5312 50.5 4.3906 Q50.6875 4.1875 50.7812 3.8438 L51.0312 3.8438 ZM55.7549 7.0938 Q57.2861 7.0938 58.208 8.25 Q58.9893 9.2344 58.9893 10.5156 Q58.9893 11.4219 58.5518 12.3438 Q58.1143 13.2656 57.3564 13.7344 Q56.5986 14.2031 55.6768 14.2031 Q54.1611 14.2031 53.2705 13 Q52.5049 11.9844 52.5049 10.7188 Q52.5049 9.7812 52.9658 8.875 Q53.4268 7.9688 54.1768 7.5312 Q54.9268 7.0938 55.7549 7.0938 ZM55.5205 7.5625 Q55.1455 7.5625 54.7471 7.7969 Q54.3486 8.0312 54.1143 8.6094 Q53.8799 9.1875 53.8799 10.0938 Q53.8799 11.5625 54.458 12.625 Q55.0361 13.6875 55.9893 13.6875 Q56.6924 13.6875 57.1611 13.1016 Q57.6299 12.5156 57.6299 11.0781 Q57.6299 9.2969 56.8486 8.2656 Q56.333 7.5625 55.5205 7.5625 ZM61.9736 8.5156 Q62.6924 7.7812 62.833 7.6719 Q63.1611 7.4062 63.5439 7.25 Q63.9268 7.0938 64.3018 7.0938 Q64.9268 7.0938 65.3799 7.4609 Q65.833 7.8281 65.9893 8.5156 Q66.7393 7.6406 67.2627 7.3672 Q67.7861 7.0938 68.333 7.0938 Q68.8643 7.0938 69.2783 7.3672 Q69.6924 7.6406 69.9424 8.2656 Q70.0986 8.6875 70.0986 9.5938 L70.0986 12.4844 Q70.0986 13.1094 70.1924 13.3438 Q70.2705 13.5156 70.4658 13.625 Q70.6611 13.7344 71.1143 13.7344 L71.1143 14 L67.8018 14 L67.8018 13.7344 L67.9424 13.7344 Q68.3643 13.7344 68.6143 13.5625 Q68.7705 13.4531 68.8486 13.1875 Q68.8799 13.0625 68.8799 12.4844 L68.8799 9.5938 Q68.8799 8.7812 68.6768 8.4375 Q68.3955 7.9688 67.7705 7.9688 Q67.3799 7.9688 66.9893 8.1641 Q66.5986 8.3594 66.0361 8.8906 L66.0205 8.9688 L66.0361 9.2812 L66.0361 12.4844 Q66.0361 13.1719 66.1143 13.3438 Q66.1924 13.5156 66.4033 13.625 Q66.6143 13.7344 67.1299 13.7344 L67.1299 14 L63.7393 14 L63.7393 13.7344 Q64.3018 13.7344 64.5049 13.6016 Q64.708 13.4688 64.7861 13.2031 Q64.833 13.0781 64.833 12.4844 L64.833 9.5938 Q64.833 8.7812 64.583 8.4219 Q64.2705 7.9531 63.6924 7.9531 Q63.2861 7.9531 62.9111 8.1562 Q62.3018 8.4844 61.9736 8.8906 L61.9736 12.4844 Q61.9736 13.1406 62.0596 13.3359 Q62.1455 13.5312 62.3252 13.6328 Q62.5049 13.7344 63.0518 13.7344 L63.0518 14 L59.7393 14 L59.7393 13.7344 Q60.208 13.7344 60.3877 13.6328 Q60.5674 13.5312 60.6611 13.3203 Q60.7549 13.1094 60.7549 12.4844 L60.7549 9.9219 Q60.7549 8.8125 60.6924 8.4844 Q60.6455 8.25 60.5361 8.1562 Q60.4268 8.0625 60.2236 8.0625 Q60.0205 8.0625 59.7393 8.1719 L59.6299 7.9062 L61.6455 7.0938 L61.9736 7.0938 L61.9736 8.5156 ZM71.1567 7.9531 L73.2192 7.125 L73.5005 7.125 L73.5005 8.6875 Q74.0161 7.7969 74.5396 7.4453 Q75.063 7.0938 75.6411 7.0938 Q76.6567 7.0938 77.3286 7.8906 Q78.1567 8.8438 78.1567 10.4062 Q78.1567 12.1406 77.1567 13.2812 Q76.3442 14.2031 75.0942 14.2031 Q74.563 14.2031 74.1567 14.0469 Q73.8755 13.9375 73.5005 13.6094 L73.5005 15.6562 Q73.5005 16.3438 73.5864 16.5312 Q73.6724 16.7188 73.8833 16.8281 Q74.0942 16.9375 74.6411 16.9375 L74.6411 17.2031 L71.1255 17.2031 L71.1255 16.9375 L71.2974 16.9375 Q71.7036 16.9375 72.0005 16.7812 Q72.1255 16.7031 72.2036 16.5234 Q72.2817 16.3438 72.2817 15.6094 L72.2817 9.2656 Q72.2817 8.6094 72.2271 8.4375 Q72.1724 8.2656 72.0396 8.1797 Q71.9067 8.0938 71.688 8.0938 Q71.5161 8.0938 71.2505 8.1875 L71.1567 7.9531 ZM73.5005 9.125 L73.5005 11.625 Q73.5005 12.4375 73.563 12.7031 Q73.6724 13.125 74.0708 13.4453 Q74.4692 13.7656 75.0786 13.7656 Q75.813 13.7656 76.2661 13.1875 Q76.8599 12.4531 76.8599 11.0938 Q76.8599 9.5469 76.188 8.7188 Q75.7192 8.1562 75.063 8.1562 Q74.7192 8.1562 74.3755 8.3281 Q74.1099 8.4688 73.5005 9.125 ZM85.0161 7.2969 L85.0161 11.3594 Q85.0161 12.5156 85.0708 12.7812 Q85.1255 13.0469 85.2505 13.1484 Q85.3755 13.25 85.5317 13.25 Q85.7661 13.25 86.0474 13.125 L86.1567 13.375 L84.1411 14.2031 L83.813 14.2031 L83.813 12.7812 Q82.9536 13.7188 82.5005 13.9609 Q82.0474 14.2031 81.5317 14.2031 Q80.9692 14.2031 80.5552 13.875 Q80.1411 13.5469 79.9849 13.0391 Q79.8286 12.5312 79.8286 11.5938 L79.8286 8.5938 Q79.8286 8.125 79.7192 7.9375 Q79.6099 7.75 79.4146 7.6484 Q79.2192 7.5469 78.688 7.5625 L78.688 7.2969 L81.0317 7.2969 L81.0317 11.7812 Q81.0317 12.7188 81.3599 13.0078 Q81.688 13.2969 82.1567 13.2969 Q82.4692 13.2969 82.8677 13.1016 Q83.2661 12.9062 83.813 12.3594 L83.813 8.5469 Q83.813 7.9844 83.6021 7.7812 Q83.3911 7.5781 82.7349 7.5625 L82.7349 7.2969 L85.0161 7.2969 ZM88.5942 5.0938 L88.5942 7.2969 L90.1567 7.2969 L90.1567 7.7969 L88.5942 7.7969 L88.5942 12.1562 Q88.5942 12.8125 88.7817 13.0391 Q88.9692 13.2656 89.2505 13.2656 Q89.5005 13.2656 89.7271 13.1094 Q89.9536 12.9531 90.0786 12.6719 L90.3599 12.6719 Q90.1099 13.3906 89.6411 13.75 Q89.1724 14.1094 88.6724 14.1094 Q88.3286 14.1094 88.0083 13.9219 Q87.688 13.7344 87.5317 13.3906 Q87.3755 13.0469 87.3755 12.3125 L87.3755 7.7969 L86.313 7.7969 L86.313 7.5625 Q86.7192 7.4062 87.1411 7.0156 Q87.563 6.625 87.8911 6.1094 Q88.063 5.8281 88.3599 5.0938 L88.5942 5.0938 ZM91.9336 9.8125 Q91.9336 11.3125 92.668 12.1562 Q93.3867 13.0156 94.3867 13.0156 Q95.043 13.0156 95.5273 12.6484 Q96.0117 12.2812 96.3398 11.4062 L96.5742 11.5469 Q96.418 12.5625 95.6758 13.3828 Q94.9336 14.2031 93.8242 14.2031 Q92.6211 14.2031 91.7617 13.2656 Q90.9023 12.3281 90.9023 10.7344 Q90.9023 9.0156 91.7852 8.0469 Q92.668 7.0781 93.9961 7.0781 Q95.1211 7.0781 95.8477 7.8281 Q96.5742 8.5781 96.5742 9.8125 L91.9336 9.8125 ZM91.9336 9.3906 L95.043 9.3906 Q95.0117 8.75 94.8867 8.4844 Q94.6992 8.0781 94.3398 7.8438 Q93.9805 7.6094 93.5898 7.6094 Q92.9805 7.6094 92.4961 8.0781 Q92.0117 8.5469 91.9336 9.3906 ZM102.2007 13.25 Q101.7163 13.7656 101.2476 13.9844 Q100.7788 14.2031 100.2319 14.2031 Q99.1382 14.2031 98.3179 13.2812 Q97.4976 12.3594 97.4976 10.9219 Q97.4976 9.4844 98.4038 8.2812 Q99.3101 7.0781 100.7476 7.0781 Q101.6226 7.0781 102.2007 7.6562 L102.2007 6.4062 Q102.2007 5.2656 102.146 5 Q102.0913 4.7344 101.9741 4.6406 Q101.8569 4.5469 101.6851 4.5469 Q101.4976 4.5469 101.1851 4.6562 L101.0913 4.4062 L103.0913 3.5781 L103.4194 3.5781 L103.4194 11.3438 Q103.4194 12.5156 103.4741 12.7812 Q103.5288 13.0469 103.646 13.1484 Q103.7632 13.25 103.9194 13.25 Q104.1226 13.25 104.4507 13.125 L104.5288 13.375 L102.5444 14.2031 L102.2007 14.2031 L102.2007 13.25 ZM102.2007 12.7344 L102.2007 9.2812 Q102.1538 8.7812 101.9351 8.3672 Q101.7163 7.9531 101.3569 7.75 Q100.9976 7.5469 100.6538 7.5469 Q100.0132 7.5469 99.4976 8.125 Q98.8413 8.875 98.8413 10.3438 Q98.8413 11.8281 99.4819 12.6172 Q100.1226 13.4062 100.9194 13.4062 Q101.5757 13.4062 102.2007 12.7344 Z"
                  style="stroke:none; clip-path:url(#clipPath5);"/>
        </g>
        <g style="stroke-linecap:butt; font-size:13px; fill:rgb(204,0,116); text-rendering:optimizeLegibility; image-rendering:optimizeQuality; color-rendering:optimizeQuality; font-family:'Times New Roman'; stroke-linejoin:round; stroke:rgb(204,0,116); color-interpolation:linearRGB; stroke-width:1.5;"
           transform="translate(199,289)">
            <path d="M0 7 L34 7" style="fill:none; clip-path:url(#clipPath7);"/>
        </g>
        <g transform="translate(197,288)"
           style="stroke-linecap:butt; font-size:13px; text-rendering:optimizeLegibility; image-rendering:optimizeQuality; color-rendering:optimizeQuality; font-family:'Times New Roman'; stroke-linejoin:round; color-interpolation:linearRGB; stroke-width:1.5;">
            <path d="M48.875 3.8438 L48.875 7.2812 L48.6094 7.2812 Q48.4688 6.2812 48.1328 5.6953 Q47.7969 5.1094 47.1641 4.7656 Q46.5312 4.4219 45.8594 4.4219 Q45.0938 4.4219 44.6016 4.8906 Q44.1094 5.3594 44.1094 5.9531 Q44.1094 6.4062 44.4219 6.7812 Q44.875 7.3281 46.5781 8.25 Q47.9688 8.9844 48.4766 9.3828 Q48.9844 9.7812 49.2578 10.3281 Q49.5312 10.875 49.5312 11.4688 Q49.5312 12.5938 48.6562 13.4141 Q47.7812 14.2344 46.4062 14.2344 Q45.9844 14.2344 45.5938 14.1562 Q45.375 14.125 44.6562 13.8906 Q43.9375 13.6562 43.75 13.6562 Q43.5625 13.6562 43.4609 13.7656 Q43.3594 13.875 43.2969 14.2344 L43.0312 14.2344 L43.0312 10.8281 L43.2969 10.8281 Q43.5 11.8906 43.8203 12.4219 Q44.1406 12.9531 44.8047 13.3047 Q45.4688 13.6562 46.25 13.6562 Q47.1719 13.6562 47.7031 13.1719 Q48.2344 12.6875 48.2344 12.0312 Q48.2344 11.6562 48.0312 11.2891 Q47.8281 10.9219 47.4062 10.5938 Q47.125 10.375 45.8516 9.6641 Q44.5781 8.9531 44.0391 8.5234 Q43.5 8.0938 43.2188 7.5859 Q42.9375 7.0781 42.9375 6.4531 Q42.9375 5.3906 43.7578 4.6172 Q44.5781 3.8438 45.8438 3.8438 Q46.6406 3.8438 47.5156 4.2344 Q47.9375 4.4062 48.0938 4.4062 Q48.2969 4.4062 48.4141 4.2969 Q48.5312 4.1875 48.6094 3.8438 L48.875 3.8438 ZM52.5142 3.5781 Q52.8267 3.5781 53.0454 3.7969 Q53.2642 4.0156 53.2642 4.3281 Q53.2642 4.625 53.0454 4.8516 Q52.8267 5.0781 52.5142 5.0781 Q52.2173 5.0781 51.9907 4.8516 Q51.7642 4.625 51.7642 4.3281 Q51.7642 4.0156 51.9829 3.7969 Q52.2017 3.5781 52.5142 3.5781 ZM53.1235 7.0938 L53.1235 12.4844 Q53.1235 13.1094 53.2173 13.3203 Q53.311 13.5312 53.4907 13.6328 Q53.6704 13.7344 54.1392 13.7344 L54.1392 14 L50.8892 14 L50.8892 13.7344 Q51.3735 13.7344 51.5454 13.6406 Q51.7173 13.5469 51.811 13.3281 Q51.9048 13.1094 51.9048 12.4844 L51.9048 9.8906 Q51.9048 8.8125 51.8423 8.4844 Q51.7954 8.25 51.686 8.1562 Q51.5767 8.0625 51.3892 8.0625 Q51.1704 8.0625 50.8892 8.1719 L50.7798 7.9062 L52.811 7.0938 L53.1235 7.0938 ZM56.9785 8.5156 Q57.6973 7.7812 57.8379 7.6719 Q58.166 7.4062 58.5488 7.25 Q58.9316 7.0938 59.3066 7.0938 Q59.9316 7.0938 60.3848 7.4609 Q60.8379 7.8281 60.9941 8.5156 Q61.7441 7.6406 62.2676 7.3672 Q62.791 7.0938 63.3379 7.0938 Q63.8691 7.0938 64.2832 7.3672 Q64.6973 7.6406 64.9473 8.2656 Q65.1035 8.6875 65.1035 9.5938 L65.1035 12.4844 Q65.1035 13.1094 65.1973 13.3438 Q65.2754 13.5156 65.4707 13.625 Q65.666 13.7344 66.1191 13.7344 L66.1191 14 L62.8066 14 L62.8066 13.7344 L62.9473 13.7344 Q63.3691 13.7344 63.6191 13.5625 Q63.7754 13.4531 63.8535 13.1875 Q63.8848 13.0625 63.8848 12.4844 L63.8848 9.5938 Q63.8848 8.7812 63.6816 8.4375 Q63.4004 7.9688 62.7754 7.9688 Q62.3848 7.9688 61.9941 8.1641 Q61.6035 8.3594 61.041 8.8906 L61.0254 8.9688 L61.041 9.2812 L61.041 12.4844 Q61.041 13.1719 61.1191 13.3438 Q61.1973 13.5156 61.4082 13.625 Q61.6191 13.7344 62.1348 13.7344 L62.1348 14 L58.7441 14 L58.7441 13.7344 Q59.3066 13.7344 59.5098 13.6016 Q59.7129 13.4688 59.791 13.2031 Q59.8379 13.0781 59.8379 12.4844 L59.8379 9.5938 Q59.8379 8.7812 59.5879 8.4219 Q59.2754 7.9531 58.6973 7.9531 Q58.291 7.9531 57.916 8.1562 Q57.3066 8.4844 56.9785 8.8906 L56.9785 12.4844 Q56.9785 13.1406 57.0645 13.3359 Q57.1504 13.5312 57.3301 13.6328 Q57.5098 13.7344 58.0566 13.7344 L58.0566 14 L54.7441 14 L54.7441 13.7344 Q55.2129 13.7344 55.3926 13.6328 Q55.5723 13.5312 55.666 13.3203 Q55.7598 13.1094 55.7598 12.4844 L55.7598 9.9219 Q55.7598 8.8125 55.6973 8.4844 Q55.6504 8.25 55.541 8.1562 Q55.4316 8.0625 55.2285 8.0625 Q55.0254 8.0625 54.7441 8.1719 L54.6348 7.9062 L56.6504 7.0938 L56.9785 7.0938 L56.9785 8.5156 ZM72.521 7.2969 L72.521 11.3594 Q72.521 12.5156 72.5757 12.7812 Q72.6304 13.0469 72.7554 13.1484 Q72.8804 13.25 73.0366 13.25 Q73.271 13.25 73.5522 13.125 L73.6616 13.375 L71.646 14.2031 L71.3179 14.2031 L71.3179 12.7812 Q70.4585 13.7188 70.0054 13.9609 Q69.5522 14.2031 69.0366 14.2031 Q68.4741 14.2031 68.0601 13.875 Q67.646 13.5469 67.4897 13.0391 Q67.3335 12.5312 67.3335 11.5938 L67.3335 8.5938 Q67.3335 8.125 67.2241 7.9375 Q67.1147 7.75 66.9194 7.6484 Q66.7241 7.5469 66.1929 7.5625 L66.1929 7.2969 L68.5366 7.2969 L68.5366 11.7812 Q68.5366 12.7188 68.8647 13.0078 Q69.1929 13.2969 69.6616 13.2969 Q69.9741 13.2969 70.3726 13.1016 Q70.771 12.9062 71.3179 12.3594 L71.3179 8.5469 Q71.3179 7.9844 71.1069 7.7812 Q70.896 7.5781 70.2397 7.5625 L70.2397 7.2969 L72.521 7.2969 ZM76.4585 3.5781 L76.4585 12.4844 Q76.4585 13.1094 76.5444 13.3203 Q76.6304 13.5312 76.8257 13.6328 Q77.021 13.7344 77.5366 13.7344 L77.5366 14 L74.2554 14 L74.2554 13.7344 Q74.7085 13.7344 74.8804 13.6406 Q75.0522 13.5469 75.146 13.3281 Q75.2397 13.1094 75.2397 12.4844 L75.2397 6.3906 Q75.2397 5.25 75.1851 4.9922 Q75.1304 4.7344 75.021 4.6406 Q74.9116 4.5469 74.7397 4.5469 Q74.5366 4.5469 74.2554 4.6562 L74.1304 4.4062 L76.1304 3.5781 L76.4585 3.5781 ZM82.1104 13.0312 Q81.0791 13.8281 80.8135 13.9531 Q80.4229 14.1406 79.9697 14.1406 Q79.2822 14.1406 78.8291 13.6641 Q78.376 13.1875 78.376 12.4062 Q78.376 11.9219 78.5947 11.5625 Q78.9072 11.0625 79.6494 10.625 Q80.3916 10.1875 82.1104 9.5469 L82.1104 9.2969 Q82.1104 8.2812 81.7979 7.9141 Q81.4854 7.5469 80.876 7.5469 Q80.4072 7.5469 80.1416 7.7812 Q79.8604 8.0312 79.8604 8.3594 L79.876 8.7812 Q79.876 9.125 79.7041 9.3047 Q79.5322 9.4844 79.251 9.4844 Q78.9854 9.4844 78.8135 9.2969 Q78.6416 9.1094 78.6416 8.7812 Q78.6416 8.1406 79.2822 7.6172 Q79.9229 7.0938 81.0947 7.0938 Q81.9854 7.0938 82.5479 7.3906 Q82.9854 7.625 83.1885 8.1094 Q83.3291 8.4219 83.3291 9.3906 L83.3291 11.6719 Q83.3291 12.625 83.3604 12.8438 Q83.3916 13.0625 83.4775 13.1328 Q83.5635 13.2031 83.6729 13.2031 Q83.7979 13.2031 83.876 13.1562 Q84.0322 13.0625 84.4697 12.625 L84.4697 13.0312 Q83.6572 14.125 82.9072 14.125 Q82.5479 14.125 82.3369 13.8828 Q82.126 13.6406 82.1104 13.0312 ZM82.1104 12.5625 L82.1104 10 Q81.0166 10.4375 80.6885 10.625 Q80.1104 10.9531 79.8604 11.3047 Q79.6104 11.6562 79.6104 12.0625 Q79.6104 12.5938 79.9229 12.9453 Q80.2354 13.2969 80.6572 13.2969 Q81.2041 13.2969 82.1104 12.5625 ZM86.9243 5.0938 L86.9243 7.2969 L88.4868 7.2969 L88.4868 7.7969 L86.9243 7.7969 L86.9243 12.1562 Q86.9243 12.8125 87.1118 13.0391 Q87.2993 13.2656 87.5806 13.2656 Q87.8306 13.2656 88.0571 13.1094 Q88.2837 12.9531 88.4087 12.6719 L88.6899 12.6719 Q88.4399 13.3906 87.9712 13.75 Q87.5024 14.1094 87.0024 14.1094 Q86.6587 14.1094 86.3384 13.9219 Q86.0181 13.7344 85.8618 13.3906 Q85.7056 13.0469 85.7056 12.3125 L85.7056 7.7969 L84.6431 7.7969 L84.6431 7.5625 Q85.0493 7.4062 85.4712 7.0156 Q85.8931 6.625 86.2212 6.1094 Q86.3931 5.8281 86.6899 5.0938 L86.9243 5.0938 ZM92.4199 7.0938 Q93.9512 7.0938 94.873 8.25 Q95.6543 9.2344 95.6543 10.5156 Q95.6543 11.4219 95.2168 12.3438 Q94.7793 13.2656 94.0215 13.7344 Q93.2637 14.2031 92.3418 14.2031 Q90.8262 14.2031 89.9355 13 Q89.1699 11.9844 89.1699 10.7188 Q89.1699 9.7812 89.6309 8.875 Q90.0918 7.9688 90.8418 7.5312 Q91.5918 7.0938 92.4199 7.0938 ZM92.1855 7.5625 Q91.8105 7.5625 91.4121 7.7969 Q91.0137 8.0312 90.7793 8.6094 Q90.5449 9.1875 90.5449 10.0938 Q90.5449 11.5625 91.123 12.625 Q91.7012 13.6875 92.6543 13.6875 Q93.3574 13.6875 93.8262 13.1016 Q94.2949 12.5156 94.2949 11.0781 Q94.2949 9.2969 93.5137 8.2656 Q92.998 7.5625 92.1855 7.5625 ZM98.6074 7.0938 L98.6074 8.6094 Q99.4512 7.0938 100.3262 7.0938 Q100.7324 7.0938 100.998 7.3359 Q101.2637 7.5781 101.2637 7.9062 Q101.2637 8.1875 101.0684 8.3906 Q100.873 8.5938 100.623 8.5938 Q100.3574 8.5938 100.0371 8.3359 Q99.7168 8.0781 99.5762 8.0781 Q99.4355 8.0781 99.2793 8.2344 Q98.9512 8.5312 98.6074 9.2188 L98.6074 12.4375 Q98.6074 12.9844 98.748 13.2812 Q98.8418 13.4688 99.084 13.6016 Q99.3262 13.7344 99.7793 13.7344 L99.7793 14 L96.3418 14 L96.3418 13.7344 Q96.8574 13.7344 97.1074 13.5781 Q97.2793 13.4531 97.3574 13.2031 Q97.3887 13.0781 97.3887 12.4844 L97.3887 9.8906 Q97.3887 8.7188 97.3418 8.4922 Q97.2949 8.2656 97.1699 8.1641 Q97.0449 8.0625 96.8574 8.0625 Q96.623 8.0625 96.3418 8.1719 L96.2637 7.9062 L98.2949 7.0938 L98.6074 7.0938 ZM110.1182 13.25 Q109.6338 13.7656 109.165 13.9844 Q108.6963 14.2031 108.1494 14.2031 Q107.0557 14.2031 106.2354 13.2812 Q105.415 12.3594 105.415 10.9219 Q105.415 9.4844 106.3213 8.2812 Q107.2275 7.0781 108.665 7.0781 Q109.54 7.0781 110.1182 7.6562 L110.1182 6.4062 Q110.1182 5.2656 110.0635 5 Q110.0088 4.7344 109.8916 4.6406 Q109.7744 4.5469 109.6025 4.5469 Q109.415 4.5469 109.1025 4.6562 L109.0088 4.4062 L111.0088 3.5781 L111.3369 3.5781 L111.3369 11.3438 Q111.3369 12.5156 111.3916 12.7812 Q111.4463 13.0469 111.5635 13.1484 Q111.6807 13.25 111.8369 13.25 Q112.04 13.25 112.3682 13.125 L112.4463 13.375 L110.4619 14.2031 L110.1182 14.2031 L110.1182 13.25 ZM110.1182 12.7344 L110.1182 9.2812 Q110.0713 8.7812 109.8525 8.3672 Q109.6338 7.9531 109.2744 7.75 Q108.915 7.5469 108.5713 7.5469 Q107.9307 7.5469 107.415 8.125 Q106.7588 8.875 106.7588 10.3438 Q106.7588 11.8281 107.3994 12.6172 Q108.04 13.4062 108.8369 13.4062 Q109.4932 13.4062 110.1182 12.7344 ZM116.6807 13.0312 Q115.6494 13.8281 115.3838 13.9531 Q114.9932 14.1406 114.54 14.1406 Q113.8525 14.1406 113.3994 13.6641 Q112.9463 13.1875 112.9463 12.4062 Q112.9463 11.9219 113.165 11.5625 Q113.4775 11.0625 114.2197 10.625 Q114.9619 10.1875 116.6807 9.5469 L116.6807 9.2969 Q116.6807 8.2812 116.3682 7.9141 Q116.0557 7.5469 115.4463 7.5469 Q114.9775 7.5469 114.7119 7.7812 Q114.4307 8.0312 114.4307 8.3594 L114.4463 8.7812 Q114.4463 9.125 114.2744 9.3047 Q114.1025 9.4844 113.8213 9.4844 Q113.5557 9.4844 113.3838 9.2969 Q113.2119 9.1094 113.2119 8.7812 Q113.2119 8.1406 113.8525 7.6172 Q114.4932 7.0938 115.665 7.0938 Q116.5557 7.0938 117.1182 7.3906 Q117.5557 7.625 117.7588 8.1094 Q117.8994 8.4219 117.8994 9.3906 L117.8994 11.6719 Q117.8994 12.625 117.9307 12.8438 Q117.9619 13.0625 118.0479 13.1328 Q118.1338 13.2031 118.2432 13.2031 Q118.3682 13.2031 118.4463 13.1562 Q118.6025 13.0625 119.04 12.625 L119.04 13.0312 Q118.2275 14.125 117.4775 14.125 Q117.1182 14.125 116.9072 13.8828 Q116.6963 13.6406 116.6807 13.0312 ZM116.6807 12.5625 L116.6807 10 Q115.5869 10.4375 115.2588 10.625 Q114.6807 10.9531 114.4307 11.3047 Q114.1807 11.6562 114.1807 12.0625 Q114.1807 12.5938 114.4932 12.9453 Q114.8057 13.2969 115.2275 13.2969 Q115.7744 13.2969 116.6807 12.5625 ZM121.4946 5.0938 L121.4946 7.2969 L123.0571 7.2969 L123.0571 7.7969 L121.4946 7.7969 L121.4946 12.1562 Q121.4946 12.8125 121.6821 13.0391 Q121.8696 13.2656 122.1509 13.2656 Q122.4009 13.2656 122.6274 13.1094 Q122.854 12.9531 122.979 12.6719 L123.2603 12.6719 Q123.0103 13.3906 122.5415 13.75 Q122.0728 14.1094 121.5728 14.1094 Q121.229 14.1094 120.9087 13.9219 Q120.5884 13.7344 120.4321 13.3906 Q120.2759 13.0469 120.2759 12.3125 L120.2759 7.7969 L119.2134 7.7969 L119.2134 7.5625 Q119.6196 7.4062 120.0415 7.0156 Q120.4634 6.625 120.7915 6.1094 Q120.9634 5.8281 121.2603 5.0938 L121.4946 5.0938 ZM127.5059 13.0312 Q126.4746 13.8281 126.209 13.9531 Q125.8184 14.1406 125.3652 14.1406 Q124.6777 14.1406 124.2246 13.6641 Q123.7715 13.1875 123.7715 12.4062 Q123.7715 11.9219 123.9902 11.5625 Q124.3027 11.0625 125.0449 10.625 Q125.7871 10.1875 127.5059 9.5469 L127.5059 9.2969 Q127.5059 8.2812 127.1934 7.9141 Q126.8809 7.5469 126.2715 7.5469 Q125.8027 7.5469 125.5371 7.7812 Q125.2559 8.0312 125.2559 8.3594 L125.2715 8.7812 Q125.2715 9.125 125.0996 9.3047 Q124.9277 9.4844 124.6465 9.4844 Q124.3809 9.4844 124.209 9.2969 Q124.0371 9.1094 124.0371 8.7812 Q124.0371 8.1406 124.6777 7.6172 Q125.3184 7.0938 126.4902 7.0938 Q127.3809 7.0938 127.9434 7.3906 Q128.3809 7.625 128.584 8.1094 Q128.7246 8.4219 128.7246 9.3906 L128.7246 11.6719 Q128.7246 12.625 128.7559 12.8438 Q128.7871 13.0625 128.873 13.1328 Q128.959 13.2031 129.0684 13.2031 Q129.1934 13.2031 129.2715 13.1562 Q129.4277 13.0625 129.8652 12.625 L129.8652 13.0312 Q129.0527 14.125 128.3027 14.125 Q127.9434 14.125 127.7324 13.8828 Q127.5215 13.6406 127.5059 13.0312 ZM127.5059 12.5625 L127.5059 10 Q126.4121 10.4375 126.084 10.625 Q125.5059 10.9531 125.2559 11.3047 Q125.0059 11.6562 125.0059 12.0625 Q125.0059 12.5938 125.3184 12.9453 Q125.6309 13.2969 126.0527 13.2969 Q126.5996 13.2969 127.5059 12.5625 Z"
                  style="stroke:none; clip-path:url(#clipPath9);"/>
        </g>
        <g style="text-rendering:optimizeLegibility; font-size:13px; font-family:'Times New Roman'; color-interpolation:linearRGB; color-rendering:optimizeQuality; image-rendering:optimizeQuality;">
            <rect x="86" y="286" width="245"
                  style="fill:none; clip-path:url(#clipPath1);" height="20"/>
        </g>
        <g style="stroke-linecap:butt; font-size:13px; fill:rgb(165,165,165); text-rendering:optimizeLegibility; image-rendering:optimizeQuality; color-rendering:optimizeQuality; font-family:'Times New Roman'; stroke-linejoin:round; stroke-dasharray:2,5; stroke:rgb(165,165,165); color-interpolation:linearRGB;"
           transform="translate(5,5)">
            <path d="M94 236 L402.9876 236"
                  style="fill:none; clip-path:url(#clipPath10);"/>
            <path d="M94 209.6839 L402.9876 209.6839"
                  style="fill:none; clip-path:url(#clipPath10);"/>
            <path d="M94 183.3677 L402.9876 183.3677"
                  style="fill:none; clip-path:url(#clipPath10);"/>
            <path d="M94 157.0516 L402.9876 157.0516"
                  style="fill:none; clip-path:url(#clipPath10);"/>
            <path d="M94 130.7355 L402.9876 130.7355"
                  style="fill:none; clip-path:url(#clipPath10);"/>
            <path d="M94 104.4194 L402.9876 104.4194"
                  style="fill:none; clip-path:url(#clipPath10);"/>
            <path d="M94 78.1032 L402.9876 78.1032"
                  style="fill:none; clip-path:url(#clipPath10);"/>
            <path d="M94 51.7871 L402.9876 51.7871"
                  style="fill:none; clip-path:url(#clipPath10);"/>
            <path d="M94 25.471 L402.9876 25.471"
                  style="fill:none; clip-path:url(#clipPath10);"/>
            <path d="M94 222.8419 L402.9876 222.8419"
                  style="fill:none; clip-path:url(#clipPath10); stroke:rgb(233,233,233);"/>
            <path d="M94 196.5258 L402.9876 196.5258"
                  style="fill:none; clip-path:url(#clipPath10); stroke:rgb(233,233,233);"/>
            <path d="M94 170.2097 L402.9876 170.2097"
                  style="fill:none; clip-path:url(#clipPath10); stroke:rgb(233,233,233);"/>
            <path d="M94 143.8936 L402.9876 143.8936"
                  style="fill:none; clip-path:url(#clipPath10); stroke:rgb(233,233,233);"/>
            <path d="M94 117.5774 L402.9876 117.5774"
                  style="fill:none; clip-path:url(#clipPath10); stroke:rgb(233,233,233);"/>
            <path d="M94 91.2613 L402.9876 91.2613"
                  style="fill:none; clip-path:url(#clipPath10); stroke:rgb(233,233,233);"/>
            <path d="M94 64.9452 L402.9876 64.9452"
                  style="fill:none; clip-path:url(#clipPath10); stroke:rgb(233,233,233);"/>
            <path d="M94 38.629 L402.9876 38.629"
                  style="fill:none; clip-path:url(#clipPath10); stroke:rgb(233,233,233);"/>
            <path d="M94 12.3129 L402.9876 12.3129"
                  style="fill:none; clip-path:url(#clipPath10); stroke:rgb(233,233,233);"/>
        </g>
        <g style="stroke-linecap:butt; font-size:13px; fill:rgb(0,116,204); text-rendering:optimizeLegibility; image-rendering:optimizeQuality; color-rendering:optimizeQuality; font-family:'Times New Roman'; stroke-linejoin:round; stroke:rgb(0,116,204); color-interpolation:linearRGB; stroke-width:1.5;"
           transform="translate(5,5)">
            <path d="M96 236 L97.5249 234.893 L99.0499 233.7852 L100.5748 232.6766 L102.0998 231.5673 L103.6247 230.4572 L105.1496 229.3463 L106.6746 228.2348 L108.1995 227.1225 L109.7244 226.0095 L111.2494 224.8958 L112.7743 223.7814 L114.2993 222.6663 L115.8242 221.5506 L117.3491 220.4342 L118.8741 219.3172 L120.399 218.1995 L121.9239 217.0812 L123.4489 215.9622 L124.9738 214.8427 L126.4988 213.7226 L128.0237 212.6018 L129.5486 211.4805 L131.0736 210.3586 L132.5985 209.2361 L134.1234 208.1131 L135.6484 206.9895 L137.1733 205.8654 L138.6983 204.7407 L140.2232 203.6155 L141.7481 202.4898 L143.2731 201.3636 L144.798 200.2368 L146.323 199.1096 L147.8479 197.9819 L149.3728 196.8537 L150.8978 195.725 L152.4227 194.5959 L153.9476 193.4663 L155.4726 192.3362 L156.9975 191.2057 L158.5225 190.0748 L160.0474 188.9434 L161.5723 187.8116 L163.0973 186.6794 L164.6222 185.5468 L166.1472 184.4137 L167.6721 183.2803 L169.197 182.1464 L170.722 181.0122 L172.2469 179.8775 L173.7718 178.7426 L175.2968 177.6072 L176.8217 176.4714 L178.3466 175.3353 L179.8716 174.1989 L181.3965 173.0616 L182.9214 171.9233 L184.4464 170.7838 L185.9713 169.6434 L187.4963 168.5019 L189.0212 167.3594 L190.5461 166.2159 L192.0711 165.0714 L193.596 163.9259 L195.121 162.7794 L196.6459 161.632 L198.1708 160.4837 L199.6958 159.3345 L201.2207 158.1843 L202.7457 157.0332 L204.2706 155.8813 L205.7955 154.7285 L207.3205 153.5748 L208.8454 152.4203 L210.3703 151.2649 L211.8953 150.1088 L213.4202 148.9518 L214.9452 147.794 L216.4701 146.6354 L217.995 145.476 L219.52 144.3159 L221.0449 143.155 L222.5698 141.9934 L224.0948 140.831 L225.6197 139.668 L227.1447 138.5042 L228.6696 137.3397 L230.1945 136.1745 L231.7195 135.0086 L233.2444 133.8421 L234.7693 132.6749 L236.2943 131.507 L237.8192 130.3385 L239.3442 129.1694 L240.8691 127.9996 L242.394 126.8293 L243.919 125.6583 L245.4439 124.4867 L246.9689 123.3146 L248.4938 122.1418 L250.0187 120.9685 L251.5437 119.7946 L253.0686 118.6202 L254.5935 117.4452 L256.1185 116.2697 L257.6434 115.0937 L259.1684 113.9171 L260.6933 112.74 L262.2182 111.5624 L263.7432 110.3843 L265.2681 109.2057 L266.793 108.0267 L268.318 106.8471 L269.8429 105.6671 L271.3679 104.4866 L272.8928 103.3057 L274.4177 102.1243 L275.9427 100.9425 L277.4676 99.7602 L278.9926 98.5775 L280.5175 97.3944 L282.0424 96.2108 L283.5674 95.0269 L285.0923 93.8425 L286.6172 92.6578 L288.1422 91.4726 L289.6671 90.2871 L291.192 89.1012 L292.717 87.9149 L294.2419 86.7282 L295.7668 85.5412 L297.2918 84.3538 L298.8167 83.1661 L300.3417 81.978 L301.8666 80.7896 L303.3915 79.6008 L304.9165 78.4117 L306.4414 77.2223 L307.9664 76.0325 L309.4913 74.8424 L311.0162 73.6521 L312.5412 72.4613 L314.0661 71.2704 L315.5911 70.0791 L317.116 68.8875 L318.6409 67.6956 L320.1659 66.5034 L321.6908 65.311 L323.2158 64.1183 L324.7407 62.9252 L326.2656 61.732 L327.7906 60.5385 L329.3155 59.3447 L330.8404 58.1506 L332.3654 56.9563 L333.8903 55.7618 L335.4153 54.567 L336.9402 53.3719 L338.4651 52.1766 L339.9901 50.9811 L341.515 49.7854 L343.0399 48.5894 L344.5649 47.3932 L346.0898 46.1968 L347.6147 45.0002 L349.1397 43.8034 L350.6646 42.6063 L352.1895 41.409 L353.7145 40.2116 L355.2394 39.0139 L356.7644 37.8161 L358.2893 36.618 L359.8143 35.4197 L361.3392 34.2213 L362.8641 33.0227 L364.3891 31.8239 L365.914 30.6249 L367.4389 29.4257 L368.9639 28.2264 L370.4888 27.0269 L372.0138 25.8272 L373.5387 24.6273 L375.0636 23.4273 L376.5886 22.2272 L378.1135 21.0268 L379.6385 19.8263 L381.1634 18.6257 L382.6883 17.4249 L384.2133 16.2239 L385.7382 15.0228 L387.2631 13.8216 L388.7881 12.6202 L390.313 11.4187 L391.838 10.217 L393.3629 9.0152 L394.8878 7.8133 L396.4128 6.6112 L397.9377 5.409 L399.4626 4.2067 L400.9876 3.0043"
                  style="fill:none; clip-path:url(#clipPath11);"/>
        </g>
        <g style="stroke-linecap:butt; font-size:13px; fill:rgb(204,0,116); text-rendering:optimizeLegibility; image-rendering:optimizeQuality; color-rendering:optimizeQuality; font-family:'Times New Roman'; stroke-linejoin:round; stroke:rgb(204,0,116); color-interpolation:linearRGB; stroke-width:1.5;"
           transform="translate(5,5)">
            <path d="M96 236 L97.5249 234.8926 L99.0499 233.7846 L100.5748 232.6759 L102.0998 231.5667 L103.6247 230.4568 L105.1496 229.3463 L106.6746 228.2351 L108.1995 227.1234 L109.7244 226.0109 L111.2494 224.8979 L112.7743 223.7843 L114.2993 222.6701 L115.8242 221.5554 L117.3491 220.4401 L118.8741 219.3242 L120.399 218.2078 L121.9239 217.0909 L123.4489 215.9734 L124.9738 214.8555 L126.4988 213.7371 L128.0237 212.6181 L129.5486 211.4987 L131.0736 210.3788 L132.5985 209.2584 L134.1234 208.1376 L135.6484 207.0164 L137.1733 205.8948 L138.6983 204.7727 L140.2232 203.6502 L141.7481 202.5273 L143.2731 201.4041 L144.798 200.2804 L146.323 199.1564 L147.8479 198.0319 L149.3728 196.907 L150.8978 195.7817 L152.4227 194.6562 L153.9476 193.5302 L155.4726 192.4037 L156.9975 191.277 L158.5225 190.1499 L160.0474 189.0224 L161.5723 187.8945 L163.0973 186.7664 L164.6222 185.6379 L166.1472 184.5091 L167.6721 183.3799 L169.197 182.2505 L170.722 181.1207 L172.2469 179.9907 L173.7718 178.8603 L175.2968 177.7297 L176.8217 176.5987 L178.3466 175.4674 L179.8716 174.3358 L181.3965 173.2035 L182.9214 172.0707 L184.4464 170.9374 L185.9713 169.8034 L187.4963 168.669 L189.0212 167.534 L190.5461 166.3984 L192.0711 165.2623 L193.596 164.1257 L195.121 162.9884 L196.6459 161.8506 L198.1708 160.7122 L199.6958 159.5731 L201.2207 158.4334 L202.7457 157.2931 L204.2706 156.1521 L205.7955 155.0105 L207.3205 153.8683 L208.8454 152.7254 L210.3703 151.5819 L211.8953 150.4378 L213.4202 149.2932 L214.9452 148.1479 L216.4701 147.002 L217.995 145.8556 L219.52 144.7086 L221.0449 143.5611 L222.5698 142.413 L224.0948 141.2644 L225.6197 140.1152 L227.1447 138.9655 L228.6696 137.8152 L230.1945 136.6645 L231.7195 135.5132 L233.2444 134.3615 L234.7693 133.2093 L236.2943 132.0565 L237.8192 130.9033 L239.3442 129.7496 L240.8691 128.5953 L242.394 127.4407 L243.919 126.2856 L245.4439 125.13 L246.9689 123.9739 L248.4938 122.8175 L250.0187 121.6606 L251.5437 120.5032 L253.0686 119.3454 L254.5935 118.1872 L256.1185 117.0286 L257.6434 115.8696 L259.1684 114.7101 L260.6933 113.5503 L262.2182 112.39 L263.7432 111.2293 L265.2681 110.0682 L266.793 108.9067 L268.318 107.7449 L269.8429 106.5826 L271.3679 105.42 L272.8928 104.2569 L274.4177 103.0935 L275.9427 101.9298 L277.4676 100.7657 L278.9926 99.6012 L280.5175 98.4363 L282.0424 97.2711 L283.5674 96.1055 L285.0923 94.9397 L286.6172 93.7734 L288.1422 92.6069 L289.6671 91.4401 L291.192 90.273 L292.717 89.1055 L294.2419 87.9376 L295.7668 86.7695 L297.2918 85.601 L298.8167 84.4323 L300.3417 83.2632 L301.8666 82.0939 L303.3915 80.9243 L304.9165 79.7543 L306.4414 78.584 L307.9664 77.4135 L309.4913 76.2427 L311.0162 75.0716 L312.5412 73.9002 L314.0661 72.7286 L315.5911 71.5566 L317.116 70.3844 L318.6409 69.212 L320.1659 68.0392 L321.6908 66.8663 L323.2158 65.6929 L324.7407 64.5194 L326.2656 63.3456 L327.7906 62.1716 L329.3155 60.9974 L330.8404 59.8229 L332.3654 58.6481 L333.8903 57.4731 L335.4153 56.2979 L336.9402 55.1224 L338.4651 53.9467 L339.9901 52.7708 L341.515 51.5947 L343.0399 50.4183 L344.5649 49.2417 L346.0898 48.0649 L347.6147 46.8878 L349.1397 45.7105 L350.6646 44.533 L352.1895 43.3552 L353.7145 42.1772 L355.2394 40.9991 L356.7644 39.8207 L358.2893 38.6422 L359.8143 37.4634 L361.3392 36.2845 L362.8641 35.1053 L364.3891 33.926 L365.914 32.7464 L367.4389 31.5667 L368.9639 30.3868 L370.4888 29.2068 L372.0138 28.0265 L373.5387 26.8461 L375.0636 25.6655 L376.5886 24.4847 L378.1135 23.3038 L379.6385 22.1227 L381.1634 20.9414 L382.6883 19.76 L384.2133 18.5784 L385.7382 17.3967 L387.2631 16.2148 L388.7881 15.0327 L390.313 13.8505 L391.838 12.6682 L393.3629 11.4856 L394.8878 10.303 L396.4128 9.1202 L397.9377 7.9372 L399.4626 6.7541 L400.9876 5.5708"
                  style="fill:none; clip-path:url(#clipPath11);"/>
        </g>
        <g transform="translate(5,5)"
           style="stroke-linecap:butt; font-size:13px; text-rendering:optimizeLegibility; image-rendering:optimizeQuality; color-rendering:optimizeQuality; font-family:'Times New Roman'; stroke-linejoin:round; color-interpolation:linearRGB;">
            <path d="M94 238 L402.9876 238"
                  style="fill:none; clip-path:url(#clipPath10);"/>
            <path d="M94 1.0043 L402.9876 1.0043"
                  style="fill:none; clip-path:url(#clipPath10);"/>
        </g>
        <g transform="translate(5,5)"
           style="stroke-linecap:butt; font-size:13px; text-rendering:optimizeLegibility; image-rendering:optimizeQuality; color-rendering:optimizeQuality; font-family:'Times New Roman'; stroke-linejoin:round; color-interpolation:linearRGB;">
            <path d="M240.1562 263.9844 L239.5469 266.1094 L240.7812 266.1094 L240.6406 266.6094 L239.4219 266.6094 L238.0781 271.2188 Q237.8594 271.9531 237.8594 272.1719 Q237.8594 272.3125 237.9219 272.3828 Q237.9844 272.4531 238.0781 272.4531 Q238.2656 272.4531 238.5938 272.1719 Q238.7812 272.0156 239.4219 271.2188 L239.6875 271.4062 Q238.9688 272.4531 238.3281 272.8906 Q237.8906 273.1875 237.4375 273.1875 Q237.0938 273.1875 236.875 272.9688 Q236.6562 272.75 236.6562 272.4219 Q236.6562 272 236.9062 271.125 L238.2188 266.6094 L237.0312 266.6094 L237.1094 266.2969 Q237.9688 266.0625 238.5391 265.6016 Q239.1094 265.1406 239.8125 263.9844 L240.1562 263.9844 Z"
                  style="stroke:none; clip-path:url(#clipPath12);"/>
            <path d="M249.75 276.1719 L246.3125 276.1719 L246.3125 262.1562 L249.75 262.1562 L249.75 262.7812 L247.4844 262.7812 L247.4844 275.5625 L249.75 275.5625 L249.75 276.1719 ZM255.4531 265.625 L255.4531 268.0625 L255.2031 268.0625 Q254.9062 266.9219 254.4375 266.5078 Q253.9688 266.0938 253.25 266.0938 Q252.7031 266.0938 252.3672 266.3828 Q252.0312 266.6719 252.0312 267.0156 Q252.0312 267.4531 252.2812 267.7656 Q252.5312 268.0938 253.2656 268.4531 L254.4062 269 Q256 269.7812 256 271.0469 Q256 272.0156 255.2578 272.6172 Q254.5156 273.2188 253.6094 273.2188 Q252.9531 273.2188 252.1094 272.9844 Q251.8438 272.9062 251.6875 272.9062 Q251.5 272.9062 251.4062 273.1094 L251.1406 273.1094 L251.1406 270.5469 L251.4062 270.5469 Q251.625 271.6406 252.2422 272.1953 Q252.8594 272.75 253.625 272.75 Q254.1562 272.75 254.5 272.4375 Q254.8438 272.125 254.8438 271.6719 Q254.8438 271.1406 254.4609 270.7734 Q254.0781 270.4062 252.9453 269.8438 Q251.8125 269.2812 251.4688 268.8281 Q251.1094 268.375 251.1094 267.7031 Q251.1094 266.8125 251.7188 266.2188 Q252.3281 265.625 253.2812 265.625 Q253.7031 265.625 254.3125 265.8125 Q254.7031 265.9219 254.8438 265.9219 Q254.9688 265.9219 255.0391 265.8672 Q255.1094 265.8125 255.2031 265.625 L255.4531 265.625 ZM257.1484 262.1562 L260.5859 262.1562 L260.5859 276.1875 L257.1484 276.1875 L257.1484 275.5625 L259.4141 275.5625 L259.4141 262.7812 L257.1484 262.7812 L257.1484 262.1562 Z"
                  style="clip-path:url(#clipPath12); stroke:none;"/>
        </g>
        <g transform="translate(5,5)"
           style="font-size:13px; text-rendering:optimizeLegibility; color-rendering:optimizeQuality; image-rendering:optimizeQuality; font-family:'Times New Roman'; color-interpolation:linearRGB;">
            <path d="M96 238 L96 241.675"
                  style="fill:none; clip-path:url(#clipPath10);"/>
            <path d="M97.5781 255.7656 Q97.5781 253.9531 98.125 252.6406 Q98.6719 251.3281 99.5781 250.6875 Q100.2812 250.1875 101.0312 250.1875 Q102.25 250.1875 103.2188 251.4219 Q104.4375 252.9688 104.4375 255.5938 Q104.4375 257.4375 103.9062 258.7266 Q103.375 260.0156 102.5469 260.6016 Q101.7188 261.1875 100.9531 261.1875 Q99.4375 261.1875 98.4375 259.3906 Q97.5781 257.8906 97.5781 255.7656 ZM99.1094 255.9531 Q99.1094 258.1406 99.6562 259.5312 Q100.0938 260.6875 100.9844 260.6875 Q101.4062 260.6875 101.8594 260.3125 Q102.3125 259.9375 102.5469 259.0469 Q102.9062 257.7031 102.9062 255.25 Q102.9062 253.4375 102.5312 252.2344 Q102.25 251.3281 101.7969 250.9531 Q101.4844 250.7031 101.0312 250.7031 Q100.5 250.7031 100.0781 251.1719 Q99.5156 251.8281 99.3125 253.2188 Q99.1094 254.6094 99.1094 255.9531 Z"
                  style="clip-path:url(#clipPath13); stroke:none;"
                  transform="translate(-5,-5)"/>
        </g>
        <g transform="translate(5,5)"
           style="font-size:13px; text-rendering:optimizeLegibility; color-rendering:optimizeQuality; image-rendering:optimizeQuality; font-family:'Times New Roman'; color-interpolation:linearRGB;">
            <path d="M156.9975 238 L156.9975 241.675"
                  style="fill:none; clip-path:url(#clipPath10);"/>
            <path d="M164.3438 258.9531 L163.5938 261 L157.3438 261 L157.3438 260.7031 Q160.1094 258.1875 161.2344 256.5938 Q162.3594 255 162.3594 253.6875 Q162.3594 252.6719 161.7422 252.0234 Q161.125 251.375 160.2656 251.375 Q159.4844 251.375 158.8594 251.8359 Q158.2344 252.2969 157.9375 253.1719 L157.6562 253.1719 Q157.8438 251.7344 158.6562 250.9609 Q159.4688 250.1875 160.6719 250.1875 Q161.9688 250.1875 162.8281 251.0156 Q163.6875 251.8438 163.6875 252.9688 Q163.6875 253.7656 163.3125 254.5781 Q162.7344 255.8438 161.4375 257.25 Q159.5 259.375 159.0156 259.8125 L161.7812 259.8125 Q162.625 259.8125 162.9609 259.75 Q163.2969 259.6875 163.5703 259.5 Q163.8438 259.3125 164.0469 258.9531 L164.3438 258.9531 Z"
                  style="clip-path:url(#clipPath13); stroke:none;"
                  transform="translate(-5,-5)"/>
        </g>
        <g transform="translate(5,5)"
           style="font-size:13px; text-rendering:optimizeLegibility; color-rendering:optimizeQuality; image-rendering:optimizeQuality; font-family:'Times New Roman'; color-interpolation:linearRGB;">
            <path d="M217.995 238 L217.995 241.675"
                  style="fill:none; clip-path:url(#clipPath10);"/>
            <path d="M225.4531 257.0938 L225.4531 258.2031 L224.0312 258.2031 L224.0312 261 L222.7344 261 L222.7344 258.2031 L218.25 258.2031 L218.25 257.2031 L223.1719 250.1875 L224.0312 250.1875 L224.0312 257.0938 L225.4531 257.0938 ZM222.7344 257.0938 L222.7344 251.8281 L219.0156 257.0938 L222.7344 257.0938 Z"
                  style="clip-path:url(#clipPath13); stroke:none;"
                  transform="translate(-5,-5)"/>
        </g>
        <g transform="translate(5,5)"
           style="font-size:13px; text-rendering:optimizeLegibility; color-rendering:optimizeQuality; image-rendering:optimizeQuality; font-family:'Times New Roman'; color-interpolation:linearRGB;">
            <path d="M278.9926 238 L278.9926 241.675"
                  style="fill:none; clip-path:url(#clipPath10);"/>
            <path d="M286.1719 250.1875 L286.1719 250.4688 Q285.1406 250.5781 284.4922 250.8828 Q283.8438 251.1875 283.2031 251.8203 Q282.5625 252.4531 282.1484 253.2344 Q281.7344 254.0156 281.4531 255.0781 Q282.5781 254.3125 283.7031 254.3125 Q284.7969 254.3125 285.5938 255.1875 Q286.3906 256.0625 286.3906 257.4375 Q286.3906 258.7656 285.5781 259.8594 Q284.6094 261.1875 283.0156 261.1875 Q281.9375 261.1875 281.1719 260.4688 Q279.6875 259.0625 279.6875 256.8438 Q279.6875 255.4219 280.2578 254.1406 Q280.8281 252.8594 281.8906 251.8672 Q282.9531 250.875 283.9219 250.5312 Q284.8906 250.1875 285.7188 250.1875 L286.1719 250.1875 ZM281.3125 255.6562 Q281.1719 256.7031 281.1719 257.3594 Q281.1719 258.1094 281.4531 258.9844 Q281.7344 259.8594 282.2812 260.375 Q282.6719 260.75 283.25 260.75 Q283.9219 260.75 284.4609 260.1094 Q285 259.4688 285 258.2812 Q285 256.9375 284.4688 255.9609 Q283.9375 254.9844 282.9531 254.9844 Q282.6562 254.9844 282.3203 255.1094 Q281.9844 255.2344 281.3125 255.6562 Z"
                  style="clip-path:url(#clipPath13); stroke:none;"
                  transform="translate(-5,-5)"/>
        </g>
        <g transform="translate(5,5)"
           style="font-size:13px; text-rendering:optimizeLegibility; color-rendering:optimizeQuality; image-rendering:optimizeQuality; font-family:'Times New Roman'; color-interpolation:linearRGB;">
            <path d="M339.9901 238 L339.9901 241.675"
                  style="fill:none; clip-path:url(#clipPath10);"/>
            <path d="M343.0781 255.6562 Q341.8125 254.625 341.4531 254 Q341.0938 253.375 341.0938 252.7031 Q341.0938 251.6719 341.8906 250.9297 Q342.6875 250.1875 344 250.1875 Q345.2812 250.1875 346.0625 250.8828 Q346.8438 251.5781 346.8438 252.4688 Q346.8438 253.0625 346.4219 253.6797 Q346 254.2969 344.6719 255.125 Q346.0469 256.1875 346.4844 256.7969 Q347.0781 257.5938 347.0781 258.4844 Q347.0781 259.5938 346.2266 260.3906 Q345.375 261.1875 344 261.1875 Q342.4844 261.1875 341.6406 260.2344 Q340.9688 259.4844 340.9688 258.5781 Q340.9688 257.875 341.4453 257.1875 Q341.9219 256.5 343.0781 255.6562 ZM344.2969 254.8281 Q345.2344 253.9844 345.4844 253.4922 Q345.7344 253 345.7344 252.3906 Q345.7344 251.5625 345.2734 251.1016 Q344.8125 250.6406 344.0156 250.6406 Q343.2188 250.6406 342.7188 251.1016 Q342.2188 251.5625 342.2188 252.1719 Q342.2188 252.5781 342.4297 252.9844 Q342.6406 253.3906 343.0156 253.7656 L344.2969 254.8281 ZM343.4375 255.9531 Q342.7969 256.5 342.4844 257.1484 Q342.1719 257.7969 342.1719 258.5469 Q342.1719 259.5469 342.7188 260.1562 Q343.2656 260.7656 344.125 260.7656 Q344.9688 260.7656 345.4766 260.2891 Q345.9844 259.8125 345.9844 259.125 Q345.9844 258.5625 345.6875 258.125 Q345.125 257.2969 343.4375 255.9531 Z"
                  style="clip-path:url(#clipPath13); stroke:none;"
                  transform="translate(-5,-5)"/>
        </g>
        <g transform="translate(5,5)"
           style="font-size:13px; text-rendering:optimizeLegibility; color-rendering:optimizeQuality; image-rendering:optimizeQuality; font-family:'Times New Roman'; color-interpolation:linearRGB;">
            <path d="M400.9876 238 L400.9876 241.675"
                  style="fill:none; clip-path:url(#clipPath10);"/>
            <path d="M398.875 251.4375 L401.4531 250.1875 L401.7188 250.1875 L401.7188 259.125 Q401.7188 260.0156 401.7891 260.2344 Q401.8594 260.4531 402.0938 260.5703 Q402.3281 260.6875 403.0469 260.7031 L403.0469 261 L399.0625 261 L399.0625 260.7031 Q399.8125 260.6875 400.0312 260.5781 Q400.25 260.4688 400.3359 260.2734 Q400.4219 260.0781 400.4219 259.125 L400.4219 253.4062 Q400.4219 252.25 400.3438 251.9219 Q400.2969 251.6719 400.1484 251.5547 Q400 251.4375 399.7969 251.4375 Q399.5156 251.4375 399 251.6875 L398.875 251.4375 ZM405.5781 255.7656 Q405.5781 253.9531 406.125 252.6406 Q406.6719 251.3281 407.5781 250.6875 Q408.2812 250.1875 409.0312 250.1875 Q410.25 250.1875 411.2188 251.4219 Q412.4375 252.9688 412.4375 255.5938 Q412.4375 257.4375 411.9062 258.7266 Q411.375 260.0156 410.5469 260.6016 Q409.7188 261.1875 408.9531 261.1875 Q407.4375 261.1875 406.4375 259.3906 Q405.5781 257.8906 405.5781 255.7656 ZM407.1094 255.9531 Q407.1094 258.1406 407.6562 259.5312 Q408.0938 260.6875 408.9844 260.6875 Q409.4062 260.6875 409.8594 260.3125 Q410.3125 259.9375 410.5469 259.0469 Q410.9062 257.7031 410.9062 255.25 Q410.9062 253.4375 410.5312 252.2344 Q410.25 251.3281 409.7969 250.9531 Q409.4844 250.7031 409.0312 250.7031 Q408.5 250.7031 408.0781 251.1719 Q407.5156 251.8281 407.3125 253.2188 Q407.1094 254.6094 407.1094 255.9531 Z"
                  style="clip-path:url(#clipPath13); stroke:none;"
                  transform="translate(-5,-5)"/>
        </g>
        <g transform="translate(5,5)"
           style="font-size:13px; text-rendering:optimizeLegibility; color-rendering:optimizeQuality; image-rendering:optimizeQuality; font-family:'Times New Roman'; color-interpolation:linearRGB;">
            <path d="M126.4988 238 L126.4988 239.8375"
                  style="fill:none; clip-path:url(#clipPath10);"/>
        </g>
        <g transform="translate(5,5)"
           style="font-size:13px; text-rendering:optimizeLegibility; color-rendering:optimizeQuality; image-rendering:optimizeQuality; font-family:'Times New Roman'; color-interpolation:linearRGB;">
            <path d="M187.4963 238 L187.4963 239.8375"
                  style="fill:none; clip-path:url(#clipPath10);"/>
        </g>
        <g transform="translate(5,5)"
           style="font-size:13px; text-rendering:optimizeLegibility; color-rendering:optimizeQuality; image-rendering:optimizeQuality; font-family:'Times New Roman'; color-interpolation:linearRGB;">
            <path d="M248.4938 238 L248.4938 239.8375"
                  style="fill:none; clip-path:url(#clipPath10);"/>
        </g>
        <g transform="translate(5,5)"
           style="font-size:13px; text-rendering:optimizeLegibility; color-rendering:optimizeQuality; image-rendering:optimizeQuality; font-family:'Times New Roman'; color-interpolation:linearRGB;">
            <path d="M309.4913 238 L309.4913 239.8375"
                  style="fill:none; clip-path:url(#clipPath10);"/>
        </g>
        <g transform="translate(5,5)"
           style="font-size:13px; text-rendering:optimizeLegibility; color-rendering:optimizeQuality; image-rendering:optimizeQuality; font-family:'Times New Roman'; color-interpolation:linearRGB;">
            <path d="M370.4888 238 L370.4888 239.8375"
                  style="fill:none; clip-path:url(#clipPath10);"/>
        </g>
        <g transform="translate(5,5)"
           style="stroke-linecap:butt; font-size:13px; text-rendering:optimizeLegibility; image-rendering:optimizeQuality; color-rendering:optimizeQuality; font-family:'Times New Roman'; stroke-linejoin:round; color-interpolation:linearRGB;">
            <path d="M94 238 L94 1.0043"
                  style="fill:none; clip-path:url(#clipPath10);"/>
            <path d="M402.9876 238 L402.9876 1.0043"
                  style="fill:none; clip-path:url(#clipPath10);"/>
        </g>
        <g transform="translate(5,5)"
           style="stroke-linecap:butt; font-size:13px; text-rendering:optimizeLegibility; image-rendering:optimizeQuality; color-rendering:optimizeQuality; font-family:'Times New Roman'; stroke-linejoin:round; color-interpolation:linearRGB;">
            <path d="M12.8125 117.9219 L12.3281 120.3281 L12.0469 120.3281 Q12 119.2812 11.5938 118.8047 Q11.1875 118.3281 10.5938 118.3281 Q10.1094 118.3281 9.8203 118.5938 Q9.5312 118.8594 9.5312 119.2344 Q9.5312 119.4844 9.6484 119.7188 Q9.7656 119.9531 10.1406 120.375 Q11.1562 121.4844 11.4531 122.0469 Q11.75 122.6094 11.75 123.1094 Q11.75 123.9219 11.0781 124.5547 Q10.4062 125.1875 9.375 125.1875 Q8.8125 125.1875 8.0781 124.9219 Q7.8125 124.8281 7.6719 124.8281 Q7.3281 124.8281 7.1406 125.1875 L6.8438 125.1875 L7.3281 122.6562 L7.625 122.6562 Q7.6719 123.8438 8.1172 124.3359 Q8.5625 124.8281 9.3281 124.8281 Q9.9219 124.8281 10.2734 124.4922 Q10.625 124.1562 10.625 123.6719 Q10.625 123.3594 10.5 123.0938 Q10.2812 122.625 9.5781 121.7969 Q8.875 120.9688 8.6797 120.5547 Q8.4844 120.1406 8.4844 119.7344 Q8.4844 118.9688 9.0312 118.4453 Q9.5781 117.9219 10.4531 117.9219 Q10.7031 117.9219 10.9062 117.9688 Q11.0156 117.9844 11.4141 118.1406 Q11.8125 118.2969 11.9531 118.2969 Q12.2812 118.2969 12.5156 117.9219 L12.8125 117.9219 Z"
                  style="stroke:none; clip-path:url(#clipPath14);"/>
            <path d="M24.1562 115.9844 L23.5469 118.1094 L24.7812 118.1094 L24.6406 118.6094 L23.4219 118.6094 L22.0781 123.2188 Q21.8594 123.9531 21.8594 124.1719 Q21.8594 124.3125 21.9219 124.3828 Q21.9844 124.4531 22.0781 124.4531 Q22.2656 124.4531 22.5938 124.1719 Q22.7812 124.0156 23.4219 123.2188 L23.6875 123.4062 Q22.9688 124.4531 22.3281 124.8906 Q21.8906 125.1875 21.4375 125.1875 Q21.0938 125.1875 20.875 124.9688 Q20.6562 124.75 20.6562 124.4219 Q20.6562 124 20.9062 123.125 L22.2188 118.6094 L21.0312 118.6094 L21.1094 118.2969 Q21.9688 118.0625 22.5391 117.6016 Q23.1094 117.1406 23.8125 115.9844 L24.1562 115.9844 Z"
                  style="clip-path:url(#clipPath14); stroke:none;"/>
            <path d="M3.1007 13.643 L2.8752 14 Q0 12.2148 0 6.86 L0 7 L0 7.14 Q0 1.7664 2.8752 0 L3.1007 0.3383 Q1.8228 1.4282 1.3906 3.4013 Q1.1275 4.6228 1.1275 6.86 L1.1275 7 L1.1275 7.14 Q1.1275 9.3584 1.3906 10.5799 Q1.8228 12.553 3.1007 13.643 Z"
                  style="clip-path:url(#clipPath15); stroke:none;"
                  transform="translate(15,114)"/>
            <path d="M0 0.357 L0.2255 0 Q3.1007 1.7852 3.1007 7.14 L3.1007 7 L3.1007 6.86 Q3.1007 12.2336 0.2255 14 L0 13.6617 Q1.2779 12.5718 1.7101 10.5987 Q1.9732 9.3772 1.9732 7.14 L1.9732 7 L1.9732 6.86 Q1.9732 4.6416 1.7101 3.4201 Q1.2779 1.447 0 0.357 Z"
                  style="clip-path:url(#clipPath16); stroke:none;"
                  transform="translate(26,114)"/>
            <path d="M40.75 128.1719 L37.3125 128.1719 L37.3125 114.1562 L40.75 114.1562 L40.75 114.7812 L38.4844 114.7812 L38.4844 127.5625 L40.75 127.5625 L40.75 128.1719 ZM43.9531 119.1562 Q44.7344 118.375 44.875 118.25 Q45.2344 117.9531 45.6406 117.7891 Q46.0469 117.625 46.4375 117.625 Q47.1094 117.625 47.5938 118.0156 Q48.0781 118.4062 48.25 119.1562 Q49.0469 118.2188 49.6016 117.9219 Q50.1562 117.625 50.75 117.625 Q51.3125 117.625 51.7578 117.9219 Q52.2031 118.2188 52.4531 118.875 Q52.625 119.3281 52.625 120.2969 L52.625 123.375 Q52.625 124.0469 52.7344 124.2969 Q52.8125 124.4688 53.0234 124.5938 Q53.2344 124.7188 53.7031 124.7188 L53.7031 125 L50.1719 125 L50.1719 124.7188 L50.3281 124.7188 Q50.7812 124.7188 51.0469 124.5312 Q51.2188 124.4062 51.2969 124.1406 Q51.3281 124 51.3281 123.375 L51.3281 120.2969 Q51.3281 119.4219 51.125 119.0625 Q50.8125 118.5625 50.1406 118.5625 Q49.7344 118.5625 49.3125 118.7734 Q48.8906 118.9844 48.2969 119.5469 L48.2812 119.625 L48.2969 119.9688 L48.2969 123.375 Q48.2969 124.1094 48.3828 124.2891 Q48.4688 124.4688 48.6953 124.5938 Q48.9219 124.7188 49.4688 124.7188 L49.4688 125 L45.8438 125 L45.8438 124.7188 Q46.4375 124.7188 46.6641 124.5781 Q46.8906 124.4375 46.9688 124.1562 Q47.0156 124.0156 47.0156 123.375 L47.0156 120.2969 Q47.0156 119.4219 46.75 119.0469 Q46.4062 118.5469 45.7969 118.5469 Q45.375 118.5469 44.9531 118.7656 Q44.3125 119.1094 43.9531 119.5469 L43.9531 123.375 Q43.9531 124.0781 44.0547 124.2891 Q44.1562 124.5 44.3438 124.6094 Q44.5312 124.7188 45.125 124.7188 L45.125 125 L41.5781 125 L41.5781 124.7188 Q42.0781 124.7188 42.2734 124.6094 Q42.4688 124.5 42.5703 124.2734 Q42.6719 124.0469 42.6719 123.375 L42.6719 120.6406 Q42.6719 119.4688 42.5938 119.125 Q42.5469 118.8594 42.4297 118.7656 Q42.3125 118.6719 42.1094 118.6719 Q41.8906 118.6719 41.5781 118.7812 L41.4688 118.5 L43.625 117.625 L43.9531 117.625 L43.9531 119.1562 ZM54.3672 114.1562 L57.8047 114.1562 L57.8047 128.1875 L54.3672 128.1875 L54.3672 127.5625 L56.6328 127.5625 L56.6328 114.7812 L54.3672 114.7812 L54.3672 114.1562 Z"
                  style="clip-path:url(#clipPath14); stroke:none;"/>
        </g>
        <g transform="translate(5,5)"
           style="font-size:13px; text-rendering:optimizeLegibility; color-rendering:optimizeQuality; image-rendering:optimizeQuality; font-family:'Times New Roman'; color-interpolation:linearRGB;">
            <path d="M94 236 L90.325 236"
                  style="fill:none; clip-path:url(#clipPath10);"/>
            <path d="M87.5781 241.7656 Q87.5781 239.9531 88.125 238.6406 Q88.6719 237.3281 89.5781 236.6875 Q90.2812 236.1875 91.0312 236.1875 Q92.25 236.1875 93.2188 237.4219 Q94.4375 238.9688 94.4375 241.5938 Q94.4375 243.4375 93.9062 244.7266 Q93.375 246.0156 92.5469 246.6016 Q91.7188 247.1875 90.9531 247.1875 Q89.4375 247.1875 88.4375 245.3906 Q87.5781 243.8906 87.5781 241.7656 ZM89.1094 241.9531 Q89.1094 244.1406 89.6562 245.5312 Q90.0938 246.6875 90.9844 246.6875 Q91.4062 246.6875 91.8594 246.3125 Q92.3125 245.9375 92.5469 245.0469 Q92.9062 243.7031 92.9062 241.25 Q92.9062 239.4375 92.5312 238.2344 Q92.25 237.3281 91.7969 236.9531 Q91.4844 236.7031 91.0312 236.7031 Q90.5 236.7031 90.0781 237.1719 Q89.5156 237.8281 89.3125 239.2188 Q89.1094 240.6094 89.1094 241.9531 Z"
                  style="clip-path:url(#clipPath13); stroke:none;"
                  transform="translate(-5,-5)"/>
        </g>
        <g transform="translate(5,5)"
           style="font-size:13px; text-rendering:optimizeLegibility; color-rendering:optimizeQuality; image-rendering:optimizeQuality; font-family:'Times New Roman'; color-interpolation:linearRGB;">
            <path d="M94 209.6839 L90.325 209.6839"
                  style="fill:none; clip-path:url(#clipPath10);"/>
            <path d="M72.875 210.4375 L75.4531 209.1875 L75.7188 209.1875 L75.7188 218.125 Q75.7188 219.0156 75.7891 219.2344 Q75.8594 219.4531 76.0938 219.5703 Q76.3281 219.6875 77.0469 219.7031 L77.0469 220 L73.0625 220 L73.0625 219.7031 Q73.8125 219.6875 74.0312 219.5781 Q74.25 219.4688 74.3359 219.2734 Q74.4219 219.0781 74.4219 218.125 L74.4219 212.4062 Q74.4219 211.25 74.3438 210.9219 Q74.2969 210.6719 74.1484 210.5547 Q74 210.4375 73.7969 210.4375 Q73.5156 210.4375 73 210.6875 L72.875 210.4375 ZM79.5781 214.7656 Q79.5781 212.9531 80.125 211.6406 Q80.6719 210.3281 81.5781 209.6875 Q82.2812 209.1875 83.0312 209.1875 Q84.25 209.1875 85.2188 210.4219 Q86.4375 211.9688 86.4375 214.5938 Q86.4375 216.4375 85.9062 217.7266 Q85.375 219.0156 84.5469 219.6016 Q83.7188 220.1875 82.9531 220.1875 Q81.4375 220.1875 80.4375 218.3906 Q79.5781 216.8906 79.5781 214.7656 ZM81.1094 214.9531 Q81.1094 217.1406 81.6562 218.5312 Q82.0938 219.6875 82.9844 219.6875 Q83.4062 219.6875 83.8594 219.3125 Q84.3125 218.9375 84.5469 218.0469 Q84.9062 216.7031 84.9062 214.25 Q84.9062 212.4375 84.5312 211.2344 Q84.25 210.3281 83.7969 209.9531 Q83.4844 209.7031 83.0312 209.7031 Q82.5 209.7031 82.0781 210.1719 Q81.5156 210.8281 81.3125 212.2188 Q81.1094 213.6094 81.1094 214.9531 ZM87.5781 214.7656 Q87.5781 212.9531 88.125 211.6406 Q88.6719 210.3281 89.5781 209.6875 Q90.2812 209.1875 91.0312 209.1875 Q92.25 209.1875 93.2188 210.4219 Q94.4375 211.9688 94.4375 214.5938 Q94.4375 216.4375 93.9062 217.7266 Q93.375 219.0156 92.5469 219.6016 Q91.7188 220.1875 90.9531 220.1875 Q89.4375 220.1875 88.4375 218.3906 Q87.5781 216.8906 87.5781 214.7656 ZM89.1094 214.9531 Q89.1094 217.1406 89.6562 218.5312 Q90.0938 219.6875 90.9844 219.6875 Q91.4062 219.6875 91.8594 219.3125 Q92.3125 218.9375 92.5469 218.0469 Q92.9062 216.7031 92.9062 214.25 Q92.9062 212.4375 92.5312 211.2344 Q92.25 210.3281 91.7969 209.9531 Q91.4844 209.7031 91.0312 209.7031 Q90.5 209.7031 90.0781 210.1719 Q89.5156 210.8281 89.3125 212.2188 Q89.1094 213.6094 89.1094 214.9531 Z"
                  style="clip-path:url(#clipPath13); stroke:none;"
                  transform="translate(-5,-5)"/>
        </g>
        <g transform="translate(5,5)"
           style="font-size:13px; text-rendering:optimizeLegibility; color-rendering:optimizeQuality; image-rendering:optimizeQuality; font-family:'Times New Roman'; color-interpolation:linearRGB;">
            <path d="M94 183.3677 L90.325 183.3677"
                  style="fill:none; clip-path:url(#clipPath10);"/>
            <path d="M78.3438 191.9531 L77.5938 194 L71.3438 194 L71.3438 193.7031 Q74.1094 191.1875 75.2344 189.5938 Q76.3594 188 76.3594 186.6875 Q76.3594 185.6719 75.7422 185.0234 Q75.125 184.375 74.2656 184.375 Q73.4844 184.375 72.8594 184.8359 Q72.2344 185.2969 71.9375 186.1719 L71.6562 186.1719 Q71.8438 184.7344 72.6562 183.9609 Q73.4688 183.1875 74.6719 183.1875 Q75.9688 183.1875 76.8281 184.0156 Q77.6875 184.8438 77.6875 185.9688 Q77.6875 186.7656 77.3125 187.5781 Q76.7344 188.8438 75.4375 190.25 Q73.5 192.375 73.0156 192.8125 L75.7812 192.8125 Q76.625 192.8125 76.9609 192.75 Q77.2969 192.6875 77.5703 192.5 Q77.8438 192.3125 78.0469 191.9531 L78.3438 191.9531 ZM79.5781 188.7656 Q79.5781 186.9531 80.125 185.6406 Q80.6719 184.3281 81.5781 183.6875 Q82.2812 183.1875 83.0312 183.1875 Q84.25 183.1875 85.2188 184.4219 Q86.4375 185.9688 86.4375 188.5938 Q86.4375 190.4375 85.9062 191.7266 Q85.375 193.0156 84.5469 193.6016 Q83.7188 194.1875 82.9531 194.1875 Q81.4375 194.1875 80.4375 192.3906 Q79.5781 190.8906 79.5781 188.7656 ZM81.1094 188.9531 Q81.1094 191.1406 81.6562 192.5312 Q82.0938 193.6875 82.9844 193.6875 Q83.4062 193.6875 83.8594 193.3125 Q84.3125 192.9375 84.5469 192.0469 Q84.9062 190.7031 84.9062 188.25 Q84.9062 186.4375 84.5312 185.2344 Q84.25 184.3281 83.7969 183.9531 Q83.4844 183.7031 83.0312 183.7031 Q82.5 183.7031 82.0781 184.1719 Q81.5156 184.8281 81.3125 186.2188 Q81.1094 187.6094 81.1094 188.9531 ZM87.5781 188.7656 Q87.5781 186.9531 88.125 185.6406 Q88.6719 184.3281 89.5781 183.6875 Q90.2812 183.1875 91.0312 183.1875 Q92.25 183.1875 93.2188 184.4219 Q94.4375 185.9688 94.4375 188.5938 Q94.4375 190.4375 93.9062 191.7266 Q93.375 193.0156 92.5469 193.6016 Q91.7188 194.1875 90.9531 194.1875 Q89.4375 194.1875 88.4375 192.3906 Q87.5781 190.8906 87.5781 188.7656 ZM89.1094 188.9531 Q89.1094 191.1406 89.6562 192.5312 Q90.0938 193.6875 90.9844 193.6875 Q91.4062 193.6875 91.8594 193.3125 Q92.3125 192.9375 92.5469 192.0469 Q92.9062 190.7031 92.9062 188.25 Q92.9062 186.4375 92.5312 185.2344 Q92.25 184.3281 91.7969 183.9531 Q91.4844 183.7031 91.0312 183.7031 Q90.5 183.7031 90.0781 184.1719 Q89.5156 184.8281 89.3125 186.2188 Q89.1094 187.6094 89.1094 188.9531 Z"
                  style="clip-path:url(#clipPath13); stroke:none;"
                  transform="translate(-5,-5)"/>
        </g>
        <g transform="translate(5,5)"
           style="font-size:13px; text-rendering:optimizeLegibility; color-rendering:optimizeQuality; image-rendering:optimizeQuality; font-family:'Times New Roman'; color-interpolation:linearRGB;">
            <path d="M94 157.0516 L90.325 157.0516"
                  style="fill:none; clip-path:url(#clipPath10);"/>
            <path d="M71.8125 159.4219 Q72.2656 158.3438 72.9609 157.7656 Q73.6562 157.1875 74.6875 157.1875 Q75.9531 157.1875 76.6406 158.0156 Q77.1562 158.625 77.1562 159.3281 Q77.1562 160.4844 75.7031 161.7188 Q76.6719 162.1094 77.1719 162.8203 Q77.6719 163.5312 77.6719 164.4844 Q77.6719 165.8594 76.7969 166.875 Q75.6562 168.1875 73.5 168.1875 Q72.4219 168.1875 72.0391 167.9219 Q71.6562 167.6562 71.6562 167.3438 Q71.6562 167.125 71.8359 166.9531 Q72.0156 166.7812 72.2812 166.7812 Q72.4688 166.7812 72.6719 166.8438 Q72.8125 166.875 73.2812 167.125 Q73.75 167.375 73.9219 167.4219 Q74.2188 167.5 74.5469 167.5 Q75.3438 167.5 75.9297 166.8828 Q76.5156 166.2656 76.5156 165.4219 Q76.5156 164.8125 76.25 164.2188 Q76.0469 163.7812 75.7969 163.5625 Q75.4688 163.25 74.8828 162.9922 Q74.2969 162.7344 73.6875 162.7344 L73.4375 162.7344 L73.4375 162.5 Q74.0469 162.4219 74.6719 162.0547 Q75.2969 161.6875 75.5781 161.1719 Q75.8594 160.6562 75.8594 160.0469 Q75.8594 159.2344 75.3516 158.7422 Q74.8438 158.25 74.0938 158.25 Q72.8906 158.25 72.0781 159.5469 L71.8125 159.4219 ZM79.5781 162.7656 Q79.5781 160.9531 80.125 159.6406 Q80.6719 158.3281 81.5781 157.6875 Q82.2812 157.1875 83.0312 157.1875 Q84.25 157.1875 85.2188 158.4219 Q86.4375 159.9688 86.4375 162.5938 Q86.4375 164.4375 85.9062 165.7266 Q85.375 167.0156 84.5469 167.6016 Q83.7188 168.1875 82.9531 168.1875 Q81.4375 168.1875 80.4375 166.3906 Q79.5781 164.8906 79.5781 162.7656 ZM81.1094 162.9531 Q81.1094 165.1406 81.6562 166.5312 Q82.0938 167.6875 82.9844 167.6875 Q83.4062 167.6875 83.8594 167.3125 Q84.3125 166.9375 84.5469 166.0469 Q84.9062 164.7031 84.9062 162.25 Q84.9062 160.4375 84.5312 159.2344 Q84.25 158.3281 83.7969 157.9531 Q83.4844 157.7031 83.0312 157.7031 Q82.5 157.7031 82.0781 158.1719 Q81.5156 158.8281 81.3125 160.2188 Q81.1094 161.6094 81.1094 162.9531 ZM87.5781 162.7656 Q87.5781 160.9531 88.125 159.6406 Q88.6719 158.3281 89.5781 157.6875 Q90.2812 157.1875 91.0312 157.1875 Q92.25 157.1875 93.2188 158.4219 Q94.4375 159.9688 94.4375 162.5938 Q94.4375 164.4375 93.9062 165.7266 Q93.375 167.0156 92.5469 167.6016 Q91.7188 168.1875 90.9531 168.1875 Q89.4375 168.1875 88.4375 166.3906 Q87.5781 164.8906 87.5781 162.7656 ZM89.1094 162.9531 Q89.1094 165.1406 89.6562 166.5312 Q90.0938 167.6875 90.9844 167.6875 Q91.4062 167.6875 91.8594 167.3125 Q92.3125 166.9375 92.5469 166.0469 Q92.9062 164.7031 92.9062 162.25 Q92.9062 160.4375 92.5312 159.2344 Q92.25 158.3281 91.7969 157.9531 Q91.4844 157.7031 91.0312 157.7031 Q90.5 157.7031 90.0781 158.1719 Q89.5156 158.8281 89.3125 160.2188 Q89.1094 161.6094 89.1094 162.9531 Z"
                  style="clip-path:url(#clipPath13); stroke:none;"
                  transform="translate(-5,-5)"/>
        </g>
        <g transform="translate(5,5)"
           style="font-size:13px; text-rendering:optimizeLegibility; color-rendering:optimizeQuality; image-rendering:optimizeQuality; font-family:'Times New Roman'; color-interpolation:linearRGB;">
            <path d="M94 130.7355 L90.325 130.7355"
                  style="fill:none; clip-path:url(#clipPath10);"/>
            <path d="M78.4531 137.0938 L78.4531 138.2031 L77.0312 138.2031 L77.0312 141 L75.7344 141 L75.7344 138.2031 L71.25 138.2031 L71.25 137.2031 L76.1719 130.1875 L77.0312 130.1875 L77.0312 137.0938 L78.4531 137.0938 ZM75.7344 137.0938 L75.7344 131.8281 L72.0156 137.0938 L75.7344 137.0938 ZM79.5781 135.7656 Q79.5781 133.9531 80.125 132.6406 Q80.6719 131.3281 81.5781 130.6875 Q82.2812 130.1875 83.0312 130.1875 Q84.25 130.1875 85.2188 131.4219 Q86.4375 132.9688 86.4375 135.5938 Q86.4375 137.4375 85.9062 138.7266 Q85.375 140.0156 84.5469 140.6016 Q83.7188 141.1875 82.9531 141.1875 Q81.4375 141.1875 80.4375 139.3906 Q79.5781 137.8906 79.5781 135.7656 ZM81.1094 135.9531 Q81.1094 138.1406 81.6562 139.5312 Q82.0938 140.6875 82.9844 140.6875 Q83.4062 140.6875 83.8594 140.3125 Q84.3125 139.9375 84.5469 139.0469 Q84.9062 137.7031 84.9062 135.25 Q84.9062 133.4375 84.5312 132.2344 Q84.25 131.3281 83.7969 130.9531 Q83.4844 130.7031 83.0312 130.7031 Q82.5 130.7031 82.0781 131.1719 Q81.5156 131.8281 81.3125 133.2188 Q81.1094 134.6094 81.1094 135.9531 ZM87.5781 135.7656 Q87.5781 133.9531 88.125 132.6406 Q88.6719 131.3281 89.5781 130.6875 Q90.2812 130.1875 91.0312 130.1875 Q92.25 130.1875 93.2188 131.4219 Q94.4375 132.9688 94.4375 135.5938 Q94.4375 137.4375 93.9062 138.7266 Q93.375 140.0156 92.5469 140.6016 Q91.7188 141.1875 90.9531 141.1875 Q89.4375 141.1875 88.4375 139.3906 Q87.5781 137.8906 87.5781 135.7656 ZM89.1094 135.9531 Q89.1094 138.1406 89.6562 139.5312 Q90.0938 140.6875 90.9844 140.6875 Q91.4062 140.6875 91.8594 140.3125 Q92.3125 139.9375 92.5469 139.0469 Q92.9062 137.7031 92.9062 135.25 Q92.9062 133.4375 92.5312 132.2344 Q92.25 131.3281 91.7969 130.9531 Q91.4844 130.7031 91.0312 130.7031 Q90.5 130.7031 90.0781 131.1719 Q89.5156 131.8281 89.3125 133.2188 Q89.1094 134.6094 89.1094 135.9531 Z"
                  style="clip-path:url(#clipPath13); stroke:none;"
                  transform="translate(-5,-5)"/>
        </g>
        <g transform="translate(5,5)"
           style="font-size:13px; text-rendering:optimizeLegibility; color-rendering:optimizeQuality; image-rendering:optimizeQuality; font-family:'Times New Roman'; color-interpolation:linearRGB;">
            <path d="M94 104.4194 L90.325 104.4194"
                  style="fill:none; clip-path:url(#clipPath10);"/>
            <path d="M77.9531 104.4062 L77.3438 105.7344 L74.1562 105.7344 L73.4531 107.1562 Q75.5312 107.4531 76.7344 108.6875 Q77.7812 109.75 77.7812 111.1875 Q77.7812 112.0312 77.4375 112.7422 Q77.0938 113.4531 76.5781 113.9531 Q76.0625 114.4531 75.4375 114.75 Q74.5312 115.1875 73.5938 115.1875 Q72.6406 115.1875 72.2031 114.8594 Q71.7656 114.5312 71.7656 114.1406 Q71.7656 113.9219 71.9453 113.7578 Q72.125 113.5938 72.4062 113.5938 Q72.6094 113.5938 72.7578 113.6562 Q72.9062 113.7188 73.2812 113.9688 Q73.8594 114.375 74.4688 114.375 Q75.375 114.375 76.0703 113.6875 Q76.7656 113 76.7656 112 Q76.7656 111.0469 76.1484 110.2109 Q75.5312 109.375 74.4375 108.9219 Q73.5938 108.5781 72.125 108.5156 L74.1562 104.4062 L77.9531 104.4062 ZM79.5781 109.7656 Q79.5781 107.9531 80.125 106.6406 Q80.6719 105.3281 81.5781 104.6875 Q82.2812 104.1875 83.0312 104.1875 Q84.25 104.1875 85.2188 105.4219 Q86.4375 106.9688 86.4375 109.5938 Q86.4375 111.4375 85.9062 112.7266 Q85.375 114.0156 84.5469 114.6016 Q83.7188 115.1875 82.9531 115.1875 Q81.4375 115.1875 80.4375 113.3906 Q79.5781 111.8906 79.5781 109.7656 ZM81.1094 109.9531 Q81.1094 112.1406 81.6562 113.5312 Q82.0938 114.6875 82.9844 114.6875 Q83.4062 114.6875 83.8594 114.3125 Q84.3125 113.9375 84.5469 113.0469 Q84.9062 111.7031 84.9062 109.25 Q84.9062 107.4375 84.5312 106.2344 Q84.25 105.3281 83.7969 104.9531 Q83.4844 104.7031 83.0312 104.7031 Q82.5 104.7031 82.0781 105.1719 Q81.5156 105.8281 81.3125 107.2188 Q81.1094 108.6094 81.1094 109.9531 ZM87.5781 109.7656 Q87.5781 107.9531 88.125 106.6406 Q88.6719 105.3281 89.5781 104.6875 Q90.2812 104.1875 91.0312 104.1875 Q92.25 104.1875 93.2188 105.4219 Q94.4375 106.9688 94.4375 109.5938 Q94.4375 111.4375 93.9062 112.7266 Q93.375 114.0156 92.5469 114.6016 Q91.7188 115.1875 90.9531 115.1875 Q89.4375 115.1875 88.4375 113.3906 Q87.5781 111.8906 87.5781 109.7656 ZM89.1094 109.9531 Q89.1094 112.1406 89.6562 113.5312 Q90.0938 114.6875 90.9844 114.6875 Q91.4062 114.6875 91.8594 114.3125 Q92.3125 113.9375 92.5469 113.0469 Q92.9062 111.7031 92.9062 109.25 Q92.9062 107.4375 92.5312 106.2344 Q92.25 105.3281 91.7969 104.9531 Q91.4844 104.7031 91.0312 104.7031 Q90.5 104.7031 90.0781 105.1719 Q89.5156 105.8281 89.3125 107.2188 Q89.1094 108.6094 89.1094 109.9531 Z"
                  style="clip-path:url(#clipPath13); stroke:none;"
                  transform="translate(-5,-5)"/>
        </g>
        <g transform="translate(5,5)"
           style="font-size:13px; text-rendering:optimizeLegibility; color-rendering:optimizeQuality; image-rendering:optimizeQuality; font-family:'Times New Roman'; color-interpolation:linearRGB;">
            <path d="M94 78.1032 L90.325 78.1032"
                  style="fill:none; clip-path:url(#clipPath10);"/>
            <path d="M78.1719 78.1875 L78.1719 78.4688 Q77.1406 78.5781 76.4922 78.8828 Q75.8438 79.1875 75.2031 79.8203 Q74.5625 80.4531 74.1484 81.2344 Q73.7344 82.0156 73.4531 83.0781 Q74.5781 82.3125 75.7031 82.3125 Q76.7969 82.3125 77.5938 83.1875 Q78.3906 84.0625 78.3906 85.4375 Q78.3906 86.7656 77.5781 87.8594 Q76.6094 89.1875 75.0156 89.1875 Q73.9375 89.1875 73.1719 88.4688 Q71.6875 87.0625 71.6875 84.8438 Q71.6875 83.4219 72.2578 82.1406 Q72.8281 80.8594 73.8906 79.8672 Q74.9531 78.875 75.9219 78.5312 Q76.8906 78.1875 77.7188 78.1875 L78.1719 78.1875 ZM73.3125 83.6562 Q73.1719 84.7031 73.1719 85.3594 Q73.1719 86.1094 73.4531 86.9844 Q73.7344 87.8594 74.2812 88.375 Q74.6719 88.75 75.25 88.75 Q75.9219 88.75 76.4609 88.1094 Q77 87.4688 77 86.2812 Q77 84.9375 76.4688 83.9609 Q75.9375 82.9844 74.9531 82.9844 Q74.6562 82.9844 74.3203 83.1094 Q73.9844 83.2344 73.3125 83.6562 ZM79.5781 83.7656 Q79.5781 81.9531 80.125 80.6406 Q80.6719 79.3281 81.5781 78.6875 Q82.2812 78.1875 83.0312 78.1875 Q84.25 78.1875 85.2188 79.4219 Q86.4375 80.9688 86.4375 83.5938 Q86.4375 85.4375 85.9062 86.7266 Q85.375 88.0156 84.5469 88.6016 Q83.7188 89.1875 82.9531 89.1875 Q81.4375 89.1875 80.4375 87.3906 Q79.5781 85.8906 79.5781 83.7656 ZM81.1094 83.9531 Q81.1094 86.1406 81.6562 87.5312 Q82.0938 88.6875 82.9844 88.6875 Q83.4062 88.6875 83.8594 88.3125 Q84.3125 87.9375 84.5469 87.0469 Q84.9062 85.7031 84.9062 83.25 Q84.9062 81.4375 84.5312 80.2344 Q84.25 79.3281 83.7969 78.9531 Q83.4844 78.7031 83.0312 78.7031 Q82.5 78.7031 82.0781 79.1719 Q81.5156 79.8281 81.3125 81.2188 Q81.1094 82.6094 81.1094 83.9531 ZM87.5781 83.7656 Q87.5781 81.9531 88.125 80.6406 Q88.6719 79.3281 89.5781 78.6875 Q90.2812 78.1875 91.0312 78.1875 Q92.25 78.1875 93.2188 79.4219 Q94.4375 80.9688 94.4375 83.5938 Q94.4375 85.4375 93.9062 86.7266 Q93.375 88.0156 92.5469 88.6016 Q91.7188 89.1875 90.9531 89.1875 Q89.4375 89.1875 88.4375 87.3906 Q87.5781 85.8906 87.5781 83.7656 ZM89.1094 83.9531 Q89.1094 86.1406 89.6562 87.5312 Q90.0938 88.6875 90.9844 88.6875 Q91.4062 88.6875 91.8594 88.3125 Q92.3125 87.9375 92.5469 87.0469 Q92.9062 85.7031 92.9062 83.25 Q92.9062 81.4375 92.5312 80.2344 Q92.25 79.3281 91.7969 78.9531 Q91.4844 78.7031 91.0312 78.7031 Q90.5 78.7031 90.0781 79.1719 Q89.5156 79.8281 89.3125 81.2188 Q89.1094 82.6094 89.1094 83.9531 Z"
                  style="clip-path:url(#clipPath13); stroke:none;"
                  transform="translate(-5,-5)"/>
        </g>
        <g transform="translate(5,5)"
           style="font-size:13px; text-rendering:optimizeLegibility; color-rendering:optimizeQuality; image-rendering:optimizeQuality; font-family:'Times New Roman'; color-interpolation:linearRGB;">
            <path d="M94 51.7871 L90.325 51.7871"
                  style="fill:none; clip-path:url(#clipPath10);"/>
            <path d="M72.6094 51.4062 L78.2969 51.4062 L78.2969 51.7031 L74.7656 62.2188 L73.8906 62.2188 L77.0469 52.6719 L74.1406 52.6719 Q73.25 52.6719 72.875 52.8906 Q72.2188 53.25 71.8281 54 L71.5938 53.9062 L72.6094 51.4062 ZM79.5781 56.7656 Q79.5781 54.9531 80.125 53.6406 Q80.6719 52.3281 81.5781 51.6875 Q82.2812 51.1875 83.0312 51.1875 Q84.25 51.1875 85.2188 52.4219 Q86.4375 53.9688 86.4375 56.5938 Q86.4375 58.4375 85.9062 59.7266 Q85.375 61.0156 84.5469 61.6016 Q83.7188 62.1875 82.9531 62.1875 Q81.4375 62.1875 80.4375 60.3906 Q79.5781 58.8906 79.5781 56.7656 ZM81.1094 56.9531 Q81.1094 59.1406 81.6562 60.5312 Q82.0938 61.6875 82.9844 61.6875 Q83.4062 61.6875 83.8594 61.3125 Q84.3125 60.9375 84.5469 60.0469 Q84.9062 58.7031 84.9062 56.25 Q84.9062 54.4375 84.5312 53.2344 Q84.25 52.3281 83.7969 51.9531 Q83.4844 51.7031 83.0312 51.7031 Q82.5 51.7031 82.0781 52.1719 Q81.5156 52.8281 81.3125 54.2188 Q81.1094 55.6094 81.1094 56.9531 ZM87.5781 56.7656 Q87.5781 54.9531 88.125 53.6406 Q88.6719 52.3281 89.5781 51.6875 Q90.2812 51.1875 91.0312 51.1875 Q92.25 51.1875 93.2188 52.4219 Q94.4375 53.9688 94.4375 56.5938 Q94.4375 58.4375 93.9062 59.7266 Q93.375 61.0156 92.5469 61.6016 Q91.7188 62.1875 90.9531 62.1875 Q89.4375 62.1875 88.4375 60.3906 Q87.5781 58.8906 87.5781 56.7656 ZM89.1094 56.9531 Q89.1094 59.1406 89.6562 60.5312 Q90.0938 61.6875 90.9844 61.6875 Q91.4062 61.6875 91.8594 61.3125 Q92.3125 60.9375 92.5469 60.0469 Q92.9062 58.7031 92.9062 56.25 Q92.9062 54.4375 92.5312 53.2344 Q92.25 52.3281 91.7969 51.9531 Q91.4844 51.7031 91.0312 51.7031 Q90.5 51.7031 90.0781 52.1719 Q89.5156 52.8281 89.3125 54.2188 Q89.1094 55.6094 89.1094 56.9531 Z"
                  style="clip-path:url(#clipPath13); stroke:none;"
                  transform="translate(-5,-5)"/>
        </g>
        <g transform="translate(5,5)"
           style="font-size:13px; text-rendering:optimizeLegibility; color-rendering:optimizeQuality; image-rendering:optimizeQuality; font-family:'Times New Roman'; color-interpolation:linearRGB;">
            <path d="M94 25.471 L90.325 25.471"
                  style="fill:none; clip-path:url(#clipPath10);"/>
            <path d="M74.0781 30.6562 Q72.8125 29.625 72.4531 29 Q72.0938 28.375 72.0938 27.7031 Q72.0938 26.6719 72.8906 25.9297 Q73.6875 25.1875 75 25.1875 Q76.2812 25.1875 77.0625 25.8828 Q77.8438 26.5781 77.8438 27.4688 Q77.8438 28.0625 77.4219 28.6797 Q77 29.2969 75.6719 30.125 Q77.0469 31.1875 77.4844 31.7969 Q78.0781 32.5938 78.0781 33.4844 Q78.0781 34.5938 77.2266 35.3906 Q76.375 36.1875 75 36.1875 Q73.4844 36.1875 72.6406 35.2344 Q71.9688 34.4844 71.9688 33.5781 Q71.9688 32.875 72.4453 32.1875 Q72.9219 31.5 74.0781 30.6562 ZM75.2969 29.8281 Q76.2344 28.9844 76.4844 28.4922 Q76.7344 28 76.7344 27.3906 Q76.7344 26.5625 76.2734 26.1016 Q75.8125 25.6406 75.0156 25.6406 Q74.2188 25.6406 73.7188 26.1016 Q73.2188 26.5625 73.2188 27.1719 Q73.2188 27.5781 73.4297 27.9844 Q73.6406 28.3906 74.0156 28.7656 L75.2969 29.8281 ZM74.4375 30.9531 Q73.7969 31.5 73.4844 32.1484 Q73.1719 32.7969 73.1719 33.5469 Q73.1719 34.5469 73.7188 35.1562 Q74.2656 35.7656 75.125 35.7656 Q75.9688 35.7656 76.4766 35.2891 Q76.9844 34.8125 76.9844 34.125 Q76.9844 33.5625 76.6875 33.125 Q76.125 32.2969 74.4375 30.9531 ZM79.5781 30.7656 Q79.5781 28.9531 80.125 27.6406 Q80.6719 26.3281 81.5781 25.6875 Q82.2812 25.1875 83.0312 25.1875 Q84.25 25.1875 85.2188 26.4219 Q86.4375 27.9688 86.4375 30.5938 Q86.4375 32.4375 85.9062 33.7266 Q85.375 35.0156 84.5469 35.6016 Q83.7188 36.1875 82.9531 36.1875 Q81.4375 36.1875 80.4375 34.3906 Q79.5781 32.8906 79.5781 30.7656 ZM81.1094 30.9531 Q81.1094 33.1406 81.6562 34.5312 Q82.0938 35.6875 82.9844 35.6875 Q83.4062 35.6875 83.8594 35.3125 Q84.3125 34.9375 84.5469 34.0469 Q84.9062 32.7031 84.9062 30.25 Q84.9062 28.4375 84.5312 27.2344 Q84.25 26.3281 83.7969 25.9531 Q83.4844 25.7031 83.0312 25.7031 Q82.5 25.7031 82.0781 26.1719 Q81.5156 26.8281 81.3125 28.2188 Q81.1094 29.6094 81.1094 30.9531 ZM87.5781 30.7656 Q87.5781 28.9531 88.125 27.6406 Q88.6719 26.3281 89.5781 25.6875 Q90.2812 25.1875 91.0312 25.1875 Q92.25 25.1875 93.2188 26.4219 Q94.4375 27.9688 94.4375 30.5938 Q94.4375 32.4375 93.9062 33.7266 Q93.375 35.0156 92.5469 35.6016 Q91.7188 36.1875 90.9531 36.1875 Q89.4375 36.1875 88.4375 34.3906 Q87.5781 32.8906 87.5781 30.7656 ZM89.1094 30.9531 Q89.1094 33.1406 89.6562 34.5312 Q90.0938 35.6875 90.9844 35.6875 Q91.4062 35.6875 91.8594 35.3125 Q92.3125 34.9375 92.5469 34.0469 Q92.9062 32.7031 92.9062 30.25 Q92.9062 28.4375 92.5312 27.2344 Q92.25 26.3281 91.7969 25.9531 Q91.4844 25.7031 91.0312 25.7031 Q90.5 25.7031 90.0781 26.1719 Q89.5156 26.8281 89.3125 28.2188 Q89.1094 29.6094 89.1094 30.9531 Z"
                  style="clip-path:url(#clipPath13); stroke:none;"
                  transform="translate(-5,-5)"/>
        </g>
        <g transform="translate(5,5)"
           style="font-size:13px; text-rendering:optimizeLegibility; color-rendering:optimizeQuality; image-rendering:optimizeQuality; font-family:'Times New Roman'; color-interpolation:linearRGB;">
            <path d="M94 222.8419 L92.1625 222.8419"
                  style="fill:none; clip-path:url(#clipPath10);"/>
        </g>
        <g transform="translate(5,5)"
           style="font-size:13px; text-rendering:optimizeLegibility; color-rendering:optimizeQuality; image-rendering:optimizeQuality; font-family:'Times New Roman'; color-interpolation:linearRGB;">
            <path d="M94 196.5258 L92.1625 196.5258"
                  style="fill:none; clip-path:url(#clipPath10);"/>
        </g>
        <g transform="translate(5,5)"
           style="font-size:13px; text-rendering:optimizeLegibility; color-rendering:optimizeQuality; image-rendering:optimizeQuality; font-family:'Times New Roman'; color-interpolation:linearRGB;">
            <path d="M94 170.2097 L92.1625 170.2097"
                  style="fill:none; clip-path:url(#clipPath10);"/>
        </g>
        <g transform="translate(5,5)"
           style="font-size:13px; text-rendering:optimizeLegibility; color-rendering:optimizeQuality; image-rendering:optimizeQuality; font-family:'Times New Roman'; color-interpolation:linearRGB;">
            <path d="M94 143.8936 L92.1625 143.8936"
                  style="fill:none; clip-path:url(#clipPath10);"/>
        </g>
        <g transform="translate(5,5)"
           style="font-size:13px; text-rendering:optimizeLegibility; color-rendering:optimizeQuality; image-rendering:optimizeQuality; font-family:'Times New Roman'; color-interpolation:linearRGB;">
            <path d="M94 117.5774 L92.1625 117.5774"
                  style="fill:none; clip-path:url(#clipPath10);"/>
        </g>
        <g transform="translate(5,5)"
           style="font-size:13px; text-rendering:optimizeLegibility; color-rendering:optimizeQuality; image-rendering:optimizeQuality; font-family:'Times New Roman'; color-interpolation:linearRGB;">
            <path d="M94 91.2613 L92.1625 91.2613"
                  style="fill:none; clip-path:url(#clipPath10);"/>
        </g>
        <g transform="translate(5,5)"
           style="font-size:13px; text-rendering:optimizeLegibility; color-rendering:optimizeQuality; image-rendering:optimizeQuality; font-family:'Times New Roman'; color-interpolation:linearRGB;">
            <path d="M94 64.9452 L92.1625 64.9452"
                  style="fill:none; clip-path:url(#clipPath10);"/>
        </g>
        <g transform="translate(5,5)"
           style="font-size:13px; text-rendering:optimizeLegibility; color-rendering:optimizeQuality; image-rendering:optimizeQuality; font-family:'Times New Roman'; color-interpolation:linearRGB;">
            <path d="M94 38.629 L92.1625 38.629"
                  style="fill:none; clip-path:url(#clipPath10);"/>
        </g>
        <g transform="translate(5,5)"
           style="font-size:13px; text-rendering:optimizeLegibility; color-rendering:optimizeQuality; image-rendering:optimizeQuality; font-family:'Times New Roman'; color-interpolation:linearRGB;">
            <path d="M94 12.3129 L92.1625 12.3129"
                  style="fill:none; clip-path:url(#clipPath10);"/>
        </g>
    </g>
</svg>
