<?xml version="1.0" encoding="UTF-8"?>
<!DOCTYPE svg PUBLIC '-//W3C//DTD SVG 1.0//EN'
    'http://www.w3.org/TR/2001/REC-SVG-20010904/DTD/svg10.dtd' >

<svg style="stroke-dasharray:none; shape-rendering:auto; font-family:'Dialog'; text-rendering:auto; fill-opacity:1; color-interpolation:auto; color-rendering:auto; font-size:12px; fill:black; stroke:black; image-rendering:auto; stroke-miterlimit:10; stroke-linecap:square; stroke-linejoin:miter; font-style:normal; stroke-width:1; stroke-dashoffset:0; font-weight:normal; stroke-opacity:1;"
     xmlns="http://www.w3.org/2000/svg" contentScriptType="text/ecmascript"
     preserveAspectRatio="xMidYMid meet"
     xmlns:xlink="http://www.w3.org/1999/xlink" zoomAndPan="magnify"
     version="1.0" contentStyleType="text/css">
    <!--Generated by the Batik Graphics2D SVG Generator-->
    <defs id="genericDefs"/>
    <g>
        <defs id="defs1">
            <clipPath clipPathUnits="userSpaceOnUse" id="clipPath1">
                <path d="M85 285 L334 285 L334 309 L85 309 L85 285 Z"/>
            </clipPath>
            <clipPath clipPathUnits="userSpaceOnUse" id="clipPath2">
                <path d="M88 288 L88 306 L198 306 L198 288 Z"/>
            </clipPath>
            <clipPath clipPathUnits="userSpaceOnUse" id="clipPath3">
                <path d="M-2 -1 L-2 17 L108 17 L108 -1 Z"/>
            </clipPath>
            <clipPath clipPathUnits="userSpaceOnUse" id="clipPath4">
                <path d="M0 0 L0 18 L110 18 L110 0 Z"/>
            </clipPath>
            <clipPath clipPathUnits="userSpaceOnUse" id="clipPath5">
                <path d="M37 0 L37 17 L109 17 L109 0 Z"/>
            </clipPath>
            <clipPath clipPathUnits="userSpaceOnUse" id="clipPath6">
                <path d="M197 288 L197 306 L332 306 L332 288 Z"/>
            </clipPath>
            <clipPath clipPathUnits="userSpaceOnUse" id="clipPath7">
                <path d="M-2 -1 L-2 17 L133 17 L133 -1 Z"/>
            </clipPath>
            <clipPath clipPathUnits="userSpaceOnUse" id="clipPath8">
                <path d="M0 0 L0 18 L135 18 L135 0 Z"/>
            </clipPath>
            <clipPath clipPathUnits="userSpaceOnUse" id="clipPath9">
                <path d="M37 0 L37 17 L134 17 L134 0 Z"/>
            </clipPath>
            <clipPath clipPathUnits="userSpaceOnUse" id="clipPath10">
                <path d="M0 0 L410 0 L410 277 L0 277 L0 0 Z"/>
            </clipPath>
            <clipPath clipPathUnits="userSpaceOnUse" id="clipPath11">
                <path d="M114 0 L114 239 L410 239 L410 0 Z"/>
            </clipPath>
            <clipPath clipPathUnits="userSpaceOnUse" id="clipPath12">
                <path d="M243 258 L243 276 L279 276 L279 258 Z"/>
            </clipPath>
            <clipPath clipPathUnits="userSpaceOnUse" id="clipPath13">
                <path d="M5 5 L415 5 L415 282 L5 282 L5 5 Z"/>
            </clipPath>
            <clipPath clipPathUnits="userSpaceOnUse" id="clipPath14">
                <path d="M0 110 L0 128 L84 128 L84 110 Z"/>
            </clipPath>
            <clipPath clipPathUnits="userSpaceOnUse" id="clipPath15">
                <path d="M-15 -4 L-15 14 L69 14 L69 -4 Z"/>
            </clipPath>
            <clipPath clipPathUnits="userSpaceOnUse" id="clipPath16">
                <path d="M-26 -4 L-26 14 L58 14 L58 -4 Z"/>
            </clipPath>
        </defs>
        <g style="stroke-linecap:butt; font-size:13px; fill:rgb(0,116,204); text-rendering:optimizeLegibility; image-rendering:optimizeQuality; color-rendering:optimizeQuality; font-family:'Times New Roman'; stroke-linejoin:round; stroke:rgb(0,116,204); color-interpolation:linearRGB; stroke-width:1.5;"
           transform="translate(90,289)">
            <path d="M0 7 L34 7" style="fill:none; clip-path:url(#clipPath3);"/>
        </g>
        <g transform="translate(88,288)"
           style="stroke-linecap:butt; font-size:13px; text-rendering:optimizeLegibility; image-rendering:optimizeQuality; color-rendering:optimizeQuality; font-family:'Times New Roman'; stroke-linejoin:round; color-interpolation:linearRGB; stroke-width:1.5;">
            <path d="M51.0312 3.8438 L51.2656 7.2188 L51.0312 7.2188 Q50.5781 5.7031 49.7344 5.0391 Q48.8906 4.375 47.7188 4.375 Q46.7188 4.375 45.9219 4.875 Q45.125 5.375 44.6719 6.4688 Q44.2188 7.5625 44.2188 9.2031 Q44.2188 10.5469 44.6484 11.5391 Q45.0781 12.5312 45.9453 13.0547 Q46.8125 13.5781 47.9219 13.5781 Q48.8906 13.5781 49.6328 13.1641 Q50.375 12.75 51.2656 11.5312 L51.4844 11.6719 Q50.7344 13 49.7422 13.6172 Q48.75 14.2344 47.375 14.2344 Q44.9062 14.2344 43.5469 12.3906 Q42.5469 11.0312 42.5469 9.1875 Q42.5469 7.7031 43.2109 6.4531 Q43.875 5.2031 45.0469 4.5234 Q46.2188 3.8438 47.5938 3.8438 Q48.6719 3.8438 49.7188 4.375 Q50.0312 4.5312 50.1562 4.5312 Q50.3594 4.5312 50.5 4.3906 Q50.6875 4.1875 50.7812 3.8438 L51.0312 3.8438 ZM55.7549 7.0938 Q57.2861 7.0938 58.208 8.25 Q58.9893 9.2344 58.9893 10.5156 Q58.9893 11.4219 58.5518 12.3438 Q58.1143 13.2656 57.3564 13.7344 Q56.5986 14.2031 55.6768 14.2031 Q54.1611 14.2031 53.2705 13 Q52.5049 11.9844 52.5049 10.7188 Q52.5049 9.7812 52.9658 8.875 Q53.4268 7.9688 54.1768 7.5312 Q54.9268 7.0938 55.7549 7.0938 ZM55.5205 7.5625 Q55.1455 7.5625 54.7471 7.7969 Q54.3486 8.0312 54.1143 8.6094 Q53.8799 9.1875 53.8799 10.0938 Q53.8799 11.5625 54.458 12.625 Q55.0361 13.6875 55.9893 13.6875 Q56.6924 13.6875 57.1611 13.1016 Q57.6299 12.5156 57.6299 11.0781 Q57.6299 9.2969 56.8486 8.2656 Q56.333 7.5625 55.5205 7.5625 ZM61.9736 8.5156 Q62.6924 7.7812 62.833 7.6719 Q63.1611 7.4062 63.5439 7.25 Q63.9268 7.0938 64.3018 7.0938 Q64.9268 7.0938 65.3799 7.4609 Q65.833 7.8281 65.9893 8.5156 Q66.7393 7.6406 67.2627 7.3672 Q67.7861 7.0938 68.333 7.0938 Q68.8643 7.0938 69.2783 7.3672 Q69.6924 7.6406 69.9424 8.2656 Q70.0986 8.6875 70.0986 9.5938 L70.0986 12.4844 Q70.0986 13.1094 70.1924 13.3438 Q70.2705 13.5156 70.4658 13.625 Q70.6611 13.7344 71.1143 13.7344 L71.1143 14 L67.8018 14 L67.8018 13.7344 L67.9424 13.7344 Q68.3643 13.7344 68.6143 13.5625 Q68.7705 13.4531 68.8486 13.1875 Q68.8799 13.0625 68.8799 12.4844 L68.8799 9.5938 Q68.8799 8.7812 68.6768 8.4375 Q68.3955 7.9688 67.7705 7.9688 Q67.3799 7.9688 66.9893 8.1641 Q66.5986 8.3594 66.0361 8.8906 L66.0205 8.9688 L66.0361 9.2812 L66.0361 12.4844 Q66.0361 13.1719 66.1143 13.3438 Q66.1924 13.5156 66.4033 13.625 Q66.6143 13.7344 67.1299 13.7344 L67.1299 14 L63.7393 14 L63.7393 13.7344 Q64.3018 13.7344 64.5049 13.6016 Q64.708 13.4688 64.7861 13.2031 Q64.833 13.0781 64.833 12.4844 L64.833 9.5938 Q64.833 8.7812 64.583 8.4219 Q64.2705 7.9531 63.6924 7.9531 Q63.2861 7.9531 62.9111 8.1562 Q62.3018 8.4844 61.9736 8.8906 L61.9736 12.4844 Q61.9736 13.1406 62.0596 13.3359 Q62.1455 13.5312 62.3252 13.6328 Q62.5049 13.7344 63.0518 13.7344 L63.0518 14 L59.7393 14 L59.7393 13.7344 Q60.208 13.7344 60.3877 13.6328 Q60.5674 13.5312 60.6611 13.3203 Q60.7549 13.1094 60.7549 12.4844 L60.7549 9.9219 Q60.7549 8.8125 60.6924 8.4844 Q60.6455 8.25 60.5361 8.1562 Q60.4268 8.0625 60.2236 8.0625 Q60.0205 8.0625 59.7393 8.1719 L59.6299 7.9062 L61.6455 7.0938 L61.9736 7.0938 L61.9736 8.5156 ZM71.1567 7.9531 L73.2192 7.125 L73.5005 7.125 L73.5005 8.6875 Q74.0161 7.7969 74.5396 7.4453 Q75.063 7.0938 75.6411 7.0938 Q76.6567 7.0938 77.3286 7.8906 Q78.1567 8.8438 78.1567 10.4062 Q78.1567 12.1406 77.1567 13.2812 Q76.3442 14.2031 75.0942 14.2031 Q74.563 14.2031 74.1567 14.0469 Q73.8755 13.9375 73.5005 13.6094 L73.5005 15.6562 Q73.5005 16.3438 73.5864 16.5312 Q73.6724 16.7188 73.8833 16.8281 Q74.0942 16.9375 74.6411 16.9375 L74.6411 17.2031 L71.1255 17.2031 L71.1255 16.9375 L71.2974 16.9375 Q71.7036 16.9375 72.0005 16.7812 Q72.1255 16.7031 72.2036 16.5234 Q72.2817 16.3438 72.2817 15.6094 L72.2817 9.2656 Q72.2817 8.6094 72.2271 8.4375 Q72.1724 8.2656 72.0396 8.1797 Q71.9067 8.0938 71.688 8.0938 Q71.5161 8.0938 71.2505 8.1875 L71.1567 7.9531 ZM73.5005 9.125 L73.5005 11.625 Q73.5005 12.4375 73.563 12.7031 Q73.6724 13.125 74.0708 13.4453 Q74.4692 13.7656 75.0786 13.7656 Q75.813 13.7656 76.2661 13.1875 Q76.8599 12.4531 76.8599 11.0938 Q76.8599 9.5469 76.188 8.7188 Q75.7192 8.1562 75.063 8.1562 Q74.7192 8.1562 74.3755 8.3281 Q74.1099 8.4688 73.5005 9.125 ZM85.0161 7.2969 L85.0161 11.3594 Q85.0161 12.5156 85.0708 12.7812 Q85.1255 13.0469 85.2505 13.1484 Q85.3755 13.25 85.5317 13.25 Q85.7661 13.25 86.0474 13.125 L86.1567 13.375 L84.1411 14.2031 L83.813 14.2031 L83.813 12.7812 Q82.9536 13.7188 82.5005 13.9609 Q82.0474 14.2031 81.5317 14.2031 Q80.9692 14.2031 80.5552 13.875 Q80.1411 13.5469 79.9849 13.0391 Q79.8286 12.5312 79.8286 11.5938 L79.8286 8.5938 Q79.8286 8.125 79.7192 7.9375 Q79.6099 7.75 79.4146 7.6484 Q79.2192 7.5469 78.688 7.5625 L78.688 7.2969 L81.0317 7.2969 L81.0317 11.7812 Q81.0317 12.7188 81.3599 13.0078 Q81.688 13.2969 82.1567 13.2969 Q82.4692 13.2969 82.8677 13.1016 Q83.2661 12.9062 83.813 12.3594 L83.813 8.5469 Q83.813 7.9844 83.6021 7.7812 Q83.3911 7.5781 82.7349 7.5625 L82.7349 7.2969 L85.0161 7.2969 ZM88.5942 5.0938 L88.5942 7.2969 L90.1567 7.2969 L90.1567 7.7969 L88.5942 7.7969 L88.5942 12.1562 Q88.5942 12.8125 88.7817 13.0391 Q88.9692 13.2656 89.2505 13.2656 Q89.5005 13.2656 89.7271 13.1094 Q89.9536 12.9531 90.0786 12.6719 L90.3599 12.6719 Q90.1099 13.3906 89.6411 13.75 Q89.1724 14.1094 88.6724 14.1094 Q88.3286 14.1094 88.0083 13.9219 Q87.688 13.7344 87.5317 13.3906 Q87.3755 13.0469 87.3755 12.3125 L87.3755 7.7969 L86.313 7.7969 L86.313 7.5625 Q86.7192 7.4062 87.1411 7.0156 Q87.563 6.625 87.8911 6.1094 Q88.063 5.8281 88.3599 5.0938 L88.5942 5.0938 ZM91.9336 9.8125 Q91.9336 11.3125 92.668 12.1562 Q93.3867 13.0156 94.3867 13.0156 Q95.043 13.0156 95.5273 12.6484 Q96.0117 12.2812 96.3398 11.4062 L96.5742 11.5469 Q96.418 12.5625 95.6758 13.3828 Q94.9336 14.2031 93.8242 14.2031 Q92.6211 14.2031 91.7617 13.2656 Q90.9023 12.3281 90.9023 10.7344 Q90.9023 9.0156 91.7852 8.0469 Q92.668 7.0781 93.9961 7.0781 Q95.1211 7.0781 95.8477 7.8281 Q96.5742 8.5781 96.5742 9.8125 L91.9336 9.8125 ZM91.9336 9.3906 L95.043 9.3906 Q95.0117 8.75 94.8867 8.4844 Q94.6992 8.0781 94.3398 7.8438 Q93.9805 7.6094 93.5898 7.6094 Q92.9805 7.6094 92.4961 8.0781 Q92.0117 8.5469 91.9336 9.3906 ZM102.2007 13.25 Q101.7163 13.7656 101.2476 13.9844 Q100.7788 14.2031 100.2319 14.2031 Q99.1382 14.2031 98.3179 13.2812 Q97.4976 12.3594 97.4976 10.9219 Q97.4976 9.4844 98.4038 8.2812 Q99.3101 7.0781 100.7476 7.0781 Q101.6226 7.0781 102.2007 7.6562 L102.2007 6.4062 Q102.2007 5.2656 102.146 5 Q102.0913 4.7344 101.9741 4.6406 Q101.8569 4.5469 101.6851 4.5469 Q101.4976 4.5469 101.1851 4.6562 L101.0913 4.4062 L103.0913 3.5781 L103.4194 3.5781 L103.4194 11.3438 Q103.4194 12.5156 103.4741 12.7812 Q103.5288 13.0469 103.646 13.1484 Q103.7632 13.25 103.9194 13.25 Q104.1226 13.25 104.4507 13.125 L104.5288 13.375 L102.5444 14.2031 L102.2007 14.2031 L102.2007 13.25 ZM102.2007 12.7344 L102.2007 9.2812 Q102.1538 8.7812 101.9351 8.3672 Q101.7163 7.9531 101.3569 7.75 Q100.9976 7.5469 100.6538 7.5469 Q100.0132 7.5469 99.4976 8.125 Q98.8413 8.875 98.8413 10.3438 Q98.8413 11.8281 99.4819 12.6172 Q100.1226 13.4062 100.9194 13.4062 Q101.5757 13.4062 102.2007 12.7344 Z"
                  style="stroke:none; clip-path:url(#clipPath5);"/>
        </g>
        <g style="stroke-linecap:butt; font-size:13px; fill:rgb(204,0,116); text-rendering:optimizeLegibility; image-rendering:optimizeQuality; color-rendering:optimizeQuality; font-family:'Times New Roman'; stroke-linejoin:round; stroke:rgb(204,0,116); color-interpolation:linearRGB; stroke-width:1.5;"
           transform="translate(199,289)">
            <path d="M0 7 L34 7" style="fill:none; clip-path:url(#clipPath7);"/>
        </g>
        <g transform="translate(197,288)"
           style="stroke-linecap:butt; font-size:13px; text-rendering:optimizeLegibility; image-rendering:optimizeQuality; color-rendering:optimizeQuality; font-family:'Times New Roman'; stroke-linejoin:round; color-interpolation:linearRGB; stroke-width:1.5;">
            <path d="M48.875 3.8438 L48.875 7.2812 L48.6094 7.2812 Q48.4688 6.2812 48.1328 5.6953 Q47.7969 5.1094 47.1641 4.7656 Q46.5312 4.4219 45.8594 4.4219 Q45.0938 4.4219 44.6016 4.8906 Q44.1094 5.3594 44.1094 5.9531 Q44.1094 6.4062 44.4219 6.7812 Q44.875 7.3281 46.5781 8.25 Q47.9688 8.9844 48.4766 9.3828 Q48.9844 9.7812 49.2578 10.3281 Q49.5312 10.875 49.5312 11.4688 Q49.5312 12.5938 48.6562 13.4141 Q47.7812 14.2344 46.4062 14.2344 Q45.9844 14.2344 45.5938 14.1562 Q45.375 14.125 44.6562 13.8906 Q43.9375 13.6562 43.75 13.6562 Q43.5625 13.6562 43.4609 13.7656 Q43.3594 13.875 43.2969 14.2344 L43.0312 14.2344 L43.0312 10.8281 L43.2969 10.8281 Q43.5 11.8906 43.8203 12.4219 Q44.1406 12.9531 44.8047 13.3047 Q45.4688 13.6562 46.25 13.6562 Q47.1719 13.6562 47.7031 13.1719 Q48.2344 12.6875 48.2344 12.0312 Q48.2344 11.6562 48.0312 11.2891 Q47.8281 10.9219 47.4062 10.5938 Q47.125 10.375 45.8516 9.6641 Q44.5781 8.9531 44.0391 8.5234 Q43.5 8.0938 43.2188 7.5859 Q42.9375 7.0781 42.9375 6.4531 Q42.9375 5.3906 43.7578 4.6172 Q44.5781 3.8438 45.8438 3.8438 Q46.6406 3.8438 47.5156 4.2344 Q47.9375 4.4062 48.0938 4.4062 Q48.2969 4.4062 48.4141 4.2969 Q48.5312 4.1875 48.6094 3.8438 L48.875 3.8438 ZM52.5142 3.5781 Q52.8267 3.5781 53.0454 3.7969 Q53.2642 4.0156 53.2642 4.3281 Q53.2642 4.625 53.0454 4.8516 Q52.8267 5.0781 52.5142 5.0781 Q52.2173 5.0781 51.9907 4.8516 Q51.7642 4.625 51.7642 4.3281 Q51.7642 4.0156 51.9829 3.7969 Q52.2017 3.5781 52.5142 3.5781 ZM53.1235 7.0938 L53.1235 12.4844 Q53.1235 13.1094 53.2173 13.3203 Q53.311 13.5312 53.4907 13.6328 Q53.6704 13.7344 54.1392 13.7344 L54.1392 14 L50.8892 14 L50.8892 13.7344 Q51.3735 13.7344 51.5454 13.6406 Q51.7173 13.5469 51.811 13.3281 Q51.9048 13.1094 51.9048 12.4844 L51.9048 9.8906 Q51.9048 8.8125 51.8423 8.4844 Q51.7954 8.25 51.686 8.1562 Q51.5767 8.0625 51.3892 8.0625 Q51.1704 8.0625 50.8892 8.1719 L50.7798 7.9062 L52.811 7.0938 L53.1235 7.0938 ZM56.9785 8.5156 Q57.6973 7.7812 57.8379 7.6719 Q58.166 7.4062 58.5488 7.25 Q58.9316 7.0938 59.3066 7.0938 Q59.9316 7.0938 60.3848 7.4609 Q60.8379 7.8281 60.9941 8.5156 Q61.7441 7.6406 62.2676 7.3672 Q62.791 7.0938 63.3379 7.0938 Q63.8691 7.0938 64.2832 7.3672 Q64.6973 7.6406 64.9473 8.2656 Q65.1035 8.6875 65.1035 9.5938 L65.1035 12.4844 Q65.1035 13.1094 65.1973 13.3438 Q65.2754 13.5156 65.4707 13.625 Q65.666 13.7344 66.1191 13.7344 L66.1191 14 L62.8066 14 L62.8066 13.7344 L62.9473 13.7344 Q63.3691 13.7344 63.6191 13.5625 Q63.7754 13.4531 63.8535 13.1875 Q63.8848 13.0625 63.8848 12.4844 L63.8848 9.5938 Q63.8848 8.7812 63.6816 8.4375 Q63.4004 7.9688 62.7754 7.9688 Q62.3848 7.9688 61.9941 8.1641 Q61.6035 8.3594 61.041 8.8906 L61.0254 8.9688 L61.041 9.2812 L61.041 12.4844 Q61.041 13.1719 61.1191 13.3438 Q61.1973 13.5156 61.4082 13.625 Q61.6191 13.7344 62.1348 13.7344 L62.1348 14 L58.7441 14 L58.7441 13.7344 Q59.3066 13.7344 59.5098 13.6016 Q59.7129 13.4688 59.791 13.2031 Q59.8379 13.0781 59.8379 12.4844 L59.8379 9.5938 Q59.8379 8.7812 59.5879 8.4219 Q59.2754 7.9531 58.6973 7.9531 Q58.291 7.9531 57.916 8.1562 Q57.3066 8.4844 56.9785 8.8906 L56.9785 12.4844 Q56.9785 13.1406 57.0645 13.3359 Q57.1504 13.5312 57.3301 13.6328 Q57.5098 13.7344 58.0566 13.7344 L58.0566 14 L54.7441 14 L54.7441 13.7344 Q55.2129 13.7344 55.3926 13.6328 Q55.5723 13.5312 55.666 13.3203 Q55.7598 13.1094 55.7598 12.4844 L55.7598 9.9219 Q55.7598 8.8125 55.6973 8.4844 Q55.6504 8.25 55.541 8.1562 Q55.4316 8.0625 55.2285 8.0625 Q55.0254 8.0625 54.7441 8.1719 L54.6348 7.9062 L56.6504 7.0938 L56.9785 7.0938 L56.9785 8.5156 ZM72.521 7.2969 L72.521 11.3594 Q72.521 12.5156 72.5757 12.7812 Q72.6304 13.0469 72.7554 13.1484 Q72.8804 13.25 73.0366 13.25 Q73.271 13.25 73.5522 13.125 L73.6616 13.375 L71.646 14.2031 L71.3179 14.2031 L71.3179 12.7812 Q70.4585 13.7188 70.0054 13.9609 Q69.5522 14.2031 69.0366 14.2031 Q68.4741 14.2031 68.0601 13.875 Q67.646 13.5469 67.4897 13.0391 Q67.3335 12.5312 67.3335 11.5938 L67.3335 8.5938 Q67.3335 8.125 67.2241 7.9375 Q67.1147 7.75 66.9194 7.6484 Q66.7241 7.5469 66.1929 7.5625 L66.1929 7.2969 L68.5366 7.2969 L68.5366 11.7812 Q68.5366 12.7188 68.8647 13.0078 Q69.1929 13.2969 69.6616 13.2969 Q69.9741 13.2969 70.3726 13.1016 Q70.771 12.9062 71.3179 12.3594 L71.3179 8.5469 Q71.3179 7.9844 71.1069 7.7812 Q70.896 7.5781 70.2397 7.5625 L70.2397 7.2969 L72.521 7.2969 ZM76.4585 3.5781 L76.4585 12.4844 Q76.4585 13.1094 76.5444 13.3203 Q76.6304 13.5312 76.8257 13.6328 Q77.021 13.7344 77.5366 13.7344 L77.5366 14 L74.2554 14 L74.2554 13.7344 Q74.7085 13.7344 74.8804 13.6406 Q75.0522 13.5469 75.146 13.3281 Q75.2397 13.1094 75.2397 12.4844 L75.2397 6.3906 Q75.2397 5.25 75.1851 4.9922 Q75.1304 4.7344 75.021 4.6406 Q74.9116 4.5469 74.7397 4.5469 Q74.5366 4.5469 74.2554 4.6562 L74.1304 4.4062 L76.1304 3.5781 L76.4585 3.5781 ZM82.1104 13.0312 Q81.0791 13.8281 80.8135 13.9531 Q80.4229 14.1406 79.9697 14.1406 Q79.2822 14.1406 78.8291 13.6641 Q78.376 13.1875 78.376 12.4062 Q78.376 11.9219 78.5947 11.5625 Q78.9072 11.0625 79.6494 10.625 Q80.3916 10.1875 82.1104 9.5469 L82.1104 9.2969 Q82.1104 8.2812 81.7979 7.9141 Q81.4854 7.5469 80.876 7.5469 Q80.4072 7.5469 80.1416 7.7812 Q79.8604 8.0312 79.8604 8.3594 L79.876 8.7812 Q79.876 9.125 79.7041 9.3047 Q79.5322 9.4844 79.251 9.4844 Q78.9854 9.4844 78.8135 9.2969 Q78.6416 9.1094 78.6416 8.7812 Q78.6416 8.1406 79.2822 7.6172 Q79.9229 7.0938 81.0947 7.0938 Q81.9854 7.0938 82.5479 7.3906 Q82.9854 7.625 83.1885 8.1094 Q83.3291 8.4219 83.3291 9.3906 L83.3291 11.6719 Q83.3291 12.625 83.3604 12.8438 Q83.3916 13.0625 83.4775 13.1328 Q83.5635 13.2031 83.6729 13.2031 Q83.7979 13.2031 83.876 13.1562 Q84.0322 13.0625 84.4697 12.625 L84.4697 13.0312 Q83.6572 14.125 82.9072 14.125 Q82.5479 14.125 82.3369 13.8828 Q82.126 13.6406 82.1104 13.0312 ZM82.1104 12.5625 L82.1104 10 Q81.0166 10.4375 80.6885 10.625 Q80.1104 10.9531 79.8604 11.3047 Q79.6104 11.6562 79.6104 12.0625 Q79.6104 12.5938 79.9229 12.9453 Q80.2354 13.2969 80.6572 13.2969 Q81.2041 13.2969 82.1104 12.5625 ZM86.9243 5.0938 L86.9243 7.2969 L88.4868 7.2969 L88.4868 7.7969 L86.9243 7.7969 L86.9243 12.1562 Q86.9243 12.8125 87.1118 13.0391 Q87.2993 13.2656 87.5806 13.2656 Q87.8306 13.2656 88.0571 13.1094 Q88.2837 12.9531 88.4087 12.6719 L88.6899 12.6719 Q88.4399 13.3906 87.9712 13.75 Q87.5024 14.1094 87.0024 14.1094 Q86.6587 14.1094 86.3384 13.9219 Q86.0181 13.7344 85.8618 13.3906 Q85.7056 13.0469 85.7056 12.3125 L85.7056 7.7969 L84.6431 7.7969 L84.6431 7.5625 Q85.0493 7.4062 85.4712 7.0156 Q85.8931 6.625 86.2212 6.1094 Q86.3931 5.8281 86.6899 5.0938 L86.9243 5.0938 ZM92.4199 7.0938 Q93.9512 7.0938 94.873 8.25 Q95.6543 9.2344 95.6543 10.5156 Q95.6543 11.4219 95.2168 12.3438 Q94.7793 13.2656 94.0215 13.7344 Q93.2637 14.2031 92.3418 14.2031 Q90.8262 14.2031 89.9355 13 Q89.1699 11.9844 89.1699 10.7188 Q89.1699 9.7812 89.6309 8.875 Q90.0918 7.9688 90.8418 7.5312 Q91.5918 7.0938 92.4199 7.0938 ZM92.1855 7.5625 Q91.8105 7.5625 91.4121 7.7969 Q91.0137 8.0312 90.7793 8.6094 Q90.5449 9.1875 90.5449 10.0938 Q90.5449 11.5625 91.123 12.625 Q91.7012 13.6875 92.6543 13.6875 Q93.3574 13.6875 93.8262 13.1016 Q94.2949 12.5156 94.2949 11.0781 Q94.2949 9.2969 93.5137 8.2656 Q92.998 7.5625 92.1855 7.5625 ZM98.6074 7.0938 L98.6074 8.6094 Q99.4512 7.0938 100.3262 7.0938 Q100.7324 7.0938 100.998 7.3359 Q101.2637 7.5781 101.2637 7.9062 Q101.2637 8.1875 101.0684 8.3906 Q100.873 8.5938 100.623 8.5938 Q100.3574 8.5938 100.0371 8.3359 Q99.7168 8.0781 99.5762 8.0781 Q99.4355 8.0781 99.2793 8.2344 Q98.9512 8.5312 98.6074 9.2188 L98.6074 12.4375 Q98.6074 12.9844 98.748 13.2812 Q98.8418 13.4688 99.084 13.6016 Q99.3262 13.7344 99.7793 13.7344 L99.7793 14 L96.3418 14 L96.3418 13.7344 Q96.8574 13.7344 97.1074 13.5781 Q97.2793 13.4531 97.3574 13.2031 Q97.3887 13.0781 97.3887 12.4844 L97.3887 9.8906 Q97.3887 8.7188 97.3418 8.4922 Q97.2949 8.2656 97.1699 8.1641 Q97.0449 8.0625 96.8574 8.0625 Q96.623 8.0625 96.3418 8.1719 L96.2637 7.9062 L98.2949 7.0938 L98.6074 7.0938 ZM110.1182 13.25 Q109.6338 13.7656 109.165 13.9844 Q108.6963 14.2031 108.1494 14.2031 Q107.0557 14.2031 106.2354 13.2812 Q105.415 12.3594 105.415 10.9219 Q105.415 9.4844 106.3213 8.2812 Q107.2275 7.0781 108.665 7.0781 Q109.54 7.0781 110.1182 7.6562 L110.1182 6.4062 Q110.1182 5.2656 110.0635 5 Q110.0088 4.7344 109.8916 4.6406 Q109.7744 4.5469 109.6025 4.5469 Q109.415 4.5469 109.1025 4.6562 L109.0088 4.4062 L111.0088 3.5781 L111.3369 3.5781 L111.3369 11.3438 Q111.3369 12.5156 111.3916 12.7812 Q111.4463 13.0469 111.5635 13.1484 Q111.6807 13.25 111.8369 13.25 Q112.04 13.25 112.3682 13.125 L112.4463 13.375 L110.4619 14.2031 L110.1182 14.2031 L110.1182 13.25 ZM110.1182 12.7344 L110.1182 9.2812 Q110.0713 8.7812 109.8525 8.3672 Q109.6338 7.9531 109.2744 7.75 Q108.915 7.5469 108.5713 7.5469 Q107.9307 7.5469 107.415 8.125 Q106.7588 8.875 106.7588 10.3438 Q106.7588 11.8281 107.3994 12.6172 Q108.04 13.4062 108.8369 13.4062 Q109.4932 13.4062 110.1182 12.7344 ZM116.6807 13.0312 Q115.6494 13.8281 115.3838 13.9531 Q114.9932 14.1406 114.54 14.1406 Q113.8525 14.1406 113.3994 13.6641 Q112.9463 13.1875 112.9463 12.4062 Q112.9463 11.9219 113.165 11.5625 Q113.4775 11.0625 114.2197 10.625 Q114.9619 10.1875 116.6807 9.5469 L116.6807 9.2969 Q116.6807 8.2812 116.3682 7.9141 Q116.0557 7.5469 115.4463 7.5469 Q114.9775 7.5469 114.7119 7.7812 Q114.4307 8.0312 114.4307 8.3594 L114.4463 8.7812 Q114.4463 9.125 114.2744 9.3047 Q114.1025 9.4844 113.8213 9.4844 Q113.5557 9.4844 113.3838 9.2969 Q113.2119 9.1094 113.2119 8.7812 Q113.2119 8.1406 113.8525 7.6172 Q114.4932 7.0938 115.665 7.0938 Q116.5557 7.0938 117.1182 7.3906 Q117.5557 7.625 117.7588 8.1094 Q117.8994 8.4219 117.8994 9.3906 L117.8994 11.6719 Q117.8994 12.625 117.9307 12.8438 Q117.9619 13.0625 118.0479 13.1328 Q118.1338 13.2031 118.2432 13.2031 Q118.3682 13.2031 118.4463 13.1562 Q118.6025 13.0625 119.04 12.625 L119.04 13.0312 Q118.2275 14.125 117.4775 14.125 Q117.1182 14.125 116.9072 13.8828 Q116.6963 13.6406 116.6807 13.0312 ZM116.6807 12.5625 L116.6807 10 Q115.5869 10.4375 115.2588 10.625 Q114.6807 10.9531 114.4307 11.3047 Q114.1807 11.6562 114.1807 12.0625 Q114.1807 12.5938 114.4932 12.9453 Q114.8057 13.2969 115.2275 13.2969 Q115.7744 13.2969 116.6807 12.5625 ZM121.4946 5.0938 L121.4946 7.2969 L123.0571 7.2969 L123.0571 7.7969 L121.4946 7.7969 L121.4946 12.1562 Q121.4946 12.8125 121.6821 13.0391 Q121.8696 13.2656 122.1509 13.2656 Q122.4009 13.2656 122.6274 13.1094 Q122.854 12.9531 122.979 12.6719 L123.2603 12.6719 Q123.0103 13.3906 122.5415 13.75 Q122.0728 14.1094 121.5728 14.1094 Q121.229 14.1094 120.9087 13.9219 Q120.5884 13.7344 120.4321 13.3906 Q120.2759 13.0469 120.2759 12.3125 L120.2759 7.7969 L119.2134 7.7969 L119.2134 7.5625 Q119.6196 7.4062 120.0415 7.0156 Q120.4634 6.625 120.7915 6.1094 Q120.9634 5.8281 121.2603 5.0938 L121.4946 5.0938 ZM127.5059 13.0312 Q126.4746 13.8281 126.209 13.9531 Q125.8184 14.1406 125.3652 14.1406 Q124.6777 14.1406 124.2246 13.6641 Q123.7715 13.1875 123.7715 12.4062 Q123.7715 11.9219 123.9902 11.5625 Q124.3027 11.0625 125.0449 10.625 Q125.7871 10.1875 127.5059 9.5469 L127.5059 9.2969 Q127.5059 8.2812 127.1934 7.9141 Q126.8809 7.5469 126.2715 7.5469 Q125.8027 7.5469 125.5371 7.7812 Q125.2559 8.0312 125.2559 8.3594 L125.2715 8.7812 Q125.2715 9.125 125.0996 9.3047 Q124.9277 9.4844 124.6465 9.4844 Q124.3809 9.4844 124.209 9.2969 Q124.0371 9.1094 124.0371 8.7812 Q124.0371 8.1406 124.6777 7.6172 Q125.3184 7.0938 126.4902 7.0938 Q127.3809 7.0938 127.9434 7.3906 Q128.3809 7.625 128.584 8.1094 Q128.7246 8.4219 128.7246 9.3906 L128.7246 11.6719 Q128.7246 12.625 128.7559 12.8438 Q128.7871 13.0625 128.873 13.1328 Q128.959 13.2031 129.0684 13.2031 Q129.1934 13.2031 129.2715 13.1562 Q129.4277 13.0625 129.8652 12.625 L129.8652 13.0312 Q129.0527 14.125 128.3027 14.125 Q127.9434 14.125 127.7324 13.8828 Q127.5215 13.6406 127.5059 13.0312 ZM127.5059 12.5625 L127.5059 10 Q126.4121 10.4375 126.084 10.625 Q125.5059 10.9531 125.2559 11.3047 Q125.0059 11.6562 125.0059 12.0625 Q125.0059 12.5938 125.3184 12.9453 Q125.6309 13.2969 126.0527 13.2969 Q126.5996 13.2969 127.5059 12.5625 Z"
                  style="stroke:none; clip-path:url(#clipPath9);"/>
        </g>
        <g style="text-rendering:optimizeLegibility; font-size:13px; font-family:'Times New Roman'; color-interpolation:linearRGB; color-rendering:optimizeQuality; image-rendering:optimizeQuality;">
            <rect x="86" y="286" width="245"
                  style="fill:none; clip-path:url(#clipPath1);" height="20"/>
        </g>
        <g style="stroke-linecap:butt; font-size:13px; fill:rgb(165,165,165); text-rendering:optimizeLegibility; image-rendering:optimizeQuality; color-rendering:optimizeQuality; font-family:'Times New Roman'; stroke-linejoin:round; stroke-dasharray:2,5; stroke:rgb(165,165,165); color-interpolation:linearRGB;"
           transform="translate(5,5)">
            <path d="M115 214.8053 L408.9975 214.8053"
                  style="fill:none; clip-path:url(#clipPath10);"/>
            <path d="M115 184.2829 L408.9975 184.2829"
                  style="fill:none; clip-path:url(#clipPath10);"/>
            <path d="M115 153.7605 L408.9975 153.7605"
                  style="fill:none; clip-path:url(#clipPath10);"/>
            <path d="M115 123.2381 L408.9975 123.2381"
                  style="fill:none; clip-path:url(#clipPath10);"/>
            <path d="M115 92.7157 L408.9975 92.7157"
                  style="fill:none; clip-path:url(#clipPath10);"/>
            <path d="M115 62.1933 L408.9975 62.1933"
                  style="fill:none; clip-path:url(#clipPath10);"/>
            <path d="M115 31.6709 L408.9975 31.6709"
                  style="fill:none; clip-path:url(#clipPath10);"/>
            <path d="M115 230.0665 L408.9975 230.0665"
                  style="fill:none; clip-path:url(#clipPath10); stroke:rgb(233,233,233);"/>
            <path d="M115 199.5441 L408.9975 199.5441"
                  style="fill:none; clip-path:url(#clipPath10); stroke:rgb(233,233,233);"/>
            <path d="M115 169.0217 L408.9975 169.0217"
                  style="fill:none; clip-path:url(#clipPath10); stroke:rgb(233,233,233);"/>
            <path d="M115 138.4993 L408.9975 138.4993"
                  style="fill:none; clip-path:url(#clipPath10); stroke:rgb(233,233,233);"/>
            <path d="M115 107.9769 L408.9975 107.9769"
                  style="fill:none; clip-path:url(#clipPath10); stroke:rgb(233,233,233);"/>
            <path d="M115 77.4545 L408.9975 77.4545"
                  style="fill:none; clip-path:url(#clipPath10); stroke:rgb(233,233,233);"/>
            <path d="M115 46.9321 L408.9975 46.9321"
                  style="fill:none; clip-path:url(#clipPath10); stroke:rgb(233,233,233);"/>
            <path d="M115 16.4097 L408.9975 16.4097"
                  style="fill:none; clip-path:url(#clipPath10); stroke:rgb(233,233,233);"/>
        </g>
        <g style="stroke-linecap:butt; font-size:13px; fill:rgb(0,116,204); text-rendering:optimizeLegibility; image-rendering:optimizeQuality; color-rendering:optimizeQuality; font-family:'Times New Roman'; stroke-linejoin:round; stroke:rgb(0,116,204); color-interpolation:linearRGB; stroke-width:1.5;"
           transform="translate(5,5)">
            <path d="M117 236 L118.45 233.0724 L119.9 230.1797 L121.35 227.3215 L122.7999 224.4975 L124.2499 221.7073 L125.6999 218.9504 L127.1499 216.2265 L128.5999 213.5352 L130.0499 210.8762 L131.4999 208.249 L132.9499 205.6533 L134.3999 203.0887 L135.8498 200.555 L137.2998 198.0516 L138.7498 195.5784 L140.1998 193.1348 L141.6498 190.7207 L143.0998 188.3356 L144.5498 185.9792 L145.9998 183.6512 L147.4497 181.3512 L148.8997 179.079 L150.3497 176.8341 L151.7997 174.6164 L153.2497 172.4254 L154.6997 170.2608 L156.1497 168.1224 L157.5997 166.0099 L159.0496 163.9228 L160.4996 161.861 L161.9496 159.8242 L163.3996 157.812 L164.8496 155.8241 L166.2996 153.8604 L167.7496 151.9204 L169.1996 150.004 L170.6495 148.1107 L172.0995 146.2405 L173.5495 144.393 L174.9995 142.5679 L176.4495 140.765 L177.8995 138.9839 L179.3495 137.2246 L180.7995 135.4866 L182.2495 133.7697 L183.6994 132.0737 L185.1494 130.3984 L186.5994 128.7434 L188.0494 127.1087 L189.4994 125.4938 L190.9494 123.8985 L192.3994 122.3227 L193.8493 120.7661 L195.2993 119.2285 L196.7493 117.7096 L198.1993 116.2093 L199.6493 114.7273 L201.0993 113.2633 L202.5493 111.8173 L203.9993 110.3889 L205.4492 108.978 L206.8992 107.5843 L208.3492 106.2077 L209.7992 104.8479 L211.2492 103.5048 L212.6992 102.1781 L214.1492 100.8676 L215.5992 99.5732 L217.0491 98.2946 L218.4991 97.0317 L219.9491 95.7843 L221.3991 94.5521 L222.8491 93.3351 L224.2991 92.133 L225.7491 90.9456 L227.1991 89.7728 L228.649 88.6143 L230.099 87.4701 L231.549 86.3399 L232.999 85.2235 L234.449 84.1208 L235.899 83.0317 L237.349 81.956 L238.799 80.8934 L240.249 79.8439 L241.6989 78.8073 L243.1489 77.7835 L244.5989 76.7723 L246.0489 75.7734 L247.4989 74.7869 L248.9489 73.8125 L250.3989 72.8502 L251.8488 71.8996 L253.2988 70.9608 L254.7488 70.0336 L256.1988 69.1177 L257.6488 68.2132 L259.0988 67.3198 L260.5488 66.4374 L261.9988 65.5659 L263.4487 64.7051 L264.8987 63.855 L266.3487 63.0153 L267.7987 62.186 L269.2487 61.3669 L270.6987 60.5579 L272.1487 59.7589 L273.5987 58.9697 L275.0486 58.1903 L276.4987 57.4205 L277.9486 56.6602 L279.3986 55.9093 L280.8486 55.1676 L282.2986 54.4351 L283.7486 53.7116 L285.1985 52.997 L286.6486 52.2913 L288.0985 51.5942 L289.5485 50.9058 L290.9985 50.2259 L292.4485 49.5544 L293.8985 48.8912 L295.3485 48.2361 L296.7985 47.5892 L298.2485 46.9503 L299.6984 46.3194 L301.1484 45.6962 L302.5984 45.0807 L304.0484 44.4729 L305.4984 43.8726 L306.9484 43.2797 L308.3984 42.6942 L309.8484 42.1159 L311.2983 41.5448 L312.7484 40.9807 L314.1983 40.4237 L315.6483 39.8736 L317.0983 39.3302 L318.5483 38.7936 L319.9983 38.2637 L321.4482 37.7403 L322.8983 37.2234 L324.3482 36.7129 L325.7982 36.2087 L327.2482 35.7108 L328.6982 35.219 L330.1482 34.7334 L331.5982 34.2537 L333.0482 33.78 L334.4981 33.3122 L335.9481 32.8501 L337.3981 32.3938 L338.8481 31.9431 L340.2981 31.498 L341.7481 31.0584 L343.1981 30.6242 L344.6481 30.1955 L346.0981 29.772 L347.548 29.3538 L348.998 28.9408 L350.448 28.533 L351.898 28.1302 L353.348 27.7324 L354.798 27.3395 L356.248 26.9515 L357.6979 26.5684 L359.1479 26.19 L360.5979 25.8163 L362.0479 25.4473 L363.4979 25.0828 L364.9479 24.7229 L366.3979 24.3674 L367.8479 24.0164 L369.2979 23.6698 L370.7478 23.3274 L372.1978 22.9893 L373.6478 22.6554 L375.0978 22.3257 L376.5478 22.0001 L377.9978 21.6785 L379.4478 21.3609 L380.8978 21.0472 L382.3477 20.7375 L383.7977 20.4316 L385.2477 20.1295 L386.6977 19.8311 L388.1477 19.5365 L389.5977 19.2455 L391.0477 18.9582 L392.4977 18.6744 L393.9476 18.3941 L395.3976 18.1173 L396.8476 17.8439 L398.2976 17.5739 L399.7476 17.3073 L401.1976 17.044 L402.6476 16.7839 L404.0976 16.5271 L405.5475 16.2735 L406.9975 16.023"
                  style="fill:none; clip-path:url(#clipPath11);"/>
        </g>
        <g style="stroke-linecap:butt; font-size:13px; fill:rgb(204,0,116); text-rendering:optimizeLegibility; image-rendering:optimizeQuality; color-rendering:optimizeQuality; font-family:'Times New Roman'; stroke-linejoin:round; stroke:rgb(204,0,116); color-interpolation:linearRGB; stroke-width:1.5;"
           transform="translate(5,5)">
            <path d="M117 236 L118.8239 233.8146 L120.6478 231.1408 L122.4716 229.2607 L124.2955 226.8433 L126.1194 224.6823 L127.9433 222.2893 L129.7672 220.458 L131.5911 218.5778 L133.4149 216.2337 L135.2388 214.964 L137.0627 213.1082 L138.8866 211.0693 L140.7105 210.056 L142.5344 207.9194 L144.3583 205.8317 L146.1821 204.2811 L148.006 202.4254 L149.8299 200.2644 L151.6538 197.847 L153.4777 195.7104 L155.3016 193.5495 L157.1254 191.0588 L158.9493 188.0798 L160.7732 185.87 L162.5971 182.8666 L164.421 180.4248 L166.2449 177.9586 L168.0687 175.2116 L169.8926 172.5134 L171.7165 170.3036 L173.5404 167.2514 L175.3643 164.3212 L177.1882 162.6486 L179.0121 159.4132 L180.8359 157.533 L182.6598 155.0912 L184.4837 152.6983 L186.3076 150.8181 L188.1315 148.3519 L189.9554 145.6781 L191.7792 143.8224 L193.6031 141.6614 L195.427 139.2928 L197.2509 137.6935 L199.0748 135.2761 L200.8987 133.1884 L202.7225 131.5646 L204.5464 128.9152 L206.3703 127.3159 L208.1942 124.9473 L210.0181 123.3724 L211.842 121.2358 L213.6658 119.2213 L215.4897 118.4399 L217.3136 115.7662 L219.1375 113.9348 L220.9614 112.1523 L222.7852 110.8338 L224.6091 108.4897 L226.433 107.2199 L228.2569 105.3642 L230.0808 103.3008 L231.9047 101.9823 L233.7286 99.6137 L235.5525 98.112 L237.3763 96.8179 L239.2002 94.7301 L241.0241 93.1796 L242.848 91.3971 L244.6719 90.1274 L246.4958 88.3449 L248.3196 87.0507 L250.1435 84.9874 L251.9674 83.7665 L253.7913 82.4479 L255.6152 80.1038 L257.4391 78.9073 L259.2629 77.9428 L261.0868 76.4167 L262.9107 74.9639 L264.7346 74.2802 L266.5585 72.754 L268.3824 71.2279 L270.2062 69.7018 L272.0301 68.2245 L273.854 67.2844 L275.6779 66.0391 L277.5018 64.513 L279.3257 63.0845 L281.1495 62.6328 L282.9734 60.5939 L284.7973 59.7027 L286.6212 58.9945 L288.4451 57.2365 L290.269 56.2719 L292.0928 54.7946 L293.9167 53.8546 L295.7406 52.6825 L297.5645 51.9988 L299.3884 50.4971 L301.2123 49.325 L303.0361 48.6413 L304.86 47.1641 L306.6839 46.2728 L308.5078 45.6135 L310.3317 44.3682 L312.1556 42.9398 L313.9795 42.5369 L315.8033 41.0596 L317.6272 40.1439 L319.4511 39.2038 L321.275 38.0318 L323.0989 37.3725 L324.9227 36.176 L326.7466 35.2359 L328.5705 34.0394 L330.3944 33.1238 L332.2183 32.2081 L334.0422 31.3168 L335.8661 30.682 L337.6899 29.7663 L339.5138 28.8018 L341.3377 27.3489 L343.1616 26.7385 L344.9855 26.1036 L346.8094 25.1879 L348.6332 24.2723 L350.4571 23.381 L352.281 22.7706 L354.1049 22.1357 L355.9288 21.1956 L357.7527 20.0235 L359.5765 19.4131 L361.4005 18.8026 L363.2243 18.1922 L365.0482 17.5818 L366.8721 16.9225 L368.696 15.7748 L370.5198 15.4452 L372.3438 14.8103 L374.1676 13.9191 L375.9915 13.3086 L377.8154 12.747 L379.6393 12.6738 L381.4632 11.7581 L383.287 10.8668 L385.1109 10.2808 L386.9348 9.9512 L388.7587 9.3163 L390.5826 8.4495 L392.4065 8.1442 L394.2303 7.8146 L396.0542 7.2041 L397.8781 6.5693 L399.702 5.7024 L401.5259 5.3972 L403.3498 5.0187 L405.1736 3.8223 L406.9975 3.0043"
                  style="fill:none; clip-path:url(#clipPath11);"/>
        </g>
        <g transform="translate(5,5)"
           style="stroke-linecap:butt; font-size:13px; text-rendering:optimizeLegibility; image-rendering:optimizeQuality; color-rendering:optimizeQuality; font-family:'Times New Roman'; stroke-linejoin:round; color-interpolation:linearRGB;">
            <path d="M115 238 L408.9975 238"
                  style="fill:none; clip-path:url(#clipPath10);"/>
            <path d="M115 1.0043 L408.9975 1.0043"
                  style="fill:none; clip-path:url(#clipPath10);"/>
        </g>
        <g transform="translate(5,5)"
           style="stroke-linecap:butt; font-size:13px; text-rendering:optimizeLegibility; image-rendering:optimizeQuality; color-rendering:optimizeQuality; font-family:'Times New Roman'; stroke-linejoin:round; color-interpolation:linearRGB;">
            <path d="M253.1562 263.9844 L252.5469 266.1094 L253.7812 266.1094 L253.6406 266.6094 L252.4219 266.6094 L251.0781 271.2188 Q250.8594 271.9531 250.8594 272.1719 Q250.8594 272.3125 250.9219 272.3828 Q250.9844 272.4531 251.0781 272.4531 Q251.2656 272.4531 251.5938 272.1719 Q251.7812 272.0156 252.4219 271.2188 L252.6875 271.4062 Q251.9688 272.4531 251.3281 272.8906 Q250.8906 273.1875 250.4375 273.1875 Q250.0938 273.1875 249.875 272.9688 Q249.6562 272.75 249.6562 272.4219 Q249.6562 272 249.9062 271.125 L251.2188 266.6094 L250.0312 266.6094 L250.1094 266.2969 Q250.9688 266.0625 251.5391 265.6016 Q252.1094 265.1406 252.8125 263.9844 L253.1562 263.9844 Z"
                  style="stroke:none; clip-path:url(#clipPath12);"/>
            <path d="M262.75 276.1719 L259.3125 276.1719 L259.3125 262.1562 L262.75 262.1562 L262.75 262.7812 L260.4844 262.7812 L260.4844 275.5625 L262.75 275.5625 L262.75 276.1719 ZM268.4531 265.625 L268.4531 268.0625 L268.2031 268.0625 Q267.9062 266.9219 267.4375 266.5078 Q266.9688 266.0938 266.25 266.0938 Q265.7031 266.0938 265.3672 266.3828 Q265.0312 266.6719 265.0312 267.0156 Q265.0312 267.4531 265.2812 267.7656 Q265.5312 268.0938 266.2656 268.4531 L267.4062 269 Q269 269.7812 269 271.0469 Q269 272.0156 268.2578 272.6172 Q267.5156 273.2188 266.6094 273.2188 Q265.9531 273.2188 265.1094 272.9844 Q264.8438 272.9062 264.6875 272.9062 Q264.5 272.9062 264.4062 273.1094 L264.1406 273.1094 L264.1406 270.5469 L264.4062 270.5469 Q264.625 271.6406 265.2422 272.1953 Q265.8594 272.75 266.625 272.75 Q267.1562 272.75 267.5 272.4375 Q267.8438 272.125 267.8438 271.6719 Q267.8438 271.1406 267.4609 270.7734 Q267.0781 270.4062 265.9453 269.8438 Q264.8125 269.2812 264.4688 268.8281 Q264.1094 268.375 264.1094 267.7031 Q264.1094 266.8125 264.7188 266.2188 Q265.3281 265.625 266.2812 265.625 Q266.7031 265.625 267.3125 265.8125 Q267.7031 265.9219 267.8438 265.9219 Q267.9688 265.9219 268.0391 265.8672 Q268.1094 265.8125 268.2031 265.625 L268.4531 265.625 ZM270.1484 262.1562 L273.5859 262.1562 L273.5859 276.1875 L270.1484 276.1875 L270.1484 275.5625 L272.4141 275.5625 L272.4141 262.7812 L270.1484 262.7812 L270.1484 262.1562 Z"
                  style="clip-path:url(#clipPath12); stroke:none;"/>
        </g>
        <g transform="translate(5,5)"
           style="font-size:13px; text-rendering:optimizeLegibility; color-rendering:optimizeQuality; image-rendering:optimizeQuality; font-family:'Times New Roman'; color-interpolation:linearRGB;">
            <path d="M117 238 L117 241.675"
                  style="fill:none; clip-path:url(#clipPath10);"/>
            <path d="M118.5781 255.7656 Q118.5781 253.9531 119.125 252.6406 Q119.6719 251.3281 120.5781 250.6875 Q121.2812 250.1875 122.0312 250.1875 Q123.25 250.1875 124.2188 251.4219 Q125.4375 252.9688 125.4375 255.5938 Q125.4375 257.4375 124.9062 258.7266 Q124.375 260.0156 123.5469 260.6016 Q122.7188 261.1875 121.9531 261.1875 Q120.4375 261.1875 119.4375 259.3906 Q118.5781 257.8906 118.5781 255.7656 ZM120.1094 255.9531 Q120.1094 258.1406 120.6562 259.5312 Q121.0938 260.6875 121.9844 260.6875 Q122.4062 260.6875 122.8594 260.3125 Q123.3125 259.9375 123.5469 259.0469 Q123.9062 257.7031 123.9062 255.25 Q123.9062 253.4375 123.5312 252.2344 Q123.25 251.3281 122.7969 250.9531 Q122.4844 250.7031 122.0312 250.7031 Q121.5 250.7031 121.0781 251.1719 Q120.5156 251.8281 120.3125 253.2188 Q120.1094 254.6094 120.1094 255.9531 Z"
                  style="clip-path:url(#clipPath13); stroke:none;"
                  transform="translate(-5,-5)"/>
        </g>
        <g transform="translate(5,5)"
           style="font-size:13px; text-rendering:optimizeLegibility; color-rendering:optimizeQuality; image-rendering:optimizeQuality; font-family:'Times New Roman'; color-interpolation:linearRGB;">
            <path d="M153.4777 238 L153.4777 241.675"
                  style="fill:none; clip-path:url(#clipPath10);"/>
            <path d="M155.875 251.4375 L158.4531 250.1875 L158.7188 250.1875 L158.7188 259.125 Q158.7188 260.0156 158.7891 260.2344 Q158.8594 260.4531 159.0938 260.5703 Q159.3281 260.6875 160.0469 260.7031 L160.0469 261 L156.0625 261 L156.0625 260.7031 Q156.8125 260.6875 157.0312 260.5781 Q157.25 260.4688 157.3359 260.2734 Q157.4219 260.0781 157.4219 259.125 L157.4219 253.4062 Q157.4219 252.25 157.3438 251.9219 Q157.2969 251.6719 157.1484 251.5547 Q157 251.4375 156.7969 251.4375 Q156.5156 251.4375 156 251.6875 L155.875 251.4375 Z"
                  style="clip-path:url(#clipPath13); stroke:none;"
                  transform="translate(-5,-5)"/>
        </g>
        <g transform="translate(5,5)"
           style="font-size:13px; text-rendering:optimizeLegibility; color-rendering:optimizeQuality; image-rendering:optimizeQuality; font-family:'Times New Roman'; color-interpolation:linearRGB;">
            <path d="M189.9554 238 L189.9554 241.675"
                  style="fill:none; clip-path:url(#clipPath10);"/>
            <path d="M197.3438 258.9531 L196.5938 261 L190.3438 261 L190.3438 260.7031 Q193.1094 258.1875 194.2344 256.5938 Q195.3594 255 195.3594 253.6875 Q195.3594 252.6719 194.7422 252.0234 Q194.125 251.375 193.2656 251.375 Q192.4844 251.375 191.8594 251.8359 Q191.2344 252.2969 190.9375 253.1719 L190.6562 253.1719 Q190.8438 251.7344 191.6562 250.9609 Q192.4688 250.1875 193.6719 250.1875 Q194.9688 250.1875 195.8281 251.0156 Q196.6875 251.8438 196.6875 252.9688 Q196.6875 253.7656 196.3125 254.5781 Q195.7344 255.8438 194.4375 257.25 Q192.5 259.375 192.0156 259.8125 L194.7812 259.8125 Q195.625 259.8125 195.9609 259.75 Q196.2969 259.6875 196.5703 259.5 Q196.8438 259.3125 197.0469 258.9531 L197.3438 258.9531 Z"
                  style="clip-path:url(#clipPath13); stroke:none;"
                  transform="translate(-5,-5)"/>
        </g>
        <g transform="translate(5,5)"
           style="font-size:13px; text-rendering:optimizeLegibility; color-rendering:optimizeQuality; image-rendering:optimizeQuality; font-family:'Times New Roman'; color-interpolation:linearRGB;">
            <path d="M226.433 238 L226.433 241.675"
                  style="fill:none; clip-path:url(#clipPath10);"/>
            <path d="M227.8125 252.4219 Q228.2656 251.3438 228.9609 250.7656 Q229.6562 250.1875 230.6875 250.1875 Q231.9531 250.1875 232.6406 251.0156 Q233.1562 251.625 233.1562 252.3281 Q233.1562 253.4844 231.7031 254.7188 Q232.6719 255.1094 233.1719 255.8203 Q233.6719 256.5312 233.6719 257.4844 Q233.6719 258.8594 232.7969 259.875 Q231.6562 261.1875 229.5 261.1875 Q228.4219 261.1875 228.0391 260.9219 Q227.6562 260.6562 227.6562 260.3438 Q227.6562 260.125 227.8359 259.9531 Q228.0156 259.7812 228.2812 259.7812 Q228.4688 259.7812 228.6719 259.8438 Q228.8125 259.875 229.2812 260.125 Q229.75 260.375 229.9219 260.4219 Q230.2188 260.5 230.5469 260.5 Q231.3438 260.5 231.9297 259.8828 Q232.5156 259.2656 232.5156 258.4219 Q232.5156 257.8125 232.25 257.2188 Q232.0469 256.7812 231.7969 256.5625 Q231.4688 256.25 230.8828 255.9922 Q230.2969 255.7344 229.6875 255.7344 L229.4375 255.7344 L229.4375 255.5 Q230.0469 255.4219 230.6719 255.0547 Q231.2969 254.6875 231.5781 254.1719 Q231.8594 253.6562 231.8594 253.0469 Q231.8594 252.2344 231.3516 251.7422 Q230.8438 251.25 230.0938 251.25 Q228.8906 251.25 228.0781 252.5469 L227.8125 252.4219 Z"
                  style="clip-path:url(#clipPath13); stroke:none;"
                  transform="translate(-5,-5)"/>
        </g>
        <g transform="translate(5,5)"
           style="font-size:13px; text-rendering:optimizeLegibility; color-rendering:optimizeQuality; image-rendering:optimizeQuality; font-family:'Times New Roman'; color-interpolation:linearRGB;">
            <path d="M262.9107 238 L262.9107 241.675"
                  style="fill:none; clip-path:url(#clipPath10);"/>
            <path d="M270.4531 257.0938 L270.4531 258.2031 L269.0312 258.2031 L269.0312 261 L267.7344 261 L267.7344 258.2031 L263.25 258.2031 L263.25 257.2031 L268.1719 250.1875 L269.0312 250.1875 L269.0312 257.0938 L270.4531 257.0938 ZM267.7344 257.0938 L267.7344 251.8281 L264.0156 257.0938 L267.7344 257.0938 Z"
                  style="clip-path:url(#clipPath13); stroke:none;"
                  transform="translate(-5,-5)"/>
        </g>
        <g transform="translate(5,5)"
           style="font-size:13px; text-rendering:optimizeLegibility; color-rendering:optimizeQuality; image-rendering:optimizeQuality; font-family:'Times New Roman'; color-interpolation:linearRGB;">
            <path d="M299.3884 238 L299.3884 241.675"
                  style="fill:none; clip-path:url(#clipPath10);"/>
            <path d="M306.9531 250.4062 L306.3438 251.7344 L303.1562 251.7344 L302.4531 253.1562 Q304.5312 253.4531 305.7344 254.6875 Q306.7812 255.75 306.7812 257.1875 Q306.7812 258.0312 306.4375 258.7422 Q306.0938 259.4531 305.5781 259.9531 Q305.0625 260.4531 304.4375 260.75 Q303.5312 261.1875 302.5938 261.1875 Q301.6406 261.1875 301.2031 260.8594 Q300.7656 260.5312 300.7656 260.1406 Q300.7656 259.9219 300.9453 259.7578 Q301.125 259.5938 301.4062 259.5938 Q301.6094 259.5938 301.7578 259.6562 Q301.9062 259.7188 302.2812 259.9688 Q302.8594 260.375 303.4688 260.375 Q304.375 260.375 305.0703 259.6875 Q305.7656 259 305.7656 258 Q305.7656 257.0469 305.1484 256.2109 Q304.5312 255.375 303.4375 254.9219 Q302.5938 254.5781 301.125 254.5156 L303.1562 250.4062 L306.9531 250.4062 Z"
                  style="clip-path:url(#clipPath13); stroke:none;"
                  transform="translate(-5,-5)"/>
        </g>
        <g transform="translate(5,5)"
           style="font-size:13px; text-rendering:optimizeLegibility; color-rendering:optimizeQuality; image-rendering:optimizeQuality; font-family:'Times New Roman'; color-interpolation:linearRGB;">
            <path d="M335.8661 238 L335.8661 241.675"
                  style="fill:none; clip-path:url(#clipPath10);"/>
            <path d="M343.1719 250.1875 L343.1719 250.4688 Q342.1406 250.5781 341.4922 250.8828 Q340.8438 251.1875 340.2031 251.8203 Q339.5625 252.4531 339.1484 253.2344 Q338.7344 254.0156 338.4531 255.0781 Q339.5781 254.3125 340.7031 254.3125 Q341.7969 254.3125 342.5938 255.1875 Q343.3906 256.0625 343.3906 257.4375 Q343.3906 258.7656 342.5781 259.8594 Q341.6094 261.1875 340.0156 261.1875 Q338.9375 261.1875 338.1719 260.4688 Q336.6875 259.0625 336.6875 256.8438 Q336.6875 255.4219 337.2578 254.1406 Q337.8281 252.8594 338.8906 251.8672 Q339.9531 250.875 340.9219 250.5312 Q341.8906 250.1875 342.7188 250.1875 L343.1719 250.1875 ZM338.3125 255.6562 Q338.1719 256.7031 338.1719 257.3594 Q338.1719 258.1094 338.4531 258.9844 Q338.7344 259.8594 339.2812 260.375 Q339.6719 260.75 340.25 260.75 Q340.9219 260.75 341.4609 260.1094 Q342 259.4688 342 258.2812 Q342 256.9375 341.4688 255.9609 Q340.9375 254.9844 339.9531 254.9844 Q339.6562 254.9844 339.3203 255.1094 Q338.9844 255.2344 338.3125 255.6562 Z"
                  style="clip-path:url(#clipPath13); stroke:none;"
                  transform="translate(-5,-5)"/>
        </g>
        <g transform="translate(5,5)"
           style="font-size:13px; text-rendering:optimizeLegibility; color-rendering:optimizeQuality; image-rendering:optimizeQuality; font-family:'Times New Roman'; color-interpolation:linearRGB;">
            <path d="M372.3438 238 L372.3438 241.675"
                  style="fill:none; clip-path:url(#clipPath10);"/>
            <path d="M374.6094 250.4062 L380.2969 250.4062 L380.2969 250.7031 L376.7656 261.2188 L375.8906 261.2188 L379.0469 251.6719 L376.1406 251.6719 Q375.25 251.6719 374.875 251.8906 Q374.2188 252.25 373.8281 253 L373.5938 252.9062 L374.6094 250.4062 Z"
                  style="clip-path:url(#clipPath13); stroke:none;"
                  transform="translate(-5,-5)"/>
        </g>
        <g transform="translate(5,5)"
           style="font-size:13px; text-rendering:optimizeLegibility; color-rendering:optimizeQuality; image-rendering:optimizeQuality; font-family:'Times New Roman'; color-interpolation:linearRGB;">
            <path d="M135.2388 238 L135.2388 239.8375"
                  style="fill:none; clip-path:url(#clipPath10);"/>
        </g>
        <g transform="translate(5,5)"
           style="font-size:13px; text-rendering:optimizeLegibility; color-rendering:optimizeQuality; image-rendering:optimizeQuality; font-family:'Times New Roman'; color-interpolation:linearRGB;">
            <path d="M171.7165 238 L171.7165 239.8375"
                  style="fill:none; clip-path:url(#clipPath10);"/>
        </g>
        <g transform="translate(5,5)"
           style="font-size:13px; text-rendering:optimizeLegibility; color-rendering:optimizeQuality; image-rendering:optimizeQuality; font-family:'Times New Roman'; color-interpolation:linearRGB;">
            <path d="M208.1942 238 L208.1942 239.8375"
                  style="fill:none; clip-path:url(#clipPath10);"/>
        </g>
        <g transform="translate(5,5)"
           style="font-size:13px; text-rendering:optimizeLegibility; color-rendering:optimizeQuality; image-rendering:optimizeQuality; font-family:'Times New Roman'; color-interpolation:linearRGB;">
            <path d="M244.6719 238 L244.6719 239.8375"
                  style="fill:none; clip-path:url(#clipPath10);"/>
        </g>
        <g transform="translate(5,5)"
           style="font-size:13px; text-rendering:optimizeLegibility; color-rendering:optimizeQuality; image-rendering:optimizeQuality; font-family:'Times New Roman'; color-interpolation:linearRGB;">
            <path d="M281.1495 238 L281.1495 239.8375"
                  style="fill:none; clip-path:url(#clipPath10);"/>
        </g>
        <g transform="translate(5,5)"
           style="font-size:13px; text-rendering:optimizeLegibility; color-rendering:optimizeQuality; image-rendering:optimizeQuality; font-family:'Times New Roman'; color-interpolation:linearRGB;">
            <path d="M317.6272 238 L317.6272 239.8375"
                  style="fill:none; clip-path:url(#clipPath10);"/>
        </g>
        <g transform="translate(5,5)"
           style="font-size:13px; text-rendering:optimizeLegibility; color-rendering:optimizeQuality; image-rendering:optimizeQuality; font-family:'Times New Roman'; color-interpolation:linearRGB;">
            <path d="M354.1049 238 L354.1049 239.8375"
                  style="fill:none; clip-path:url(#clipPath10);"/>
        </g>
        <g transform="translate(5,5)"
           style="font-size:13px; text-rendering:optimizeLegibility; color-rendering:optimizeQuality; image-rendering:optimizeQuality; font-family:'Times New Roman'; color-interpolation:linearRGB;">
            <path d="M390.5826 238 L390.5826 239.8375"
                  style="fill:none; clip-path:url(#clipPath10);"/>
        </g>
        <g transform="translate(5,5)"
           style="stroke-linecap:butt; font-size:13px; text-rendering:optimizeLegibility; image-rendering:optimizeQuality; color-rendering:optimizeQuality; font-family:'Times New Roman'; stroke-linejoin:round; color-interpolation:linearRGB;">
            <path d="M115 238 L115 1.0043"
                  style="fill:none; clip-path:url(#clipPath10);"/>
            <path d="M408.9975 238 L408.9975 1.0043"
                  style="fill:none; clip-path:url(#clipPath10);"/>
        </g>
        <g transform="translate(5,5)"
           style="stroke-linecap:butt; font-size:13px; text-rendering:optimizeLegibility; image-rendering:optimizeQuality; color-rendering:optimizeQuality; font-family:'Times New Roman'; stroke-linejoin:round; color-interpolation:linearRGB;">
            <path d="M6.3438 118.4062 L8.6094 117.9219 Q8.8438 118.5 9 119.1094 Q9.2031 119.9844 9.3438 121.2031 Q9.4062 121.8125 9.5156 123.7812 Q10.4844 122.7031 10.6719 122.4375 Q11.7031 121.0469 11.8594 120.7969 Q12.125 120.3906 12.2188 120.0781 Q12.3125 119.8438 12.3125 119.625 Q12.3125 119.4219 11.9453 119.1562 Q11.5781 118.8906 11.5781 118.5625 Q11.5781 118.3125 11.7812 118.1172 Q11.9844 117.9219 12.25 117.9219 Q12.5781 117.9219 12.8281 118.1953 Q13.0781 118.4688 13.0781 118.8594 Q13.0781 119.2656 12.9531 119.625 Q12.75 120.2188 12.1953 121.0781 Q11.6406 121.9375 10.4062 123.375 Q10.25 123.5469 8.6719 125.1875 L8.3906 125.1875 Q8.2031 120.2344 7.6094 119.0156 Q7.4062 118.6094 6.9531 118.6094 Q6.7656 118.6094 6.4062 118.6875 L6.3438 118.4062 Z"
                  style="stroke:none; clip-path:url(#clipPath14);"/>
            <path d="M24.1562 115.9844 L23.5469 118.1094 L24.7812 118.1094 L24.6406 118.6094 L23.4219 118.6094 L22.0781 123.2188 Q21.8594 123.9531 21.8594 124.1719 Q21.8594 124.3125 21.9219 124.3828 Q21.9844 124.4531 22.0781 124.4531 Q22.2656 124.4531 22.5938 124.1719 Q22.7812 124.0156 23.4219 123.2188 L23.6875 123.4062 Q22.9688 124.4531 22.3281 124.8906 Q21.8906 125.1875 21.4375 125.1875 Q21.0938 125.1875 20.875 124.9688 Q20.6562 124.75 20.6562 124.4219 Q20.6562 124 20.9062 123.125 L22.2188 118.6094 L21.0312 118.6094 L21.1094 118.2969 Q21.9688 118.0625 22.5391 117.6016 Q23.1094 117.1406 23.8125 115.9844 L24.1562 115.9844 Z"
                  style="clip-path:url(#clipPath14); stroke:none;"/>
            <path d="M3.1007 13.643 L2.8752 14 Q0 12.2148 0 6.86 L0 7 L0 7.14 Q0 1.7664 2.8752 0 L3.1007 0.3383 Q1.8228 1.4282 1.3906 3.4013 Q1.1275 4.6228 1.1275 6.86 L1.1275 7 L1.1275 7.14 Q1.1275 9.3584 1.3906 10.5799 Q1.8228 12.553 3.1007 13.643 Z"
                  style="clip-path:url(#clipPath15); stroke:none;"
                  transform="translate(15,114)"/>
            <path d="M0 0.357 L0.2255 0 Q3.1007 1.7852 3.1007 7.14 L3.1007 7 L3.1007 6.86 Q3.1007 12.2336 0.2255 14 L0 13.6617 Q1.2779 12.5718 1.7101 10.5987 Q1.9732 9.3772 1.9732 7.14 L1.9732 7 L1.9732 6.86 Q1.9732 4.6416 1.7101 3.4201 Q1.2779 1.447 0 0.357 Z"
                  style="clip-path:url(#clipPath16); stroke:none;"
                  transform="translate(26,114)"/>
            <path d="M40.75 128.1719 L37.3125 128.1719 L37.3125 114.1562 L40.75 114.1562 L40.75 114.7812 L38.4844 114.7812 L38.4844 127.5625 L40.75 127.5625 L40.75 128.1719 ZM43.9531 113.8906 L43.9531 121 L45.7656 119.3438 Q46.3438 118.8125 46.4375 118.6719 Q46.5 118.5781 46.5 118.4844 Q46.5 118.3281 46.375 118.2188 Q46.25 118.1094 45.9531 118.0938 L45.9531 117.8438 L49.0625 117.8438 L49.0625 118.0938 Q48.4219 118.1094 47.9922 118.2891 Q47.5625 118.4688 47.0625 118.9219 L45.2188 120.625 L47.0625 122.9375 Q47.8281 123.9062 48.0938 124.1562 Q48.4688 124.5312 48.75 124.6406 Q48.9375 124.7188 49.4219 124.7188 L49.4219 125 L45.9531 125 L45.9531 124.7188 Q46.25 124.7031 46.3516 124.625 Q46.4531 124.5469 46.4531 124.3906 Q46.4531 124.2188 46.1406 123.8125 L43.9531 121.0156 L43.9531 123.3906 Q43.9531 124.0781 44.0469 124.2969 Q44.1406 124.5156 44.3203 124.6094 Q44.5 124.7031 45.1094 124.7188 L45.1094 125 L41.4688 125 L41.4688 124.7188 Q42.0156 124.7188 42.2812 124.5781 Q42.4531 124.5 42.5312 124.3125 Q42.6562 124.0625 42.6562 123.4219 L42.6562 116.9062 Q42.6562 115.6719 42.6016 115.3906 Q42.5469 115.1094 42.4219 115.0078 Q42.2969 114.9062 42.0938 114.9062 Q41.9219 114.9062 41.5938 115.0312 L41.4688 114.7656 L43.5938 113.8906 L43.9531 113.8906 ZM51.9531 119.1562 Q52.7344 118.375 52.875 118.25 Q53.2344 117.9531 53.6406 117.7891 Q54.0469 117.625 54.4375 117.625 Q55.1094 117.625 55.5938 118.0156 Q56.0781 118.4062 56.25 119.1562 Q57.0469 118.2188 57.6016 117.9219 Q58.1562 117.625 58.75 117.625 Q59.3125 117.625 59.7578 117.9219 Q60.2031 118.2188 60.4531 118.875 Q60.625 119.3281 60.625 120.2969 L60.625 123.375 Q60.625 124.0469 60.7344 124.2969 Q60.8125 124.4688 61.0234 124.5938 Q61.2344 124.7188 61.7031 124.7188 L61.7031 125 L58.1719 125 L58.1719 124.7188 L58.3281 124.7188 Q58.7812 124.7188 59.0469 124.5312 Q59.2188 124.4062 59.2969 124.1406 Q59.3281 124 59.3281 123.375 L59.3281 120.2969 Q59.3281 119.4219 59.125 119.0625 Q58.8125 118.5625 58.1406 118.5625 Q57.7344 118.5625 57.3125 118.7734 Q56.8906 118.9844 56.2969 119.5469 L56.2812 119.625 L56.2969 119.9688 L56.2969 123.375 Q56.2969 124.1094 56.3828 124.2891 Q56.4688 124.4688 56.6953 124.5938 Q56.9219 124.7188 57.4688 124.7188 L57.4688 125 L53.8438 125 L53.8438 124.7188 Q54.4375 124.7188 54.6641 124.5781 Q54.8906 124.4375 54.9688 124.1562 Q55.0156 124.0156 55.0156 123.375 L55.0156 120.2969 Q55.0156 119.4219 54.75 119.0469 Q54.4062 118.5469 53.7969 118.5469 Q53.375 118.5469 52.9531 118.7656 Q52.3125 119.1094 51.9531 119.5469 L51.9531 123.375 Q51.9531 124.0781 52.0547 124.2891 Q52.1562 124.5 52.3438 124.6094 Q52.5312 124.7188 53.125 124.7188 L53.125 125 L49.5781 125 L49.5781 124.7188 Q50.0781 124.7188 50.2734 124.6094 Q50.4688 124.5 50.5703 124.2734 Q50.6719 124.0469 50.6719 123.375 L50.6719 120.6406 Q50.6719 119.4688 50.5938 119.125 Q50.5469 118.8594 50.4297 118.7656 Q50.3125 118.6719 50.1094 118.6719 Q49.8906 118.6719 49.5781 118.7812 L49.4688 118.5 L51.625 117.625 L51.9531 117.625 L51.9531 119.1562 ZM66.2578 113.8906 L62.4297 125.2188 L61.8047 125.2188 L65.6328 113.8906 L66.2578 113.8906 ZM68.8281 113.8906 L68.8281 119.125 Q69.6875 118.1719 70.1953 117.8984 Q70.7031 117.625 71.2188 117.625 Q71.8281 117.625 72.2656 117.9609 Q72.7031 118.2969 72.9062 119.0156 Q73.0625 119.5156 73.0625 120.8438 L73.0625 123.375 Q73.0625 124.0625 73.1719 124.3125 Q73.25 124.5 73.4375 124.6094 Q73.625 124.7188 74.125 124.7188 L74.125 125 L70.6094 125 L70.6094 124.7188 L70.7656 124.7188 Q71.2656 124.7188 71.4609 124.5625 Q71.6562 124.4062 71.7344 124.1094 Q71.7656 123.9844 71.7656 123.375 L71.7656 120.8438 Q71.7656 119.6719 71.6406 119.3047 Q71.5156 118.9375 71.25 118.7578 Q70.9844 118.5781 70.6094 118.5781 Q70.2344 118.5781 69.8203 118.7812 Q69.4062 118.9844 68.8281 119.5938 L68.8281 123.375 Q68.8281 124.1094 68.9062 124.2891 Q68.9844 124.4688 69.2109 124.5938 Q69.4375 124.7188 69.9844 124.7188 L69.9844 125 L66.4375 125 L66.4375 124.7188 Q66.9062 124.7188 67.1875 124.5625 Q67.3438 124.4844 67.4375 124.2656 Q67.5312 124.0469 67.5312 123.375 L67.5312 116.9062 Q67.5312 115.6719 67.4688 115.3906 Q67.4062 115.1094 67.2891 115.0078 Q67.1719 114.9062 66.9688 114.9062 Q66.7969 114.9062 66.4375 115.0312 L66.3281 114.7656 L68.4688 113.8906 L68.8281 113.8906 ZM74.8125 114.1562 L78.25 114.1562 L78.25 128.1875 L74.8125 128.1875 L74.8125 127.5625 L77.0781 127.5625 L77.0781 114.7812 L74.8125 114.7812 L74.8125 114.1562 Z"
                  style="clip-path:url(#clipPath14); stroke:none;"/>
        </g>
        <g transform="translate(5,5)"
           style="font-size:13px; text-rendering:optimizeLegibility; color-rendering:optimizeQuality; image-rendering:optimizeQuality; font-family:'Times New Roman'; color-interpolation:linearRGB;">
            <path d="M115 214.8053 L111.325 214.8053"
                  style="fill:none; clip-path:url(#clipPath10);"/>
            <path d="M92.8125 216.4219 Q93.2656 215.3438 93.9609 214.7656 Q94.6562 214.1875 95.6875 214.1875 Q96.9531 214.1875 97.6406 215.0156 Q98.1562 215.625 98.1562 216.3281 Q98.1562 217.4844 96.7031 218.7188 Q97.6719 219.1094 98.1719 219.8203 Q98.6719 220.5312 98.6719 221.4844 Q98.6719 222.8594 97.7969 223.875 Q96.6562 225.1875 94.5 225.1875 Q93.4219 225.1875 93.0391 224.9219 Q92.6562 224.6562 92.6562 224.3438 Q92.6562 224.125 92.8359 223.9531 Q93.0156 223.7812 93.2812 223.7812 Q93.4688 223.7812 93.6719 223.8438 Q93.8125 223.875 94.2812 224.125 Q94.75 224.375 94.9219 224.4219 Q95.2188 224.5 95.5469 224.5 Q96.3438 224.5 96.9297 223.8828 Q97.5156 223.2656 97.5156 222.4219 Q97.5156 221.8125 97.25 221.2188 Q97.0469 220.7812 96.7969 220.5625 Q96.4688 220.25 95.8828 219.9922 Q95.2969 219.7344 94.6875 219.7344 L94.4375 219.7344 L94.4375 219.5 Q95.0469 219.4219 95.6719 219.0547 Q96.2969 218.6875 96.5781 218.1719 Q96.8594 217.6562 96.8594 217.0469 Q96.8594 216.2344 96.3516 215.7422 Q95.8438 215.25 95.0938 215.25 Q93.8906 215.25 93.0781 216.5469 L92.8125 216.4219 ZM101.875 215.4375 L104.4531 214.1875 L104.7188 214.1875 L104.7188 223.125 Q104.7188 224.0156 104.7891 224.2344 Q104.8594 224.4531 105.0938 224.5703 Q105.3281 224.6875 106.0469 224.7031 L106.0469 225 L102.0625 225 L102.0625 224.7031 Q102.8125 224.6875 103.0312 224.5781 Q103.25 224.4688 103.3359 224.2734 Q103.4219 224.0781 103.4219 223.125 L103.4219 217.4062 Q103.4219 216.25 103.3438 215.9219 Q103.2969 215.6719 103.1484 215.5547 Q103 215.4375 102.7969 215.4375 Q102.5156 215.4375 102 215.6875 L101.875 215.4375 ZM108.5781 219.7656 Q108.5781 217.9531 109.125 216.6406 Q109.6719 215.3281 110.5781 214.6875 Q111.2812 214.1875 112.0312 214.1875 Q113.25 214.1875 114.2188 215.4219 Q115.4375 216.9688 115.4375 219.5938 Q115.4375 221.4375 114.9062 222.7266 Q114.375 224.0156 113.5469 224.6016 Q112.7188 225.1875 111.9531 225.1875 Q110.4375 225.1875 109.4375 223.3906 Q108.5781 221.8906 108.5781 219.7656 ZM110.1094 219.9531 Q110.1094 222.1406 110.6562 223.5312 Q111.0938 224.6875 111.9844 224.6875 Q112.4062 224.6875 112.8594 224.3125 Q113.3125 223.9375 113.5469 223.0469 Q113.9062 221.7031 113.9062 219.25 Q113.9062 217.4375 113.5312 216.2344 Q113.25 215.3281 112.7969 214.9531 Q112.4844 214.7031 112.0312 214.7031 Q111.5 214.7031 111.0781 215.1719 Q110.5156 215.8281 110.3125 217.2188 Q110.1094 218.6094 110.1094 219.9531 Z"
                  style="clip-path:url(#clipPath13); stroke:none;"
                  transform="translate(-5,-5)"/>
        </g>
        <g transform="translate(5,5)"
           style="font-size:13px; text-rendering:optimizeLegibility; color-rendering:optimizeQuality; image-rendering:optimizeQuality; font-family:'Times New Roman'; color-interpolation:linearRGB;">
            <path d="M115 184.2829 L111.325 184.2829"
                  style="fill:none; clip-path:url(#clipPath10);"/>
            <path d="M92.8125 186.4219 Q93.2656 185.3438 93.9609 184.7656 Q94.6562 184.1875 95.6875 184.1875 Q96.9531 184.1875 97.6406 185.0156 Q98.1562 185.625 98.1562 186.3281 Q98.1562 187.4844 96.7031 188.7188 Q97.6719 189.1094 98.1719 189.8203 Q98.6719 190.5312 98.6719 191.4844 Q98.6719 192.8594 97.7969 193.875 Q96.6562 195.1875 94.5 195.1875 Q93.4219 195.1875 93.0391 194.9219 Q92.6562 194.6562 92.6562 194.3438 Q92.6562 194.125 92.8359 193.9531 Q93.0156 193.7812 93.2812 193.7812 Q93.4688 193.7812 93.6719 193.8438 Q93.8125 193.875 94.2812 194.125 Q94.75 194.375 94.9219 194.4219 Q95.2188 194.5 95.5469 194.5 Q96.3438 194.5 96.9297 193.8828 Q97.5156 193.2656 97.5156 192.4219 Q97.5156 191.8125 97.25 191.2188 Q97.0469 190.7812 96.7969 190.5625 Q96.4688 190.25 95.8828 189.9922 Q95.2969 189.7344 94.6875 189.7344 L94.4375 189.7344 L94.4375 189.5 Q95.0469 189.4219 95.6719 189.0547 Q96.2969 188.6875 96.5781 188.1719 Q96.8594 187.6562 96.8594 187.0469 Q96.8594 186.2344 96.3516 185.7422 Q95.8438 185.25 95.0938 185.25 Q93.8906 185.25 93.0781 186.5469 L92.8125 186.4219 ZM101.875 185.4375 L104.4531 184.1875 L104.7188 184.1875 L104.7188 193.125 Q104.7188 194.0156 104.7891 194.2344 Q104.8594 194.4531 105.0938 194.5703 Q105.3281 194.6875 106.0469 194.7031 L106.0469 195 L102.0625 195 L102.0625 194.7031 Q102.8125 194.6875 103.0312 194.5781 Q103.25 194.4688 103.3359 194.2734 Q103.4219 194.0781 103.4219 193.125 L103.4219 187.4062 Q103.4219 186.25 103.3438 185.9219 Q103.2969 185.6719 103.1484 185.5547 Q103 185.4375 102.7969 185.4375 Q102.5156 185.4375 102 185.6875 L101.875 185.4375 ZM109.875 185.4375 L112.4531 184.1875 L112.7188 184.1875 L112.7188 193.125 Q112.7188 194.0156 112.7891 194.2344 Q112.8594 194.4531 113.0938 194.5703 Q113.3281 194.6875 114.0469 194.7031 L114.0469 195 L110.0625 195 L110.0625 194.7031 Q110.8125 194.6875 111.0312 194.5781 Q111.25 194.4688 111.3359 194.2734 Q111.4219 194.0781 111.4219 193.125 L111.4219 187.4062 Q111.4219 186.25 111.3438 185.9219 Q111.2969 185.6719 111.1484 185.5547 Q111 185.4375 110.7969 185.4375 Q110.5156 185.4375 110 185.6875 L109.875 185.4375 Z"
                  style="clip-path:url(#clipPath13); stroke:none;"
                  transform="translate(-5,-5)"/>
        </g>
        <g transform="translate(5,5)"
           style="font-size:13px; text-rendering:optimizeLegibility; color-rendering:optimizeQuality; image-rendering:optimizeQuality; font-family:'Times New Roman'; color-interpolation:linearRGB;">
            <path d="M115 153.7605 L111.325 153.7605"
                  style="fill:none; clip-path:url(#clipPath10);"/>
            <path d="M92.8125 155.4219 Q93.2656 154.3438 93.9609 153.7656 Q94.6562 153.1875 95.6875 153.1875 Q96.9531 153.1875 97.6406 154.0156 Q98.1562 154.625 98.1562 155.3281 Q98.1562 156.4844 96.7031 157.7188 Q97.6719 158.1094 98.1719 158.8203 Q98.6719 159.5312 98.6719 160.4844 Q98.6719 161.8594 97.7969 162.875 Q96.6562 164.1875 94.5 164.1875 Q93.4219 164.1875 93.0391 163.9219 Q92.6562 163.6562 92.6562 163.3438 Q92.6562 163.125 92.8359 162.9531 Q93.0156 162.7812 93.2812 162.7812 Q93.4688 162.7812 93.6719 162.8438 Q93.8125 162.875 94.2812 163.125 Q94.75 163.375 94.9219 163.4219 Q95.2188 163.5 95.5469 163.5 Q96.3438 163.5 96.9297 162.8828 Q97.5156 162.2656 97.5156 161.4219 Q97.5156 160.8125 97.25 160.2188 Q97.0469 159.7812 96.7969 159.5625 Q96.4688 159.25 95.8828 158.9922 Q95.2969 158.7344 94.6875 158.7344 L94.4375 158.7344 L94.4375 158.5 Q95.0469 158.4219 95.6719 158.0547 Q96.2969 157.6875 96.5781 157.1719 Q96.8594 156.6562 96.8594 156.0469 Q96.8594 155.2344 96.3516 154.7422 Q95.8438 154.25 95.0938 154.25 Q93.8906 154.25 93.0781 155.5469 L92.8125 155.4219 ZM101.875 154.4375 L104.4531 153.1875 L104.7188 153.1875 L104.7188 162.125 Q104.7188 163.0156 104.7891 163.2344 Q104.8594 163.4531 105.0938 163.5703 Q105.3281 163.6875 106.0469 163.7031 L106.0469 164 L102.0625 164 L102.0625 163.7031 Q102.8125 163.6875 103.0312 163.5781 Q103.25 163.4688 103.3359 163.2734 Q103.4219 163.0781 103.4219 162.125 L103.4219 156.4062 Q103.4219 155.25 103.3438 154.9219 Q103.2969 154.6719 103.1484 154.5547 Q103 154.4375 102.7969 154.4375 Q102.5156 154.4375 102 154.6875 L101.875 154.4375 ZM115.3438 161.9531 L114.5938 164 L108.3438 164 L108.3438 163.7031 Q111.1094 161.1875 112.2344 159.5938 Q113.3594 158 113.3594 156.6875 Q113.3594 155.6719 112.7422 155.0234 Q112.125 154.375 111.2656 154.375 Q110.4844 154.375 109.8594 154.8359 Q109.2344 155.2969 108.9375 156.1719 L108.6562 156.1719 Q108.8438 154.7344 109.6562 153.9609 Q110.4688 153.1875 111.6719 153.1875 Q112.9688 153.1875 113.8281 154.0156 Q114.6875 154.8438 114.6875 155.9688 Q114.6875 156.7656 114.3125 157.5781 Q113.7344 158.8438 112.4375 160.25 Q110.5 162.375 110.0156 162.8125 L112.7812 162.8125 Q113.625 162.8125 113.9609 162.75 Q114.2969 162.6875 114.5703 162.5 Q114.8438 162.3125 115.0469 161.9531 L115.3438 161.9531 Z"
                  style="clip-path:url(#clipPath13); stroke:none;"
                  transform="translate(-5,-5)"/>
        </g>
        <g transform="translate(5,5)"
           style="font-size:13px; text-rendering:optimizeLegibility; color-rendering:optimizeQuality; image-rendering:optimizeQuality; font-family:'Times New Roman'; color-interpolation:linearRGB;">
            <path d="M115 123.2381 L111.325 123.2381"
                  style="fill:none; clip-path:url(#clipPath10);"/>
            <path d="M92.8125 125.4219 Q93.2656 124.3438 93.9609 123.7656 Q94.6562 123.1875 95.6875 123.1875 Q96.9531 123.1875 97.6406 124.0156 Q98.1562 124.625 98.1562 125.3281 Q98.1562 126.4844 96.7031 127.7188 Q97.6719 128.1094 98.1719 128.8203 Q98.6719 129.5312 98.6719 130.4844 Q98.6719 131.8594 97.7969 132.875 Q96.6562 134.1875 94.5 134.1875 Q93.4219 134.1875 93.0391 133.9219 Q92.6562 133.6562 92.6562 133.3438 Q92.6562 133.125 92.8359 132.9531 Q93.0156 132.7812 93.2812 132.7812 Q93.4688 132.7812 93.6719 132.8438 Q93.8125 132.875 94.2812 133.125 Q94.75 133.375 94.9219 133.4219 Q95.2188 133.5 95.5469 133.5 Q96.3438 133.5 96.9297 132.8828 Q97.5156 132.2656 97.5156 131.4219 Q97.5156 130.8125 97.25 130.2188 Q97.0469 129.7812 96.7969 129.5625 Q96.4688 129.25 95.8828 128.9922 Q95.2969 128.7344 94.6875 128.7344 L94.4375 128.7344 L94.4375 128.5 Q95.0469 128.4219 95.6719 128.0547 Q96.2969 127.6875 96.5781 127.1719 Q96.8594 126.6562 96.8594 126.0469 Q96.8594 125.2344 96.3516 124.7422 Q95.8438 124.25 95.0938 124.25 Q93.8906 124.25 93.0781 125.5469 L92.8125 125.4219 ZM101.875 124.4375 L104.4531 123.1875 L104.7188 123.1875 L104.7188 132.125 Q104.7188 133.0156 104.7891 133.2344 Q104.8594 133.4531 105.0938 133.5703 Q105.3281 133.6875 106.0469 133.7031 L106.0469 134 L102.0625 134 L102.0625 133.7031 Q102.8125 133.6875 103.0312 133.5781 Q103.25 133.4688 103.3359 133.2734 Q103.4219 133.0781 103.4219 132.125 L103.4219 126.4062 Q103.4219 125.25 103.3438 124.9219 Q103.2969 124.6719 103.1484 124.5547 Q103 124.4375 102.7969 124.4375 Q102.5156 124.4375 102 124.6875 L101.875 124.4375 ZM108.8125 125.4219 Q109.2656 124.3438 109.9609 123.7656 Q110.6562 123.1875 111.6875 123.1875 Q112.9531 123.1875 113.6406 124.0156 Q114.1562 124.625 114.1562 125.3281 Q114.1562 126.4844 112.7031 127.7188 Q113.6719 128.1094 114.1719 128.8203 Q114.6719 129.5312 114.6719 130.4844 Q114.6719 131.8594 113.7969 132.875 Q112.6562 134.1875 110.5 134.1875 Q109.4219 134.1875 109.0391 133.9219 Q108.6562 133.6562 108.6562 133.3438 Q108.6562 133.125 108.8359 132.9531 Q109.0156 132.7812 109.2812 132.7812 Q109.4688 132.7812 109.6719 132.8438 Q109.8125 132.875 110.2812 133.125 Q110.75 133.375 110.9219 133.4219 Q111.2188 133.5 111.5469 133.5 Q112.3438 133.5 112.9297 132.8828 Q113.5156 132.2656 113.5156 131.4219 Q113.5156 130.8125 113.25 130.2188 Q113.0469 129.7812 112.7969 129.5625 Q112.4688 129.25 111.8828 128.9922 Q111.2969 128.7344 110.6875 128.7344 L110.4375 128.7344 L110.4375 128.5 Q111.0469 128.4219 111.6719 128.0547 Q112.2969 127.6875 112.5781 127.1719 Q112.8594 126.6562 112.8594 126.0469 Q112.8594 125.2344 112.3516 124.7422 Q111.8438 124.25 111.0938 124.25 Q109.8906 124.25 109.0781 125.5469 L108.8125 125.4219 Z"
                  style="clip-path:url(#clipPath13); stroke:none;"
                  transform="translate(-5,-5)"/>
        </g>
        <g transform="translate(5,5)"
           style="font-size:13px; text-rendering:optimizeLegibility; color-rendering:optimizeQuality; image-rendering:optimizeQuality; font-family:'Times New Roman'; color-interpolation:linearRGB;">
            <path d="M115 92.7157 L111.325 92.7157"
                  style="fill:none; clip-path:url(#clipPath10);"/>
            <path d="M92.8125 94.4219 Q93.2656 93.3438 93.9609 92.7656 Q94.6562 92.1875 95.6875 92.1875 Q96.9531 92.1875 97.6406 93.0156 Q98.1562 93.625 98.1562 94.3281 Q98.1562 95.4844 96.7031 96.7188 Q97.6719 97.1094 98.1719 97.8203 Q98.6719 98.5312 98.6719 99.4844 Q98.6719 100.8594 97.7969 101.875 Q96.6562 103.1875 94.5 103.1875 Q93.4219 103.1875 93.0391 102.9219 Q92.6562 102.6562 92.6562 102.3438 Q92.6562 102.125 92.8359 101.9531 Q93.0156 101.7812 93.2812 101.7812 Q93.4688 101.7812 93.6719 101.8438 Q93.8125 101.875 94.2812 102.125 Q94.75 102.375 94.9219 102.4219 Q95.2188 102.5 95.5469 102.5 Q96.3438 102.5 96.9297 101.8828 Q97.5156 101.2656 97.5156 100.4219 Q97.5156 99.8125 97.25 99.2188 Q97.0469 98.7812 96.7969 98.5625 Q96.4688 98.25 95.8828 97.9922 Q95.2969 97.7344 94.6875 97.7344 L94.4375 97.7344 L94.4375 97.5 Q95.0469 97.4219 95.6719 97.0547 Q96.2969 96.6875 96.5781 96.1719 Q96.8594 95.6562 96.8594 95.0469 Q96.8594 94.2344 96.3516 93.7422 Q95.8438 93.25 95.0938 93.25 Q93.8906 93.25 93.0781 94.5469 L92.8125 94.4219 ZM101.875 93.4375 L104.4531 92.1875 L104.7188 92.1875 L104.7188 101.125 Q104.7188 102.0156 104.7891 102.2344 Q104.8594 102.4531 105.0938 102.5703 Q105.3281 102.6875 106.0469 102.7031 L106.0469 103 L102.0625 103 L102.0625 102.7031 Q102.8125 102.6875 103.0312 102.5781 Q103.25 102.4688 103.3359 102.2734 Q103.4219 102.0781 103.4219 101.125 L103.4219 95.4062 Q103.4219 94.25 103.3438 93.9219 Q103.2969 93.6719 103.1484 93.5547 Q103 93.4375 102.7969 93.4375 Q102.5156 93.4375 102 93.6875 L101.875 93.4375 ZM115.4531 99.0938 L115.4531 100.2031 L114.0312 100.2031 L114.0312 103 L112.7344 103 L112.7344 100.2031 L108.25 100.2031 L108.25 99.2031 L113.1719 92.1875 L114.0312 92.1875 L114.0312 99.0938 L115.4531 99.0938 ZM112.7344 99.0938 L112.7344 93.8281 L109.0156 99.0938 L112.7344 99.0938 Z"
                  style="clip-path:url(#clipPath13); stroke:none;"
                  transform="translate(-5,-5)"/>
        </g>
        <g transform="translate(5,5)"
           style="font-size:13px; text-rendering:optimizeLegibility; color-rendering:optimizeQuality; image-rendering:optimizeQuality; font-family:'Times New Roman'; color-interpolation:linearRGB;">
            <path d="M115 62.1933 L111.325 62.1933"
                  style="fill:none; clip-path:url(#clipPath10);"/>
            <path d="M92.8125 64.4219 Q93.2656 63.3438 93.9609 62.7656 Q94.6562 62.1875 95.6875 62.1875 Q96.9531 62.1875 97.6406 63.0156 Q98.1562 63.625 98.1562 64.3281 Q98.1562 65.4844 96.7031 66.7188 Q97.6719 67.1094 98.1719 67.8203 Q98.6719 68.5312 98.6719 69.4844 Q98.6719 70.8594 97.7969 71.875 Q96.6562 73.1875 94.5 73.1875 Q93.4219 73.1875 93.0391 72.9219 Q92.6562 72.6562 92.6562 72.3438 Q92.6562 72.125 92.8359 71.9531 Q93.0156 71.7812 93.2812 71.7812 Q93.4688 71.7812 93.6719 71.8438 Q93.8125 71.875 94.2812 72.125 Q94.75 72.375 94.9219 72.4219 Q95.2188 72.5 95.5469 72.5 Q96.3438 72.5 96.9297 71.8828 Q97.5156 71.2656 97.5156 70.4219 Q97.5156 69.8125 97.25 69.2188 Q97.0469 68.7812 96.7969 68.5625 Q96.4688 68.25 95.8828 67.9922 Q95.2969 67.7344 94.6875 67.7344 L94.4375 67.7344 L94.4375 67.5 Q95.0469 67.4219 95.6719 67.0547 Q96.2969 66.6875 96.5781 66.1719 Q96.8594 65.6562 96.8594 65.0469 Q96.8594 64.2344 96.3516 63.7422 Q95.8438 63.25 95.0938 63.25 Q93.8906 63.25 93.0781 64.5469 L92.8125 64.4219 ZM101.875 63.4375 L104.4531 62.1875 L104.7188 62.1875 L104.7188 71.125 Q104.7188 72.0156 104.7891 72.2344 Q104.8594 72.4531 105.0938 72.5703 Q105.3281 72.6875 106.0469 72.7031 L106.0469 73 L102.0625 73 L102.0625 72.7031 Q102.8125 72.6875 103.0312 72.5781 Q103.25 72.4688 103.3359 72.2734 Q103.4219 72.0781 103.4219 71.125 L103.4219 65.4062 Q103.4219 64.25 103.3438 63.9219 Q103.2969 63.6719 103.1484 63.5547 Q103 63.4375 102.7969 63.4375 Q102.5156 63.4375 102 63.6875 L101.875 63.4375 ZM114.9531 62.4062 L114.3438 63.7344 L111.1562 63.7344 L110.4531 65.1562 Q112.5312 65.4531 113.7344 66.6875 Q114.7812 67.75 114.7812 69.1875 Q114.7812 70.0312 114.4375 70.7422 Q114.0938 71.4531 113.5781 71.9531 Q113.0625 72.4531 112.4375 72.75 Q111.5312 73.1875 110.5938 73.1875 Q109.6406 73.1875 109.2031 72.8594 Q108.7656 72.5312 108.7656 72.1406 Q108.7656 71.9219 108.9453 71.7578 Q109.125 71.5938 109.4062 71.5938 Q109.6094 71.5938 109.7578 71.6562 Q109.9062 71.7188 110.2812 71.9688 Q110.8594 72.375 111.4688 72.375 Q112.375 72.375 113.0703 71.6875 Q113.7656 71 113.7656 70 Q113.7656 69.0469 113.1484 68.2109 Q112.5312 67.375 111.4375 66.9219 Q110.5938 66.5781 109.125 66.5156 L111.1562 62.4062 L114.9531 62.4062 Z"
                  style="clip-path:url(#clipPath13); stroke:none;"
                  transform="translate(-5,-5)"/>
        </g>
        <g transform="translate(5,5)"
           style="font-size:13px; text-rendering:optimizeLegibility; color-rendering:optimizeQuality; image-rendering:optimizeQuality; font-family:'Times New Roman'; color-interpolation:linearRGB;">
            <path d="M115 31.6709 L111.325 31.6709"
                  style="fill:none; clip-path:url(#clipPath10);"/>
            <path d="M92.8125 33.4219 Q93.2656 32.3438 93.9609 31.7656 Q94.6562 31.1875 95.6875 31.1875 Q96.9531 31.1875 97.6406 32.0156 Q98.1562 32.625 98.1562 33.3281 Q98.1562 34.4844 96.7031 35.7188 Q97.6719 36.1094 98.1719 36.8203 Q98.6719 37.5312 98.6719 38.4844 Q98.6719 39.8594 97.7969 40.875 Q96.6562 42.1875 94.5 42.1875 Q93.4219 42.1875 93.0391 41.9219 Q92.6562 41.6562 92.6562 41.3438 Q92.6562 41.125 92.8359 40.9531 Q93.0156 40.7812 93.2812 40.7812 Q93.4688 40.7812 93.6719 40.8438 Q93.8125 40.875 94.2812 41.125 Q94.75 41.375 94.9219 41.4219 Q95.2188 41.5 95.5469 41.5 Q96.3438 41.5 96.9297 40.8828 Q97.5156 40.2656 97.5156 39.4219 Q97.5156 38.8125 97.25 38.2188 Q97.0469 37.7812 96.7969 37.5625 Q96.4688 37.25 95.8828 36.9922 Q95.2969 36.7344 94.6875 36.7344 L94.4375 36.7344 L94.4375 36.5 Q95.0469 36.4219 95.6719 36.0547 Q96.2969 35.6875 96.5781 35.1719 Q96.8594 34.6562 96.8594 34.0469 Q96.8594 33.2344 96.3516 32.7422 Q95.8438 32.25 95.0938 32.25 Q93.8906 32.25 93.0781 33.5469 L92.8125 33.4219 ZM101.875 32.4375 L104.4531 31.1875 L104.7188 31.1875 L104.7188 40.125 Q104.7188 41.0156 104.7891 41.2344 Q104.8594 41.4531 105.0938 41.5703 Q105.3281 41.6875 106.0469 41.7031 L106.0469 42 L102.0625 42 L102.0625 41.7031 Q102.8125 41.6875 103.0312 41.5781 Q103.25 41.4688 103.3359 41.2734 Q103.4219 41.0781 103.4219 40.125 L103.4219 34.4062 Q103.4219 33.25 103.3438 32.9219 Q103.2969 32.6719 103.1484 32.5547 Q103 32.4375 102.7969 32.4375 Q102.5156 32.4375 102 32.6875 L101.875 32.4375 ZM115.1719 31.1875 L115.1719 31.4688 Q114.1406 31.5781 113.4922 31.8828 Q112.8438 32.1875 112.2031 32.8203 Q111.5625 33.4531 111.1484 34.2344 Q110.7344 35.0156 110.4531 36.0781 Q111.5781 35.3125 112.7031 35.3125 Q113.7969 35.3125 114.5938 36.1875 Q115.3906 37.0625 115.3906 38.4375 Q115.3906 39.7656 114.5781 40.8594 Q113.6094 42.1875 112.0156 42.1875 Q110.9375 42.1875 110.1719 41.4688 Q108.6875 40.0625 108.6875 37.8438 Q108.6875 36.4219 109.2578 35.1406 Q109.8281 33.8594 110.8906 32.8672 Q111.9531 31.875 112.9219 31.5312 Q113.8906 31.1875 114.7188 31.1875 L115.1719 31.1875 ZM110.3125 36.6562 Q110.1719 37.7031 110.1719 38.3594 Q110.1719 39.1094 110.4531 39.9844 Q110.7344 40.8594 111.2812 41.375 Q111.6719 41.75 112.25 41.75 Q112.9219 41.75 113.4609 41.1094 Q114 40.4688 114 39.2812 Q114 37.9375 113.4688 36.9609 Q112.9375 35.9844 111.9531 35.9844 Q111.6562 35.9844 111.3203 36.1094 Q110.9844 36.2344 110.3125 36.6562 Z"
                  style="clip-path:url(#clipPath13); stroke:none;"
                  transform="translate(-5,-5)"/>
        </g>
        <g transform="translate(5,5)"
           style="font-size:13px; text-rendering:optimizeLegibility; color-rendering:optimizeQuality; image-rendering:optimizeQuality; font-family:'Times New Roman'; color-interpolation:linearRGB;">
            <path d="M115 230.0665 L113.1625 230.0665"
                  style="fill:none; clip-path:url(#clipPath10);"/>
        </g>
        <g transform="translate(5,5)"
           style="font-size:13px; text-rendering:optimizeLegibility; color-rendering:optimizeQuality; image-rendering:optimizeQuality; font-family:'Times New Roman'; color-interpolation:linearRGB;">
            <path d="M115 199.5441 L113.1625 199.5441"
                  style="fill:none; clip-path:url(#clipPath10);"/>
        </g>
        <g transform="translate(5,5)"
           style="font-size:13px; text-rendering:optimizeLegibility; color-rendering:optimizeQuality; image-rendering:optimizeQuality; font-family:'Times New Roman'; color-interpolation:linearRGB;">
            <path d="M115 169.0217 L113.1625 169.0217"
                  style="fill:none; clip-path:url(#clipPath10);"/>
        </g>
        <g transform="translate(5,5)"
           style="font-size:13px; text-rendering:optimizeLegibility; color-rendering:optimizeQuality; image-rendering:optimizeQuality; font-family:'Times New Roman'; color-interpolation:linearRGB;">
            <path d="M115 138.4993 L113.1625 138.4993"
                  style="fill:none; clip-path:url(#clipPath10);"/>
        </g>
        <g transform="translate(5,5)"
           style="font-size:13px; text-rendering:optimizeLegibility; color-rendering:optimizeQuality; image-rendering:optimizeQuality; font-family:'Times New Roman'; color-interpolation:linearRGB;">
            <path d="M115 107.9769 L113.1625 107.9769"
                  style="fill:none; clip-path:url(#clipPath10);"/>
        </g>
        <g transform="translate(5,5)"
           style="font-size:13px; text-rendering:optimizeLegibility; color-rendering:optimizeQuality; image-rendering:optimizeQuality; font-family:'Times New Roman'; color-interpolation:linearRGB;">
            <path d="M115 77.4545 L113.1625 77.4545"
                  style="fill:none; clip-path:url(#clipPath10);"/>
        </g>
        <g transform="translate(5,5)"
           style="font-size:13px; text-rendering:optimizeLegibility; color-rendering:optimizeQuality; image-rendering:optimizeQuality; font-family:'Times New Roman'; color-interpolation:linearRGB;">
            <path d="M115 46.9321 L113.1625 46.9321"
                  style="fill:none; clip-path:url(#clipPath10);"/>
        </g>
        <g transform="translate(5,5)"
           style="font-size:13px; text-rendering:optimizeLegibility; color-rendering:optimizeQuality; image-rendering:optimizeQuality; font-family:'Times New Roman'; color-interpolation:linearRGB;">
            <path d="M115 16.4097 L113.1625 16.4097"
                  style="fill:none; clip-path:url(#clipPath10);"/>
        </g>
    </g>
</svg>
