<?xml version="1.0" encoding="UTF-8"?>
<!DOCTYPE svg PUBLIC '-//W3C//DTD SVG 1.0//EN'
    'http://www.w3.org/TR/2001/REC-SVG-20010904/DTD/svg10.dtd' >

<svg style="stroke-dasharray:none; shape-rendering:auto; font-family:'Dialog'; text-rendering:auto; fill-opacity:1; color-interpolation:auto; color-rendering:auto; font-size:12px; fill:black; stroke:black; image-rendering:auto; stroke-miterlimit:10; stroke-linecap:square; stroke-linejoin:miter; font-style:normal; stroke-width:1; stroke-dashoffset:0; font-weight:normal; stroke-opacity:1;"
     xmlns="http://www.w3.org/2000/svg" contentScriptType="text/ecmascript"
     preserveAspectRatio="xMidYMid meet"
     xmlns:xlink="http://www.w3.org/1999/xlink" zoomAndPan="magnify"
     version="1.0" contentStyleType="text/css">
    <!--Generated by the Batik Graphics2D SVG Generator-->
    <defs id="genericDefs"/>
    <g>
        <defs id="defs1">
            <clipPath clipPathUnits="userSpaceOnUse" id="clipPath1">
                <path d="M85 285 L334 285 L334 309 L85 309 L85 285 Z"/>
            </clipPath>
            <clipPath clipPathUnits="userSpaceOnUse" id="clipPath2">
                <path d="M88 288 L88 306 L198 306 L198 288 Z"/>
            </clipPath>
            <clipPath clipPathUnits="userSpaceOnUse" id="clipPath3">
                <path d="M-2 -1 L-2 17 L108 17 L108 -1 Z"/>
            </clipPath>
            <clipPath clipPathUnits="userSpaceOnUse" id="clipPath4">
                <path d="M0 0 L0 18 L110 18 L110 0 Z"/>
            </clipPath>
            <clipPath clipPathUnits="userSpaceOnUse" id="clipPath5">
                <path d="M37 0 L37 17 L109 17 L109 0 Z"/>
            </clipPath>
            <clipPath clipPathUnits="userSpaceOnUse" id="clipPath6">
                <path d="M197 288 L197 306 L332 306 L332 288 Z"/>
            </clipPath>
            <clipPath clipPathUnits="userSpaceOnUse" id="clipPath7">
                <path d="M-2 -1 L-2 17 L133 17 L133 -1 Z"/>
            </clipPath>
            <clipPath clipPathUnits="userSpaceOnUse" id="clipPath8">
                <path d="M0 0 L0 18 L135 18 L135 0 Z"/>
            </clipPath>
            <clipPath clipPathUnits="userSpaceOnUse" id="clipPath9">
                <path d="M37 0 L37 17 L134 17 L134 0 Z"/>
            </clipPath>
            <clipPath clipPathUnits="userSpaceOnUse" id="clipPath10">
                <path d="M0 0 L410 0 L410 277 L0 277 L0 0 Z"/>
            </clipPath>
            <clipPath clipPathUnits="userSpaceOnUse" id="clipPath11">
                <path d="M93 0 L93 239 L410 239 L410 0 Z"/>
            </clipPath>
            <clipPath clipPathUnits="userSpaceOnUse" id="clipPath12">
                <path d="M233 258 L233 276 L269 276 L269 258 Z"/>
            </clipPath>
            <clipPath clipPathUnits="userSpaceOnUse" id="clipPath13">
                <path d="M5 5 L415 5 L415 282 L5 282 L5 5 Z"/>
            </clipPath>
            <clipPath clipPathUnits="userSpaceOnUse" id="clipPath14">
                <path d="M1 110 L1 128 L64 128 L64 110 Z"/>
            </clipPath>
            <clipPath clipPathUnits="userSpaceOnUse" id="clipPath15">
                <path d="M-14 -4 L-14 14 L49 14 L49 -4 Z"/>
            </clipPath>
            <clipPath clipPathUnits="userSpaceOnUse" id="clipPath16">
                <path d="M-25 -4 L-25 14 L38 14 L38 -4 Z"/>
            </clipPath>
        </defs>
        <g style="stroke-linecap:butt; font-size:13px; fill:rgb(0,116,204); text-rendering:optimizeLegibility; image-rendering:optimizeQuality; color-rendering:optimizeQuality; font-family:'Times New Roman'; stroke-linejoin:round; stroke:rgb(0,116,204); color-interpolation:linearRGB; stroke-width:1.5;"
           transform="translate(90,289)">
            <path d="M0 7 L34 7" style="fill:none; clip-path:url(#clipPath3);"/>
        </g>
        <g transform="translate(88,288)"
           style="stroke-linecap:butt; font-size:13px; text-rendering:optimizeLegibility; image-rendering:optimizeQuality; color-rendering:optimizeQuality; font-family:'Times New Roman'; stroke-linejoin:round; color-interpolation:linearRGB; stroke-width:1.5;">
            <path d="M51.0312 3.8438 L51.2656 7.2188 L51.0312 7.2188 Q50.5781 5.7031 49.7344 5.0391 Q48.8906 4.375 47.7188 4.375 Q46.7188 4.375 45.9219 4.875 Q45.125 5.375 44.6719 6.4688 Q44.2188 7.5625 44.2188 9.2031 Q44.2188 10.5469 44.6484 11.5391 Q45.0781 12.5312 45.9453 13.0547 Q46.8125 13.5781 47.9219 13.5781 Q48.8906 13.5781 49.6328 13.1641 Q50.375 12.75 51.2656 11.5312 L51.4844 11.6719 Q50.7344 13 49.7422 13.6172 Q48.75 14.2344 47.375 14.2344 Q44.9062 14.2344 43.5469 12.3906 Q42.5469 11.0312 42.5469 9.1875 Q42.5469 7.7031 43.2109 6.4531 Q43.875 5.2031 45.0469 4.5234 Q46.2188 3.8438 47.5938 3.8438 Q48.6719 3.8438 49.7188 4.375 Q50.0312 4.5312 50.1562 4.5312 Q50.3594 4.5312 50.5 4.3906 Q50.6875 4.1875 50.7812 3.8438 L51.0312 3.8438 ZM55.7549 7.0938 Q57.2861 7.0938 58.208 8.25 Q58.9893 9.2344 58.9893 10.5156 Q58.9893 11.4219 58.5518 12.3438 Q58.1143 13.2656 57.3564 13.7344 Q56.5986 14.2031 55.6768 14.2031 Q54.1611 14.2031 53.2705 13 Q52.5049 11.9844 52.5049 10.7188 Q52.5049 9.7812 52.9658 8.875 Q53.4268 7.9688 54.1768 7.5312 Q54.9268 7.0938 55.7549 7.0938 ZM55.5205 7.5625 Q55.1455 7.5625 54.7471 7.7969 Q54.3486 8.0312 54.1143 8.6094 Q53.8799 9.1875 53.8799 10.0938 Q53.8799 11.5625 54.458 12.625 Q55.0361 13.6875 55.9893 13.6875 Q56.6924 13.6875 57.1611 13.1016 Q57.6299 12.5156 57.6299 11.0781 Q57.6299 9.2969 56.8486 8.2656 Q56.333 7.5625 55.5205 7.5625 ZM61.9736 8.5156 Q62.6924 7.7812 62.833 7.6719 Q63.1611 7.4062 63.5439 7.25 Q63.9268 7.0938 64.3018 7.0938 Q64.9268 7.0938 65.3799 7.4609 Q65.833 7.8281 65.9893 8.5156 Q66.7393 7.6406 67.2627 7.3672 Q67.7861 7.0938 68.333 7.0938 Q68.8643 7.0938 69.2783 7.3672 Q69.6924 7.6406 69.9424 8.2656 Q70.0986 8.6875 70.0986 9.5938 L70.0986 12.4844 Q70.0986 13.1094 70.1924 13.3438 Q70.2705 13.5156 70.4658 13.625 Q70.6611 13.7344 71.1143 13.7344 L71.1143 14 L67.8018 14 L67.8018 13.7344 L67.9424 13.7344 Q68.3643 13.7344 68.6143 13.5625 Q68.7705 13.4531 68.8486 13.1875 Q68.8799 13.0625 68.8799 12.4844 L68.8799 9.5938 Q68.8799 8.7812 68.6768 8.4375 Q68.3955 7.9688 67.7705 7.9688 Q67.3799 7.9688 66.9893 8.1641 Q66.5986 8.3594 66.0361 8.8906 L66.0205 8.9688 L66.0361 9.2812 L66.0361 12.4844 Q66.0361 13.1719 66.1143 13.3438 Q66.1924 13.5156 66.4033 13.625 Q66.6143 13.7344 67.1299 13.7344 L67.1299 14 L63.7393 14 L63.7393 13.7344 Q64.3018 13.7344 64.5049 13.6016 Q64.708 13.4688 64.7861 13.2031 Q64.833 13.0781 64.833 12.4844 L64.833 9.5938 Q64.833 8.7812 64.583 8.4219 Q64.2705 7.9531 63.6924 7.9531 Q63.2861 7.9531 62.9111 8.1562 Q62.3018 8.4844 61.9736 8.8906 L61.9736 12.4844 Q61.9736 13.1406 62.0596 13.3359 Q62.1455 13.5312 62.3252 13.6328 Q62.5049 13.7344 63.0518 13.7344 L63.0518 14 L59.7393 14 L59.7393 13.7344 Q60.208 13.7344 60.3877 13.6328 Q60.5674 13.5312 60.6611 13.3203 Q60.7549 13.1094 60.7549 12.4844 L60.7549 9.9219 Q60.7549 8.8125 60.6924 8.4844 Q60.6455 8.25 60.5361 8.1562 Q60.4268 8.0625 60.2236 8.0625 Q60.0205 8.0625 59.7393 8.1719 L59.6299 7.9062 L61.6455 7.0938 L61.9736 7.0938 L61.9736 8.5156 ZM71.1567 7.9531 L73.2192 7.125 L73.5005 7.125 L73.5005 8.6875 Q74.0161 7.7969 74.5396 7.4453 Q75.063 7.0938 75.6411 7.0938 Q76.6567 7.0938 77.3286 7.8906 Q78.1567 8.8438 78.1567 10.4062 Q78.1567 12.1406 77.1567 13.2812 Q76.3442 14.2031 75.0942 14.2031 Q74.563 14.2031 74.1567 14.0469 Q73.8755 13.9375 73.5005 13.6094 L73.5005 15.6562 Q73.5005 16.3438 73.5864 16.5312 Q73.6724 16.7188 73.8833 16.8281 Q74.0942 16.9375 74.6411 16.9375 L74.6411 17.2031 L71.1255 17.2031 L71.1255 16.9375 L71.2974 16.9375 Q71.7036 16.9375 72.0005 16.7812 Q72.1255 16.7031 72.2036 16.5234 Q72.2817 16.3438 72.2817 15.6094 L72.2817 9.2656 Q72.2817 8.6094 72.2271 8.4375 Q72.1724 8.2656 72.0396 8.1797 Q71.9067 8.0938 71.688 8.0938 Q71.5161 8.0938 71.2505 8.1875 L71.1567 7.9531 ZM73.5005 9.125 L73.5005 11.625 Q73.5005 12.4375 73.563 12.7031 Q73.6724 13.125 74.0708 13.4453 Q74.4692 13.7656 75.0786 13.7656 Q75.813 13.7656 76.2661 13.1875 Q76.8599 12.4531 76.8599 11.0938 Q76.8599 9.5469 76.188 8.7188 Q75.7192 8.1562 75.063 8.1562 Q74.7192 8.1562 74.3755 8.3281 Q74.1099 8.4688 73.5005 9.125 ZM85.0161 7.2969 L85.0161 11.3594 Q85.0161 12.5156 85.0708 12.7812 Q85.1255 13.0469 85.2505 13.1484 Q85.3755 13.25 85.5317 13.25 Q85.7661 13.25 86.0474 13.125 L86.1567 13.375 L84.1411 14.2031 L83.813 14.2031 L83.813 12.7812 Q82.9536 13.7188 82.5005 13.9609 Q82.0474 14.2031 81.5317 14.2031 Q80.9692 14.2031 80.5552 13.875 Q80.1411 13.5469 79.9849 13.0391 Q79.8286 12.5312 79.8286 11.5938 L79.8286 8.5938 Q79.8286 8.125 79.7192 7.9375 Q79.6099 7.75 79.4146 7.6484 Q79.2192 7.5469 78.688 7.5625 L78.688 7.2969 L81.0317 7.2969 L81.0317 11.7812 Q81.0317 12.7188 81.3599 13.0078 Q81.688 13.2969 82.1567 13.2969 Q82.4692 13.2969 82.8677 13.1016 Q83.2661 12.9062 83.813 12.3594 L83.813 8.5469 Q83.813 7.9844 83.6021 7.7812 Q83.3911 7.5781 82.7349 7.5625 L82.7349 7.2969 L85.0161 7.2969 ZM88.5942 5.0938 L88.5942 7.2969 L90.1567 7.2969 L90.1567 7.7969 L88.5942 7.7969 L88.5942 12.1562 Q88.5942 12.8125 88.7817 13.0391 Q88.9692 13.2656 89.2505 13.2656 Q89.5005 13.2656 89.7271 13.1094 Q89.9536 12.9531 90.0786 12.6719 L90.3599 12.6719 Q90.1099 13.3906 89.6411 13.75 Q89.1724 14.1094 88.6724 14.1094 Q88.3286 14.1094 88.0083 13.9219 Q87.688 13.7344 87.5317 13.3906 Q87.3755 13.0469 87.3755 12.3125 L87.3755 7.7969 L86.313 7.7969 L86.313 7.5625 Q86.7192 7.4062 87.1411 7.0156 Q87.563 6.625 87.8911 6.1094 Q88.063 5.8281 88.3599 5.0938 L88.5942 5.0938 ZM91.9336 9.8125 Q91.9336 11.3125 92.668 12.1562 Q93.3867 13.0156 94.3867 13.0156 Q95.043 13.0156 95.5273 12.6484 Q96.0117 12.2812 96.3398 11.4062 L96.5742 11.5469 Q96.418 12.5625 95.6758 13.3828 Q94.9336 14.2031 93.8242 14.2031 Q92.6211 14.2031 91.7617 13.2656 Q90.9023 12.3281 90.9023 10.7344 Q90.9023 9.0156 91.7852 8.0469 Q92.668 7.0781 93.9961 7.0781 Q95.1211 7.0781 95.8477 7.8281 Q96.5742 8.5781 96.5742 9.8125 L91.9336 9.8125 ZM91.9336 9.3906 L95.043 9.3906 Q95.0117 8.75 94.8867 8.4844 Q94.6992 8.0781 94.3398 7.8438 Q93.9805 7.6094 93.5898 7.6094 Q92.9805 7.6094 92.4961 8.0781 Q92.0117 8.5469 91.9336 9.3906 ZM102.2007 13.25 Q101.7163 13.7656 101.2476 13.9844 Q100.7788 14.2031 100.2319 14.2031 Q99.1382 14.2031 98.3179 13.2812 Q97.4976 12.3594 97.4976 10.9219 Q97.4976 9.4844 98.4038 8.2812 Q99.3101 7.0781 100.7476 7.0781 Q101.6226 7.0781 102.2007 7.6562 L102.2007 6.4062 Q102.2007 5.2656 102.146 5 Q102.0913 4.7344 101.9741 4.6406 Q101.8569 4.5469 101.6851 4.5469 Q101.4976 4.5469 101.1851 4.6562 L101.0913 4.4062 L103.0913 3.5781 L103.4194 3.5781 L103.4194 11.3438 Q103.4194 12.5156 103.4741 12.7812 Q103.5288 13.0469 103.646 13.1484 Q103.7632 13.25 103.9194 13.25 Q104.1226 13.25 104.4507 13.125 L104.5288 13.375 L102.5444 14.2031 L102.2007 14.2031 L102.2007 13.25 ZM102.2007 12.7344 L102.2007 9.2812 Q102.1538 8.7812 101.9351 8.3672 Q101.7163 7.9531 101.3569 7.75 Q100.9976 7.5469 100.6538 7.5469 Q100.0132 7.5469 99.4976 8.125 Q98.8413 8.875 98.8413 10.3438 Q98.8413 11.8281 99.4819 12.6172 Q100.1226 13.4062 100.9194 13.4062 Q101.5757 13.4062 102.2007 12.7344 Z"
                  style="stroke:none; clip-path:url(#clipPath5);"/>
        </g>
        <g style="stroke-linecap:butt; font-size:13px; fill:rgb(204,0,116); text-rendering:optimizeLegibility; image-rendering:optimizeQuality; color-rendering:optimizeQuality; font-family:'Times New Roman'; stroke-linejoin:round; stroke:rgb(204,0,116); color-interpolation:linearRGB; stroke-width:1.5;"
           transform="translate(199,289)">
            <path d="M0 7 L34 7" style="fill:none; clip-path:url(#clipPath7);"/>
        </g>
        <g transform="translate(197,288)"
           style="stroke-linecap:butt; font-size:13px; text-rendering:optimizeLegibility; image-rendering:optimizeQuality; color-rendering:optimizeQuality; font-family:'Times New Roman'; stroke-linejoin:round; color-interpolation:linearRGB; stroke-width:1.5;">
            <path d="M48.875 3.8438 L48.875 7.2812 L48.6094 7.2812 Q48.4688 6.2812 48.1328 5.6953 Q47.7969 5.1094 47.1641 4.7656 Q46.5312 4.4219 45.8594 4.4219 Q45.0938 4.4219 44.6016 4.8906 Q44.1094 5.3594 44.1094 5.9531 Q44.1094 6.4062 44.4219 6.7812 Q44.875 7.3281 46.5781 8.25 Q47.9688 8.9844 48.4766 9.3828 Q48.9844 9.7812 49.2578 10.3281 Q49.5312 10.875 49.5312 11.4688 Q49.5312 12.5938 48.6562 13.4141 Q47.7812 14.2344 46.4062 14.2344 Q45.9844 14.2344 45.5938 14.1562 Q45.375 14.125 44.6562 13.8906 Q43.9375 13.6562 43.75 13.6562 Q43.5625 13.6562 43.4609 13.7656 Q43.3594 13.875 43.2969 14.2344 L43.0312 14.2344 L43.0312 10.8281 L43.2969 10.8281 Q43.5 11.8906 43.8203 12.4219 Q44.1406 12.9531 44.8047 13.3047 Q45.4688 13.6562 46.25 13.6562 Q47.1719 13.6562 47.7031 13.1719 Q48.2344 12.6875 48.2344 12.0312 Q48.2344 11.6562 48.0312 11.2891 Q47.8281 10.9219 47.4062 10.5938 Q47.125 10.375 45.8516 9.6641 Q44.5781 8.9531 44.0391 8.5234 Q43.5 8.0938 43.2188 7.5859 Q42.9375 7.0781 42.9375 6.4531 Q42.9375 5.3906 43.7578 4.6172 Q44.5781 3.8438 45.8438 3.8438 Q46.6406 3.8438 47.5156 4.2344 Q47.9375 4.4062 48.0938 4.4062 Q48.2969 4.4062 48.4141 4.2969 Q48.5312 4.1875 48.6094 3.8438 L48.875 3.8438 ZM52.5142 3.5781 Q52.8267 3.5781 53.0454 3.7969 Q53.2642 4.0156 53.2642 4.3281 Q53.2642 4.625 53.0454 4.8516 Q52.8267 5.0781 52.5142 5.0781 Q52.2173 5.0781 51.9907 4.8516 Q51.7642 4.625 51.7642 4.3281 Q51.7642 4.0156 51.9829 3.7969 Q52.2017 3.5781 52.5142 3.5781 ZM53.1235 7.0938 L53.1235 12.4844 Q53.1235 13.1094 53.2173 13.3203 Q53.311 13.5312 53.4907 13.6328 Q53.6704 13.7344 54.1392 13.7344 L54.1392 14 L50.8892 14 L50.8892 13.7344 Q51.3735 13.7344 51.5454 13.6406 Q51.7173 13.5469 51.811 13.3281 Q51.9048 13.1094 51.9048 12.4844 L51.9048 9.8906 Q51.9048 8.8125 51.8423 8.4844 Q51.7954 8.25 51.686 8.1562 Q51.5767 8.0625 51.3892 8.0625 Q51.1704 8.0625 50.8892 8.1719 L50.7798 7.9062 L52.811 7.0938 L53.1235 7.0938 ZM56.9785 8.5156 Q57.6973 7.7812 57.8379 7.6719 Q58.166 7.4062 58.5488 7.25 Q58.9316 7.0938 59.3066 7.0938 Q59.9316 7.0938 60.3848 7.4609 Q60.8379 7.8281 60.9941 8.5156 Q61.7441 7.6406 62.2676 7.3672 Q62.791 7.0938 63.3379 7.0938 Q63.8691 7.0938 64.2832 7.3672 Q64.6973 7.6406 64.9473 8.2656 Q65.1035 8.6875 65.1035 9.5938 L65.1035 12.4844 Q65.1035 13.1094 65.1973 13.3438 Q65.2754 13.5156 65.4707 13.625 Q65.666 13.7344 66.1191 13.7344 L66.1191 14 L62.8066 14 L62.8066 13.7344 L62.9473 13.7344 Q63.3691 13.7344 63.6191 13.5625 Q63.7754 13.4531 63.8535 13.1875 Q63.8848 13.0625 63.8848 12.4844 L63.8848 9.5938 Q63.8848 8.7812 63.6816 8.4375 Q63.4004 7.9688 62.7754 7.9688 Q62.3848 7.9688 61.9941 8.1641 Q61.6035 8.3594 61.041 8.8906 L61.0254 8.9688 L61.041 9.2812 L61.041 12.4844 Q61.041 13.1719 61.1191 13.3438 Q61.1973 13.5156 61.4082 13.625 Q61.6191 13.7344 62.1348 13.7344 L62.1348 14 L58.7441 14 L58.7441 13.7344 Q59.3066 13.7344 59.5098 13.6016 Q59.7129 13.4688 59.791 13.2031 Q59.8379 13.0781 59.8379 12.4844 L59.8379 9.5938 Q59.8379 8.7812 59.5879 8.4219 Q59.2754 7.9531 58.6973 7.9531 Q58.291 7.9531 57.916 8.1562 Q57.3066 8.4844 56.9785 8.8906 L56.9785 12.4844 Q56.9785 13.1406 57.0645 13.3359 Q57.1504 13.5312 57.3301 13.6328 Q57.5098 13.7344 58.0566 13.7344 L58.0566 14 L54.7441 14 L54.7441 13.7344 Q55.2129 13.7344 55.3926 13.6328 Q55.5723 13.5312 55.666 13.3203 Q55.7598 13.1094 55.7598 12.4844 L55.7598 9.9219 Q55.7598 8.8125 55.6973 8.4844 Q55.6504 8.25 55.541 8.1562 Q55.4316 8.0625 55.2285 8.0625 Q55.0254 8.0625 54.7441 8.1719 L54.6348 7.9062 L56.6504 7.0938 L56.9785 7.0938 L56.9785 8.5156 ZM72.521 7.2969 L72.521 11.3594 Q72.521 12.5156 72.5757 12.7812 Q72.6304 13.0469 72.7554 13.1484 Q72.8804 13.25 73.0366 13.25 Q73.271 13.25 73.5522 13.125 L73.6616 13.375 L71.646 14.2031 L71.3179 14.2031 L71.3179 12.7812 Q70.4585 13.7188 70.0054 13.9609 Q69.5522 14.2031 69.0366 14.2031 Q68.4741 14.2031 68.0601 13.875 Q67.646 13.5469 67.4897 13.0391 Q67.3335 12.5312 67.3335 11.5938 L67.3335 8.5938 Q67.3335 8.125 67.2241 7.9375 Q67.1147 7.75 66.9194 7.6484 Q66.7241 7.5469 66.1929 7.5625 L66.1929 7.2969 L68.5366 7.2969 L68.5366 11.7812 Q68.5366 12.7188 68.8647 13.0078 Q69.1929 13.2969 69.6616 13.2969 Q69.9741 13.2969 70.3726 13.1016 Q70.771 12.9062 71.3179 12.3594 L71.3179 8.5469 Q71.3179 7.9844 71.1069 7.7812 Q70.896 7.5781 70.2397 7.5625 L70.2397 7.2969 L72.521 7.2969 ZM76.4585 3.5781 L76.4585 12.4844 Q76.4585 13.1094 76.5444 13.3203 Q76.6304 13.5312 76.8257 13.6328 Q77.021 13.7344 77.5366 13.7344 L77.5366 14 L74.2554 14 L74.2554 13.7344 Q74.7085 13.7344 74.8804 13.6406 Q75.0522 13.5469 75.146 13.3281 Q75.2397 13.1094 75.2397 12.4844 L75.2397 6.3906 Q75.2397 5.25 75.1851 4.9922 Q75.1304 4.7344 75.021 4.6406 Q74.9116 4.5469 74.7397 4.5469 Q74.5366 4.5469 74.2554 4.6562 L74.1304 4.4062 L76.1304 3.5781 L76.4585 3.5781 ZM82.1104 13.0312 Q81.0791 13.8281 80.8135 13.9531 Q80.4229 14.1406 79.9697 14.1406 Q79.2822 14.1406 78.8291 13.6641 Q78.376 13.1875 78.376 12.4062 Q78.376 11.9219 78.5947 11.5625 Q78.9072 11.0625 79.6494 10.625 Q80.3916 10.1875 82.1104 9.5469 L82.1104 9.2969 Q82.1104 8.2812 81.7979 7.9141 Q81.4854 7.5469 80.876 7.5469 Q80.4072 7.5469 80.1416 7.7812 Q79.8604 8.0312 79.8604 8.3594 L79.876 8.7812 Q79.876 9.125 79.7041 9.3047 Q79.5322 9.4844 79.251 9.4844 Q78.9854 9.4844 78.8135 9.2969 Q78.6416 9.1094 78.6416 8.7812 Q78.6416 8.1406 79.2822 7.6172 Q79.9229 7.0938 81.0947 7.0938 Q81.9854 7.0938 82.5479 7.3906 Q82.9854 7.625 83.1885 8.1094 Q83.3291 8.4219 83.3291 9.3906 L83.3291 11.6719 Q83.3291 12.625 83.3604 12.8438 Q83.3916 13.0625 83.4775 13.1328 Q83.5635 13.2031 83.6729 13.2031 Q83.7979 13.2031 83.876 13.1562 Q84.0322 13.0625 84.4697 12.625 L84.4697 13.0312 Q83.6572 14.125 82.9072 14.125 Q82.5479 14.125 82.3369 13.8828 Q82.126 13.6406 82.1104 13.0312 ZM82.1104 12.5625 L82.1104 10 Q81.0166 10.4375 80.6885 10.625 Q80.1104 10.9531 79.8604 11.3047 Q79.6104 11.6562 79.6104 12.0625 Q79.6104 12.5938 79.9229 12.9453 Q80.2354 13.2969 80.6572 13.2969 Q81.2041 13.2969 82.1104 12.5625 ZM86.9243 5.0938 L86.9243 7.2969 L88.4868 7.2969 L88.4868 7.7969 L86.9243 7.7969 L86.9243 12.1562 Q86.9243 12.8125 87.1118 13.0391 Q87.2993 13.2656 87.5806 13.2656 Q87.8306 13.2656 88.0571 13.1094 Q88.2837 12.9531 88.4087 12.6719 L88.6899 12.6719 Q88.4399 13.3906 87.9712 13.75 Q87.5024 14.1094 87.0024 14.1094 Q86.6587 14.1094 86.3384 13.9219 Q86.0181 13.7344 85.8618 13.3906 Q85.7056 13.0469 85.7056 12.3125 L85.7056 7.7969 L84.6431 7.7969 L84.6431 7.5625 Q85.0493 7.4062 85.4712 7.0156 Q85.8931 6.625 86.2212 6.1094 Q86.3931 5.8281 86.6899 5.0938 L86.9243 5.0938 ZM92.4199 7.0938 Q93.9512 7.0938 94.873 8.25 Q95.6543 9.2344 95.6543 10.5156 Q95.6543 11.4219 95.2168 12.3438 Q94.7793 13.2656 94.0215 13.7344 Q93.2637 14.2031 92.3418 14.2031 Q90.8262 14.2031 89.9355 13 Q89.1699 11.9844 89.1699 10.7188 Q89.1699 9.7812 89.6309 8.875 Q90.0918 7.9688 90.8418 7.5312 Q91.5918 7.0938 92.4199 7.0938 ZM92.1855 7.5625 Q91.8105 7.5625 91.4121 7.7969 Q91.0137 8.0312 90.7793 8.6094 Q90.5449 9.1875 90.5449 10.0938 Q90.5449 11.5625 91.123 12.625 Q91.7012 13.6875 92.6543 13.6875 Q93.3574 13.6875 93.8262 13.1016 Q94.2949 12.5156 94.2949 11.0781 Q94.2949 9.2969 93.5137 8.2656 Q92.998 7.5625 92.1855 7.5625 ZM98.6074 7.0938 L98.6074 8.6094 Q99.4512 7.0938 100.3262 7.0938 Q100.7324 7.0938 100.998 7.3359 Q101.2637 7.5781 101.2637 7.9062 Q101.2637 8.1875 101.0684 8.3906 Q100.873 8.5938 100.623 8.5938 Q100.3574 8.5938 100.0371 8.3359 Q99.7168 8.0781 99.5762 8.0781 Q99.4355 8.0781 99.2793 8.2344 Q98.9512 8.5312 98.6074 9.2188 L98.6074 12.4375 Q98.6074 12.9844 98.748 13.2812 Q98.8418 13.4688 99.084 13.6016 Q99.3262 13.7344 99.7793 13.7344 L99.7793 14 L96.3418 14 L96.3418 13.7344 Q96.8574 13.7344 97.1074 13.5781 Q97.2793 13.4531 97.3574 13.2031 Q97.3887 13.0781 97.3887 12.4844 L97.3887 9.8906 Q97.3887 8.7188 97.3418 8.4922 Q97.2949 8.2656 97.1699 8.1641 Q97.0449 8.0625 96.8574 8.0625 Q96.623 8.0625 96.3418 8.1719 L96.2637 7.9062 L98.2949 7.0938 L98.6074 7.0938 ZM110.1182 13.25 Q109.6338 13.7656 109.165 13.9844 Q108.6963 14.2031 108.1494 14.2031 Q107.0557 14.2031 106.2354 13.2812 Q105.415 12.3594 105.415 10.9219 Q105.415 9.4844 106.3213 8.2812 Q107.2275 7.0781 108.665 7.0781 Q109.54 7.0781 110.1182 7.6562 L110.1182 6.4062 Q110.1182 5.2656 110.0635 5 Q110.0088 4.7344 109.8916 4.6406 Q109.7744 4.5469 109.6025 4.5469 Q109.415 4.5469 109.1025 4.6562 L109.0088 4.4062 L111.0088 3.5781 L111.3369 3.5781 L111.3369 11.3438 Q111.3369 12.5156 111.3916 12.7812 Q111.4463 13.0469 111.5635 13.1484 Q111.6807 13.25 111.8369 13.25 Q112.04 13.25 112.3682 13.125 L112.4463 13.375 L110.4619 14.2031 L110.1182 14.2031 L110.1182 13.25 ZM110.1182 12.7344 L110.1182 9.2812 Q110.0713 8.7812 109.8525 8.3672 Q109.6338 7.9531 109.2744 7.75 Q108.915 7.5469 108.5713 7.5469 Q107.9307 7.5469 107.415 8.125 Q106.7588 8.875 106.7588 10.3438 Q106.7588 11.8281 107.3994 12.6172 Q108.04 13.4062 108.8369 13.4062 Q109.4932 13.4062 110.1182 12.7344 ZM116.6807 13.0312 Q115.6494 13.8281 115.3838 13.9531 Q114.9932 14.1406 114.54 14.1406 Q113.8525 14.1406 113.3994 13.6641 Q112.9463 13.1875 112.9463 12.4062 Q112.9463 11.9219 113.165 11.5625 Q113.4775 11.0625 114.2197 10.625 Q114.9619 10.1875 116.6807 9.5469 L116.6807 9.2969 Q116.6807 8.2812 116.3682 7.9141 Q116.0557 7.5469 115.4463 7.5469 Q114.9775 7.5469 114.7119 7.7812 Q114.4307 8.0312 114.4307 8.3594 L114.4463 8.7812 Q114.4463 9.125 114.2744 9.3047 Q114.1025 9.4844 113.8213 9.4844 Q113.5557 9.4844 113.3838 9.2969 Q113.2119 9.1094 113.2119 8.7812 Q113.2119 8.1406 113.8525 7.6172 Q114.4932 7.0938 115.665 7.0938 Q116.5557 7.0938 117.1182 7.3906 Q117.5557 7.625 117.7588 8.1094 Q117.8994 8.4219 117.8994 9.3906 L117.8994 11.6719 Q117.8994 12.625 117.9307 12.8438 Q117.9619 13.0625 118.0479 13.1328 Q118.1338 13.2031 118.2432 13.2031 Q118.3682 13.2031 118.4463 13.1562 Q118.6025 13.0625 119.04 12.625 L119.04 13.0312 Q118.2275 14.125 117.4775 14.125 Q117.1182 14.125 116.9072 13.8828 Q116.6963 13.6406 116.6807 13.0312 ZM116.6807 12.5625 L116.6807 10 Q115.5869 10.4375 115.2588 10.625 Q114.6807 10.9531 114.4307 11.3047 Q114.1807 11.6562 114.1807 12.0625 Q114.1807 12.5938 114.4932 12.9453 Q114.8057 13.2969 115.2275 13.2969 Q115.7744 13.2969 116.6807 12.5625 ZM121.4946 5.0938 L121.4946 7.2969 L123.0571 7.2969 L123.0571 7.7969 L121.4946 7.7969 L121.4946 12.1562 Q121.4946 12.8125 121.6821 13.0391 Q121.8696 13.2656 122.1509 13.2656 Q122.4009 13.2656 122.6274 13.1094 Q122.854 12.9531 122.979 12.6719 L123.2603 12.6719 Q123.0103 13.3906 122.5415 13.75 Q122.0728 14.1094 121.5728 14.1094 Q121.229 14.1094 120.9087 13.9219 Q120.5884 13.7344 120.4321 13.3906 Q120.2759 13.0469 120.2759 12.3125 L120.2759 7.7969 L119.2134 7.7969 L119.2134 7.5625 Q119.6196 7.4062 120.0415 7.0156 Q120.4634 6.625 120.7915 6.1094 Q120.9634 5.8281 121.2603 5.0938 L121.4946 5.0938 ZM127.5059 13.0312 Q126.4746 13.8281 126.209 13.9531 Q125.8184 14.1406 125.3652 14.1406 Q124.6777 14.1406 124.2246 13.6641 Q123.7715 13.1875 123.7715 12.4062 Q123.7715 11.9219 123.9902 11.5625 Q124.3027 11.0625 125.0449 10.625 Q125.7871 10.1875 127.5059 9.5469 L127.5059 9.2969 Q127.5059 8.2812 127.1934 7.9141 Q126.8809 7.5469 126.2715 7.5469 Q125.8027 7.5469 125.5371 7.7812 Q125.2559 8.0312 125.2559 8.3594 L125.2715 8.7812 Q125.2715 9.125 125.0996 9.3047 Q124.9277 9.4844 124.6465 9.4844 Q124.3809 9.4844 124.209 9.2969 Q124.0371 9.1094 124.0371 8.7812 Q124.0371 8.1406 124.6777 7.6172 Q125.3184 7.0938 126.4902 7.0938 Q127.3809 7.0938 127.9434 7.3906 Q128.3809 7.625 128.584 8.1094 Q128.7246 8.4219 128.7246 9.3906 L128.7246 11.6719 Q128.7246 12.625 128.7559 12.8438 Q128.7871 13.0625 128.873 13.1328 Q128.959 13.2031 129.0684 13.2031 Q129.1934 13.2031 129.2715 13.1562 Q129.4277 13.0625 129.8652 12.625 L129.8652 13.0312 Q129.0527 14.125 128.3027 14.125 Q127.9434 14.125 127.7324 13.8828 Q127.5215 13.6406 127.5059 13.0312 ZM127.5059 12.5625 L127.5059 10 Q126.4121 10.4375 126.084 10.625 Q125.5059 10.9531 125.2559 11.3047 Q125.0059 11.6562 125.0059 12.0625 Q125.0059 12.5938 125.3184 12.9453 Q125.6309 13.2969 126.0527 13.2969 Q126.5996 13.2969 127.5059 12.5625 Z"
                  style="stroke:none; clip-path:url(#clipPath9);"/>
        </g>
        <g style="text-rendering:optimizeLegibility; font-size:13px; font-family:'Times New Roman'; color-interpolation:linearRGB; color-rendering:optimizeQuality; image-rendering:optimizeQuality;">
            <rect x="86" y="286" width="245"
                  style="fill:none; clip-path:url(#clipPath1);" height="20"/>
        </g>
        <g style="stroke-linecap:butt; font-size:13px; fill:rgb(165,165,165); text-rendering:optimizeLegibility; image-rendering:optimizeQuality; color-rendering:optimizeQuality; font-family:'Times New Roman'; stroke-linejoin:round; stroke-dasharray:2,5; stroke:rgb(165,165,165); color-interpolation:linearRGB;"
           transform="translate(5,5)">
            <path d="M94 236 L408.9975 236"
                  style="fill:none; clip-path:url(#clipPath10);"/>
            <path d="M94 202.4266 L408.9975 202.4266"
                  style="fill:none; clip-path:url(#clipPath10);"/>
            <path d="M94 168.8532 L408.9975 168.8532"
                  style="fill:none; clip-path:url(#clipPath10);"/>
            <path d="M94 135.2798 L408.9975 135.2798"
                  style="fill:none; clip-path:url(#clipPath10);"/>
            <path d="M94 101.7064 L408.9975 101.7064"
                  style="fill:none; clip-path:url(#clipPath10);"/>
            <path d="M94 68.133 L408.9975 68.133"
                  style="fill:none; clip-path:url(#clipPath10);"/>
            <path d="M94 34.5596 L408.9975 34.5596"
                  style="fill:none; clip-path:url(#clipPath10);"/>
            <path d="M94 219.2133 L408.9975 219.2133"
                  style="fill:none; clip-path:url(#clipPath10); stroke:rgb(233,233,233);"/>
            <path d="M94 185.6399 L408.9975 185.6399"
                  style="fill:none; clip-path:url(#clipPath10); stroke:rgb(233,233,233);"/>
            <path d="M94 152.0665 L408.9975 152.0665"
                  style="fill:none; clip-path:url(#clipPath10); stroke:rgb(233,233,233);"/>
            <path d="M94 118.4931 L408.9975 118.4931"
                  style="fill:none; clip-path:url(#clipPath10); stroke:rgb(233,233,233);"/>
            <path d="M94 84.9197 L408.9975 84.9197"
                  style="fill:none; clip-path:url(#clipPath10); stroke:rgb(233,233,233);"/>
            <path d="M94 51.3463 L408.9975 51.3463"
                  style="fill:none; clip-path:url(#clipPath10); stroke:rgb(233,233,233);"/>
            <path d="M94 17.7729 L408.9975 17.7729"
                  style="fill:none; clip-path:url(#clipPath10); stroke:rgb(233,233,233);"/>
        </g>
        <g style="stroke-linecap:butt; font-size:13px; fill:rgb(0,116,204); text-rendering:optimizeLegibility; image-rendering:optimizeQuality; color-rendering:optimizeQuality; font-family:'Times New Roman'; stroke-linejoin:round; stroke:rgb(0,116,204); color-interpolation:linearRGB; stroke-width:1.5;"
           transform="translate(5,5)">
            <path d="M96 236 L97.555 234.8532 L99.11 233.7061 L100.665 232.5586 L102.2199 231.4107 L103.7749 230.2625 L105.3299 229.114 L106.8849 227.9652 L108.4399 226.816 L109.9949 225.6665 L111.5499 224.5167 L113.1049 223.3665 L114.6599 222.216 L116.2148 221.0653 L117.7698 219.9142 L119.3248 218.7628 L120.8798 217.6112 L122.4348 216.4592 L123.9898 215.3069 L125.5448 214.1544 L127.0998 213.0016 L128.6547 211.8484 L130.2097 210.6951 L131.7647 209.5414 L133.3197 208.3875 L134.8747 207.2332 L136.4297 206.0788 L137.9847 204.9241 L139.5397 203.7691 L141.0946 202.6138 L142.6496 201.4583 L144.2046 200.3026 L145.7596 199.1466 L147.3146 197.9904 L148.8696 196.8339 L150.4246 195.6772 L151.9796 194.5202 L153.5345 193.3631 L155.0895 192.2057 L156.6445 191.048 L158.1995 189.8902 L159.7545 188.7321 L161.3095 187.5738 L162.8645 186.4153 L164.4195 185.2566 L165.9744 184.0977 L167.5294 182.9385 L169.0844 181.7792 L170.6394 180.6196 L172.1944 179.4599 L173.7494 178.3 L175.3044 177.1398 L176.8593 175.9795 L178.4143 174.819 L179.9693 173.6583 L181.5243 172.4974 L183.0793 171.3363 L184.6343 170.1751 L186.1893 169.0136 L187.7443 167.852 L189.2993 166.6902 L190.8542 165.5283 L192.4092 164.3661 L193.9642 163.2039 L195.5192 162.0414 L197.0742 160.8788 L198.6292 159.716 L200.1842 158.553 L201.7392 157.3899 L203.2941 156.2267 L204.8491 155.0632 L206.4041 153.8997 L207.9591 152.736 L209.5141 151.5721 L211.0691 150.4081 L212.6241 149.2439 L214.1791 148.0796 L215.734 146.9152 L217.289 145.7506 L218.844 144.5858 L220.399 143.421 L221.954 142.256 L223.509 141.0909 L225.064 139.9256 L226.619 138.7602 L228.174 137.5947 L229.7289 136.4291 L231.2839 135.2633 L232.8389 134.0974 L234.3939 132.9314 L235.9489 131.7653 L237.5039 130.599 L239.0589 129.4326 L240.6138 128.2661 L242.1688 127.0995 L243.7238 125.9328 L245.2788 124.766 L246.8338 123.5991 L248.3888 122.432 L249.9438 121.2648 L251.4988 120.0976 L253.0538 118.9302 L254.6087 117.7627 L256.1637 116.5952 L257.7187 115.4275 L259.2737 114.2597 L260.8287 113.0919 L262.3837 111.9239 L263.9387 110.7558 L265.4937 109.5876 L267.0486 108.4194 L268.6036 107.251 L270.1586 106.0826 L271.7136 104.914 L273.2686 103.7454 L274.8236 102.5767 L276.3785 101.4079 L277.9335 100.239 L279.4885 99.0701 L281.0435 97.901 L282.5985 96.7319 L284.1535 95.5627 L285.7085 94.3934 L287.2635 93.224 L288.8185 92.0545 L290.3735 90.885 L291.9284 89.7154 L293.4834 88.5457 L295.0384 87.3759 L296.5934 86.2061 L298.1484 85.0362 L299.7034 83.8662 L301.2584 82.6961 L302.8134 81.526 L304.3683 80.3558 L305.9233 79.1855 L307.4783 78.0152 L309.0333 76.8448 L310.5883 75.6743 L312.1433 74.5038 L313.6983 73.3332 L315.2532 72.1625 L316.8082 70.9918 L318.3632 69.821 L319.9182 68.6502 L321.4732 67.4792 L323.0282 66.3083 L324.5832 65.1372 L326.1382 63.9662 L327.6932 62.795 L329.2481 61.6238 L330.8031 60.4525 L332.3581 59.2812 L333.9131 58.1098 L335.4681 56.9384 L337.0231 55.767 L338.5781 54.5954 L340.1331 53.4238 L341.688 52.2522 L343.243 51.0805 L344.798 49.9088 L346.353 48.737 L347.908 47.5651 L349.463 46.3933 L351.018 45.2213 L352.573 44.0493 L354.1279 42.8773 L355.6829 41.7052 L357.2379 40.5331 L358.7929 39.361 L360.3479 38.1888 L361.9029 37.0165 L363.4579 35.8442 L365.0129 34.6719 L366.5678 33.4995 L368.1228 32.3271 L369.6778 31.1546 L371.2328 29.9821 L372.7878 28.8095 L374.3428 27.6369 L375.8978 26.4643 L377.4528 25.2917 L379.0078 24.119 L380.5627 22.9462 L382.1177 21.7734 L383.6727 20.6006 L385.2277 19.4278 L386.7827 18.2549 L388.3377 17.082 L389.8927 15.909 L391.4477 14.736 L393.0026 13.563 L394.5576 12.3899 L396.1126 11.2168 L397.6676 10.0437 L399.2226 8.8705 L400.7776 7.6973 L402.3326 6.5241 L403.8875 5.3509 L405.4425 4.1776 L406.9975 3.0043"
                  style="fill:none; clip-path:url(#clipPath11);"/>
        </g>
        <g style="stroke-linecap:butt; font-size:13px; fill:rgb(204,0,116); text-rendering:optimizeLegibility; image-rendering:optimizeQuality; color-rendering:optimizeQuality; font-family:'Times New Roman'; stroke-linejoin:round; stroke:rgb(204,0,116); color-interpolation:linearRGB; stroke-width:1.5;"
           transform="translate(5,5)">
            <path d="M96 236 L97.956 234.5574 L99.9119 233.1143 L101.8679 231.6711 L103.8238 230.2274 L105.7798 228.7834 L107.7358 227.339 L109.6917 225.8943 L111.6477 224.4494 L113.6036 223.0041 L115.5596 221.5586 L117.5155 220.1128 L119.4715 218.6667 L121.4275 217.2204 L123.3834 215.7739 L125.3394 214.327 L127.2953 212.8799 L129.2513 211.4324 L131.2073 209.9847 L133.1632 208.5366 L135.1192 207.0882 L137.0751 205.6394 L139.0311 204.1902 L140.9871 202.7406 L142.943 201.2907 L144.899 199.8403 L146.8549 198.3895 L148.8109 196.9384 L150.7669 195.4868 L152.7228 194.0348 L154.6788 192.5825 L156.6347 191.1297 L158.5907 189.6765 L160.5467 188.223 L162.5026 186.769 L164.4586 185.3147 L166.4145 183.8601 L168.3705 182.4051 L170.3264 180.9498 L172.2824 179.4941 L174.2384 178.038 L176.1943 176.5816 L178.1503 175.1249 L180.1062 173.6679 L182.0622 172.2106 L184.0182 170.7529 L185.9741 169.2949 L187.9301 167.8367 L189.886 166.3781 L191.842 164.9192 L193.798 163.4599 L195.7539 162.0004 L197.7099 160.5406 L199.6658 159.0805 L201.6218 157.6202 L203.5778 156.1596 L205.5337 154.6986 L207.4897 153.2375 L209.4456 151.776 L211.4016 150.3143 L213.3576 148.8523 L215.3135 147.3901 L217.2695 145.9275 L219.2254 144.4648 L221.1814 143.0016 L223.1374 141.5383 L225.0933 140.0747 L227.0493 138.6109 L229.0052 137.1468 L230.9612 135.6824 L232.9171 134.2178 L234.8731 132.753 L236.8291 131.288 L238.785 129.8226 L240.741 128.3571 L242.6969 126.8913 L244.6529 125.4252 L246.6089 123.9589 L248.5648 122.4925 L250.5208 121.0258 L252.4767 119.559 L254.4327 118.092 L256.3887 116.6247 L258.3446 115.1573 L260.3006 113.6896 L262.2565 112.2217 L264.2125 110.7536 L266.1685 109.2854 L268.1244 107.8169 L270.0804 106.3482 L272.0363 104.8794 L273.9923 103.4104 L275.9482 101.9411 L277.9042 100.4718 L279.8602 99.0022 L281.8161 97.5325 L283.7721 96.0625 L285.7281 94.5924 L287.684 93.1221 L289.64 91.6517 L291.5959 90.1811 L293.5519 88.7103 L295.5078 87.2394 L297.4638 85.7682 L299.4198 84.297 L301.3757 82.8256 L303.3317 81.354 L305.2877 79.8823 L307.2436 78.4104 L309.1996 76.9384 L311.1555 75.4662 L313.1115 73.9938 L315.0674 72.5213 L317.0234 71.0486 L318.9794 69.5758 L320.9353 68.1029 L322.8913 66.6298 L324.8472 65.1565 L326.8032 63.6831 L328.7592 62.2095 L330.7151 60.7359 L332.6711 59.2621 L334.627 57.7881 L336.583 56.314 L338.5389 54.8397 L340.4949 53.3654 L342.4509 51.8909 L344.4068 50.4162 L346.3628 48.9415 L348.3188 47.4666 L350.2747 45.9917 L352.2307 44.5166 L354.1866 43.0413 L356.1426 41.5659 L358.0985 40.0905 L360.0545 38.6149 L362.0105 37.1392 L363.9664 35.6635 L365.9224 34.1875 L367.8783 32.7116 L369.8343 31.2355 L371.7903 29.7593 L373.7462 28.283 L375.7022 26.8066 L377.6581 25.3302 L379.6141 23.8537 L381.5701 22.377 L383.526 20.9002 L385.482 19.4234 L387.4379 17.9465 L389.3939 16.4694 L391.3499 14.9923 L393.3058 13.5152 L395.2618 12.0379 L397.2177 10.5606 L399.1737 9.0831 L401.1297 7.6057 L403.0856 6.1281 L405.0416 4.6503 L406.9975 3.1724"
                  style="fill:none; clip-path:url(#clipPath11);"/>
        </g>
        <g transform="translate(5,5)"
           style="stroke-linecap:butt; font-size:13px; text-rendering:optimizeLegibility; image-rendering:optimizeQuality; color-rendering:optimizeQuality; font-family:'Times New Roman'; stroke-linejoin:round; color-interpolation:linearRGB;">
            <path d="M94 238 L408.9975 238"
                  style="fill:none; clip-path:url(#clipPath10);"/>
            <path d="M94 1.0043 L408.9975 1.0043"
                  style="fill:none; clip-path:url(#clipPath10);"/>
        </g>
        <g transform="translate(5,5)"
           style="stroke-linecap:butt; font-size:13px; text-rendering:optimizeLegibility; image-rendering:optimizeQuality; color-rendering:optimizeQuality; font-family:'Times New Roman'; stroke-linejoin:round; color-interpolation:linearRGB;">
            <path d="M243.1562 263.9844 L242.5469 266.1094 L243.7812 266.1094 L243.6406 266.6094 L242.4219 266.6094 L241.0781 271.2188 Q240.8594 271.9531 240.8594 272.1719 Q240.8594 272.3125 240.9219 272.3828 Q240.9844 272.4531 241.0781 272.4531 Q241.2656 272.4531 241.5938 272.1719 Q241.7812 272.0156 242.4219 271.2188 L242.6875 271.4062 Q241.9688 272.4531 241.3281 272.8906 Q240.8906 273.1875 240.4375 273.1875 Q240.0938 273.1875 239.875 272.9688 Q239.6562 272.75 239.6562 272.4219 Q239.6562 272 239.9062 271.125 L241.2188 266.6094 L240.0312 266.6094 L240.1094 266.2969 Q240.9688 266.0625 241.5391 265.6016 Q242.1094 265.1406 242.8125 263.9844 L243.1562 263.9844 Z"
                  style="stroke:none; clip-path:url(#clipPath12);"/>
            <path d="M252.75 276.1719 L249.3125 276.1719 L249.3125 262.1562 L252.75 262.1562 L252.75 262.7812 L250.4844 262.7812 L250.4844 275.5625 L252.75 275.5625 L252.75 276.1719 ZM258.4531 265.625 L258.4531 268.0625 L258.2031 268.0625 Q257.9062 266.9219 257.4375 266.5078 Q256.9688 266.0938 256.25 266.0938 Q255.7031 266.0938 255.3672 266.3828 Q255.0312 266.6719 255.0312 267.0156 Q255.0312 267.4531 255.2812 267.7656 Q255.5312 268.0938 256.2656 268.4531 L257.4062 269 Q259 269.7812 259 271.0469 Q259 272.0156 258.2578 272.6172 Q257.5156 273.2188 256.6094 273.2188 Q255.9531 273.2188 255.1094 272.9844 Q254.8438 272.9062 254.6875 272.9062 Q254.5 272.9062 254.4062 273.1094 L254.1406 273.1094 L254.1406 270.5469 L254.4062 270.5469 Q254.625 271.6406 255.2422 272.1953 Q255.8594 272.75 256.625 272.75 Q257.1562 272.75 257.5 272.4375 Q257.8438 272.125 257.8438 271.6719 Q257.8438 271.1406 257.4609 270.7734 Q257.0781 270.4062 255.9453 269.8438 Q254.8125 269.2812 254.4688 268.8281 Q254.1094 268.375 254.1094 267.7031 Q254.1094 266.8125 254.7188 266.2188 Q255.3281 265.625 256.2812 265.625 Q256.7031 265.625 257.3125 265.8125 Q257.7031 265.9219 257.8438 265.9219 Q257.9688 265.9219 258.0391 265.8672 Q258.1094 265.8125 258.2031 265.625 L258.4531 265.625 ZM260.1484 262.1562 L263.5859 262.1562 L263.5859 276.1875 L260.1484 276.1875 L260.1484 275.5625 L262.4141 275.5625 L262.4141 262.7812 L260.1484 262.7812 L260.1484 262.1562 Z"
                  style="clip-path:url(#clipPath12); stroke:none;"/>
        </g>
        <g transform="translate(5,5)"
           style="font-size:13px; text-rendering:optimizeLegibility; color-rendering:optimizeQuality; image-rendering:optimizeQuality; font-family:'Times New Roman'; color-interpolation:linearRGB;">
            <path d="M96 238 L96 241.675"
                  style="fill:none; clip-path:url(#clipPath10);"/>
            <path d="M97.5781 255.7656 Q97.5781 253.9531 98.125 252.6406 Q98.6719 251.3281 99.5781 250.6875 Q100.2812 250.1875 101.0312 250.1875 Q102.25 250.1875 103.2188 251.4219 Q104.4375 252.9688 104.4375 255.5938 Q104.4375 257.4375 103.9062 258.7266 Q103.375 260.0156 102.5469 260.6016 Q101.7188 261.1875 100.9531 261.1875 Q99.4375 261.1875 98.4375 259.3906 Q97.5781 257.8906 97.5781 255.7656 ZM99.1094 255.9531 Q99.1094 258.1406 99.6562 259.5312 Q100.0938 260.6875 100.9844 260.6875 Q101.4062 260.6875 101.8594 260.3125 Q102.3125 259.9375 102.5469 259.0469 Q102.9062 257.7031 102.9062 255.25 Q102.9062 253.4375 102.5312 252.2344 Q102.25 251.3281 101.7969 250.9531 Q101.4844 250.7031 101.0312 250.7031 Q100.5 250.7031 100.0781 251.1719 Q99.5156 251.8281 99.3125 253.2188 Q99.1094 254.6094 99.1094 255.9531 Z"
                  style="clip-path:url(#clipPath13); stroke:none;"
                  transform="translate(-5,-5)"/>
        </g>
        <g transform="translate(5,5)"
           style="font-size:13px; text-rendering:optimizeLegibility; color-rendering:optimizeQuality; image-rendering:optimizeQuality; font-family:'Times New Roman'; color-interpolation:linearRGB;">
            <path d="M135.1192 238 L135.1192 241.675"
                  style="fill:none; clip-path:url(#clipPath10);"/>
            <path d="M137.875 251.4375 L140.4531 250.1875 L140.7188 250.1875 L140.7188 259.125 Q140.7188 260.0156 140.7891 260.2344 Q140.8594 260.4531 141.0938 260.5703 Q141.3281 260.6875 142.0469 260.7031 L142.0469 261 L138.0625 261 L138.0625 260.7031 Q138.8125 260.6875 139.0312 260.5781 Q139.25 260.4688 139.3359 260.2734 Q139.4219 260.0781 139.4219 259.125 L139.4219 253.4062 Q139.4219 252.25 139.3438 251.9219 Q139.2969 251.6719 139.1484 251.5547 Q139 251.4375 138.7969 251.4375 Q138.5156 251.4375 138 251.6875 L137.875 251.4375 Z"
                  style="clip-path:url(#clipPath13); stroke:none;"
                  transform="translate(-5,-5)"/>
        </g>
        <g transform="translate(5,5)"
           style="font-size:13px; text-rendering:optimizeLegibility; color-rendering:optimizeQuality; image-rendering:optimizeQuality; font-family:'Times New Roman'; color-interpolation:linearRGB;">
            <path d="M174.2384 238 L174.2384 241.675"
                  style="fill:none; clip-path:url(#clipPath10);"/>
            <path d="M182.3438 258.9531 L181.5938 261 L175.3438 261 L175.3438 260.7031 Q178.1094 258.1875 179.2344 256.5938 Q180.3594 255 180.3594 253.6875 Q180.3594 252.6719 179.7422 252.0234 Q179.125 251.375 178.2656 251.375 Q177.4844 251.375 176.8594 251.8359 Q176.2344 252.2969 175.9375 253.1719 L175.6562 253.1719 Q175.8438 251.7344 176.6562 250.9609 Q177.4688 250.1875 178.6719 250.1875 Q179.9688 250.1875 180.8281 251.0156 Q181.6875 251.8438 181.6875 252.9688 Q181.6875 253.7656 181.3125 254.5781 Q180.7344 255.8438 179.4375 257.25 Q177.5 259.375 177.0156 259.8125 L179.7812 259.8125 Q180.625 259.8125 180.9609 259.75 Q181.2969 259.6875 181.5703 259.5 Q181.8438 259.3125 182.0469 258.9531 L182.3438 258.9531 Z"
                  style="clip-path:url(#clipPath13); stroke:none;"
                  transform="translate(-5,-5)"/>
        </g>
        <g transform="translate(5,5)"
           style="font-size:13px; text-rendering:optimizeLegibility; color-rendering:optimizeQuality; image-rendering:optimizeQuality; font-family:'Times New Roman'; color-interpolation:linearRGB;">
            <path d="M213.3576 238 L213.3576 241.675"
                  style="fill:none; clip-path:url(#clipPath10);"/>
            <path d="M214.8125 252.4219 Q215.2656 251.3438 215.9609 250.7656 Q216.6562 250.1875 217.6875 250.1875 Q218.9531 250.1875 219.6406 251.0156 Q220.1562 251.625 220.1562 252.3281 Q220.1562 253.4844 218.7031 254.7188 Q219.6719 255.1094 220.1719 255.8203 Q220.6719 256.5312 220.6719 257.4844 Q220.6719 258.8594 219.7969 259.875 Q218.6562 261.1875 216.5 261.1875 Q215.4219 261.1875 215.0391 260.9219 Q214.6562 260.6562 214.6562 260.3438 Q214.6562 260.125 214.8359 259.9531 Q215.0156 259.7812 215.2812 259.7812 Q215.4688 259.7812 215.6719 259.8438 Q215.8125 259.875 216.2812 260.125 Q216.75 260.375 216.9219 260.4219 Q217.2188 260.5 217.5469 260.5 Q218.3438 260.5 218.9297 259.8828 Q219.5156 259.2656 219.5156 258.4219 Q219.5156 257.8125 219.25 257.2188 Q219.0469 256.7812 218.7969 256.5625 Q218.4688 256.25 217.8828 255.9922 Q217.2969 255.7344 216.6875 255.7344 L216.4375 255.7344 L216.4375 255.5 Q217.0469 255.4219 217.6719 255.0547 Q218.2969 254.6875 218.5781 254.1719 Q218.8594 253.6562 218.8594 253.0469 Q218.8594 252.2344 218.3516 251.7422 Q217.8438 251.25 217.0938 251.25 Q215.8906 251.25 215.0781 252.5469 L214.8125 252.4219 Z"
                  style="clip-path:url(#clipPath13); stroke:none;"
                  transform="translate(-5,-5)"/>
        </g>
        <g transform="translate(5,5)"
           style="font-size:13px; text-rendering:optimizeLegibility; color-rendering:optimizeQuality; image-rendering:optimizeQuality; font-family:'Times New Roman'; color-interpolation:linearRGB;">
            <path d="M252.4767 238 L252.4767 241.675"
                  style="fill:none; clip-path:url(#clipPath10);"/>
            <path d="M260.4531 257.0938 L260.4531 258.2031 L259.0312 258.2031 L259.0312 261 L257.7344 261 L257.7344 258.2031 L253.25 258.2031 L253.25 257.2031 L258.1719 250.1875 L259.0312 250.1875 L259.0312 257.0938 L260.4531 257.0938 ZM257.7344 257.0938 L257.7344 251.8281 L254.0156 257.0938 L257.7344 257.0938 Z"
                  style="clip-path:url(#clipPath13); stroke:none;"
                  transform="translate(-5,-5)"/>
        </g>
        <g transform="translate(5,5)"
           style="font-size:13px; text-rendering:optimizeLegibility; color-rendering:optimizeQuality; image-rendering:optimizeQuality; font-family:'Times New Roman'; color-interpolation:linearRGB;">
            <path d="M291.5959 238 L291.5959 241.675"
                  style="fill:none; clip-path:url(#clipPath10);"/>
            <path d="M298.9531 250.4062 L298.3438 251.7344 L295.1562 251.7344 L294.4531 253.1562 Q296.5312 253.4531 297.7344 254.6875 Q298.7812 255.75 298.7812 257.1875 Q298.7812 258.0312 298.4375 258.7422 Q298.0938 259.4531 297.5781 259.9531 Q297.0625 260.4531 296.4375 260.75 Q295.5312 261.1875 294.5938 261.1875 Q293.6406 261.1875 293.2031 260.8594 Q292.7656 260.5312 292.7656 260.1406 Q292.7656 259.9219 292.9453 259.7578 Q293.125 259.5938 293.4062 259.5938 Q293.6094 259.5938 293.7578 259.6562 Q293.9062 259.7188 294.2812 259.9688 Q294.8594 260.375 295.4688 260.375 Q296.375 260.375 297.0703 259.6875 Q297.7656 259 297.7656 258 Q297.7656 257.0469 297.1484 256.2109 Q296.5312 255.375 295.4375 254.9219 Q294.5938 254.5781 293.125 254.5156 L295.1562 250.4062 L298.9531 250.4062 Z"
                  style="clip-path:url(#clipPath13); stroke:none;"
                  transform="translate(-5,-5)"/>
        </g>
        <g transform="translate(5,5)"
           style="font-size:13px; text-rendering:optimizeLegibility; color-rendering:optimizeQuality; image-rendering:optimizeQuality; font-family:'Times New Roman'; color-interpolation:linearRGB;">
            <path d="M330.7151 238 L330.7151 241.675"
                  style="fill:none; clip-path:url(#clipPath10);"/>
            <path d="M338.1719 250.1875 L338.1719 250.4688 Q337.1406 250.5781 336.4922 250.8828 Q335.8438 251.1875 335.2031 251.8203 Q334.5625 252.4531 334.1484 253.2344 Q333.7344 254.0156 333.4531 255.0781 Q334.5781 254.3125 335.7031 254.3125 Q336.7969 254.3125 337.5938 255.1875 Q338.3906 256.0625 338.3906 257.4375 Q338.3906 258.7656 337.5781 259.8594 Q336.6094 261.1875 335.0156 261.1875 Q333.9375 261.1875 333.1719 260.4688 Q331.6875 259.0625 331.6875 256.8438 Q331.6875 255.4219 332.2578 254.1406 Q332.8281 252.8594 333.8906 251.8672 Q334.9531 250.875 335.9219 250.5312 Q336.8906 250.1875 337.7188 250.1875 L338.1719 250.1875 ZM333.3125 255.6562 Q333.1719 256.7031 333.1719 257.3594 Q333.1719 258.1094 333.4531 258.9844 Q333.7344 259.8594 334.2812 260.375 Q334.6719 260.75 335.25 260.75 Q335.9219 260.75 336.4609 260.1094 Q337 259.4688 337 258.2812 Q337 256.9375 336.4688 255.9609 Q335.9375 254.9844 334.9531 254.9844 Q334.6562 254.9844 334.3203 255.1094 Q333.9844 255.2344 333.3125 255.6562 Z"
                  style="clip-path:url(#clipPath13); stroke:none;"
                  transform="translate(-5,-5)"/>
        </g>
        <g transform="translate(5,5)"
           style="font-size:13px; text-rendering:optimizeLegibility; color-rendering:optimizeQuality; image-rendering:optimizeQuality; font-family:'Times New Roman'; color-interpolation:linearRGB;">
            <path d="M369.8343 238 L369.8343 241.675"
                  style="fill:none; clip-path:url(#clipPath10);"/>
            <path d="M371.6094 250.4062 L377.2969 250.4062 L377.2969 250.7031 L373.7656 261.2188 L372.8906 261.2188 L376.0469 251.6719 L373.1406 251.6719 Q372.25 251.6719 371.875 251.8906 Q371.2188 252.25 370.8281 253 L370.5938 252.9062 L371.6094 250.4062 Z"
                  style="clip-path:url(#clipPath13); stroke:none;"
                  transform="translate(-5,-5)"/>
        </g>
        <g transform="translate(5,5)"
           style="font-size:13px; text-rendering:optimizeLegibility; color-rendering:optimizeQuality; image-rendering:optimizeQuality; font-family:'Times New Roman'; color-interpolation:linearRGB;">
            <path d="M115.5596 238 L115.5596 239.8375"
                  style="fill:none; clip-path:url(#clipPath10);"/>
        </g>
        <g transform="translate(5,5)"
           style="font-size:13px; text-rendering:optimizeLegibility; color-rendering:optimizeQuality; image-rendering:optimizeQuality; font-family:'Times New Roman'; color-interpolation:linearRGB;">
            <path d="M154.6788 238 L154.6788 239.8375"
                  style="fill:none; clip-path:url(#clipPath10);"/>
        </g>
        <g transform="translate(5,5)"
           style="font-size:13px; text-rendering:optimizeLegibility; color-rendering:optimizeQuality; image-rendering:optimizeQuality; font-family:'Times New Roman'; color-interpolation:linearRGB;">
            <path d="M193.798 238 L193.798 239.8375"
                  style="fill:none; clip-path:url(#clipPath10);"/>
        </g>
        <g transform="translate(5,5)"
           style="font-size:13px; text-rendering:optimizeLegibility; color-rendering:optimizeQuality; image-rendering:optimizeQuality; font-family:'Times New Roman'; color-interpolation:linearRGB;">
            <path d="M232.9171 238 L232.9171 239.8375"
                  style="fill:none; clip-path:url(#clipPath10);"/>
        </g>
        <g transform="translate(5,5)"
           style="font-size:13px; text-rendering:optimizeLegibility; color-rendering:optimizeQuality; image-rendering:optimizeQuality; font-family:'Times New Roman'; color-interpolation:linearRGB;">
            <path d="M272.0363 238 L272.0363 239.8375"
                  style="fill:none; clip-path:url(#clipPath10);"/>
        </g>
        <g transform="translate(5,5)"
           style="font-size:13px; text-rendering:optimizeLegibility; color-rendering:optimizeQuality; image-rendering:optimizeQuality; font-family:'Times New Roman'; color-interpolation:linearRGB;">
            <path d="M311.1555 238 L311.1555 239.8375"
                  style="fill:none; clip-path:url(#clipPath10);"/>
        </g>
        <g transform="translate(5,5)"
           style="font-size:13px; text-rendering:optimizeLegibility; color-rendering:optimizeQuality; image-rendering:optimizeQuality; font-family:'Times New Roman'; color-interpolation:linearRGB;">
            <path d="M350.2747 238 L350.2747 239.8375"
                  style="fill:none; clip-path:url(#clipPath10);"/>
        </g>
        <g transform="translate(5,5)"
           style="font-size:13px; text-rendering:optimizeLegibility; color-rendering:optimizeQuality; image-rendering:optimizeQuality; font-family:'Times New Roman'; color-interpolation:linearRGB;">
            <path d="M389.3939 238 L389.3939 239.8375"
                  style="fill:none; clip-path:url(#clipPath10);"/>
        </g>
        <g transform="translate(5,5)"
           style="stroke-linecap:butt; font-size:13px; text-rendering:optimizeLegibility; image-rendering:optimizeQuality; color-rendering:optimizeQuality; font-family:'Times New Roman'; stroke-linejoin:round; color-interpolation:linearRGB;">
            <path d="M94 238 L94 1.0043"
                  style="fill:none; clip-path:url(#clipPath10);"/>
            <path d="M408.9975 238 L408.9975 1.0043"
                  style="fill:none; clip-path:url(#clipPath10);"/>
        </g>
        <g transform="translate(5,5)"
           style="stroke-linecap:butt; font-size:13px; text-rendering:optimizeLegibility; image-rendering:optimizeQuality; color-rendering:optimizeQuality; font-family:'Times New Roman'; stroke-linejoin:round; color-interpolation:linearRGB;">
            <path d="M12.8125 117.9219 L12.3281 120.3281 L12.0469 120.3281 Q12 119.2812 11.5938 118.8047 Q11.1875 118.3281 10.5938 118.3281 Q10.1094 118.3281 9.8203 118.5938 Q9.5312 118.8594 9.5312 119.2344 Q9.5312 119.4844 9.6484 119.7188 Q9.7656 119.9531 10.1406 120.375 Q11.1562 121.4844 11.4531 122.0469 Q11.75 122.6094 11.75 123.1094 Q11.75 123.9219 11.0781 124.5547 Q10.4062 125.1875 9.375 125.1875 Q8.8125 125.1875 8.0781 124.9219 Q7.8125 124.8281 7.6719 124.8281 Q7.3281 124.8281 7.1406 125.1875 L6.8438 125.1875 L7.3281 122.6562 L7.625 122.6562 Q7.6719 123.8438 8.1172 124.3359 Q8.5625 124.8281 9.3281 124.8281 Q9.9219 124.8281 10.2734 124.4922 Q10.625 124.1562 10.625 123.6719 Q10.625 123.3594 10.5 123.0938 Q10.2812 122.625 9.5781 121.7969 Q8.875 120.9688 8.6797 120.5547 Q8.4844 120.1406 8.4844 119.7344 Q8.4844 118.9688 9.0312 118.4453 Q9.5781 117.9219 10.4531 117.9219 Q10.7031 117.9219 10.9062 117.9688 Q11.0156 117.9844 11.4141 118.1406 Q11.8125 118.2969 11.9531 118.2969 Q12.2812 118.2969 12.5156 117.9219 L12.8125 117.9219 Z"
                  style="stroke:none; clip-path:url(#clipPath14);"/>
            <path d="M24.1562 115.9844 L23.5469 118.1094 L24.7812 118.1094 L24.6406 118.6094 L23.4219 118.6094 L22.0781 123.2188 Q21.8594 123.9531 21.8594 124.1719 Q21.8594 124.3125 21.9219 124.3828 Q21.9844 124.4531 22.0781 124.4531 Q22.2656 124.4531 22.5938 124.1719 Q22.7812 124.0156 23.4219 123.2188 L23.6875 123.4062 Q22.9688 124.4531 22.3281 124.8906 Q21.8906 125.1875 21.4375 125.1875 Q21.0938 125.1875 20.875 124.9688 Q20.6562 124.75 20.6562 124.4219 Q20.6562 124 20.9062 123.125 L22.2188 118.6094 L21.0312 118.6094 L21.1094 118.2969 Q21.9688 118.0625 22.5391 117.6016 Q23.1094 117.1406 23.8125 115.9844 L24.1562 115.9844 Z"
                  style="clip-path:url(#clipPath14); stroke:none;"/>
            <path d="M3.1007 13.643 L2.8752 14 Q0 12.2148 0 6.86 L0 7 L0 7.14 Q0 1.7664 2.8752 0 L3.1007 0.3383 Q1.8228 1.4282 1.3906 3.4013 Q1.1275 4.6228 1.1275 6.86 L1.1275 7 L1.1275 7.14 Q1.1275 9.3584 1.3906 10.5799 Q1.8228 12.553 3.1007 13.643 Z"
                  style="clip-path:url(#clipPath15); stroke:none;"
                  transform="translate(15,114)"/>
            <path d="M0 0.357 L0.2255 0 Q3.1007 1.7852 3.1007 7.14 L3.1007 7 L3.1007 6.86 Q3.1007 12.2336 0.2255 14 L0 13.6617 Q1.2779 12.5718 1.7101 10.5987 Q1.9732 9.3772 1.9732 7.14 L1.9732 7 L1.9732 6.86 Q1.9732 4.6416 1.7101 3.4201 Q1.2779 1.447 0 0.357 Z"
                  style="clip-path:url(#clipPath16); stroke:none;"
                  transform="translate(26,114)"/>
            <path d="M40.75 128.1719 L37.3125 128.1719 L37.3125 114.1562 L40.75 114.1562 L40.75 114.7812 L38.4844 114.7812 L38.4844 127.5625 L40.75 127.5625 L40.75 128.1719 ZM43.9531 119.1562 Q44.7344 118.375 44.875 118.25 Q45.2344 117.9531 45.6406 117.7891 Q46.0469 117.625 46.4375 117.625 Q47.1094 117.625 47.5938 118.0156 Q48.0781 118.4062 48.25 119.1562 Q49.0469 118.2188 49.6016 117.9219 Q50.1562 117.625 50.75 117.625 Q51.3125 117.625 51.7578 117.9219 Q52.2031 118.2188 52.4531 118.875 Q52.625 119.3281 52.625 120.2969 L52.625 123.375 Q52.625 124.0469 52.7344 124.2969 Q52.8125 124.4688 53.0234 124.5938 Q53.2344 124.7188 53.7031 124.7188 L53.7031 125 L50.1719 125 L50.1719 124.7188 L50.3281 124.7188 Q50.7812 124.7188 51.0469 124.5312 Q51.2188 124.4062 51.2969 124.1406 Q51.3281 124 51.3281 123.375 L51.3281 120.2969 Q51.3281 119.4219 51.125 119.0625 Q50.8125 118.5625 50.1406 118.5625 Q49.7344 118.5625 49.3125 118.7734 Q48.8906 118.9844 48.2969 119.5469 L48.2812 119.625 L48.2969 119.9688 L48.2969 123.375 Q48.2969 124.1094 48.3828 124.2891 Q48.4688 124.4688 48.6953 124.5938 Q48.9219 124.7188 49.4688 124.7188 L49.4688 125 L45.8438 125 L45.8438 124.7188 Q46.4375 124.7188 46.6641 124.5781 Q46.8906 124.4375 46.9688 124.1562 Q47.0156 124.0156 47.0156 123.375 L47.0156 120.2969 Q47.0156 119.4219 46.75 119.0469 Q46.4062 118.5469 45.7969 118.5469 Q45.375 118.5469 44.9531 118.7656 Q44.3125 119.1094 43.9531 119.5469 L43.9531 123.375 Q43.9531 124.0781 44.0547 124.2891 Q44.1562 124.5 44.3438 124.6094 Q44.5312 124.7188 45.125 124.7188 L45.125 125 L41.5781 125 L41.5781 124.7188 Q42.0781 124.7188 42.2734 124.6094 Q42.4688 124.5 42.5703 124.2734 Q42.6719 124.0469 42.6719 123.375 L42.6719 120.6406 Q42.6719 119.4688 42.5938 119.125 Q42.5469 118.8594 42.4297 118.7656 Q42.3125 118.6719 42.1094 118.6719 Q41.8906 118.6719 41.5781 118.7812 L41.4688 118.5 L43.625 117.625 L43.9531 117.625 L43.9531 119.1562 ZM54.3672 114.1562 L57.8047 114.1562 L57.8047 128.1875 L54.3672 128.1875 L54.3672 127.5625 L56.6328 127.5625 L56.6328 114.7812 L54.3672 114.7812 L54.3672 114.1562 Z"
                  style="clip-path:url(#clipPath14); stroke:none;"/>
        </g>
        <g transform="translate(5,5)"
           style="font-size:13px; text-rendering:optimizeLegibility; color-rendering:optimizeQuality; image-rendering:optimizeQuality; font-family:'Times New Roman'; color-interpolation:linearRGB;">
            <path d="M94 236 L90.325 236"
                  style="fill:none; clip-path:url(#clipPath10);"/>
            <path d="M87.5781 241.7656 Q87.5781 239.9531 88.125 238.6406 Q88.6719 237.3281 89.5781 236.6875 Q90.2812 236.1875 91.0312 236.1875 Q92.25 236.1875 93.2188 237.4219 Q94.4375 238.9688 94.4375 241.5938 Q94.4375 243.4375 93.9062 244.7266 Q93.375 246.0156 92.5469 246.6016 Q91.7188 247.1875 90.9531 247.1875 Q89.4375 247.1875 88.4375 245.3906 Q87.5781 243.8906 87.5781 241.7656 ZM89.1094 241.9531 Q89.1094 244.1406 89.6562 245.5312 Q90.0938 246.6875 90.9844 246.6875 Q91.4062 246.6875 91.8594 246.3125 Q92.3125 245.9375 92.5469 245.0469 Q92.9062 243.7031 92.9062 241.25 Q92.9062 239.4375 92.5312 238.2344 Q92.25 237.3281 91.7969 236.9531 Q91.4844 236.7031 91.0312 236.7031 Q90.5 236.7031 90.0781 237.1719 Q89.5156 237.8281 89.3125 239.2188 Q89.1094 240.6094 89.1094 241.9531 Z"
                  style="clip-path:url(#clipPath13); stroke:none;"
                  transform="translate(-5,-5)"/>
        </g>
        <g transform="translate(5,5)"
           style="font-size:13px; text-rendering:optimizeLegibility; color-rendering:optimizeQuality; image-rendering:optimizeQuality; font-family:'Times New Roman'; color-interpolation:linearRGB;">
            <path d="M94 202.4266 L90.325 202.4266"
                  style="fill:none; clip-path:url(#clipPath10);"/>
            <path d="M72.875 203.4375 L75.4531 202.1875 L75.7188 202.1875 L75.7188 211.125 Q75.7188 212.0156 75.7891 212.2344 Q75.8594 212.4531 76.0938 212.5703 Q76.3281 212.6875 77.0469 212.7031 L77.0469 213 L73.0625 213 L73.0625 212.7031 Q73.8125 212.6875 74.0312 212.5781 Q74.25 212.4688 74.3359 212.2734 Q74.4219 212.0781 74.4219 211.125 L74.4219 205.4062 Q74.4219 204.25 74.3438 203.9219 Q74.2969 203.6719 74.1484 203.5547 Q74 203.4375 73.7969 203.4375 Q73.5156 203.4375 73 203.6875 L72.875 203.4375 ZM79.5781 207.7656 Q79.5781 205.9531 80.125 204.6406 Q80.6719 203.3281 81.5781 202.6875 Q82.2812 202.1875 83.0312 202.1875 Q84.25 202.1875 85.2188 203.4219 Q86.4375 204.9688 86.4375 207.5938 Q86.4375 209.4375 85.9062 210.7266 Q85.375 212.0156 84.5469 212.6016 Q83.7188 213.1875 82.9531 213.1875 Q81.4375 213.1875 80.4375 211.3906 Q79.5781 209.8906 79.5781 207.7656 ZM81.1094 207.9531 Q81.1094 210.1406 81.6562 211.5312 Q82.0938 212.6875 82.9844 212.6875 Q83.4062 212.6875 83.8594 212.3125 Q84.3125 211.9375 84.5469 211.0469 Q84.9062 209.7031 84.9062 207.25 Q84.9062 205.4375 84.5312 204.2344 Q84.25 203.3281 83.7969 202.9531 Q83.4844 202.7031 83.0312 202.7031 Q82.5 202.7031 82.0781 203.1719 Q81.5156 203.8281 81.3125 205.2188 Q81.1094 206.6094 81.1094 207.9531 ZM87.5781 207.7656 Q87.5781 205.9531 88.125 204.6406 Q88.6719 203.3281 89.5781 202.6875 Q90.2812 202.1875 91.0312 202.1875 Q92.25 202.1875 93.2188 203.4219 Q94.4375 204.9688 94.4375 207.5938 Q94.4375 209.4375 93.9062 210.7266 Q93.375 212.0156 92.5469 212.6016 Q91.7188 213.1875 90.9531 213.1875 Q89.4375 213.1875 88.4375 211.3906 Q87.5781 209.8906 87.5781 207.7656 ZM89.1094 207.9531 Q89.1094 210.1406 89.6562 211.5312 Q90.0938 212.6875 90.9844 212.6875 Q91.4062 212.6875 91.8594 212.3125 Q92.3125 211.9375 92.5469 211.0469 Q92.9062 209.7031 92.9062 207.25 Q92.9062 205.4375 92.5312 204.2344 Q92.25 203.3281 91.7969 202.9531 Q91.4844 202.7031 91.0312 202.7031 Q90.5 202.7031 90.0781 203.1719 Q89.5156 203.8281 89.3125 205.2188 Q89.1094 206.6094 89.1094 207.9531 Z"
                  style="clip-path:url(#clipPath13); stroke:none;"
                  transform="translate(-5,-5)"/>
        </g>
        <g transform="translate(5,5)"
           style="font-size:13px; text-rendering:optimizeLegibility; color-rendering:optimizeQuality; image-rendering:optimizeQuality; font-family:'Times New Roman'; color-interpolation:linearRGB;">
            <path d="M94 168.8532 L90.325 168.8532"
                  style="fill:none; clip-path:url(#clipPath10);"/>
            <path d="M78.3438 176.9531 L77.5938 179 L71.3438 179 L71.3438 178.7031 Q74.1094 176.1875 75.2344 174.5938 Q76.3594 173 76.3594 171.6875 Q76.3594 170.6719 75.7422 170.0234 Q75.125 169.375 74.2656 169.375 Q73.4844 169.375 72.8594 169.8359 Q72.2344 170.2969 71.9375 171.1719 L71.6562 171.1719 Q71.8438 169.7344 72.6562 168.9609 Q73.4688 168.1875 74.6719 168.1875 Q75.9688 168.1875 76.8281 169.0156 Q77.6875 169.8438 77.6875 170.9688 Q77.6875 171.7656 77.3125 172.5781 Q76.7344 173.8438 75.4375 175.25 Q73.5 177.375 73.0156 177.8125 L75.7812 177.8125 Q76.625 177.8125 76.9609 177.75 Q77.2969 177.6875 77.5703 177.5 Q77.8438 177.3125 78.0469 176.9531 L78.3438 176.9531 ZM79.5781 173.7656 Q79.5781 171.9531 80.125 170.6406 Q80.6719 169.3281 81.5781 168.6875 Q82.2812 168.1875 83.0312 168.1875 Q84.25 168.1875 85.2188 169.4219 Q86.4375 170.9688 86.4375 173.5938 Q86.4375 175.4375 85.9062 176.7266 Q85.375 178.0156 84.5469 178.6016 Q83.7188 179.1875 82.9531 179.1875 Q81.4375 179.1875 80.4375 177.3906 Q79.5781 175.8906 79.5781 173.7656 ZM81.1094 173.9531 Q81.1094 176.1406 81.6562 177.5312 Q82.0938 178.6875 82.9844 178.6875 Q83.4062 178.6875 83.8594 178.3125 Q84.3125 177.9375 84.5469 177.0469 Q84.9062 175.7031 84.9062 173.25 Q84.9062 171.4375 84.5312 170.2344 Q84.25 169.3281 83.7969 168.9531 Q83.4844 168.7031 83.0312 168.7031 Q82.5 168.7031 82.0781 169.1719 Q81.5156 169.8281 81.3125 171.2188 Q81.1094 172.6094 81.1094 173.9531 ZM87.5781 173.7656 Q87.5781 171.9531 88.125 170.6406 Q88.6719 169.3281 89.5781 168.6875 Q90.2812 168.1875 91.0312 168.1875 Q92.25 168.1875 93.2188 169.4219 Q94.4375 170.9688 94.4375 173.5938 Q94.4375 175.4375 93.9062 176.7266 Q93.375 178.0156 92.5469 178.6016 Q91.7188 179.1875 90.9531 179.1875 Q89.4375 179.1875 88.4375 177.3906 Q87.5781 175.8906 87.5781 173.7656 ZM89.1094 173.9531 Q89.1094 176.1406 89.6562 177.5312 Q90.0938 178.6875 90.9844 178.6875 Q91.4062 178.6875 91.8594 178.3125 Q92.3125 177.9375 92.5469 177.0469 Q92.9062 175.7031 92.9062 173.25 Q92.9062 171.4375 92.5312 170.2344 Q92.25 169.3281 91.7969 168.9531 Q91.4844 168.7031 91.0312 168.7031 Q90.5 168.7031 90.0781 169.1719 Q89.5156 169.8281 89.3125 171.2188 Q89.1094 172.6094 89.1094 173.9531 Z"
                  style="clip-path:url(#clipPath13); stroke:none;"
                  transform="translate(-5,-5)"/>
        </g>
        <g transform="translate(5,5)"
           style="font-size:13px; text-rendering:optimizeLegibility; color-rendering:optimizeQuality; image-rendering:optimizeQuality; font-family:'Times New Roman'; color-interpolation:linearRGB;">
            <path d="M94 135.2798 L90.325 135.2798"
                  style="fill:none; clip-path:url(#clipPath10);"/>
            <path d="M71.8125 137.4219 Q72.2656 136.3438 72.9609 135.7656 Q73.6562 135.1875 74.6875 135.1875 Q75.9531 135.1875 76.6406 136.0156 Q77.1562 136.625 77.1562 137.3281 Q77.1562 138.4844 75.7031 139.7188 Q76.6719 140.1094 77.1719 140.8203 Q77.6719 141.5312 77.6719 142.4844 Q77.6719 143.8594 76.7969 144.875 Q75.6562 146.1875 73.5 146.1875 Q72.4219 146.1875 72.0391 145.9219 Q71.6562 145.6562 71.6562 145.3438 Q71.6562 145.125 71.8359 144.9531 Q72.0156 144.7812 72.2812 144.7812 Q72.4688 144.7812 72.6719 144.8438 Q72.8125 144.875 73.2812 145.125 Q73.75 145.375 73.9219 145.4219 Q74.2188 145.5 74.5469 145.5 Q75.3438 145.5 75.9297 144.8828 Q76.5156 144.2656 76.5156 143.4219 Q76.5156 142.8125 76.25 142.2188 Q76.0469 141.7812 75.7969 141.5625 Q75.4688 141.25 74.8828 140.9922 Q74.2969 140.7344 73.6875 140.7344 L73.4375 140.7344 L73.4375 140.5 Q74.0469 140.4219 74.6719 140.0547 Q75.2969 139.6875 75.5781 139.1719 Q75.8594 138.6562 75.8594 138.0469 Q75.8594 137.2344 75.3516 136.7422 Q74.8438 136.25 74.0938 136.25 Q72.8906 136.25 72.0781 137.5469 L71.8125 137.4219 ZM79.5781 140.7656 Q79.5781 138.9531 80.125 137.6406 Q80.6719 136.3281 81.5781 135.6875 Q82.2812 135.1875 83.0312 135.1875 Q84.25 135.1875 85.2188 136.4219 Q86.4375 137.9688 86.4375 140.5938 Q86.4375 142.4375 85.9062 143.7266 Q85.375 145.0156 84.5469 145.6016 Q83.7188 146.1875 82.9531 146.1875 Q81.4375 146.1875 80.4375 144.3906 Q79.5781 142.8906 79.5781 140.7656 ZM81.1094 140.9531 Q81.1094 143.1406 81.6562 144.5312 Q82.0938 145.6875 82.9844 145.6875 Q83.4062 145.6875 83.8594 145.3125 Q84.3125 144.9375 84.5469 144.0469 Q84.9062 142.7031 84.9062 140.25 Q84.9062 138.4375 84.5312 137.2344 Q84.25 136.3281 83.7969 135.9531 Q83.4844 135.7031 83.0312 135.7031 Q82.5 135.7031 82.0781 136.1719 Q81.5156 136.8281 81.3125 138.2188 Q81.1094 139.6094 81.1094 140.9531 ZM87.5781 140.7656 Q87.5781 138.9531 88.125 137.6406 Q88.6719 136.3281 89.5781 135.6875 Q90.2812 135.1875 91.0312 135.1875 Q92.25 135.1875 93.2188 136.4219 Q94.4375 137.9688 94.4375 140.5938 Q94.4375 142.4375 93.9062 143.7266 Q93.375 145.0156 92.5469 145.6016 Q91.7188 146.1875 90.9531 146.1875 Q89.4375 146.1875 88.4375 144.3906 Q87.5781 142.8906 87.5781 140.7656 ZM89.1094 140.9531 Q89.1094 143.1406 89.6562 144.5312 Q90.0938 145.6875 90.9844 145.6875 Q91.4062 145.6875 91.8594 145.3125 Q92.3125 144.9375 92.5469 144.0469 Q92.9062 142.7031 92.9062 140.25 Q92.9062 138.4375 92.5312 137.2344 Q92.25 136.3281 91.7969 135.9531 Q91.4844 135.7031 91.0312 135.7031 Q90.5 135.7031 90.0781 136.1719 Q89.5156 136.8281 89.3125 138.2188 Q89.1094 139.6094 89.1094 140.9531 Z"
                  style="clip-path:url(#clipPath13); stroke:none;"
                  transform="translate(-5,-5)"/>
        </g>
        <g transform="translate(5,5)"
           style="font-size:13px; text-rendering:optimizeLegibility; color-rendering:optimizeQuality; image-rendering:optimizeQuality; font-family:'Times New Roman'; color-interpolation:linearRGB;">
            <path d="M94 101.7064 L90.325 101.7064"
                  style="fill:none; clip-path:url(#clipPath10);"/>
            <path d="M78.4531 108.0938 L78.4531 109.2031 L77.0312 109.2031 L77.0312 112 L75.7344 112 L75.7344 109.2031 L71.25 109.2031 L71.25 108.2031 L76.1719 101.1875 L77.0312 101.1875 L77.0312 108.0938 L78.4531 108.0938 ZM75.7344 108.0938 L75.7344 102.8281 L72.0156 108.0938 L75.7344 108.0938 ZM79.5781 106.7656 Q79.5781 104.9531 80.125 103.6406 Q80.6719 102.3281 81.5781 101.6875 Q82.2812 101.1875 83.0312 101.1875 Q84.25 101.1875 85.2188 102.4219 Q86.4375 103.9688 86.4375 106.5938 Q86.4375 108.4375 85.9062 109.7266 Q85.375 111.0156 84.5469 111.6016 Q83.7188 112.1875 82.9531 112.1875 Q81.4375 112.1875 80.4375 110.3906 Q79.5781 108.8906 79.5781 106.7656 ZM81.1094 106.9531 Q81.1094 109.1406 81.6562 110.5312 Q82.0938 111.6875 82.9844 111.6875 Q83.4062 111.6875 83.8594 111.3125 Q84.3125 110.9375 84.5469 110.0469 Q84.9062 108.7031 84.9062 106.25 Q84.9062 104.4375 84.5312 103.2344 Q84.25 102.3281 83.7969 101.9531 Q83.4844 101.7031 83.0312 101.7031 Q82.5 101.7031 82.0781 102.1719 Q81.5156 102.8281 81.3125 104.2188 Q81.1094 105.6094 81.1094 106.9531 ZM87.5781 106.7656 Q87.5781 104.9531 88.125 103.6406 Q88.6719 102.3281 89.5781 101.6875 Q90.2812 101.1875 91.0312 101.1875 Q92.25 101.1875 93.2188 102.4219 Q94.4375 103.9688 94.4375 106.5938 Q94.4375 108.4375 93.9062 109.7266 Q93.375 111.0156 92.5469 111.6016 Q91.7188 112.1875 90.9531 112.1875 Q89.4375 112.1875 88.4375 110.3906 Q87.5781 108.8906 87.5781 106.7656 ZM89.1094 106.9531 Q89.1094 109.1406 89.6562 110.5312 Q90.0938 111.6875 90.9844 111.6875 Q91.4062 111.6875 91.8594 111.3125 Q92.3125 110.9375 92.5469 110.0469 Q92.9062 108.7031 92.9062 106.25 Q92.9062 104.4375 92.5312 103.2344 Q92.25 102.3281 91.7969 101.9531 Q91.4844 101.7031 91.0312 101.7031 Q90.5 101.7031 90.0781 102.1719 Q89.5156 102.8281 89.3125 104.2188 Q89.1094 105.6094 89.1094 106.9531 Z"
                  style="clip-path:url(#clipPath13); stroke:none;"
                  transform="translate(-5,-5)"/>
        </g>
        <g transform="translate(5,5)"
           style="font-size:13px; text-rendering:optimizeLegibility; color-rendering:optimizeQuality; image-rendering:optimizeQuality; font-family:'Times New Roman'; color-interpolation:linearRGB;">
            <path d="M94 68.133 L90.325 68.133"
                  style="fill:none; clip-path:url(#clipPath10);"/>
            <path d="M77.9531 68.4062 L77.3438 69.7344 L74.1562 69.7344 L73.4531 71.1562 Q75.5312 71.4531 76.7344 72.6875 Q77.7812 73.75 77.7812 75.1875 Q77.7812 76.0312 77.4375 76.7422 Q77.0938 77.4531 76.5781 77.9531 Q76.0625 78.4531 75.4375 78.75 Q74.5312 79.1875 73.5938 79.1875 Q72.6406 79.1875 72.2031 78.8594 Q71.7656 78.5312 71.7656 78.1406 Q71.7656 77.9219 71.9453 77.7578 Q72.125 77.5938 72.4062 77.5938 Q72.6094 77.5938 72.7578 77.6562 Q72.9062 77.7188 73.2812 77.9688 Q73.8594 78.375 74.4688 78.375 Q75.375 78.375 76.0703 77.6875 Q76.7656 77 76.7656 76 Q76.7656 75.0469 76.1484 74.2109 Q75.5312 73.375 74.4375 72.9219 Q73.5938 72.5781 72.125 72.5156 L74.1562 68.4062 L77.9531 68.4062 ZM79.5781 73.7656 Q79.5781 71.9531 80.125 70.6406 Q80.6719 69.3281 81.5781 68.6875 Q82.2812 68.1875 83.0312 68.1875 Q84.25 68.1875 85.2188 69.4219 Q86.4375 70.9688 86.4375 73.5938 Q86.4375 75.4375 85.9062 76.7266 Q85.375 78.0156 84.5469 78.6016 Q83.7188 79.1875 82.9531 79.1875 Q81.4375 79.1875 80.4375 77.3906 Q79.5781 75.8906 79.5781 73.7656 ZM81.1094 73.9531 Q81.1094 76.1406 81.6562 77.5312 Q82.0938 78.6875 82.9844 78.6875 Q83.4062 78.6875 83.8594 78.3125 Q84.3125 77.9375 84.5469 77.0469 Q84.9062 75.7031 84.9062 73.25 Q84.9062 71.4375 84.5312 70.2344 Q84.25 69.3281 83.7969 68.9531 Q83.4844 68.7031 83.0312 68.7031 Q82.5 68.7031 82.0781 69.1719 Q81.5156 69.8281 81.3125 71.2188 Q81.1094 72.6094 81.1094 73.9531 ZM87.5781 73.7656 Q87.5781 71.9531 88.125 70.6406 Q88.6719 69.3281 89.5781 68.6875 Q90.2812 68.1875 91.0312 68.1875 Q92.25 68.1875 93.2188 69.4219 Q94.4375 70.9688 94.4375 73.5938 Q94.4375 75.4375 93.9062 76.7266 Q93.375 78.0156 92.5469 78.6016 Q91.7188 79.1875 90.9531 79.1875 Q89.4375 79.1875 88.4375 77.3906 Q87.5781 75.8906 87.5781 73.7656 ZM89.1094 73.9531 Q89.1094 76.1406 89.6562 77.5312 Q90.0938 78.6875 90.9844 78.6875 Q91.4062 78.6875 91.8594 78.3125 Q92.3125 77.9375 92.5469 77.0469 Q92.9062 75.7031 92.9062 73.25 Q92.9062 71.4375 92.5312 70.2344 Q92.25 69.3281 91.7969 68.9531 Q91.4844 68.7031 91.0312 68.7031 Q90.5 68.7031 90.0781 69.1719 Q89.5156 69.8281 89.3125 71.2188 Q89.1094 72.6094 89.1094 73.9531 Z"
                  style="clip-path:url(#clipPath13); stroke:none;"
                  transform="translate(-5,-5)"/>
        </g>
        <g transform="translate(5,5)"
           style="font-size:13px; text-rendering:optimizeLegibility; color-rendering:optimizeQuality; image-rendering:optimizeQuality; font-family:'Times New Roman'; color-interpolation:linearRGB;">
            <path d="M94 34.5596 L90.325 34.5596"
                  style="fill:none; clip-path:url(#clipPath10);"/>
            <path d="M78.1719 34.1875 L78.1719 34.4688 Q77.1406 34.5781 76.4922 34.8828 Q75.8438 35.1875 75.2031 35.8203 Q74.5625 36.4531 74.1484 37.2344 Q73.7344 38.0156 73.4531 39.0781 Q74.5781 38.3125 75.7031 38.3125 Q76.7969 38.3125 77.5938 39.1875 Q78.3906 40.0625 78.3906 41.4375 Q78.3906 42.7656 77.5781 43.8594 Q76.6094 45.1875 75.0156 45.1875 Q73.9375 45.1875 73.1719 44.4688 Q71.6875 43.0625 71.6875 40.8438 Q71.6875 39.4219 72.2578 38.1406 Q72.8281 36.8594 73.8906 35.8672 Q74.9531 34.875 75.9219 34.5312 Q76.8906 34.1875 77.7188 34.1875 L78.1719 34.1875 ZM73.3125 39.6562 Q73.1719 40.7031 73.1719 41.3594 Q73.1719 42.1094 73.4531 42.9844 Q73.7344 43.8594 74.2812 44.375 Q74.6719 44.75 75.25 44.75 Q75.9219 44.75 76.4609 44.1094 Q77 43.4688 77 42.2812 Q77 40.9375 76.4688 39.9609 Q75.9375 38.9844 74.9531 38.9844 Q74.6562 38.9844 74.3203 39.1094 Q73.9844 39.2344 73.3125 39.6562 ZM79.5781 39.7656 Q79.5781 37.9531 80.125 36.6406 Q80.6719 35.3281 81.5781 34.6875 Q82.2812 34.1875 83.0312 34.1875 Q84.25 34.1875 85.2188 35.4219 Q86.4375 36.9688 86.4375 39.5938 Q86.4375 41.4375 85.9062 42.7266 Q85.375 44.0156 84.5469 44.6016 Q83.7188 45.1875 82.9531 45.1875 Q81.4375 45.1875 80.4375 43.3906 Q79.5781 41.8906 79.5781 39.7656 ZM81.1094 39.9531 Q81.1094 42.1406 81.6562 43.5312 Q82.0938 44.6875 82.9844 44.6875 Q83.4062 44.6875 83.8594 44.3125 Q84.3125 43.9375 84.5469 43.0469 Q84.9062 41.7031 84.9062 39.25 Q84.9062 37.4375 84.5312 36.2344 Q84.25 35.3281 83.7969 34.9531 Q83.4844 34.7031 83.0312 34.7031 Q82.5 34.7031 82.0781 35.1719 Q81.5156 35.8281 81.3125 37.2188 Q81.1094 38.6094 81.1094 39.9531 ZM87.5781 39.7656 Q87.5781 37.9531 88.125 36.6406 Q88.6719 35.3281 89.5781 34.6875 Q90.2812 34.1875 91.0312 34.1875 Q92.25 34.1875 93.2188 35.4219 Q94.4375 36.9688 94.4375 39.5938 Q94.4375 41.4375 93.9062 42.7266 Q93.375 44.0156 92.5469 44.6016 Q91.7188 45.1875 90.9531 45.1875 Q89.4375 45.1875 88.4375 43.3906 Q87.5781 41.8906 87.5781 39.7656 ZM89.1094 39.9531 Q89.1094 42.1406 89.6562 43.5312 Q90.0938 44.6875 90.9844 44.6875 Q91.4062 44.6875 91.8594 44.3125 Q92.3125 43.9375 92.5469 43.0469 Q92.9062 41.7031 92.9062 39.25 Q92.9062 37.4375 92.5312 36.2344 Q92.25 35.3281 91.7969 34.9531 Q91.4844 34.7031 91.0312 34.7031 Q90.5 34.7031 90.0781 35.1719 Q89.5156 35.8281 89.3125 37.2188 Q89.1094 38.6094 89.1094 39.9531 Z"
                  style="clip-path:url(#clipPath13); stroke:none;"
                  transform="translate(-5,-5)"/>
        </g>
        <g transform="translate(5,5)"
           style="font-size:13px; text-rendering:optimizeLegibility; color-rendering:optimizeQuality; image-rendering:optimizeQuality; font-family:'Times New Roman'; color-interpolation:linearRGB;">
            <path d="M94 219.2133 L92.1625 219.2133"
                  style="fill:none; clip-path:url(#clipPath10);"/>
        </g>
        <g transform="translate(5,5)"
           style="font-size:13px; text-rendering:optimizeLegibility; color-rendering:optimizeQuality; image-rendering:optimizeQuality; font-family:'Times New Roman'; color-interpolation:linearRGB;">
            <path d="M94 185.6399 L92.1625 185.6399"
                  style="fill:none; clip-path:url(#clipPath10);"/>
        </g>
        <g transform="translate(5,5)"
           style="font-size:13px; text-rendering:optimizeLegibility; color-rendering:optimizeQuality; image-rendering:optimizeQuality; font-family:'Times New Roman'; color-interpolation:linearRGB;">
            <path d="M94 152.0665 L92.1625 152.0665"
                  style="fill:none; clip-path:url(#clipPath10);"/>
        </g>
        <g transform="translate(5,5)"
           style="font-size:13px; text-rendering:optimizeLegibility; color-rendering:optimizeQuality; image-rendering:optimizeQuality; font-family:'Times New Roman'; color-interpolation:linearRGB;">
            <path d="M94 118.4931 L92.1625 118.4931"
                  style="fill:none; clip-path:url(#clipPath10);"/>
        </g>
        <g transform="translate(5,5)"
           style="font-size:13px; text-rendering:optimizeLegibility; color-rendering:optimizeQuality; image-rendering:optimizeQuality; font-family:'Times New Roman'; color-interpolation:linearRGB;">
            <path d="M94 84.9197 L92.1625 84.9197"
                  style="fill:none; clip-path:url(#clipPath10);"/>
        </g>
        <g transform="translate(5,5)"
           style="font-size:13px; text-rendering:optimizeLegibility; color-rendering:optimizeQuality; image-rendering:optimizeQuality; font-family:'Times New Roman'; color-interpolation:linearRGB;">
            <path d="M94 51.3463 L92.1625 51.3463"
                  style="fill:none; clip-path:url(#clipPath10);"/>
        </g>
        <g transform="translate(5,5)"
           style="font-size:13px; text-rendering:optimizeLegibility; color-rendering:optimizeQuality; image-rendering:optimizeQuality; font-family:'Times New Roman'; color-interpolation:linearRGB;">
            <path d="M94 17.7729 L92.1625 17.7729"
                  style="fill:none; clip-path:url(#clipPath10);"/>
        </g>
    </g>
</svg>
