<?xml version="1.0" encoding="UTF-8"?>
<!DOCTYPE svg PUBLIC '-//W3C//DTD SVG 1.0//EN'
    'http://www.w3.org/TR/2001/REC-SVG-20010904/DTD/svg10.dtd' >

<svg style="stroke-dasharray:none; shape-rendering:auto; font-family:'Dialog'; text-rendering:auto; fill-opacity:1; color-interpolation:auto; color-rendering:auto; font-size:12px; fill:black; stroke:black; image-rendering:auto; stroke-miterlimit:10; stroke-linecap:square; stroke-linejoin:miter; font-style:normal; stroke-width:1; stroke-dashoffset:0; font-weight:normal; stroke-opacity:1;"
     xmlns="http://www.w3.org/2000/svg" contentScriptType="text/ecmascript"
     preserveAspectRatio="xMidYMid meet"
     xmlns:xlink="http://www.w3.org/1999/xlink" zoomAndPan="magnify"
     version="1.0" contentStyleType="text/css">
    <!--Generated by the Batik Graphics2D SVG Generator-->
    <defs id="genericDefs"/>
    <g>
        <defs id="defs1">
            <clipPath clipPathUnits="userSpaceOnUse" id="clipPath1">
                <path d="M107 355 L312 355 L312 379 L107 379 L107 355 Z"/>
            </clipPath>
            <clipPath clipPathUnits="userSpaceOnUse" id="clipPath2">
                <path d="M110 358 L110 376 L186 376 L186 358 Z"/>
            </clipPath>
            <clipPath clipPathUnits="userSpaceOnUse" id="clipPath3">
                <path d="M-17 -6 L-17 12 L59 12 L59 -6 Z"/>
            </clipPath>
            <clipPath clipPathUnits="userSpaceOnUse" id="clipPath4">
                <path d="M0 0 L0 18 L76 18 L76 0 Z"/>
            </clipPath>
            <clipPath clipPathUnits="userSpaceOnUse" id="clipPath5">
                <path d="M37 0 L37 17 L75 17 L75 0 Z"/>
            </clipPath>
            <clipPath clipPathUnits="userSpaceOnUse" id="clipPath6">
                <path d="M185 358 L185 376 L310 376 L310 358 Z"/>
            </clipPath>
            <clipPath clipPathUnits="userSpaceOnUse" id="clipPath7">
                <path d="M-2 -1 L-2 17 L123 17 L123 -1 Z"/>
            </clipPath>
            <clipPath clipPathUnits="userSpaceOnUse" id="clipPath8">
                <path d="M0 0 L0 18 L125 18 L125 0 Z"/>
            </clipPath>
            <clipPath clipPathUnits="userSpaceOnUse" id="clipPath9">
                <path d="M37 0 L37 17 L124 17 L124 0 Z"/>
            </clipPath>
            <clipPath clipPathUnits="userSpaceOnUse" id="clipPath10">
                <path d="M0 0 L410 0 L410 347 L0 347 L0 0 Z"/>
            </clipPath>
            <clipPath clipPathUnits="userSpaceOnUse" id="clipPath11">
                <path d="M-326.7481 -70.5157 L83.2519 -70.5157 L83.2519 276.4843 L-326.7481 276.4843 L-326.7481 -70.5157 Z"/>
            </clipPath>
            <clipPath clipPathUnits="userSpaceOnUse" id="clipPath12">
                <path d="M-378.5811 -137.7111 L31.4189 -137.7111 L31.4189 209.2889 L-378.5811 209.2889 L-378.5811 -137.7111 Z"/>
            </clipPath>
            <clipPath clipPathUnits="userSpaceOnUse" id="clipPath13">
                <path d="M-352.6646 -108.3131 L57.3354 -108.3131 L57.3354 238.6869 L-352.6646 238.6869 L-352.6646 -108.3131 Z"/>
            </clipPath>
            <clipPath clipPathUnits="userSpaceOnUse" id="clipPath14">
                <path d="M-274.9152 -34.8181 L135.0848 -34.8181 L135.0848 312.1819 L-274.9152 312.1819 L-274.9152 -34.8181 Z"/>
            </clipPath>
            <clipPath clipPathUnits="userSpaceOnUse" id="clipPath15">
                <path d="M-300.8317 -49.5171 L109.1683 -49.5171 L109.1683 297.4829 L-300.8317 297.4829 L-300.8317 -49.5171 Z"/>
            </clipPath>
            <clipPath clipPathUnits="userSpaceOnUse" id="clipPath16">
                <path d="M-248.9988 -32.7182 L161.0012 -32.7182 L161.0012 314.2818 L-248.9988 314.2818 L-248.9988 -32.7182 Z"/>
            </clipPath>
            <clipPath clipPathUnits="userSpaceOnUse" id="clipPath17">
                <path d="M-223.0823 -32.7182 L186.9177 -32.7182 L186.9177 314.2818 L-223.0823 314.2818 L-223.0823 -32.7182 Z"/>
            </clipPath>
            <clipPath clipPathUnits="userSpaceOnUse" id="clipPath18">
                <path d="M-197.1658 -32.7182 L212.8342 -32.7182 L212.8342 314.2818 L-197.1658 314.2818 L-197.1658 -32.7182 Z"/>
            </clipPath>
            <clipPath clipPathUnits="userSpaceOnUse" id="clipPath19">
                <path d="M-171.2494 -30.6184 L238.7506 -30.6184 L238.7506 316.3816 L-171.2494 316.3816 L-171.2494 -30.6184 Z"/>
            </clipPath>
            <clipPath clipPathUnits="userSpaceOnUse" id="clipPath20">
                <path d="M-145.3329 -28.5185 L264.6671 -28.5185 L264.6671 318.4815 L-145.3329 318.4815 L-145.3329 -28.5185 Z"/>
            </clipPath>
            <clipPath clipPathUnits="userSpaceOnUse" id="clipPath21">
                <path d="M-119.4165 -28.5185 L290.5836 -28.5185 L290.5836 318.4815 L-119.4165 318.4815 L-119.4165 -28.5185 Z"/>
            </clipPath>
            <clipPath clipPathUnits="userSpaceOnUse" id="clipPath22">
                <path d="M93 6.0199 L93 307 L410 307 L410 6.0199 Z"/>
            </clipPath>
            <clipPath clipPathUnits="userSpaceOnUse" id="clipPath23">
                <path d="M207 328 L207 346 L296 346 L296 328 Z"/>
            </clipPath>
            <clipPath clipPathUnits="userSpaceOnUse" id="clipPath24">
                <path d="M5 5 L415 5 L415 352 L5 352 L5 5 Z"/>
            </clipPath>
            <clipPath clipPathUnits="userSpaceOnUse" id="clipPath25">
                <path d="M1 148 L1 166 L61 166 L61 148 Z"/>
            </clipPath>
        </defs>
        <g transform="translate(127,364)"
           style="font-size:13px; text-rendering:optimizeLegibility; color-rendering:optimizeQuality; image-rendering:optimizeQuality; font-family:'Times New Roman'; color-interpolation:linearRGB;">
            <path d="M0 2 L2 0 L4 2 L2 4 Z"
                  style="fill:none; clip-path:url(#clipPath3);"/>
        </g>
        <g transform="translate(110,358)"
           style="stroke-linecap:butt; font-size:13px; text-rendering:optimizeLegibility; image-rendering:optimizeQuality; color-rendering:optimizeQuality; font-family:'Times New Roman'; stroke-linejoin:round; color-interpolation:linearRGB; stroke-width:1.5;">
            <path d="M42.25 14 L42.25 13.7344 L42.625 13.7344 Q43.2656 13.7344 43.5312 13.3281 Q43.6875 13.0781 43.6875 12.2344 L43.6875 5.8281 Q43.6875 4.8906 43.4844 4.6562 Q43.1875 4.3438 42.625 4.3438 L42.25 4.3438 L42.25 4.0625 L46.2969 4.0625 Q48.5312 4.0625 49.6875 4.5703 Q50.8438 5.0781 51.5547 6.2578 Q52.2656 7.4375 52.2656 8.9844 Q52.2656 11.0625 51 12.4531 Q49.5938 14 46.6875 14 L42.25 14 ZM45.0938 13.2812 Q46.0156 13.4844 46.6562 13.4844 Q48.3438 13.4844 49.4688 12.2891 Q50.5938 11.0938 50.5938 9.0625 Q50.5938 7 49.4688 5.8125 Q48.3438 4.625 46.5938 4.625 Q45.9375 4.625 45.0938 4.8438 L45.0938 13.2812 ZM57.0981 13.0312 Q56.0669 13.8281 55.8013 13.9531 Q55.4106 14.1406 54.9575 14.1406 Q54.27 14.1406 53.8169 13.6641 Q53.3638 13.1875 53.3638 12.4062 Q53.3638 11.9219 53.5825 11.5625 Q53.895 11.0625 54.6372 10.625 Q55.3794 10.1875 57.0981 9.5469 L57.0981 9.2969 Q57.0981 8.2812 56.7856 7.9141 Q56.4731 7.5469 55.8638 7.5469 Q55.395 7.5469 55.1294 7.7812 Q54.8481 8.0312 54.8481 8.3594 L54.8638 8.7812 Q54.8638 9.125 54.6919 9.3047 Q54.52 9.4844 54.2388 9.4844 Q53.9731 9.4844 53.8013 9.2969 Q53.6294 9.1094 53.6294 8.7812 Q53.6294 8.1406 54.27 7.6172 Q54.9106 7.0938 56.0825 7.0938 Q56.9731 7.0938 57.5356 7.3906 Q57.9731 7.625 58.1763 8.1094 Q58.3169 8.4219 58.3169 9.3906 L58.3169 11.6719 Q58.3169 12.625 58.3481 12.8438 Q58.3794 13.0625 58.4653 13.1328 Q58.5513 13.2031 58.6606 13.2031 Q58.7856 13.2031 58.8638 13.1562 Q59.02 13.0625 59.4575 12.625 L59.4575 13.0312 Q58.645 14.125 57.895 14.125 Q57.5356 14.125 57.3247 13.8828 Q57.1138 13.6406 57.0981 13.0312 ZM57.0981 12.5625 L57.0981 10 Q56.0044 10.4375 55.6763 10.625 Q55.0981 10.9531 54.8481 11.3047 Q54.5981 11.6562 54.5981 12.0625 Q54.5981 12.5938 54.9106 12.9453 Q55.2231 13.2969 55.645 13.2969 Q56.1919 13.2969 57.0981 12.5625 ZM61.9121 5.0938 L61.9121 7.2969 L63.4746 7.2969 L63.4746 7.7969 L61.9121 7.7969 L61.9121 12.1562 Q61.9121 12.8125 62.0996 13.0391 Q62.2871 13.2656 62.5684 13.2656 Q62.8184 13.2656 63.0449 13.1094 Q63.2715 12.9531 63.3965 12.6719 L63.6777 12.6719 Q63.4277 13.3906 62.959 13.75 Q62.4902 14.1094 61.9902 14.1094 Q61.6465 14.1094 61.3262 13.9219 Q61.0059 13.7344 60.8496 13.3906 Q60.6934 13.0469 60.6934 12.3125 L60.6934 7.7969 L59.6309 7.7969 L59.6309 7.5625 Q60.0371 7.4062 60.459 7.0156 Q60.8809 6.625 61.209 6.1094 Q61.3809 5.8281 61.6777 5.0938 L61.9121 5.0938 ZM67.9233 13.0312 Q66.8921 13.8281 66.6265 13.9531 Q66.2358 14.1406 65.7827 14.1406 Q65.0952 14.1406 64.6421 13.6641 Q64.189 13.1875 64.189 12.4062 Q64.189 11.9219 64.4077 11.5625 Q64.7202 11.0625 65.4624 10.625 Q66.2046 10.1875 67.9233 9.5469 L67.9233 9.2969 Q67.9233 8.2812 67.6108 7.9141 Q67.2983 7.5469 66.689 7.5469 Q66.2202 7.5469 65.9546 7.7812 Q65.6733 8.0312 65.6733 8.3594 L65.689 8.7812 Q65.689 9.125 65.5171 9.3047 Q65.3452 9.4844 65.064 9.4844 Q64.7983 9.4844 64.6265 9.2969 Q64.4546 9.1094 64.4546 8.7812 Q64.4546 8.1406 65.0952 7.6172 Q65.7358 7.0938 66.9077 7.0938 Q67.7983 7.0938 68.3608 7.3906 Q68.7983 7.625 69.0015 8.1094 Q69.1421 8.4219 69.1421 9.3906 L69.1421 11.6719 Q69.1421 12.625 69.1733 12.8438 Q69.2046 13.0625 69.2905 13.1328 Q69.3765 13.2031 69.4858 13.2031 Q69.6108 13.2031 69.689 13.1562 Q69.8452 13.0625 70.2827 12.625 L70.2827 13.0312 Q69.4702 14.125 68.7202 14.125 Q68.3608 14.125 68.1499 13.8828 Q67.939 13.6406 67.9233 13.0312 ZM67.9233 12.5625 L67.9233 10 Q66.8296 10.4375 66.5015 10.625 Q65.9233 10.9531 65.6733 11.3047 Q65.4233 11.6562 65.4233 12.0625 Q65.4233 12.5938 65.7358 12.9453 Q66.0483 13.2969 66.4702 13.2969 Q67.0171 13.2969 67.9233 12.5625 Z"
                  style="stroke:none; clip-path:url(#clipPath5);"/>
        </g>
        <g style="stroke-linecap:butt; font-size:13px; fill:rgb(0,116,204); text-rendering:optimizeLegibility; image-rendering:optimizeQuality; color-rendering:optimizeQuality; font-family:'Times New Roman'; stroke-linejoin:round; stroke:rgb(0,116,204); color-interpolation:linearRGB; stroke-width:1.5;"
           transform="translate(187,359)">
            <path d="M0 7 L34 7" style="fill:none; clip-path:url(#clipPath7);"/>
        </g>
        <g transform="translate(185,358)"
           style="stroke-linecap:butt; font-size:13px; text-rendering:optimizeLegibility; image-rendering:optimizeQuality; color-rendering:optimizeQuality; font-family:'Times New Roman'; stroke-linejoin:round; color-interpolation:linearRGB; stroke-width:1.5;">
            <path d="M46.625 13.7344 L46.625 14 L42.375 14 L42.375 13.7344 L42.7188 13.7344 Q43.3438 13.7344 43.625 13.375 Q43.7969 13.1406 43.7969 12.2344 L43.7969 5.8281 Q43.7969 5.0781 43.7031 4.8281 Q43.625 4.6406 43.4062 4.5156 Q43.0781 4.3438 42.7188 4.3438 L42.375 4.3438 L42.375 4.0625 L46.625 4.0625 L46.625 4.3438 L46.2656 4.3438 Q45.6562 4.3438 45.3906 4.7031 Q45.2031 4.9375 45.2031 5.8281 L45.2031 12.2344 Q45.2031 13 45.2969 13.2344 Q45.375 13.4219 45.6094 13.5469 Q45.9219 13.7344 46.2656 13.7344 L46.625 13.7344 ZM49.417 8.5156 Q50.6045 7.0938 51.667 7.0938 Q52.2139 7.0938 52.6123 7.3672 Q53.0107 7.6406 53.2451 8.2656 Q53.4014 8.7188 53.4014 9.625 L53.4014 12.4844 Q53.4014 13.125 53.5107 13.3438 Q53.5889 13.5312 53.7686 13.6328 Q53.9482 13.7344 54.4326 13.7344 L54.4326 14 L51.1045 14 L51.1045 13.7344 L51.2451 13.7344 Q51.7139 13.7344 51.9014 13.5938 Q52.0889 13.4531 52.167 13.1719 Q52.1982 13.0625 52.1982 12.4844 L52.1982 9.7344 Q52.1982 8.8281 51.9561 8.4141 Q51.7139 8 51.1514 8 Q50.2764 8 49.417 8.9531 L49.417 12.4844 Q49.417 13.1719 49.4951 13.3281 Q49.6045 13.5312 49.7842 13.6328 Q49.9639 13.7344 50.5107 13.7344 L50.5107 14 L47.1982 14 L47.1982 13.7344 L47.3389 13.7344 Q47.8545 13.7344 48.0342 13.4766 Q48.2139 13.2188 48.2139 12.4844 L48.2139 10 Q48.2139 8.7812 48.1592 8.5156 Q48.1045 8.25 47.9873 8.1562 Q47.8701 8.0625 47.6826 8.0625 Q47.4795 8.0625 47.1982 8.1719 L47.0889 7.9062 L49.1045 7.0938 L49.417 7.0938 L49.417 8.5156 ZM56.917 5.0938 L56.917 7.2969 L58.4795 7.2969 L58.4795 7.7969 L56.917 7.7969 L56.917 12.1562 Q56.917 12.8125 57.1045 13.0391 Q57.292 13.2656 57.5732 13.2656 Q57.8232 13.2656 58.0498 13.1094 Q58.2764 12.9531 58.4014 12.6719 L58.6826 12.6719 Q58.4326 13.3906 57.9639 13.75 Q57.4951 14.1094 56.9951 14.1094 Q56.6514 14.1094 56.3311 13.9219 Q56.0107 13.7344 55.8545 13.3906 Q55.6982 13.0469 55.6982 12.3125 L55.6982 7.7969 L54.6357 7.7969 L54.6357 7.5625 Q55.042 7.4062 55.4639 7.0156 Q55.8857 6.625 56.2139 6.1094 Q56.3857 5.8281 56.6826 5.0938 L56.917 5.0938 ZM60.2563 9.8125 Q60.2563 11.3125 60.9907 12.1562 Q61.7095 13.0156 62.7095 13.0156 Q63.3657 13.0156 63.8501 12.6484 Q64.3345 12.2812 64.6626 11.4062 L64.897 11.5469 Q64.7407 12.5625 63.9985 13.3828 Q63.2563 14.2031 62.147 14.2031 Q60.9438 14.2031 60.0845 13.2656 Q59.2251 12.3281 59.2251 10.7344 Q59.2251 9.0156 60.1079 8.0469 Q60.9907 7.0781 62.3188 7.0781 Q63.4438 7.0781 64.1704 7.8281 Q64.897 8.5781 64.897 9.8125 L60.2563 9.8125 ZM60.2563 9.3906 L63.3657 9.3906 Q63.3345 8.75 63.2095 8.4844 Q63.022 8.0781 62.6626 7.8438 Q62.3032 7.6094 61.9126 7.6094 Q61.3032 7.6094 60.8188 8.0781 Q60.3345 8.5469 60.2563 9.3906 ZM67.7578 7.0938 L67.7578 8.6094 Q68.6016 7.0938 69.4766 7.0938 Q69.8828 7.0938 70.1484 7.3359 Q70.4141 7.5781 70.4141 7.9062 Q70.4141 8.1875 70.2188 8.3906 Q70.0234 8.5938 69.7734 8.5938 Q69.5078 8.5938 69.1875 8.3359 Q68.8672 8.0781 68.7266 8.0781 Q68.5859 8.0781 68.4297 8.2344 Q68.1016 8.5312 67.7578 9.2188 L67.7578 12.4375 Q67.7578 12.9844 67.8984 13.2812 Q67.9922 13.4688 68.2344 13.6016 Q68.4766 13.7344 68.9297 13.7344 L68.9297 14 L65.4922 14 L65.4922 13.7344 Q66.0078 13.7344 66.2578 13.5781 Q66.4297 13.4531 66.5078 13.2031 Q66.5391 13.0781 66.5391 12.4844 L66.5391 9.8906 Q66.5391 8.7188 66.4922 8.4922 Q66.4453 8.2656 66.3203 8.1641 Q66.1953 8.0625 66.0078 8.0625 Q65.7734 8.0625 65.4922 8.1719 L65.4141 7.9062 L67.4453 7.0938 L67.7578 7.0938 ZM70.2998 7.9531 L72.3623 7.125 L72.6436 7.125 L72.6436 8.6875 Q73.1592 7.7969 73.6826 7.4453 Q74.2061 7.0938 74.7842 7.0938 Q75.7998 7.0938 76.4717 7.8906 Q77.2998 8.8438 77.2998 10.4062 Q77.2998 12.1406 76.2998 13.2812 Q75.4873 14.2031 74.2373 14.2031 Q73.7061 14.2031 73.2998 14.0469 Q73.0186 13.9375 72.6436 13.6094 L72.6436 15.6562 Q72.6436 16.3438 72.7295 16.5312 Q72.8154 16.7188 73.0264 16.8281 Q73.2373 16.9375 73.7842 16.9375 L73.7842 17.2031 L70.2686 17.2031 L70.2686 16.9375 L70.4404 16.9375 Q70.8467 16.9375 71.1436 16.7812 Q71.2686 16.7031 71.3467 16.5234 Q71.4248 16.3438 71.4248 15.6094 L71.4248 9.2656 Q71.4248 8.6094 71.3701 8.4375 Q71.3154 8.2656 71.1826 8.1797 Q71.0498 8.0938 70.8311 8.0938 Q70.6592 8.0938 70.3936 8.1875 L70.2998 7.9531 ZM72.6436 9.125 L72.6436 11.625 Q72.6436 12.4375 72.7061 12.7031 Q72.8154 13.125 73.2139 13.4453 Q73.6123 13.7656 74.2217 13.7656 Q74.9561 13.7656 75.4092 13.1875 Q76.0029 12.4531 76.0029 11.0938 Q76.0029 9.5469 75.3311 8.7188 Q74.8623 8.1562 74.2061 8.1562 Q73.8623 8.1562 73.5186 8.3281 Q73.2529 8.4688 72.6436 9.125 ZM81.5654 7.0938 Q83.0967 7.0938 84.0186 8.25 Q84.7998 9.2344 84.7998 10.5156 Q84.7998 11.4219 84.3623 12.3438 Q83.9248 13.2656 83.167 13.7344 Q82.4092 14.2031 81.4873 14.2031 Q79.9717 14.2031 79.0811 13 Q78.3154 11.9844 78.3154 10.7188 Q78.3154 9.7812 78.7764 8.875 Q79.2373 7.9688 79.9873 7.5312 Q80.7373 7.0938 81.5654 7.0938 ZM81.3311 7.5625 Q80.9561 7.5625 80.5576 7.7969 Q80.1592 8.0312 79.9248 8.6094 Q79.6904 9.1875 79.6904 10.0938 Q79.6904 11.5625 80.2686 12.625 Q80.8467 13.6875 81.7998 13.6875 Q82.5029 13.6875 82.9717 13.1016 Q83.4404 12.5156 83.4404 11.0781 Q83.4404 9.2969 82.6592 8.2656 Q82.1436 7.5625 81.3311 7.5625 ZM88.0967 3.5781 L88.0967 12.4844 Q88.0967 13.1094 88.1826 13.3203 Q88.2686 13.5312 88.4639 13.6328 Q88.6592 13.7344 89.1748 13.7344 L89.1748 14 L85.8936 14 L85.8936 13.7344 Q86.3467 13.7344 86.5186 13.6406 Q86.6904 13.5469 86.7842 13.3281 Q86.8779 13.1094 86.8779 12.4844 L86.8779 6.3906 Q86.8779 5.25 86.8232 4.9922 Q86.7686 4.7344 86.6592 4.6406 Q86.5498 4.5469 86.3779 4.5469 Q86.1748 4.5469 85.8936 4.6562 L85.7686 4.4062 L87.7686 3.5781 L88.0967 3.5781 ZM93.7485 13.0312 Q92.7173 13.8281 92.4517 13.9531 Q92.061 14.1406 91.6079 14.1406 Q90.9204 14.1406 90.4673 13.6641 Q90.0142 13.1875 90.0142 12.4062 Q90.0142 11.9219 90.2329 11.5625 Q90.5454 11.0625 91.2876 10.625 Q92.0298 10.1875 93.7485 9.5469 L93.7485 9.2969 Q93.7485 8.2812 93.436 7.9141 Q93.1235 7.5469 92.5142 7.5469 Q92.0454 7.5469 91.7798 7.7812 Q91.4985 8.0312 91.4985 8.3594 L91.5142 8.7812 Q91.5142 9.125 91.3423 9.3047 Q91.1704 9.4844 90.8892 9.4844 Q90.6235 9.4844 90.4517 9.2969 Q90.2798 9.1094 90.2798 8.7812 Q90.2798 8.1406 90.9204 7.6172 Q91.561 7.0938 92.7329 7.0938 Q93.6235 7.0938 94.186 7.3906 Q94.6235 7.625 94.8267 8.1094 Q94.9673 8.4219 94.9673 9.3906 L94.9673 11.6719 Q94.9673 12.625 94.9985 12.8438 Q95.0298 13.0625 95.1157 13.1328 Q95.2017 13.2031 95.311 13.2031 Q95.436 13.2031 95.5142 13.1562 Q95.6704 13.0625 96.1079 12.625 L96.1079 13.0312 Q95.2954 14.125 94.5454 14.125 Q94.186 14.125 93.9751 13.8828 Q93.7642 13.6406 93.7485 13.0312 ZM93.7485 12.5625 L93.7485 10 Q92.6548 10.4375 92.3267 10.625 Q91.7485 10.9531 91.4985 11.3047 Q91.2485 11.6562 91.2485 12.0625 Q91.2485 12.5938 91.561 12.9453 Q91.8735 13.2969 92.2954 13.2969 Q92.8423 13.2969 93.7485 12.5625 ZM98.5625 5.0938 L98.5625 7.2969 L100.125 7.2969 L100.125 7.7969 L98.5625 7.7969 L98.5625 12.1562 Q98.5625 12.8125 98.75 13.0391 Q98.9375 13.2656 99.2188 13.2656 Q99.4688 13.2656 99.6953 13.1094 Q99.9219 12.9531 100.0469 12.6719 L100.3281 12.6719 Q100.0781 13.3906 99.6094 13.75 Q99.1406 14.1094 98.6406 14.1094 Q98.2969 14.1094 97.9766 13.9219 Q97.6562 13.7344 97.5 13.3906 Q97.3438 13.0469 97.3438 12.3125 L97.3438 7.7969 L96.2812 7.7969 L96.2812 7.5625 Q96.6875 7.4062 97.1094 7.0156 Q97.5312 6.625 97.8594 6.1094 Q98.0312 5.8281 98.3281 5.0938 L98.5625 5.0938 ZM102.48 3.5781 Q102.7925 3.5781 103.0112 3.7969 Q103.23 4.0156 103.23 4.3281 Q103.23 4.625 103.0112 4.8516 Q102.7925 5.0781 102.48 5.0781 Q102.1831 5.0781 101.9565 4.8516 Q101.73 4.625 101.73 4.3281 Q101.73 4.0156 101.9487 3.7969 Q102.1675 3.5781 102.48 3.5781 ZM103.0894 7.0938 L103.0894 12.4844 Q103.0894 13.1094 103.1831 13.3203 Q103.2769 13.5312 103.4565 13.6328 Q103.6362 13.7344 104.105 13.7344 L104.105 14 L100.855 14 L100.855 13.7344 Q101.3394 13.7344 101.5112 13.6406 Q101.6831 13.5469 101.7769 13.3281 Q101.8706 13.1094 101.8706 12.4844 L101.8706 9.8906 Q101.8706 8.8125 101.8081 8.4844 Q101.7612 8.25 101.6519 8.1562 Q101.5425 8.0625 101.355 8.0625 Q101.1362 8.0625 100.855 8.1719 L100.7456 7.9062 L102.7769 7.0938 L103.0894 7.0938 ZM108.2256 7.0938 Q109.7568 7.0938 110.6787 8.25 Q111.46 9.2344 111.46 10.5156 Q111.46 11.4219 111.0225 12.3438 Q110.585 13.2656 109.8271 13.7344 Q109.0693 14.2031 108.1475 14.2031 Q106.6318 14.2031 105.7412 13 Q104.9756 11.9844 104.9756 10.7188 Q104.9756 9.7812 105.4365 8.875 Q105.8975 7.9688 106.6475 7.5312 Q107.3975 7.0938 108.2256 7.0938 ZM107.9912 7.5625 Q107.6162 7.5625 107.2178 7.7969 Q106.8193 8.0312 106.585 8.6094 Q106.3506 9.1875 106.3506 10.0938 Q106.3506 11.5625 106.9287 12.625 Q107.5068 13.6875 108.46 13.6875 Q109.1631 13.6875 109.6318 13.1016 Q110.1006 12.5156 110.1006 11.0781 Q110.1006 9.2969 109.3193 8.2656 Q108.8037 7.5625 107.9912 7.5625 ZM114.3975 8.5156 Q115.585 7.0938 116.6475 7.0938 Q117.1943 7.0938 117.5928 7.3672 Q117.9912 7.6406 118.2256 8.2656 Q118.3818 8.7188 118.3818 9.625 L118.3818 12.4844 Q118.3818 13.125 118.4912 13.3438 Q118.5693 13.5312 118.749 13.6328 Q118.9287 13.7344 119.4131 13.7344 L119.4131 14 L116.085 14 L116.085 13.7344 L116.2256 13.7344 Q116.6943 13.7344 116.8818 13.5938 Q117.0693 13.4531 117.1475 13.1719 Q117.1787 13.0625 117.1787 12.4844 L117.1787 9.7344 Q117.1787 8.8281 116.9365 8.4141 Q116.6943 8 116.1318 8 Q115.2568 8 114.3975 8.9531 L114.3975 12.4844 Q114.3975 13.1719 114.4756 13.3281 Q114.585 13.5312 114.7646 13.6328 Q114.9443 13.7344 115.4912 13.7344 L115.4912 14 L112.1787 14 L112.1787 13.7344 L112.3193 13.7344 Q112.835 13.7344 113.0146 13.4766 Q113.1943 13.2188 113.1943 12.4844 L113.1943 10 Q113.1943 8.7812 113.1396 8.5156 Q113.085 8.25 112.9678 8.1562 Q112.8506 8.0625 112.6631 8.0625 Q112.46 8.0625 112.1787 8.1719 L112.0693 7.9062 L114.085 7.0938 L114.3975 7.0938 L114.3975 8.5156 Z"
                  style="stroke:none; clip-path:url(#clipPath9);"/>
        </g>
        <g style="text-rendering:optimizeLegibility; font-size:13px; font-family:'Times New Roman'; color-interpolation:linearRGB; color-rendering:optimizeQuality; image-rendering:optimizeQuality;">
            <rect x="108" y="356" width="201"
                  style="fill:none; clip-path:url(#clipPath1);" height="20"/>
        </g>
        <g style="stroke-linecap:butt; font-size:13px; fill:rgb(165,165,165); text-rendering:optimizeLegibility; image-rendering:optimizeQuality; color-rendering:optimizeQuality; font-family:'Times New Roman'; stroke-linejoin:round; stroke-dasharray:2,5; stroke:rgb(165,165,165); color-interpolation:linearRGB;"
           transform="translate(5,5)">
            <path d="M94 304 L408.9975 304"
                  style="fill:none; clip-path:url(#clipPath10);"/>
            <path d="M94 262.0028 L408.9975 262.0028"
                  style="fill:none; clip-path:url(#clipPath10);"/>
            <path d="M94 220.0057 L408.9975 220.0057"
                  style="fill:none; clip-path:url(#clipPath10);"/>
            <path d="M94 178.0085 L408.9975 178.0085"
                  style="fill:none; clip-path:url(#clipPath10);"/>
            <path d="M94 136.0114 L408.9975 136.0114"
                  style="fill:none; clip-path:url(#clipPath10);"/>
            <path d="M94 94.0142 L408.9975 94.0142"
                  style="fill:none; clip-path:url(#clipPath10);"/>
            <path d="M94 52.0171 L408.9975 52.0171"
                  style="fill:none; clip-path:url(#clipPath10);"/>
            <path d="M94 10.0199 L408.9975 10.0199"
                  style="fill:none; clip-path:url(#clipPath10);"/>
            <path d="M94 283.0014 L408.9975 283.0014"
                  style="fill:none; clip-path:url(#clipPath10); stroke:rgb(233,233,233);"/>
            <path d="M94 241.0043 L408.9975 241.0043"
                  style="fill:none; clip-path:url(#clipPath10); stroke:rgb(233,233,233);"/>
            <path d="M94 199.0071 L408.9975 199.0071"
                  style="fill:none; clip-path:url(#clipPath10); stroke:rgb(233,233,233);"/>
            <path d="M94 157.01 L408.9975 157.01"
                  style="fill:none; clip-path:url(#clipPath10); stroke:rgb(233,233,233);"/>
            <path d="M94 115.0128 L408.9975 115.0128"
                  style="fill:none; clip-path:url(#clipPath10); stroke:rgb(233,233,233);"/>
            <path d="M94 73.0157 L408.9975 73.0157"
                  style="fill:none; clip-path:url(#clipPath10); stroke:rgb(233,233,233);"/>
            <path d="M94 31.0185 L408.9975 31.0185"
                  style="fill:none; clip-path:url(#clipPath10); stroke:rgb(233,233,233);"/>
        </g>
        <g transform="translate(331.7481,75.5157)"
           style="font-size:13px; text-rendering:optimizeLegibility; color-rendering:optimizeQuality; image-rendering:optimizeQuality; font-family:'Times New Roman'; color-interpolation:linearRGB;">
            <path d="M0 2 L2 0 L4 2 L2 4 Z"
                  style="fill:none; clip-path:url(#clipPath11);"/>
            <path d="M0 2 L2 0 L4 2 L2 4 Z"
                  style="fill:none; clip-path:url(#clipPath12);"
                  transform="translate(51.8329,67.1954)"/>
            <path d="M0 2 L2 0 L4 2 L2 4 Z"
                  style="fill:none; clip-path:url(#clipPath13);"
                  transform="translate(25.9165,37.7974)"/>
            <path d="M0 2 L2 0 L4 2 L2 4 Z"
                  style="fill:none; clip-path:url(#clipPath14);"
                  transform="translate(-51.8329,-35.6976)"/>
            <path d="M0 2 L2 0 L4 2 L2 4 Z"
                  style="fill:none; clip-path:url(#clipPath15);"
                  transform="translate(-25.9164,-20.9986)"/>
            <path d="M0 2 L2 0 L4 2 L2 4 Z"
                  style="fill:none; clip-path:url(#clipPath16);"
                  transform="translate(-77.7494,-37.7974)"/>
            <path d="M0 2 L2 0 L4 2 L2 4 Z"
                  style="fill:none; clip-path:url(#clipPath17);"
                  transform="translate(-103.6658,-37.7974)"/>
            <path d="M0 2 L2 0 L4 2 L2 4 Z"
                  style="fill:none; clip-path:url(#clipPath18);"
                  transform="translate(-129.5823,-37.7974)"/>
            <path d="M0 2 L2 0 L4 2 L2 4 Z"
                  style="fill:none; clip-path:url(#clipPath19);"
                  transform="translate(-155.4987,-39.8973)"/>
            <path d="M0 2 L2 0 L4 2 L2 4 Z"
                  style="fill:none; clip-path:url(#clipPath20);"
                  transform="translate(-181.4152,-41.9971)"/>
            <path d="M0 2 L2 0 L4 2 L2 4 Z"
                  style="fill:none; clip-path:url(#clipPath21);"
                  transform="translate(-207.3317,-41.9971)"/>
        </g>
        <g style="stroke-linecap:butt; font-size:13px; fill:rgb(0,116,204); text-rendering:optimizeLegibility; image-rendering:optimizeQuality; color-rendering:optimizeQuality; font-family:'Times New Roman'; stroke-linejoin:round; stroke:rgb(0,116,204); color-interpolation:linearRGB; stroke-width:1.5;"
           transform="translate(5,5)">
            <path d="M121.9165 40.6514 L123.279 40.0512 L124.4646 39.5383 L125.7979 38.972 L127.1401 38.413 L128.4758 37.8677 L129.7143 37.372 L130.9966 36.8688 L132.3228 36.3591 L133.6447 35.8618 L135.0044 35.3616 L136.2021 34.9306 L137.5504 34.4559 L138.9043 33.9906 L140.2089 33.553 L141.3937 33.1647 L142.8025 32.7143 L143.9959 32.3424 L145.3842 31.9209 L146.613 31.5577 L147.9613 31.17 L149.2451 30.8113 L150.5847 30.448 L151.8148 30.1241 L153.1416 29.7852 L154.5199 29.4447 L155.7196 29.158 L157.0154 28.8582 L158.354 28.5595 L159.6637 28.278 L160.9308 28.0158 L162.3377 27.7363 L163.6019 27.4956 L164.9516 27.2495 L166.1747 27.0363 L167.5119 26.8137 L168.7701 26.6145 L170.0853 26.4167 L171.371 26.2336 L172.7172 26.053 L174.0136 25.8896 L175.3395 25.7333 L176.6543 25.5891 L177.8625 25.4659 L179.2473 25.336 L180.4858 25.2298 L181.8064 25.127 L183.0703 25.0388 L184.4737 24.9524 L185.6889 24.8875 L187.0683 24.8248 L188.3254 24.778 L189.7005 24.738 L190.8869 24.713 L192.2382 24.695 L193.5434 24.6884 L194.8478 24.6923 L196.1474 24.7067 L197.3959 24.7304 L198.7455 24.7669 L200.0318 24.8122 L201.3856 24.8708 L202.6111 24.9338 L203.9655 25.0142 L205.2628 25.1018 L206.557 25.1996 L207.9087 25.3129 L209.1537 25.4272 L210.4287 25.5542 L211.8365 25.7061 L213.1112 25.8543 L214.4147 26.0163 L215.7404 26.1917 L216.959 26.3627 L218.2579 26.555 L219.547 26.7561 L220.9259 26.9827 L222.1427 27.1925 L223.5467 27.4459 L224.8136 27.685 L226.0672 27.9314 L227.4152 28.2072 L228.7687 28.4955 L230.0001 28.7677 L231.3079 29.067 L232.5841 29.3692 L233.9676 29.7083 L235.1647 30.0113 L236.5395 30.3702 L237.832 30.7183 L239.112 31.0732 L240.393 31.4386 L241.6995 31.8217 L243.0844 32.2393 L244.3542 32.6327 L245.6077 33.0308 L246.9476 33.4672 L248.2847 33.9136 L249.4847 34.3238 L250.9063 34.8212 L252.0958 35.247 L253.487 35.7562 L254.8148 36.2534 L256.0004 36.7065 L257.3337 37.2265 L258.6759 37.761 L260.0117 38.3041 L261.2501 38.8175 L262.5324 39.3591 L263.8586 39.9299 L265.1805 40.5098 L266.5403 41.1175 L267.7379 41.6623 L269.0862 42.2862 L270.4401 42.924 L271.7447 43.5494 L272.9295 44.1265 L274.3383 44.8239 L275.5317 45.4244 L276.92 46.134 L278.1488 46.7721 L279.4971 47.4829 L280.7809 48.1703 L282.1205 48.8984 L283.3506 49.5768 L284.6774 50.319 L286.0557 51.1015 L287.2554 51.7923 L288.5512 52.5483 L289.8898 53.3403 L291.1995 54.1259 L292.4666 54.8961 L293.8735 55.7629 L295.1377 56.5522 L296.4874 57.4059 L297.7105 58.1893 L299.0477 59.0562 L300.3059 59.8821 L301.621 60.7559 L302.9069 61.6205 L304.253 62.5367 L305.5494 63.4297 L306.8753 64.3536 L308.1901 65.2807 L309.3983 66.142 L310.7831 67.1403 L312.0216 68.0433 L313.3422 69.0164 L314.6061 69.958 L316.0095 71.0152 L317.2248 71.9404 L318.6041 73.0016 L319.8612 73.9791 L321.2363 75.0595 L322.4227 76.0011 L323.774 77.0841 L325.0792 78.141 L326.3836 79.2078 L327.6832 80.2811 L328.9317 81.322 L330.2813 82.4581 L331.5676 83.5515 L332.9214 84.7132 L334.1469 85.7747 L335.5013 86.9586 L336.7986 88.1033 L338.0928 89.2555 L339.4445 90.4702 L340.6895 91.5989 L341.9645 92.7648 L343.3723 94.0638 L344.647 95.2505 L345.9505 96.4746 L347.2762 97.7302 L348.4948 98.894 L349.7937 100.1447 L351.0828 101.3962 L352.4617 102.7463 L353.6785 103.9474 L355.0825 105.3447 L356.3494 106.6162 L357.603 107.884 L358.951 109.2582 L360.3045 110.6492 L361.5359 111.9248 L362.8437 113.2896 L364.1199 114.6317 L365.5034 116.0981 L366.7005 117.3764 L368.0753 118.8555 L369.3678 120.2567 L370.6478 121.6545 L371.9288 123.0636 L373.2353 124.5113 L374.6202 126.0573 L375.89 127.4854 L377.1435 128.9048 L378.4834 130.4329 L379.8205 131.9688 L381.0811 133.4269"
                  style="fill:none; clip-path:url(#clipPath22);"/>
        </g>
        <g transform="translate(5,5)"
           style="stroke-linecap:butt; font-size:13px; text-rendering:optimizeLegibility; image-rendering:optimizeQuality; color-rendering:optimizeQuality; font-family:'Times New Roman'; stroke-linejoin:round; color-interpolation:linearRGB;">
            <path d="M94 306 L408.9975 306"
                  style="fill:none; clip-path:url(#clipPath10);"/>
            <path d="M94 8.0199 L408.9975 8.0199"
                  style="fill:none; clip-path:url(#clipPath10);"/>
        </g>
        <g transform="translate(5,5)"
           style="stroke-linecap:butt; font-size:13px; text-rendering:optimizeLegibility; image-rendering:optimizeQuality; color-rendering:optimizeQuality; font-family:'Times New Roman'; stroke-linejoin:round; color-interpolation:linearRGB;">
            <path d="M212.2188 335.8438 L215.5781 335.8438 L215.5781 336.125 Q215.2656 336.125 215.1328 336.2344 Q215 336.3438 215 336.5312 Q215 336.7188 215.2812 337.1094 Q215.3594 337.2344 215.5312 337.5 L216.0469 338.3125 L216.625 337.5 Q217.1875 336.7188 217.1875 336.5156 Q217.1875 336.3594 217.0547 336.2422 Q216.9219 336.125 216.625 336.125 L216.625 335.8438 L219.0469 335.8438 L219.0469 336.125 Q218.6719 336.1562 218.3906 336.3438 Q218 336.6094 217.3438 337.5 L216.3594 338.7969 L218.1406 341.3594 Q218.7969 342.3125 219.0781 342.5 Q219.3594 342.6875 219.8125 342.7188 L219.8125 343 L216.4375 343 L216.4375 342.7188 Q216.7812 342.7188 216.9844 342.5625 Q217.125 342.4531 217.125 342.2656 Q217.125 342.0938 216.625 341.3594 L215.5781 339.8281 L214.4375 341.3594 Q213.9062 342.0781 213.9062 342.2031 Q213.9062 342.3906 214.0781 342.5469 Q214.25 342.7031 214.6094 342.7188 L214.6094 343 L212.2656 343 L212.2656 342.7188 Q212.5469 342.6719 212.7656 342.5156 Q213.0625 342.2969 213.7656 341.3594 L215.2656 339.375 L213.9062 337.4062 Q213.3281 336.5625 213.0078 336.3438 Q212.6875 336.125 212.2188 336.125 L212.2188 335.8438 Z"
                  style="stroke:none; clip-path:url(#clipPath23);"/>
            <path d="M222.875 333.4375 L225.4531 332.1875 L225.7188 332.1875 L225.7188 341.125 Q225.7188 342.0156 225.7891 342.2344 Q225.8594 342.4531 226.0938 342.5703 Q226.3281 342.6875 227.0469 342.7031 L227.0469 343 L223.0625 343 L223.0625 342.7031 Q223.8125 342.6875 224.0312 342.5781 Q224.25 342.4688 224.3359 342.2734 Q224.4219 342.0781 224.4219 341.125 L224.4219 335.4062 Q224.4219 334.25 224.3438 333.9219 Q224.2969 333.6719 224.1484 333.5547 Q224 333.4375 223.7969 333.4375 Q223.5156 333.4375 223 333.6875 L222.875 333.4375 ZM229.5781 337.7656 Q229.5781 335.9531 230.125 334.6406 Q230.6719 333.3281 231.5781 332.6875 Q232.2812 332.1875 233.0312 332.1875 Q234.25 332.1875 235.2188 333.4219 Q236.4375 334.9688 236.4375 337.5938 Q236.4375 339.4375 235.9062 340.7266 Q235.375 342.0156 234.5469 342.6016 Q233.7188 343.1875 232.9531 343.1875 Q231.4375 343.1875 230.4375 341.3906 Q229.5781 339.8906 229.5781 337.7656 ZM231.1094 337.9531 Q231.1094 340.1406 231.6562 341.5312 Q232.0938 342.6875 232.9844 342.6875 Q233.4062 342.6875 233.8594 342.3125 Q234.3125 341.9375 234.5469 341.0469 Q234.9062 339.7031 234.9062 337.25 Q234.9062 335.4375 234.5312 334.2344 Q234.25 333.3281 233.7969 332.9531 Q233.4844 332.7031 233.0312 332.7031 Q232.5 332.7031 232.0781 333.1719 Q231.5156 333.8281 231.3125 335.2188 Q231.1094 336.6094 231.1094 337.9531 ZM237.5781 337.7656 Q237.5781 335.9531 238.125 334.6406 Q238.6719 333.3281 239.5781 332.6875 Q240.2812 332.1875 241.0312 332.1875 Q242.25 332.1875 243.2188 333.4219 Q244.4375 334.9688 244.4375 337.5938 Q244.4375 339.4375 243.9062 340.7266 Q243.375 342.0156 242.5469 342.6016 Q241.7188 343.1875 240.9531 343.1875 Q239.4375 343.1875 238.4375 341.3906 Q237.5781 339.8906 237.5781 337.7656 ZM239.1094 337.9531 Q239.1094 340.1406 239.6562 341.5312 Q240.0938 342.6875 240.9844 342.6875 Q241.4062 342.6875 241.8594 342.3125 Q242.3125 341.9375 242.5469 341.0469 Q242.9062 339.7031 242.9062 337.25 Q242.9062 335.4375 242.5312 334.2344 Q242.25 333.3281 241.7969 332.9531 Q241.4844 332.7031 241.0312 332.7031 Q240.5 332.7031 240.0781 333.1719 Q239.5156 333.8281 239.3125 335.2188 Q239.1094 336.6094 239.1094 337.9531 ZM245.5781 337.7656 Q245.5781 335.9531 246.125 334.6406 Q246.6719 333.3281 247.5781 332.6875 Q248.2812 332.1875 249.0312 332.1875 Q250.25 332.1875 251.2188 333.4219 Q252.4375 334.9688 252.4375 337.5938 Q252.4375 339.4375 251.9062 340.7266 Q251.375 342.0156 250.5469 342.6016 Q249.7188 343.1875 248.9531 343.1875 Q247.4375 343.1875 246.4375 341.3906 Q245.5781 339.8906 245.5781 337.7656 ZM247.1094 337.9531 Q247.1094 340.1406 247.6562 341.5312 Q248.0938 342.6875 248.9844 342.6875 Q249.4062 342.6875 249.8594 342.3125 Q250.3125 341.9375 250.5469 341.0469 Q250.9062 339.7031 250.9062 337.25 Q250.9062 335.4375 250.5312 334.2344 Q250.25 333.3281 249.7969 332.9531 Q249.4844 332.7031 249.0312 332.7031 Q248.5 332.7031 248.0781 333.1719 Q247.5156 333.8281 247.3125 335.2188 Q247.1094 336.6094 247.1094 337.9531 Z"
                  style="clip-path:url(#clipPath23); stroke:none;"/>
            <path d="M268.8125 343 L265.9844 343 L262.4062 338.0469 Q262 338.0625 261.75 338.0625 Q261.6562 338.0625 261.5391 338.0547 Q261.4219 338.0469 261.2969 338.0469 L261.2969 341.125 Q261.2969 342.125 261.5156 342.3594 Q261.8125 342.7031 262.4062 342.7031 L262.8125 342.7031 L262.8125 343 L258.2812 343 L258.2812 342.7031 L258.6719 342.7031 Q259.3438 342.7031 259.6406 342.2656 Q259.7969 342.0312 259.7969 341.125 L259.7969 334.2812 Q259.7969 333.2812 259.5781 333.0312 Q259.2812 332.6875 258.6719 332.6875 L258.2812 332.6875 L258.2812 332.4062 L262.1406 332.4062 Q263.8281 332.4062 264.625 332.6484 Q265.4219 332.8906 265.9844 333.5547 Q266.5469 334.2188 266.5469 335.125 Q266.5469 336.1094 265.9062 336.8281 Q265.2656 337.5469 263.9375 337.8438 L266.125 340.875 Q266.875 341.9219 267.4141 342.2656 Q267.9531 342.6094 268.8125 342.7031 L268.8125 343 ZM261.2969 337.5469 Q261.4375 337.5469 261.5469 337.5547 Q261.6562 337.5625 261.7344 337.5625 Q263.25 337.5625 264.0156 336.9062 Q264.7812 336.25 264.7812 335.2344 Q264.7812 334.2344 264.1641 333.6172 Q263.5469 333 262.5156 333 Q262.0625 333 261.2969 333.1406 L261.2969 337.5469 ZM271.9531 338.0312 L271.9531 341.125 Q271.9531 342.125 272.1719 342.3594 Q272.4688 342.7031 273.0781 342.7031 L273.4844 342.7031 L273.4844 343 L268.9375 343 L268.9375 342.7031 L269.3438 342.7031 Q270.0156 342.7031 270.2969 342.2656 Q270.4531 342.0312 270.4531 341.125 L270.4531 334.2812 Q270.4531 333.2812 270.25 333.0312 Q269.9375 332.6875 269.3438 332.6875 L268.9375 332.6875 L268.9375 332.4062 L272.8281 332.4062 Q274.25 332.4062 275.0703 332.6953 Q275.8906 332.9844 276.4531 333.6797 Q277.0156 334.375 277.0156 335.3281 Q277.0156 336.625 276.1562 337.4375 Q275.2969 338.25 273.7344 338.25 Q273.3594 338.25 272.9141 338.1953 Q272.4688 338.1406 271.9531 338.0312 ZM271.9531 337.5938 Q272.375 337.6719 272.6953 337.7109 Q273.0156 337.75 273.2344 337.75 Q274.0469 337.75 274.6406 337.1172 Q275.2344 336.4844 275.2344 335.4844 Q275.2344 334.7969 274.9531 334.2109 Q274.6719 333.625 274.1562 333.3281 Q273.6406 333.0312 272.9844 333.0312 Q272.5781 333.0312 271.9531 333.1875 L271.9531 337.5938 ZM284.1172 343 L280.0234 334.0781 L280.0234 341.1562 Q280.0234 342.1406 280.2422 342.375 Q280.5234 342.7031 281.1484 342.7031 L281.5234 342.7031 L281.5234 343 L277.8359 343 L277.8359 342.7031 L278.2109 342.7031 Q278.8828 342.7031 279.1641 342.2969 Q279.3359 342.0469 279.3359 341.1562 L279.3359 334.2344 Q279.3359 333.5312 279.1797 333.2188 Q279.0703 333 278.7812 332.8438 Q278.4922 332.6875 277.8359 332.6875 L277.8359 332.4062 L280.8359 332.4062 L284.6797 340.6875 L288.4609 332.4062 L291.4609 332.4062 L291.4609 332.6875 L291.1016 332.6875 Q290.4141 332.6875 290.1328 333.0938 Q289.9609 333.3438 289.9609 334.2344 L289.9609 341.1562 Q289.9609 342.1406 290.1797 342.375 Q290.4766 342.7031 291.1016 342.7031 L291.4609 342.7031 L291.4609 343 L286.9609 343 L286.9609 342.7031 L287.3359 342.7031 Q288.0234 342.7031 288.2891 342.2969 Q288.4609 342.0469 288.4609 341.1562 L288.4609 334.0781 L284.3828 343 L284.1172 343 Z"
                  style="clip-path:url(#clipPath23); stroke:none;"/>
        </g>
        <g transform="translate(5,5)"
           style="font-size:13px; text-rendering:optimizeLegibility; color-rendering:optimizeQuality; image-rendering:optimizeQuality; font-family:'Times New Roman'; color-interpolation:linearRGB;">
            <path d="M121.9165 306 L121.9165 310.025"
                  style="fill:none; clip-path:url(#clipPath10);"/>
            <path d="M128.9531 319.4062 L128.3438 320.7344 L125.1562 320.7344 L124.4531 322.1562 Q126.5312 322.4531 127.7344 323.6875 Q128.7812 324.75 128.7812 326.1875 Q128.7812 327.0312 128.4375 327.7422 Q128.0938 328.4531 127.5781 328.9531 Q127.0625 329.4531 126.4375 329.75 Q125.5312 330.1875 124.5938 330.1875 Q123.6406 330.1875 123.2031 329.8594 Q122.7656 329.5312 122.7656 329.1406 Q122.7656 328.9219 122.9453 328.7578 Q123.125 328.5938 123.4062 328.5938 Q123.6094 328.5938 123.7578 328.6562 Q123.9062 328.7188 124.2812 328.9688 Q124.8594 329.375 125.4688 329.375 Q126.375 329.375 127.0703 328.6875 Q127.7656 328 127.7656 327 Q127.7656 326.0469 127.1484 325.2109 Q126.5312 324.375 125.4375 323.9219 Q124.5938 323.5781 123.125 323.5156 L125.1562 319.4062 L128.9531 319.4062 Z"
                  style="clip-path:url(#clipPath24); stroke:none;"
                  transform="translate(-5,-5)"/>
        </g>
        <g transform="translate(5,5)"
           style="font-size:13px; text-rendering:optimizeLegibility; color-rendering:optimizeQuality; image-rendering:optimizeQuality; font-family:'Times New Roman'; color-interpolation:linearRGB;">
            <path d="M147.8329 306 L147.8329 310.025"
                  style="fill:none; clip-path:url(#clipPath10);"/>
            <path d="M155.1719 319.1875 L155.1719 319.4688 Q154.1406 319.5781 153.4922 319.8828 Q152.8438 320.1875 152.2031 320.8203 Q151.5625 321.4531 151.1484 322.2344 Q150.7344 323.0156 150.4531 324.0781 Q151.5781 323.3125 152.7031 323.3125 Q153.7969 323.3125 154.5938 324.1875 Q155.3906 325.0625 155.3906 326.4375 Q155.3906 327.7656 154.5781 328.8594 Q153.6094 330.1875 152.0156 330.1875 Q150.9375 330.1875 150.1719 329.4688 Q148.6875 328.0625 148.6875 325.8438 Q148.6875 324.4219 149.2578 323.1406 Q149.8281 321.8594 150.8906 320.8672 Q151.9531 319.875 152.9219 319.5312 Q153.8906 319.1875 154.7188 319.1875 L155.1719 319.1875 ZM150.3125 324.6562 Q150.1719 325.7031 150.1719 326.3594 Q150.1719 327.1094 150.4531 327.9844 Q150.7344 328.8594 151.2812 329.375 Q151.6719 329.75 152.25 329.75 Q152.9219 329.75 153.4609 329.1094 Q154 328.4688 154 327.2812 Q154 325.9375 153.4688 324.9609 Q152.9375 323.9844 151.9531 323.9844 Q151.6562 323.9844 151.3203 324.1094 Q150.9844 324.2344 150.3125 324.6562 Z"
                  style="clip-path:url(#clipPath24); stroke:none;"
                  transform="translate(-5,-5)"/>
        </g>
        <g transform="translate(5,5)"
           style="font-size:13px; text-rendering:optimizeLegibility; color-rendering:optimizeQuality; image-rendering:optimizeQuality; font-family:'Times New Roman'; color-interpolation:linearRGB;">
            <path d="M173.7494 306 L173.7494 310.025"
                  style="fill:none; clip-path:url(#clipPath10);"/>
            <path d="M175.6094 319.4062 L181.2969 319.4062 L181.2969 319.7031 L177.7656 330.2188 L176.8906 330.2188 L180.0469 320.6719 L177.1406 320.6719 Q176.25 320.6719 175.875 320.8906 Q175.2188 321.25 174.8281 322 L174.5938 321.9062 L175.6094 319.4062 Z"
                  style="clip-path:url(#clipPath24); stroke:none;"
                  transform="translate(-5,-5)"/>
        </g>
        <g transform="translate(5,5)"
           style="font-size:13px; text-rendering:optimizeLegibility; color-rendering:optimizeQuality; image-rendering:optimizeQuality; font-family:'Times New Roman'; color-interpolation:linearRGB;">
            <path d="M199.6658 306 L199.6658 310.025"
                  style="fill:none; clip-path:url(#clipPath10);"/>
            <path d="M203.0781 324.6562 Q201.8125 323.625 201.4531 323 Q201.0938 322.375 201.0938 321.7031 Q201.0938 320.6719 201.8906 319.9297 Q202.6875 319.1875 204 319.1875 Q205.2812 319.1875 206.0625 319.8828 Q206.8438 320.5781 206.8438 321.4688 Q206.8438 322.0625 206.4219 322.6797 Q206 323.2969 204.6719 324.125 Q206.0469 325.1875 206.4844 325.7969 Q207.0781 326.5938 207.0781 327.4844 Q207.0781 328.5938 206.2266 329.3906 Q205.375 330.1875 204 330.1875 Q202.4844 330.1875 201.6406 329.2344 Q200.9688 328.4844 200.9688 327.5781 Q200.9688 326.875 201.4453 326.1875 Q201.9219 325.5 203.0781 324.6562 ZM204.2969 323.8281 Q205.2344 322.9844 205.4844 322.4922 Q205.7344 322 205.7344 321.3906 Q205.7344 320.5625 205.2734 320.1016 Q204.8125 319.6406 204.0156 319.6406 Q203.2188 319.6406 202.7188 320.1016 Q202.2188 320.5625 202.2188 321.1719 Q202.2188 321.5781 202.4297 321.9844 Q202.6406 322.3906 203.0156 322.7656 L204.2969 323.8281 ZM203.4375 324.9531 Q202.7969 325.5 202.4844 326.1484 Q202.1719 326.7969 202.1719 327.5469 Q202.1719 328.5469 202.7188 329.1562 Q203.2656 329.7656 204.125 329.7656 Q204.9688 329.7656 205.4766 329.2891 Q205.9844 328.8125 205.9844 328.125 Q205.9844 327.5625 205.6875 327.125 Q205.125 326.2969 203.4375 324.9531 Z"
                  style="clip-path:url(#clipPath24); stroke:none;"
                  transform="translate(-5,-5)"/>
        </g>
        <g transform="translate(5,5)"
           style="font-size:13px; text-rendering:optimizeLegibility; color-rendering:optimizeQuality; image-rendering:optimizeQuality; font-family:'Times New Roman'; color-interpolation:linearRGB;">
            <path d="M225.5823 306 L225.5823 310.025"
                  style="fill:none; clip-path:url(#clipPath10);"/>
            <path d="M226.8438 330.2188 L226.8438 329.9219 Q227.8594 329.9062 228.7344 329.4531 Q229.6094 329 230.4297 327.8594 Q231.25 326.7188 231.5625 325.3438 Q230.3438 326.1406 229.3438 326.1406 Q228.2344 326.1406 227.4375 325.2734 Q226.6406 324.4062 226.6406 322.9844 Q226.6406 321.5938 227.4375 320.5 Q228.3906 319.1875 229.9375 319.1875 Q231.25 319.1875 232.1719 320.2656 Q233.3125 321.5938 233.3125 323.5625 Q233.3125 325.3281 232.4453 326.8516 Q231.5781 328.375 230.0312 329.3906 Q228.7812 330.2188 227.2969 330.2188 L226.8438 330.2188 ZM231.6875 324.7656 Q231.8281 323.75 231.8281 323.1406 Q231.8281 322.3906 231.5703 321.5078 Q231.3125 320.625 230.8438 320.1562 Q230.375 319.6875 229.7656 319.6875 Q229.0781 319.6875 228.5547 320.3125 Q228.0312 320.9375 228.0312 322.1719 Q228.0312 323.8281 228.7188 324.75 Q229.2344 325.4219 229.9688 325.4219 Q230.3281 325.4219 230.8203 325.25 Q231.3125 325.0781 231.6875 324.7656 Z"
                  style="clip-path:url(#clipPath24); stroke:none;"
                  transform="translate(-5,-5)"/>
        </g>
        <g transform="translate(5,5)"
           style="font-size:13px; text-rendering:optimizeLegibility; color-rendering:optimizeQuality; image-rendering:optimizeQuality; font-family:'Times New Roman'; color-interpolation:linearRGB;">
            <path d="M251.4988 306 L251.4988 310.025"
                  style="fill:none; clip-path:url(#clipPath10);"/>
            <path d="M249.875 320.4375 L252.4531 319.1875 L252.7188 319.1875 L252.7188 328.125 Q252.7188 329.0156 252.7891 329.2344 Q252.8594 329.4531 253.0938 329.5703 Q253.3281 329.6875 254.0469 329.7031 L254.0469 330 L250.0625 330 L250.0625 329.7031 Q250.8125 329.6875 251.0312 329.5781 Q251.25 329.4688 251.3359 329.2734 Q251.4219 329.0781 251.4219 328.125 L251.4219 322.4062 Q251.4219 321.25 251.3438 320.9219 Q251.2969 320.6719 251.1484 320.5547 Q251 320.4375 250.7969 320.4375 Q250.5156 320.4375 250 320.6875 L249.875 320.4375 ZM256.5781 324.7656 Q256.5781 322.9531 257.125 321.6406 Q257.6719 320.3281 258.5781 319.6875 Q259.2812 319.1875 260.0312 319.1875 Q261.25 319.1875 262.2188 320.4219 Q263.4375 321.9688 263.4375 324.5938 Q263.4375 326.4375 262.9062 327.7266 Q262.375 329.0156 261.5469 329.6016 Q260.7188 330.1875 259.9531 330.1875 Q258.4375 330.1875 257.4375 328.3906 Q256.5781 326.8906 256.5781 324.7656 ZM258.1094 324.9531 Q258.1094 327.1406 258.6562 328.5312 Q259.0938 329.6875 259.9844 329.6875 Q260.4062 329.6875 260.8594 329.3125 Q261.3125 328.9375 261.5469 328.0469 Q261.9062 326.7031 261.9062 324.25 Q261.9062 322.4375 261.5312 321.2344 Q261.25 320.3281 260.7969 319.9531 Q260.4844 319.7031 260.0312 319.7031 Q259.5 319.7031 259.0781 320.1719 Q258.5156 320.8281 258.3125 322.2188 Q258.1094 323.6094 258.1094 324.9531 Z"
                  style="clip-path:url(#clipPath24); stroke:none;"
                  transform="translate(-5,-5)"/>
        </g>
        <g transform="translate(5,5)"
           style="font-size:13px; text-rendering:optimizeLegibility; color-rendering:optimizeQuality; image-rendering:optimizeQuality; font-family:'Times New Roman'; color-interpolation:linearRGB;">
            <path d="M277.4152 306 L277.4152 310.025"
                  style="fill:none; clip-path:url(#clipPath10);"/>
            <path d="M275.875 320.4375 L278.4531 319.1875 L278.7188 319.1875 L278.7188 328.125 Q278.7188 329.0156 278.7891 329.2344 Q278.8594 329.4531 279.0938 329.5703 Q279.3281 329.6875 280.0469 329.7031 L280.0469 330 L276.0625 330 L276.0625 329.7031 Q276.8125 329.6875 277.0312 329.5781 Q277.25 329.4688 277.3359 329.2734 Q277.4219 329.0781 277.4219 328.125 L277.4219 322.4062 Q277.4219 321.25 277.3438 320.9219 Q277.2969 320.6719 277.1484 320.5547 Q277 320.4375 276.7969 320.4375 Q276.5156 320.4375 276 320.6875 L275.875 320.4375 ZM283.875 320.4375 L286.4531 319.1875 L286.7188 319.1875 L286.7188 328.125 Q286.7188 329.0156 286.7891 329.2344 Q286.8594 329.4531 287.0938 329.5703 Q287.3281 329.6875 288.0469 329.7031 L288.0469 330 L284.0625 330 L284.0625 329.7031 Q284.8125 329.6875 285.0312 329.5781 Q285.25 329.4688 285.3359 329.2734 Q285.4219 329.0781 285.4219 328.125 L285.4219 322.4062 Q285.4219 321.25 285.3438 320.9219 Q285.2969 320.6719 285.1484 320.5547 Q285 320.4375 284.7969 320.4375 Q284.5156 320.4375 284 320.6875 L283.875 320.4375 Z"
                  style="clip-path:url(#clipPath24); stroke:none;"
                  transform="translate(-5,-5)"/>
        </g>
        <g transform="translate(5,5)"
           style="font-size:13px; text-rendering:optimizeLegibility; color-rendering:optimizeQuality; image-rendering:optimizeQuality; font-family:'Times New Roman'; color-interpolation:linearRGB;">
            <path d="M303.3317 306 L303.3317 310.025"
                  style="fill:none; clip-path:url(#clipPath10);"/>
            <path d="M301.875 320.4375 L304.4531 319.1875 L304.7188 319.1875 L304.7188 328.125 Q304.7188 329.0156 304.7891 329.2344 Q304.8594 329.4531 305.0938 329.5703 Q305.3281 329.6875 306.0469 329.7031 L306.0469 330 L302.0625 330 L302.0625 329.7031 Q302.8125 329.6875 303.0312 329.5781 Q303.25 329.4688 303.3359 329.2734 Q303.4219 329.0781 303.4219 328.125 L303.4219 322.4062 Q303.4219 321.25 303.3438 320.9219 Q303.2969 320.6719 303.1484 320.5547 Q303 320.4375 302.7969 320.4375 Q302.5156 320.4375 302 320.6875 L301.875 320.4375 ZM315.3438 327.9531 L314.5938 330 L308.3438 330 L308.3438 329.7031 Q311.1094 327.1875 312.2344 325.5938 Q313.3594 324 313.3594 322.6875 Q313.3594 321.6719 312.7422 321.0234 Q312.125 320.375 311.2656 320.375 Q310.4844 320.375 309.8594 320.8359 Q309.2344 321.2969 308.9375 322.1719 L308.6562 322.1719 Q308.8438 320.7344 309.6562 319.9609 Q310.4688 319.1875 311.6719 319.1875 Q312.9688 319.1875 313.8281 320.0156 Q314.6875 320.8438 314.6875 321.9688 Q314.6875 322.7656 314.3125 323.5781 Q313.7344 324.8438 312.4375 326.25 Q310.5 328.375 310.0156 328.8125 L312.7812 328.8125 Q313.625 328.8125 313.9609 328.75 Q314.2969 328.6875 314.5703 328.5 Q314.8438 328.3125 315.0469 327.9531 L315.3438 327.9531 Z"
                  style="clip-path:url(#clipPath24); stroke:none;"
                  transform="translate(-5,-5)"/>
        </g>
        <g transform="translate(5,5)"
           style="font-size:13px; text-rendering:optimizeLegibility; color-rendering:optimizeQuality; image-rendering:optimizeQuality; font-family:'Times New Roman'; color-interpolation:linearRGB;">
            <path d="M329.2481 306 L329.2481 310.025"
                  style="fill:none; clip-path:url(#clipPath10);"/>
            <path d="M327.875 320.4375 L330.4531 319.1875 L330.7188 319.1875 L330.7188 328.125 Q330.7188 329.0156 330.7891 329.2344 Q330.8594 329.4531 331.0938 329.5703 Q331.3281 329.6875 332.0469 329.7031 L332.0469 330 L328.0625 330 L328.0625 329.7031 Q328.8125 329.6875 329.0312 329.5781 Q329.25 329.4688 329.3359 329.2734 Q329.4219 329.0781 329.4219 328.125 L329.4219 322.4062 Q329.4219 321.25 329.3438 320.9219 Q329.2969 320.6719 329.1484 320.5547 Q329 320.4375 328.7969 320.4375 Q328.5156 320.4375 328 320.6875 L327.875 320.4375 ZM334.8125 321.4219 Q335.2656 320.3438 335.9609 319.7656 Q336.6562 319.1875 337.6875 319.1875 Q338.9531 319.1875 339.6406 320.0156 Q340.1562 320.625 340.1562 321.3281 Q340.1562 322.4844 338.7031 323.7188 Q339.6719 324.1094 340.1719 324.8203 Q340.6719 325.5312 340.6719 326.4844 Q340.6719 327.8594 339.7969 328.875 Q338.6562 330.1875 336.5 330.1875 Q335.4219 330.1875 335.0391 329.9219 Q334.6562 329.6562 334.6562 329.3438 Q334.6562 329.125 334.8359 328.9531 Q335.0156 328.7812 335.2812 328.7812 Q335.4688 328.7812 335.6719 328.8438 Q335.8125 328.875 336.2812 329.125 Q336.75 329.375 336.9219 329.4219 Q337.2188 329.5 337.5469 329.5 Q338.3438 329.5 338.9297 328.8828 Q339.5156 328.2656 339.5156 327.4219 Q339.5156 326.8125 339.25 326.2188 Q339.0469 325.7812 338.7969 325.5625 Q338.4688 325.25 337.8828 324.9922 Q337.2969 324.7344 336.6875 324.7344 L336.4375 324.7344 L336.4375 324.5 Q337.0469 324.4219 337.6719 324.0547 Q338.2969 323.6875 338.5781 323.1719 Q338.8594 322.6562 338.8594 322.0469 Q338.8594 321.2344 338.3516 320.7422 Q337.8438 320.25 337.0938 320.25 Q335.8906 320.25 335.0781 321.5469 L334.8125 321.4219 Z"
                  style="clip-path:url(#clipPath24); stroke:none;"
                  transform="translate(-5,-5)"/>
        </g>
        <g transform="translate(5,5)"
           style="font-size:13px; text-rendering:optimizeLegibility; color-rendering:optimizeQuality; image-rendering:optimizeQuality; font-family:'Times New Roman'; color-interpolation:linearRGB;">
            <path d="M355.1646 306 L355.1646 310.025"
                  style="fill:none; clip-path:url(#clipPath10);"/>
            <path d="M353.875 320.4375 L356.4531 319.1875 L356.7188 319.1875 L356.7188 328.125 Q356.7188 329.0156 356.7891 329.2344 Q356.8594 329.4531 357.0938 329.5703 Q357.3281 329.6875 358.0469 329.7031 L358.0469 330 L354.0625 330 L354.0625 329.7031 Q354.8125 329.6875 355.0312 329.5781 Q355.25 329.4688 355.3359 329.2734 Q355.4219 329.0781 355.4219 328.125 L355.4219 322.4062 Q355.4219 321.25 355.3438 320.9219 Q355.2969 320.6719 355.1484 320.5547 Q355 320.4375 354.7969 320.4375 Q354.5156 320.4375 354 320.6875 L353.875 320.4375 ZM367.4531 326.0938 L367.4531 327.2031 L366.0312 327.2031 L366.0312 330 L364.7344 330 L364.7344 327.2031 L360.25 327.2031 L360.25 326.2031 L365.1719 319.1875 L366.0312 319.1875 L366.0312 326.0938 L367.4531 326.0938 ZM364.7344 326.0938 L364.7344 320.8281 L361.0156 326.0938 L364.7344 326.0938 Z"
                  style="clip-path:url(#clipPath24); stroke:none;"
                  transform="translate(-5,-5)"/>
        </g>
        <g transform="translate(5,5)"
           style="font-size:13px; text-rendering:optimizeLegibility; color-rendering:optimizeQuality; image-rendering:optimizeQuality; font-family:'Times New Roman'; color-interpolation:linearRGB;">
            <path d="M381.0811 306 L381.0811 310.025"
                  style="fill:none; clip-path:url(#clipPath10);"/>
            <path d="M379.875 320.4375 L382.4531 319.1875 L382.7188 319.1875 L382.7188 328.125 Q382.7188 329.0156 382.7891 329.2344 Q382.8594 329.4531 383.0938 329.5703 Q383.3281 329.6875 384.0469 329.7031 L384.0469 330 L380.0625 330 L380.0625 329.7031 Q380.8125 329.6875 381.0312 329.5781 Q381.25 329.4688 381.3359 329.2734 Q381.4219 329.0781 381.4219 328.125 L381.4219 322.4062 Q381.4219 321.25 381.3438 320.9219 Q381.2969 320.6719 381.1484 320.5547 Q381 320.4375 380.7969 320.4375 Q380.5156 320.4375 380 320.6875 L379.875 320.4375 ZM392.9531 319.4062 L392.3438 320.7344 L389.1562 320.7344 L388.4531 322.1562 Q390.5312 322.4531 391.7344 323.6875 Q392.7812 324.75 392.7812 326.1875 Q392.7812 327.0312 392.4375 327.7422 Q392.0938 328.4531 391.5781 328.9531 Q391.0625 329.4531 390.4375 329.75 Q389.5312 330.1875 388.5938 330.1875 Q387.6406 330.1875 387.2031 329.8594 Q386.7656 329.5312 386.7656 329.1406 Q386.7656 328.9219 386.9453 328.7578 Q387.125 328.5938 387.4062 328.5938 Q387.6094 328.5938 387.7578 328.6562 Q387.9062 328.7188 388.2812 328.9688 Q388.8594 329.375 389.4688 329.375 Q390.375 329.375 391.0703 328.6875 Q391.7656 328 391.7656 327 Q391.7656 326.0469 391.1484 325.2109 Q390.5312 324.375 389.4375 323.9219 Q388.5938 323.5781 387.125 323.5156 L389.1562 319.4062 L392.9531 319.4062 Z"
                  style="clip-path:url(#clipPath24); stroke:none;"
                  transform="translate(-5,-5)"/>
        </g>
        <g transform="translate(5,5)"
           style="stroke-linecap:butt; font-size:13px; text-rendering:optimizeLegibility; image-rendering:optimizeQuality; color-rendering:optimizeQuality; font-family:'Times New Roman'; stroke-linejoin:round; color-interpolation:linearRGB;">
            <path d="M94 306 L94 8.0199"
                  style="fill:none; clip-path:url(#clipPath10);"/>
            <path d="M408.9975 306 L408.9975 8.0199"
                  style="fill:none; clip-path:url(#clipPath10);"/>
        </g>
        <g transform="translate(5,5)"
           style="stroke-linecap:butt; font-size:13px; text-rendering:optimizeLegibility; image-rendering:optimizeQuality; color-rendering:optimizeQuality; font-family:'Times New Roman'; stroke-linejoin:round; color-interpolation:linearRGB;">
            <path d="M9.3438 152.4062 L17.3906 152.4062 L16.5312 155.2188 L16.2344 155.2188 Q16.375 154.5938 16.375 154.1094 Q16.375 153.5469 16.0312 153.25 Q15.7656 153.0312 14.6562 153.0312 L13.8281 153.0312 L11.7344 160.3281 Q11.3281 161.7031 11.3281 162.0312 Q11.3281 162.3281 11.5781 162.5156 Q11.8281 162.7031 12.4688 162.7031 L12.8281 162.7031 L12.7344 163 L8.125 163 L8.2031 162.7031 L8.4062 162.7031 Q9.0156 162.7031 9.3438 162.5156 Q9.5781 162.375 9.7578 162.0312 Q9.9375 161.6875 10.2656 160.5625 L12.4688 153.0312 L11.8281 153.0312 Q10.9219 153.0312 10.3594 153.2656 Q9.7969 153.5 9.4531 153.9453 Q9.1094 154.3906 8.8906 155.2188 L8.6094 155.2188 L9.3438 152.4062 Z"
                  style="stroke:none; clip-path:url(#clipPath25);"/>
            <path d="M26.75 166.1719 L23.3125 166.1719 L23.3125 152.1562 L26.75 152.1562 L26.75 152.7812 L24.4844 152.7812 L24.4844 165.5625 L26.75 165.5625 L26.75 166.1719 ZM27.1094 152.4062 L30 152.4062 L36.4688 160.3438 L36.4688 154.2344 Q36.4688 153.2656 36.25 153.0156 Q35.9688 152.6875 35.3438 152.6875 L34.9688 152.6875 L34.9688 152.4062 L38.6562 152.4062 L38.6562 152.6875 L38.2812 152.6875 Q37.6094 152.6875 37.3281 153.0938 Q37.1562 153.3438 37.1562 154.2344 L37.1562 163.1719 L36.875 163.1719 L29.8906 154.6406 L29.8906 161.1562 Q29.8906 162.1406 30.1094 162.375 Q30.4062 162.7031 31.0156 162.7031 L31.3906 162.7031 L31.3906 163 L27.7031 163 L27.7031 162.7031 L28.0781 162.7031 Q28.75 162.7031 29.0312 162.2969 Q29.2031 162.0469 29.2031 161.1562 L29.2031 153.7969 Q28.75 153.25 28.5078 153.0781 Q28.2656 152.9062 27.8125 152.7656 Q27.5781 152.6875 27.1094 152.6875 L27.1094 152.4062 ZM41.5078 157.1562 Q42.2891 156.375 42.4297 156.25 Q42.7891 155.9531 43.1953 155.7891 Q43.6016 155.625 43.9922 155.625 Q44.6641 155.625 45.1484 156.0156 Q45.6328 156.4062 45.8047 157.1562 Q46.6016 156.2188 47.1562 155.9219 Q47.7109 155.625 48.3047 155.625 Q48.8672 155.625 49.3125 155.9219 Q49.7578 156.2188 50.0078 156.875 Q50.1797 157.3281 50.1797 158.2969 L50.1797 161.375 Q50.1797 162.0469 50.2891 162.2969 Q50.3672 162.4688 50.5781 162.5938 Q50.7891 162.7188 51.2578 162.7188 L51.2578 163 L47.7266 163 L47.7266 162.7188 L47.8828 162.7188 Q48.3359 162.7188 48.6016 162.5312 Q48.7734 162.4062 48.8516 162.1406 Q48.8828 162 48.8828 161.375 L48.8828 158.2969 Q48.8828 157.4219 48.6797 157.0625 Q48.3672 156.5625 47.6953 156.5625 Q47.2891 156.5625 46.8672 156.7734 Q46.4453 156.9844 45.8516 157.5469 L45.8359 157.625 L45.8516 157.9688 L45.8516 161.375 Q45.8516 162.1094 45.9375 162.2891 Q46.0234 162.4688 46.25 162.5938 Q46.4766 162.7188 47.0234 162.7188 L47.0234 163 L43.3984 163 L43.3984 162.7188 Q43.9922 162.7188 44.2188 162.5781 Q44.4453 162.4375 44.5234 162.1562 Q44.5703 162.0156 44.5703 161.375 L44.5703 158.2969 Q44.5703 157.4219 44.3047 157.0469 Q43.9609 156.5469 43.3516 156.5469 Q42.9297 156.5469 42.5078 156.7656 Q41.8672 157.1094 41.5078 157.5469 L41.5078 161.375 Q41.5078 162.0781 41.6094 162.2891 Q41.7109 162.5 41.8984 162.6094 Q42.0859 162.7188 42.6797 162.7188 L42.6797 163 L39.1328 163 L39.1328 162.7188 Q39.6328 162.7188 39.8281 162.6094 Q40.0234 162.5 40.125 162.2734 Q40.2266 162.0469 40.2266 161.375 L40.2266 158.6406 Q40.2266 157.4688 40.1484 157.125 Q40.1016 156.8594 39.9844 156.7656 Q39.8672 156.6719 39.6641 156.6719 Q39.4453 156.6719 39.1328 156.7812 L39.0234 156.5 L41.1797 155.625 L41.5078 155.625 L41.5078 157.1562 ZM51.9219 152.1562 L55.3594 152.1562 L55.3594 166.1875 L51.9219 166.1875 L51.9219 165.5625 L54.1875 165.5625 L54.1875 152.7812 L51.9219 152.7812 L51.9219 152.1562 Z"
                  style="clip-path:url(#clipPath25); stroke:none;"/>
        </g>
        <g transform="translate(5,5)"
           style="font-size:13px; text-rendering:optimizeLegibility; color-rendering:optimizeQuality; image-rendering:optimizeQuality; font-family:'Times New Roman'; color-interpolation:linearRGB;">
            <path d="M94 304 L89.975 304"
                  style="fill:none; clip-path:url(#clipPath10);"/>
            <path d="M86.5781 309.7656 Q86.5781 307.9531 87.125 306.6406 Q87.6719 305.3281 88.5781 304.6875 Q89.2812 304.1875 90.0312 304.1875 Q91.25 304.1875 92.2188 305.4219 Q93.4375 306.9688 93.4375 309.5938 Q93.4375 311.4375 92.9062 312.7266 Q92.375 314.0156 91.5469 314.6016 Q90.7188 315.1875 89.9531 315.1875 Q88.4375 315.1875 87.4375 313.3906 Q86.5781 311.8906 86.5781 309.7656 ZM88.1094 309.9531 Q88.1094 312.1406 88.6562 313.5312 Q89.0938 314.6875 89.9844 314.6875 Q90.4062 314.6875 90.8594 314.3125 Q91.3125 313.9375 91.5469 313.0469 Q91.9062 311.7031 91.9062 309.25 Q91.9062 307.4375 91.5312 306.2344 Q91.25 305.3281 90.7969 304.9531 Q90.4844 304.7031 90.0312 304.7031 Q89.5 304.7031 89.0781 305.1719 Q88.5156 305.8281 88.3125 307.2188 Q88.1094 308.6094 88.1094 309.9531 Z"
                  style="clip-path:url(#clipPath24); stroke:none;"
                  transform="translate(-5,-5)"/>
        </g>
        <g transform="translate(5,5)"
           style="font-size:13px; text-rendering:optimizeLegibility; color-rendering:optimizeQuality; image-rendering:optimizeQuality; font-family:'Times New Roman'; color-interpolation:linearRGB;">
            <path d="M94 262.0028 L89.975 262.0028"
                  style="fill:none; clip-path:url(#clipPath10);"/>
            <path d="M71.875 263.4375 L74.4531 262.1875 L74.7188 262.1875 L74.7188 271.125 Q74.7188 272.0156 74.7891 272.2344 Q74.8594 272.4531 75.0938 272.5703 Q75.3281 272.6875 76.0469 272.7031 L76.0469 273 L72.0625 273 L72.0625 272.7031 Q72.8125 272.6875 73.0312 272.5781 Q73.25 272.4688 73.3359 272.2734 Q73.4219 272.0781 73.4219 271.125 L73.4219 265.4062 Q73.4219 264.25 73.3438 263.9219 Q73.2969 263.6719 73.1484 263.5547 Q73 263.4375 72.7969 263.4375 Q72.5156 263.4375 72 263.6875 L71.875 263.4375 ZM78.5781 267.7656 Q78.5781 265.9531 79.125 264.6406 Q79.6719 263.3281 80.5781 262.6875 Q81.2812 262.1875 82.0312 262.1875 Q83.25 262.1875 84.2188 263.4219 Q85.4375 264.9688 85.4375 267.5938 Q85.4375 269.4375 84.9062 270.7266 Q84.375 272.0156 83.5469 272.6016 Q82.7188 273.1875 81.9531 273.1875 Q80.4375 273.1875 79.4375 271.3906 Q78.5781 269.8906 78.5781 267.7656 ZM80.1094 267.9531 Q80.1094 270.1406 80.6562 271.5312 Q81.0938 272.6875 81.9844 272.6875 Q82.4062 272.6875 82.8594 272.3125 Q83.3125 271.9375 83.5469 271.0469 Q83.9062 269.7031 83.9062 267.25 Q83.9062 265.4375 83.5312 264.2344 Q83.25 263.3281 82.7969 262.9531 Q82.4844 262.7031 82.0312 262.7031 Q81.5 262.7031 81.0781 263.1719 Q80.5156 263.8281 80.3125 265.2188 Q80.1094 266.6094 80.1094 267.9531 ZM86.5781 267.7656 Q86.5781 265.9531 87.125 264.6406 Q87.6719 263.3281 88.5781 262.6875 Q89.2812 262.1875 90.0312 262.1875 Q91.25 262.1875 92.2188 263.4219 Q93.4375 264.9688 93.4375 267.5938 Q93.4375 269.4375 92.9062 270.7266 Q92.375 272.0156 91.5469 272.6016 Q90.7188 273.1875 89.9531 273.1875 Q88.4375 273.1875 87.4375 271.3906 Q86.5781 269.8906 86.5781 267.7656 ZM88.1094 267.9531 Q88.1094 270.1406 88.6562 271.5312 Q89.0938 272.6875 89.9844 272.6875 Q90.4062 272.6875 90.8594 272.3125 Q91.3125 271.9375 91.5469 271.0469 Q91.9062 269.7031 91.9062 267.25 Q91.9062 265.4375 91.5312 264.2344 Q91.25 263.3281 90.7969 262.9531 Q90.4844 262.7031 90.0312 262.7031 Q89.5 262.7031 89.0781 263.1719 Q88.5156 263.8281 88.3125 265.2188 Q88.1094 266.6094 88.1094 267.9531 Z"
                  style="clip-path:url(#clipPath24); stroke:none;"
                  transform="translate(-5,-5)"/>
        </g>
        <g transform="translate(5,5)"
           style="font-size:13px; text-rendering:optimizeLegibility; color-rendering:optimizeQuality; image-rendering:optimizeQuality; font-family:'Times New Roman'; color-interpolation:linearRGB;">
            <path d="M94 220.0057 L89.975 220.0057"
                  style="fill:none; clip-path:url(#clipPath10);"/>
            <path d="M77.3438 228.9531 L76.5938 231 L70.3438 231 L70.3438 230.7031 Q73.1094 228.1875 74.2344 226.5938 Q75.3594 225 75.3594 223.6875 Q75.3594 222.6719 74.7422 222.0234 Q74.125 221.375 73.2656 221.375 Q72.4844 221.375 71.8594 221.8359 Q71.2344 222.2969 70.9375 223.1719 L70.6562 223.1719 Q70.8438 221.7344 71.6562 220.9609 Q72.4688 220.1875 73.6719 220.1875 Q74.9688 220.1875 75.8281 221.0156 Q76.6875 221.8438 76.6875 222.9688 Q76.6875 223.7656 76.3125 224.5781 Q75.7344 225.8438 74.4375 227.25 Q72.5 229.375 72.0156 229.8125 L74.7812 229.8125 Q75.625 229.8125 75.9609 229.75 Q76.2969 229.6875 76.5703 229.5 Q76.8438 229.3125 77.0469 228.9531 L77.3438 228.9531 ZM78.5781 225.7656 Q78.5781 223.9531 79.125 222.6406 Q79.6719 221.3281 80.5781 220.6875 Q81.2812 220.1875 82.0312 220.1875 Q83.25 220.1875 84.2188 221.4219 Q85.4375 222.9688 85.4375 225.5938 Q85.4375 227.4375 84.9062 228.7266 Q84.375 230.0156 83.5469 230.6016 Q82.7188 231.1875 81.9531 231.1875 Q80.4375 231.1875 79.4375 229.3906 Q78.5781 227.8906 78.5781 225.7656 ZM80.1094 225.9531 Q80.1094 228.1406 80.6562 229.5312 Q81.0938 230.6875 81.9844 230.6875 Q82.4062 230.6875 82.8594 230.3125 Q83.3125 229.9375 83.5469 229.0469 Q83.9062 227.7031 83.9062 225.25 Q83.9062 223.4375 83.5312 222.2344 Q83.25 221.3281 82.7969 220.9531 Q82.4844 220.7031 82.0312 220.7031 Q81.5 220.7031 81.0781 221.1719 Q80.5156 221.8281 80.3125 223.2188 Q80.1094 224.6094 80.1094 225.9531 ZM86.5781 225.7656 Q86.5781 223.9531 87.125 222.6406 Q87.6719 221.3281 88.5781 220.6875 Q89.2812 220.1875 90.0312 220.1875 Q91.25 220.1875 92.2188 221.4219 Q93.4375 222.9688 93.4375 225.5938 Q93.4375 227.4375 92.9062 228.7266 Q92.375 230.0156 91.5469 230.6016 Q90.7188 231.1875 89.9531 231.1875 Q88.4375 231.1875 87.4375 229.3906 Q86.5781 227.8906 86.5781 225.7656 ZM88.1094 225.9531 Q88.1094 228.1406 88.6562 229.5312 Q89.0938 230.6875 89.9844 230.6875 Q90.4062 230.6875 90.8594 230.3125 Q91.3125 229.9375 91.5469 229.0469 Q91.9062 227.7031 91.9062 225.25 Q91.9062 223.4375 91.5312 222.2344 Q91.25 221.3281 90.7969 220.9531 Q90.4844 220.7031 90.0312 220.7031 Q89.5 220.7031 89.0781 221.1719 Q88.5156 221.8281 88.3125 223.2188 Q88.1094 224.6094 88.1094 225.9531 Z"
                  style="clip-path:url(#clipPath24); stroke:none;"
                  transform="translate(-5,-5)"/>
        </g>
        <g transform="translate(5,5)"
           style="font-size:13px; text-rendering:optimizeLegibility; color-rendering:optimizeQuality; image-rendering:optimizeQuality; font-family:'Times New Roman'; color-interpolation:linearRGB;">
            <path d="M94 178.0085 L89.975 178.0085"
                  style="fill:none; clip-path:url(#clipPath10);"/>
            <path d="M70.8125 180.4219 Q71.2656 179.3438 71.9609 178.7656 Q72.6562 178.1875 73.6875 178.1875 Q74.9531 178.1875 75.6406 179.0156 Q76.1562 179.625 76.1562 180.3281 Q76.1562 181.4844 74.7031 182.7188 Q75.6719 183.1094 76.1719 183.8203 Q76.6719 184.5312 76.6719 185.4844 Q76.6719 186.8594 75.7969 187.875 Q74.6562 189.1875 72.5 189.1875 Q71.4219 189.1875 71.0391 188.9219 Q70.6562 188.6562 70.6562 188.3438 Q70.6562 188.125 70.8359 187.9531 Q71.0156 187.7812 71.2812 187.7812 Q71.4688 187.7812 71.6719 187.8438 Q71.8125 187.875 72.2812 188.125 Q72.75 188.375 72.9219 188.4219 Q73.2188 188.5 73.5469 188.5 Q74.3438 188.5 74.9297 187.8828 Q75.5156 187.2656 75.5156 186.4219 Q75.5156 185.8125 75.25 185.2188 Q75.0469 184.7812 74.7969 184.5625 Q74.4688 184.25 73.8828 183.9922 Q73.2969 183.7344 72.6875 183.7344 L72.4375 183.7344 L72.4375 183.5 Q73.0469 183.4219 73.6719 183.0547 Q74.2969 182.6875 74.5781 182.1719 Q74.8594 181.6562 74.8594 181.0469 Q74.8594 180.2344 74.3516 179.7422 Q73.8438 179.25 73.0938 179.25 Q71.8906 179.25 71.0781 180.5469 L70.8125 180.4219 ZM78.5781 183.7656 Q78.5781 181.9531 79.125 180.6406 Q79.6719 179.3281 80.5781 178.6875 Q81.2812 178.1875 82.0312 178.1875 Q83.25 178.1875 84.2188 179.4219 Q85.4375 180.9688 85.4375 183.5938 Q85.4375 185.4375 84.9062 186.7266 Q84.375 188.0156 83.5469 188.6016 Q82.7188 189.1875 81.9531 189.1875 Q80.4375 189.1875 79.4375 187.3906 Q78.5781 185.8906 78.5781 183.7656 ZM80.1094 183.9531 Q80.1094 186.1406 80.6562 187.5312 Q81.0938 188.6875 81.9844 188.6875 Q82.4062 188.6875 82.8594 188.3125 Q83.3125 187.9375 83.5469 187.0469 Q83.9062 185.7031 83.9062 183.25 Q83.9062 181.4375 83.5312 180.2344 Q83.25 179.3281 82.7969 178.9531 Q82.4844 178.7031 82.0312 178.7031 Q81.5 178.7031 81.0781 179.1719 Q80.5156 179.8281 80.3125 181.2188 Q80.1094 182.6094 80.1094 183.9531 ZM86.5781 183.7656 Q86.5781 181.9531 87.125 180.6406 Q87.6719 179.3281 88.5781 178.6875 Q89.2812 178.1875 90.0312 178.1875 Q91.25 178.1875 92.2188 179.4219 Q93.4375 180.9688 93.4375 183.5938 Q93.4375 185.4375 92.9062 186.7266 Q92.375 188.0156 91.5469 188.6016 Q90.7188 189.1875 89.9531 189.1875 Q88.4375 189.1875 87.4375 187.3906 Q86.5781 185.8906 86.5781 183.7656 ZM88.1094 183.9531 Q88.1094 186.1406 88.6562 187.5312 Q89.0938 188.6875 89.9844 188.6875 Q90.4062 188.6875 90.8594 188.3125 Q91.3125 187.9375 91.5469 187.0469 Q91.9062 185.7031 91.9062 183.25 Q91.9062 181.4375 91.5312 180.2344 Q91.25 179.3281 90.7969 178.9531 Q90.4844 178.7031 90.0312 178.7031 Q89.5 178.7031 89.0781 179.1719 Q88.5156 179.8281 88.3125 181.2188 Q88.1094 182.6094 88.1094 183.9531 Z"
                  style="clip-path:url(#clipPath24); stroke:none;"
                  transform="translate(-5,-5)"/>
        </g>
        <g transform="translate(5,5)"
           style="font-size:13px; text-rendering:optimizeLegibility; color-rendering:optimizeQuality; image-rendering:optimizeQuality; font-family:'Times New Roman'; color-interpolation:linearRGB;">
            <path d="M94 136.0114 L89.975 136.0114"
                  style="fill:none; clip-path:url(#clipPath10);"/>
            <path d="M77.4531 143.0938 L77.4531 144.2031 L76.0312 144.2031 L76.0312 147 L74.7344 147 L74.7344 144.2031 L70.25 144.2031 L70.25 143.2031 L75.1719 136.1875 L76.0312 136.1875 L76.0312 143.0938 L77.4531 143.0938 ZM74.7344 143.0938 L74.7344 137.8281 L71.0156 143.0938 L74.7344 143.0938 ZM78.5781 141.7656 Q78.5781 139.9531 79.125 138.6406 Q79.6719 137.3281 80.5781 136.6875 Q81.2812 136.1875 82.0312 136.1875 Q83.25 136.1875 84.2188 137.4219 Q85.4375 138.9688 85.4375 141.5938 Q85.4375 143.4375 84.9062 144.7266 Q84.375 146.0156 83.5469 146.6016 Q82.7188 147.1875 81.9531 147.1875 Q80.4375 147.1875 79.4375 145.3906 Q78.5781 143.8906 78.5781 141.7656 ZM80.1094 141.9531 Q80.1094 144.1406 80.6562 145.5312 Q81.0938 146.6875 81.9844 146.6875 Q82.4062 146.6875 82.8594 146.3125 Q83.3125 145.9375 83.5469 145.0469 Q83.9062 143.7031 83.9062 141.25 Q83.9062 139.4375 83.5312 138.2344 Q83.25 137.3281 82.7969 136.9531 Q82.4844 136.7031 82.0312 136.7031 Q81.5 136.7031 81.0781 137.1719 Q80.5156 137.8281 80.3125 139.2188 Q80.1094 140.6094 80.1094 141.9531 ZM86.5781 141.7656 Q86.5781 139.9531 87.125 138.6406 Q87.6719 137.3281 88.5781 136.6875 Q89.2812 136.1875 90.0312 136.1875 Q91.25 136.1875 92.2188 137.4219 Q93.4375 138.9688 93.4375 141.5938 Q93.4375 143.4375 92.9062 144.7266 Q92.375 146.0156 91.5469 146.6016 Q90.7188 147.1875 89.9531 147.1875 Q88.4375 147.1875 87.4375 145.3906 Q86.5781 143.8906 86.5781 141.7656 ZM88.1094 141.9531 Q88.1094 144.1406 88.6562 145.5312 Q89.0938 146.6875 89.9844 146.6875 Q90.4062 146.6875 90.8594 146.3125 Q91.3125 145.9375 91.5469 145.0469 Q91.9062 143.7031 91.9062 141.25 Q91.9062 139.4375 91.5312 138.2344 Q91.25 137.3281 90.7969 136.9531 Q90.4844 136.7031 90.0312 136.7031 Q89.5 136.7031 89.0781 137.1719 Q88.5156 137.8281 88.3125 139.2188 Q88.1094 140.6094 88.1094 141.9531 Z"
                  style="clip-path:url(#clipPath24); stroke:none;"
                  transform="translate(-5,-5)"/>
        </g>
        <g transform="translate(5,5)"
           style="font-size:13px; text-rendering:optimizeLegibility; color-rendering:optimizeQuality; image-rendering:optimizeQuality; font-family:'Times New Roman'; color-interpolation:linearRGB;">
            <path d="M94 94.0142 L89.975 94.0142"
                  style="fill:none; clip-path:url(#clipPath10);"/>
            <path d="M76.9531 94.4062 L76.3438 95.7344 L73.1562 95.7344 L72.4531 97.1562 Q74.5312 97.4531 75.7344 98.6875 Q76.7812 99.75 76.7812 101.1875 Q76.7812 102.0312 76.4375 102.7422 Q76.0938 103.4531 75.5781 103.9531 Q75.0625 104.4531 74.4375 104.75 Q73.5312 105.1875 72.5938 105.1875 Q71.6406 105.1875 71.2031 104.8594 Q70.7656 104.5312 70.7656 104.1406 Q70.7656 103.9219 70.9453 103.7578 Q71.125 103.5938 71.4062 103.5938 Q71.6094 103.5938 71.7578 103.6562 Q71.9062 103.7188 72.2812 103.9688 Q72.8594 104.375 73.4688 104.375 Q74.375 104.375 75.0703 103.6875 Q75.7656 103 75.7656 102 Q75.7656 101.0469 75.1484 100.2109 Q74.5312 99.375 73.4375 98.9219 Q72.5938 98.5781 71.125 98.5156 L73.1562 94.4062 L76.9531 94.4062 ZM78.5781 99.7656 Q78.5781 97.9531 79.125 96.6406 Q79.6719 95.3281 80.5781 94.6875 Q81.2812 94.1875 82.0312 94.1875 Q83.25 94.1875 84.2188 95.4219 Q85.4375 96.9688 85.4375 99.5938 Q85.4375 101.4375 84.9062 102.7266 Q84.375 104.0156 83.5469 104.6016 Q82.7188 105.1875 81.9531 105.1875 Q80.4375 105.1875 79.4375 103.3906 Q78.5781 101.8906 78.5781 99.7656 ZM80.1094 99.9531 Q80.1094 102.1406 80.6562 103.5312 Q81.0938 104.6875 81.9844 104.6875 Q82.4062 104.6875 82.8594 104.3125 Q83.3125 103.9375 83.5469 103.0469 Q83.9062 101.7031 83.9062 99.25 Q83.9062 97.4375 83.5312 96.2344 Q83.25 95.3281 82.7969 94.9531 Q82.4844 94.7031 82.0312 94.7031 Q81.5 94.7031 81.0781 95.1719 Q80.5156 95.8281 80.3125 97.2188 Q80.1094 98.6094 80.1094 99.9531 ZM86.5781 99.7656 Q86.5781 97.9531 87.125 96.6406 Q87.6719 95.3281 88.5781 94.6875 Q89.2812 94.1875 90.0312 94.1875 Q91.25 94.1875 92.2188 95.4219 Q93.4375 96.9688 93.4375 99.5938 Q93.4375 101.4375 92.9062 102.7266 Q92.375 104.0156 91.5469 104.6016 Q90.7188 105.1875 89.9531 105.1875 Q88.4375 105.1875 87.4375 103.3906 Q86.5781 101.8906 86.5781 99.7656 ZM88.1094 99.9531 Q88.1094 102.1406 88.6562 103.5312 Q89.0938 104.6875 89.9844 104.6875 Q90.4062 104.6875 90.8594 104.3125 Q91.3125 103.9375 91.5469 103.0469 Q91.9062 101.7031 91.9062 99.25 Q91.9062 97.4375 91.5312 96.2344 Q91.25 95.3281 90.7969 94.9531 Q90.4844 94.7031 90.0312 94.7031 Q89.5 94.7031 89.0781 95.1719 Q88.5156 95.8281 88.3125 97.2188 Q88.1094 98.6094 88.1094 99.9531 Z"
                  style="clip-path:url(#clipPath24); stroke:none;"
                  transform="translate(-5,-5)"/>
        </g>
        <g transform="translate(5,5)"
           style="font-size:13px; text-rendering:optimizeLegibility; color-rendering:optimizeQuality; image-rendering:optimizeQuality; font-family:'Times New Roman'; color-interpolation:linearRGB;">
            <path d="M94 52.0171 L89.975 52.0171"
                  style="fill:none; clip-path:url(#clipPath10);"/>
            <path d="M77.1719 52.1875 L77.1719 52.4688 Q76.1406 52.5781 75.4922 52.8828 Q74.8438 53.1875 74.2031 53.8203 Q73.5625 54.4531 73.1484 55.2344 Q72.7344 56.0156 72.4531 57.0781 Q73.5781 56.3125 74.7031 56.3125 Q75.7969 56.3125 76.5938 57.1875 Q77.3906 58.0625 77.3906 59.4375 Q77.3906 60.7656 76.5781 61.8594 Q75.6094 63.1875 74.0156 63.1875 Q72.9375 63.1875 72.1719 62.4688 Q70.6875 61.0625 70.6875 58.8438 Q70.6875 57.4219 71.2578 56.1406 Q71.8281 54.8594 72.8906 53.8672 Q73.9531 52.875 74.9219 52.5312 Q75.8906 52.1875 76.7188 52.1875 L77.1719 52.1875 ZM72.3125 57.6562 Q72.1719 58.7031 72.1719 59.3594 Q72.1719 60.1094 72.4531 60.9844 Q72.7344 61.8594 73.2812 62.375 Q73.6719 62.75 74.25 62.75 Q74.9219 62.75 75.4609 62.1094 Q76 61.4688 76 60.2812 Q76 58.9375 75.4688 57.9609 Q74.9375 56.9844 73.9531 56.9844 Q73.6562 56.9844 73.3203 57.1094 Q72.9844 57.2344 72.3125 57.6562 ZM78.5781 57.7656 Q78.5781 55.9531 79.125 54.6406 Q79.6719 53.3281 80.5781 52.6875 Q81.2812 52.1875 82.0312 52.1875 Q83.25 52.1875 84.2188 53.4219 Q85.4375 54.9688 85.4375 57.5938 Q85.4375 59.4375 84.9062 60.7266 Q84.375 62.0156 83.5469 62.6016 Q82.7188 63.1875 81.9531 63.1875 Q80.4375 63.1875 79.4375 61.3906 Q78.5781 59.8906 78.5781 57.7656 ZM80.1094 57.9531 Q80.1094 60.1406 80.6562 61.5312 Q81.0938 62.6875 81.9844 62.6875 Q82.4062 62.6875 82.8594 62.3125 Q83.3125 61.9375 83.5469 61.0469 Q83.9062 59.7031 83.9062 57.25 Q83.9062 55.4375 83.5312 54.2344 Q83.25 53.3281 82.7969 52.9531 Q82.4844 52.7031 82.0312 52.7031 Q81.5 52.7031 81.0781 53.1719 Q80.5156 53.8281 80.3125 55.2188 Q80.1094 56.6094 80.1094 57.9531 ZM86.5781 57.7656 Q86.5781 55.9531 87.125 54.6406 Q87.6719 53.3281 88.5781 52.6875 Q89.2812 52.1875 90.0312 52.1875 Q91.25 52.1875 92.2188 53.4219 Q93.4375 54.9688 93.4375 57.5938 Q93.4375 59.4375 92.9062 60.7266 Q92.375 62.0156 91.5469 62.6016 Q90.7188 63.1875 89.9531 63.1875 Q88.4375 63.1875 87.4375 61.3906 Q86.5781 59.8906 86.5781 57.7656 ZM88.1094 57.9531 Q88.1094 60.1406 88.6562 61.5312 Q89.0938 62.6875 89.9844 62.6875 Q90.4062 62.6875 90.8594 62.3125 Q91.3125 61.9375 91.5469 61.0469 Q91.9062 59.7031 91.9062 57.25 Q91.9062 55.4375 91.5312 54.2344 Q91.25 53.3281 90.7969 52.9531 Q90.4844 52.7031 90.0312 52.7031 Q89.5 52.7031 89.0781 53.1719 Q88.5156 53.8281 88.3125 55.2188 Q88.1094 56.6094 88.1094 57.9531 Z"
                  style="clip-path:url(#clipPath24); stroke:none;"
                  transform="translate(-5,-5)"/>
        </g>
        <g transform="translate(5,5)"
           style="font-size:13px; text-rendering:optimizeLegibility; color-rendering:optimizeQuality; image-rendering:optimizeQuality; font-family:'Times New Roman'; color-interpolation:linearRGB;">
            <path d="M94 10.0199 L89.975 10.0199"
                  style="fill:none; clip-path:url(#clipPath10);"/>
            <path d="M71.6094 10.4062 L77.2969 10.4062 L77.2969 10.7031 L73.7656 21.2188 L72.8906 21.2188 L76.0469 11.6719 L73.1406 11.6719 Q72.25 11.6719 71.875 11.8906 Q71.2188 12.25 70.8281 13 L70.5938 12.9062 L71.6094 10.4062 ZM78.5781 15.7656 Q78.5781 13.9531 79.125 12.6406 Q79.6719 11.3281 80.5781 10.6875 Q81.2812 10.1875 82.0312 10.1875 Q83.25 10.1875 84.2188 11.4219 Q85.4375 12.9688 85.4375 15.5938 Q85.4375 17.4375 84.9062 18.7266 Q84.375 20.0156 83.5469 20.6016 Q82.7188 21.1875 81.9531 21.1875 Q80.4375 21.1875 79.4375 19.3906 Q78.5781 17.8906 78.5781 15.7656 ZM80.1094 15.9531 Q80.1094 18.1406 80.6562 19.5312 Q81.0938 20.6875 81.9844 20.6875 Q82.4062 20.6875 82.8594 20.3125 Q83.3125 19.9375 83.5469 19.0469 Q83.9062 17.7031 83.9062 15.25 Q83.9062 13.4375 83.5312 12.2344 Q83.25 11.3281 82.7969 10.9531 Q82.4844 10.7031 82.0312 10.7031 Q81.5 10.7031 81.0781 11.1719 Q80.5156 11.8281 80.3125 13.2188 Q80.1094 14.6094 80.1094 15.9531 ZM86.5781 15.7656 Q86.5781 13.9531 87.125 12.6406 Q87.6719 11.3281 88.5781 10.6875 Q89.2812 10.1875 90.0312 10.1875 Q91.25 10.1875 92.2188 11.4219 Q93.4375 12.9688 93.4375 15.5938 Q93.4375 17.4375 92.9062 18.7266 Q92.375 20.0156 91.5469 20.6016 Q90.7188 21.1875 89.9531 21.1875 Q88.4375 21.1875 87.4375 19.3906 Q86.5781 17.8906 86.5781 15.7656 ZM88.1094 15.9531 Q88.1094 18.1406 88.6562 19.5312 Q89.0938 20.6875 89.9844 20.6875 Q90.4062 20.6875 90.8594 20.3125 Q91.3125 19.9375 91.5469 19.0469 Q91.9062 17.7031 91.9062 15.25 Q91.9062 13.4375 91.5312 12.2344 Q91.25 11.3281 90.7969 10.9531 Q90.4844 10.7031 90.0312 10.7031 Q89.5 10.7031 89.0781 11.1719 Q88.5156 11.8281 88.3125 13.2188 Q88.1094 14.6094 88.1094 15.9531 Z"
                  style="clip-path:url(#clipPath24); stroke:none;"
                  transform="translate(-5,-5)"/>
        </g>
        <g transform="translate(5,5)"
           style="font-size:13px; text-rendering:optimizeLegibility; color-rendering:optimizeQuality; image-rendering:optimizeQuality; font-family:'Times New Roman'; color-interpolation:linearRGB;">
            <path d="M94 283.0014 L91.9875 283.0014"
                  style="fill:none; clip-path:url(#clipPath10);"/>
        </g>
        <g transform="translate(5,5)"
           style="font-size:13px; text-rendering:optimizeLegibility; color-rendering:optimizeQuality; image-rendering:optimizeQuality; font-family:'Times New Roman'; color-interpolation:linearRGB;">
            <path d="M94 241.0043 L91.9875 241.0043"
                  style="fill:none; clip-path:url(#clipPath10);"/>
        </g>
        <g transform="translate(5,5)"
           style="font-size:13px; text-rendering:optimizeLegibility; color-rendering:optimizeQuality; image-rendering:optimizeQuality; font-family:'Times New Roman'; color-interpolation:linearRGB;">
            <path d="M94 199.0071 L91.9875 199.0071"
                  style="fill:none; clip-path:url(#clipPath10);"/>
        </g>
        <g transform="translate(5,5)"
           style="font-size:13px; text-rendering:optimizeLegibility; color-rendering:optimizeQuality; image-rendering:optimizeQuality; font-family:'Times New Roman'; color-interpolation:linearRGB;">
            <path d="M94 157.01 L91.9875 157.01"
                  style="fill:none; clip-path:url(#clipPath10);"/>
        </g>
        <g transform="translate(5,5)"
           style="font-size:13px; text-rendering:optimizeLegibility; color-rendering:optimizeQuality; image-rendering:optimizeQuality; font-family:'Times New Roman'; color-interpolation:linearRGB;">
            <path d="M94 115.0128 L91.9875 115.0128"
                  style="fill:none; clip-path:url(#clipPath10);"/>
        </g>
        <g transform="translate(5,5)"
           style="font-size:13px; text-rendering:optimizeLegibility; color-rendering:optimizeQuality; image-rendering:optimizeQuality; font-family:'Times New Roman'; color-interpolation:linearRGB;">
            <path d="M94 73.0157 L91.9875 73.0157"
                  style="fill:none; clip-path:url(#clipPath10);"/>
        </g>
        <g transform="translate(5,5)"
           style="font-size:13px; text-rendering:optimizeLegibility; color-rendering:optimizeQuality; image-rendering:optimizeQuality; font-family:'Times New Roman'; color-interpolation:linearRGB;">
            <path d="M94 31.0185 L91.9875 31.0185"
                  style="fill:none; clip-path:url(#clipPath10);"/>
        </g>
    </g>
</svg>
