<?xml version="1.0" encoding="UTF-8"?>
<!DOCTYPE svg PUBLIC '-//W3C//DTD SVG 1.0//EN'
    'http://www.w3.org/TR/2001/REC-SVG-20010904/DTD/svg10.dtd' >

<svg style="stroke-dasharray:none; shape-rendering:auto; font-family:'Dialog'; text-rendering:auto; fill-opacity:1; color-interpolation:auto; color-rendering:auto; font-size:12px; fill:black; stroke:black; image-rendering:auto; stroke-miterlimit:10; stroke-linecap:square; stroke-linejoin:miter; font-style:normal; stroke-width:1; stroke-dashoffset:0; font-weight:normal; stroke-opacity:1;"
     xmlns="http://www.w3.org/2000/svg" contentScriptType="text/ecmascript"
     preserveAspectRatio="xMidYMid meet"
     xmlns:xlink="http://www.w3.org/1999/xlink" zoomAndPan="magnify"
     version="1.0" contentStyleType="text/css">
    <!--Generated by the Batik Graphics2D SVG Generator-->
    <defs id="genericDefs"/>
    <g>
        <defs id="defs1">
            <clipPath clipPathUnits="userSpaceOnUse" id="clipPath1">
                <path d="M0 0 L270 0 L270 200 L0 200 L0 0 Z"/>
            </clipPath>
            <clipPath clipPathUnits="userSpaceOnUse" id="clipPath2">
                <path d="M21 6.0377 L21 165 L268.9961 165 L268.9961 6.0377 Z"/>
            </clipPath>
            <clipPath clipPathUnits="userSpaceOnUse" id="clipPath3">
                <path d="M135 183 L135 199 L153 199 L153 183 Z"/>
            </clipPath>
            <clipPath clipPathUnits="userSpaceOnUse" id="clipPath4">
                <path d="M5 5 L275 5 L275 205 L5 205 L5 5 Z"/>
            </clipPath>
        </defs>
        <g style="stroke-linecap:butt; font-size:13px; fill:rgb(165,165,165); text-rendering:optimizeLegibility; image-rendering:optimizeQuality; color-rendering:optimizeQuality; font-family:'Times New Roman'; stroke-linejoin:round; stroke-dasharray:2,5; stroke:rgb(165,165,165); color-interpolation:linearRGB;"
           transform="translate(5,5)">
            <path d="M22 162.0005 L266.9961 162.0005"
                  style="fill:none; clip-path:url(#clipPath1);"/>
            <path d="M22 145.1158 L266.9961 145.1158"
                  style="fill:none; clip-path:url(#clipPath1);"/>
            <path d="M22 128.231 L266.9961 128.231"
                  style="fill:none; clip-path:url(#clipPath1);"/>
            <path d="M22 111.3463 L266.9961 111.3463"
                  style="fill:none; clip-path:url(#clipPath1);"/>
            <path d="M22 94.4615 L266.9961 94.4615"
                  style="fill:none; clip-path:url(#clipPath1);"/>
            <path d="M22 77.5767 L266.9961 77.5767"
                  style="fill:none; clip-path:url(#clipPath1);"/>
            <path d="M22 60.692 L266.9961 60.692"
                  style="fill:none; clip-path:url(#clipPath1);"/>
            <path d="M22 43.8072 L266.9961 43.8072"
                  style="fill:none; clip-path:url(#clipPath1);"/>
            <path d="M22 26.9225 L266.9961 26.9225"
                  style="fill:none; clip-path:url(#clipPath1);"/>
            <path d="M22 10.0377 L266.9961 10.0377"
                  style="fill:none; clip-path:url(#clipPath1);"/>
            <path d="M22 153.5582 L266.9961 153.5582"
                  style="fill:none; clip-path:url(#clipPath1); stroke:rgb(233,233,233);"/>
            <path d="M22 136.6734 L266.9961 136.6734"
                  style="fill:none; clip-path:url(#clipPath1); stroke:rgb(233,233,233);"/>
            <path d="M22 119.7886 L266.9961 119.7886"
                  style="fill:none; clip-path:url(#clipPath1); stroke:rgb(233,233,233);"/>
            <path d="M22 102.9039 L266.9961 102.9039"
                  style="fill:none; clip-path:url(#clipPath1); stroke:rgb(233,233,233);"/>
            <path d="M22 86.0191 L266.9961 86.0191"
                  style="fill:none; clip-path:url(#clipPath1); stroke:rgb(233,233,233);"/>
            <path d="M22 69.1344 L266.9961 69.1344"
                  style="fill:none; clip-path:url(#clipPath1); stroke:rgb(233,233,233);"/>
            <path d="M22 52.2496 L266.9961 52.2496"
                  style="fill:none; clip-path:url(#clipPath1); stroke:rgb(233,233,233);"/>
            <path d="M22 35.3648 L266.9961 35.3648"
                  style="fill:none; clip-path:url(#clipPath1); stroke:rgb(233,233,233);"/>
            <path d="M22 18.4801 L266.9961 18.4801"
                  style="fill:none; clip-path:url(#clipPath1); stroke:rgb(233,233,233);"/>
        </g>
        <g style="stroke-linecap:butt; font-size:13px; fill:rgb(0,116,204); text-rendering:optimizeLegibility; image-rendering:optimizeQuality; color-rendering:optimizeQuality; font-family:'Times New Roman'; stroke-linejoin:round; stroke:rgb(0,116,204); color-interpolation:linearRGB; stroke-width:1.5;"
           transform="translate(5,5)">
            <path d="M24 145.1158 L25.2671 145.8185 L26.3695 146.4178 L27.6094 147.0782 L28.8574 147.7286 L30.0995 148.3615 L31.2511 148.9355 L32.4436 149.5168 L33.6768 150.104 L34.906 150.6753 L36.1705 151.2483 L37.2842 151.7407 L38.538 152.2812 L39.7969 152.8092 L41.0101 153.304 L42.1118 153.7415 L43.4218 154.2471 L44.5316 154.6629 L45.8225 155.1321 L46.9652 155.5345 L48.219 155.9621 L49.4128 156.3556 L50.6584 156.7521 L51.8023 157.1035 L53.0362 157.4688 L54.3178 157.8333 L55.4334 158.1382 L56.6383 158.4544 L57.8832 158.767 L59.101 159.0588 L60.2792 159.328 L61.5875 159.6118 L62.7631 159.8532 L64.0182 160.0967 L65.1556 160.3048 L66.399 160.5184 L67.569 160.7064 L68.792 160.8892 L69.9876 161.0545 L71.2394 161.2132 L72.445 161.3524 L73.6778 161.4807 L74.9005 161.594 L76.024 161.6859 L77.3117 161.7767 L78.4634 161.8448 L79.6914 161.9039 L80.8667 161.9473 L82.1717 161.9805 L83.3018 161.9964 L84.5844 162 L85.7534 161.99 L87.0321 161.9645 L88.1354 161.9303 L89.3919 161.8775 L90.6056 161.8126 L91.8186 161.734 L93.027 161.6421 L94.188 161.541 L95.443 161.4177 L96.6392 161.2864 L97.898 161.134 L99.0376 160.9832 L100.2971 160.8026 L101.5034 160.6157 L102.7069 160.4158 L103.9638 160.1926 L105.1215 159.974 L106.3072 159.7373 L107.6163 159.4607 L108.8016 159.1965 L110.0137 158.9128 L111.2465 158.6102 L112.3796 158.3196 L113.5875 157.9967 L114.7862 157.6629 L116.0685 157.291 L117.2 156.9501 L118.5055 156.5419 L119.6836 156.16 L120.8494 155.7694 L122.1029 155.3353 L123.3615 154.8847 L124.5066 154.4619 L125.7226 153.9996 L126.9094 153.5352 L128.1959 153.0169 L129.309 152.5561 L130.5875 152.0125 L131.7894 151.4877 L132.9796 150.9547 L134.1708 150.4081 L135.3858 149.837 L136.6736 149.2166 L137.8544 148.6342 L139.02 148.0466 L140.266 147.4045 L141.5093 146.7494 L142.6252 146.1492 L143.9471 145.4232 L145.0532 144.8032 L146.3469 144.0636 L147.5817 143.3432 L148.6841 142.688 L149.924 141.9376 L151.172 141.1678 L152.4141 140.3873 L153.5658 139.6509 L154.7582 138.8753 L155.9914 138.0593 L157.2206 137.2319 L158.4851 136.3661 L159.5988 135.5911 L160.8525 134.7049 L162.1115 133.8004 L163.3247 132.9147 L164.4264 132.0986 L165.7365 131.1135 L166.8462 130.2665 L168.1371 129.2668 L169.2798 128.3689 L170.5336 127.3699 L171.7274 126.4049 L172.973 125.384 L174.1169 124.4337 L175.3508 123.3951 L176.6324 122.3013 L177.748 121.3367 L178.9529 120.2818 L180.1978 119.1779 L181.4156 118.084 L182.5938 117.0124 L183.9021 115.8075 L185.0777 114.7112 L186.3328 113.5266 L187.4702 112.4404 L188.7136 111.2392 L189.8836 110.0958 L191.1066 108.887 L192.3022 107.6917 L193.554 106.4262 L194.7596 105.1935 L195.9924 103.9189 L197.2151 102.6409 L198.3386 101.4543 L199.6263 100.0799 L200.778 98.8375 L202.006 97.4993 L203.1813 96.2053 L204.4863 94.7535 L205.6164 93.4835 L206.899 92.0276 L208.068 90.6874 L209.3467 89.2069 L210.45 87.9173 L211.7065 86.4347 L212.9202 84.9887 L214.1331 83.5299 L215.3416 82.0629 L216.5026 80.6408 L217.7576 79.0893 L218.9538 77.597 L220.2126 76.012 L221.3522 74.5646 L222.6117 72.9508 L223.8181 71.3912 L225.0215 69.8219 L226.2784 68.1685 L227.4361 66.6325 L228.6218 65.0466 L229.9309 63.2804 L231.1162 61.6674 L232.3284 60.0044 L233.5611 58.2991 L234.6942 56.7191 L235.9021 55.0218 L237.1008 53.3239 L238.3831 51.493 L239.5146 49.8645 L240.8201 47.9708 L241.9982 46.2483 L243.164 44.5313 L244.4175 42.6708 L245.676 40.7881 L246.8212 39.0623 L248.0372 37.2162 L249.224 35.4013 L250.5105 33.4192 L251.6236 31.6917 L252.9021 29.6933 L254.104 27.8009 L255.2942 25.9135 L256.4854 24.0115 L257.7004 22.0579 L258.9882 19.9721 L260.1689 18.0461 L261.3346 16.1322 L262.5806 14.0722 L263.8239 12.0024 L264.9961 10.0377"
                  style="fill:none; clip-path:url(#clipPath2);"/>
        </g>
        <g transform="translate(5,5)"
           style="stroke-linecap:butt; font-size:13px; text-rendering:optimizeLegibility; image-rendering:optimizeQuality; color-rendering:optimizeQuality; font-family:'Times New Roman'; stroke-linejoin:round; color-interpolation:linearRGB;">
            <path d="M22 164 L266.9961 164"
                  style="fill:none; clip-path:url(#clipPath1);"/>
            <path d="M22 8.0377 L266.9961 8.0377"
                  style="fill:none; clip-path:url(#clipPath1);"/>
        </g>
        <g transform="translate(5,5)"
           style="stroke-linecap:butt; font-size:13px; text-rendering:optimizeLegibility; image-rendering:optimizeQuality; color-rendering:optimizeQuality; font-family:'Times New Roman'; stroke-linejoin:round; color-interpolation:linearRGB;">
            <path d="M143.4219 189.8125 Q143.7656 190.1719 143.9375 190.5312 Q144.0625 190.7656 144.3438 191.8125 L144.9375 190.9062 Q145.1719 190.5781 145.5156 190.2812 Q145.8594 189.9844 146.125 189.875 Q146.2812 189.8125 146.4844 189.8125 Q146.7812 189.8125 146.9531 189.9688 Q147.125 190.125 147.125 190.3594 Q147.125 190.6094 147.0156 190.7031 Q146.8281 190.875 146.5781 190.875 Q146.4375 190.875 146.2812 190.8125 Q145.9531 190.7031 145.8438 190.7031 Q145.6875 190.7031 145.4531 190.9062 Q145.0312 191.25 144.4531 192.2812 L145 194.625 Q145.1406 195.1719 145.2266 195.2734 Q145.3125 195.375 145.4062 195.375 Q145.5469 195.375 145.7344 195.2188 Q146.1094 194.9062 146.375 194.4062 L146.625 194.5156 Q146.1875 195.3281 145.5312 195.8594 Q145.1562 196.1719 144.8906 196.1719 Q144.5 196.1719 144.2812 195.7344 Q144.1406 195.4688 143.6875 193.4375 Q142.625 195.2812 141.9844 195.8281 Q141.5625 196.1719 141.1719 196.1719 Q140.8906 196.1719 140.6719 195.9688 Q140.5 195.8125 140.5 195.5625 Q140.5 195.3438 140.6562 195.1875 Q140.8125 195.0312 141.0312 195.0312 Q141.25 195.0312 141.5 195.25 Q141.6719 195.4062 141.7656 195.4062 Q141.8438 195.4062 141.9844 195.2969 Q142.2969 195.0469 142.8516 194.1797 Q143.4062 193.3125 143.5781 192.9375 Q143.1562 191.2812 143.125 191.1875 Q142.9688 190.7344 142.7109 190.5469 Q142.4531 190.3594 141.9688 190.3594 Q141.8125 190.3594 141.6094 190.375 L141.6094 190.1406 L143.4219 189.8125 Z"
                  style="stroke:none; clip-path:url(#clipPath3);"/>
        </g>
        <g transform="translate(5,5)"
           style="font-size:13px; text-rendering:optimizeLegibility; color-rendering:optimizeQuality; image-rendering:optimizeQuality; font-family:'Times New Roman'; color-interpolation:linearRGB;">
            <path d="M24 164 L24 166.45"
                  style="fill:none; clip-path:url(#clipPath1);"/>
        </g>
        <g transform="translate(5,5)"
           style="font-size:13px; text-rendering:optimizeLegibility; color-rendering:optimizeQuality; image-rendering:optimizeQuality; font-family:'Times New Roman'; color-interpolation:linearRGB;">
            <path d="M84.249 164 L84.249 166.45"
                  style="fill:none; clip-path:url(#clipPath1);"/>
            <path d="M85.5781 179.7656 Q85.5781 177.9531 86.125 176.6406 Q86.6719 175.3281 87.5781 174.6875 Q88.2812 174.1875 89.0312 174.1875 Q90.25 174.1875 91.2188 175.4219 Q92.4375 176.9688 92.4375 179.5938 Q92.4375 181.4375 91.9062 182.7266 Q91.375 184.0156 90.5469 184.6016 Q89.7188 185.1875 88.9531 185.1875 Q87.4375 185.1875 86.4375 183.3906 Q85.5781 181.8906 85.5781 179.7656 ZM87.1094 179.9531 Q87.1094 182.1406 87.6562 183.5312 Q88.0938 184.6875 88.9844 184.6875 Q89.4062 184.6875 89.8594 184.3125 Q90.3125 183.9375 90.5469 183.0469 Q90.9062 181.7031 90.9062 179.25 Q90.9062 177.4375 90.5312 176.2344 Q90.25 175.3281 89.7969 174.9531 Q89.4844 174.7031 89.0312 174.7031 Q88.5 174.7031 88.0781 175.1719 Q87.5156 175.8281 87.3125 177.2188 Q87.1094 178.6094 87.1094 179.9531 Z"
                  style="clip-path:url(#clipPath4); stroke:none;"
                  transform="translate(-5,-5)"/>
        </g>
        <g transform="translate(5,5)"
           style="font-size:13px; text-rendering:optimizeLegibility; color-rendering:optimizeQuality; image-rendering:optimizeQuality; font-family:'Times New Roman'; color-interpolation:linearRGB;">
            <path d="M144.498 164 L144.498 166.45"
                  style="fill:none; clip-path:url(#clipPath1);"/>
            <path d="M146.875 175.4375 L149.4531 174.1875 L149.7188 174.1875 L149.7188 183.125 Q149.7188 184.0156 149.7891 184.2344 Q149.8594 184.4531 150.0938 184.5703 Q150.3281 184.6875 151.0469 184.7031 L151.0469 185 L147.0625 185 L147.0625 184.7031 Q147.8125 184.6875 148.0312 184.5781 Q148.25 184.4688 148.3359 184.2734 Q148.4219 184.0781 148.4219 183.125 L148.4219 177.4062 Q148.4219 176.25 148.3438 175.9219 Q148.2969 175.6719 148.1484 175.5547 Q148 175.4375 147.7969 175.4375 Q147.5156 175.4375 147 175.6875 L146.875 175.4375 Z"
                  style="clip-path:url(#clipPath4); stroke:none;"
                  transform="translate(-5,-5)"/>
        </g>
        <g transform="translate(5,5)"
           style="font-size:13px; text-rendering:optimizeLegibility; color-rendering:optimizeQuality; image-rendering:optimizeQuality; font-family:'Times New Roman'; color-interpolation:linearRGB;">
            <path d="M204.7471 164 L204.7471 166.45"
                  style="fill:none; clip-path:url(#clipPath1);"/>
            <path d="M212.3438 182.9531 L211.5938 185 L205.3438 185 L205.3438 184.7031 Q208.1094 182.1875 209.2344 180.5938 Q210.3594 179 210.3594 177.6875 Q210.3594 176.6719 209.7422 176.0234 Q209.125 175.375 208.2656 175.375 Q207.4844 175.375 206.8594 175.8359 Q206.2344 176.2969 205.9375 177.1719 L205.6562 177.1719 Q205.8438 175.7344 206.6562 174.9609 Q207.4688 174.1875 208.6719 174.1875 Q209.9688 174.1875 210.8281 175.0156 Q211.6875 175.8438 211.6875 176.9688 Q211.6875 177.7656 211.3125 178.5781 Q210.7344 179.8438 209.4375 181.25 Q207.5 183.375 207.0156 183.8125 L209.7812 183.8125 Q210.625 183.8125 210.9609 183.75 Q211.2969 183.6875 211.5703 183.5 Q211.8438 183.3125 212.0469 182.9531 L212.3438 182.9531 Z"
                  style="clip-path:url(#clipPath4); stroke:none;"
                  transform="translate(-5,-5)"/>
        </g>
        <g transform="translate(5,5)"
           style="font-size:13px; text-rendering:optimizeLegibility; color-rendering:optimizeQuality; image-rendering:optimizeQuality; font-family:'Times New Roman'; color-interpolation:linearRGB;">
            <path d="M264.9961 164 L264.9961 166.45"
                  style="fill:none; clip-path:url(#clipPath1);"/>
            <path d="M265.8125 176.4219 Q266.2656 175.3438 266.9609 174.7656 Q267.6562 174.1875 268.6875 174.1875 Q269.9531 174.1875 270.6406 175.0156 Q271.1562 175.625 271.1562 176.3281 Q271.1562 177.4844 269.7031 178.7188 Q270.6719 179.1094 271.1719 179.8203 Q271.6719 180.5312 271.6719 181.4844 Q271.6719 182.8594 270.7969 183.875 Q269.6562 185.1875 267.5 185.1875 Q266.4219 185.1875 266.0391 184.9219 Q265.6562 184.6562 265.6562 184.3438 Q265.6562 184.125 265.8359 183.9531 Q266.0156 183.7812 266.2812 183.7812 Q266.4688 183.7812 266.6719 183.8438 Q266.8125 183.875 267.2812 184.125 Q267.75 184.375 267.9219 184.4219 Q268.2188 184.5 268.5469 184.5 Q269.3438 184.5 269.9297 183.8828 Q270.5156 183.2656 270.5156 182.4219 Q270.5156 181.8125 270.25 181.2188 Q270.0469 180.7812 269.7969 180.5625 Q269.4688 180.25 268.8828 179.9922 Q268.2969 179.7344 267.6875 179.7344 L267.4375 179.7344 L267.4375 179.5 Q268.0469 179.4219 268.6719 179.0547 Q269.2969 178.6875 269.5781 178.1719 Q269.8594 177.6562 269.8594 177.0469 Q269.8594 176.2344 269.3516 175.7422 Q268.8438 175.25 268.0938 175.25 Q266.8906 175.25 266.0781 176.5469 L265.8125 176.4219 Z"
                  style="clip-path:url(#clipPath4); stroke:none;"
                  transform="translate(-5,-5)"/>
        </g>
        <g transform="translate(5,5)"
           style="font-size:13px; text-rendering:optimizeLegibility; color-rendering:optimizeQuality; image-rendering:optimizeQuality; font-family:'Times New Roman'; color-interpolation:linearRGB;">
            <path d="M54.1245 164 L54.1245 165.225"
                  style="fill:none; clip-path:url(#clipPath1);"/>
        </g>
        <g transform="translate(5,5)"
           style="font-size:13px; text-rendering:optimizeLegibility; color-rendering:optimizeQuality; image-rendering:optimizeQuality; font-family:'Times New Roman'; color-interpolation:linearRGB;">
            <path d="M114.3735 164 L114.3735 165.225"
                  style="fill:none; clip-path:url(#clipPath1);"/>
        </g>
        <g transform="translate(5,5)"
           style="font-size:13px; text-rendering:optimizeLegibility; color-rendering:optimizeQuality; image-rendering:optimizeQuality; font-family:'Times New Roman'; color-interpolation:linearRGB;">
            <path d="M174.6226 164 L174.6226 165.225"
                  style="fill:none; clip-path:url(#clipPath1);"/>
        </g>
        <g transform="translate(5,5)"
           style="font-size:13px; text-rendering:optimizeLegibility; color-rendering:optimizeQuality; image-rendering:optimizeQuality; font-family:'Times New Roman'; color-interpolation:linearRGB;">
            <path d="M234.8716 164 L234.8716 165.225"
                  style="fill:none; clip-path:url(#clipPath1);"/>
        </g>
        <g transform="translate(5,5)"
           style="stroke-linecap:butt; font-size:13px; text-rendering:optimizeLegibility; image-rendering:optimizeQuality; color-rendering:optimizeQuality; font-family:'Times New Roman'; stroke-linejoin:round; color-interpolation:linearRGB;">
            <path d="M22 164 L22 8.0377"
                  style="fill:none; clip-path:url(#clipPath1);"/>
            <path d="M266.9961 164 L266.9961 8.0377"
                  style="fill:none; clip-path:url(#clipPath1);"/>
        </g>
        <g transform="translate(5,5)"
           style="font-size:13px; text-rendering:optimizeLegibility; color-rendering:optimizeQuality; image-rendering:optimizeQuality; font-family:'Times New Roman'; color-interpolation:linearRGB;">
            <path d="M22 162.0005 L19.55 162.0005"
                  style="fill:none; clip-path:url(#clipPath1);"/>
            <path d="M17.5781 167.7656 Q17.5781 165.9531 18.125 164.6406 Q18.6719 163.3281 19.5781 162.6875 Q20.2812 162.1875 21.0312 162.1875 Q22.25 162.1875 23.2188 163.4219 Q24.4375 164.9688 24.4375 167.5938 Q24.4375 169.4375 23.9062 170.7266 Q23.375 172.0156 22.5469 172.6016 Q21.7188 173.1875 20.9531 173.1875 Q19.4375 173.1875 18.4375 171.3906 Q17.5781 169.8906 17.5781 167.7656 ZM19.1094 167.9531 Q19.1094 170.1406 19.6562 171.5312 Q20.0938 172.6875 20.9844 172.6875 Q21.4062 172.6875 21.8594 172.3125 Q22.3125 171.9375 22.5469 171.0469 Q22.9062 169.7031 22.9062 167.25 Q22.9062 165.4375 22.5312 164.2344 Q22.25 163.3281 21.7969 162.9531 Q21.4844 162.7031 21.0312 162.7031 Q20.5 162.7031 20.0781 163.1719 Q19.5156 163.8281 19.3125 165.2188 Q19.1094 166.6094 19.1094 167.9531 Z"
                  style="clip-path:url(#clipPath4); stroke:none;"
                  transform="translate(-5,-5)"/>
        </g>
        <g transform="translate(5,5)"
           style="font-size:13px; text-rendering:optimizeLegibility; color-rendering:optimizeQuality; image-rendering:optimizeQuality; font-family:'Times New Roman'; color-interpolation:linearRGB;">
            <path d="M22 145.1158 L19.55 145.1158"
                  style="fill:none; clip-path:url(#clipPath1);"/>
        </g>
        <g transform="translate(5,5)"
           style="font-size:13px; text-rendering:optimizeLegibility; color-rendering:optimizeQuality; image-rendering:optimizeQuality; font-family:'Times New Roman'; color-interpolation:linearRGB;">
            <path d="M22 128.231 L19.55 128.231"
                  style="fill:none; clip-path:url(#clipPath1);"/>
            <path d="M24.3438 136.9531 L23.5938 139 L17.3438 139 L17.3438 138.7031 Q20.1094 136.1875 21.2344 134.5938 Q22.3594 133 22.3594 131.6875 Q22.3594 130.6719 21.7422 130.0234 Q21.125 129.375 20.2656 129.375 Q19.4844 129.375 18.8594 129.8359 Q18.2344 130.2969 17.9375 131.1719 L17.6562 131.1719 Q17.8438 129.7344 18.6562 128.9609 Q19.4688 128.1875 20.6719 128.1875 Q21.9688 128.1875 22.8281 129.0156 Q23.6875 129.8438 23.6875 130.9688 Q23.6875 131.7656 23.3125 132.5781 Q22.7344 133.8438 21.4375 135.25 Q19.5 137.375 19.0156 137.8125 L21.7812 137.8125 Q22.625 137.8125 22.9609 137.75 Q23.2969 137.6875 23.5703 137.5 Q23.8438 137.3125 24.0469 136.9531 L24.3438 136.9531 Z"
                  style="clip-path:url(#clipPath4); stroke:none;"
                  transform="translate(-5,-5)"/>
        </g>
        <g transform="translate(5,5)"
           style="font-size:13px; text-rendering:optimizeLegibility; color-rendering:optimizeQuality; image-rendering:optimizeQuality; font-family:'Times New Roman'; color-interpolation:linearRGB;">
            <path d="M22 111.3463 L19.55 111.3463"
                  style="fill:none; clip-path:url(#clipPath1);"/>
        </g>
        <g transform="translate(5,5)"
           style="font-size:13px; text-rendering:optimizeLegibility; color-rendering:optimizeQuality; image-rendering:optimizeQuality; font-family:'Times New Roman'; color-interpolation:linearRGB;">
            <path d="M22 94.4615 L19.55 94.4615"
                  style="fill:none; clip-path:url(#clipPath1);"/>
            <path d="M24.4531 101.0938 L24.4531 102.2031 L23.0312 102.2031 L23.0312 105 L21.7344 105 L21.7344 102.2031 L17.25 102.2031 L17.25 101.2031 L22.1719 94.1875 L23.0312 94.1875 L23.0312 101.0938 L24.4531 101.0938 ZM21.7344 101.0938 L21.7344 95.8281 L18.0156 101.0938 L21.7344 101.0938 Z"
                  style="clip-path:url(#clipPath4); stroke:none;"
                  transform="translate(-5,-5)"/>
        </g>
        <g transform="translate(5,5)"
           style="font-size:13px; text-rendering:optimizeLegibility; color-rendering:optimizeQuality; image-rendering:optimizeQuality; font-family:'Times New Roman'; color-interpolation:linearRGB;">
            <path d="M22 77.5767 L19.55 77.5767"
                  style="fill:none; clip-path:url(#clipPath1);"/>
        </g>
        <g transform="translate(5,5)"
           style="font-size:13px; text-rendering:optimizeLegibility; color-rendering:optimizeQuality; image-rendering:optimizeQuality; font-family:'Times New Roman'; color-interpolation:linearRGB;">
            <path d="M22 60.692 L19.55 60.692"
                  style="fill:none; clip-path:url(#clipPath1);"/>
            <path d="M24.1719 60.1875 L24.1719 60.4688 Q23.1406 60.5781 22.4922 60.8828 Q21.8438 61.1875 21.2031 61.8203 Q20.5625 62.4531 20.1484 63.2344 Q19.7344 64.0156 19.4531 65.0781 Q20.5781 64.3125 21.7031 64.3125 Q22.7969 64.3125 23.5938 65.1875 Q24.3906 66.0625 24.3906 67.4375 Q24.3906 68.7656 23.5781 69.8594 Q22.6094 71.1875 21.0156 71.1875 Q19.9375 71.1875 19.1719 70.4688 Q17.6875 69.0625 17.6875 66.8438 Q17.6875 65.4219 18.2578 64.1406 Q18.8281 62.8594 19.8906 61.8672 Q20.9531 60.875 21.9219 60.5312 Q22.8906 60.1875 23.7188 60.1875 L24.1719 60.1875 ZM19.3125 65.6562 Q19.1719 66.7031 19.1719 67.3594 Q19.1719 68.1094 19.4531 68.9844 Q19.7344 69.8594 20.2812 70.375 Q20.6719 70.75 21.25 70.75 Q21.9219 70.75 22.4609 70.1094 Q23 69.4688 23 68.2812 Q23 66.9375 22.4688 65.9609 Q21.9375 64.9844 20.9531 64.9844 Q20.6562 64.9844 20.3203 65.1094 Q19.9844 65.2344 19.3125 65.6562 Z"
                  style="clip-path:url(#clipPath4); stroke:none;"
                  transform="translate(-5,-5)"/>
        </g>
        <g transform="translate(5,5)"
           style="font-size:13px; text-rendering:optimizeLegibility; color-rendering:optimizeQuality; image-rendering:optimizeQuality; font-family:'Times New Roman'; color-interpolation:linearRGB;">
            <path d="M22 43.8072 L19.55 43.8072"
                  style="fill:none; clip-path:url(#clipPath1);"/>
        </g>
        <g transform="translate(5,5)"
           style="font-size:13px; text-rendering:optimizeLegibility; color-rendering:optimizeQuality; image-rendering:optimizeQuality; font-family:'Times New Roman'; color-interpolation:linearRGB;">
            <path d="M22 26.9225 L19.55 26.9225"
                  style="fill:none; clip-path:url(#clipPath1);"/>
        </g>
        <g transform="translate(5,5)"
           style="font-size:13px; text-rendering:optimizeLegibility; color-rendering:optimizeQuality; image-rendering:optimizeQuality; font-family:'Times New Roman'; color-interpolation:linearRGB;">
            <path d="M22 10.0377 L19.55 10.0377"
                  style="fill:none; clip-path:url(#clipPath1);"/>
            <path d="M17.8438 21.2188 L17.8438 20.9219 Q18.8594 20.9062 19.7344 20.4531 Q20.6094 20 21.4297 18.8594 Q22.25 17.7188 22.5625 16.3438 Q21.3438 17.1406 20.3438 17.1406 Q19.2344 17.1406 18.4375 16.2734 Q17.6406 15.4062 17.6406 13.9844 Q17.6406 12.5938 18.4375 11.5 Q19.3906 10.1875 20.9375 10.1875 Q22.25 10.1875 23.1719 11.2656 Q24.3125 12.5938 24.3125 14.5625 Q24.3125 16.3281 23.4453 17.8516 Q22.5781 19.375 21.0312 20.3906 Q19.7812 21.2188 18.2969 21.2188 L17.8438 21.2188 ZM22.6875 15.7656 Q22.8281 14.75 22.8281 14.1406 Q22.8281 13.3906 22.5703 12.5078 Q22.3125 11.625 21.8438 11.1562 Q21.375 10.6875 20.7656 10.6875 Q20.0781 10.6875 19.5547 11.3125 Q19.0312 11.9375 19.0312 13.1719 Q19.0312 14.8281 19.7188 15.75 Q20.2344 16.4219 20.9688 16.4219 Q21.3281 16.4219 21.8203 16.25 Q22.3125 16.0781 22.6875 15.7656 Z"
                  style="clip-path:url(#clipPath4); stroke:none;"
                  transform="translate(-5,-5)"/>
        </g>
        <g transform="translate(5,5)"
           style="font-size:13px; text-rendering:optimizeLegibility; color-rendering:optimizeQuality; image-rendering:optimizeQuality; font-family:'Times New Roman'; color-interpolation:linearRGB;">
            <path d="M22 153.5582 L20.775 153.5582"
                  style="fill:none; clip-path:url(#clipPath1);"/>
        </g>
        <g transform="translate(5,5)"
           style="font-size:13px; text-rendering:optimizeLegibility; color-rendering:optimizeQuality; image-rendering:optimizeQuality; font-family:'Times New Roman'; color-interpolation:linearRGB;">
            <path d="M22 136.6734 L20.775 136.6734"
                  style="fill:none; clip-path:url(#clipPath1);"/>
        </g>
        <g transform="translate(5,5)"
           style="font-size:13px; text-rendering:optimizeLegibility; color-rendering:optimizeQuality; image-rendering:optimizeQuality; font-family:'Times New Roman'; color-interpolation:linearRGB;">
            <path d="M22 119.7886 L20.775 119.7886"
                  style="fill:none; clip-path:url(#clipPath1);"/>
        </g>
        <g transform="translate(5,5)"
           style="font-size:13px; text-rendering:optimizeLegibility; color-rendering:optimizeQuality; image-rendering:optimizeQuality; font-family:'Times New Roman'; color-interpolation:linearRGB;">
            <path d="M22 102.9039 L20.775 102.9039"
                  style="fill:none; clip-path:url(#clipPath1);"/>
        </g>
        <g transform="translate(5,5)"
           style="font-size:13px; text-rendering:optimizeLegibility; color-rendering:optimizeQuality; image-rendering:optimizeQuality; font-family:'Times New Roman'; color-interpolation:linearRGB;">
            <path d="M22 86.0191 L20.775 86.0191"
                  style="fill:none; clip-path:url(#clipPath1);"/>
        </g>
        <g transform="translate(5,5)"
           style="font-size:13px; text-rendering:optimizeLegibility; color-rendering:optimizeQuality; image-rendering:optimizeQuality; font-family:'Times New Roman'; color-interpolation:linearRGB;">
            <path d="M22 69.1344 L20.775 69.1344"
                  style="fill:none; clip-path:url(#clipPath1);"/>
        </g>
        <g transform="translate(5,5)"
           style="font-size:13px; text-rendering:optimizeLegibility; color-rendering:optimizeQuality; image-rendering:optimizeQuality; font-family:'Times New Roman'; color-interpolation:linearRGB;">
            <path d="M22 52.2496 L20.775 52.2496"
                  style="fill:none; clip-path:url(#clipPath1);"/>
        </g>
        <g transform="translate(5,5)"
           style="font-size:13px; text-rendering:optimizeLegibility; color-rendering:optimizeQuality; image-rendering:optimizeQuality; font-family:'Times New Roman'; color-interpolation:linearRGB;">
            <path d="M22 35.3648 L20.775 35.3648"
                  style="fill:none; clip-path:url(#clipPath1);"/>
        </g>
        <g transform="translate(5,5)"
           style="font-size:13px; text-rendering:optimizeLegibility; color-rendering:optimizeQuality; image-rendering:optimizeQuality; font-family:'Times New Roman'; color-interpolation:linearRGB;">
            <path d="M22 18.4801 L20.775 18.4801"
                  style="fill:none; clip-path:url(#clipPath1);"/>
        </g>
    </g>
</svg>
