<?xml version="1.0" encoding="UTF-8"?>
<!DOCTYPE svg PUBLIC '-//W3C//DTD SVG 1.0//EN'
    'http://www.w3.org/TR/2001/REC-SVG-20010904/DTD/svg10.dtd' >

<svg style="stroke-dasharray:none; shape-rendering:auto; font-family:'Dialog'; text-rendering:auto; fill-opacity:1; color-interpolation:auto; color-rendering:auto; font-size:12px; fill:black; stroke:black; image-rendering:auto; stroke-miterlimit:10; stroke-linecap:square; stroke-linejoin:miter; font-style:normal; stroke-width:1; stroke-dashoffset:0; font-weight:normal; stroke-opacity:1;"
     xmlns="http://www.w3.org/2000/svg" contentScriptType="text/ecmascript"
     preserveAspectRatio="xMidYMid meet"
     xmlns:xlink="http://www.w3.org/1999/xlink" zoomAndPan="magnify"
     version="1.0" contentStyleType="text/css">
    <!--Generated by the Batik Graphics2D SVG Generator-->
    <defs id="genericDefs"/>
    <g>
        <defs id="defs1">
            <clipPath clipPathUnits="userSpaceOnUse" id="clipPath1">
                <path d="M0 0 L410 0 L410 382 L0 382 L0 0 Z"/>
            </clipPath>
            <clipPath clipPathUnits="userSpaceOnUse" id="clipPath2">
                <path d="M68 4.01 L68 350 L408.1022 350 L408.1022 4.01 Z"/>
            </clipPath>
            <clipPath clipPathUnits="userSpaceOnUse" id="clipPath3">
                <path d="M206 366 L206 381 L268 381 L268 366 Z"/>
            </clipPath>
            <clipPath clipPathUnits="userSpaceOnUse" id="clipPath4">
                <path d="M-13 -3 L-13 12 L49 12 L49 -3 Z"/>
            </clipPath>
            <clipPath clipPathUnits="userSpaceOnUse" id="clipPath5">
                <path d="M-23 -3 L-23 12 L39 12 L39 -3 Z"/>
            </clipPath>
            <clipPath clipPathUnits="userSpaceOnUse" id="clipPath6">
                <path d="M5 22 L415 22 L415 404 L5 404 L5 22 Z"/>
            </clipPath>
            <clipPath clipPathUnits="userSpaceOnUse" id="clipPath7">
                <path d="M1 169 L1 186 L49 186 L49 169 Z"/>
            </clipPath>
            <clipPath clipPathUnits="userSpaceOnUse" id="clipPath8">
                <path d="M-14 -5 L-14 12 L34 12 L34 -5 Z"/>
            </clipPath>
            <clipPath clipPathUnits="userSpaceOnUse" id="clipPath9">
                <path d="M-24 -5 L-24 12 L24 12 L24 -5 Z"/>
            </clipPath>
            <clipPath clipPathUnits="userSpaceOnUse" id="clipPath10">
                <path d="M0 0 L411 0 L411 12 L0 12 L0 0 Z"/>
            </clipPath>
            <clipPath clipPathUnits="userSpaceOnUse" id="clipPath11">
                <path d="M0 0 L411 0 L411 18 L0 18 L0 0 Z"/>
            </clipPath>
        </defs>
        <g transform="translate(5,22)"
           style="stroke-linecap:butt; font-size:9px; fill:rgb(165,165,165); text-rendering:optimizeLegibility; image-rendering:optimizeQuality; color-rendering:optimizeQuality; font-family:'Times New Roman'; stroke-linejoin:round; stroke:rgb(165,165,165); color-interpolation:linearRGB;">
            <path d="M71 349 L71 6.01"
                  style="fill:none; clip-path:url(#clipPath1);"/>
            <path d="M112.5232 349 L112.5232 6.01"
                  style="fill:none; clip-path:url(#clipPath1);"/>
            <path d="M154.0463 349 L154.0463 6.01"
                  style="fill:none; clip-path:url(#clipPath1);"/>
            <path d="M195.5695 349 L195.5695 6.01"
                  style="fill:none; clip-path:url(#clipPath1);"/>
            <path d="M237.0926 349 L237.0926 6.01"
                  style="fill:none; clip-path:url(#clipPath1);"/>
            <path d="M278.6158 349 L278.6158 6.01"
                  style="fill:none; clip-path:url(#clipPath1);"/>
            <path d="M320.1389 349 L320.1389 6.01"
                  style="fill:none; clip-path:url(#clipPath1);"/>
            <path d="M361.6621 349 L361.6621 6.01"
                  style="fill:none; clip-path:url(#clipPath1);"/>
            <path d="M403.1852 349 L403.1852 6.01"
                  style="fill:none; clip-path:url(#clipPath1);"/>
            <path d="M91.7616 349 L91.7616 6.01"
                  style="fill:none; clip-path:url(#clipPath1); stroke:rgb(233,233,233);"/>
            <path d="M133.2847 349 L133.2847 6.01"
                  style="fill:none; clip-path:url(#clipPath1); stroke:rgb(233,233,233);"/>
            <path d="M174.8079 349 L174.8079 6.01"
                  style="fill:none; clip-path:url(#clipPath1); stroke:rgb(233,233,233);"/>
            <path d="M216.3311 349 L216.3311 6.01"
                  style="fill:none; clip-path:url(#clipPath1); stroke:rgb(233,233,233);"/>
            <path d="M257.8542 349 L257.8542 6.01"
                  style="fill:none; clip-path:url(#clipPath1); stroke:rgb(233,233,233);"/>
            <path d="M299.3774 349 L299.3774 6.01"
                  style="fill:none; clip-path:url(#clipPath1); stroke:rgb(233,233,233);"/>
            <path d="M340.9005 349 L340.9005 6.01"
                  style="fill:none; clip-path:url(#clipPath1); stroke:rgb(233,233,233);"/>
            <path d="M382.4237 349 L382.4237 6.01"
                  style="fill:none; clip-path:url(#clipPath1); stroke:rgb(233,233,233);"/>
        </g>
        <g transform="translate(5,22)"
           style="stroke-linecap:butt; font-size:9px; fill:rgb(165,165,165); text-rendering:optimizeLegibility; image-rendering:optimizeQuality; color-rendering:optimizeQuality; font-family:'Times New Roman'; stroke-linejoin:round; stroke:rgb(165,165,165); color-interpolation:linearRGB;">
            <path d="M69 347.0001 L406.1022 347.0001"
                  style="fill:none; clip-path:url(#clipPath1);"/>
            <path d="M69 279.2024 L406.1022 279.2024"
                  style="fill:none; clip-path:url(#clipPath1);"/>
            <path d="M69 211.4047 L406.1022 211.4047"
                  style="fill:none; clip-path:url(#clipPath1);"/>
            <path d="M69 143.607 L406.1022 143.607"
                  style="fill:none; clip-path:url(#clipPath1);"/>
            <path d="M69 75.8093 L406.1022 75.8093"
                  style="fill:none; clip-path:url(#clipPath1);"/>
            <path d="M69 8.0116 L406.1022 8.0116"
                  style="fill:none; clip-path:url(#clipPath1);"/>
            <path d="M69 333.4406 L406.1022 333.4406"
                  style="fill:none; clip-path:url(#clipPath1); stroke:rgb(233,233,233);"/>
            <path d="M69 319.881 L406.1022 319.881"
                  style="fill:none; clip-path:url(#clipPath1); stroke:rgb(233,233,233);"/>
            <path d="M69 306.3215 L406.1022 306.3215"
                  style="fill:none; clip-path:url(#clipPath1); stroke:rgb(233,233,233);"/>
            <path d="M69 292.7619 L406.1022 292.7619"
                  style="fill:none; clip-path:url(#clipPath1); stroke:rgb(233,233,233);"/>
            <path d="M69 265.6429 L406.1022 265.6429"
                  style="fill:none; clip-path:url(#clipPath1); stroke:rgb(233,233,233);"/>
            <path d="M69 252.0833 L406.1022 252.0833"
                  style="fill:none; clip-path:url(#clipPath1); stroke:rgb(233,233,233);"/>
            <path d="M69 238.5238 L406.1022 238.5238"
                  style="fill:none; clip-path:url(#clipPath1); stroke:rgb(233,233,233);"/>
            <path d="M69 224.9642 L406.1022 224.9642"
                  style="fill:none; clip-path:url(#clipPath1); stroke:rgb(233,233,233);"/>
            <path d="M69 197.8452 L406.1022 197.8452"
                  style="fill:none; clip-path:url(#clipPath1); stroke:rgb(233,233,233);"/>
            <path d="M69 184.2856 L406.1022 184.2856"
                  style="fill:none; clip-path:url(#clipPath1); stroke:rgb(233,233,233);"/>
            <path d="M69 170.7261 L406.1022 170.7261"
                  style="fill:none; clip-path:url(#clipPath1); stroke:rgb(233,233,233);"/>
            <path d="M69 157.1665 L406.1022 157.1665"
                  style="fill:none; clip-path:url(#clipPath1); stroke:rgb(233,233,233);"/>
            <path d="M69 130.0475 L406.1022 130.0475"
                  style="fill:none; clip-path:url(#clipPath1); stroke:rgb(233,233,233);"/>
            <path d="M69 116.4879 L406.1022 116.4879"
                  style="fill:none; clip-path:url(#clipPath1); stroke:rgb(233,233,233);"/>
            <path d="M69 102.9284 L406.1022 102.9284"
                  style="fill:none; clip-path:url(#clipPath1); stroke:rgb(233,233,233);"/>
            <path d="M69 89.3688 L406.1022 89.3688"
                  style="fill:none; clip-path:url(#clipPath1); stroke:rgb(233,233,233);"/>
            <path d="M69 62.2498 L406.1022 62.2498"
                  style="fill:none; clip-path:url(#clipPath1); stroke:rgb(233,233,233);"/>
            <path d="M69 48.6902 L406.1022 48.6902"
                  style="fill:none; clip-path:url(#clipPath1); stroke:rgb(233,233,233);"/>
            <path d="M69 35.1307 L406.1022 35.1307"
                  style="fill:none; clip-path:url(#clipPath1); stroke:rgb(233,233,233);"/>
            <path d="M69 21.5711 L406.1022 21.5711"
                  style="fill:none; clip-path:url(#clipPath1); stroke:rgb(233,233,233);"/>
        </g>
        <g style="stroke-linecap:butt; font-size:13px; fill:rgb(86,180,233); text-rendering:optimizeLegibility; image-rendering:optimizeQuality; color-rendering:optimizeQuality; font-family:'Times New Roman'; stroke-linejoin:round; stroke:rgb(86,180,233); color-interpolation:linearRGB; stroke-width:1.5;"
           transform="translate(5,22)">
            <path d="M71 347 L73.6228 344.5408 L76.2457 342.0752 L78.8686 339.6032 L81.4914 337.1249 L84.1143 334.6403 L86.7371 332.1496 L89.36 329.6528 L91.9828 327.1499 L94.6057 324.6411 L97.2285 322.1265 L99.8514 319.6061 L102.4742 317.0799 L105.0971 314.5481 L107.7199 312.0107 L110.3428 309.4679 L112.9656 306.9196 L115.5885 304.366 L118.2113 301.8071 L120.8342 299.2431 L123.457 296.674 L126.0799 294.0998 L128.7027 291.5206 L131.3256 288.9366 L133.9484 286.3478 L136.5713 283.7543 L139.1942 281.1561 L141.817 278.5534 L144.4398 275.9462 L147.0627 273.3347 L149.6855 270.7187 L152.3084 268.0985 L154.9313 265.4742 L157.5541 262.8458 L160.177 260.2133 L162.7998 257.577 L165.4227 254.9368 L168.0455 252.2928 L170.6684 249.6451 L173.2912 246.9938 L175.9141 244.339 L178.5369 241.6807 L181.1598 239.019 L183.7826 236.354 L186.4055 233.6858 L189.0283 231.0145 L191.6512 228.34 L194.274 225.6626 L196.8969 222.9823 L199.5197 220.2991 L202.1426 217.6132 L204.7654 214.9246 L207.3883 212.2334 L210.0111 209.5397 L212.634 206.8435 L215.2569 204.1449 L217.8797 201.4441 L220.5025 198.741 L223.1254 196.0358 L225.7482 193.3284 L228.3711 190.6191 L230.994 187.9079 L233.6168 185.1948 L236.2397 182.48 L238.8625 179.7634 L241.4854 177.0452 L244.1082 174.3254 L246.7311 171.6042 L249.3539 168.8815 L251.9768 166.1575 L254.5996 163.4322 L257.2225 160.7057 L259.8453 157.9781 L262.4682 155.2494 L265.091 152.5197 L267.7139 149.7891 L270.3367 147.0576 L272.9596 144.3253 L275.5825 141.5923 L278.2053 138.8587 L280.8281 136.1244 L283.451 133.3896 L286.0739 130.6544 L288.6967 127.9187 L291.3195 125.1828 L293.9424 122.4465 L296.5652 119.71 L299.1881 116.9734 L301.811 114.2367 L304.4338 111.4999 L307.0567 108.7632 L309.6795 106.0266 L312.3024 103.2901 L314.9252 100.5538 L317.5481 97.8178 L320.1709 95.0821 L322.7938 92.3468 L325.4166 89.6119 L328.0395 86.8775 L330.6623 84.1436 L333.2852 81.4104 L335.908 78.6777 L338.5309 75.9458 L341.1537 73.2146 L343.7766 70.4842 L346.3994 67.7547 L349.0223 65.026 L351.6451 62.2983 L354.268 59.5716 L356.8908 56.8459 L359.5137 54.1213 L362.1365 51.3979 L364.7594 48.6756 L367.3822 45.9545 L370.0051 43.2347 L372.628 40.5162 L375.2508 37.799 L377.8737 35.0832 L380.4965 32.3689 L383.1194 29.656 L385.7422 26.9446 L388.3651 24.2347 L390.9879 21.5265 L393.6108 18.8198 L396.2336 16.1148 L398.8565 13.4115 L401.4793 10.7098 L404.1022 8.01"
                  style="fill:none; clip-path:url(#clipPath2);"/>
        </g>
        <g transform="translate(5,22)"
           style="stroke-linecap:butt; font-size:9px; text-rendering:optimizeLegibility; image-rendering:optimizeQuality; color-rendering:optimizeQuality; font-family:'Times New Roman'; stroke-linejoin:round; color-interpolation:linearRGB;">
            <path d="M69 349 L406.1022 349"
                  style="fill:none; clip-path:url(#clipPath1);"/>
            <path d="M69 6.01 L406.1022 6.01"
                  style="fill:none; clip-path:url(#clipPath1);"/>
        </g>
        <g transform="translate(5,22)"
           style="stroke-linecap:butt; font-size:9px; text-rendering:optimizeLegibility; image-rendering:optimizeQuality; color-rendering:optimizeQuality; font-family:'Times New Roman'; stroke-linejoin:round; color-interpolation:linearRGB;">
            <path d="M216.7188 372.25 L216.3281 374.2031 L216.0938 374.2031 Q216.0625 373.3594 215.7344 372.9688 Q215.4062 372.5781 214.9062 372.5781 Q214.5156 372.5781 214.2891 372.7969 Q214.0625 373.0156 214.0625 373.3125 Q214.0625 373.5312 214.1484 373.7188 Q214.2344 373.9062 214.5469 374.25 Q215.375 375.1562 215.6172 375.6094 Q215.8594 376.0625 215.8594 376.4688 Q215.8594 377.125 215.3125 377.6406 Q214.7656 378.1562 213.9219 378.1562 Q213.4688 378.1562 212.875 377.9375 Q212.6562 377.8594 212.5469 377.8594 Q212.2656 377.8594 212.1094 378.1562 L211.875 378.1562 L212.2656 376.0938 L212.5 376.0938 Q212.5469 377.0625 212.9062 377.4609 Q213.2656 377.8594 213.8906 377.8594 Q214.375 377.8594 214.6562 377.5938 Q214.9375 377.3281 214.9375 376.9219 Q214.9375 376.6719 214.8438 376.4531 Q214.6562 376.0781 214.0938 375.4062 Q213.5312 374.7344 213.3672 374.3984 Q213.2031 374.0625 213.2031 373.7188 Q213.2031 373.1094 213.6484 372.6797 Q214.0938 372.25 214.7969 372.25 Q215 372.25 215.1719 372.2812 Q215.25 372.3125 215.5781 372.4297 Q215.9062 372.5469 216.0156 372.5469 Q216.2969 372.5469 216.4688 372.25 L216.7188 372.25 Z"
                  style="stroke:none; clip-path:url(#clipPath3);"/>
            <path d="M227.375 370.6875 L226.875 372.4062 L227.875 372.4062 L227.7656 372.8125 L226.7812 372.8125 L225.6875 376.5469 Q225.5156 377.1562 225.5156 377.3281 Q225.5156 377.4375 225.5625 377.5 Q225.6094 377.5625 225.6875 377.5625 Q225.8438 377.5625 226.0938 377.3281 Q226.25 377.2031 226.7812 376.5469 L226.9844 376.7188 Q226.4062 377.5625 225.8906 377.9062 Q225.5312 378.1562 225.1719 378.1562 Q224.8906 378.1562 224.7109 377.9766 Q224.5312 377.7969 224.5312 377.5312 Q224.5312 377.1875 224.7344 376.4844 L225.7969 372.8125 L224.8438 372.8125 L224.9062 372.5625 Q225.5938 372.375 226.0625 371.9922 Q226.5312 371.6094 227.0938 370.6875 L227.375 370.6875 Z"
                  style="clip-path:url(#clipPath3); stroke:none;"/>
            <path d="M2.6577 11.694 L2.4644 12 Q0 10.4698 0 5.88 L0 6 L0 6.12 Q0 1.5141 2.4644 0 L2.6577 0.2899 Q1.5624 1.2242 1.1919 2.9154 Q0.9664 3.9624 0.9664 5.88 L0.9664 6 L0.9664 6.12 Q0.9664 8.0215 1.1919 9.0685 Q1.5624 10.7597 2.6577 11.694 Z"
                  style="clip-path:url(#clipPath4); stroke:none;"
                  transform="translate(219,369)"/>
            <path d="M0 0.306 L0.1933 0 Q2.6577 1.5302 2.6577 6.12 L2.6577 6 L2.6577 5.88 Q2.6577 10.4859 0.1933 12 L0 11.7101 Q1.0953 10.7758 1.4658 9.0846 Q1.6913 8.0376 1.6913 6.12 L1.6913 6 L1.6913 5.88 Q1.6913 3.9785 1.4658 2.9315 Q1.0953 1.2403 0 0.306 Z"
                  style="clip-path:url(#clipPath5); stroke:none;"
                  transform="translate(229,369)"/>
            <path d="M238.8594 380.5781 L236.0625 380.5781 L236.0625 369.2031 L238.8594 369.2031 L238.8594 369.7031 L237.0156 369.7031 L237.0156 380.0781 L238.8594 380.0781 L238.8594 380.5781 ZM241.4697 373.25 Q242.0947 372.6094 242.2041 372.5156 Q242.501 372.2812 242.8291 372.1484 Q243.1572 372.0156 243.4854 372.0156 Q244.0322 372.0156 244.4229 372.3359 Q244.8135 372.6562 244.9541 373.25 Q245.5947 372.4844 246.0479 372.25 Q246.501 372.0156 246.9854 372.0156 Q247.4385 372.0156 247.7979 372.25 Q248.1572 372.4844 248.376 373.0312 Q248.501 373.3906 248.501 374.1875 L248.501 376.6875 Q248.501 377.2344 248.5947 377.4375 Q248.6572 377.5781 248.8291 377.6719 Q249.001 377.7656 249.3916 377.7656 L249.3916 378 L246.5166 378 L246.5166 377.7656 L246.6416 377.7656 Q247.0166 377.7656 247.2197 377.625 Q247.3604 377.5312 247.4229 377.2969 Q247.4541 377.1875 247.4541 376.6875 L247.4541 374.1875 Q247.4541 373.4688 247.2822 373.1875 Q247.0322 372.7812 246.4854 372.7812 Q246.1572 372.7812 245.8135 372.9453 Q245.4697 373.1094 244.9854 373.5625 L244.9854 373.6406 L244.9854 373.9062 L244.9854 376.6875 Q244.9854 377.2812 245.0557 377.4297 Q245.126 377.5781 245.3057 377.6719 Q245.4854 377.7656 245.9385 377.7656 L245.9385 378 L243.001 378 L243.001 377.7656 Q243.4854 377.7656 243.665 377.6562 Q243.8447 377.5469 243.9072 377.3125 Q243.9385 377.2031 243.9385 376.6875 L243.9385 374.1875 Q243.9385 373.4688 243.7354 373.1562 Q243.4541 372.75 242.9541 372.75 Q242.6104 372.75 242.2822 372.9375 Q241.751 373.2188 241.4697 373.5625 L241.4697 376.6875 Q241.4697 377.25 241.5479 377.4219 Q241.626 377.5938 241.7822 377.6797 Q241.9385 377.7656 242.4072 377.7656 L242.4072 378 L239.5322 378 L239.5322 377.7656 Q239.9385 377.7656 240.0947 377.6797 Q240.251 377.5938 240.3291 377.4062 Q240.4072 377.2188 240.4072 376.6875 L240.4072 374.4688 Q240.4072 373.5 240.3604 373.2188 Q240.3135 373.0156 240.2197 372.9375 Q240.126 372.8594 239.9541 372.8594 Q239.7822 372.8594 239.5322 372.9531 L239.4385 372.7188 L241.1885 372.0156 L241.4697 372.0156 L241.4697 373.25 ZM251.5815 373.25 Q252.2065 372.6094 252.3159 372.5156 Q252.6128 372.2812 252.9409 372.1484 Q253.269 372.0156 253.5972 372.0156 Q254.144 372.0156 254.5347 372.3359 Q254.9253 372.6562 255.0659 373.25 Q255.7065 372.4844 256.1597 372.25 Q256.6128 372.0156 257.0972 372.0156 Q257.5503 372.0156 257.9097 372.25 Q258.269 372.4844 258.4878 373.0312 Q258.6128 373.3906 258.6128 374.1875 L258.6128 376.6875 Q258.6128 377.2344 258.7065 377.4375 Q258.769 377.5781 258.9409 377.6719 Q259.1128 377.7656 259.5034 377.7656 L259.5034 378 L256.6284 378 L256.6284 377.7656 L256.7534 377.7656 Q257.1284 377.7656 257.3315 377.625 Q257.4722 377.5312 257.5347 377.2969 Q257.5659 377.1875 257.5659 376.6875 L257.5659 374.1875 Q257.5659 373.4688 257.394 373.1875 Q257.144 372.7812 256.5972 372.7812 Q256.269 372.7812 255.9253 372.9453 Q255.5815 373.1094 255.0972 373.5625 L255.0972 373.6406 L255.0972 373.9062 L255.0972 376.6875 Q255.0972 377.2812 255.1675 377.4297 Q255.2378 377.5781 255.4175 377.6719 Q255.5972 377.7656 256.0503 377.7656 L256.0503 378 L253.1128 378 L253.1128 377.7656 Q253.5972 377.7656 253.7769 377.6562 Q253.9565 377.5469 254.019 377.3125 Q254.0503 377.2031 254.0503 376.6875 L254.0503 374.1875 Q254.0503 373.4688 253.8472 373.1562 Q253.5659 372.75 253.0659 372.75 Q252.7222 372.75 252.394 372.9375 Q251.8628 373.2188 251.5815 373.5625 L251.5815 376.6875 Q251.5815 377.25 251.6597 377.4219 Q251.7378 377.5938 251.894 377.6797 Q252.0503 377.7656 252.519 377.7656 L252.519 378 L249.644 378 L249.644 377.7656 Q250.0503 377.7656 250.2065 377.6797 Q250.3628 377.5938 250.4409 377.4062 Q250.519 377.2188 250.519 376.6875 L250.519 374.4688 Q250.519 373.5 250.4722 373.2188 Q250.4253 373.0156 250.3315 372.9375 Q250.2378 372.8594 250.0659 372.8594 Q249.894 372.8594 249.644 372.9531 L249.5503 372.7188 L251.3003 372.0156 L251.5815 372.0156 L251.5815 373.25 ZM260.0215 369.2031 L262.8184 369.2031 L262.8184 380.5781 L260.0215 380.5781 L260.0215 380.0781 L261.8652 380.0781 L261.8652 369.7031 L260.0215 369.7031 L260.0215 369.2031 Z"
                  style="clip-path:url(#clipPath3); stroke:none;"/>
        </g>
        <g transform="translate(5,22)"
           style="font-size:9px; text-rendering:optimizeLegibility; color-rendering:optimizeQuality; image-rendering:optimizeQuality; font-family:'Times New Roman'; color-interpolation:linearRGB;">
            <path d="M71 349 L71 353.2"
                  style="fill:none; clip-path:url(#clipPath1);"/>
            <path d="M74.3906 382.4062 Q74.3906 381.1562 74.7734 380.2578 Q75.1562 379.3594 75.7656 378.9219 Q76.25 378.5625 76.7656 378.5625 Q77.6094 378.5625 78.2812 379.4219 Q79.1094 380.4844 79.1094 382.2812 Q79.1094 383.5625 78.7422 384.4453 Q78.375 385.3281 77.8125 385.7266 Q77.25 386.125 76.7188 386.125 Q75.6719 386.125 74.9844 384.9062 Q74.3906 383.8594 74.3906 382.4062 ZM75.4531 382.5312 Q75.4531 384.0469 75.8281 384.9844 Q76.125 385.7969 76.7344 385.7969 Q77.0312 385.7969 77.3359 385.5312 Q77.6406 385.2656 77.8125 384.6562 Q78.0625 383.7344 78.0625 382.0469 Q78.0625 380.8125 77.7969 379.9688 Q77.6094 379.3594 77.2969 379.0938 Q77.0781 378.9219 76.7656 378.9219 Q76.4062 378.9219 76.1094 379.25 Q75.7344 379.6875 75.5938 380.6484 Q75.4531 381.6094 75.4531 382.5312 Z"
                  style="clip-path:url(#clipPath6); stroke:none;"
                  transform="translate(-5,-22)"/>
        </g>
        <g transform="translate(5,22)"
           style="font-size:9px; text-rendering:optimizeLegibility; color-rendering:optimizeQuality; image-rendering:optimizeQuality; font-family:'Times New Roman'; color-interpolation:linearRGB;">
            <path d="M112.5232 349 L112.5232 353.2"
                  style="fill:none; clip-path:url(#clipPath1);"/>
            <path d="M113.2969 379.4375 L115.0625 378.5625 L115.2344 378.5625 L115.2344 384.7188 Q115.2344 385.3281 115.2891 385.4766 Q115.3438 385.625 115.5 385.7109 Q115.6562 385.7969 116.1562 385.7969 L116.1562 386 L113.4219 386 L113.4219 385.7969 Q113.9375 385.7969 114.0859 385.7188 Q114.2344 385.6406 114.2969 385.5078 Q114.3594 385.375 114.3594 384.7188 L114.3594 380.7812 Q114.3594 379.9844 114.2969 379.7656 Q114.2656 379.5938 114.1641 379.5156 Q114.0625 379.4375 113.9219 379.4375 Q113.7188 379.4375 113.375 379.5938 L113.2969 379.4375 ZM117.8906 382.4062 Q117.8906 381.1562 118.2734 380.2578 Q118.6562 379.3594 119.2656 378.9219 Q119.75 378.5625 120.2656 378.5625 Q121.1094 378.5625 121.7812 379.4219 Q122.6094 380.4844 122.6094 382.2812 Q122.6094 383.5625 122.2422 384.4453 Q121.875 385.3281 121.3125 385.7266 Q120.75 386.125 120.2188 386.125 Q119.1719 386.125 118.4844 384.9062 Q117.8906 383.8594 117.8906 382.4062 ZM118.9531 382.5312 Q118.9531 384.0469 119.3281 384.9844 Q119.625 385.7969 120.2344 385.7969 Q120.5312 385.7969 120.8359 385.5312 Q121.1406 385.2656 121.3125 384.6562 Q121.5625 383.7344 121.5625 382.0469 Q121.5625 380.8125 121.2969 379.9688 Q121.1094 379.3594 120.7969 379.0938 Q120.5781 378.9219 120.2656 378.9219 Q119.9062 378.9219 119.6094 379.25 Q119.2344 379.6875 119.0938 380.6484 Q118.9531 381.6094 118.9531 382.5312 Z"
                  style="clip-path:url(#clipPath6); stroke:none;"
                  transform="translate(-5,-22)"/>
        </g>
        <g transform="translate(5,22)"
           style="font-size:9px; text-rendering:optimizeLegibility; color-rendering:optimizeQuality; image-rendering:optimizeQuality; font-family:'Times New Roman'; color-interpolation:linearRGB;">
            <path d="M154.0463 349 L154.0463 353.2"
                  style="fill:none; clip-path:url(#clipPath1);"/>
            <path d="M159.0469 384.5938 L158.5312 386 L154.2344 386 L154.2344 385.7969 Q156.125 384.0781 156.8984 382.9766 Q157.6719 381.875 157.6719 380.9688 Q157.6719 380.2812 157.25 379.8359 Q156.8281 379.3906 156.2344 379.3906 Q155.7031 379.3906 155.2734 379.7031 Q154.8438 380.0156 154.6406 380.625 L154.4531 380.625 Q154.5781 379.625 155.1328 379.0938 Q155.6875 378.5625 156.5312 378.5625 Q157.4062 378.5625 158 379.1328 Q158.5938 379.7031 158.5938 380.4844 Q158.5938 381.0312 158.3438 381.5781 Q157.9375 382.4531 157.0469 383.4219 Q155.7188 384.8906 155.375 385.1875 L157.2812 385.1875 Q157.8594 385.1875 158.0938 385.1484 Q158.3281 385.1094 158.5156 384.9766 Q158.7031 384.8438 158.8438 384.5938 L159.0469 384.5938 ZM159.8906 382.4062 Q159.8906 381.1562 160.2734 380.2578 Q160.6562 379.3594 161.2656 378.9219 Q161.75 378.5625 162.2656 378.5625 Q163.1094 378.5625 163.7812 379.4219 Q164.6094 380.4844 164.6094 382.2812 Q164.6094 383.5625 164.2422 384.4453 Q163.875 385.3281 163.3125 385.7266 Q162.75 386.125 162.2188 386.125 Q161.1719 386.125 160.4844 384.9062 Q159.8906 383.8594 159.8906 382.4062 ZM160.9531 382.5312 Q160.9531 384.0469 161.3281 384.9844 Q161.625 385.7969 162.2344 385.7969 Q162.5312 385.7969 162.8359 385.5312 Q163.1406 385.2656 163.3125 384.6562 Q163.5625 383.7344 163.5625 382.0469 Q163.5625 380.8125 163.2969 379.9688 Q163.1094 379.3594 162.7969 379.0938 Q162.5781 378.9219 162.2656 378.9219 Q161.9062 378.9219 161.6094 379.25 Q161.2344 379.6875 161.0938 380.6484 Q160.9531 381.6094 160.9531 382.5312 Z"
                  style="clip-path:url(#clipPath6); stroke:none;"
                  transform="translate(-5,-22)"/>
        </g>
        <g transform="translate(5,22)"
           style="font-size:9px; text-rendering:optimizeLegibility; color-rendering:optimizeQuality; image-rendering:optimizeQuality; font-family:'Times New Roman'; color-interpolation:linearRGB;">
            <path d="M195.5695 349 L195.5695 353.2"
                  style="fill:none; clip-path:url(#clipPath1);"/>
            <path d="M195.5625 380.1094 Q195.875 379.3594 196.3516 378.9609 Q196.8281 378.5625 197.5312 378.5625 Q198.4062 378.5625 198.875 379.1406 Q199.2344 379.5625 199.2344 380.0469 Q199.2344 380.8438 198.2344 381.6875 Q198.9062 381.9531 199.25 382.4375 Q199.5938 382.9219 199.5938 383.5938 Q199.5938 384.5312 198.9844 385.2188 Q198.2031 386.125 196.7188 386.125 Q195.9844 386.125 195.7188 385.9453 Q195.4531 385.7656 195.4531 385.5469 Q195.4531 385.3906 195.5781 385.2734 Q195.7031 385.1562 195.875 385.1562 Q196.0156 385.1562 196.1562 385.2031 Q196.2344 385.2344 196.5625 385.3984 Q196.8906 385.5625 197.0156 385.6094 Q197.2031 385.6562 197.4375 385.6562 Q197.9844 385.6562 198.3906 385.2344 Q198.7969 384.8125 198.7969 384.2344 Q198.7969 383.8125 198.6094 383.4062 Q198.4688 383.1094 198.2969 382.9531 Q198.0625 382.7344 197.6641 382.5625 Q197.2656 382.3906 196.8438 382.3906 L196.6719 382.3906 L196.6719 382.2188 Q197.0938 382.1719 197.5234 381.9219 Q197.9531 381.6719 198.1406 381.3125 Q198.3281 380.9531 198.3281 380.5312 Q198.3281 379.9844 197.9844 379.6406 Q197.6406 379.2969 197.125 379.2969 Q196.2969 379.2969 195.7344 380.1875 L195.5625 380.1094 ZM200.8906 382.4062 Q200.8906 381.1562 201.2734 380.2578 Q201.6562 379.3594 202.2656 378.9219 Q202.75 378.5625 203.2656 378.5625 Q204.1094 378.5625 204.7812 379.4219 Q205.6094 380.4844 205.6094 382.2812 Q205.6094 383.5625 205.2422 384.4453 Q204.875 385.3281 204.3125 385.7266 Q203.75 386.125 203.2188 386.125 Q202.1719 386.125 201.4844 384.9062 Q200.8906 383.8594 200.8906 382.4062 ZM201.9531 382.5312 Q201.9531 384.0469 202.3281 384.9844 Q202.625 385.7969 203.2344 385.7969 Q203.5312 385.7969 203.8359 385.5312 Q204.1406 385.2656 204.3125 384.6562 Q204.5625 383.7344 204.5625 382.0469 Q204.5625 380.8125 204.2969 379.9688 Q204.1094 379.3594 203.7969 379.0938 Q203.5781 378.9219 203.2656 378.9219 Q202.9062 378.9219 202.6094 379.25 Q202.2344 379.6875 202.0938 380.6484 Q201.9531 381.6094 201.9531 382.5312 Z"
                  style="clip-path:url(#clipPath6); stroke:none;"
                  transform="translate(-5,-22)"/>
        </g>
        <g transform="translate(5,22)"
           style="font-size:9px; text-rendering:optimizeLegibility; color-rendering:optimizeQuality; image-rendering:optimizeQuality; font-family:'Times New Roman'; color-interpolation:linearRGB;">
            <path d="M237.0926 349 L237.0926 353.2"
                  style="fill:none; clip-path:url(#clipPath1);"/>
            <path d="M242.125 383.3125 L242.125 384.0781 L241.1406 384.0781 L241.1406 386 L240.25 386 L240.25 384.0781 L237.1719 384.0781 L237.1719 383.3906 L240.5469 378.5625 L241.1406 378.5625 L241.1406 383.3125 L242.125 383.3125 ZM240.25 383.3125 L240.25 379.7031 L237.7031 383.3125 L240.25 383.3125 ZM242.8906 382.4062 Q242.8906 381.1562 243.2734 380.2578 Q243.6562 379.3594 244.2656 378.9219 Q244.75 378.5625 245.2656 378.5625 Q246.1094 378.5625 246.7812 379.4219 Q247.6094 380.4844 247.6094 382.2812 Q247.6094 383.5625 247.2422 384.4453 Q246.875 385.3281 246.3125 385.7266 Q245.75 386.125 245.2188 386.125 Q244.1719 386.125 243.4844 384.9062 Q242.8906 383.8594 242.8906 382.4062 ZM243.9531 382.5312 Q243.9531 384.0469 244.3281 384.9844 Q244.625 385.7969 245.2344 385.7969 Q245.5312 385.7969 245.8359 385.5312 Q246.1406 385.2656 246.3125 384.6562 Q246.5625 383.7344 246.5625 382.0469 Q246.5625 380.8125 246.2969 379.9688 Q246.1094 379.3594 245.7969 379.0938 Q245.5781 378.9219 245.2656 378.9219 Q244.9062 378.9219 244.6094 379.25 Q244.2344 379.6875 244.0938 380.6484 Q243.9531 381.6094 243.9531 382.5312 Z"
                  style="clip-path:url(#clipPath6); stroke:none;"
                  transform="translate(-5,-22)"/>
        </g>
        <g transform="translate(5,22)"
           style="font-size:9px; text-rendering:optimizeLegibility; color-rendering:optimizeQuality; image-rendering:optimizeQuality; font-family:'Times New Roman'; color-interpolation:linearRGB;">
            <path d="M278.6158 349 L278.6158 353.2"
                  style="fill:none; clip-path:url(#clipPath1);"/>
            <path d="M282.7812 378.7188 L282.3594 379.625 L280.1719 379.625 L279.6875 380.6094 Q281.1094 380.8125 281.9375 381.6719 Q282.6562 382.3906 282.6562 383.3906 Q282.6562 383.9531 282.4219 384.4453 Q282.1875 384.9375 281.8359 385.2812 Q281.4844 385.625 281.0469 385.8281 Q280.4219 386.125 279.7812 386.125 Q279.125 386.125 278.8281 385.9062 Q278.5312 385.6875 278.5312 385.4219 Q278.5312 385.2656 278.6562 385.1484 Q278.7812 385.0312 278.9688 385.0312 Q279.0938 385.0312 279.2031 385.0781 Q279.3125 385.125 279.5625 385.2969 Q279.9688 385.5781 280.375 385.5781 Q281.0156 385.5781 281.4844 385.1016 Q281.9531 384.625 281.9531 383.9375 Q281.9531 383.2812 281.5312 382.7109 Q281.1094 382.1406 280.3594 381.8281 Q279.7812 381.5781 278.7656 381.5469 L280.1719 378.7188 L282.7812 378.7188 ZM283.8906 382.4062 Q283.8906 381.1562 284.2734 380.2578 Q284.6562 379.3594 285.2656 378.9219 Q285.75 378.5625 286.2656 378.5625 Q287.1094 378.5625 287.7812 379.4219 Q288.6094 380.4844 288.6094 382.2812 Q288.6094 383.5625 288.2422 384.4453 Q287.875 385.3281 287.3125 385.7266 Q286.75 386.125 286.2188 386.125 Q285.1719 386.125 284.4844 384.9062 Q283.8906 383.8594 283.8906 382.4062 ZM284.9531 382.5312 Q284.9531 384.0469 285.3281 384.9844 Q285.625 385.7969 286.2344 385.7969 Q286.5312 385.7969 286.8359 385.5312 Q287.1406 385.2656 287.3125 384.6562 Q287.5625 383.7344 287.5625 382.0469 Q287.5625 380.8125 287.2969 379.9688 Q287.1094 379.3594 286.7969 379.0938 Q286.5781 378.9219 286.2656 378.9219 Q285.9062 378.9219 285.6094 379.25 Q285.2344 379.6875 285.0938 380.6484 Q284.9531 381.6094 284.9531 382.5312 Z"
                  style="clip-path:url(#clipPath6); stroke:none;"
                  transform="translate(-5,-22)"/>
        </g>
        <g transform="translate(5,22)"
           style="font-size:9px; text-rendering:optimizeLegibility; color-rendering:optimizeQuality; image-rendering:optimizeQuality; font-family:'Times New Roman'; color-interpolation:linearRGB;">
            <path d="M320.1389 349 L320.1389 353.2"
                  style="fill:none; clip-path:url(#clipPath1);"/>
            <path d="M324.9375 378.5625 L324.9375 378.7656 Q324.2188 378.8281 323.7734 379.0469 Q323.3281 379.2656 322.8906 379.6953 Q322.4531 380.125 322.1641 380.6641 Q321.875 381.2031 321.6875 381.9375 Q322.4531 381.4062 323.2344 381.4062 Q323.9844 381.4062 324.5312 382.0078 Q325.0781 382.6094 325.0781 383.5469 Q325.0781 384.4688 324.5156 385.2188 Q323.8594 386.125 322.7656 386.125 Q322.0156 386.125 321.5 385.6406 Q320.4688 384.6719 320.4688 383.1406 Q320.4688 382.1719 320.8594 381.2891 Q321.25 380.4062 321.9844 379.7188 Q322.7188 379.0312 323.3828 378.7969 Q324.0469 378.5625 324.625 378.5625 L324.9375 378.5625 ZM321.5938 382.3281 Q321.5 383.0469 321.5 383.5 Q321.5 384.0156 321.6875 384.6172 Q321.875 385.2188 322.25 385.5781 Q322.5312 385.8281 322.9219 385.8281 Q323.3906 385.8281 323.7578 385.3906 Q324.125 384.9531 324.125 384.125 Q324.125 383.2188 323.7578 382.5469 Q323.3906 381.875 322.7188 381.875 Q322.5156 381.875 322.2812 381.9609 Q322.0469 382.0469 321.5938 382.3281 ZM325.8906 382.4062 Q325.8906 381.1562 326.2734 380.2578 Q326.6562 379.3594 327.2656 378.9219 Q327.75 378.5625 328.2656 378.5625 Q329.1094 378.5625 329.7812 379.4219 Q330.6094 380.4844 330.6094 382.2812 Q330.6094 383.5625 330.2422 384.4453 Q329.875 385.3281 329.3125 385.7266 Q328.75 386.125 328.2188 386.125 Q327.1719 386.125 326.4844 384.9062 Q325.8906 383.8594 325.8906 382.4062 ZM326.9531 382.5312 Q326.9531 384.0469 327.3281 384.9844 Q327.625 385.7969 328.2344 385.7969 Q328.5312 385.7969 328.8359 385.5312 Q329.1406 385.2656 329.3125 384.6562 Q329.5625 383.7344 329.5625 382.0469 Q329.5625 380.8125 329.2969 379.9688 Q329.1094 379.3594 328.7969 379.0938 Q328.5781 378.9219 328.2656 378.9219 Q327.9062 378.9219 327.6094 379.25 Q327.2344 379.6875 327.0938 380.6484 Q326.9531 381.6094 326.9531 382.5312 Z"
                  style="clip-path:url(#clipPath6); stroke:none;"
                  transform="translate(-5,-22)"/>
        </g>
        <g transform="translate(5,22)"
           style="font-size:9px; text-rendering:optimizeLegibility; color-rendering:optimizeQuality; image-rendering:optimizeQuality; font-family:'Times New Roman'; color-interpolation:linearRGB;">
            <path d="M361.6621 349 L361.6621 353.2"
                  style="fill:none; clip-path:url(#clipPath1);"/>
            <path d="M362.1094 378.7188 L366.0156 378.7188 L366.0156 378.9219 L363.5781 386.1562 L362.9844 386.1562 L365.1562 379.5938 L363.1562 379.5938 Q362.5469 379.5938 362.2969 379.7344 Q361.8438 379.9844 361.5625 380.5 L361.4062 380.4375 L362.1094 378.7188 ZM366.8906 382.4062 Q366.8906 381.1562 367.2734 380.2578 Q367.6562 379.3594 368.2656 378.9219 Q368.75 378.5625 369.2656 378.5625 Q370.1094 378.5625 370.7812 379.4219 Q371.6094 380.4844 371.6094 382.2812 Q371.6094 383.5625 371.2422 384.4453 Q370.875 385.3281 370.3125 385.7266 Q369.75 386.125 369.2188 386.125 Q368.1719 386.125 367.4844 384.9062 Q366.8906 383.8594 366.8906 382.4062 ZM367.9531 382.5312 Q367.9531 384.0469 368.3281 384.9844 Q368.625 385.7969 369.2344 385.7969 Q369.5312 385.7969 369.8359 385.5312 Q370.1406 385.2656 370.3125 384.6562 Q370.5625 383.7344 370.5625 382.0469 Q370.5625 380.8125 370.2969 379.9688 Q370.1094 379.3594 369.7969 379.0938 Q369.5781 378.9219 369.2656 378.9219 Q368.9062 378.9219 368.6094 379.25 Q368.2344 379.6875 368.0938 380.6484 Q367.9531 381.6094 367.9531 382.5312 Z"
                  style="clip-path:url(#clipPath6); stroke:none;"
                  transform="translate(-5,-22)"/>
        </g>
        <g transform="translate(5,22)"
           style="font-size:9px; text-rendering:optimizeLegibility; color-rendering:optimizeQuality; image-rendering:optimizeQuality; font-family:'Times New Roman'; color-interpolation:linearRGB;">
            <path d="M403.1852 349 L403.1852 353.2"
                  style="fill:none; clip-path:url(#clipPath1);"/>
            <path d="M405.1094 382.3281 Q404.25 381.625 404 381.1953 Q403.75 380.7656 403.75 380.2969 Q403.75 379.5938 404.2969 379.0781 Q404.8438 378.5625 405.75 378.5625 Q406.625 378.5625 407.1641 379.0391 Q407.7031 379.5156 407.7031 380.1406 Q407.7031 380.5469 407.4141 380.9688 Q407.125 381.3906 406.2031 381.9688 Q407.1562 382.7031 407.4531 383.1094 Q407.8594 383.6562 407.8594 384.2656 Q407.8594 385.0312 407.2812 385.5781 Q406.7031 386.125 405.75 386.125 Q404.7031 386.125 404.125 385.4844 Q403.6719 384.9531 403.6719 384.3438 Q403.6719 383.8594 403.9922 383.3828 Q404.3125 382.9062 405.1094 382.3281 ZM405.9531 381.75 Q406.5938 381.1719 406.7656 380.8359 Q406.9375 380.5 406.9375 380.0781 Q406.9375 379.5156 406.625 379.1953 Q406.3125 378.875 405.7656 378.875 Q405.2188 378.875 404.875 379.1953 Q404.5312 379.5156 404.5312 379.9375 Q404.5312 380.2188 404.6719 380.5 Q404.8125 380.7812 405.0781 381.0312 L405.9531 381.75 ZM405.3594 382.5312 Q404.9219 382.9062 404.7031 383.3516 Q404.4844 383.7969 404.4844 384.3125 Q404.4844 385 404.8672 385.4219 Q405.25 385.8438 405.8281 385.8438 Q406.4062 385.8438 406.7578 385.5156 Q407.1094 385.1875 407.1094 384.7188 Q407.1094 384.3281 406.9062 384.0156 Q406.5312 383.4531 405.3594 382.5312 ZM408.8906 382.4062 Q408.8906 381.1562 409.2734 380.2578 Q409.6562 379.3594 410.2656 378.9219 Q410.75 378.5625 411.2656 378.5625 Q412.1094 378.5625 412.7812 379.4219 Q413.6094 380.4844 413.6094 382.2812 Q413.6094 383.5625 413.2422 384.4453 Q412.875 385.3281 412.3125 385.7266 Q411.75 386.125 411.2188 386.125 Q410.1719 386.125 409.4844 384.9062 Q408.8906 383.8594 408.8906 382.4062 ZM409.9531 382.5312 Q409.9531 384.0469 410.3281 384.9844 Q410.625 385.7969 411.2344 385.7969 Q411.5312 385.7969 411.8359 385.5312 Q412.1406 385.2656 412.3125 384.6562 Q412.5625 383.7344 412.5625 382.0469 Q412.5625 380.8125 412.2969 379.9688 Q412.1094 379.3594 411.7969 379.0938 Q411.5781 378.9219 411.2656 378.9219 Q410.9062 378.9219 410.6094 379.25 Q410.2344 379.6875 410.0938 380.6484 Q409.9531 381.6094 409.9531 382.5312 Z"
                  style="clip-path:url(#clipPath6); stroke:none;"
                  transform="translate(-5,-22)"/>
        </g>
        <g transform="translate(5,22)"
           style="font-size:9px; text-rendering:optimizeLegibility; color-rendering:optimizeQuality; image-rendering:optimizeQuality; font-family:'Times New Roman'; color-interpolation:linearRGB;">
            <path d="M91.7616 349 L91.7616 351.1"
                  style="fill:none; clip-path:url(#clipPath1);"/>
        </g>
        <g transform="translate(5,22)"
           style="font-size:9px; text-rendering:optimizeLegibility; color-rendering:optimizeQuality; image-rendering:optimizeQuality; font-family:'Times New Roman'; color-interpolation:linearRGB;">
            <path d="M133.2847 349 L133.2847 351.1"
                  style="fill:none; clip-path:url(#clipPath1);"/>
        </g>
        <g transform="translate(5,22)"
           style="font-size:9px; text-rendering:optimizeLegibility; color-rendering:optimizeQuality; image-rendering:optimizeQuality; font-family:'Times New Roman'; color-interpolation:linearRGB;">
            <path d="M174.8079 349 L174.8079 351.1"
                  style="fill:none; clip-path:url(#clipPath1);"/>
        </g>
        <g transform="translate(5,22)"
           style="font-size:9px; text-rendering:optimizeLegibility; color-rendering:optimizeQuality; image-rendering:optimizeQuality; font-family:'Times New Roman'; color-interpolation:linearRGB;">
            <path d="M216.3311 349 L216.3311 351.1"
                  style="fill:none; clip-path:url(#clipPath1);"/>
        </g>
        <g transform="translate(5,22)"
           style="font-size:9px; text-rendering:optimizeLegibility; color-rendering:optimizeQuality; image-rendering:optimizeQuality; font-family:'Times New Roman'; color-interpolation:linearRGB;">
            <path d="M257.8542 349 L257.8542 351.1"
                  style="fill:none; clip-path:url(#clipPath1);"/>
        </g>
        <g transform="translate(5,22)"
           style="font-size:9px; text-rendering:optimizeLegibility; color-rendering:optimizeQuality; image-rendering:optimizeQuality; font-family:'Times New Roman'; color-interpolation:linearRGB;">
            <path d="M299.3774 349 L299.3774 351.1"
                  style="fill:none; clip-path:url(#clipPath1);"/>
        </g>
        <g transform="translate(5,22)"
           style="font-size:9px; text-rendering:optimizeLegibility; color-rendering:optimizeQuality; image-rendering:optimizeQuality; font-family:'Times New Roman'; color-interpolation:linearRGB;">
            <path d="M340.9005 349 L340.9005 351.1"
                  style="fill:none; clip-path:url(#clipPath1);"/>
        </g>
        <g transform="translate(5,22)"
           style="font-size:9px; text-rendering:optimizeLegibility; color-rendering:optimizeQuality; image-rendering:optimizeQuality; font-family:'Times New Roman'; color-interpolation:linearRGB;">
            <path d="M382.4237 349 L382.4237 351.1"
                  style="fill:none; clip-path:url(#clipPath1);"/>
        </g>
        <g transform="translate(5,22)"
           style="stroke-linecap:butt; font-size:9px; text-rendering:optimizeLegibility; image-rendering:optimizeQuality; color-rendering:optimizeQuality; font-family:'Times New Roman'; stroke-linejoin:round; color-interpolation:linearRGB;">
            <path d="M69 349 L69 6.01"
                  style="fill:none; clip-path:url(#clipPath1);"/>
            <path d="M406.1022 349 L406.1022 6.01"
                  style="fill:none; clip-path:url(#clipPath1);"/>
        </g>
        <g transform="translate(5,22)"
           style="stroke-linecap:butt; font-size:9px; text-rendering:optimizeLegibility; image-rendering:optimizeQuality; color-rendering:optimizeQuality; font-family:'Times New Roman'; stroke-linejoin:round; color-interpolation:linearRGB;">
            <path d="M8.875 178.8906 L8.9531 180.25 Q8.9688 180.7188 9.1094 181.1719 Q9.25 181.625 9.4531 181.9688 Q9.6562 182.3125 9.9141 182.5234 Q10.1719 182.7344 10.4375 182.7344 Q10.7188 182.7344 10.9766 182.5 Q11.2344 182.2656 11.4297 181.9141 Q11.625 181.5625 11.7578 181.125 Q11.8906 180.6875 11.9062 180.25 L11.9844 178.8906 L8.875 178.8906 ZM11.9219 176.9844 Q11.9062 176.8125 11.875 176.5938 Q11.8438 176.375 11.7812 176.1484 Q11.7188 175.9219 11.6562 175.7188 Q11.5938 175.5156 11.5156 175.375 Q11.3125 174.9844 11 174.7266 Q10.6875 174.4688 10.4219 174.4688 Q10.2188 174.4688 9.8984 174.7031 Q9.5781 174.9375 9.3906 175.2969 Q9.2969 175.4688 9.2188 175.6953 Q9.1406 175.9219 9.0859 176.1484 Q9.0312 176.375 8.9922 176.5938 Q8.9531 176.8125 8.9375 176.9688 L8.8594 178.2188 L12 178.2188 L11.9219 176.9844 ZM13.3125 178.4375 Q13.3125 179.5 13.1562 180.2891 Q13 181.0781 12.7656 181.5625 Q12.6094 181.8906 12.3672 182.1953 Q12.125 182.5 11.8203 182.7266 Q11.5156 182.9531 11.1719 183.0859 Q10.8281 183.2188 10.4375 183.2188 Q9.7656 183.2188 9.1406 182.7891 Q8.5156 182.3594 8.125 181.5781 Q7.8438 181.0312 7.7031 180.2578 Q7.5625 179.4844 7.5625 178.4375 Q7.5625 177.5469 7.6875 176.9531 Q7.8125 176.3594 8.0469 175.8594 Q8.25 175.4531 8.5156 175.125 Q8.7812 174.7969 9.0938 174.5469 Q9.4062 174.2969 9.75 174.1641 Q10.0938 174.0312 10.4375 174.0312 Q10.7188 174.0312 11.0391 174.1406 Q11.3594 174.25 11.6719 174.4766 Q11.9844 174.7031 12.2891 175.0625 Q12.5938 175.4219 12.8438 175.9062 Q13.0781 176.3906 13.1953 177.0234 Q13.3125 177.6562 13.3125 178.4375 Z"
                  style="stroke:none; clip-path:url(#clipPath7);"/>
            <path d="M23.375 175.6875 L22.875 177.4062 L23.875 177.4062 L23.7656 177.8125 L22.7812 177.8125 L21.6875 181.5469 Q21.5156 182.1562 21.5156 182.3281 Q21.5156 182.4375 21.5625 182.5 Q21.6094 182.5625 21.6875 182.5625 Q21.8438 182.5625 22.0938 182.3281 Q22.25 182.2031 22.7812 181.5469 L22.9844 181.7188 Q22.4062 182.5625 21.8906 182.9062 Q21.5312 183.1562 21.1719 183.1562 Q20.8906 183.1562 20.7109 182.9766 Q20.5312 182.7969 20.5312 182.5312 Q20.5312 182.1875 20.7344 181.4844 L21.7969 177.8125 L20.8438 177.8125 L20.9062 177.5625 Q21.5938 177.375 22.0625 176.9922 Q22.5312 176.6094 23.0938 175.6875 L23.375 175.6875 Z"
                  style="clip-path:url(#clipPath7); stroke:none;"/>
            <path d="M2.6577 11.694 L2.4644 12 Q0 10.4698 0 5.88 L0 6 L0 6.12 Q0 1.5141 2.4644 0 L2.6577 0.2899 Q1.5624 1.2242 1.1919 2.9154 Q0.9664 3.9624 0.9664 5.88 L0.9664 6 L0.9664 6.12 Q0.9664 8.0215 1.1919 9.0685 Q1.5624 10.7597 2.6577 11.694 Z"
                  style="clip-path:url(#clipPath8); stroke:none;"
                  transform="translate(15,174)"/>
            <path d="M0 0.306 L0.1933 0 Q2.6577 1.5302 2.6577 6.12 L2.6577 6 L2.6577 5.88 Q2.6577 10.4859 0.1933 12 L0 11.7101 Q1.0953 10.7758 1.4658 9.0846 Q1.6913 8.0376 1.6913 6.12 L1.6913 6 L1.6913 5.88 Q1.6913 3.9785 1.4658 2.9315 Q1.0953 1.2403 0 0.306 Z"
                  style="clip-path:url(#clipPath9); stroke:none;"
                  transform="translate(25,174)"/>
            <path d="M34.8594 185.5781 L32.0625 185.5781 L32.0625 174.2031 L34.8594 174.2031 L34.8594 174.7031 L33.0156 174.7031 L33.0156 185.0781 L34.8594 185.0781 L34.8594 185.5781 ZM37.9072 174.2031 Q38.7197 174.2031 39.29 174.7734 Q39.8604 175.3438 39.8604 176.1562 Q39.8604 176.9688 39.29 177.5391 Q38.7197 178.1094 37.9072 178.1094 Q37.0947 178.1094 36.5244 177.5391 Q35.9541 176.9688 35.9541 176.1562 Q35.9541 175.3438 36.5244 174.7734 Q37.0947 174.2031 37.9072 174.2031 ZM37.9072 174.7344 Q37.3135 174.7344 36.8994 175.1484 Q36.4854 175.5625 36.4854 176.1562 Q36.4854 176.7344 36.8994 177.1484 Q37.3135 177.5625 37.9072 177.5625 Q38.4854 177.5625 38.8994 177.1484 Q39.3135 176.7344 39.3135 176.1562 Q39.3135 175.5625 38.8994 175.1484 Q38.4854 174.7344 37.9072 174.7344 ZM40.9966 174.2031 L43.7935 174.2031 L43.7935 185.5781 L40.9966 185.5781 L40.9966 185.0781 L42.8403 185.0781 L42.8403 174.7031 L40.9966 174.7031 L40.9966 174.2031 Z"
                  style="clip-path:url(#clipPath7); stroke:none;"/>
        </g>
        <g transform="translate(5,22)"
           style="font-size:9px; text-rendering:optimizeLegibility; color-rendering:optimizeQuality; image-rendering:optimizeQuality; font-family:'Times New Roman'; color-interpolation:linearRGB;">
            <path d="M69 347.0001 L64.8 347.0001"
                  style="fill:none; clip-path:url(#clipPath1);"/>
            <path d="M63.125 371.3125 L63.125 372.0781 L62.1406 372.0781 L62.1406 374 L61.25 374 L61.25 372.0781 L58.1719 372.0781 L58.1719 371.3906 L61.5469 366.5625 L62.1406 366.5625 L62.1406 371.3125 L63.125 371.3125 ZM61.25 371.3125 L61.25 367.7031 L58.7031 371.3125 L61.25 371.3125 ZM68.2812 366.7188 L67.8594 367.625 L65.6719 367.625 L65.1875 368.6094 Q66.6094 368.8125 67.4375 369.6719 Q68.1562 370.3906 68.1562 371.3906 Q68.1562 371.9531 67.9219 372.4453 Q67.6875 372.9375 67.3359 373.2812 Q66.9844 373.625 66.5469 373.8281 Q65.9219 374.125 65.2812 374.125 Q64.625 374.125 64.3281 373.9062 Q64.0312 373.6875 64.0312 373.4219 Q64.0312 373.2656 64.1562 373.1484 Q64.2812 373.0312 64.4688 373.0312 Q64.5938 373.0312 64.7031 373.0781 Q64.8125 373.125 65.0625 373.2969 Q65.4688 373.5781 65.875 373.5781 Q66.5156 373.5781 66.9844 373.1016 Q67.4531 372.625 67.4531 371.9375 Q67.4531 371.2812 67.0312 370.7109 Q66.6094 370.1406 65.8594 369.8281 Q65.2812 369.5781 64.2656 369.5469 L65.6719 366.7188 L68.2812 366.7188 Z"
                  style="clip-path:url(#clipPath6); stroke:none;"
                  transform="translate(-5,-22)"/>
        </g>
        <g transform="translate(5,22)"
           style="font-size:9px; text-rendering:optimizeLegibility; color-rendering:optimizeQuality; image-rendering:optimizeQuality; font-family:'Times New Roman'; color-interpolation:linearRGB;">
            <path d="M69 279.2024 L64.8 279.2024"
                  style="fill:none; clip-path:url(#clipPath1);"/>
            <path d="M62.7812 298.7188 L62.3594 299.625 L60.1719 299.625 L59.6875 300.6094 Q61.1094 300.8125 61.9375 301.6719 Q62.6562 302.3906 62.6562 303.3906 Q62.6562 303.9531 62.4219 304.4453 Q62.1875 304.9375 61.8359 305.2812 Q61.4844 305.625 61.0469 305.8281 Q60.4219 306.125 59.7812 306.125 Q59.125 306.125 58.8281 305.9062 Q58.5312 305.6875 58.5312 305.4219 Q58.5312 305.2656 58.6562 305.1484 Q58.7812 305.0312 58.9688 305.0312 Q59.0938 305.0312 59.2031 305.0781 Q59.3125 305.125 59.5625 305.2969 Q59.9688 305.5781 60.375 305.5781 Q61.0156 305.5781 61.4844 305.1016 Q61.9531 304.625 61.9531 303.9375 Q61.9531 303.2812 61.5312 302.7109 Q61.1094 302.1406 60.3594 301.8281 Q59.7812 301.5781 58.7656 301.5469 L60.1719 298.7188 L62.7812 298.7188 ZM63.8906 302.4062 Q63.8906 301.1562 64.2734 300.2578 Q64.6562 299.3594 65.2656 298.9219 Q65.75 298.5625 66.2656 298.5625 Q67.1094 298.5625 67.7812 299.4219 Q68.6094 300.4844 68.6094 302.2812 Q68.6094 303.5625 68.2422 304.4453 Q67.875 305.3281 67.3125 305.7266 Q66.75 306.125 66.2188 306.125 Q65.1719 306.125 64.4844 304.9062 Q63.8906 303.8594 63.8906 302.4062 ZM64.9531 302.5312 Q64.9531 304.0469 65.3281 304.9844 Q65.625 305.7969 66.2344 305.7969 Q66.5312 305.7969 66.8359 305.5312 Q67.1406 305.2656 67.3125 304.6562 Q67.5625 303.7344 67.5625 302.0469 Q67.5625 300.8125 67.2969 299.9688 Q67.1094 299.3594 66.7969 299.0938 Q66.5781 298.9219 66.2656 298.9219 Q65.9062 298.9219 65.6094 299.25 Q65.2344 299.6875 65.0938 300.6484 Q64.9531 301.6094 64.9531 302.5312 Z"
                  style="clip-path:url(#clipPath6); stroke:none;"
                  transform="translate(-5,-22)"/>
        </g>
        <g transform="translate(5,22)"
           style="font-size:9px; text-rendering:optimizeLegibility; color-rendering:optimizeQuality; image-rendering:optimizeQuality; font-family:'Times New Roman'; color-interpolation:linearRGB;">
            <path d="M69 211.4047 L64.8 211.4047"
                  style="fill:none; clip-path:url(#clipPath1);"/>
            <path d="M62.7812 230.7188 L62.3594 231.625 L60.1719 231.625 L59.6875 232.6094 Q61.1094 232.8125 61.9375 233.6719 Q62.6562 234.3906 62.6562 235.3906 Q62.6562 235.9531 62.4219 236.4453 Q62.1875 236.9375 61.8359 237.2812 Q61.4844 237.625 61.0469 237.8281 Q60.4219 238.125 59.7812 238.125 Q59.125 238.125 58.8281 237.9062 Q58.5312 237.6875 58.5312 237.4219 Q58.5312 237.2656 58.6562 237.1484 Q58.7812 237.0312 58.9688 237.0312 Q59.0938 237.0312 59.2031 237.0781 Q59.3125 237.125 59.5625 237.2969 Q59.9688 237.5781 60.375 237.5781 Q61.0156 237.5781 61.4844 237.1016 Q61.9531 236.625 61.9531 235.9375 Q61.9531 235.2812 61.5312 234.7109 Q61.1094 234.1406 60.3594 233.8281 Q59.7812 233.5781 58.7656 233.5469 L60.1719 230.7188 L62.7812 230.7188 ZM68.2812 230.7188 L67.8594 231.625 L65.6719 231.625 L65.1875 232.6094 Q66.6094 232.8125 67.4375 233.6719 Q68.1562 234.3906 68.1562 235.3906 Q68.1562 235.9531 67.9219 236.4453 Q67.6875 236.9375 67.3359 237.2812 Q66.9844 237.625 66.5469 237.8281 Q65.9219 238.125 65.2812 238.125 Q64.625 238.125 64.3281 237.9062 Q64.0312 237.6875 64.0312 237.4219 Q64.0312 237.2656 64.1562 237.1484 Q64.2812 237.0312 64.4688 237.0312 Q64.5938 237.0312 64.7031 237.0781 Q64.8125 237.125 65.0625 237.2969 Q65.4688 237.5781 65.875 237.5781 Q66.5156 237.5781 66.9844 237.1016 Q67.4531 236.625 67.4531 235.9375 Q67.4531 235.2812 67.0312 234.7109 Q66.6094 234.1406 65.8594 233.8281 Q65.2812 233.5781 64.2656 233.5469 L65.6719 230.7188 L68.2812 230.7188 Z"
                  style="clip-path:url(#clipPath6); stroke:none;"
                  transform="translate(-5,-22)"/>
        </g>
        <g transform="translate(5,22)"
           style="font-size:9px; text-rendering:optimizeLegibility; color-rendering:optimizeQuality; image-rendering:optimizeQuality; font-family:'Times New Roman'; color-interpolation:linearRGB;">
            <path d="M69 143.607 L64.8 143.607"
                  style="fill:none; clip-path:url(#clipPath1);"/>
            <path d="M62.9375 162.5625 L62.9375 162.7656 Q62.2188 162.8281 61.7734 163.0469 Q61.3281 163.2656 60.8906 163.6953 Q60.4531 164.125 60.1641 164.6641 Q59.875 165.2031 59.6875 165.9375 Q60.4531 165.4062 61.2344 165.4062 Q61.9844 165.4062 62.5312 166.0078 Q63.0781 166.6094 63.0781 167.5469 Q63.0781 168.4688 62.5156 169.2188 Q61.8594 170.125 60.7656 170.125 Q60.0156 170.125 59.5 169.6406 Q58.4688 168.6719 58.4688 167.1406 Q58.4688 166.1719 58.8594 165.2891 Q59.25 164.4062 59.9844 163.7188 Q60.7188 163.0312 61.3828 162.7969 Q62.0469 162.5625 62.625 162.5625 L62.9375 162.5625 ZM59.5938 166.3281 Q59.5 167.0469 59.5 167.5 Q59.5 168.0156 59.6875 168.6172 Q59.875 169.2188 60.25 169.5781 Q60.5312 169.8281 60.9219 169.8281 Q61.3906 169.8281 61.7578 169.3906 Q62.125 168.9531 62.125 168.125 Q62.125 167.2188 61.7578 166.5469 Q61.3906 165.875 60.7188 165.875 Q60.5156 165.875 60.2812 165.9609 Q60.0469 166.0469 59.5938 166.3281 ZM63.8906 166.4062 Q63.8906 165.1562 64.2734 164.2578 Q64.6562 163.3594 65.2656 162.9219 Q65.75 162.5625 66.2656 162.5625 Q67.1094 162.5625 67.7812 163.4219 Q68.6094 164.4844 68.6094 166.2812 Q68.6094 167.5625 68.2422 168.4453 Q67.875 169.3281 67.3125 169.7266 Q66.75 170.125 66.2188 170.125 Q65.1719 170.125 64.4844 168.9062 Q63.8906 167.8594 63.8906 166.4062 ZM64.9531 166.5312 Q64.9531 168.0469 65.3281 168.9844 Q65.625 169.7969 66.2344 169.7969 Q66.5312 169.7969 66.8359 169.5312 Q67.1406 169.2656 67.3125 168.6562 Q67.5625 167.7344 67.5625 166.0469 Q67.5625 164.8125 67.2969 163.9688 Q67.1094 163.3594 66.7969 163.0938 Q66.5781 162.9219 66.2656 162.9219 Q65.9062 162.9219 65.6094 163.25 Q65.2344 163.6875 65.0938 164.6484 Q64.9531 165.6094 64.9531 166.5312 Z"
                  style="clip-path:url(#clipPath6); stroke:none;"
                  transform="translate(-5,-22)"/>
        </g>
        <g transform="translate(5,22)"
           style="font-size:9px; text-rendering:optimizeLegibility; color-rendering:optimizeQuality; image-rendering:optimizeQuality; font-family:'Times New Roman'; color-interpolation:linearRGB;">
            <path d="M69 75.8093 L64.8 75.8093"
                  style="fill:none; clip-path:url(#clipPath1);"/>
            <path d="M62.9375 94.5625 L62.9375 94.7656 Q62.2188 94.8281 61.7734 95.0469 Q61.3281 95.2656 60.8906 95.6953 Q60.4531 96.125 60.1641 96.6641 Q59.875 97.2031 59.6875 97.9375 Q60.4531 97.4062 61.2344 97.4062 Q61.9844 97.4062 62.5312 98.0078 Q63.0781 98.6094 63.0781 99.5469 Q63.0781 100.4688 62.5156 101.2188 Q61.8594 102.125 60.7656 102.125 Q60.0156 102.125 59.5 101.6406 Q58.4688 100.6719 58.4688 99.1406 Q58.4688 98.1719 58.8594 97.2891 Q59.25 96.4062 59.9844 95.7188 Q60.7188 95.0312 61.3828 94.7969 Q62.0469 94.5625 62.625 94.5625 L62.9375 94.5625 ZM59.5938 98.3281 Q59.5 99.0469 59.5 99.5 Q59.5 100.0156 59.6875 100.6172 Q59.875 101.2188 60.25 101.5781 Q60.5312 101.8281 60.9219 101.8281 Q61.3906 101.8281 61.7578 101.3906 Q62.125 100.9531 62.125 100.125 Q62.125 99.2188 61.7578 98.5469 Q61.3906 97.875 60.7188 97.875 Q60.5156 97.875 60.2812 97.9609 Q60.0469 98.0469 59.5938 98.3281 ZM68.2812 94.7188 L67.8594 95.625 L65.6719 95.625 L65.1875 96.6094 Q66.6094 96.8125 67.4375 97.6719 Q68.1562 98.3906 68.1562 99.3906 Q68.1562 99.9531 67.9219 100.4453 Q67.6875 100.9375 67.3359 101.2812 Q66.9844 101.625 66.5469 101.8281 Q65.9219 102.125 65.2812 102.125 Q64.625 102.125 64.3281 101.9062 Q64.0312 101.6875 64.0312 101.4219 Q64.0312 101.2656 64.1562 101.1484 Q64.2812 101.0312 64.4688 101.0312 Q64.5938 101.0312 64.7031 101.0781 Q64.8125 101.125 65.0625 101.2969 Q65.4688 101.5781 65.875 101.5781 Q66.5156 101.5781 66.9844 101.1016 Q67.4531 100.625 67.4531 99.9375 Q67.4531 99.2812 67.0312 98.7109 Q66.6094 98.1406 65.8594 97.8281 Q65.2812 97.5781 64.2656 97.5469 L65.6719 94.7188 L68.2812 94.7188 Z"
                  style="clip-path:url(#clipPath6); stroke:none;"
                  transform="translate(-5,-22)"/>
        </g>
        <g transform="translate(5,22)"
           style="font-size:9px; text-rendering:optimizeLegibility; color-rendering:optimizeQuality; image-rendering:optimizeQuality; font-family:'Times New Roman'; color-interpolation:linearRGB;">
            <path d="M69 8.0116 L64.8 8.0116"
                  style="fill:none; clip-path:url(#clipPath1);"/>
            <path d="M59.1094 27.7188 L63.0156 27.7188 L63.0156 27.9219 L60.5781 35.1562 L59.9844 35.1562 L62.1562 28.5938 L60.1562 28.5938 Q59.5469 28.5938 59.2969 28.7344 Q58.8438 28.9844 58.5625 29.5 L58.4062 29.4375 L59.1094 27.7188 ZM63.8906 31.4062 Q63.8906 30.1562 64.2734 29.2578 Q64.6562 28.3594 65.2656 27.9219 Q65.75 27.5625 66.2656 27.5625 Q67.1094 27.5625 67.7812 28.4219 Q68.6094 29.4844 68.6094 31.2812 Q68.6094 32.5625 68.2422 33.4453 Q67.875 34.3281 67.3125 34.7266 Q66.75 35.125 66.2188 35.125 Q65.1719 35.125 64.4844 33.9062 Q63.8906 32.8594 63.8906 31.4062 ZM64.9531 31.5312 Q64.9531 33.0469 65.3281 33.9844 Q65.625 34.7969 66.2344 34.7969 Q66.5312 34.7969 66.8359 34.5312 Q67.1406 34.2656 67.3125 33.6562 Q67.5625 32.7344 67.5625 31.0469 Q67.5625 29.8125 67.2969 28.9688 Q67.1094 28.3594 66.7969 28.0938 Q66.5781 27.9219 66.2656 27.9219 Q65.9062 27.9219 65.6094 28.25 Q65.2344 28.6875 65.0938 29.6484 Q64.9531 30.6094 64.9531 31.5312 Z"
                  style="clip-path:url(#clipPath6); stroke:none;"
                  transform="translate(-5,-22)"/>
        </g>
        <g transform="translate(5,22)"
           style="font-size:9px; text-rendering:optimizeLegibility; color-rendering:optimizeQuality; image-rendering:optimizeQuality; font-family:'Times New Roman'; color-interpolation:linearRGB;">
            <path d="M69 333.4406 L66.9 333.4406"
                  style="fill:none; clip-path:url(#clipPath1);"/>
        </g>
        <g transform="translate(5,22)"
           style="font-size:9px; text-rendering:optimizeLegibility; color-rendering:optimizeQuality; image-rendering:optimizeQuality; font-family:'Times New Roman'; color-interpolation:linearRGB;">
            <path d="M69 319.881 L66.9 319.881"
                  style="fill:none; clip-path:url(#clipPath1);"/>
        </g>
        <g transform="translate(5,22)"
           style="font-size:9px; text-rendering:optimizeLegibility; color-rendering:optimizeQuality; image-rendering:optimizeQuality; font-family:'Times New Roman'; color-interpolation:linearRGB;">
            <path d="M69 306.3215 L66.9 306.3215"
                  style="fill:none; clip-path:url(#clipPath1);"/>
        </g>
        <g transform="translate(5,22)"
           style="font-size:9px; text-rendering:optimizeLegibility; color-rendering:optimizeQuality; image-rendering:optimizeQuality; font-family:'Times New Roman'; color-interpolation:linearRGB;">
            <path d="M69 292.7619 L66.9 292.7619"
                  style="fill:none; clip-path:url(#clipPath1);"/>
        </g>
        <g transform="translate(5,22)"
           style="font-size:9px; text-rendering:optimizeLegibility; color-rendering:optimizeQuality; image-rendering:optimizeQuality; font-family:'Times New Roman'; color-interpolation:linearRGB;">
            <path d="M69 265.6429 L66.9 265.6429"
                  style="fill:none; clip-path:url(#clipPath1);"/>
        </g>
        <g transform="translate(5,22)"
           style="font-size:9px; text-rendering:optimizeLegibility; color-rendering:optimizeQuality; image-rendering:optimizeQuality; font-family:'Times New Roman'; color-interpolation:linearRGB;">
            <path d="M69 252.0833 L66.9 252.0833"
                  style="fill:none; clip-path:url(#clipPath1);"/>
        </g>
        <g transform="translate(5,22)"
           style="font-size:9px; text-rendering:optimizeLegibility; color-rendering:optimizeQuality; image-rendering:optimizeQuality; font-family:'Times New Roman'; color-interpolation:linearRGB;">
            <path d="M69 238.5238 L66.9 238.5238"
                  style="fill:none; clip-path:url(#clipPath1);"/>
        </g>
        <g transform="translate(5,22)"
           style="font-size:9px; text-rendering:optimizeLegibility; color-rendering:optimizeQuality; image-rendering:optimizeQuality; font-family:'Times New Roman'; color-interpolation:linearRGB;">
            <path d="M69 224.9642 L66.9 224.9642"
                  style="fill:none; clip-path:url(#clipPath1);"/>
        </g>
        <g transform="translate(5,22)"
           style="font-size:9px; text-rendering:optimizeLegibility; color-rendering:optimizeQuality; image-rendering:optimizeQuality; font-family:'Times New Roman'; color-interpolation:linearRGB;">
            <path d="M69 197.8452 L66.9 197.8452"
                  style="fill:none; clip-path:url(#clipPath1);"/>
        </g>
        <g transform="translate(5,22)"
           style="font-size:9px; text-rendering:optimizeLegibility; color-rendering:optimizeQuality; image-rendering:optimizeQuality; font-family:'Times New Roman'; color-interpolation:linearRGB;">
            <path d="M69 184.2856 L66.9 184.2856"
                  style="fill:none; clip-path:url(#clipPath1);"/>
        </g>
        <g transform="translate(5,22)"
           style="font-size:9px; text-rendering:optimizeLegibility; color-rendering:optimizeQuality; image-rendering:optimizeQuality; font-family:'Times New Roman'; color-interpolation:linearRGB;">
            <path d="M69 170.7261 L66.9 170.7261"
                  style="fill:none; clip-path:url(#clipPath1);"/>
        </g>
        <g transform="translate(5,22)"
           style="font-size:9px; text-rendering:optimizeLegibility; color-rendering:optimizeQuality; image-rendering:optimizeQuality; font-family:'Times New Roman'; color-interpolation:linearRGB;">
            <path d="M69 157.1665 L66.9 157.1665"
                  style="fill:none; clip-path:url(#clipPath1);"/>
        </g>
        <g transform="translate(5,22)"
           style="font-size:9px; text-rendering:optimizeLegibility; color-rendering:optimizeQuality; image-rendering:optimizeQuality; font-family:'Times New Roman'; color-interpolation:linearRGB;">
            <path d="M69 130.0475 L66.9 130.0475"
                  style="fill:none; clip-path:url(#clipPath1);"/>
        </g>
        <g transform="translate(5,22)"
           style="font-size:9px; text-rendering:optimizeLegibility; color-rendering:optimizeQuality; image-rendering:optimizeQuality; font-family:'Times New Roman'; color-interpolation:linearRGB;">
            <path d="M69 116.4879 L66.9 116.4879"
                  style="fill:none; clip-path:url(#clipPath1);"/>
        </g>
        <g transform="translate(5,22)"
           style="font-size:9px; text-rendering:optimizeLegibility; color-rendering:optimizeQuality; image-rendering:optimizeQuality; font-family:'Times New Roman'; color-interpolation:linearRGB;">
            <path d="M69 102.9284 L66.9 102.9284"
                  style="fill:none; clip-path:url(#clipPath1);"/>
        </g>
        <g transform="translate(5,22)"
           style="font-size:9px; text-rendering:optimizeLegibility; color-rendering:optimizeQuality; image-rendering:optimizeQuality; font-family:'Times New Roman'; color-interpolation:linearRGB;">
            <path d="M69 89.3688 L66.9 89.3688"
                  style="fill:none; clip-path:url(#clipPath1);"/>
        </g>
        <g transform="translate(5,22)"
           style="font-size:9px; text-rendering:optimizeLegibility; color-rendering:optimizeQuality; image-rendering:optimizeQuality; font-family:'Times New Roman'; color-interpolation:linearRGB;">
            <path d="M69 62.2498 L66.9 62.2498"
                  style="fill:none; clip-path:url(#clipPath1);"/>
        </g>
        <g transform="translate(5,22)"
           style="font-size:9px; text-rendering:optimizeLegibility; color-rendering:optimizeQuality; image-rendering:optimizeQuality; font-family:'Times New Roman'; color-interpolation:linearRGB;">
            <path d="M69 48.6902 L66.9 48.6902"
                  style="fill:none; clip-path:url(#clipPath1);"/>
        </g>
        <g transform="translate(5,22)"
           style="font-size:9px; text-rendering:optimizeLegibility; color-rendering:optimizeQuality; image-rendering:optimizeQuality; font-family:'Times New Roman'; color-interpolation:linearRGB;">
            <path d="M69 35.1307 L66.9 35.1307"
                  style="fill:none; clip-path:url(#clipPath1);"/>
        </g>
        <g transform="translate(5,22)"
           style="font-size:9px; text-rendering:optimizeLegibility; color-rendering:optimizeQuality; image-rendering:optimizeQuality; font-family:'Times New Roman'; color-interpolation:linearRGB;">
            <path d="M69 21.5711 L66.9 21.5711"
                  style="fill:none; clip-path:url(#clipPath1);"/>
        </g>
    </g>
</svg>
