<?xml version="1.0" encoding="UTF-8"?>
<!DOCTYPE svg PUBLIC '-//W3C//DTD SVG 1.0//EN'
    'http://www.w3.org/TR/2001/REC-SVG-20010904/DTD/svg10.dtd' >

<svg style="stroke-dasharray:none; shape-rendering:auto; font-family:'Dialog'; text-rendering:auto; fill-opacity:1; color-interpolation:auto; color-rendering:auto; font-size:12px; fill:black; stroke:black; image-rendering:auto; stroke-miterlimit:10; stroke-linecap:square; stroke-linejoin:miter; font-style:normal; stroke-width:1; stroke-dashoffset:0; font-weight:normal; stroke-opacity:1;"
     xmlns="http://www.w3.org/2000/svg" contentScriptType="text/ecmascript"
     preserveAspectRatio="xMidYMid meet"
     xmlns:xlink="http://www.w3.org/1999/xlink" zoomAndPan="magnify"
     version="1.0" contentStyleType="text/css">
    <!--Generated by the Batik Graphics2D SVG Generator-->
    <defs id="genericDefs"/>
    <g>
        <defs id="defs1">
            <clipPath clipPathUnits="userSpaceOnUse" id="clipPath1">
                <path d="M0 0 L410 0 L410 382 L0 382 L0 0 Z"/>
            </clipPath>
            <clipPath clipPathUnits="userSpaceOnUse" id="clipPath2">
                <path d="M94 0 L94 350 L408.1022 350 L408.1022 0 Z"/>
            </clipPath>
            <clipPath clipPathUnits="userSpaceOnUse" id="clipPath3">
                <path d="M219 366 L219 381 L281 381 L281 366 Z"/>
            </clipPath>
            <clipPath clipPathUnits="userSpaceOnUse" id="clipPath4">
                <path d="M-13 -3 L-13 12 L49 12 L49 -3 Z"/>
            </clipPath>
            <clipPath clipPathUnits="userSpaceOnUse" id="clipPath5">
                <path d="M-23 -3 L-23 12 L39 12 L39 -3 Z"/>
            </clipPath>
            <clipPath clipPathUnits="userSpaceOnUse" id="clipPath6">
                <path d="M5 22 L415 22 L415 404 L5 404 L5 22 Z"/>
            </clipPath>
            <clipPath clipPathUnits="userSpaceOnUse" id="clipPath7">
                <path d="M1 164 L1 186 L60 186 L60 164 Z"/>
            </clipPath>
            <clipPath clipPathUnits="userSpaceOnUse" id="clipPath8">
                <path d="M0 0 L411 0 L411 12 L0 12 L0 0 Z"/>
            </clipPath>
            <clipPath clipPathUnits="userSpaceOnUse" id="clipPath9">
                <path d="M0 0 L411 0 L411 18 L0 18 L0 0 Z"/>
            </clipPath>
        </defs>
        <g transform="translate(5,22)"
           style="stroke-linecap:butt; font-size:9px; fill:rgb(165,165,165); text-rendering:optimizeLegibility; image-rendering:optimizeQuality; color-rendering:optimizeQuality; font-family:'Times New Roman'; stroke-linejoin:round; stroke:rgb(165,165,165); color-interpolation:linearRGB;">
            <path d="M97 349 L97 1.0029"
                  style="fill:none; clip-path:url(#clipPath1);"/>
            <path d="M135.2821 349 L135.2821 1.0029"
                  style="fill:none; clip-path:url(#clipPath1);"/>
            <path d="M173.5642 349 L173.5642 1.0029"
                  style="fill:none; clip-path:url(#clipPath1);"/>
            <path d="M211.8463 349 L211.8463 1.0029"
                  style="fill:none; clip-path:url(#clipPath1);"/>
            <path d="M250.1284 349 L250.1284 1.0029"
                  style="fill:none; clip-path:url(#clipPath1);"/>
            <path d="M288.4105 349 L288.4105 1.0029"
                  style="fill:none; clip-path:url(#clipPath1);"/>
            <path d="M326.6926 349 L326.6926 1.0029"
                  style="fill:none; clip-path:url(#clipPath1);"/>
            <path d="M364.9747 349 L364.9747 1.0029"
                  style="fill:none; clip-path:url(#clipPath1);"/>
            <path d="M403.2568 349 L403.2568 1.0029"
                  style="fill:none; clip-path:url(#clipPath1);"/>
            <path d="M116.1411 349 L116.1411 1.0029"
                  style="fill:none; clip-path:url(#clipPath1); stroke:rgb(233,233,233);"/>
            <path d="M154.4232 349 L154.4232 1.0029"
                  style="fill:none; clip-path:url(#clipPath1); stroke:rgb(233,233,233);"/>
            <path d="M192.7053 349 L192.7053 1.0029"
                  style="fill:none; clip-path:url(#clipPath1); stroke:rgb(233,233,233);"/>
            <path d="M230.9874 349 L230.9874 1.0029"
                  style="fill:none; clip-path:url(#clipPath1); stroke:rgb(233,233,233);"/>
            <path d="M269.2695 349 L269.2695 1.0029"
                  style="fill:none; clip-path:url(#clipPath1); stroke:rgb(233,233,233);"/>
            <path d="M307.5516 349 L307.5516 1.0029"
                  style="fill:none; clip-path:url(#clipPath1); stroke:rgb(233,233,233);"/>
            <path d="M345.8337 349 L345.8337 1.0029"
                  style="fill:none; clip-path:url(#clipPath1); stroke:rgb(233,233,233);"/>
            <path d="M384.1158 349 L384.1158 1.0029"
                  style="fill:none; clip-path:url(#clipPath1); stroke:rgb(233,233,233);"/>
        </g>
        <g transform="translate(5,22)"
           style="stroke-linecap:butt; font-size:9px; fill:rgb(165,165,165); text-rendering:optimizeLegibility; image-rendering:optimizeQuality; color-rendering:optimizeQuality; font-family:'Times New Roman'; stroke-linejoin:round; stroke:rgb(165,165,165); color-interpolation:linearRGB;">
            <path d="M95 312.7718 L406.1022 312.7718"
                  style="fill:none; clip-path:url(#clipPath1);"/>
            <path d="M95 260.314 L406.1022 260.314"
                  style="fill:none; clip-path:url(#clipPath1);"/>
            <path d="M95 207.8563 L406.1022 207.8563"
                  style="fill:none; clip-path:url(#clipPath1);"/>
            <path d="M95 155.3986 L406.1022 155.3986"
                  style="fill:none; clip-path:url(#clipPath1);"/>
            <path d="M95 102.9409 L406.1022 102.9409"
                  style="fill:none; clip-path:url(#clipPath1);"/>
            <path d="M95 50.4832 L406.1022 50.4832"
                  style="fill:none; clip-path:url(#clipPath1);"/>
            <path d="M95 344.2464 L406.1022 344.2464"
                  style="fill:none; clip-path:url(#clipPath1); stroke:rgb(233,233,233);"/>
            <path d="M95 333.7549 L406.1022 333.7549"
                  style="fill:none; clip-path:url(#clipPath1); stroke:rgb(233,233,233);"/>
            <path d="M95 323.2633 L406.1022 323.2633"
                  style="fill:none; clip-path:url(#clipPath1); stroke:rgb(233,233,233);"/>
            <path d="M95 302.2802 L406.1022 302.2802"
                  style="fill:none; clip-path:url(#clipPath1); stroke:rgb(233,233,233);"/>
            <path d="M95 291.7887 L406.1022 291.7887"
                  style="fill:none; clip-path:url(#clipPath1); stroke:rgb(233,233,233);"/>
            <path d="M95 281.2971 L406.1022 281.2971"
                  style="fill:none; clip-path:url(#clipPath1); stroke:rgb(233,233,233);"/>
            <path d="M95 270.8056 L406.1022 270.8056"
                  style="fill:none; clip-path:url(#clipPath1); stroke:rgb(233,233,233);"/>
            <path d="M95 249.8225 L406.1022 249.8225"
                  style="fill:none; clip-path:url(#clipPath1); stroke:rgb(233,233,233);"/>
            <path d="M95 239.331 L406.1022 239.331"
                  style="fill:none; clip-path:url(#clipPath1); stroke:rgb(233,233,233);"/>
            <path d="M95 228.8394 L406.1022 228.8394"
                  style="fill:none; clip-path:url(#clipPath1); stroke:rgb(233,233,233);"/>
            <path d="M95 218.3479 L406.1022 218.3479"
                  style="fill:none; clip-path:url(#clipPath1); stroke:rgb(233,233,233);"/>
            <path d="M95 197.3648 L406.1022 197.3648"
                  style="fill:none; clip-path:url(#clipPath1); stroke:rgb(233,233,233);"/>
            <path d="M95 186.8732 L406.1022 186.8732"
                  style="fill:none; clip-path:url(#clipPath1); stroke:rgb(233,233,233);"/>
            <path d="M95 176.3817 L406.1022 176.3817"
                  style="fill:none; clip-path:url(#clipPath1); stroke:rgb(233,233,233);"/>
            <path d="M95 165.8902 L406.1022 165.8902"
                  style="fill:none; clip-path:url(#clipPath1); stroke:rgb(233,233,233);"/>
            <path d="M95 144.9071 L406.1022 144.9071"
                  style="fill:none; clip-path:url(#clipPath1); stroke:rgb(233,233,233);"/>
            <path d="M95 134.4155 L406.1022 134.4155"
                  style="fill:none; clip-path:url(#clipPath1); stroke:rgb(233,233,233);"/>
            <path d="M95 123.924 L406.1022 123.924"
                  style="fill:none; clip-path:url(#clipPath1); stroke:rgb(233,233,233);"/>
            <path d="M95 113.4324 L406.1022 113.4324"
                  style="fill:none; clip-path:url(#clipPath1); stroke:rgb(233,233,233);"/>
            <path d="M95 92.4493 L406.1022 92.4493"
                  style="fill:none; clip-path:url(#clipPath1); stroke:rgb(233,233,233);"/>
            <path d="M95 81.9578 L406.1022 81.9578"
                  style="fill:none; clip-path:url(#clipPath1); stroke:rgb(233,233,233);"/>
            <path d="M95 71.4662 L406.1022 71.4662"
                  style="fill:none; clip-path:url(#clipPath1); stroke:rgb(233,233,233);"/>
            <path d="M95 60.9747 L406.1022 60.9747"
                  style="fill:none; clip-path:url(#clipPath1); stroke:rgb(233,233,233);"/>
            <path d="M95 39.9916 L406.1022 39.9916"
                  style="fill:none; clip-path:url(#clipPath1); stroke:rgb(233,233,233);"/>
            <path d="M95 29.5001 L406.1022 29.5001"
                  style="fill:none; clip-path:url(#clipPath1); stroke:rgb(233,233,233);"/>
            <path d="M95 19.0085 L406.1022 19.0085"
                  style="fill:none; clip-path:url(#clipPath1); stroke:rgb(233,233,233);"/>
            <path d="M95 8.517 L406.1022 8.517"
                  style="fill:none; clip-path:url(#clipPath1); stroke:rgb(233,233,233);"/>
        </g>
        <g style="stroke-linecap:butt; font-size:13px; fill:rgb(86,180,233); text-rendering:optimizeLegibility; image-rendering:optimizeQuality; color-rendering:optimizeQuality; font-family:'Times New Roman'; stroke-linejoin:round; stroke:rgb(86,180,233); color-interpolation:linearRGB; stroke-width:1.5;"
           transform="translate(5,22)">
            <path d="M97 347 L99.4181 339.045 L101.8363 331.1787 L104.2544 323.4014 L106.6725 315.7136 L109.0906 308.1157 L111.5088 300.6082 L113.9269 293.1914 L116.345 285.8657 L118.7632 278.6316 L121.1813 271.4893 L123.5994 264.4393 L126.0175 257.4818 L128.4357 250.6172 L130.8538 243.8459 L133.2719 237.1681 L135.69 230.584 L138.1082 224.0941 L140.5263 217.6984 L142.9444 211.3974 L145.3625 205.1911 L147.7807 199.0799 L150.1988 193.0639 L152.6169 187.1433 L155.0351 181.3183 L157.4532 175.589 L159.8713 169.9556 L162.2894 164.4182 L164.7076 158.9769 L167.1257 153.6318 L169.5438 148.383 L171.962 143.2305 L174.3801 138.1744 L176.7982 133.2147 L179.2163 128.3514 L181.6345 123.5846 L184.0526 118.9142 L186.4707 114.3401 L188.8889 109.8624 L191.307 105.4809 L193.7251 101.1956 L196.1432 97.0064 L198.5614 92.9131 L200.9795 88.9157 L203.3976 85.0139 L205.8157 81.2077 L208.2339 77.4968 L210.652 73.881 L213.0701 70.3601 L215.4883 66.9339 L217.9064 63.6022 L220.3245 60.3647 L222.7426 57.221 L225.1608 54.171 L227.5789 51.2142 L229.997 48.3505 L232.4151 45.5793 L234.8333 42.9005 L237.2514 40.3135 L239.6695 37.8181 L242.0876 35.4138 L244.5058 33.1002 L246.9239 30.8768 L249.342 28.7433 L251.7602 26.6991 L254.1783 24.7438 L256.5964 22.8769 L259.0145 21.0979 L261.4326 19.4062 L263.8508 17.8014 L266.2689 16.2828 L268.687 14.8499 L271.1052 13.5022 L273.5233 12.2391 L275.9414 11.0599 L278.3596 9.9641 L280.7777 8.951 L283.1958 8.02 L285.614 7.1704 L288.0321 6.4016 L290.4502 5.7129 L292.8683 5.1036 L295.2864 4.5731 L297.7046 4.1206 L300.1227 3.7453 L302.5408 3.4467 L304.959 3.2239 L307.3771 3.0762 L309.7952 3.0029 L312.2133 3.0031 L314.6315 3.0762 L317.0496 3.2213 L319.4677 3.4376 L321.8859 3.7243 L324.304 4.0807 L326.7221 4.5058 L329.1402 4.999 L331.5583 5.5593 L333.9765 6.186 L336.3946 6.8781 L338.8127 7.6349 L341.2309 8.4555 L343.649 9.339 L346.0671 10.2845 L348.4853 11.2912 L350.9034 12.3582 L353.3215 13.4847 L355.7396 14.6697 L358.1577 15.9124 L360.5759 17.2118 L362.994 18.5671 L365.4121 19.9773 L367.8303 21.4417 L370.2484 22.9591 L372.6665 24.5289 L375.0846 26.15 L377.5028 27.8215 L379.9209 29.5425 L382.339 31.3122 L384.7571 33.1295 L387.1753 34.9936 L389.5934 36.9036 L392.0115 38.8585 L394.4297 40.8574 L396.8478 42.8995 L399.2659 44.9837 L401.6841 47.1092 L404.1022 49.2751"
                  style="fill:none; clip-path:url(#clipPath2);"/>
        </g>
        <g transform="translate(5,22)"
           style="stroke-linecap:butt; font-size:9px; text-rendering:optimizeLegibility; image-rendering:optimizeQuality; color-rendering:optimizeQuality; font-family:'Times New Roman'; stroke-linejoin:round; color-interpolation:linearRGB;">
            <path d="M95 349 L406.1022 349"
                  style="fill:none; clip-path:url(#clipPath1);"/>
            <path d="M95 1.0029 L406.1022 1.0029"
                  style="fill:none; clip-path:url(#clipPath1);"/>
        </g>
        <g transform="translate(5,22)"
           style="stroke-linecap:butt; font-size:9px; text-rendering:optimizeLegibility; image-rendering:optimizeQuality; color-rendering:optimizeQuality; font-family:'Times New Roman'; stroke-linejoin:round; color-interpolation:linearRGB;">
            <path d="M229.7188 372.25 L229.3281 374.2031 L229.0938 374.2031 Q229.0625 373.3594 228.7344 372.9688 Q228.4062 372.5781 227.9062 372.5781 Q227.5156 372.5781 227.2891 372.7969 Q227.0625 373.0156 227.0625 373.3125 Q227.0625 373.5312 227.1484 373.7188 Q227.2344 373.9062 227.5469 374.25 Q228.375 375.1562 228.6172 375.6094 Q228.8594 376.0625 228.8594 376.4688 Q228.8594 377.125 228.3125 377.6406 Q227.7656 378.1562 226.9219 378.1562 Q226.4688 378.1562 225.875 377.9375 Q225.6562 377.8594 225.5469 377.8594 Q225.2656 377.8594 225.1094 378.1562 L224.875 378.1562 L225.2656 376.0938 L225.5 376.0938 Q225.5469 377.0625 225.9062 377.4609 Q226.2656 377.8594 226.8906 377.8594 Q227.375 377.8594 227.6562 377.5938 Q227.9375 377.3281 227.9375 376.9219 Q227.9375 376.6719 227.8438 376.4531 Q227.6562 376.0781 227.0938 375.4062 Q226.5312 374.7344 226.3672 374.3984 Q226.2031 374.0625 226.2031 373.7188 Q226.2031 373.1094 226.6484 372.6797 Q227.0938 372.25 227.7969 372.25 Q228 372.25 228.1719 372.2812 Q228.25 372.3125 228.5781 372.4297 Q228.9062 372.5469 229.0156 372.5469 Q229.2969 372.5469 229.4688 372.25 L229.7188 372.25 Z"
                  style="stroke:none; clip-path:url(#clipPath3);"/>
            <path d="M240.375 370.6875 L239.875 372.4062 L240.875 372.4062 L240.7656 372.8125 L239.7812 372.8125 L238.6875 376.5469 Q238.5156 377.1562 238.5156 377.3281 Q238.5156 377.4375 238.5625 377.5 Q238.6094 377.5625 238.6875 377.5625 Q238.8438 377.5625 239.0938 377.3281 Q239.25 377.2031 239.7812 376.5469 L239.9844 376.7188 Q239.4062 377.5625 238.8906 377.9062 Q238.5312 378.1562 238.1719 378.1562 Q237.8906 378.1562 237.7109 377.9766 Q237.5312 377.7969 237.5312 377.5312 Q237.5312 377.1875 237.7344 376.4844 L238.7969 372.8125 L237.8438 372.8125 L237.9062 372.5625 Q238.5938 372.375 239.0625 371.9922 Q239.5312 371.6094 240.0938 370.6875 L240.375 370.6875 Z"
                  style="clip-path:url(#clipPath3); stroke:none;"/>
            <path d="M2.6577 11.694 L2.4644 12 Q0 10.4698 0 5.88 L0 6 L0 6.12 Q0 1.5141 2.4644 0 L2.6577 0.2899 Q1.5624 1.2242 1.1919 2.9154 Q0.9664 3.9624 0.9664 5.88 L0.9664 6 L0.9664 6.12 Q0.9664 8.0215 1.1919 9.0685 Q1.5624 10.7597 2.6577 11.694 Z"
                  style="clip-path:url(#clipPath4); stroke:none;"
                  transform="translate(232,369)"/>
            <path d="M0 0.306 L0.1933 0 Q2.6577 1.5302 2.6577 6.12 L2.6577 6 L2.6577 5.88 Q2.6577 10.4859 0.1933 12 L0 11.7101 Q1.0953 10.7758 1.4658 9.0846 Q1.6913 8.0376 1.6913 6.12 L1.6913 6 L1.6913 5.88 Q1.6913 3.9785 1.4658 2.9315 Q1.0953 1.2403 0 0.306 Z"
                  style="clip-path:url(#clipPath5); stroke:none;"
                  transform="translate(242,369)"/>
            <path d="M251.8594 380.5781 L249.0625 380.5781 L249.0625 369.2031 L251.8594 369.2031 L251.8594 369.7031 L250.0156 369.7031 L250.0156 380.0781 L251.8594 380.0781 L251.8594 380.5781 ZM254.4697 373.25 Q255.0947 372.6094 255.2041 372.5156 Q255.501 372.2812 255.8291 372.1484 Q256.1572 372.0156 256.4854 372.0156 Q257.0322 372.0156 257.4229 372.3359 Q257.8135 372.6562 257.9541 373.25 Q258.5947 372.4844 259.0479 372.25 Q259.501 372.0156 259.9854 372.0156 Q260.4385 372.0156 260.7979 372.25 Q261.1572 372.4844 261.376 373.0312 Q261.501 373.3906 261.501 374.1875 L261.501 376.6875 Q261.501 377.2344 261.5947 377.4375 Q261.6572 377.5781 261.8291 377.6719 Q262.001 377.7656 262.3916 377.7656 L262.3916 378 L259.5166 378 L259.5166 377.7656 L259.6416 377.7656 Q260.0166 377.7656 260.2197 377.625 Q260.3604 377.5312 260.4229 377.2969 Q260.4541 377.1875 260.4541 376.6875 L260.4541 374.1875 Q260.4541 373.4688 260.2822 373.1875 Q260.0322 372.7812 259.4854 372.7812 Q259.1572 372.7812 258.8135 372.9453 Q258.4697 373.1094 257.9854 373.5625 L257.9854 373.6406 L257.9854 373.9062 L257.9854 376.6875 Q257.9854 377.2812 258.0557 377.4297 Q258.126 377.5781 258.3057 377.6719 Q258.4854 377.7656 258.9385 377.7656 L258.9385 378 L256.001 378 L256.001 377.7656 Q256.4854 377.7656 256.665 377.6562 Q256.8447 377.5469 256.9072 377.3125 Q256.9385 377.2031 256.9385 376.6875 L256.9385 374.1875 Q256.9385 373.4688 256.7354 373.1562 Q256.4541 372.75 255.9541 372.75 Q255.6104 372.75 255.2822 372.9375 Q254.751 373.2188 254.4697 373.5625 L254.4697 376.6875 Q254.4697 377.25 254.5479 377.4219 Q254.626 377.5938 254.7822 377.6797 Q254.9385 377.7656 255.4072 377.7656 L255.4072 378 L252.5322 378 L252.5322 377.7656 Q252.9385 377.7656 253.0947 377.6797 Q253.251 377.5938 253.3291 377.4062 Q253.4072 377.2188 253.4072 376.6875 L253.4072 374.4688 Q253.4072 373.5 253.3604 373.2188 Q253.3135 373.0156 253.2197 372.9375 Q253.126 372.8594 252.9541 372.8594 Q252.7822 372.8594 252.5322 372.9531 L252.4385 372.7188 L254.1885 372.0156 L254.4697 372.0156 L254.4697 373.25 ZM264.5815 373.25 Q265.2065 372.6094 265.3159 372.5156 Q265.6128 372.2812 265.9409 372.1484 Q266.269 372.0156 266.5972 372.0156 Q267.144 372.0156 267.5347 372.3359 Q267.9253 372.6562 268.0659 373.25 Q268.7065 372.4844 269.1597 372.25 Q269.6128 372.0156 270.0972 372.0156 Q270.5503 372.0156 270.9097 372.25 Q271.269 372.4844 271.4878 373.0312 Q271.6128 373.3906 271.6128 374.1875 L271.6128 376.6875 Q271.6128 377.2344 271.7065 377.4375 Q271.769 377.5781 271.9409 377.6719 Q272.1128 377.7656 272.5034 377.7656 L272.5034 378 L269.6284 378 L269.6284 377.7656 L269.7534 377.7656 Q270.1284 377.7656 270.3315 377.625 Q270.4722 377.5312 270.5347 377.2969 Q270.5659 377.1875 270.5659 376.6875 L270.5659 374.1875 Q270.5659 373.4688 270.394 373.1875 Q270.144 372.7812 269.5972 372.7812 Q269.269 372.7812 268.9253 372.9453 Q268.5815 373.1094 268.0972 373.5625 L268.0972 373.6406 L268.0972 373.9062 L268.0972 376.6875 Q268.0972 377.2812 268.1675 377.4297 Q268.2378 377.5781 268.4175 377.6719 Q268.5972 377.7656 269.0503 377.7656 L269.0503 378 L266.1128 378 L266.1128 377.7656 Q266.5972 377.7656 266.7769 377.6562 Q266.9565 377.5469 267.019 377.3125 Q267.0503 377.2031 267.0503 376.6875 L267.0503 374.1875 Q267.0503 373.4688 266.8472 373.1562 Q266.5659 372.75 266.0659 372.75 Q265.7222 372.75 265.394 372.9375 Q264.8628 373.2188 264.5815 373.5625 L264.5815 376.6875 Q264.5815 377.25 264.6597 377.4219 Q264.7378 377.5938 264.894 377.6797 Q265.0503 377.7656 265.519 377.7656 L265.519 378 L262.644 378 L262.644 377.7656 Q263.0503 377.7656 263.2065 377.6797 Q263.3628 377.5938 263.4409 377.4062 Q263.519 377.2188 263.519 376.6875 L263.519 374.4688 Q263.519 373.5 263.4722 373.2188 Q263.4253 373.0156 263.3315 372.9375 Q263.2378 372.8594 263.0659 372.8594 Q262.894 372.8594 262.644 372.9531 L262.5503 372.7188 L264.3003 372.0156 L264.5815 372.0156 L264.5815 373.25 ZM273.0215 369.2031 L275.8184 369.2031 L275.8184 380.5781 L273.0215 380.5781 L273.0215 380.0781 L274.8652 380.0781 L274.8652 369.7031 L273.0215 369.7031 L273.0215 369.2031 Z"
                  style="clip-path:url(#clipPath3); stroke:none;"/>
        </g>
        <g transform="translate(5,22)"
           style="font-size:9px; text-rendering:optimizeLegibility; color-rendering:optimizeQuality; image-rendering:optimizeQuality; font-family:'Times New Roman'; color-interpolation:linearRGB;">
            <path d="M97 349 L97 353.2"
                  style="fill:none; clip-path:url(#clipPath1);"/>
            <path d="M100.3906 382.4062 Q100.3906 381.1562 100.7734 380.2578 Q101.1562 379.3594 101.7656 378.9219 Q102.25 378.5625 102.7656 378.5625 Q103.6094 378.5625 104.2812 379.4219 Q105.1094 380.4844 105.1094 382.2812 Q105.1094 383.5625 104.7422 384.4453 Q104.375 385.3281 103.8125 385.7266 Q103.25 386.125 102.7188 386.125 Q101.6719 386.125 100.9844 384.9062 Q100.3906 383.8594 100.3906 382.4062 ZM101.4531 382.5312 Q101.4531 384.0469 101.8281 384.9844 Q102.125 385.7969 102.7344 385.7969 Q103.0312 385.7969 103.3359 385.5312 Q103.6406 385.2656 103.8125 384.6562 Q104.0625 383.7344 104.0625 382.0469 Q104.0625 380.8125 103.7969 379.9688 Q103.6094 379.3594 103.2969 379.0938 Q103.0781 378.9219 102.7656 378.9219 Q102.4062 378.9219 102.1094 379.25 Q101.7344 379.6875 101.5938 380.6484 Q101.4531 381.6094 101.4531 382.5312 Z"
                  style="clip-path:url(#clipPath6); stroke:none;"
                  transform="translate(-5,-22)"/>
        </g>
        <g transform="translate(5,22)"
           style="font-size:9px; text-rendering:optimizeLegibility; color-rendering:optimizeQuality; image-rendering:optimizeQuality; font-family:'Times New Roman'; color-interpolation:linearRGB;">
            <path d="M135.2821 349 L135.2821 353.2"
                  style="fill:none; clip-path:url(#clipPath1);"/>
            <path d="M136.2969 379.4375 L138.0625 378.5625 L138.2344 378.5625 L138.2344 384.7188 Q138.2344 385.3281 138.2891 385.4766 Q138.3438 385.625 138.5 385.7109 Q138.6562 385.7969 139.1562 385.7969 L139.1562 386 L136.4219 386 L136.4219 385.7969 Q136.9375 385.7969 137.0859 385.7188 Q137.2344 385.6406 137.2969 385.5078 Q137.3594 385.375 137.3594 384.7188 L137.3594 380.7812 Q137.3594 379.9844 137.2969 379.7656 Q137.2656 379.5938 137.1641 379.5156 Q137.0625 379.4375 136.9219 379.4375 Q136.7188 379.4375 136.375 379.5938 L136.2969 379.4375 ZM140.8906 382.4062 Q140.8906 381.1562 141.2734 380.2578 Q141.6562 379.3594 142.2656 378.9219 Q142.75 378.5625 143.2656 378.5625 Q144.1094 378.5625 144.7812 379.4219 Q145.6094 380.4844 145.6094 382.2812 Q145.6094 383.5625 145.2422 384.4453 Q144.875 385.3281 144.3125 385.7266 Q143.75 386.125 143.2188 386.125 Q142.1719 386.125 141.4844 384.9062 Q140.8906 383.8594 140.8906 382.4062 ZM141.9531 382.5312 Q141.9531 384.0469 142.3281 384.9844 Q142.625 385.7969 143.2344 385.7969 Q143.5312 385.7969 143.8359 385.5312 Q144.1406 385.2656 144.3125 384.6562 Q144.5625 383.7344 144.5625 382.0469 Q144.5625 380.8125 144.2969 379.9688 Q144.1094 379.3594 143.7969 379.0938 Q143.5781 378.9219 143.2656 378.9219 Q142.9062 378.9219 142.6094 379.25 Q142.2344 379.6875 142.0938 380.6484 Q141.9531 381.6094 141.9531 382.5312 Z"
                  style="clip-path:url(#clipPath6); stroke:none;"
                  transform="translate(-5,-22)"/>
        </g>
        <g transform="translate(5,22)"
           style="font-size:9px; text-rendering:optimizeLegibility; color-rendering:optimizeQuality; image-rendering:optimizeQuality; font-family:'Times New Roman'; color-interpolation:linearRGB;">
            <path d="M173.5642 349 L173.5642 353.2"
                  style="fill:none; clip-path:url(#clipPath1);"/>
            <path d="M178.0469 384.5938 L177.5312 386 L173.2344 386 L173.2344 385.7969 Q175.125 384.0781 175.8984 382.9766 Q176.6719 381.875 176.6719 380.9688 Q176.6719 380.2812 176.25 379.8359 Q175.8281 379.3906 175.2344 379.3906 Q174.7031 379.3906 174.2734 379.7031 Q173.8438 380.0156 173.6406 380.625 L173.4531 380.625 Q173.5781 379.625 174.1328 379.0938 Q174.6875 378.5625 175.5312 378.5625 Q176.4062 378.5625 177 379.1328 Q177.5938 379.7031 177.5938 380.4844 Q177.5938 381.0312 177.3438 381.5781 Q176.9375 382.4531 176.0469 383.4219 Q174.7188 384.8906 174.375 385.1875 L176.2812 385.1875 Q176.8594 385.1875 177.0938 385.1484 Q177.3281 385.1094 177.5156 384.9766 Q177.7031 384.8438 177.8438 384.5938 L178.0469 384.5938 ZM178.8906 382.4062 Q178.8906 381.1562 179.2734 380.2578 Q179.6562 379.3594 180.2656 378.9219 Q180.75 378.5625 181.2656 378.5625 Q182.1094 378.5625 182.7812 379.4219 Q183.6094 380.4844 183.6094 382.2812 Q183.6094 383.5625 183.2422 384.4453 Q182.875 385.3281 182.3125 385.7266 Q181.75 386.125 181.2188 386.125 Q180.1719 386.125 179.4844 384.9062 Q178.8906 383.8594 178.8906 382.4062 ZM179.9531 382.5312 Q179.9531 384.0469 180.3281 384.9844 Q180.625 385.7969 181.2344 385.7969 Q181.5312 385.7969 181.8359 385.5312 Q182.1406 385.2656 182.3125 384.6562 Q182.5625 383.7344 182.5625 382.0469 Q182.5625 380.8125 182.2969 379.9688 Q182.1094 379.3594 181.7969 379.0938 Q181.5781 378.9219 181.2656 378.9219 Q180.9062 378.9219 180.6094 379.25 Q180.2344 379.6875 180.0938 380.6484 Q179.9531 381.6094 179.9531 382.5312 Z"
                  style="clip-path:url(#clipPath6); stroke:none;"
                  transform="translate(-5,-22)"/>
        </g>
        <g transform="translate(5,22)"
           style="font-size:9px; text-rendering:optimizeLegibility; color-rendering:optimizeQuality; image-rendering:optimizeQuality; font-family:'Times New Roman'; color-interpolation:linearRGB;">
            <path d="M211.8463 349 L211.8463 353.2"
                  style="fill:none; clip-path:url(#clipPath1);"/>
            <path d="M211.5625 380.1094 Q211.875 379.3594 212.3516 378.9609 Q212.8281 378.5625 213.5312 378.5625 Q214.4062 378.5625 214.875 379.1406 Q215.2344 379.5625 215.2344 380.0469 Q215.2344 380.8438 214.2344 381.6875 Q214.9062 381.9531 215.25 382.4375 Q215.5938 382.9219 215.5938 383.5938 Q215.5938 384.5312 214.9844 385.2188 Q214.2031 386.125 212.7188 386.125 Q211.9844 386.125 211.7188 385.9453 Q211.4531 385.7656 211.4531 385.5469 Q211.4531 385.3906 211.5781 385.2734 Q211.7031 385.1562 211.875 385.1562 Q212.0156 385.1562 212.1562 385.2031 Q212.2344 385.2344 212.5625 385.3984 Q212.8906 385.5625 213.0156 385.6094 Q213.2031 385.6562 213.4375 385.6562 Q213.9844 385.6562 214.3906 385.2344 Q214.7969 384.8125 214.7969 384.2344 Q214.7969 383.8125 214.6094 383.4062 Q214.4688 383.1094 214.2969 382.9531 Q214.0625 382.7344 213.6641 382.5625 Q213.2656 382.3906 212.8438 382.3906 L212.6719 382.3906 L212.6719 382.2188 Q213.0938 382.1719 213.5234 381.9219 Q213.9531 381.6719 214.1406 381.3125 Q214.3281 380.9531 214.3281 380.5312 Q214.3281 379.9844 213.9844 379.6406 Q213.6406 379.2969 213.125 379.2969 Q212.2969 379.2969 211.7344 380.1875 L211.5625 380.1094 ZM216.8906 382.4062 Q216.8906 381.1562 217.2734 380.2578 Q217.6562 379.3594 218.2656 378.9219 Q218.75 378.5625 219.2656 378.5625 Q220.1094 378.5625 220.7812 379.4219 Q221.6094 380.4844 221.6094 382.2812 Q221.6094 383.5625 221.2422 384.4453 Q220.875 385.3281 220.3125 385.7266 Q219.75 386.125 219.2188 386.125 Q218.1719 386.125 217.4844 384.9062 Q216.8906 383.8594 216.8906 382.4062 ZM217.9531 382.5312 Q217.9531 384.0469 218.3281 384.9844 Q218.625 385.7969 219.2344 385.7969 Q219.5312 385.7969 219.8359 385.5312 Q220.1406 385.2656 220.3125 384.6562 Q220.5625 383.7344 220.5625 382.0469 Q220.5625 380.8125 220.2969 379.9688 Q220.1094 379.3594 219.7969 379.0938 Q219.5781 378.9219 219.2656 378.9219 Q218.9062 378.9219 218.6094 379.25 Q218.2344 379.6875 218.0938 380.6484 Q217.9531 381.6094 217.9531 382.5312 Z"
                  style="clip-path:url(#clipPath6); stroke:none;"
                  transform="translate(-5,-22)"/>
        </g>
        <g transform="translate(5,22)"
           style="font-size:9px; text-rendering:optimizeLegibility; color-rendering:optimizeQuality; image-rendering:optimizeQuality; font-family:'Times New Roman'; color-interpolation:linearRGB;">
            <path d="M250.1284 349 L250.1284 353.2"
                  style="fill:none; clip-path:url(#clipPath1);"/>
            <path d="M255.125 383.3125 L255.125 384.0781 L254.1406 384.0781 L254.1406 386 L253.25 386 L253.25 384.0781 L250.1719 384.0781 L250.1719 383.3906 L253.5469 378.5625 L254.1406 378.5625 L254.1406 383.3125 L255.125 383.3125 ZM253.25 383.3125 L253.25 379.7031 L250.7031 383.3125 L253.25 383.3125 ZM255.8906 382.4062 Q255.8906 381.1562 256.2734 380.2578 Q256.6562 379.3594 257.2656 378.9219 Q257.75 378.5625 258.2656 378.5625 Q259.1094 378.5625 259.7812 379.4219 Q260.6094 380.4844 260.6094 382.2812 Q260.6094 383.5625 260.2422 384.4453 Q259.875 385.3281 259.3125 385.7266 Q258.75 386.125 258.2188 386.125 Q257.1719 386.125 256.4844 384.9062 Q255.8906 383.8594 255.8906 382.4062 ZM256.9531 382.5312 Q256.9531 384.0469 257.3281 384.9844 Q257.625 385.7969 258.2344 385.7969 Q258.5312 385.7969 258.8359 385.5312 Q259.1406 385.2656 259.3125 384.6562 Q259.5625 383.7344 259.5625 382.0469 Q259.5625 380.8125 259.2969 379.9688 Q259.1094 379.3594 258.7969 379.0938 Q258.5781 378.9219 258.2656 378.9219 Q257.9062 378.9219 257.6094 379.25 Q257.2344 379.6875 257.0938 380.6484 Q256.9531 381.6094 256.9531 382.5312 Z"
                  style="clip-path:url(#clipPath6); stroke:none;"
                  transform="translate(-5,-22)"/>
        </g>
        <g transform="translate(5,22)"
           style="font-size:9px; text-rendering:optimizeLegibility; color-rendering:optimizeQuality; image-rendering:optimizeQuality; font-family:'Times New Roman'; color-interpolation:linearRGB;">
            <path d="M288.4105 349 L288.4105 353.2"
                  style="fill:none; clip-path:url(#clipPath1);"/>
            <path d="M292.7812 378.7188 L292.3594 379.625 L290.1719 379.625 L289.6875 380.6094 Q291.1094 380.8125 291.9375 381.6719 Q292.6562 382.3906 292.6562 383.3906 Q292.6562 383.9531 292.4219 384.4453 Q292.1875 384.9375 291.8359 385.2812 Q291.4844 385.625 291.0469 385.8281 Q290.4219 386.125 289.7812 386.125 Q289.125 386.125 288.8281 385.9062 Q288.5312 385.6875 288.5312 385.4219 Q288.5312 385.2656 288.6562 385.1484 Q288.7812 385.0312 288.9688 385.0312 Q289.0938 385.0312 289.2031 385.0781 Q289.3125 385.125 289.5625 385.2969 Q289.9688 385.5781 290.375 385.5781 Q291.0156 385.5781 291.4844 385.1016 Q291.9531 384.625 291.9531 383.9375 Q291.9531 383.2812 291.5312 382.7109 Q291.1094 382.1406 290.3594 381.8281 Q289.7812 381.5781 288.7656 381.5469 L290.1719 378.7188 L292.7812 378.7188 ZM293.8906 382.4062 Q293.8906 381.1562 294.2734 380.2578 Q294.6562 379.3594 295.2656 378.9219 Q295.75 378.5625 296.2656 378.5625 Q297.1094 378.5625 297.7812 379.4219 Q298.6094 380.4844 298.6094 382.2812 Q298.6094 383.5625 298.2422 384.4453 Q297.875 385.3281 297.3125 385.7266 Q296.75 386.125 296.2188 386.125 Q295.1719 386.125 294.4844 384.9062 Q293.8906 383.8594 293.8906 382.4062 ZM294.9531 382.5312 Q294.9531 384.0469 295.3281 384.9844 Q295.625 385.7969 296.2344 385.7969 Q296.5312 385.7969 296.8359 385.5312 Q297.1406 385.2656 297.3125 384.6562 Q297.5625 383.7344 297.5625 382.0469 Q297.5625 380.8125 297.2969 379.9688 Q297.1094 379.3594 296.7969 379.0938 Q296.5781 378.9219 296.2656 378.9219 Q295.9062 378.9219 295.6094 379.25 Q295.2344 379.6875 295.0938 380.6484 Q294.9531 381.6094 294.9531 382.5312 Z"
                  style="clip-path:url(#clipPath6); stroke:none;"
                  transform="translate(-5,-22)"/>
        </g>
        <g transform="translate(5,22)"
           style="font-size:9px; text-rendering:optimizeLegibility; color-rendering:optimizeQuality; image-rendering:optimizeQuality; font-family:'Times New Roman'; color-interpolation:linearRGB;">
            <path d="M326.6926 349 L326.6926 353.2"
                  style="fill:none; clip-path:url(#clipPath1);"/>
            <path d="M330.9375 378.5625 L330.9375 378.7656 Q330.2188 378.8281 329.7734 379.0469 Q329.3281 379.2656 328.8906 379.6953 Q328.4531 380.125 328.1641 380.6641 Q327.875 381.2031 327.6875 381.9375 Q328.4531 381.4062 329.2344 381.4062 Q329.9844 381.4062 330.5312 382.0078 Q331.0781 382.6094 331.0781 383.5469 Q331.0781 384.4688 330.5156 385.2188 Q329.8594 386.125 328.7656 386.125 Q328.0156 386.125 327.5 385.6406 Q326.4688 384.6719 326.4688 383.1406 Q326.4688 382.1719 326.8594 381.2891 Q327.25 380.4062 327.9844 379.7188 Q328.7188 379.0312 329.3828 378.7969 Q330.0469 378.5625 330.625 378.5625 L330.9375 378.5625 ZM327.5938 382.3281 Q327.5 383.0469 327.5 383.5 Q327.5 384.0156 327.6875 384.6172 Q327.875 385.2188 328.25 385.5781 Q328.5312 385.8281 328.9219 385.8281 Q329.3906 385.8281 329.7578 385.3906 Q330.125 384.9531 330.125 384.125 Q330.125 383.2188 329.7578 382.5469 Q329.3906 381.875 328.7188 381.875 Q328.5156 381.875 328.2812 381.9609 Q328.0469 382.0469 327.5938 382.3281 ZM331.8906 382.4062 Q331.8906 381.1562 332.2734 380.2578 Q332.6562 379.3594 333.2656 378.9219 Q333.75 378.5625 334.2656 378.5625 Q335.1094 378.5625 335.7812 379.4219 Q336.6094 380.4844 336.6094 382.2812 Q336.6094 383.5625 336.2422 384.4453 Q335.875 385.3281 335.3125 385.7266 Q334.75 386.125 334.2188 386.125 Q333.1719 386.125 332.4844 384.9062 Q331.8906 383.8594 331.8906 382.4062 ZM332.9531 382.5312 Q332.9531 384.0469 333.3281 384.9844 Q333.625 385.7969 334.2344 385.7969 Q334.5312 385.7969 334.8359 385.5312 Q335.1406 385.2656 335.3125 384.6562 Q335.5625 383.7344 335.5625 382.0469 Q335.5625 380.8125 335.2969 379.9688 Q335.1094 379.3594 334.7969 379.0938 Q334.5781 378.9219 334.2656 378.9219 Q333.9062 378.9219 333.6094 379.25 Q333.2344 379.6875 333.0938 380.6484 Q332.9531 381.6094 332.9531 382.5312 Z"
                  style="clip-path:url(#clipPath6); stroke:none;"
                  transform="translate(-5,-22)"/>
        </g>
        <g transform="translate(5,22)"
           style="font-size:9px; text-rendering:optimizeLegibility; color-rendering:optimizeQuality; image-rendering:optimizeQuality; font-family:'Times New Roman'; color-interpolation:linearRGB;">
            <path d="M364.9747 349 L364.9747 353.2"
                  style="fill:none; clip-path:url(#clipPath1);"/>
            <path d="M365.1094 378.7188 L369.0156 378.7188 L369.0156 378.9219 L366.5781 386.1562 L365.9844 386.1562 L368.1562 379.5938 L366.1562 379.5938 Q365.5469 379.5938 365.2969 379.7344 Q364.8438 379.9844 364.5625 380.5 L364.4062 380.4375 L365.1094 378.7188 ZM369.8906 382.4062 Q369.8906 381.1562 370.2734 380.2578 Q370.6562 379.3594 371.2656 378.9219 Q371.75 378.5625 372.2656 378.5625 Q373.1094 378.5625 373.7812 379.4219 Q374.6094 380.4844 374.6094 382.2812 Q374.6094 383.5625 374.2422 384.4453 Q373.875 385.3281 373.3125 385.7266 Q372.75 386.125 372.2188 386.125 Q371.1719 386.125 370.4844 384.9062 Q369.8906 383.8594 369.8906 382.4062 ZM370.9531 382.5312 Q370.9531 384.0469 371.3281 384.9844 Q371.625 385.7969 372.2344 385.7969 Q372.5312 385.7969 372.8359 385.5312 Q373.1406 385.2656 373.3125 384.6562 Q373.5625 383.7344 373.5625 382.0469 Q373.5625 380.8125 373.2969 379.9688 Q373.1094 379.3594 372.7969 379.0938 Q372.5781 378.9219 372.2656 378.9219 Q371.9062 378.9219 371.6094 379.25 Q371.2344 379.6875 371.0938 380.6484 Q370.9531 381.6094 370.9531 382.5312 Z"
                  style="clip-path:url(#clipPath6); stroke:none;"
                  transform="translate(-5,-22)"/>
        </g>
        <g transform="translate(5,22)"
           style="font-size:9px; text-rendering:optimizeLegibility; color-rendering:optimizeQuality; image-rendering:optimizeQuality; font-family:'Times New Roman'; color-interpolation:linearRGB;">
            <path d="M403.2568 349 L403.2568 353.2"
                  style="fill:none; clip-path:url(#clipPath1);"/>
            <path d="M405.1094 382.3281 Q404.25 381.625 404 381.1953 Q403.75 380.7656 403.75 380.2969 Q403.75 379.5938 404.2969 379.0781 Q404.8438 378.5625 405.75 378.5625 Q406.625 378.5625 407.1641 379.0391 Q407.7031 379.5156 407.7031 380.1406 Q407.7031 380.5469 407.4141 380.9688 Q407.125 381.3906 406.2031 381.9688 Q407.1562 382.7031 407.4531 383.1094 Q407.8594 383.6562 407.8594 384.2656 Q407.8594 385.0312 407.2812 385.5781 Q406.7031 386.125 405.75 386.125 Q404.7031 386.125 404.125 385.4844 Q403.6719 384.9531 403.6719 384.3438 Q403.6719 383.8594 403.9922 383.3828 Q404.3125 382.9062 405.1094 382.3281 ZM405.9531 381.75 Q406.5938 381.1719 406.7656 380.8359 Q406.9375 380.5 406.9375 380.0781 Q406.9375 379.5156 406.625 379.1953 Q406.3125 378.875 405.7656 378.875 Q405.2188 378.875 404.875 379.1953 Q404.5312 379.5156 404.5312 379.9375 Q404.5312 380.2188 404.6719 380.5 Q404.8125 380.7812 405.0781 381.0312 L405.9531 381.75 ZM405.3594 382.5312 Q404.9219 382.9062 404.7031 383.3516 Q404.4844 383.7969 404.4844 384.3125 Q404.4844 385 404.8672 385.4219 Q405.25 385.8438 405.8281 385.8438 Q406.4062 385.8438 406.7578 385.5156 Q407.1094 385.1875 407.1094 384.7188 Q407.1094 384.3281 406.9062 384.0156 Q406.5312 383.4531 405.3594 382.5312 ZM408.8906 382.4062 Q408.8906 381.1562 409.2734 380.2578 Q409.6562 379.3594 410.2656 378.9219 Q410.75 378.5625 411.2656 378.5625 Q412.1094 378.5625 412.7812 379.4219 Q413.6094 380.4844 413.6094 382.2812 Q413.6094 383.5625 413.2422 384.4453 Q412.875 385.3281 412.3125 385.7266 Q411.75 386.125 411.2188 386.125 Q410.1719 386.125 409.4844 384.9062 Q408.8906 383.8594 408.8906 382.4062 ZM409.9531 382.5312 Q409.9531 384.0469 410.3281 384.9844 Q410.625 385.7969 411.2344 385.7969 Q411.5312 385.7969 411.8359 385.5312 Q412.1406 385.2656 412.3125 384.6562 Q412.5625 383.7344 412.5625 382.0469 Q412.5625 380.8125 412.2969 379.9688 Q412.1094 379.3594 411.7969 379.0938 Q411.5781 378.9219 411.2656 378.9219 Q410.9062 378.9219 410.6094 379.25 Q410.2344 379.6875 410.0938 380.6484 Q409.9531 381.6094 409.9531 382.5312 Z"
                  style="clip-path:url(#clipPath6); stroke:none;"
                  transform="translate(-5,-22)"/>
        </g>
        <g transform="translate(5,22)"
           style="font-size:9px; text-rendering:optimizeLegibility; color-rendering:optimizeQuality; image-rendering:optimizeQuality; font-family:'Times New Roman'; color-interpolation:linearRGB;">
            <path d="M116.1411 349 L116.1411 351.1"
                  style="fill:none; clip-path:url(#clipPath1);"/>
        </g>
        <g transform="translate(5,22)"
           style="font-size:9px; text-rendering:optimizeLegibility; color-rendering:optimizeQuality; image-rendering:optimizeQuality; font-family:'Times New Roman'; color-interpolation:linearRGB;">
            <path d="M154.4232 349 L154.4232 351.1"
                  style="fill:none; clip-path:url(#clipPath1);"/>
        </g>
        <g transform="translate(5,22)"
           style="font-size:9px; text-rendering:optimizeLegibility; color-rendering:optimizeQuality; image-rendering:optimizeQuality; font-family:'Times New Roman'; color-interpolation:linearRGB;">
            <path d="M192.7053 349 L192.7053 351.1"
                  style="fill:none; clip-path:url(#clipPath1);"/>
        </g>
        <g transform="translate(5,22)"
           style="font-size:9px; text-rendering:optimizeLegibility; color-rendering:optimizeQuality; image-rendering:optimizeQuality; font-family:'Times New Roman'; color-interpolation:linearRGB;">
            <path d="M230.9874 349 L230.9874 351.1"
                  style="fill:none; clip-path:url(#clipPath1);"/>
        </g>
        <g transform="translate(5,22)"
           style="font-size:9px; text-rendering:optimizeLegibility; color-rendering:optimizeQuality; image-rendering:optimizeQuality; font-family:'Times New Roman'; color-interpolation:linearRGB;">
            <path d="M269.2695 349 L269.2695 351.1"
                  style="fill:none; clip-path:url(#clipPath1);"/>
        </g>
        <g transform="translate(5,22)"
           style="font-size:9px; text-rendering:optimizeLegibility; color-rendering:optimizeQuality; image-rendering:optimizeQuality; font-family:'Times New Roman'; color-interpolation:linearRGB;">
            <path d="M307.5516 349 L307.5516 351.1"
                  style="fill:none; clip-path:url(#clipPath1);"/>
        </g>
        <g transform="translate(5,22)"
           style="font-size:9px; text-rendering:optimizeLegibility; color-rendering:optimizeQuality; image-rendering:optimizeQuality; font-family:'Times New Roman'; color-interpolation:linearRGB;">
            <path d="M345.8337 349 L345.8337 351.1"
                  style="fill:none; clip-path:url(#clipPath1);"/>
        </g>
        <g transform="translate(5,22)"
           style="font-size:9px; text-rendering:optimizeLegibility; color-rendering:optimizeQuality; image-rendering:optimizeQuality; font-family:'Times New Roman'; color-interpolation:linearRGB;">
            <path d="M384.1158 349 L384.1158 351.1"
                  style="fill:none; clip-path:url(#clipPath1);"/>
        </g>
        <g transform="translate(5,22)"
           style="stroke-linecap:butt; font-size:9px; text-rendering:optimizeLegibility; image-rendering:optimizeQuality; color-rendering:optimizeQuality; font-family:'Times New Roman'; stroke-linejoin:round; color-interpolation:linearRGB;">
            <path d="M95 349 L95 1.0029"
                  style="fill:none; clip-path:url(#clipPath1);"/>
            <path d="M406.1022 349 L406.1022 1.0029"
                  style="fill:none; clip-path:url(#clipPath1);"/>
        </g>
        <g transform="translate(5,22)"
           style="stroke-linecap:butt; font-size:9px; text-rendering:optimizeLegibility; image-rendering:optimizeQuality; color-rendering:optimizeQuality; font-family:'Times New Roman'; stroke-linejoin:round; color-interpolation:linearRGB;">
            <path d="M10.4375 172.7031 Q10.4062 173.1562 10.3672 173.6562 Q10.3281 174.1562 10.2969 174.5938 Q10.2656 175.0312 10.2422 175.3672 Q10.2188 175.7031 10.2188 175.7969 Q10.2188 176.0156 10.2734 176.2344 Q10.3281 176.4531 10.4375 176.625 Q10.5469 176.7969 10.7031 176.9141 Q10.8594 177.0312 11.0625 177.0312 Q11.3906 177.0312 11.5781 176.8047 Q11.7656 176.5781 11.8281 176.0312 L12.0625 176.0312 Q12.0625 176.4375 12.0234 176.7266 Q11.9844 177.0156 11.9219 177.2188 Q11.8594 177.4219 11.7578 177.5781 Q11.6562 177.7344 11.5312 177.8438 Q11.3125 178.0781 11.0625 178.1641 Q10.8125 178.25 10.625 178.25 Q10.4531 178.25 10.2656 178.1797 Q10.0781 178.1094 9.9375 177.9688 Q9.5625 177.5938 9.4609 177.0547 Q9.3594 176.5156 9.3594 176.0156 Q9.3594 175.3438 9.4297 174.5625 Q9.5 173.7812 9.6406 172.7031 L8.4688 172.7031 Q8.1719 172.7031 7.875 173.0469 Q7.5781 173.3906 7.3594 173.9531 L7.125 173.9531 Q7.3125 173.2188 7.5391 172.7656 Q7.7656 172.3125 8.0625 172.0156 Q8.3594 171.7188 8.7266 171.6094 Q9.0938 171.5 9.375 171.5 L12.4375 171.5 L12.4375 172.7031 L10.4375 172.7031 Z"
                  style="stroke:none; clip-path:url(#clipPath7);"/>
            <path d="M13.4375 180.8438 L13.5 181.875 Q13.5156 182.25 13.625 182.5938 Q13.7344 182.9375 13.8906 183.2031 Q14.0469 183.4688 14.2422 183.6328 Q14.4375 183.7969 14.6562 183.7969 Q14.8594 183.7969 15.0625 183.6172 Q15.2656 183.4375 15.4141 183.1719 Q15.5625 182.9062 15.6641 182.5625 Q15.7656 182.2188 15.7812 181.8906 L15.8438 180.8438 L13.4375 180.8438 ZM15.7969 179.375 Q15.7812 179.2344 15.75 179.0703 Q15.7188 178.9062 15.6719 178.7344 Q15.625 178.5625 15.5781 178.3984 Q15.5312 178.2344 15.4688 178.125 Q15.3125 177.8281 15.0781 177.6328 Q14.8438 177.4375 14.625 177.4375 Q14.4688 177.4375 14.2266 177.6172 Q13.9844 177.7969 13.8438 178.0625 Q13.7656 178.2031 13.7109 178.375 Q13.6562 178.5469 13.6094 178.7266 Q13.5625 178.9062 13.5312 179.0703 Q13.5 179.2344 13.4844 179.3594 L13.4375 180.3125 L15.8438 180.3125 L15.7969 179.375 ZM16.8438 180.4844 Q16.8438 181.3125 16.7344 181.9141 Q16.625 182.5156 16.4375 182.9062 Q16.3125 183.1562 16.125 183.3828 Q15.9375 183.6094 15.7031 183.7812 Q15.4688 183.9531 15.2031 184.0625 Q14.9375 184.1719 14.6562 184.1719 Q14.125 184.1719 13.6406 183.8438 Q13.1562 183.5156 12.8594 182.9062 Q12.6562 182.4844 12.5469 181.8906 Q12.4375 181.2969 12.4375 180.4844 Q12.4375 179.8125 12.5312 179.3516 Q12.625 178.8906 12.8125 178.5156 Q12.9531 178.2031 13.1641 177.9453 Q13.375 177.6875 13.6094 177.5 Q13.8438 177.3125 14.1094 177.2031 Q14.375 177.0938 14.6562 177.0938 Q14.8594 177.0938 15.1016 177.1797 Q15.3438 177.2656 15.5938 177.4453 Q15.8438 177.625 16.0703 177.8984 Q16.2969 178.1719 16.4844 178.5469 Q16.6875 178.9219 16.7656 179.4062 Q16.8438 179.8906 16.8438 180.4844 Z"
                  style="clip-path:url(#clipPath7); stroke:none;"/>
            <path d="M21.8594 180.5781 L19.0625 180.5781 L19.0625 169.2031 L21.8594 169.2031 L21.8594 169.7031 L20.0156 169.7031 L20.0156 180.0781 L21.8594 180.0781 L21.8594 180.5781 ZM24.9072 169.2031 Q25.7197 169.2031 26.29 169.7734 Q26.8604 170.3438 26.8604 171.1562 Q26.8604 171.9688 26.29 172.5391 Q25.7197 173.1094 24.9072 173.1094 Q24.0947 173.1094 23.5244 172.5391 Q22.9541 171.9688 22.9541 171.1562 Q22.9541 170.3438 23.5244 169.7734 Q24.0947 169.2031 24.9072 169.2031 ZM24.9072 169.7344 Q24.3135 169.7344 23.8994 170.1484 Q23.4854 170.5625 23.4854 171.1562 Q23.4854 171.7344 23.8994 172.1484 Q24.3135 172.5625 24.9072 172.5625 Q25.4854 172.5625 25.8994 172.1484 Q26.3135 171.7344 26.3135 171.1562 Q26.3135 170.5625 25.8994 170.1484 Q25.4854 169.7344 24.9072 169.7344 ZM31.1685 168.9688 L28.0591 178.1719 L27.5435 178.1719 L30.6685 168.9688 L31.1685 168.9688 ZM33.2803 173.25 Q33.9053 172.6094 34.0146 172.5156 Q34.3115 172.2812 34.6396 172.1484 Q34.9678 172.0156 35.2959 172.0156 Q35.8428 172.0156 36.2334 172.3359 Q36.624 172.6562 36.7646 173.25 Q37.4053 172.4844 37.8584 172.25 Q38.3115 172.0156 38.7959 172.0156 Q39.249 172.0156 39.6084 172.25 Q39.9678 172.4844 40.1865 173.0312 Q40.3115 173.3906 40.3115 174.1875 L40.3115 176.6875 Q40.3115 177.2344 40.4053 177.4375 Q40.4678 177.5781 40.6396 177.6719 Q40.8115 177.7656 41.2021 177.7656 L41.2021 178 L38.3271 178 L38.3271 177.7656 L38.4521 177.7656 Q38.8271 177.7656 39.0303 177.625 Q39.1709 177.5312 39.2334 177.2969 Q39.2646 177.1875 39.2646 176.6875 L39.2646 174.1875 Q39.2646 173.4688 39.0928 173.1875 Q38.8428 172.7812 38.2959 172.7812 Q37.9678 172.7812 37.624 172.9453 Q37.2803 173.1094 36.7959 173.5625 L36.7959 173.6406 L36.7959 173.9062 L36.7959 176.6875 Q36.7959 177.2812 36.8662 177.4297 Q36.9365 177.5781 37.1162 177.6719 Q37.2959 177.7656 37.749 177.7656 L37.749 178 L34.8115 178 L34.8115 177.7656 Q35.2959 177.7656 35.4756 177.6562 Q35.6553 177.5469 35.7178 177.3125 Q35.749 177.2031 35.749 176.6875 L35.749 174.1875 Q35.749 173.4688 35.5459 173.1562 Q35.2646 172.75 34.7646 172.75 Q34.4209 172.75 34.0928 172.9375 Q33.5615 173.2188 33.2803 173.5625 L33.2803 176.6875 Q33.2803 177.25 33.3584 177.4219 Q33.4365 177.5938 33.5928 177.6797 Q33.749 177.7656 34.2178 177.7656 L34.2178 178 L31.3428 178 L31.3428 177.7656 Q31.749 177.7656 31.9053 177.6797 Q32.0615 177.5938 32.1396 177.4062 Q32.2178 177.2188 32.2178 176.6875 L32.2178 174.4688 Q32.2178 173.5 32.1709 173.2188 Q32.124 173.0156 32.0303 172.9375 Q31.9365 172.8594 31.7646 172.8594 Q31.5928 172.8594 31.3428 172.9531 L31.249 172.7188 L32.999 172.0156 L33.2803 172.0156 L33.2803 173.25 ZM43.3921 173.25 Q44.0171 172.6094 44.1265 172.5156 Q44.4233 172.2812 44.7515 172.1484 Q45.0796 172.0156 45.4077 172.0156 Q45.9546 172.0156 46.3452 172.3359 Q46.7358 172.6562 46.8765 173.25 Q47.5171 172.4844 47.9702 172.25 Q48.4233 172.0156 48.9077 172.0156 Q49.3608 172.0156 49.7202 172.25 Q50.0796 172.4844 50.2983 173.0312 Q50.4233 173.3906 50.4233 174.1875 L50.4233 176.6875 Q50.4233 177.2344 50.5171 177.4375 Q50.5796 177.5781 50.7515 177.6719 Q50.9233 177.7656 51.314 177.7656 L51.314 178 L48.439 178 L48.439 177.7656 L48.564 177.7656 Q48.939 177.7656 49.1421 177.625 Q49.2827 177.5312 49.3452 177.2969 Q49.3765 177.1875 49.3765 176.6875 L49.3765 174.1875 Q49.3765 173.4688 49.2046 173.1875 Q48.9546 172.7812 48.4077 172.7812 Q48.0796 172.7812 47.7358 172.9453 Q47.3921 173.1094 46.9077 173.5625 L46.9077 173.6406 L46.9077 173.9062 L46.9077 176.6875 Q46.9077 177.2812 46.978 177.4297 Q47.0483 177.5781 47.228 177.6719 Q47.4077 177.7656 47.8608 177.7656 L47.8608 178 L44.9233 178 L44.9233 177.7656 Q45.4077 177.7656 45.5874 177.6562 Q45.7671 177.5469 45.8296 177.3125 Q45.8608 177.2031 45.8608 176.6875 L45.8608 174.1875 Q45.8608 173.4688 45.6577 173.1562 Q45.3765 172.75 44.8765 172.75 Q44.5327 172.75 44.2046 172.9375 Q43.6733 173.2188 43.3921 173.5625 L43.3921 176.6875 Q43.3921 177.25 43.4702 177.4219 Q43.5483 177.5938 43.7046 177.6797 Q43.8608 177.7656 44.3296 177.7656 L44.3296 178 L41.4546 178 L41.4546 177.7656 Q41.8608 177.7656 42.0171 177.6797 Q42.1733 177.5938 42.2515 177.4062 Q42.3296 177.2188 42.3296 176.6875 L42.3296 174.4688 Q42.3296 173.5 42.2827 173.2188 Q42.2358 173.0156 42.1421 172.9375 Q42.0483 172.8594 41.8765 172.8594 Q41.7046 172.8594 41.4546 172.9531 L41.3608 172.7188 L43.1108 172.0156 L43.3921 172.0156 L43.3921 173.25 ZM51.832 169.2031 L54.6289 169.2031 L54.6289 180.5781 L51.832 180.5781 L51.832 180.0781 L53.6758 180.0781 L53.6758 169.7031 L51.832 169.7031 L51.832 169.2031 Z"
                  style="clip-path:url(#clipPath7); stroke:none;"/>
        </g>
        <g transform="translate(5,22)"
           style="font-size:9px; text-rendering:optimizeLegibility; color-rendering:optimizeQuality; image-rendering:optimizeQuality; font-family:'Times New Roman'; color-interpolation:linearRGB;">
            <path d="M95 312.7718 L90.8 312.7718"
                  style="fill:none; clip-path:url(#clipPath1);"/>
            <path d="M70.3906 335.4062 Q70.3906 334.1562 70.7734 333.2578 Q71.1562 332.3594 71.7656 331.9219 Q72.25 331.5625 72.7656 331.5625 Q73.6094 331.5625 74.2812 332.4219 Q75.1094 333.4844 75.1094 335.2812 Q75.1094 336.5625 74.7422 337.4453 Q74.375 338.3281 73.8125 338.7266 Q73.25 339.125 72.7188 339.125 Q71.6719 339.125 70.9844 337.9062 Q70.3906 336.8594 70.3906 335.4062 ZM71.4531 335.5312 Q71.4531 337.0469 71.8281 337.9844 Q72.125 338.7969 72.7344 338.7969 Q73.0312 338.7969 73.3359 338.5312 Q73.6406 338.2656 73.8125 337.6562 Q74.0625 336.7344 74.0625 335.0469 Q74.0625 333.8125 73.7969 332.9688 Q73.6094 332.3594 73.2969 332.0938 Q73.0781 331.9219 72.7656 331.9219 Q72.4062 331.9219 72.1094 332.25 Q71.7344 332.6875 71.5938 333.6484 Q71.4531 334.6094 71.4531 335.5312 ZM76.875 337.9531 Q77.125 337.9531 77.2969 338.1328 Q77.4688 338.3125 77.4688 338.5469 Q77.4688 338.7969 77.2969 338.9766 Q77.125 339.1562 76.875 339.1562 Q76.625 339.1562 76.4531 338.9766 Q76.2812 338.7969 76.2812 338.5469 Q76.2812 338.2969 76.4531 338.125 Q76.625 337.9531 76.875 337.9531 ZM83.2969 337.5938 L82.7812 339 L78.4844 339 L78.4844 338.7969 Q80.375 337.0781 81.1484 335.9766 Q81.9219 334.875 81.9219 333.9688 Q81.9219 333.2812 81.5 332.8359 Q81.0781 332.3906 80.4844 332.3906 Q79.9531 332.3906 79.5234 332.7031 Q79.0938 333.0156 78.8906 333.625 L78.7031 333.625 Q78.8281 332.625 79.3828 332.0938 Q79.9375 331.5625 80.7812 331.5625 Q81.6562 331.5625 82.25 332.1328 Q82.8438 332.7031 82.8438 333.4844 Q82.8438 334.0312 82.5938 334.5781 Q82.1875 335.4531 81.2969 336.4219 Q79.9688 337.8906 79.625 338.1875 L81.5312 338.1875 Q82.1094 338.1875 82.3438 338.1484 Q82.5781 338.1094 82.7656 337.9766 Q82.9531 337.8438 83.0938 337.5938 L83.2969 337.5938 ZM84.3281 339.1562 L84.3281 338.9531 Q85.0312 338.9375 85.6328 338.625 Q86.2344 338.3125 86.7969 337.5312 Q87.3594 336.75 87.5781 335.7969 Q86.7344 336.3438 86.0469 336.3438 Q85.2812 336.3438 84.7344 335.75 Q84.1875 335.1562 84.1875 334.1719 Q84.1875 333.2188 84.7344 332.4688 Q85.3906 331.5625 86.4531 331.5625 Q87.3594 331.5625 88 332.3125 Q88.7812 333.2188 88.7812 334.5781 Q88.7812 335.7812 88.1797 336.8359 Q87.5781 337.8906 86.5156 338.5781 Q85.6562 339.1562 84.6406 339.1562 L84.3281 339.1562 ZM87.6562 335.4062 Q87.75 334.7031 87.75 334.2969 Q87.75 333.7656 87.5781 333.1641 Q87.4062 332.5625 87.0781 332.2422 Q86.75 331.9219 86.3438 331.9219 Q85.8594 331.9219 85.5 332.3516 Q85.1406 332.7812 85.1406 333.625 Q85.1406 334.75 85.625 335.3906 Q85.9688 335.8594 86.4844 335.8594 Q86.7188 335.8594 87.0625 335.7422 Q87.4062 335.625 87.6562 335.4062 ZM89.6406 335.4062 Q89.6406 334.1562 90.0234 333.2578 Q90.4062 332.3594 91.0156 331.9219 Q91.5 331.5625 92.0156 331.5625 Q92.8594 331.5625 93.5312 332.4219 Q94.3594 333.4844 94.3594 335.2812 Q94.3594 336.5625 93.9922 337.4453 Q93.625 338.3281 93.0625 338.7266 Q92.5 339.125 91.9688 339.125 Q90.9219 339.125 90.2344 337.9062 Q89.6406 336.8594 89.6406 335.4062 ZM90.7031 335.5312 Q90.7031 337.0469 91.0781 337.9844 Q91.375 338.7969 91.9844 338.7969 Q92.2812 338.7969 92.5859 338.5312 Q92.8906 338.2656 93.0625 337.6562 Q93.3125 336.7344 93.3125 335.0469 Q93.3125 333.8125 93.0469 332.9688 Q92.8594 332.3594 92.5469 332.0938 Q92.3281 331.9219 92.0156 331.9219 Q91.6562 331.9219 91.3594 332.25 Q90.9844 332.6875 90.8438 333.6484 Q90.7031 334.6094 90.7031 335.5312 Z"
                  style="clip-path:url(#clipPath6); stroke:none;"
                  transform="translate(-5,-22)"/>
        </g>
        <g transform="translate(5,22)"
           style="font-size:9px; text-rendering:optimizeLegibility; color-rendering:optimizeQuality; image-rendering:optimizeQuality; font-family:'Times New Roman'; color-interpolation:linearRGB;">
            <path d="M95 260.314 L90.8 260.314"
                  style="fill:none; clip-path:url(#clipPath1);"/>
            <path d="M70.3906 283.4062 Q70.3906 282.1562 70.7734 281.2578 Q71.1562 280.3594 71.7656 279.9219 Q72.25 279.5625 72.7656 279.5625 Q73.6094 279.5625 74.2812 280.4219 Q75.1094 281.4844 75.1094 283.2812 Q75.1094 284.5625 74.7422 285.4453 Q74.375 286.3281 73.8125 286.7266 Q73.25 287.125 72.7188 287.125 Q71.6719 287.125 70.9844 285.9062 Q70.3906 284.8594 70.3906 283.4062 ZM71.4531 283.5312 Q71.4531 285.0469 71.8281 285.9844 Q72.125 286.7969 72.7344 286.7969 Q73.0312 286.7969 73.3359 286.5312 Q73.6406 286.2656 73.8125 285.6562 Q74.0625 284.7344 74.0625 283.0469 Q74.0625 281.8125 73.7969 280.9688 Q73.6094 280.3594 73.2969 280.0938 Q73.0781 279.9219 72.7656 279.9219 Q72.4062 279.9219 72.1094 280.25 Q71.7344 280.6875 71.5938 281.6484 Q71.4531 282.6094 71.4531 283.5312 ZM76.875 285.9531 Q77.125 285.9531 77.2969 286.1328 Q77.4688 286.3125 77.4688 286.5469 Q77.4688 286.7969 77.2969 286.9766 Q77.125 287.1562 76.875 287.1562 Q76.625 287.1562 76.4531 286.9766 Q76.2812 286.7969 76.2812 286.5469 Q76.2812 286.2969 76.4531 286.125 Q76.625 285.9531 76.875 285.9531 ZM83.2969 285.5938 L82.7812 287 L78.4844 287 L78.4844 286.7969 Q80.375 285.0781 81.1484 283.9766 Q81.9219 282.875 81.9219 281.9688 Q81.9219 281.2812 81.5 280.8359 Q81.0781 280.3906 80.4844 280.3906 Q79.9531 280.3906 79.5234 280.7031 Q79.0938 281.0156 78.8906 281.625 L78.7031 281.625 Q78.8281 280.625 79.3828 280.0938 Q79.9375 279.5625 80.7812 279.5625 Q81.6562 279.5625 82.25 280.1328 Q82.8438 280.7031 82.8438 281.4844 Q82.8438 282.0312 82.5938 282.5781 Q82.1875 283.4531 81.2969 284.4219 Q79.9688 285.8906 79.625 286.1875 L81.5312 286.1875 Q82.1094 286.1875 82.3438 286.1484 Q82.5781 286.1094 82.7656 285.9766 Q82.9531 285.8438 83.0938 285.5938 L83.2969 285.5938 ZM84.3281 287.1562 L84.3281 286.9531 Q85.0312 286.9375 85.6328 286.625 Q86.2344 286.3125 86.7969 285.5312 Q87.3594 284.75 87.5781 283.7969 Q86.7344 284.3438 86.0469 284.3438 Q85.2812 284.3438 84.7344 283.75 Q84.1875 283.1562 84.1875 282.1719 Q84.1875 281.2188 84.7344 280.4688 Q85.3906 279.5625 86.4531 279.5625 Q87.3594 279.5625 88 280.3125 Q88.7812 281.2188 88.7812 282.5781 Q88.7812 283.7812 88.1797 284.8359 Q87.5781 285.8906 86.5156 286.5781 Q85.6562 287.1562 84.6406 287.1562 L84.3281 287.1562 ZM87.6562 283.4062 Q87.75 282.7031 87.75 282.2969 Q87.75 281.7656 87.5781 281.1641 Q87.4062 280.5625 87.0781 280.2422 Q86.75 279.9219 86.3438 279.9219 Q85.8594 279.9219 85.5 280.3516 Q85.1406 280.7812 85.1406 281.625 Q85.1406 282.75 85.625 283.3906 Q85.9688 283.8594 86.4844 283.8594 Q86.7188 283.8594 87.0625 283.7422 Q87.4062 283.625 87.6562 283.4062 ZM94.0312 279.7188 L93.6094 280.625 L91.4219 280.625 L90.9375 281.6094 Q92.3594 281.8125 93.1875 282.6719 Q93.9062 283.3906 93.9062 284.3906 Q93.9062 284.9531 93.6719 285.4453 Q93.4375 285.9375 93.0859 286.2812 Q92.7344 286.625 92.2969 286.8281 Q91.6719 287.125 91.0312 287.125 Q90.375 287.125 90.0781 286.9062 Q89.7812 286.6875 89.7812 286.4219 Q89.7812 286.2656 89.9062 286.1484 Q90.0312 286.0312 90.2188 286.0312 Q90.3438 286.0312 90.4531 286.0781 Q90.5625 286.125 90.8125 286.2969 Q91.2188 286.5781 91.625 286.5781 Q92.2656 286.5781 92.7344 286.1016 Q93.2031 285.625 93.2031 284.9375 Q93.2031 284.2812 92.7812 283.7109 Q92.3594 283.1406 91.6094 282.8281 Q91.0312 282.5781 90.0156 282.5469 L91.4219 279.7188 L94.0312 279.7188 Z"
                  style="clip-path:url(#clipPath6); stroke:none;"
                  transform="translate(-5,-22)"/>
        </g>
        <g transform="translate(5,22)"
           style="font-size:9px; text-rendering:optimizeLegibility; color-rendering:optimizeQuality; image-rendering:optimizeQuality; font-family:'Times New Roman'; color-interpolation:linearRGB;">
            <path d="M95 207.8563 L90.8 207.8563"
                  style="fill:none; clip-path:url(#clipPath1);"/>
            <path d="M70.3906 230.4062 Q70.3906 229.1562 70.7734 228.2578 Q71.1562 227.3594 71.7656 226.9219 Q72.25 226.5625 72.7656 226.5625 Q73.6094 226.5625 74.2812 227.4219 Q75.1094 228.4844 75.1094 230.2812 Q75.1094 231.5625 74.7422 232.4453 Q74.375 233.3281 73.8125 233.7266 Q73.25 234.125 72.7188 234.125 Q71.6719 234.125 70.9844 232.9062 Q70.3906 231.8594 70.3906 230.4062 ZM71.4531 230.5312 Q71.4531 232.0469 71.8281 232.9844 Q72.125 233.7969 72.7344 233.7969 Q73.0312 233.7969 73.3359 233.5312 Q73.6406 233.2656 73.8125 232.6562 Q74.0625 231.7344 74.0625 230.0469 Q74.0625 228.8125 73.7969 227.9688 Q73.6094 227.3594 73.2969 227.0938 Q73.0781 226.9219 72.7656 226.9219 Q72.4062 226.9219 72.1094 227.25 Q71.7344 227.6875 71.5938 228.6484 Q71.4531 229.6094 71.4531 230.5312 ZM76.875 232.9531 Q77.125 232.9531 77.2969 233.1328 Q77.4688 233.3125 77.4688 233.5469 Q77.4688 233.7969 77.2969 233.9766 Q77.125 234.1562 76.875 234.1562 Q76.625 234.1562 76.4531 233.9766 Q76.2812 233.7969 76.2812 233.5469 Q76.2812 233.2969 76.4531 233.125 Q76.625 232.9531 76.875 232.9531 ZM78.8125 228.1094 Q79.125 227.3594 79.6016 226.9609 Q80.0781 226.5625 80.7812 226.5625 Q81.6562 226.5625 82.125 227.1406 Q82.4844 227.5625 82.4844 228.0469 Q82.4844 228.8438 81.4844 229.6875 Q82.1562 229.9531 82.5 230.4375 Q82.8438 230.9219 82.8438 231.5938 Q82.8438 232.5312 82.2344 233.2188 Q81.4531 234.125 79.9688 234.125 Q79.2344 234.125 78.9688 233.9453 Q78.7031 233.7656 78.7031 233.5469 Q78.7031 233.3906 78.8281 233.2734 Q78.9531 233.1562 79.125 233.1562 Q79.2656 233.1562 79.4062 233.2031 Q79.4844 233.2344 79.8125 233.3984 Q80.1406 233.5625 80.2656 233.6094 Q80.4531 233.6562 80.6875 233.6562 Q81.2344 233.6562 81.6406 233.2344 Q82.0469 232.8125 82.0469 232.2344 Q82.0469 231.8125 81.8594 231.4062 Q81.7188 231.1094 81.5469 230.9531 Q81.3125 230.7344 80.9141 230.5625 Q80.5156 230.3906 80.0938 230.3906 L79.9219 230.3906 L79.9219 230.2188 Q80.3438 230.1719 80.7734 229.9219 Q81.2031 229.6719 81.3906 229.3125 Q81.5781 228.9531 81.5781 228.5312 Q81.5781 227.9844 81.2344 227.6406 Q80.8906 227.2969 80.375 227.2969 Q79.5469 227.2969 78.9844 228.1875 L78.8125 228.1094 ZM84.1406 230.4062 Q84.1406 229.1562 84.5234 228.2578 Q84.9062 227.3594 85.5156 226.9219 Q86 226.5625 86.5156 226.5625 Q87.3594 226.5625 88.0312 227.4219 Q88.8594 228.4844 88.8594 230.2812 Q88.8594 231.5625 88.4922 232.4453 Q88.125 233.3281 87.5625 233.7266 Q87 234.125 86.4688 234.125 Q85.4219 234.125 84.7344 232.9062 Q84.1406 231.8594 84.1406 230.4062 ZM85.2031 230.5312 Q85.2031 232.0469 85.5781 232.9844 Q85.875 233.7969 86.4844 233.7969 Q86.7812 233.7969 87.0859 233.5312 Q87.3906 233.2656 87.5625 232.6562 Q87.8125 231.7344 87.8125 230.0469 Q87.8125 228.8125 87.5469 227.9688 Q87.3594 227.3594 87.0469 227.0938 Q86.8281 226.9219 86.5156 226.9219 Q86.1562 226.9219 85.8594 227.25 Q85.4844 227.6875 85.3438 228.6484 Q85.2031 229.6094 85.2031 230.5312 ZM89.6406 230.4062 Q89.6406 229.1562 90.0234 228.2578 Q90.4062 227.3594 91.0156 226.9219 Q91.5 226.5625 92.0156 226.5625 Q92.8594 226.5625 93.5312 227.4219 Q94.3594 228.4844 94.3594 230.2812 Q94.3594 231.5625 93.9922 232.4453 Q93.625 233.3281 93.0625 233.7266 Q92.5 234.125 91.9688 234.125 Q90.9219 234.125 90.2344 232.9062 Q89.6406 231.8594 89.6406 230.4062 ZM90.7031 230.5312 Q90.7031 232.0469 91.0781 232.9844 Q91.375 233.7969 91.9844 233.7969 Q92.2812 233.7969 92.5859 233.5312 Q92.8906 233.2656 93.0625 232.6562 Q93.3125 231.7344 93.3125 230.0469 Q93.3125 228.8125 93.0469 227.9688 Q92.8594 227.3594 92.5469 227.0938 Q92.3281 226.9219 92.0156 226.9219 Q91.6562 226.9219 91.3594 227.25 Q90.9844 227.6875 90.8438 228.6484 Q90.7031 229.6094 90.7031 230.5312 Z"
                  style="clip-path:url(#clipPath6); stroke:none;"
                  transform="translate(-5,-22)"/>
        </g>
        <g transform="translate(5,22)"
           style="font-size:9px; text-rendering:optimizeLegibility; color-rendering:optimizeQuality; image-rendering:optimizeQuality; font-family:'Times New Roman'; color-interpolation:linearRGB;">
            <path d="M95 155.3986 L90.8 155.3986"
                  style="fill:none; clip-path:url(#clipPath1);"/>
            <path d="M70.3906 178.4062 Q70.3906 177.1562 70.7734 176.2578 Q71.1562 175.3594 71.7656 174.9219 Q72.25 174.5625 72.7656 174.5625 Q73.6094 174.5625 74.2812 175.4219 Q75.1094 176.4844 75.1094 178.2812 Q75.1094 179.5625 74.7422 180.4453 Q74.375 181.3281 73.8125 181.7266 Q73.25 182.125 72.7188 182.125 Q71.6719 182.125 70.9844 180.9062 Q70.3906 179.8594 70.3906 178.4062 ZM71.4531 178.5312 Q71.4531 180.0469 71.8281 180.9844 Q72.125 181.7969 72.7344 181.7969 Q73.0312 181.7969 73.3359 181.5312 Q73.6406 181.2656 73.8125 180.6562 Q74.0625 179.7344 74.0625 178.0469 Q74.0625 176.8125 73.7969 175.9688 Q73.6094 175.3594 73.2969 175.0938 Q73.0781 174.9219 72.7656 174.9219 Q72.4062 174.9219 72.1094 175.25 Q71.7344 175.6875 71.5938 176.6484 Q71.4531 177.6094 71.4531 178.5312 ZM76.875 180.9531 Q77.125 180.9531 77.2969 181.1328 Q77.4688 181.3125 77.4688 181.5469 Q77.4688 181.7969 77.2969 181.9766 Q77.125 182.1562 76.875 182.1562 Q76.625 182.1562 76.4531 181.9766 Q76.2812 181.7969 76.2812 181.5469 Q76.2812 181.2969 76.4531 181.125 Q76.625 180.9531 76.875 180.9531 ZM78.8125 176.1094 Q79.125 175.3594 79.6016 174.9609 Q80.0781 174.5625 80.7812 174.5625 Q81.6562 174.5625 82.125 175.1406 Q82.4844 175.5625 82.4844 176.0469 Q82.4844 176.8438 81.4844 177.6875 Q82.1562 177.9531 82.5 178.4375 Q82.8438 178.9219 82.8438 179.5938 Q82.8438 180.5312 82.2344 181.2188 Q81.4531 182.125 79.9688 182.125 Q79.2344 182.125 78.9688 181.9453 Q78.7031 181.7656 78.7031 181.5469 Q78.7031 181.3906 78.8281 181.2734 Q78.9531 181.1562 79.125 181.1562 Q79.2656 181.1562 79.4062 181.2031 Q79.4844 181.2344 79.8125 181.3984 Q80.1406 181.5625 80.2656 181.6094 Q80.4531 181.6562 80.6875 181.6562 Q81.2344 181.6562 81.6406 181.2344 Q82.0469 180.8125 82.0469 180.2344 Q82.0469 179.8125 81.8594 179.4062 Q81.7188 179.1094 81.5469 178.9531 Q81.3125 178.7344 80.9141 178.5625 Q80.5156 178.3906 80.0938 178.3906 L79.9219 178.3906 L79.9219 178.2188 Q80.3438 178.1719 80.7734 177.9219 Q81.2031 177.6719 81.3906 177.3125 Q81.5781 176.9531 81.5781 176.5312 Q81.5781 175.9844 81.2344 175.6406 Q80.8906 175.2969 80.375 175.2969 Q79.5469 175.2969 78.9844 176.1875 L78.8125 176.1094 ZM84.1406 178.4062 Q84.1406 177.1562 84.5234 176.2578 Q84.9062 175.3594 85.5156 174.9219 Q86 174.5625 86.5156 174.5625 Q87.3594 174.5625 88.0312 175.4219 Q88.8594 176.4844 88.8594 178.2812 Q88.8594 179.5625 88.4922 180.4453 Q88.125 181.3281 87.5625 181.7266 Q87 182.125 86.4688 182.125 Q85.4219 182.125 84.7344 180.9062 Q84.1406 179.8594 84.1406 178.4062 ZM85.2031 178.5312 Q85.2031 180.0469 85.5781 180.9844 Q85.875 181.7969 86.4844 181.7969 Q86.7812 181.7969 87.0859 181.5312 Q87.3906 181.2656 87.5625 180.6562 Q87.8125 179.7344 87.8125 178.0469 Q87.8125 176.8125 87.5469 175.9688 Q87.3594 175.3594 87.0469 175.0938 Q86.8281 174.9219 86.5156 174.9219 Q86.1562 174.9219 85.8594 175.25 Q85.4844 175.6875 85.3438 176.6484 Q85.2031 177.6094 85.2031 178.5312 ZM94.0312 174.7188 L93.6094 175.625 L91.4219 175.625 L90.9375 176.6094 Q92.3594 176.8125 93.1875 177.6719 Q93.9062 178.3906 93.9062 179.3906 Q93.9062 179.9531 93.6719 180.4453 Q93.4375 180.9375 93.0859 181.2812 Q92.7344 181.625 92.2969 181.8281 Q91.6719 182.125 91.0312 182.125 Q90.375 182.125 90.0781 181.9062 Q89.7812 181.6875 89.7812 181.4219 Q89.7812 181.2656 89.9062 181.1484 Q90.0312 181.0312 90.2188 181.0312 Q90.3438 181.0312 90.4531 181.0781 Q90.5625 181.125 90.8125 181.2969 Q91.2188 181.5781 91.625 181.5781 Q92.2656 181.5781 92.7344 181.1016 Q93.2031 180.625 93.2031 179.9375 Q93.2031 179.2812 92.7812 178.7109 Q92.3594 178.1406 91.6094 177.8281 Q91.0312 177.5781 90.0156 177.5469 L91.4219 174.7188 L94.0312 174.7188 Z"
                  style="clip-path:url(#clipPath6); stroke:none;"
                  transform="translate(-5,-22)"/>
        </g>
        <g transform="translate(5,22)"
           style="font-size:9px; text-rendering:optimizeLegibility; color-rendering:optimizeQuality; image-rendering:optimizeQuality; font-family:'Times New Roman'; color-interpolation:linearRGB;">
            <path d="M95 102.9409 L90.8 102.9409"
                  style="fill:none; clip-path:url(#clipPath1);"/>
            <path d="M70.3906 125.4062 Q70.3906 124.1562 70.7734 123.2578 Q71.1562 122.3594 71.7656 121.9219 Q72.25 121.5625 72.7656 121.5625 Q73.6094 121.5625 74.2812 122.4219 Q75.1094 123.4844 75.1094 125.2812 Q75.1094 126.5625 74.7422 127.4453 Q74.375 128.3281 73.8125 128.7266 Q73.25 129.125 72.7188 129.125 Q71.6719 129.125 70.9844 127.9062 Q70.3906 126.8594 70.3906 125.4062 ZM71.4531 125.5312 Q71.4531 127.0469 71.8281 127.9844 Q72.125 128.7969 72.7344 128.7969 Q73.0312 128.7969 73.3359 128.5312 Q73.6406 128.2656 73.8125 127.6562 Q74.0625 126.7344 74.0625 125.0469 Q74.0625 123.8125 73.7969 122.9688 Q73.6094 122.3594 73.2969 122.0938 Q73.0781 121.9219 72.7656 121.9219 Q72.4062 121.9219 72.1094 122.25 Q71.7344 122.6875 71.5938 123.6484 Q71.4531 124.6094 71.4531 125.5312 ZM76.875 127.9531 Q77.125 127.9531 77.2969 128.1328 Q77.4688 128.3125 77.4688 128.5469 Q77.4688 128.7969 77.2969 128.9766 Q77.125 129.1562 76.875 129.1562 Q76.625 129.1562 76.4531 128.9766 Q76.2812 128.7969 76.2812 128.5469 Q76.2812 128.2969 76.4531 128.125 Q76.625 127.9531 76.875 127.9531 ZM78.8125 123.1094 Q79.125 122.3594 79.6016 121.9609 Q80.0781 121.5625 80.7812 121.5625 Q81.6562 121.5625 82.125 122.1406 Q82.4844 122.5625 82.4844 123.0469 Q82.4844 123.8438 81.4844 124.6875 Q82.1562 124.9531 82.5 125.4375 Q82.8438 125.9219 82.8438 126.5938 Q82.8438 127.5312 82.2344 128.2188 Q81.4531 129.125 79.9688 129.125 Q79.2344 129.125 78.9688 128.9453 Q78.7031 128.7656 78.7031 128.5469 Q78.7031 128.3906 78.8281 128.2734 Q78.9531 128.1562 79.125 128.1562 Q79.2656 128.1562 79.4062 128.2031 Q79.4844 128.2344 79.8125 128.3984 Q80.1406 128.5625 80.2656 128.6094 Q80.4531 128.6562 80.6875 128.6562 Q81.2344 128.6562 81.6406 128.2344 Q82.0469 127.8125 82.0469 127.2344 Q82.0469 126.8125 81.8594 126.4062 Q81.7188 126.1094 81.5469 125.9531 Q81.3125 125.7344 80.9141 125.5625 Q80.5156 125.3906 80.0938 125.3906 L79.9219 125.3906 L79.9219 125.2188 Q80.3438 125.1719 80.7734 124.9219 Q81.2031 124.6719 81.3906 124.3125 Q81.5781 123.9531 81.5781 123.5312 Q81.5781 122.9844 81.2344 122.6406 Q80.8906 122.2969 80.375 122.2969 Q79.5469 122.2969 78.9844 123.1875 L78.8125 123.1094 ZM85.0469 122.4375 L86.8125 121.5625 L86.9844 121.5625 L86.9844 127.7188 Q86.9844 128.3281 87.0391 128.4766 Q87.0938 128.625 87.25 128.7109 Q87.4062 128.7969 87.9062 128.7969 L87.9062 129 L85.1719 129 L85.1719 128.7969 Q85.6875 128.7969 85.8359 128.7188 Q85.9844 128.6406 86.0469 128.5078 Q86.1094 128.375 86.1094 127.7188 L86.1094 123.7812 Q86.1094 122.9844 86.0469 122.7656 Q86.0156 122.5938 85.9141 122.5156 Q85.8125 122.4375 85.6719 122.4375 Q85.4688 122.4375 85.125 122.5938 L85.0469 122.4375 ZM89.6406 125.4062 Q89.6406 124.1562 90.0234 123.2578 Q90.4062 122.3594 91.0156 121.9219 Q91.5 121.5625 92.0156 121.5625 Q92.8594 121.5625 93.5312 122.4219 Q94.3594 123.4844 94.3594 125.2812 Q94.3594 126.5625 93.9922 127.4453 Q93.625 128.3281 93.0625 128.7266 Q92.5 129.125 91.9688 129.125 Q90.9219 129.125 90.2344 127.9062 Q89.6406 126.8594 89.6406 125.4062 ZM90.7031 125.5312 Q90.7031 127.0469 91.0781 127.9844 Q91.375 128.7969 91.9844 128.7969 Q92.2812 128.7969 92.5859 128.5312 Q92.8906 128.2656 93.0625 127.6562 Q93.3125 126.7344 93.3125 125.0469 Q93.3125 123.8125 93.0469 122.9688 Q92.8594 122.3594 92.5469 122.0938 Q92.3281 121.9219 92.0156 121.9219 Q91.6562 121.9219 91.3594 122.25 Q90.9844 122.6875 90.8438 123.6484 Q90.7031 124.6094 90.7031 125.5312 Z"
                  style="clip-path:url(#clipPath6); stroke:none;"
                  transform="translate(-5,-22)"/>
        </g>
        <g transform="translate(5,22)"
           style="font-size:9px; text-rendering:optimizeLegibility; color-rendering:optimizeQuality; image-rendering:optimizeQuality; font-family:'Times New Roman'; color-interpolation:linearRGB;">
            <path d="M95 50.4832 L90.8 50.4832"
                  style="fill:none; clip-path:url(#clipPath1);"/>
            <path d="M70.3906 73.4062 Q70.3906 72.1562 70.7734 71.2578 Q71.1562 70.3594 71.7656 69.9219 Q72.25 69.5625 72.7656 69.5625 Q73.6094 69.5625 74.2812 70.4219 Q75.1094 71.4844 75.1094 73.2812 Q75.1094 74.5625 74.7422 75.4453 Q74.375 76.3281 73.8125 76.7266 Q73.25 77.125 72.7188 77.125 Q71.6719 77.125 70.9844 75.9062 Q70.3906 74.8594 70.3906 73.4062 ZM71.4531 73.5312 Q71.4531 75.0469 71.8281 75.9844 Q72.125 76.7969 72.7344 76.7969 Q73.0312 76.7969 73.3359 76.5312 Q73.6406 76.2656 73.8125 75.6562 Q74.0625 74.7344 74.0625 73.0469 Q74.0625 71.8125 73.7969 70.9688 Q73.6094 70.3594 73.2969 70.0938 Q73.0781 69.9219 72.7656 69.9219 Q72.4062 69.9219 72.1094 70.25 Q71.7344 70.6875 71.5938 71.6484 Q71.4531 72.6094 71.4531 73.5312 ZM76.875 75.9531 Q77.125 75.9531 77.2969 76.1328 Q77.4688 76.3125 77.4688 76.5469 Q77.4688 76.7969 77.2969 76.9766 Q77.125 77.1562 76.875 77.1562 Q76.625 77.1562 76.4531 76.9766 Q76.2812 76.7969 76.2812 76.5469 Q76.2812 76.2969 76.4531 76.125 Q76.625 75.9531 76.875 75.9531 ZM78.8125 71.1094 Q79.125 70.3594 79.6016 69.9609 Q80.0781 69.5625 80.7812 69.5625 Q81.6562 69.5625 82.125 70.1406 Q82.4844 70.5625 82.4844 71.0469 Q82.4844 71.8438 81.4844 72.6875 Q82.1562 72.9531 82.5 73.4375 Q82.8438 73.9219 82.8438 74.5938 Q82.8438 75.5312 82.2344 76.2188 Q81.4531 77.125 79.9688 77.125 Q79.2344 77.125 78.9688 76.9453 Q78.7031 76.7656 78.7031 76.5469 Q78.7031 76.3906 78.8281 76.2734 Q78.9531 76.1562 79.125 76.1562 Q79.2656 76.1562 79.4062 76.2031 Q79.4844 76.2344 79.8125 76.3984 Q80.1406 76.5625 80.2656 76.6094 Q80.4531 76.6562 80.6875 76.6562 Q81.2344 76.6562 81.6406 76.2344 Q82.0469 75.8125 82.0469 75.2344 Q82.0469 74.8125 81.8594 74.4062 Q81.7188 74.1094 81.5469 73.9531 Q81.3125 73.7344 80.9141 73.5625 Q80.5156 73.3906 80.0938 73.3906 L79.9219 73.3906 L79.9219 73.2188 Q80.3438 73.1719 80.7734 72.9219 Q81.2031 72.6719 81.3906 72.3125 Q81.5781 71.9531 81.5781 71.5312 Q81.5781 70.9844 81.2344 70.6406 Q80.8906 70.2969 80.375 70.2969 Q79.5469 70.2969 78.9844 71.1875 L78.8125 71.1094 ZM85.0469 70.4375 L86.8125 69.5625 L86.9844 69.5625 L86.9844 75.7188 Q86.9844 76.3281 87.0391 76.4766 Q87.0938 76.625 87.25 76.7109 Q87.4062 76.7969 87.9062 76.7969 L87.9062 77 L85.1719 77 L85.1719 76.7969 Q85.6875 76.7969 85.8359 76.7188 Q85.9844 76.6406 86.0469 76.5078 Q86.1094 76.375 86.1094 75.7188 L86.1094 71.7812 Q86.1094 70.9844 86.0469 70.7656 Q86.0156 70.5938 85.9141 70.5156 Q85.8125 70.4375 85.6719 70.4375 Q85.4688 70.4375 85.125 70.5938 L85.0469 70.4375 ZM94.0312 69.7188 L93.6094 70.625 L91.4219 70.625 L90.9375 71.6094 Q92.3594 71.8125 93.1875 72.6719 Q93.9062 73.3906 93.9062 74.3906 Q93.9062 74.9531 93.6719 75.4453 Q93.4375 75.9375 93.0859 76.2812 Q92.7344 76.625 92.2969 76.8281 Q91.6719 77.125 91.0312 77.125 Q90.375 77.125 90.0781 76.9062 Q89.7812 76.6875 89.7812 76.4219 Q89.7812 76.2656 89.9062 76.1484 Q90.0312 76.0312 90.2188 76.0312 Q90.3438 76.0312 90.4531 76.0781 Q90.5625 76.125 90.8125 76.2969 Q91.2188 76.5781 91.625 76.5781 Q92.2656 76.5781 92.7344 76.1016 Q93.2031 75.625 93.2031 74.9375 Q93.2031 74.2812 92.7812 73.7109 Q92.3594 73.1406 91.6094 72.8281 Q91.0312 72.5781 90.0156 72.5469 L91.4219 69.7188 L94.0312 69.7188 Z"
                  style="clip-path:url(#clipPath6); stroke:none;"
                  transform="translate(-5,-22)"/>
        </g>
        <g transform="translate(5,22)"
           style="font-size:9px; text-rendering:optimizeLegibility; color-rendering:optimizeQuality; image-rendering:optimizeQuality; font-family:'Times New Roman'; color-interpolation:linearRGB;">
            <path d="M95 344.2464 L92.9 344.2464"
                  style="fill:none; clip-path:url(#clipPath1);"/>
        </g>
        <g transform="translate(5,22)"
           style="font-size:9px; text-rendering:optimizeLegibility; color-rendering:optimizeQuality; image-rendering:optimizeQuality; font-family:'Times New Roman'; color-interpolation:linearRGB;">
            <path d="M95 333.7549 L92.9 333.7549"
                  style="fill:none; clip-path:url(#clipPath1);"/>
        </g>
        <g transform="translate(5,22)"
           style="font-size:9px; text-rendering:optimizeLegibility; color-rendering:optimizeQuality; image-rendering:optimizeQuality; font-family:'Times New Roman'; color-interpolation:linearRGB;">
            <path d="M95 323.2633 L92.9 323.2633"
                  style="fill:none; clip-path:url(#clipPath1);"/>
        </g>
        <g transform="translate(5,22)"
           style="font-size:9px; text-rendering:optimizeLegibility; color-rendering:optimizeQuality; image-rendering:optimizeQuality; font-family:'Times New Roman'; color-interpolation:linearRGB;">
            <path d="M95 302.2802 L92.9 302.2802"
                  style="fill:none; clip-path:url(#clipPath1);"/>
        </g>
        <g transform="translate(5,22)"
           style="font-size:9px; text-rendering:optimizeLegibility; color-rendering:optimizeQuality; image-rendering:optimizeQuality; font-family:'Times New Roman'; color-interpolation:linearRGB;">
            <path d="M95 291.7887 L92.9 291.7887"
                  style="fill:none; clip-path:url(#clipPath1);"/>
        </g>
        <g transform="translate(5,22)"
           style="font-size:9px; text-rendering:optimizeLegibility; color-rendering:optimizeQuality; image-rendering:optimizeQuality; font-family:'Times New Roman'; color-interpolation:linearRGB;">
            <path d="M95 281.2971 L92.9 281.2971"
                  style="fill:none; clip-path:url(#clipPath1);"/>
        </g>
        <g transform="translate(5,22)"
           style="font-size:9px; text-rendering:optimizeLegibility; color-rendering:optimizeQuality; image-rendering:optimizeQuality; font-family:'Times New Roman'; color-interpolation:linearRGB;">
            <path d="M95 270.8056 L92.9 270.8056"
                  style="fill:none; clip-path:url(#clipPath1);"/>
        </g>
        <g transform="translate(5,22)"
           style="font-size:9px; text-rendering:optimizeLegibility; color-rendering:optimizeQuality; image-rendering:optimizeQuality; font-family:'Times New Roman'; color-interpolation:linearRGB;">
            <path d="M95 249.8225 L92.9 249.8225"
                  style="fill:none; clip-path:url(#clipPath1);"/>
        </g>
        <g transform="translate(5,22)"
           style="font-size:9px; text-rendering:optimizeLegibility; color-rendering:optimizeQuality; image-rendering:optimizeQuality; font-family:'Times New Roman'; color-interpolation:linearRGB;">
            <path d="M95 239.331 L92.9 239.331"
                  style="fill:none; clip-path:url(#clipPath1);"/>
        </g>
        <g transform="translate(5,22)"
           style="font-size:9px; text-rendering:optimizeLegibility; color-rendering:optimizeQuality; image-rendering:optimizeQuality; font-family:'Times New Roman'; color-interpolation:linearRGB;">
            <path d="M95 228.8394 L92.9 228.8394"
                  style="fill:none; clip-path:url(#clipPath1);"/>
        </g>
        <g transform="translate(5,22)"
           style="font-size:9px; text-rendering:optimizeLegibility; color-rendering:optimizeQuality; image-rendering:optimizeQuality; font-family:'Times New Roman'; color-interpolation:linearRGB;">
            <path d="M95 218.3479 L92.9 218.3479"
                  style="fill:none; clip-path:url(#clipPath1);"/>
        </g>
        <g transform="translate(5,22)"
           style="font-size:9px; text-rendering:optimizeLegibility; color-rendering:optimizeQuality; image-rendering:optimizeQuality; font-family:'Times New Roman'; color-interpolation:linearRGB;">
            <path d="M95 197.3648 L92.9 197.3648"
                  style="fill:none; clip-path:url(#clipPath1);"/>
        </g>
        <g transform="translate(5,22)"
           style="font-size:9px; text-rendering:optimizeLegibility; color-rendering:optimizeQuality; image-rendering:optimizeQuality; font-family:'Times New Roman'; color-interpolation:linearRGB;">
            <path d="M95 186.8732 L92.9 186.8732"
                  style="fill:none; clip-path:url(#clipPath1);"/>
        </g>
        <g transform="translate(5,22)"
           style="font-size:9px; text-rendering:optimizeLegibility; color-rendering:optimizeQuality; image-rendering:optimizeQuality; font-family:'Times New Roman'; color-interpolation:linearRGB;">
            <path d="M95 176.3817 L92.9 176.3817"
                  style="fill:none; clip-path:url(#clipPath1);"/>
        </g>
        <g transform="translate(5,22)"
           style="font-size:9px; text-rendering:optimizeLegibility; color-rendering:optimizeQuality; image-rendering:optimizeQuality; font-family:'Times New Roman'; color-interpolation:linearRGB;">
            <path d="M95 165.8902 L92.9 165.8902"
                  style="fill:none; clip-path:url(#clipPath1);"/>
        </g>
        <g transform="translate(5,22)"
           style="font-size:9px; text-rendering:optimizeLegibility; color-rendering:optimizeQuality; image-rendering:optimizeQuality; font-family:'Times New Roman'; color-interpolation:linearRGB;">
            <path d="M95 144.9071 L92.9 144.9071"
                  style="fill:none; clip-path:url(#clipPath1);"/>
        </g>
        <g transform="translate(5,22)"
           style="font-size:9px; text-rendering:optimizeLegibility; color-rendering:optimizeQuality; image-rendering:optimizeQuality; font-family:'Times New Roman'; color-interpolation:linearRGB;">
            <path d="M95 134.4155 L92.9 134.4155"
                  style="fill:none; clip-path:url(#clipPath1);"/>
        </g>
        <g transform="translate(5,22)"
           style="font-size:9px; text-rendering:optimizeLegibility; color-rendering:optimizeQuality; image-rendering:optimizeQuality; font-family:'Times New Roman'; color-interpolation:linearRGB;">
            <path d="M95 123.924 L92.9 123.924"
                  style="fill:none; clip-path:url(#clipPath1);"/>
        </g>
        <g transform="translate(5,22)"
           style="font-size:9px; text-rendering:optimizeLegibility; color-rendering:optimizeQuality; image-rendering:optimizeQuality; font-family:'Times New Roman'; color-interpolation:linearRGB;">
            <path d="M95 113.4324 L92.9 113.4324"
                  style="fill:none; clip-path:url(#clipPath1);"/>
        </g>
        <g transform="translate(5,22)"
           style="font-size:9px; text-rendering:optimizeLegibility; color-rendering:optimizeQuality; image-rendering:optimizeQuality; font-family:'Times New Roman'; color-interpolation:linearRGB;">
            <path d="M95 92.4493 L92.9 92.4493"
                  style="fill:none; clip-path:url(#clipPath1);"/>
        </g>
        <g transform="translate(5,22)"
           style="font-size:9px; text-rendering:optimizeLegibility; color-rendering:optimizeQuality; image-rendering:optimizeQuality; font-family:'Times New Roman'; color-interpolation:linearRGB;">
            <path d="M95 81.9578 L92.9 81.9578"
                  style="fill:none; clip-path:url(#clipPath1);"/>
        </g>
        <g transform="translate(5,22)"
           style="font-size:9px; text-rendering:optimizeLegibility; color-rendering:optimizeQuality; image-rendering:optimizeQuality; font-family:'Times New Roman'; color-interpolation:linearRGB;">
            <path d="M95 71.4662 L92.9 71.4662"
                  style="fill:none; clip-path:url(#clipPath1);"/>
        </g>
        <g transform="translate(5,22)"
           style="font-size:9px; text-rendering:optimizeLegibility; color-rendering:optimizeQuality; image-rendering:optimizeQuality; font-family:'Times New Roman'; color-interpolation:linearRGB;">
            <path d="M95 60.9747 L92.9 60.9747"
                  style="fill:none; clip-path:url(#clipPath1);"/>
        </g>
        <g transform="translate(5,22)"
           style="font-size:9px; text-rendering:optimizeLegibility; color-rendering:optimizeQuality; image-rendering:optimizeQuality; font-family:'Times New Roman'; color-interpolation:linearRGB;">
            <path d="M95 39.9916 L92.9 39.9916"
                  style="fill:none; clip-path:url(#clipPath1);"/>
        </g>
        <g transform="translate(5,22)"
           style="font-size:9px; text-rendering:optimizeLegibility; color-rendering:optimizeQuality; image-rendering:optimizeQuality; font-family:'Times New Roman'; color-interpolation:linearRGB;">
            <path d="M95 29.5001 L92.9 29.5001"
                  style="fill:none; clip-path:url(#clipPath1);"/>
        </g>
        <g transform="translate(5,22)"
           style="font-size:9px; text-rendering:optimizeLegibility; color-rendering:optimizeQuality; image-rendering:optimizeQuality; font-family:'Times New Roman'; color-interpolation:linearRGB;">
            <path d="M95 19.0085 L92.9 19.0085"
                  style="fill:none; clip-path:url(#clipPath1);"/>
        </g>
        <g transform="translate(5,22)"
           style="font-size:9px; text-rendering:optimizeLegibility; color-rendering:optimizeQuality; image-rendering:optimizeQuality; font-family:'Times New Roman'; color-interpolation:linearRGB;">
            <path d="M95 8.517 L92.9 8.517"
                  style="fill:none; clip-path:url(#clipPath1);"/>
        </g>
    </g>
</svg>
