<?xml version="1.0" encoding="UTF-8"?>
<!DOCTYPE svg PUBLIC '-//W3C//DTD SVG 1.0//EN'
    'http://www.w3.org/TR/2001/REC-SVG-20010904/DTD/svg10.dtd' >

<svg style="stroke-dasharray:none; shape-rendering:auto; font-family:'Dialog'; text-rendering:auto; fill-opacity:1; color-interpolation:auto; color-rendering:auto; font-size:12px; fill:black; stroke:black; image-rendering:auto; stroke-miterlimit:10; stroke-linecap:square; stroke-linejoin:miter; font-style:normal; stroke-width:1; stroke-dashoffset:0; font-weight:normal; stroke-opacity:1;"
     xmlns="http://www.w3.org/2000/svg" contentScriptType="text/ecmascript"
     preserveAspectRatio="xMidYMid meet"
     xmlns:xlink="http://www.w3.org/1999/xlink" zoomAndPan="magnify"
     version="1.0" contentStyleType="text/css">
    <!--Generated by the Batik Graphics2D SVG Generator-->
    <defs id="genericDefs"/>
    <g>
        <defs id="defs1">
            <clipPath clipPathUnits="userSpaceOnUse" id="clipPath1">
                <path d="M0 0 L410 0 L410 172 L0 172 L0 0 Z"/>
            </clipPath>
            <clipPath clipPathUnits="userSpaceOnUse" id="clipPath2">
                <path d="M-371.1645 -31.3238 L38.8355 -31.3238 L38.8355 140.6762 L-371.1645 140.6762 L-371.1645 -31.3238 Z"/>
            </clipPath>
            <clipPath clipPathUnits="userSpaceOnUse" id="clipPath3">
                <path d="M-337.8314 -27.1968 L72.1686 -27.1968 L72.1686 144.8032 L-337.8314 144.8032 L-337.8314 -27.1968 Z"/>
            </clipPath>
            <clipPath clipPathUnits="userSpaceOnUse" id="clipPath4">
                <path d="M-271.1653 -23.5856 L138.8347 -23.5856 L138.8347 148.4144 L-271.1653 148.4144 L-271.1653 -23.5856 Z"/>
            </clipPath>
            <clipPath clipPathUnits="userSpaceOnUse" id="clipPath5">
                <path d="M-237.8322 -21.0062 L172.1678 -21.0062 L172.1678 150.9938 L-237.8322 150.9938 L-237.8322 -21.0062 Z"/>
            </clipPath>
            <clipPath clipPathUnits="userSpaceOnUse" id="clipPath6">
                <path d="M-304.4984 -23.5856 L105.5016 -23.5856 L105.5016 148.4144 L-304.4984 148.4144 L-304.4984 -23.5856 Z"/>
            </clipPath>
            <clipPath clipPathUnits="userSpaceOnUse" id="clipPath7">
                <path d="M-171.1661 -26.165 L238.8339 -26.165 L238.8339 145.835 L-171.1661 145.835 L-171.1661 -26.165 Z"/>
            </clipPath>
            <clipPath clipPathUnits="userSpaceOnUse" id="clipPath8">
                <path d="M-137.8331 -21.0062 L272.1669 -21.0062 L272.1669 150.9938 L-137.8331 150.9938 L-137.8331 -21.0062 Z"/>
            </clipPath>
            <clipPath clipPathUnits="userSpaceOnUse" id="clipPath9">
                <path d="M-204.4992 -23.5856 L205.5008 -23.5856 L205.5008 148.4144 L-204.4992 148.4144 L-204.4992 -23.5856 Z"/>
            </clipPath>
            <clipPath clipPathUnits="userSpaceOnUse" id="clipPath10">
                <path d="M-371.1645 -23.5856 L38.8355 -23.5856 L38.8355 148.4144 L-371.1645 148.4144 L-371.1645 -23.5856 Z"/>
            </clipPath>
            <clipPath clipPathUnits="userSpaceOnUse" id="clipPath11">
                <path d="M-337.8314 -31.3238 L72.1686 -31.3238 L72.1686 140.6762 L-337.8314 140.6762 L-337.8314 -31.3238 Z"/>
            </clipPath>
            <clipPath clipPathUnits="userSpaceOnUse" id="clipPath12">
                <path d="M-271.1653 -72.5943 L138.8347 -72.5943 L138.8347 99.4057 L-271.1653 99.4057 L-271.1653 -72.5943 Z"/>
            </clipPath>
            <clipPath clipPathUnits="userSpaceOnUse" id="clipPath13">
                <path d="M-304.4984 -52.9908 L105.5016 -52.9908 L105.5016 119.0092 L-304.4984 119.0092 L-304.4984 -52.9908 Z"/>
            </clipPath>
            <clipPath clipPathUnits="userSpaceOnUse" id="clipPath14">
                <path d="M-237.8322 -93.2295 L172.1678 -93.2295 L172.1678 78.7705 L-237.8322 78.7705 L-237.8322 -93.2295 Z"/>
            </clipPath>
            <clipPath clipPathUnits="userSpaceOnUse" id="clipPath15">
                <path d="M-171.1661 -113.8648 L238.8339 -113.8648 L238.8339 58.1352 L-171.1661 58.1352 L-171.1661 -113.8648 Z"/>
            </clipPath>
            <clipPath clipPathUnits="userSpaceOnUse" id="clipPath16">
                <path d="M-137.8331 -124.1824 L272.1669 -124.1824 L272.1669 47.8176 L-137.8331 47.8176 L-137.8331 -124.1824 Z"/>
            </clipPath>
            <clipPath clipPathUnits="userSpaceOnUse" id="clipPath17">
                <path d="M-204.4992 -119.0236 L205.5008 -119.0236 L205.5008 52.9764 L-204.4992 52.9764 L-204.4992 -119.0236 Z"/>
            </clipPath>
            <clipPath clipPathUnits="userSpaceOnUse" id="clipPath18">
                <path d="M104 4.0298 L104 140 L410 140 L410 4.0298 Z"/>
            </clipPath>
            <clipPath clipPathUnits="userSpaceOnUse" id="clipPath19">
                <path d="M230 155 L230 172 L282 172 L282 155 Z"/>
            </clipPath>
            <clipPath clipPathUnits="userSpaceOnUse" id="clipPath20">
                <path d="M-14 -5 L-14 12 L38 12 L38 -5 Z"/>
            </clipPath>
            <clipPath clipPathUnits="userSpaceOnUse" id="clipPath21">
                <path d="M-24 -5 L-24 12 L28 12 L28 -5 Z"/>
            </clipPath>
            <clipPath clipPathUnits="userSpaceOnUse" id="clipPath22">
                <path d="M5 22 L415 22 L415 194 L5 194 L5 22 Z"/>
            </clipPath>
            <clipPath clipPathUnits="userSpaceOnUse" id="clipPath23">
                <path d="M1 61 L1 83 L76 83 L76 61 Z"/>
            </clipPath>
            <clipPath clipPathUnits="userSpaceOnUse" id="clipPath24">
                <path d="M-33 -5 L-33 17 L42 17 L42 -5 Z"/>
            </clipPath>
            <clipPath clipPathUnits="userSpaceOnUse" id="clipPath25">
                <path d="M-43 -5 L-43 17 L32 17 L32 -5 Z"/>
            </clipPath>
            <clipPath clipPathUnits="userSpaceOnUse" id="clipPath26">
                <path d="M84 119 L84 129 L90 129 L90 119 Z"/>
            </clipPath>
            <clipPath clipPathUnits="userSpaceOnUse" id="clipPath27">
                <path d="M89 73 L89 83 L95 83 L95 73 Z"/>
            </clipPath>
            <clipPath clipPathUnits="userSpaceOnUse" id="clipPath28">
                <path d="M0 0 L411 0 L411 18 L0 18 L0 0 Z"/>
            </clipPath>
            <clipPath clipPathUnits="userSpaceOnUse" id="clipPath29">
                <path d="M0 0 L0 17 L411 17 L411 0 Z"/>
            </clipPath>
            <clipPath clipPathUnits="userSpaceOnUse" id="clipPath30">
                <path d="M0 0 L411 0 L411 12 L0 12 L0 0 Z"/>
            </clipPath>
        </defs>
        <g transform="translate(5,22)"
           style="stroke-linecap:butt; font-size:9px; fill:rgb(165,165,165); text-rendering:optimizeLegibility; image-rendering:optimizeQuality; color-rendering:optimizeQuality; font-family:'Times New Roman'; stroke-linejoin:round; stroke:rgb(165,165,165); color-interpolation:linearRGB;">
            <path d="M140.3331 139 L140.3331 6.0298"
                  style="fill:none; clip-path:url(#clipPath1);"/>
            <path d="M173.6661 139 L173.6661 6.0298"
                  style="fill:none; clip-path:url(#clipPath1);"/>
            <path d="M206.9992 139 L206.9992 6.0298"
                  style="fill:none; clip-path:url(#clipPath1);"/>
            <path d="M240.3322 139 L240.3322 6.0298"
                  style="fill:none; clip-path:url(#clipPath1);"/>
            <path d="M273.6653 139 L273.6653 6.0298"
                  style="fill:none; clip-path:url(#clipPath1);"/>
            <path d="M306.9984 139 L306.9984 6.0298"
                  style="fill:none; clip-path:url(#clipPath1);"/>
            <path d="M340.3314 139 L340.3314 6.0298"
                  style="fill:none; clip-path:url(#clipPath1);"/>
            <path d="M373.6645 139 L373.6645 6.0298"
                  style="fill:none; clip-path:url(#clipPath1);"/>
        </g>
        <g transform="translate(5,22)"
           style="stroke-linecap:butt; font-size:9px; fill:rgb(165,165,165); text-rendering:optimizeLegibility; image-rendering:optimizeQuality; color-rendering:optimizeQuality; font-family:'Times New Roman'; stroke-linejoin:round; stroke:rgb(165,165,165); color-interpolation:linearRGB;">
            <path d="M105 147.3176 L408.9975 147.3176"
                  style="fill:none; clip-path:url(#clipPath1);"/>
            <path d="M105 100.8883 L408.9975 100.8883"
                  style="fill:none; clip-path:url(#clipPath1);"/>
            <path d="M105 54.4591 L408.9975 54.4591"
                  style="fill:none; clip-path:url(#clipPath1);"/>
            <path d="M105 8.0298 L408.9975 8.0298"
                  style="fill:none; clip-path:url(#clipPath1);"/>
        </g>
        <g transform="translate(376.1645,53.3238)"
           style="font-size:13px; fill:rgb(86,180,233); text-rendering:optimizeLegibility; image-rendering:optimizeQuality; color-rendering:optimizeQuality; font-family:'Times New Roman'; stroke:rgb(86,180,233); color-interpolation:linearRGB;">
            <path d="M0 2 L2 0 L4 2 L2 4 Z"
                  style="fill:none; clip-path:url(#clipPath2);"/>
            <path d="M0 2 L2 0 L4 2 L2 4 Z"
                  style="fill:none; clip-path:url(#clipPath3);"
                  transform="translate(-33.333,-4.127)"/>
            <path d="M0 2 L2 0 L4 2 L2 4 Z"
                  style="fill:none; clip-path:url(#clipPath4);"
                  transform="translate(-99.9992,-7.7382)"/>
            <path d="M0 2 L2 0 L4 2 L2 4 Z"
                  style="fill:none; clip-path:url(#clipPath5);"
                  transform="translate(-133.3322,-10.3176)"/>
            <path d="M0 2 L2 0 L4 2 L2 4 Z"
                  style="fill:none; clip-path:url(#clipPath6);"
                  transform="translate(-66.6661,-7.7382)"/>
            <path d="M0 2 L2 0 L4 2 L2 4 Z"
                  style="fill:none; clip-path:url(#clipPath7);"
                  transform="translate(-199.9984,-5.1588)"/>
            <path d="M0 2 L2 0 L4 2 L2 4 Z"
                  style="fill:none; clip-path:url(#clipPath8);"
                  transform="translate(-233.3314,-10.3176)"/>
            <path d="M0 2 L2 0 L4 2 L2 4 Z"
                  style="fill:none; clip-path:url(#clipPath9);"
                  transform="translate(-166.6653,-7.7382)"/>
        </g>
        <g transform="translate(376.1645,45.5856)"
           style="font-size:13px; fill:rgb(213,94,0); text-rendering:optimizeLegibility; image-rendering:optimizeQuality; color-rendering:optimizeQuality; font-family:'Times New Roman'; stroke:rgb(213,94,0); color-interpolation:linearRGB;">
            <path d="M0 2 L2 0 L4 2 L2 4 Z"
                  style="fill:none; clip-path:url(#clipPath10);"/>
            <path d="M0 2 L2 0 L4 2 L2 4 Z"
                  style="fill:none; clip-path:url(#clipPath11);"
                  transform="translate(-33.333,7.7382)"/>
            <path d="M0 2 L2 0 L4 2 L2 4 Z"
                  style="fill:none; clip-path:url(#clipPath12);"
                  transform="translate(-99.9992,49.0087)"/>
            <path d="M0 2 L2 0 L4 2 L2 4 Z"
                  style="fill:none; clip-path:url(#clipPath13);"
                  transform="translate(-66.6661,29.4052)"/>
            <path d="M0 2 L2 0 L4 2 L2 4 Z"
                  style="fill:none; clip-path:url(#clipPath14);"
                  transform="translate(-133.3322,69.6439)"/>
            <path d="M0 2 L2 0 L4 2 L2 4 Z"
                  style="fill:none; clip-path:url(#clipPath15);"
                  transform="translate(-199.9984,90.2791)"/>
            <path d="M0 2 L2 0 L4 2 L2 4 Z"
                  style="fill:none; clip-path:url(#clipPath16);"
                  transform="translate(-233.3314,100.5968)"/>
            <path d="M0 2 L2 0 L4 2 L2 4 Z"
                  style="fill:none; clip-path:url(#clipPath17);"
                  transform="translate(-166.6653,95.438)"/>
        </g>
        <g style="stroke-linecap:butt; font-size:13px; fill:rgb(86,180,233); text-rendering:optimizeLegibility; image-rendering:optimizeQuality; color-rendering:optimizeQuality; font-family:'Times New Roman'; stroke-linejoin:round; stroke:rgb(86,180,233); color-interpolation:linearRGB; stroke-width:1.5;"
           transform="translate(5,22)">
            <path d="M140.3331 23.8501 L141.5598 23.8852 L142.6272 23.9157 L143.8276 23.9499 L145.036 23.9844 L146.2386 24.0188 L147.3536 24.0506 L148.5081 24.0836 L149.7021 24.1177 L150.8922 24.1517 L152.1164 24.1867 L153.1947 24.2174 L154.4086 24.2521 L155.6275 24.2869 L156.8022 24.3205 L157.8688 24.3509 L159.1372 24.3872 L160.2117 24.4178 L161.4616 24.4535 L162.5679 24.4851 L163.7818 24.5198 L164.9376 24.5528 L166.1436 24.5872 L167.2512 24.6189 L168.4458 24.653 L169.6866 24.6884 L170.7668 24.7193 L171.9334 24.7526 L173.1386 24.787 L174.3177 24.8207 L175.4585 24.8533 L176.7252 24.8894 L177.8633 24.9219 L179.0786 24.9566 L180.1797 24.9881 L181.3836 25.0225 L182.5164 25.0548 L183.7004 25.0886 L184.8581 25.1217 L186.07 25.1563 L187.2372 25.1896 L188.4309 25.2237 L189.6147 25.2575 L190.7025 25.2886 L191.9492 25.3242 L193.0643 25.356 L194.2532 25.39 L195.3911 25.4225 L196.6547 25.4586 L197.7488 25.4898 L198.9906 25.5253 L200.1224 25.5576 L201.3604 25.593 L202.4286 25.6235 L203.6452 25.6582 L204.8203 25.6918 L205.9947 25.7253 L207.1647 25.7587 L208.2888 25.7908 L209.5039 25.8255 L210.662 25.8586 L211.8808 25.8934 L212.9842 25.9249 L214.2036 25.9597 L215.3716 25.9931 L216.5367 26.0264 L217.7537 26.0611 L218.8746 26.0931 L220.0225 26.1259 L221.29 26.1621 L222.4376 26.1949 L223.6112 26.2284 L224.8048 26.2625 L225.9019 26.2938 L227.0713 26.3272 L228.2319 26.3604 L229.4734 26.3958 L230.5689 26.4271 L231.8329 26.4632 L232.9736 26.4958 L234.1022 26.528 L235.3158 26.5627 L236.5344 26.5975 L237.6431 26.6291 L238.8205 26.6627 L239.9695 26.6956 L241.2151 26.7311 L242.2928 26.7619 L243.5307 26.7973 L244.6943 26.8305 L245.8467 26.8634 L247 26.8963 L248.1763 26.9299 L249.4231 26.9655 L250.5664 26.9982 L251.6949 27.0304 L252.9013 27.0649 L254.1051 27.0992 L255.1855 27.1301 L256.4653 27.1666 L257.5363 27.1972 L258.7888 27.233 L259.9843 27.2671 L261.0517 27.2976 L262.2521 27.3319 L263.4605 27.3664 L264.6631 27.4007 L265.7781 27.4326 L266.9326 27.4656 L268.1266 27.4997 L269.3167 27.5337 L270.5409 27.5686 L271.6192 27.5994 L272.8331 27.6341 L274.052 27.6689 L275.2266 27.7024 L276.2933 27.7329 L277.5617 27.7691 L278.6362 27.7998 L279.886 27.8355 L280.9924 27.8671 L282.2062 27.9017 L283.3621 27.9348 L284.5681 27.9692 L285.6756 28.0008 L286.8702 28.0349 L288.1111 28.0704 L289.1913 28.1012 L290.3578 28.1345 L291.563 28.169 L292.7421 28.2026 L293.883 28.2352 L295.1497 28.2714 L296.2878 28.3039 L297.5031 28.3386 L298.6042 28.37 L299.8081 28.4044 L300.9409 28.4368 L302.1249 28.4706 L303.2826 28.5036 L304.4945 28.5383 L305.6617 28.5716 L306.8554 28.6057 L308.0392 28.6395 L309.127 28.6705 L310.3737 28.7062 L311.4888 28.738 L312.6777 28.7719 L313.8156 28.8044 L315.0792 28.8405 L316.1733 28.8718 L317.4151 28.9072 L318.5469 28.9396 L319.7849 28.9749 L320.8531 29.0054 L322.0697 29.0402 L323.2448 29.0737 L324.4192 29.1073 L325.5892 29.1407 L326.7133 29.1728 L327.9284 29.2075 L329.0865 29.2405 L330.3053 29.2754 L331.4087 29.3069 L332.6281 29.3417 L333.7961 29.375 L334.9612 29.4083 L336.1782 29.4431 L337.2991 29.4751 L338.447 29.5079 L339.7145 29.5441 L340.8621 29.5768 L342.0357 29.6104 L343.2292 29.6444 L344.3264 29.6758 L345.4958 29.7092 L346.6564 29.7423 L347.8978 29.7778 L348.9933 29.8091 L350.2574 29.8451 L351.398 29.8777 L352.5267 29.91 L353.7403 29.9446 L354.9589 29.9794 L356.0676 30.0111 L357.245 30.0447 L358.394 30.0775 L359.6395 30.1131 L360.7173 30.1439 L361.9551 30.1792 L363.1188 30.2124 L364.2711 30.2454 L365.4245 30.2783 L366.6008 30.3119 L367.8476 30.3475 L368.9909 30.3801 L370.1194 30.4124 L371.3258 30.4468 L372.5295 30.4812 L373.6645 30.5136"
                  style="fill:none; clip-path:url(#clipPath18);"/>
        </g>
        <g style="stroke-linecap:butt; font-size:13px; fill:rgb(213,94,0); text-rendering:optimizeLegibility; image-rendering:optimizeQuality; color-rendering:optimizeQuality; font-family:'Times New Roman'; stroke-linejoin:round; stroke:rgb(213,94,0); color-interpolation:linearRGB; stroke-width:1.5;"
           transform="translate(5,22)">
            <path d="M140.3331 130.1001 L141.5598 129.7675 L142.6272 129.476 L143.8276 129.1457 L145.036 128.8106 L146.2386 128.4746 L147.3536 128.1608 L148.5081 127.8335 L149.7021 127.4925 L150.8922 127.1501 L152.1164 126.7953 L153.1947 126.4806 L154.4086 126.1238 L155.6275 125.7629 L156.8022 125.4126 L157.8688 125.0925 L159.1372 124.7091 L160.2117 124.3821 L161.4616 123.9991 L162.5679 123.6579 L163.7818 123.2809 L164.9376 122.9195 L166.1436 122.54 L167.2512 122.1891 L168.4458 121.8082 L169.6866 121.4099 L170.7668 121.061 L171.9334 120.6818 L173.1386 120.2875 L174.3177 119.8993 L175.4585 119.5213 L176.7252 119.0989 L177.8633 118.717 L179.0786 118.3066 L180.1797 117.9325 L181.3836 117.521 L182.5164 117.1315 L183.7004 116.722 L184.8581 116.3191 L186.07 115.8948 L187.2372 115.4837 L188.4309 115.0608 L189.6147 114.6389 L190.7025 114.2491 L191.9492 113.7996 L193.0643 113.3953 L194.2532 112.9618 L195.3911 112.5445 L196.6547 112.0785 L197.7488 111.6727 L198.9906 111.2095 L200.1224 110.785 L201.3604 110.318 L202.4286 109.9129 L203.6452 109.4491 L204.8203 108.9986 L205.9947 108.5459 L207.1647 108.0924 L208.2888 107.6545 L209.5039 107.1786 L210.662 106.7226 L211.8808 106.2401 L212.9842 105.801 L214.2036 105.3132 L215.3716 104.8436 L216.5367 104.3727 L217.7537 103.8782 L218.8746 103.4205 L220.0225 102.9494 L221.29 102.4265 L222.4376 101.9506 L223.6112 101.4615 L224.8048 100.9616 L225.9019 100.4999 L227.0713 100.0054 L228.2319 99.5122 L229.4734 98.982 L230.5689 98.5119 L231.8329 97.9668 L232.9736 97.4725 L234.1022 96.9811 L235.3158 96.4502 L236.5344 95.9145 L237.6431 95.4248 L238.8205 94.9023 L239.9695 94.3901 L241.2151 93.8322 L242.2928 93.3473 L243.5307 92.7878 L244.6943 92.2593 L245.8467 91.7336 L247 91.2051 L248.1763 90.6637 L249.4231 90.087 L250.5664 89.5559 L251.6949 89.0293 L252.9013 88.4639 L254.1051 87.8972 L255.1855 87.3863 L256.4653 86.7785 L257.5363 86.2676 L258.7888 85.6676 L259.9843 85.0922 L261.0517 84.5764 L262.2521 83.9939 L263.4605 83.405 L264.6631 82.8162 L265.7781 82.2681 L266.9326 81.6982 L268.1266 81.1064 L269.3167 80.5139 L270.5409 79.9019 L271.6192 79.3606 L272.8331 78.7487 L274.052 78.1317 L275.2266 77.5347 L276.2933 76.9903 L277.5617 76.3405 L278.6362 75.7877 L279.886 75.1421 L280.9924 74.5684 L282.2062 73.9364 L283.3621 73.3321 L284.5681 72.6992 L285.6756 72.1156 L286.8702 71.4837 L288.1111 70.8247 L289.1913 70.2488 L290.3578 69.6244 L291.563 68.9769 L292.7421 68.341 L293.883 67.7233 L295.1497 67.0347 L296.2878 66.4136 L297.5031 65.7479 L298.6042 65.1424 L299.8081 64.478 L300.9409 63.8505 L302.1249 63.1921 L303.2826 62.5461 L304.4945 61.8671 L305.6617 61.2108 L306.8554 60.537 L308.0392 59.8664 L309.127 59.248 L310.3737 58.5366 L311.4888 57.898 L312.6777 57.2146 L313.8156 56.5583 L315.0792 55.8268 L316.1733 55.191 L317.4151 54.4669 L318.5469 53.8046 L319.7849 53.0775 L320.8531 52.4479 L322.0697 51.7285 L323.2448 51.031 L324.4192 50.3316 L325.5892 49.6323 L326.7133 48.9582 L327.9284 48.227 L329.0865 47.5276 L330.3053 46.789 L331.4087 46.1181 L332.6281 45.3741 L333.7961 44.659 L334.9612 43.9433 L336.1782 43.1931 L337.2991 42.4998 L338.447 41.7875 L339.7145 40.9984 L340.8621 40.2814 L342.0357 39.5457 L343.2292 38.795 L344.3264 38.1027 L345.4958 37.3625 L346.6564 36.6255 L347.8978 35.8344 L348.9933 35.1341 L350.2574 34.3234 L351.398 33.5894 L352.5267 32.8609 L353.7403 32.0749 L354.9589 31.2832 L356.0676 30.5605 L357.245 29.7907 L358.394 29.0371 L359.6395 28.2175 L360.7173 27.5061 L361.9551 26.6865 L363.1188 25.9135 L364.2711 25.1456 L365.4245 24.3748 L366.6008 23.5862 L367.8476 22.7476 L368.9909 21.9762 L370.1194 21.2125 L371.3258 20.3936 L372.5295 19.574 L373.6645 18.7988"
                  style="fill:none; clip-path:url(#clipPath18);"/>
        </g>
        <g transform="translate(5,22)"
           style="stroke-linecap:butt; font-size:9px; text-rendering:optimizeLegibility; image-rendering:optimizeQuality; color-rendering:optimizeQuality; font-family:'Times New Roman'; stroke-linejoin:round; color-interpolation:linearRGB;">
            <path d="M105 139 L408.9975 139"
                  style="fill:none; clip-path:url(#clipPath1);"/>
            <path d="M105 6.0298 L408.9975 6.0298"
                  style="fill:none; clip-path:url(#clipPath1);"/>
        </g>
        <g transform="translate(5,22)"
           style="stroke-linecap:butt; font-size:9px; text-rendering:optimizeLegibility; image-rendering:optimizeQuality; color-rendering:optimizeQuality; font-family:'Times New Roman'; stroke-linejoin:round; color-interpolation:linearRGB;">
            <path d="M237.875 164.8906 L237.9531 166.25 Q237.9688 166.7188 238.1094 167.1719 Q238.25 167.625 238.4531 167.9688 Q238.6562 168.3125 238.9141 168.5234 Q239.1719 168.7344 239.4375 168.7344 Q239.7188 168.7344 239.9766 168.5 Q240.2344 168.2656 240.4297 167.9141 Q240.625 167.5625 240.7578 167.125 Q240.8906 166.6875 240.9062 166.25 L240.9844 164.8906 L237.875 164.8906 ZM240.9219 162.9844 Q240.9062 162.8125 240.875 162.5938 Q240.8438 162.375 240.7812 162.1484 Q240.7188 161.9219 240.6562 161.7188 Q240.5938 161.5156 240.5156 161.375 Q240.3125 160.9844 240 160.7266 Q239.6875 160.4688 239.4219 160.4688 Q239.2188 160.4688 238.8984 160.7031 Q238.5781 160.9375 238.3906 161.2969 Q238.2969 161.4688 238.2188 161.6953 Q238.1406 161.9219 238.0859 162.1484 Q238.0312 162.375 237.9922 162.5938 Q237.9531 162.8125 237.9375 162.9688 L237.8594 164.2188 L241 164.2188 L240.9219 162.9844 ZM242.3125 164.4375 Q242.3125 165.5 242.1562 166.2891 Q242 167.0781 241.7656 167.5625 Q241.6094 167.8906 241.3672 168.1953 Q241.125 168.5 240.8203 168.7266 Q240.5156 168.9531 240.1719 169.0859 Q239.8281 169.2188 239.4375 169.2188 Q238.7656 169.2188 238.1406 168.7891 Q237.5156 168.3594 237.125 167.5781 Q236.8438 167.0312 236.7031 166.2578 Q236.5625 165.4844 236.5625 164.4375 Q236.5625 163.5469 236.6875 162.9531 Q236.8125 162.3594 237.0469 161.8594 Q237.25 161.4531 237.5156 161.125 Q237.7812 160.7969 238.0938 160.5469 Q238.4062 160.2969 238.75 160.1641 Q239.0938 160.0312 239.4375 160.0312 Q239.7188 160.0312 240.0391 160.1406 Q240.3594 160.25 240.6719 160.4766 Q240.9844 160.7031 241.2891 161.0625 Q241.5938 161.4219 241.8438 161.9062 Q242.0781 162.3906 242.1953 163.0234 Q242.3125 163.6562 242.3125 164.4375 Z"
                  style="stroke:none; clip-path:url(#clipPath19);"/>
            <path d="M252.375 161.6875 L251.875 163.4062 L252.875 163.4062 L252.7656 163.8125 L251.7812 163.8125 L250.6875 167.5469 Q250.5156 168.1562 250.5156 168.3281 Q250.5156 168.4375 250.5625 168.5 Q250.6094 168.5625 250.6875 168.5625 Q250.8438 168.5625 251.0938 168.3281 Q251.25 168.2031 251.7812 167.5469 L251.9844 167.7188 Q251.4062 168.5625 250.8906 168.9062 Q250.5312 169.1562 250.1719 169.1562 Q249.8906 169.1562 249.7109 168.9766 Q249.5312 168.7969 249.5312 168.5312 Q249.5312 168.1875 249.7344 167.4844 L250.7969 163.8125 L249.8438 163.8125 L249.9062 163.5625 Q250.5938 163.375 251.0625 162.9922 Q251.5312 162.6094 252.0938 161.6875 L252.375 161.6875 Z"
                  style="clip-path:url(#clipPath19); stroke:none;"/>
            <path d="M2.6577 11.694 L2.4644 12 Q0 10.4698 0 5.88 L0 6 L0 6.12 Q0 1.5141 2.4644 0 L2.6577 0.2899 Q1.5624 1.2242 1.1919 2.9154 Q0.9664 3.9624 0.9664 5.88 L0.9664 6 L0.9664 6.12 Q0.9664 8.0215 1.1919 9.0685 Q1.5624 10.7597 2.6577 11.694 Z"
                  style="clip-path:url(#clipPath20); stroke:none;"
                  transform="translate(244,160)"/>
            <path d="M0 0.306 L0.1933 0 Q2.6577 1.5302 2.6577 6.12 L2.6577 6 L2.6577 5.88 Q2.6577 10.4859 0.1933 12 L0 11.7101 Q1.0953 10.7758 1.4658 9.0846 Q1.6913 8.0376 1.6913 6.12 L1.6913 6 L1.6913 5.88 Q1.6913 3.9785 1.4658 2.9315 Q1.0953 1.2403 0 0.306 Z"
                  style="clip-path:url(#clipPath21); stroke:none;"
                  transform="translate(254,160)"/>
            <path d="M267.1094 171.5781 L264.3125 171.5781 L264.3125 160.2031 L267.1094 160.2031 L267.1094 160.7031 L265.2656 160.7031 L265.2656 171.0781 L267.1094 171.0781 L267.1094 171.5781 ZM270.1572 160.2031 Q270.9697 160.2031 271.54 160.7734 Q272.1104 161.3438 272.1104 162.1562 Q272.1104 162.9688 271.54 163.5391 Q270.9697 164.1094 270.1572 164.1094 Q269.3447 164.1094 268.7744 163.5391 Q268.2041 162.9688 268.2041 162.1562 Q268.2041 161.3438 268.7744 160.7734 Q269.3447 160.2031 270.1572 160.2031 ZM270.1572 160.7344 Q269.5635 160.7344 269.1494 161.1484 Q268.7354 161.5625 268.7354 162.1562 Q268.7354 162.7344 269.1494 163.1484 Q269.5635 163.5625 270.1572 163.5625 Q270.7354 163.5625 271.1494 163.1484 Q271.5635 162.7344 271.5635 162.1562 Q271.5635 161.5625 271.1494 161.1484 Q270.7354 160.7344 270.1572 160.7344 ZM273.2466 160.2031 L276.0435 160.2031 L276.0435 171.5781 L273.2466 171.5781 L273.2466 171.0781 L275.0903 171.0781 L275.0903 160.7031 L273.2466 160.7031 L273.2466 160.2031 Z"
                  style="clip-path:url(#clipPath19); stroke:none;"/>
        </g>
        <g transform="translate(5,22)"
           style="font-size:9px; text-rendering:optimizeLegibility; color-rendering:optimizeQuality; image-rendering:optimizeQuality; font-family:'Times New Roman'; color-interpolation:linearRGB;">
            <path d="M140.3331 139 L140.3331 142.15"
                  style="fill:none; clip-path:url(#clipPath1);"/>
            <path d="M143.3906 170.4062 Q143.3906 169.1562 143.7734 168.2578 Q144.1562 167.3594 144.7656 166.9219 Q145.25 166.5625 145.7656 166.5625 Q146.6094 166.5625 147.2812 167.4219 Q148.1094 168.4844 148.1094 170.2812 Q148.1094 171.5625 147.7422 172.4453 Q147.375 173.3281 146.8125 173.7266 Q146.25 174.125 145.7188 174.125 Q144.6719 174.125 143.9844 172.9062 Q143.3906 171.8594 143.3906 170.4062 ZM144.4531 170.5312 Q144.4531 172.0469 144.8281 172.9844 Q145.125 173.7969 145.7344 173.7969 Q146.0312 173.7969 146.3359 173.5312 Q146.6406 173.2656 146.8125 172.6562 Q147.0625 171.7344 147.0625 170.0469 Q147.0625 168.8125 146.7969 167.9688 Q146.6094 167.3594 146.2969 167.0938 Q146.0781 166.9219 145.7656 166.9219 Q145.4062 166.9219 145.1094 167.25 Q144.7344 167.6875 144.5938 168.6484 Q144.4531 169.6094 144.4531 170.5312 Z"
                  style="clip-path:url(#clipPath22); stroke:none;"
                  transform="translate(-5,-22)"/>
        </g>
        <g transform="translate(5,22)"
           style="font-size:9px; text-rendering:optimizeLegibility; color-rendering:optimizeQuality; image-rendering:optimizeQuality; font-family:'Times New Roman'; color-interpolation:linearRGB;">
            <path d="M173.6661 139 L173.6661 142.15"
                  style="fill:none; clip-path:url(#clipPath1);"/>
            <path d="M174.2969 167.4375 L176.0625 166.5625 L176.2344 166.5625 L176.2344 172.7188 Q176.2344 173.3281 176.2891 173.4766 Q176.3438 173.625 176.5 173.7109 Q176.6562 173.7969 177.1562 173.7969 L177.1562 174 L174.4219 174 L174.4219 173.7969 Q174.9375 173.7969 175.0859 173.7188 Q175.2344 173.6406 175.2969 173.5078 Q175.3594 173.375 175.3594 172.7188 L175.3594 168.7812 Q175.3594 167.9844 175.2969 167.7656 Q175.2656 167.5938 175.1641 167.5156 Q175.0625 167.4375 174.9219 167.4375 Q174.7188 167.4375 174.375 167.5938 L174.2969 167.4375 ZM178.8906 170.4062 Q178.8906 169.1562 179.2734 168.2578 Q179.6562 167.3594 180.2656 166.9219 Q180.75 166.5625 181.2656 166.5625 Q182.1094 166.5625 182.7812 167.4219 Q183.6094 168.4844 183.6094 170.2812 Q183.6094 171.5625 183.2422 172.4453 Q182.875 173.3281 182.3125 173.7266 Q181.75 174.125 181.2188 174.125 Q180.1719 174.125 179.4844 172.9062 Q178.8906 171.8594 178.8906 170.4062 ZM179.9531 170.5312 Q179.9531 172.0469 180.3281 172.9844 Q180.625 173.7969 181.2344 173.7969 Q181.5312 173.7969 181.8359 173.5312 Q182.1406 173.2656 182.3125 172.6562 Q182.5625 171.7344 182.5625 170.0469 Q182.5625 168.8125 182.2969 167.9688 Q182.1094 167.3594 181.7969 167.0938 Q181.5781 166.9219 181.2656 166.9219 Q180.9062 166.9219 180.6094 167.25 Q180.2344 167.6875 180.0938 168.6484 Q179.9531 169.6094 179.9531 170.5312 Z"
                  style="clip-path:url(#clipPath22); stroke:none;"
                  transform="translate(-5,-22)"/>
        </g>
        <g transform="translate(5,22)"
           style="font-size:9px; text-rendering:optimizeLegibility; color-rendering:optimizeQuality; image-rendering:optimizeQuality; font-family:'Times New Roman'; color-interpolation:linearRGB;">
            <path d="M206.9992 139 L206.9992 142.15"
                  style="fill:none; clip-path:url(#clipPath1);"/>
            <path d="M211.0469 172.5938 L210.5312 174 L206.2344 174 L206.2344 173.7969 Q208.125 172.0781 208.8984 170.9766 Q209.6719 169.875 209.6719 168.9688 Q209.6719 168.2812 209.25 167.8359 Q208.8281 167.3906 208.2344 167.3906 Q207.7031 167.3906 207.2734 167.7031 Q206.8438 168.0156 206.6406 168.625 L206.4531 168.625 Q206.5781 167.625 207.1328 167.0938 Q207.6875 166.5625 208.5312 166.5625 Q209.4062 166.5625 210 167.1328 Q210.5938 167.7031 210.5938 168.4844 Q210.5938 169.0312 210.3438 169.5781 Q209.9375 170.4531 209.0469 171.4219 Q207.7188 172.8906 207.375 173.1875 L209.2812 173.1875 Q209.8594 173.1875 210.0938 173.1484 Q210.3281 173.1094 210.5156 172.9766 Q210.7031 172.8438 210.8438 172.5938 L211.0469 172.5938 ZM211.8906 170.4062 Q211.8906 169.1562 212.2734 168.2578 Q212.6562 167.3594 213.2656 166.9219 Q213.75 166.5625 214.2656 166.5625 Q215.1094 166.5625 215.7812 167.4219 Q216.6094 168.4844 216.6094 170.2812 Q216.6094 171.5625 216.2422 172.4453 Q215.875 173.3281 215.3125 173.7266 Q214.75 174.125 214.2188 174.125 Q213.1719 174.125 212.4844 172.9062 Q211.8906 171.8594 211.8906 170.4062 ZM212.9531 170.5312 Q212.9531 172.0469 213.3281 172.9844 Q213.625 173.7969 214.2344 173.7969 Q214.5312 173.7969 214.8359 173.5312 Q215.1406 173.2656 215.3125 172.6562 Q215.5625 171.7344 215.5625 170.0469 Q215.5625 168.8125 215.2969 167.9688 Q215.1094 167.3594 214.7969 167.0938 Q214.5781 166.9219 214.2656 166.9219 Q213.9062 166.9219 213.6094 167.25 Q213.2344 167.6875 213.0938 168.6484 Q212.9531 169.6094 212.9531 170.5312 Z"
                  style="clip-path:url(#clipPath22); stroke:none;"
                  transform="translate(-5,-22)"/>
        </g>
        <g transform="translate(5,22)"
           style="font-size:9px; text-rendering:optimizeLegibility; color-rendering:optimizeQuality; image-rendering:optimizeQuality; font-family:'Times New Roman'; color-interpolation:linearRGB;">
            <path d="M240.3322 139 L240.3322 142.15"
                  style="fill:none; clip-path:url(#clipPath1);"/>
            <path d="M240.5625 168.1094 Q240.875 167.3594 241.3516 166.9609 Q241.8281 166.5625 242.5312 166.5625 Q243.4062 166.5625 243.875 167.1406 Q244.2344 167.5625 244.2344 168.0469 Q244.2344 168.8438 243.2344 169.6875 Q243.9062 169.9531 244.25 170.4375 Q244.5938 170.9219 244.5938 171.5938 Q244.5938 172.5312 243.9844 173.2188 Q243.2031 174.125 241.7188 174.125 Q240.9844 174.125 240.7188 173.9453 Q240.4531 173.7656 240.4531 173.5469 Q240.4531 173.3906 240.5781 173.2734 Q240.7031 173.1562 240.875 173.1562 Q241.0156 173.1562 241.1562 173.2031 Q241.2344 173.2344 241.5625 173.3984 Q241.8906 173.5625 242.0156 173.6094 Q242.2031 173.6562 242.4375 173.6562 Q242.9844 173.6562 243.3906 173.2344 Q243.7969 172.8125 243.7969 172.2344 Q243.7969 171.8125 243.6094 171.4062 Q243.4688 171.1094 243.2969 170.9531 Q243.0625 170.7344 242.6641 170.5625 Q242.2656 170.3906 241.8438 170.3906 L241.6719 170.3906 L241.6719 170.2188 Q242.0938 170.1719 242.5234 169.9219 Q242.9531 169.6719 243.1406 169.3125 Q243.3281 168.9531 243.3281 168.5312 Q243.3281 167.9844 242.9844 167.6406 Q242.6406 167.2969 242.125 167.2969 Q241.2969 167.2969 240.7344 168.1875 L240.5625 168.1094 ZM245.8906 170.4062 Q245.8906 169.1562 246.2734 168.2578 Q246.6562 167.3594 247.2656 166.9219 Q247.75 166.5625 248.2656 166.5625 Q249.1094 166.5625 249.7812 167.4219 Q250.6094 168.4844 250.6094 170.2812 Q250.6094 171.5625 250.2422 172.4453 Q249.875 173.3281 249.3125 173.7266 Q248.75 174.125 248.2188 174.125 Q247.1719 174.125 246.4844 172.9062 Q245.8906 171.8594 245.8906 170.4062 ZM246.9531 170.5312 Q246.9531 172.0469 247.3281 172.9844 Q247.625 173.7969 248.2344 173.7969 Q248.5312 173.7969 248.8359 173.5312 Q249.1406 173.2656 249.3125 172.6562 Q249.5625 171.7344 249.5625 170.0469 Q249.5625 168.8125 249.2969 167.9688 Q249.1094 167.3594 248.7969 167.0938 Q248.5781 166.9219 248.2656 166.9219 Q247.9062 166.9219 247.6094 167.25 Q247.2344 167.6875 247.0938 168.6484 Q246.9531 169.6094 246.9531 170.5312 Z"
                  style="clip-path:url(#clipPath22); stroke:none;"
                  transform="translate(-5,-22)"/>
        </g>
        <g transform="translate(5,22)"
           style="font-size:9px; text-rendering:optimizeLegibility; color-rendering:optimizeQuality; image-rendering:optimizeQuality; font-family:'Times New Roman'; color-interpolation:linearRGB;">
            <path d="M273.6653 139 L273.6653 142.15"
                  style="fill:none; clip-path:url(#clipPath1);"/>
            <path d="M278.125 171.3125 L278.125 172.0781 L277.1406 172.0781 L277.1406 174 L276.25 174 L276.25 172.0781 L273.1719 172.0781 L273.1719 171.3906 L276.5469 166.5625 L277.1406 166.5625 L277.1406 171.3125 L278.125 171.3125 ZM276.25 171.3125 L276.25 167.7031 L273.7031 171.3125 L276.25 171.3125 ZM278.8906 170.4062 Q278.8906 169.1562 279.2734 168.2578 Q279.6562 167.3594 280.2656 166.9219 Q280.75 166.5625 281.2656 166.5625 Q282.1094 166.5625 282.7812 167.4219 Q283.6094 168.4844 283.6094 170.2812 Q283.6094 171.5625 283.2422 172.4453 Q282.875 173.3281 282.3125 173.7266 Q281.75 174.125 281.2188 174.125 Q280.1719 174.125 279.4844 172.9062 Q278.8906 171.8594 278.8906 170.4062 ZM279.9531 170.5312 Q279.9531 172.0469 280.3281 172.9844 Q280.625 173.7969 281.2344 173.7969 Q281.5312 173.7969 281.8359 173.5312 Q282.1406 173.2656 282.3125 172.6562 Q282.5625 171.7344 282.5625 170.0469 Q282.5625 168.8125 282.2969 167.9688 Q282.1094 167.3594 281.7969 167.0938 Q281.5781 166.9219 281.2656 166.9219 Q280.9062 166.9219 280.6094 167.25 Q280.2344 167.6875 280.0938 168.6484 Q279.9531 169.6094 279.9531 170.5312 Z"
                  style="clip-path:url(#clipPath22); stroke:none;"
                  transform="translate(-5,-22)"/>
        </g>
        <g transform="translate(5,22)"
           style="font-size:9px; text-rendering:optimizeLegibility; color-rendering:optimizeQuality; image-rendering:optimizeQuality; font-family:'Times New Roman'; color-interpolation:linearRGB;">
            <path d="M306.9984 139 L306.9984 142.15"
                  style="fill:none; clip-path:url(#clipPath1);"/>
            <path d="M310.7812 166.7188 L310.3594 167.625 L308.1719 167.625 L307.6875 168.6094 Q309.1094 168.8125 309.9375 169.6719 Q310.6562 170.3906 310.6562 171.3906 Q310.6562 171.9531 310.4219 172.4453 Q310.1875 172.9375 309.8359 173.2812 Q309.4844 173.625 309.0469 173.8281 Q308.4219 174.125 307.7812 174.125 Q307.125 174.125 306.8281 173.9062 Q306.5312 173.6875 306.5312 173.4219 Q306.5312 173.2656 306.6562 173.1484 Q306.7812 173.0312 306.9688 173.0312 Q307.0938 173.0312 307.2031 173.0781 Q307.3125 173.125 307.5625 173.2969 Q307.9688 173.5781 308.375 173.5781 Q309.0156 173.5781 309.4844 173.1016 Q309.9531 172.625 309.9531 171.9375 Q309.9531 171.2812 309.5312 170.7109 Q309.1094 170.1406 308.3594 169.8281 Q307.7812 169.5781 306.7656 169.5469 L308.1719 166.7188 L310.7812 166.7188 ZM311.8906 170.4062 Q311.8906 169.1562 312.2734 168.2578 Q312.6562 167.3594 313.2656 166.9219 Q313.75 166.5625 314.2656 166.5625 Q315.1094 166.5625 315.7812 167.4219 Q316.6094 168.4844 316.6094 170.2812 Q316.6094 171.5625 316.2422 172.4453 Q315.875 173.3281 315.3125 173.7266 Q314.75 174.125 314.2188 174.125 Q313.1719 174.125 312.4844 172.9062 Q311.8906 171.8594 311.8906 170.4062 ZM312.9531 170.5312 Q312.9531 172.0469 313.3281 172.9844 Q313.625 173.7969 314.2344 173.7969 Q314.5312 173.7969 314.8359 173.5312 Q315.1406 173.2656 315.3125 172.6562 Q315.5625 171.7344 315.5625 170.0469 Q315.5625 168.8125 315.2969 167.9688 Q315.1094 167.3594 314.7969 167.0938 Q314.5781 166.9219 314.2656 166.9219 Q313.9062 166.9219 313.6094 167.25 Q313.2344 167.6875 313.0938 168.6484 Q312.9531 169.6094 312.9531 170.5312 Z"
                  style="clip-path:url(#clipPath22); stroke:none;"
                  transform="translate(-5,-22)"/>
        </g>
        <g transform="translate(5,22)"
           style="font-size:9px; text-rendering:optimizeLegibility; color-rendering:optimizeQuality; image-rendering:optimizeQuality; font-family:'Times New Roman'; color-interpolation:linearRGB;">
            <path d="M340.3314 139 L340.3314 142.15"
                  style="fill:none; clip-path:url(#clipPath1);"/>
            <path d="M344.9375 166.5625 L344.9375 166.7656 Q344.2188 166.8281 343.7734 167.0469 Q343.3281 167.2656 342.8906 167.6953 Q342.4531 168.125 342.1641 168.6641 Q341.875 169.2031 341.6875 169.9375 Q342.4531 169.4062 343.2344 169.4062 Q343.9844 169.4062 344.5312 170.0078 Q345.0781 170.6094 345.0781 171.5469 Q345.0781 172.4688 344.5156 173.2188 Q343.8594 174.125 342.7656 174.125 Q342.0156 174.125 341.5 173.6406 Q340.4688 172.6719 340.4688 171.1406 Q340.4688 170.1719 340.8594 169.2891 Q341.25 168.4062 341.9844 167.7188 Q342.7188 167.0312 343.3828 166.7969 Q344.0469 166.5625 344.625 166.5625 L344.9375 166.5625 ZM341.5938 170.3281 Q341.5 171.0469 341.5 171.5 Q341.5 172.0156 341.6875 172.6172 Q341.875 173.2188 342.25 173.5781 Q342.5312 173.8281 342.9219 173.8281 Q343.3906 173.8281 343.7578 173.3906 Q344.125 172.9531 344.125 172.125 Q344.125 171.2188 343.7578 170.5469 Q343.3906 169.875 342.7188 169.875 Q342.5156 169.875 342.2812 169.9609 Q342.0469 170.0469 341.5938 170.3281 ZM345.8906 170.4062 Q345.8906 169.1562 346.2734 168.2578 Q346.6562 167.3594 347.2656 166.9219 Q347.75 166.5625 348.2656 166.5625 Q349.1094 166.5625 349.7812 167.4219 Q350.6094 168.4844 350.6094 170.2812 Q350.6094 171.5625 350.2422 172.4453 Q349.875 173.3281 349.3125 173.7266 Q348.75 174.125 348.2188 174.125 Q347.1719 174.125 346.4844 172.9062 Q345.8906 171.8594 345.8906 170.4062 ZM346.9531 170.5312 Q346.9531 172.0469 347.3281 172.9844 Q347.625 173.7969 348.2344 173.7969 Q348.5312 173.7969 348.8359 173.5312 Q349.1406 173.2656 349.3125 172.6562 Q349.5625 171.7344 349.5625 170.0469 Q349.5625 168.8125 349.2969 167.9688 Q349.1094 167.3594 348.7969 167.0938 Q348.5781 166.9219 348.2656 166.9219 Q347.9062 166.9219 347.6094 167.25 Q347.2344 167.6875 347.0938 168.6484 Q346.9531 169.6094 346.9531 170.5312 Z"
                  style="clip-path:url(#clipPath22); stroke:none;"
                  transform="translate(-5,-22)"/>
        </g>
        <g transform="translate(5,22)"
           style="font-size:9px; text-rendering:optimizeLegibility; color-rendering:optimizeQuality; image-rendering:optimizeQuality; font-family:'Times New Roman'; color-interpolation:linearRGB;">
            <path d="M373.6645 139 L373.6645 142.15"
                  style="fill:none; clip-path:url(#clipPath1);"/>
            <path d="M374.1094 166.7188 L378.0156 166.7188 L378.0156 166.9219 L375.5781 174.1562 L374.9844 174.1562 L377.1562 167.5938 L375.1562 167.5938 Q374.5469 167.5938 374.2969 167.7344 Q373.8438 167.9844 373.5625 168.5 L373.4062 168.4375 L374.1094 166.7188 ZM378.8906 170.4062 Q378.8906 169.1562 379.2734 168.2578 Q379.6562 167.3594 380.2656 166.9219 Q380.75 166.5625 381.2656 166.5625 Q382.1094 166.5625 382.7812 167.4219 Q383.6094 168.4844 383.6094 170.2812 Q383.6094 171.5625 383.2422 172.4453 Q382.875 173.3281 382.3125 173.7266 Q381.75 174.125 381.2188 174.125 Q380.1719 174.125 379.4844 172.9062 Q378.8906 171.8594 378.8906 170.4062 ZM379.9531 170.5312 Q379.9531 172.0469 380.3281 172.9844 Q380.625 173.7969 381.2344 173.7969 Q381.5312 173.7969 381.8359 173.5312 Q382.1406 173.2656 382.3125 172.6562 Q382.5625 171.7344 382.5625 170.0469 Q382.5625 168.8125 382.2969 167.9688 Q382.1094 167.3594 381.7969 167.0938 Q381.5781 166.9219 381.2656 166.9219 Q380.9062 166.9219 380.6094 167.25 Q380.2344 167.6875 380.0938 168.6484 Q379.9531 169.6094 379.9531 170.5312 Z"
                  style="clip-path:url(#clipPath22); stroke:none;"
                  transform="translate(-5,-22)"/>
        </g>
        <g transform="translate(5,22)"
           style="stroke-linecap:butt; font-size:9px; text-rendering:optimizeLegibility; image-rendering:optimizeQuality; color-rendering:optimizeQuality; font-family:'Times New Roman'; stroke-linejoin:round; color-interpolation:linearRGB;">
            <path d="M105 139 L105 6.0298"
                  style="fill:none; clip-path:url(#clipPath1);"/>
            <path d="M408.9975 139 L408.9975 6.0298"
                  style="fill:none; clip-path:url(#clipPath1);"/>
        </g>
        <g transform="translate(5,22)"
           style="stroke-linecap:butt; font-size:9px; text-rendering:optimizeLegibility; image-rendering:optimizeQuality; color-rendering:optimizeQuality; font-family:'Times New Roman'; stroke-linejoin:round; color-interpolation:linearRGB;">
            <path d="M11.2344 66.8438 L10.2188 70.2656 L11.3438 70.2656 Q12.1094 70.2656 12.4844 70.0234 Q12.8594 69.7812 13.2656 69.0156 L13.5 69.0156 L12.6094 72.1562 L12.3438 72.1562 Q12.4531 71.7812 12.4531 71.5312 Q12.4531 71.1406 12.1953 70.9297 Q11.9375 70.7188 11.2344 70.7188 L10.0781 70.7188 L9.3438 73.3125 Q9.1406 74 9.1406 74.2344 Q9.1406 74.4688 9.3125 74.5938 Q9.4844 74.7188 10.1562 74.7656 L10.0781 75 L6.6875 75 L6.7656 74.7656 Q7.2656 74.75 7.4219 74.6719 Q7.6719 74.5625 7.7969 74.3906 Q7.9688 74.125 8.2031 73.3125 L9.7188 68.125 Q9.9062 67.5 9.9062 67.1406 Q9.9062 66.9688 9.8281 66.8516 Q9.75 66.7344 9.5859 66.6797 Q9.4219 66.625 8.9375 66.625 L9.0156 66.3906 L15.6875 66.3906 L15.0625 68.5625 L14.8125 68.5625 Q14.8906 68.1719 14.8906 67.9219 Q14.8906 67.5 14.6562 67.2578 Q14.4219 67.0156 14.0625 66.9062 Q13.8125 66.8438 12.9219 66.8438 L11.2344 66.8438 Z"
                  style="stroke:none; clip-path:url(#clipPath23);"/>
            <path d="M19.4062 74.0625 L17.7344 79.8125 Q17.5938 80.2812 17.5938 80.4375 Q17.5938 80.4844 17.6328 80.5234 Q17.6719 80.5625 17.7188 80.5625 Q17.7812 80.5625 17.875 80.5 Q18.0312 80.3906 18.4219 79.9219 L18.5938 80.0156 Q18.25 80.5156 17.8906 80.8203 Q17.5312 81.125 17.2188 81.125 Q17.0469 81.125 16.9375 81 Q16.8281 80.875 16.8281 80.6719 Q16.8281 80.3906 16.9844 79.9219 L17.1719 79.3125 Q16.4688 80.4062 15.875 80.8281 Q15.4844 81.125 15.1094 81.125 Q14.75 81.125 14.4688 80.7891 Q14.1875 80.4531 14.1875 79.8906 Q14.1875 79.1562 14.6562 78.3359 Q15.125 77.5156 15.875 77 Q16.4844 76.5781 16.9844 76.5781 Q17.25 76.5781 17.4375 76.6875 Q17.625 76.7969 17.8125 77.0469 L18.2969 75.3438 Q18.3438 75.1719 18.375 75.0625 Q18.4375 74.8594 18.4375 74.7344 Q18.4375 74.625 18.3594 74.5625 Q18.2656 74.4844 18.1094 74.4844 Q17.9844 74.4844 17.7344 74.5156 L17.7344 74.3281 L19.4062 74.0625 ZM17.5938 77.5156 Q17.5938 77.2031 17.4141 77.0156 Q17.2344 76.8281 16.9531 76.8281 Q16.3438 76.8281 15.6797 77.8438 Q15.0156 78.8594 15.0156 79.7812 Q15.0156 80.1562 15.1719 80.3516 Q15.3281 80.5469 15.5625 80.5469 Q16.0625 80.5469 16.8281 79.4453 Q17.5938 78.3438 17.5938 77.5156 ZM19.5156 76.8594 L21.2031 76.5781 L20.5 78.9531 Q21.3594 77.5 22.0625 76.9062 Q22.4531 76.5781 22.7031 76.5781 Q22.8594 76.5781 22.9531 76.6719 Q23.0469 76.7656 23.0469 76.9531 Q23.0469 77.2812 22.875 77.5625 Q22.7656 77.7812 22.5469 77.7812 Q22.4375 77.7812 22.3516 77.7109 Q22.2656 77.6406 22.25 77.4844 Q22.25 77.3906 22.2031 77.3594 Q22.1719 77.3281 22.1094 77.3281 Q22.0312 77.3281 21.9531 77.3594 Q21.8281 77.4375 21.5781 77.75 Q21.1719 78.2188 20.6875 78.9844 Q20.4844 79.3125 20.3438 79.7188 Q20.1406 80.2656 20.1094 80.3906 L19.9531 81 L19.2031 81 L20.1094 77.9688 Q20.2656 77.4375 20.2656 77.2188 Q20.2656 77.125 20.1875 77.0625 Q20.0938 76.9844 19.9375 76.9844 Q19.8281 76.9844 19.5625 77.0312 L19.5156 76.8594 ZM27.5791 76.5781 L26.626 79.8906 L26.5322 80.3281 Q26.5166 80.4062 26.5166 80.4375 Q26.5166 80.5156 26.5635 80.5781 Q26.5947 80.625 26.6572 80.625 Q26.7197 80.625 26.8291 80.5469 Q27.0166 80.4062 27.3291 79.9531 L27.501 80.0781 Q27.1572 80.5781 26.8057 80.8516 Q26.4541 81.125 26.1416 81.125 Q25.9385 81.125 25.8291 81.0156 Q25.7197 80.9062 25.7197 80.7031 Q25.7197 80.4688 25.8291 80.0781 L25.9385 79.7031 Q25.2979 80.5469 24.751 80.875 Q24.376 81.125 24.001 81.125 Q23.6416 81.125 23.3838 80.8281 Q23.126 80.5312 23.126 80.0156 Q23.126 79.2344 23.5947 78.375 Q24.0635 77.5156 24.7822 76.9844 Q25.3447 76.5781 25.8291 76.5781 Q26.1416 76.5781 26.3369 76.7344 Q26.5322 76.8906 26.626 77.25 L26.8135 76.7031 L27.5791 76.5781 ZM25.8447 76.8281 Q25.5322 76.8281 25.1885 77.125 Q24.6885 77.5469 24.2979 78.3594 Q23.9072 79.1719 23.9072 79.8281 Q23.9072 80.1719 24.0713 80.3594 Q24.2354 80.5469 24.4541 80.5469 Q24.9854 80.5469 25.6104 79.7656 Q26.4541 78.7188 26.4541 77.625 Q26.4541 77.2031 26.29 77.0156 Q26.126 76.8281 25.8447 76.8281 ZM33.0947 76.8906 L32.9541 77.3906 L32.1416 77.3906 Q32.2354 77.6562 32.2354 77.8906 Q32.2354 78.5312 31.6885 79.0312 Q31.1416 79.5312 30.1729 79.5938 Q29.6572 79.75 29.4072 79.9531 Q29.2979 80.0312 29.2979 80.125 Q29.2979 80.2188 29.3916 80.2969 Q29.4854 80.375 29.8291 80.4688 L30.7822 80.6875 Q31.5635 80.875 31.8291 81.125 Q32.0791 81.375 32.0791 81.7188 Q32.0791 82.125 31.7822 82.4531 Q31.4854 82.7812 30.915 82.9688 Q30.3447 83.1562 29.6572 83.1562 Q29.0479 83.1562 28.5479 83.0156 Q28.0479 82.875 27.8369 82.625 Q27.626 82.375 27.626 82.125 Q27.626 81.9062 27.7666 81.6797 Q27.9072 81.4531 28.1104 81.3125 Q28.251 81.2188 28.8604 80.875 Q28.6416 80.7031 28.6416 80.4844 Q28.6416 80.2969 28.8369 80.0781 Q29.0322 79.8594 29.6729 79.5938 Q29.126 79.4844 28.8135 79.1406 Q28.501 78.7969 28.501 78.375 Q28.501 77.6719 29.1104 77.125 Q29.7197 76.5781 30.7354 76.5781 Q31.0947 76.5781 31.3291 76.6562 Q31.5635 76.7344 31.7822 76.8906 L33.0947 76.8906 ZM31.4072 77.6562 Q31.4072 77.2656 31.1885 77.0391 Q30.9697 76.8125 30.626 76.8125 Q30.0635 76.8125 29.7041 77.3672 Q29.3447 77.9219 29.3447 78.5156 Q29.3447 78.8906 29.5791 79.1328 Q29.8135 79.375 30.1416 79.375 Q30.3916 79.375 30.6338 79.2344 Q30.876 79.0938 31.0479 78.8438 Q31.2197 78.5938 31.3135 78.2109 Q31.4072 77.8281 31.4072 77.6562 ZM29.0635 81 Q28.6729 81.1875 28.4697 81.4688 Q28.2666 81.75 28.2666 82.0156 Q28.2666 82.3438 28.5635 82.5469 Q28.9854 82.8594 29.7979 82.8594 Q30.4854 82.8594 30.9854 82.6172 Q31.4854 82.375 31.4854 82 Q31.4854 81.8125 31.2979 81.6406 Q31.1104 81.4688 30.5947 81.3594 Q30.2979 81.3125 29.0635 81 Z"
                  style="clip-path:url(#clipPath23); stroke:none;"/>
            <path d="M42.375 67.6875 L41.875 69.4062 L42.875 69.4062 L42.7656 69.8125 L41.7812 69.8125 L40.6875 73.5469 Q40.5156 74.1562 40.5156 74.3281 Q40.5156 74.4375 40.5625 74.5 Q40.6094 74.5625 40.6875 74.5625 Q40.8438 74.5625 41.0938 74.3281 Q41.25 74.2031 41.7812 73.5469 L41.9844 73.7188 Q41.4062 74.5625 40.8906 74.9062 Q40.5312 75.1562 40.1719 75.1562 Q39.8906 75.1562 39.7109 74.9766 Q39.5312 74.7969 39.5312 74.5312 Q39.5312 74.1875 39.7344 73.4844 L40.7969 69.8125 L39.8438 69.8125 L39.9062 69.5625 Q40.5938 69.375 41.0625 68.9922 Q41.5312 68.6094 42.0938 67.6875 L42.375 67.6875 Z"
                  style="clip-path:url(#clipPath23); stroke:none;"/>
            <path d="M2.6577 11.694 L2.4644 12 Q0 10.4698 0 5.88 L0 6 L0 6.12 Q0 1.5141 2.4644 0 L2.6577 0.2899 Q1.5624 1.2242 1.1919 2.9154 Q0.9664 3.9624 0.9664 5.88 L0.9664 6 L0.9664 6.12 Q0.9664 8.0215 1.1919 9.0685 Q1.5624 10.7597 2.6577 11.694 Z"
                  style="clip-path:url(#clipPath24); stroke:none;"
                  transform="translate(34,66)"/>
            <path d="M0 0.306 L0.1933 0 Q2.6577 1.5302 2.6577 6.12 L2.6577 6 L2.6577 5.88 Q2.6577 10.4859 0.1933 12 L0 11.7101 Q1.0953 10.7758 1.4658 9.0846 Q1.6913 8.0376 1.6913 6.12 L1.6913 6 L1.6913 5.88 Q1.6913 3.9785 1.4658 2.9315 Q1.0953 1.2403 0 0.306 Z"
                  style="clip-path:url(#clipPath25); stroke:none;"
                  transform="translate(44,66)"/>
            <path d="M57.1094 77.5781 L54.3125 77.5781 L54.3125 66.2031 L57.1094 66.2031 L57.1094 66.7031 L55.2656 66.7031 L55.2656 77.0781 L57.1094 77.0781 L57.1094 77.5781 ZM57.4072 66.3906 L59.751 66.3906 L65.001 72.8438 L65.001 67.8906 Q65.001 67.0938 64.8291 66.8906 Q64.5947 66.625 64.0791 66.625 L63.7822 66.625 L63.7822 66.3906 L66.7822 66.3906 L66.7822 66.625 L66.4854 66.625 Q65.9385 66.625 65.7041 66.9531 Q65.5635 67.1562 65.5635 67.8906 L65.5635 75.1406 L65.3291 75.1406 L59.6572 68.2031 L59.6572 73.5156 Q59.6572 74.2969 59.8291 74.5 Q60.0791 74.7656 60.5791 74.7656 L60.876 74.7656 L60.876 75 L57.8916 75 L57.8916 74.7656 L58.1885 74.7656 Q58.7354 74.7656 58.9697 74.4375 Q59.1104 74.2344 59.1104 73.5156 L59.1104 67.5156 Q58.7354 67.0781 58.54 66.9453 Q58.3447 66.8125 57.9697 66.6875 Q57.7822 66.625 57.4072 66.625 L57.4072 66.3906 ZM67.436 66.2031 L70.2329 66.2031 L70.2329 77.5781 L67.436 77.5781 L67.436 77.0781 L69.2798 77.0781 L69.2798 66.7031 L67.436 66.7031 L67.436 66.2031 Z"
                  style="clip-path:url(#clipPath23); stroke:none;"/>
        </g>
        <g transform="translate(5,22)"
           style="font-size:9px; text-rendering:optimizeLegibility; color-rendering:optimizeQuality; image-rendering:optimizeQuality; font-family:'Times New Roman'; color-interpolation:linearRGB;">
            <path d="M105 100.8883 L101.85 100.8883"
                  style="fill:none; clip-path:url(#clipPath1);"/>
        </g>
        <g style="text-rendering:optimizeLegibility; font-size:9px; font-family:'Times New Roman'; color-interpolation:linearRGB; color-rendering:optimizeQuality; image-rendering:optimizeQuality;">
            <path d="M93.125 123.9844 L85.875 123.9844 L85.875 123.4062 L93.125 123.4062 L93.125 123.9844 Z"
                  style="stroke:none; clip-path:url(#clipPath26);"/>
        </g>
        <g style="text-rendering:optimizeLegibility; font-size:9px; font-family:'Times New Roman'; color-interpolation:linearRGB; color-rendering:optimizeQuality; image-rendering:optimizeQuality;">
            <path d="M92.2969 120.4375 L94.0625 119.5625 L94.2344 119.5625 L94.2344 125.7188 Q94.2344 126.3281 94.2891 126.4766 Q94.3438 126.625 94.5 126.7109 Q94.6562 126.7969 95.1562 126.7969 L95.1562 127 L92.4219 127 L92.4219 126.7969 Q92.9375 126.7969 93.0859 126.7188 Q93.2344 126.6406 93.2969 126.5078 Q93.3594 126.375 93.3594 125.7188 L93.3594 121.7812 Q93.3594 120.9844 93.2969 120.7656 Q93.2656 120.5938 93.1641 120.5156 Q93.0625 120.4375 92.9219 120.4375 Q92.7188 120.4375 92.375 120.5938 L92.2969 120.4375 ZM98.6094 123.3281 Q97.75 122.625 97.5 122.1953 Q97.25 121.7656 97.25 121.2969 Q97.25 120.5938 97.7969 120.0781 Q98.3438 119.5625 99.25 119.5625 Q100.125 119.5625 100.6641 120.0391 Q101.2031 120.5156 101.2031 121.1406 Q101.2031 121.5469 100.9141 121.9688 Q100.625 122.3906 99.7031 122.9688 Q100.6562 123.7031 100.9531 124.1094 Q101.3594 124.6562 101.3594 125.2656 Q101.3594 126.0312 100.7812 126.5781 Q100.2031 127.125 99.25 127.125 Q98.2031 127.125 97.625 126.4844 Q97.1719 125.9531 97.1719 125.3438 Q97.1719 124.8594 97.4922 124.3828 Q97.8125 123.9062 98.6094 123.3281 ZM99.4531 122.75 Q100.0938 122.1719 100.2656 121.8359 Q100.4375 121.5 100.4375 121.0781 Q100.4375 120.5156 100.125 120.1953 Q99.8125 119.875 99.2656 119.875 Q98.7188 119.875 98.375 120.1953 Q98.0312 120.5156 98.0312 120.9375 Q98.0312 121.2188 98.1719 121.5 Q98.3125 121.7812 98.5781 122.0312 L99.4531 122.75 ZM98.8594 123.5312 Q98.4219 123.9062 98.2031 124.3516 Q97.9844 124.7969 97.9844 125.3125 Q97.9844 126 98.3672 126.4219 Q98.75 126.8438 99.3281 126.8438 Q99.9062 126.8438 100.2578 126.5156 Q100.6094 126.1875 100.6094 125.7188 Q100.6094 125.3281 100.4062 125.0156 Q100.0312 124.4531 98.8594 123.5312 ZM102.3906 123.4062 Q102.3906 122.1562 102.7734 121.2578 Q103.1562 120.3594 103.7656 119.9219 Q104.25 119.5625 104.7656 119.5625 Q105.6094 119.5625 106.2812 120.4219 Q107.1094 121.4844 107.1094 123.2812 Q107.1094 124.5625 106.7422 125.4453 Q106.375 126.3281 105.8125 126.7266 Q105.25 127.125 104.7188 127.125 Q103.6719 127.125 102.9844 125.9062 Q102.3906 124.8594 102.3906 123.4062 ZM103.4531 123.5312 Q103.4531 125.0469 103.8281 125.9844 Q104.125 126.7969 104.7344 126.7969 Q105.0312 126.7969 105.3359 126.5312 Q105.6406 126.2656 105.8125 125.6562 Q106.0625 124.7344 106.0625 123.0469 Q106.0625 121.8125 105.7969 120.9688 Q105.6094 120.3594 105.2969 120.0938 Q105.0781 119.9219 104.7656 119.9219 Q104.4062 119.9219 104.1094 120.25 Q103.7344 120.6875 103.5938 121.6484 Q103.4531 122.6094 103.4531 123.5312 Z"
                  style="stroke:none; clip-path:url(#clipPath22);"/>
        </g>
        <g transform="translate(5,22)"
           style="font-size:9px; text-rendering:optimizeLegibility; color-rendering:optimizeQuality; image-rendering:optimizeQuality; font-family:'Times New Roman'; color-interpolation:linearRGB;">
            <path d="M105 54.4591 L101.85 54.4591"
                  style="fill:none; clip-path:url(#clipPath1);"/>
        </g>
        <g style="text-rendering:optimizeLegibility; font-size:9px; font-family:'Times New Roman'; color-interpolation:linearRGB; color-rendering:optimizeQuality; image-rendering:optimizeQuality;">
            <path d="M98.125 77.9844 L90.875 77.9844 L90.875 77.4062 L98.125 77.4062 L98.125 77.9844 Z"
                  style="stroke:none; clip-path:url(#clipPath27);"/>
        </g>
        <g style="text-rendering:optimizeLegibility; font-size:9px; font-family:'Times New Roman'; color-interpolation:linearRGB; color-rendering:optimizeQuality; image-rendering:optimizeQuality;">
            <path d="M96.5781 81.1562 L96.5781 80.9531 Q97.2812 80.9375 97.8828 80.625 Q98.4844 80.3125 99.0469 79.5312 Q99.6094 78.75 99.8281 77.7969 Q98.9844 78.3438 98.2969 78.3438 Q97.5312 78.3438 96.9844 77.75 Q96.4375 77.1562 96.4375 76.1719 Q96.4375 75.2188 96.9844 74.4688 Q97.6406 73.5625 98.7031 73.5625 Q99.6094 73.5625 100.25 74.3125 Q101.0312 75.2188 101.0312 76.5781 Q101.0312 77.7812 100.4297 78.8359 Q99.8281 79.8906 98.7656 80.5781 Q97.9062 81.1562 96.8906 81.1562 L96.5781 81.1562 ZM99.9062 77.4062 Q100 76.7031 100 76.2969 Q100 75.7656 99.8281 75.1641 Q99.6562 74.5625 99.3281 74.2422 Q99 73.9219 98.5938 73.9219 Q98.1094 73.9219 97.75 74.3516 Q97.3906 74.7812 97.3906 75.625 Q97.3906 76.75 97.875 77.3906 Q98.2188 77.8594 98.7344 77.8594 Q98.9688 77.8594 99.3125 77.7422 Q99.6562 77.625 99.9062 77.4062 ZM101.8906 77.4062 Q101.8906 76.1562 102.2734 75.2578 Q102.6562 74.3594 103.2656 73.9219 Q103.75 73.5625 104.2656 73.5625 Q105.1094 73.5625 105.7812 74.4219 Q106.6094 75.4844 106.6094 77.2812 Q106.6094 78.5625 106.2422 79.4453 Q105.875 80.3281 105.3125 80.7266 Q104.75 81.125 104.2188 81.125 Q103.1719 81.125 102.4844 79.9062 Q101.8906 78.8594 101.8906 77.4062 ZM102.9531 77.5312 Q102.9531 79.0469 103.3281 79.9844 Q103.625 80.7969 104.2344 80.7969 Q104.5312 80.7969 104.8359 80.5312 Q105.1406 80.2656 105.3125 79.6562 Q105.5625 78.7344 105.5625 77.0469 Q105.5625 75.8125 105.2969 74.9688 Q105.1094 74.3594 104.7969 74.0938 Q104.5781 73.9219 104.2656 73.9219 Q103.9062 73.9219 103.6094 74.25 Q103.2344 74.6875 103.0938 75.6484 Q102.9531 76.6094 102.9531 77.5312 Z"
                  style="stroke:none; clip-path:url(#clipPath22);"/>
        </g>
        <g transform="translate(5,22)"
           style="font-size:9px; text-rendering:optimizeLegibility; color-rendering:optimizeQuality; image-rendering:optimizeQuality; font-family:'Times New Roman'; color-interpolation:linearRGB;">
            <path d="M105 8.0298 L101.85 8.0298"
                  style="fill:none; clip-path:url(#clipPath1);"/>
            <path d="M102.3906 31.4062 Q102.3906 30.1562 102.7734 29.2578 Q103.1562 28.3594 103.7656 27.9219 Q104.25 27.5625 104.7656 27.5625 Q105.6094 27.5625 106.2812 28.4219 Q107.1094 29.4844 107.1094 31.2812 Q107.1094 32.5625 106.7422 33.4453 Q106.375 34.3281 105.8125 34.7266 Q105.25 35.125 104.7188 35.125 Q103.6719 35.125 102.9844 33.9062 Q102.3906 32.8594 102.3906 31.4062 ZM103.4531 31.5312 Q103.4531 33.0469 103.8281 33.9844 Q104.125 34.7969 104.7344 34.7969 Q105.0312 34.7969 105.3359 34.5312 Q105.6406 34.2656 105.8125 33.6562 Q106.0625 32.7344 106.0625 31.0469 Q106.0625 29.8125 105.7969 28.9688 Q105.6094 28.3594 105.2969 28.0938 Q105.0781 27.9219 104.7656 27.9219 Q104.4062 27.9219 104.1094 28.25 Q103.7344 28.6875 103.5938 29.6484 Q103.4531 30.6094 103.4531 31.5312 Z"
                  style="clip-path:url(#clipPath22); stroke:none;"
                  transform="translate(-5,-22)"/>
        </g>
        <g transform="translate(5,5)"
           style="stroke-linecap:butt; text-rendering:optimizeLegibility; image-rendering:optimizeQuality; color-rendering:optimizeQuality; font-family:'Times New Roman'; stroke-linejoin:round; color-interpolation:linearRGB; stroke-width:1.5;">
            <path d="M74.25 14 L74.25 13.7344 L74.625 13.7344 Q75.2656 13.7344 75.5312 13.3281 Q75.6875 13.0781 75.6875 12.2344 L75.6875 5.8281 Q75.6875 4.8906 75.4844 4.6562 Q75.1875 4.3438 74.625 4.3438 L74.25 4.3438 L74.25 4.0625 L78.2969 4.0625 Q80.5312 4.0625 81.6875 4.5703 Q82.8438 5.0781 83.5547 6.2578 Q84.2656 7.4375 84.2656 8.9844 Q84.2656 11.0625 83 12.4531 Q81.5938 14 78.6875 14 L74.25 14 ZM77.0938 13.2812 Q78.0156 13.4844 78.6562 13.4844 Q80.3438 13.4844 81.4688 12.2891 Q82.5938 11.0938 82.5938 9.0625 Q82.5938 7 81.4688 5.8125 Q80.3438 4.625 78.5938 4.625 Q77.9375 4.625 77.0938 4.8438 L77.0938 13.2812 ZM87.27 7.0938 L87.27 8.6094 Q88.1138 7.0938 88.9888 7.0938 Q89.395 7.0938 89.6606 7.3359 Q89.9263 7.5781 89.9263 7.9062 Q89.9263 8.1875 89.731 8.3906 Q89.5356 8.5938 89.2856 8.5938 Q89.02 8.5938 88.6997 8.3359 Q88.3794 8.0781 88.2388 8.0781 Q88.0981 8.0781 87.9419 8.2344 Q87.6138 8.5312 87.27 9.2188 L87.27 12.4375 Q87.27 12.9844 87.4106 13.2812 Q87.5044 13.4688 87.7466 13.6016 Q87.9888 13.7344 88.4419 13.7344 L88.4419 14 L85.0044 14 L85.0044 13.7344 Q85.52 13.7344 85.77 13.5781 Q85.9419 13.4531 86.02 13.2031 Q86.0513 13.0781 86.0513 12.4844 L86.0513 9.8906 Q86.0513 8.7188 86.0044 8.4922 Q85.9575 8.2656 85.8325 8.1641 Q85.7075 8.0625 85.52 8.0625 Q85.2856 8.0625 85.0044 8.1719 L84.9263 7.9062 L86.9575 7.0938 L87.27 7.0938 ZM94.0933 13.0312 Q93.062 13.8281 92.7964 13.9531 Q92.4058 14.1406 91.9526 14.1406 Q91.2651 14.1406 90.812 13.6641 Q90.3589 13.1875 90.3589 12.4062 Q90.3589 11.9219 90.5776 11.5625 Q90.8901 11.0625 91.6323 10.625 Q92.3745 10.1875 94.0933 9.5469 L94.0933 9.2969 Q94.0933 8.2812 93.7808 7.9141 Q93.4683 7.5469 92.8589 7.5469 Q92.3901 7.5469 92.1245 7.7812 Q91.8433 8.0312 91.8433 8.3594 L91.8589 8.7812 Q91.8589 9.125 91.687 9.3047 Q91.5151 9.4844 91.2339 9.4844 Q90.9683 9.4844 90.7964 9.2969 Q90.6245 9.1094 90.6245 8.7812 Q90.6245 8.1406 91.2651 7.6172 Q91.9058 7.0938 93.0776 7.0938 Q93.9683 7.0938 94.5308 7.3906 Q94.9683 7.625 95.1714 8.1094 Q95.312 8.4219 95.312 9.3906 L95.312 11.6719 Q95.312 12.625 95.3433 12.8438 Q95.3745 13.0625 95.4604 13.1328 Q95.5464 13.2031 95.6558 13.2031 Q95.7808 13.2031 95.8589 13.1562 Q96.0151 13.0625 96.4526 12.625 L96.4526 13.0312 Q95.6401 14.125 94.8901 14.125 Q94.5308 14.125 94.3198 13.8828 Q94.1089 13.6406 94.0933 13.0312 ZM94.0933 12.5625 L94.0933 10 Q92.9995 10.4375 92.6714 10.625 Q92.0933 10.9531 91.8433 11.3047 Q91.5933 11.6562 91.5933 12.0625 Q91.5933 12.5938 91.9058 12.9453 Q92.2183 13.2969 92.6401 13.2969 Q93.187 13.2969 94.0933 12.5625 ZM98.751 11.5469 Q98.126 11.25 97.7979 10.7109 Q97.4697 10.1719 97.4697 9.5312 Q97.4697 8.5312 98.2197 7.8125 Q98.9697 7.0938 100.1416 7.0938 Q101.1104 7.0938 101.8135 7.5625 L103.2354 7.5625 Q103.5479 7.5625 103.5947 7.5781 Q103.6416 7.5938 103.6729 7.6406 Q103.7197 7.7031 103.7197 7.875 Q103.7197 8.0625 103.6729 8.1406 Q103.6572 8.1719 103.6025 8.1953 Q103.5479 8.2188 103.2354 8.2188 L102.3604 8.2188 Q102.7666 8.75 102.7666 9.5625 Q102.7666 10.5 102.0479 11.1719 Q101.3291 11.8438 100.126 11.8438 Q99.626 11.8438 99.1104 11.6875 Q98.7822 11.9688 98.6729 12.1797 Q98.5635 12.3906 98.5635 12.5312 Q98.5635 12.6562 98.6807 12.7734 Q98.7979 12.8906 99.1572 12.9375 Q99.3604 12.9688 100.1729 13 Q101.6885 13.0312 102.126 13.0938 Q102.8135 13.1875 103.2197 13.6016 Q103.626 14.0156 103.626 14.6094 Q103.626 15.4375 102.8447 16.1719 Q101.7041 17.2344 99.876 17.2344 Q98.4541 17.2344 97.4854 16.5938 Q96.9385 16.2344 96.9385 15.8438 Q96.9385 15.6562 97.0166 15.4844 Q97.1416 15.2188 97.5322 14.7344 Q97.5791 14.6719 98.2666 13.9375 Q97.8916 13.7188 97.7354 13.5391 Q97.5791 13.3594 97.5791 13.125 Q97.5791 12.875 97.79 12.5312 Q98.001 12.1875 98.751 11.5469 ZM100.0166 7.4375 Q99.4854 7.4375 99.1182 7.875 Q98.751 8.3125 98.751 9.2031 Q98.751 10.3594 99.251 11 Q99.626 11.4844 100.2197 11.4844 Q100.7666 11.4844 101.126 11.0625 Q101.4854 10.6406 101.4854 9.75 Q101.4854 8.5938 100.9854 7.9219 Q100.6104 7.4375 100.0166 7.4375 ZM98.6729 14 Q98.3291 14.375 98.1572 14.6953 Q97.9854 15.0156 97.9854 15.2969 Q97.9854 15.6406 98.4072 15.9062 Q99.1416 16.3594 100.5166 16.3594 Q101.8447 16.3594 102.4697 15.8906 Q103.0947 15.4219 103.0947 14.9062 Q103.0947 14.5156 102.7197 14.3594 Q102.3447 14.2031 101.2041 14.1719 Q99.5635 14.125 98.6729 14 ZM104.5947 10.0781 L108.376 10.0781 L108.376 11.1875 L104.5947 11.1875 L104.5947 10.0781 ZM112.0742 7.8125 L112.0742 12.2344 Q112.0742 13.1719 112.2773 13.4062 Q112.543 13.7344 112.9961 13.7344 L113.6055 13.7344 L113.6055 14 L109.6055 14 L109.6055 13.7344 L109.9023 13.7344 Q110.1992 13.7344 110.4414 13.5859 Q110.6836 13.4375 110.7695 13.1875 Q110.8555 12.9375 110.8555 12.2344 L110.8555 7.8125 L109.5586 7.8125 L109.5586 7.2969 L110.8555 7.2969 L110.8555 6.8438 Q110.8555 5.8438 111.1836 5.1484 Q111.5117 4.4531 112.1758 4.0234 Q112.8398 3.5938 113.668 3.5938 Q114.4336 3.5938 115.0742 4.0938 Q115.4961 4.4219 115.4961 4.8438 Q115.4961 5.0625 115.3086 5.25 Q115.1211 5.4375 114.9023 5.4375 Q114.7305 5.4375 114.543 5.3203 Q114.3555 5.2031 114.082 4.8047 Q113.8086 4.4062 113.5898 4.2656 Q113.3555 4.125 113.0898 4.125 Q112.7461 4.125 112.5117 4.3047 Q112.2773 4.4844 112.1758 4.8594 Q112.0742 5.2344 112.0742 6.8125 L112.0742 7.2969 L113.793 7.2969 L113.793 7.8125 L112.0742 7.8125 ZM117.7256 7.0938 Q119.2568 7.0938 120.1787 8.25 Q120.96 9.2344 120.96 10.5156 Q120.96 11.4219 120.5225 12.3438 Q120.085 13.2656 119.3271 13.7344 Q118.5693 14.2031 117.6475 14.2031 Q116.1318 14.2031 115.2412 13 Q114.4756 11.9844 114.4756 10.7188 Q114.4756 9.7812 114.9365 8.875 Q115.3975 7.9688 116.1475 7.5312 Q116.8975 7.0938 117.7256 7.0938 ZM117.4912 7.5625 Q117.1162 7.5625 116.7178 7.7969 Q116.3193 8.0312 116.085 8.6094 Q115.8506 9.1875 115.8506 10.0938 Q115.8506 11.5625 116.4287 12.625 Q117.0068 13.6875 117.96 13.6875 Q118.6631 13.6875 119.1318 13.1016 Q119.6006 12.5156 119.6006 11.0781 Q119.6006 9.2969 118.8193 8.2656 Q118.3037 7.5625 117.4912 7.5625 ZM123.9131 7.0938 L123.9131 8.6094 Q124.7568 7.0938 125.6318 7.0938 Q126.0381 7.0938 126.3037 7.3359 Q126.5693 7.5781 126.5693 7.9062 Q126.5693 8.1875 126.374 8.3906 Q126.1787 8.5938 125.9287 8.5938 Q125.6631 8.5938 125.3428 8.3359 Q125.0225 8.0781 124.8818 8.0781 Q124.7412 8.0781 124.585 8.2344 Q124.2568 8.5312 123.9131 9.2188 L123.9131 12.4375 Q123.9131 12.9844 124.0537 13.2812 Q124.1475 13.4688 124.3896 13.6016 Q124.6318 13.7344 125.085 13.7344 L125.085 14 L121.6475 14 L121.6475 13.7344 Q122.1631 13.7344 122.4131 13.5781 Q122.585 13.4531 122.6631 13.2031 Q122.6943 13.0781 122.6943 12.4844 L122.6943 9.8906 Q122.6943 8.7188 122.6475 8.4922 Q122.6006 8.2656 122.4756 8.1641 Q122.3506 8.0625 122.1631 8.0625 Q121.9287 8.0625 121.6475 8.1719 L121.5693 7.9062 L123.6006 7.0938 L123.9131 7.0938 ZM132.6426 11.4531 Q132.3613 12.7812 131.5723 13.4922 Q130.7832 14.2031 129.8301 14.2031 Q128.6895 14.2031 127.8379 13.2422 Q126.9863 12.2812 126.9863 10.6562 Q126.9863 9.0781 127.9238 8.0859 Q128.8613 7.0938 130.1895 7.0938 Q131.1738 7.0938 131.8145 7.6172 Q132.4551 8.1406 132.4551 8.7031 Q132.4551 8.9844 132.2754 9.1562 Q132.0957 9.3281 131.7676 9.3281 Q131.3301 9.3281 131.1113 9.0469 Q130.9863 8.8906 130.9473 8.4609 Q130.9082 8.0312 130.6582 7.7969 Q130.3926 7.5781 129.9395 7.5781 Q129.2051 7.5781 128.7676 8.125 Q128.1738 8.8438 128.1738 10.0156 Q128.1738 11.2188 128.7598 12.1406 Q129.3457 13.0625 130.3457 13.0625 Q131.0645 13.0625 131.6426 12.5781 Q132.0488 12.2344 132.4238 11.3438 L132.6426 11.4531 ZM134.7222 9.8125 Q134.7222 11.3125 135.4565 12.1562 Q136.1753 13.0156 137.1753 13.0156 Q137.8315 13.0156 138.3159 12.6484 Q138.8003 12.2812 139.1284 11.4062 L139.3628 11.5469 Q139.2065 12.5625 138.4644 13.3828 Q137.7222 14.2031 136.6128 14.2031 Q135.4097 14.2031 134.5503 13.2656 Q133.6909 12.3281 133.6909 10.7344 Q133.6909 9.0156 134.5737 8.0469 Q135.4565 7.0781 136.7847 7.0781 Q137.9097 7.0781 138.6362 7.8281 Q139.3628 8.5781 139.3628 9.8125 L134.7222 9.8125 ZM134.7222 9.3906 L137.8315 9.3906 Q137.8003 8.75 137.6753 8.4844 Q137.4878 8.0781 137.1284 7.8438 Q136.769 7.6094 136.3784 7.6094 Q135.769 7.6094 135.2847 8.0781 Q134.8003 8.5469 134.7222 9.3906 ZM146.0049 8.5156 Q146.7236 7.7812 146.8643 7.6719 Q147.1924 7.4062 147.5752 7.25 Q147.958 7.0938 148.333 7.0938 Q148.958 7.0938 149.4111 7.4609 Q149.8643 7.8281 150.0205 8.5156 Q150.7705 7.6406 151.2939 7.3672 Q151.8174 7.0938 152.3643 7.0938 Q152.8955 7.0938 153.3096 7.3672 Q153.7236 7.6406 153.9736 8.2656 Q154.1299 8.6875 154.1299 9.5938 L154.1299 12.4844 Q154.1299 13.1094 154.2236 13.3438 Q154.3018 13.5156 154.4971 13.625 Q154.6924 13.7344 155.1455 13.7344 L155.1455 14 L151.833 14 L151.833 13.7344 L151.9736 13.7344 Q152.3955 13.7344 152.6455 13.5625 Q152.8018 13.4531 152.8799 13.1875 Q152.9111 13.0625 152.9111 12.4844 L152.9111 9.5938 Q152.9111 8.7812 152.708 8.4375 Q152.4268 7.9688 151.8018 7.9688 Q151.4111 7.9688 151.0205 8.1641 Q150.6299 8.3594 150.0674 8.8906 L150.0518 8.9688 L150.0674 9.2812 L150.0674 12.4844 Q150.0674 13.1719 150.1455 13.3438 Q150.2236 13.5156 150.4346 13.625 Q150.6455 13.7344 151.1611 13.7344 L151.1611 14 L147.7705 14 L147.7705 13.7344 Q148.333 13.7344 148.5361 13.6016 Q148.7393 13.4688 148.8174 13.2031 Q148.8643 13.0781 148.8643 12.4844 L148.8643 9.5938 Q148.8643 8.7812 148.6143 8.4219 Q148.3018 7.9531 147.7236 7.9531 Q147.3174 7.9531 146.9424 8.1562 Q146.333 8.4844 146.0049 8.8906 L146.0049 12.4844 Q146.0049 13.1406 146.0908 13.3359 Q146.1768 13.5312 146.3564 13.6328 Q146.5361 13.7344 147.083 13.7344 L147.083 14 L143.7705 14 L143.7705 13.7344 Q144.2393 13.7344 144.4189 13.6328 Q144.5986 13.5312 144.6924 13.3203 Q144.7861 13.1094 144.7861 12.4844 L144.7861 9.9219 Q144.7861 8.8125 144.7236 8.4844 Q144.6768 8.25 144.5674 8.1562 Q144.458 8.0625 144.2549 8.0625 Q144.0518 8.0625 143.7705 8.1719 L143.6611 7.9062 L145.6768 7.0938 L146.0049 7.0938 L146.0049 8.5156 ZM158.9536 7.0938 Q160.4849 7.0938 161.4067 8.25 Q162.188 9.2344 162.188 10.5156 Q162.188 11.4219 161.7505 12.3438 Q161.313 13.2656 160.5552 13.7344 Q159.7974 14.2031 158.8755 14.2031 Q157.3599 14.2031 156.4692 13 Q155.7036 11.9844 155.7036 10.7188 Q155.7036 9.7812 156.1646 8.875 Q156.6255 7.9688 157.3755 7.5312 Q158.1255 7.0938 158.9536 7.0938 ZM158.7192 7.5625 Q158.3442 7.5625 157.9458 7.7969 Q157.5474 8.0312 157.313 8.6094 Q157.0786 9.1875 157.0786 10.0938 Q157.0786 11.5625 157.6567 12.625 Q158.2349 13.6875 159.188 13.6875 Q159.8911 13.6875 160.3599 13.1016 Q160.8286 12.5156 160.8286 11.0781 Q160.8286 9.2969 160.0474 8.2656 Q159.5317 7.5625 158.7192 7.5625 ZM167.9067 13.25 Q167.4224 13.7656 166.9536 13.9844 Q166.4849 14.2031 165.938 14.2031 Q164.8442 14.2031 164.0239 13.2812 Q163.2036 12.3594 163.2036 10.9219 Q163.2036 9.4844 164.1099 8.2812 Q165.0161 7.0781 166.4536 7.0781 Q167.3286 7.0781 167.9067 7.6562 L167.9067 6.4062 Q167.9067 5.2656 167.8521 5 Q167.7974 4.7344 167.6802 4.6406 Q167.563 4.5469 167.3911 4.5469 Q167.2036 4.5469 166.8911 4.6562 L166.7974 4.4062 L168.7974 3.5781 L169.1255 3.5781 L169.1255 11.3438 Q169.1255 12.5156 169.1802 12.7812 Q169.2349 13.0469 169.3521 13.1484 Q169.4692 13.25 169.6255 13.25 Q169.8286 13.25 170.1567 13.125 L170.2349 13.375 L168.2505 14.2031 L167.9067 14.2031 L167.9067 13.25 ZM167.9067 12.7344 L167.9067 9.2812 Q167.8599 8.7812 167.6411 8.3672 Q167.4224 7.9531 167.063 7.75 Q166.7036 7.5469 166.3599 7.5469 Q165.7192 7.5469 165.2036 8.125 Q164.5474 8.875 164.5474 10.3438 Q164.5474 11.8281 165.188 12.6172 Q165.8286 13.4062 166.6255 13.4062 Q167.2817 13.4062 167.9067 12.7344 ZM171.7974 9.8125 Q171.7974 11.3125 172.5317 12.1562 Q173.2505 13.0156 174.2505 13.0156 Q174.9067 13.0156 175.3911 12.6484 Q175.8755 12.2812 176.2036 11.4062 L176.438 11.5469 Q176.2817 12.5625 175.5396 13.3828 Q174.7974 14.2031 173.688 14.2031 Q172.4849 14.2031 171.6255 13.2656 Q170.7661 12.3281 170.7661 10.7344 Q170.7661 9.0156 171.6489 8.0469 Q172.5317 7.0781 173.8599 7.0781 Q174.9849 7.0781 175.7114 7.8281 Q176.438 8.5781 176.438 9.8125 L171.7974 9.8125 ZM171.7974 9.3906 L174.9067 9.3906 Q174.8755 8.75 174.7505 8.4844 Q174.563 8.0781 174.2036 7.8438 Q173.8442 7.6094 173.4536 7.6094 Q172.8442 7.6094 172.3599 8.0781 Q171.8755 8.5469 171.7974 9.3906 ZM179.6426 3.5781 L179.6426 12.4844 Q179.6426 13.1094 179.7285 13.3203 Q179.8145 13.5312 180.0098 13.6328 Q180.2051 13.7344 180.7207 13.7344 L180.7207 14 L177.4395 14 L177.4395 13.7344 Q177.8926 13.7344 178.0645 13.6406 Q178.2363 13.5469 178.3301 13.3281 Q178.4238 13.1094 178.4238 12.4844 L178.4238 6.3906 Q178.4238 5.25 178.3691 4.9922 Q178.3145 4.7344 178.2051 4.6406 Q178.0957 4.5469 177.9238 4.5469 Q177.7207 4.5469 177.4395 4.6562 L177.3145 4.4062 L179.3145 3.5781 L179.6426 3.5781 ZM185.3882 10.0781 L189.1694 10.0781 L189.1694 11.1875 L185.3882 11.1875 L185.3882 10.0781 ZM193.7739 14 L193.7739 13.7344 L194.1489 13.7344 Q194.7896 13.7344 195.0552 13.3281 Q195.2114 13.0781 195.2114 12.2344 L195.2114 5.8281 Q195.2114 4.8906 195.0083 4.6562 Q194.7114 4.3438 194.1489 4.3438 L193.7739 4.3438 L193.7739 4.0625 L197.8208 4.0625 Q200.0552 4.0625 201.2114 4.5703 Q202.3677 5.0781 203.0786 6.2578 Q203.7896 7.4375 203.7896 8.9844 Q203.7896 11.0625 202.5239 12.4531 Q201.1177 14 198.2114 14 L193.7739 14 ZM196.6177 13.2812 Q197.5396 13.4844 198.1802 13.4844 Q199.8677 13.4844 200.9927 12.2891 Q202.1177 11.0938 202.1177 9.0625 Q202.1177 7 200.9927 5.8125 Q199.8677 4.625 198.1177 4.625 Q197.4614 4.625 196.6177 4.8438 L196.6177 13.2812 ZM206.5283 3.5781 Q206.8408 3.5781 207.0596 3.7969 Q207.2783 4.0156 207.2783 4.3281 Q207.2783 4.625 207.0596 4.8516 Q206.8408 5.0781 206.5283 5.0781 Q206.2314 5.0781 206.0049 4.8516 Q205.7783 4.625 205.7783 4.3281 Q205.7783 4.0156 205.9971 3.7969 Q206.2158 3.5781 206.5283 3.5781 ZM207.1377 7.0938 L207.1377 12.4844 Q207.1377 13.1094 207.2314 13.3203 Q207.3252 13.5312 207.5049 13.6328 Q207.6846 13.7344 208.1533 13.7344 L208.1533 14 L204.9033 14 L204.9033 13.7344 Q205.3877 13.7344 205.5596 13.6406 Q205.7314 13.5469 205.8252 13.3281 Q205.9189 13.1094 205.9189 12.4844 L205.9189 9.8906 Q205.9189 8.8125 205.8564 8.4844 Q205.8096 8.25 205.7002 8.1562 Q205.5908 8.0625 205.4033 8.0625 Q205.1846 8.0625 204.9033 8.1719 L204.7939 7.9062 L206.8252 7.0938 L207.1377 7.0938 ZM210.9927 8.5156 Q211.7114 7.7812 211.8521 7.6719 Q212.1802 7.4062 212.563 7.25 Q212.9458 7.0938 213.3208 7.0938 Q213.9458 7.0938 214.3989 7.4609 Q214.8521 7.8281 215.0083 8.5156 Q215.7583 7.6406 216.2817 7.3672 Q216.8052 7.0938 217.3521 7.0938 Q217.8833 7.0938 218.2974 7.3672 Q218.7114 7.6406 218.9614 8.2656 Q219.1177 8.6875 219.1177 9.5938 L219.1177 12.4844 Q219.1177 13.1094 219.2114 13.3438 Q219.2896 13.5156 219.4849 13.625 Q219.6802 13.7344 220.1333 13.7344 L220.1333 14 L216.8208 14 L216.8208 13.7344 L216.9614 13.7344 Q217.3833 13.7344 217.6333 13.5625 Q217.7896 13.4531 217.8677 13.1875 Q217.8989 13.0625 217.8989 12.4844 L217.8989 9.5938 Q217.8989 8.7812 217.6958 8.4375 Q217.4146 7.9688 216.7896 7.9688 Q216.3989 7.9688 216.0083 8.1641 Q215.6177 8.3594 215.0552 8.8906 L215.0396 8.9688 L215.0552 9.2812 L215.0552 12.4844 Q215.0552 13.1719 215.1333 13.3438 Q215.2114 13.5156 215.4224 13.625 Q215.6333 13.7344 216.1489 13.7344 L216.1489 14 L212.7583 14 L212.7583 13.7344 Q213.3208 13.7344 213.5239 13.6016 Q213.7271 13.4688 213.8052 13.2031 Q213.8521 13.0781 213.8521 12.4844 L213.8521 9.5938 Q213.8521 8.7812 213.6021 8.4219 Q213.2896 7.9531 212.7114 7.9531 Q212.3052 7.9531 211.9302 8.1562 Q211.3208 8.4844 210.9927 8.8906 L210.9927 12.4844 Q210.9927 13.1406 211.0786 13.3359 Q211.1646 13.5312 211.3442 13.6328 Q211.5239 13.7344 212.0708 13.7344 L212.0708 14 L208.7583 14 L208.7583 13.7344 Q209.2271 13.7344 209.4067 13.6328 Q209.5864 13.5312 209.6802 13.3203 Q209.7739 13.1094 209.7739 12.4844 L209.7739 9.9219 Q209.7739 8.8125 209.7114 8.4844 Q209.6646 8.25 209.5552 8.1562 Q209.4458 8.0625 209.2427 8.0625 Q209.0396 8.0625 208.7583 8.1719 L208.6489 7.9062 L210.6646 7.0938 L210.9927 7.0938 L210.9927 8.5156 ZM224.457 13.0312 Q223.4258 13.8281 223.1602 13.9531 Q222.7695 14.1406 222.3164 14.1406 Q221.6289 14.1406 221.1758 13.6641 Q220.7227 13.1875 220.7227 12.4062 Q220.7227 11.9219 220.9414 11.5625 Q221.2539 11.0625 221.9961 10.625 Q222.7383 10.1875 224.457 9.5469 L224.457 9.2969 Q224.457 8.2812 224.1445 7.9141 Q223.832 7.5469 223.2227 7.5469 Q222.7539 7.5469 222.4883 7.7812 Q222.207 8.0312 222.207 8.3594 L222.2227 8.7812 Q222.2227 9.125 222.0508 9.3047 Q221.8789 9.4844 221.5977 9.4844 Q221.332 9.4844 221.1602 9.2969 Q220.9883 9.1094 220.9883 8.7812 Q220.9883 8.1406 221.6289 7.6172 Q222.2695 7.0938 223.4414 7.0938 Q224.332 7.0938 224.8945 7.3906 Q225.332 7.625 225.5352 8.1094 Q225.6758 8.4219 225.6758 9.3906 L225.6758 11.6719 Q225.6758 12.625 225.707 12.8438 Q225.7383 13.0625 225.8242 13.1328 Q225.9102 13.2031 226.0195 13.2031 Q226.1445 13.2031 226.2227 13.1562 Q226.3789 13.0625 226.8164 12.625 L226.8164 13.0312 Q226.0039 14.125 225.2539 14.125 Q224.8945 14.125 224.6836 13.8828 Q224.4727 13.6406 224.457 13.0312 ZM224.457 12.5625 L224.457 10 Q223.3633 10.4375 223.0352 10.625 Q222.457 10.9531 222.207 11.3047 Q221.957 11.6562 221.957 12.0625 Q221.957 12.5938 222.2695 12.9453 Q222.582 13.2969 223.0039 13.2969 Q223.5508 13.2969 224.457 12.5625 ZM231.6616 7.0938 L231.6616 9.375 L231.4116 9.375 Q231.1304 8.2969 230.6929 7.9141 Q230.2554 7.5312 229.5835 7.5312 Q229.0835 7.5312 228.7632 7.7969 Q228.4429 8.0625 228.4429 8.3906 Q228.4429 8.8125 228.6772 9.0938 Q228.9116 9.4062 229.5991 9.7344 L230.6772 10.25 Q232.1616 10.9844 232.1616 12.1719 Q232.1616 13.0781 231.4663 13.6406 Q230.771 14.2031 229.9116 14.2031 Q229.3022 14.2031 228.5054 13.9844 Q228.271 13.9062 228.1147 13.9062 Q227.9429 13.9062 227.8491 14.1094 L227.6147 14.1094 L227.6147 11.7031 L227.8491 11.7031 Q228.0522 12.7344 228.6304 13.25 Q229.2085 13.7656 229.9272 13.7656 Q230.4429 13.7656 230.7554 13.4688 Q231.0679 13.1719 231.0679 12.7656 Q231.0679 12.25 230.7163 11.9062 Q230.3647 11.5625 229.3022 11.0391 Q228.2397 10.5156 227.9116 10.0938 Q227.5835 9.6719 227.5835 9.0312 Q227.5835 8.2031 228.1538 7.6484 Q228.7241 7.0938 229.6147 7.0938 Q230.021 7.0938 230.5835 7.2656 Q230.9585 7.375 231.0679 7.375 Q231.1929 7.375 231.2554 7.3203 Q231.3179 7.2656 231.4116 7.0938 L231.6616 7.0938 ZM235.1084 5.0938 L235.1084 7.2969 L236.6709 7.2969 L236.6709 7.7969 L235.1084 7.7969 L235.1084 12.1562 Q235.1084 12.8125 235.2959 13.0391 Q235.4834 13.2656 235.7646 13.2656 Q236.0146 13.2656 236.2412 13.1094 Q236.4678 12.9531 236.5928 12.6719 L236.874 12.6719 Q236.624 13.3906 236.1553 13.75 Q235.6865 14.1094 235.1865 14.1094 Q234.8428 14.1094 234.5225 13.9219 Q234.2021 13.7344 234.0459 13.3906 Q233.8896 13.0469 233.8896 12.3125 L233.8896 7.7969 L232.8271 7.7969 L232.8271 7.5625 Q233.2334 7.4062 233.6553 7.0156 Q234.0771 6.625 234.4053 6.1094 Q234.5771 5.8281 234.874 5.0938 L235.1084 5.0938 ZM239.2915 7.0938 L239.2915 8.6094 Q240.1353 7.0938 241.0103 7.0938 Q241.4165 7.0938 241.6821 7.3359 Q241.9478 7.5781 241.9478 7.9062 Q241.9478 8.1875 241.7524 8.3906 Q241.5571 8.5938 241.3071 8.5938 Q241.0415 8.5938 240.7212 8.3359 Q240.4009 8.0781 240.2603 8.0781 Q240.1196 8.0781 239.9634 8.2344 Q239.6353 8.5312 239.2915 9.2188 L239.2915 12.4375 Q239.2915 12.9844 239.4321 13.2812 Q239.5259 13.4688 239.7681 13.6016 Q240.0103 13.7344 240.4634 13.7344 L240.4634 14 L237.0259 14 L237.0259 13.7344 Q237.5415 13.7344 237.7915 13.5781 Q237.9634 13.4531 238.0415 13.2031 Q238.0728 13.0781 238.0728 12.4844 L238.0728 9.8906 Q238.0728 8.7188 238.0259 8.4922 Q237.979 8.2656 237.854 8.1641 Q237.729 8.0625 237.5415 8.0625 Q237.3071 8.0625 237.0259 8.1719 L236.9478 7.9062 L238.979 7.0938 L239.2915 7.0938 ZM245.5991 7.0938 Q247.1304 7.0938 248.0522 8.25 Q248.8335 9.2344 248.8335 10.5156 Q248.8335 11.4219 248.396 12.3438 Q247.9585 13.2656 247.2007 13.7344 Q246.4429 14.2031 245.521 14.2031 Q244.0054 14.2031 243.1147 13 Q242.3491 11.9844 242.3491 10.7188 Q242.3491 9.7812 242.8101 8.875 Q243.271 7.9688 244.021 7.5312 Q244.771 7.0938 245.5991 7.0938 ZM245.3647 7.5625 Q244.9897 7.5625 244.5913 7.7969 Q244.1929 8.0312 243.9585 8.6094 Q243.7241 9.1875 243.7241 10.0938 Q243.7241 11.5625 244.3022 12.625 Q244.8804 13.6875 245.8335 13.6875 Q246.5366 13.6875 247.0054 13.1016 Q247.4741 12.5156 247.4741 11.0781 Q247.4741 9.2969 246.6929 8.2656 Q246.1772 7.5625 245.3647 7.5625 ZM251.6147 11.5469 Q250.9897 11.25 250.6616 10.7109 Q250.3335 10.1719 250.3335 9.5312 Q250.3335 8.5312 251.0835 7.8125 Q251.8335 7.0938 253.0054 7.0938 Q253.9741 7.0938 254.6772 7.5625 L256.0991 7.5625 Q256.4116 7.5625 256.4585 7.5781 Q256.5054 7.5938 256.5366 7.6406 Q256.5835 7.7031 256.5835 7.875 Q256.5835 8.0625 256.5366 8.1406 Q256.521 8.1719 256.4663 8.1953 Q256.4116 8.2188 256.0991 8.2188 L255.2241 8.2188 Q255.6304 8.75 255.6304 9.5625 Q255.6304 10.5 254.9116 11.1719 Q254.1929 11.8438 252.9897 11.8438 Q252.4897 11.8438 251.9741 11.6875 Q251.646 11.9688 251.5366 12.1797 Q251.4272 12.3906 251.4272 12.5312 Q251.4272 12.6562 251.5444 12.7734 Q251.6616 12.8906 252.021 12.9375 Q252.2241 12.9688 253.0366 13 Q254.5522 13.0312 254.9897 13.0938 Q255.6772 13.1875 256.0835 13.6016 Q256.4897 14.0156 256.4897 14.6094 Q256.4897 15.4375 255.7085 16.1719 Q254.5679 17.2344 252.7397 17.2344 Q251.3179 17.2344 250.3491 16.5938 Q249.8022 16.2344 249.8022 15.8438 Q249.8022 15.6562 249.8804 15.4844 Q250.0054 15.2188 250.396 14.7344 Q250.4429 14.6719 251.1304 13.9375 Q250.7554 13.7188 250.5991 13.5391 Q250.4429 13.3594 250.4429 13.125 Q250.4429 12.875 250.6538 12.5312 Q250.8647 12.1875 251.6147 11.5469 ZM252.8804 7.4375 Q252.3491 7.4375 251.9819 7.875 Q251.6147 8.3125 251.6147 9.2031 Q251.6147 10.3594 252.1147 11 Q252.4897 11.4844 253.0835 11.4844 Q253.6304 11.4844 253.9897 11.0625 Q254.3491 10.6406 254.3491 9.75 Q254.3491 8.5938 253.8491 7.9219 Q253.4741 7.4375 252.8804 7.4375 ZM251.5366 14 Q251.1929 14.375 251.021 14.6953 Q250.8491 15.0156 250.8491 15.2969 Q250.8491 15.6406 251.271 15.9062 Q252.0054 16.3594 253.3804 16.3594 Q254.7085 16.3594 255.3335 15.8906 Q255.9585 15.4219 255.9585 14.9062 Q255.9585 14.5156 255.5835 14.3594 Q255.2085 14.2031 254.0679 14.1719 Q252.4272 14.125 251.5366 14 ZM259.021 3.5781 Q259.3335 3.5781 259.5522 3.7969 Q259.771 4.0156 259.771 4.3281 Q259.771 4.625 259.5522 4.8516 Q259.3335 5.0781 259.021 5.0781 Q258.7241 5.0781 258.4976 4.8516 Q258.271 4.625 258.271 4.3281 Q258.271 4.0156 258.4897 3.7969 Q258.7085 3.5781 259.021 3.5781 ZM259.6304 7.0938 L259.6304 12.4844 Q259.6304 13.1094 259.7241 13.3203 Q259.8179 13.5312 259.9976 13.6328 Q260.1772 13.7344 260.646 13.7344 L260.646 14 L257.396 14 L257.396 13.7344 Q257.8804 13.7344 258.0522 13.6406 Q258.2241 13.5469 258.3179 13.3281 Q258.4116 13.1094 258.4116 12.4844 L258.4116 9.8906 Q258.4116 8.8125 258.3491 8.4844 Q258.3022 8.25 258.1929 8.1562 Q258.0835 8.0625 257.896 8.0625 Q257.6772 8.0625 257.396 8.1719 L257.2866 7.9062 L259.3179 7.0938 L259.6304 7.0938 ZM264.7666 7.0938 Q266.2979 7.0938 267.2197 8.25 Q268.001 9.2344 268.001 10.5156 Q268.001 11.4219 267.5635 12.3438 Q267.126 13.2656 266.3682 13.7344 Q265.6104 14.2031 264.6885 14.2031 Q263.1729 14.2031 262.2822 13 Q261.5166 11.9844 261.5166 10.7188 Q261.5166 9.7812 261.9775 8.875 Q262.4385 7.9688 263.1885 7.5312 Q263.9385 7.0938 264.7666 7.0938 ZM264.5322 7.5625 Q264.1572 7.5625 263.7588 7.7969 Q263.3604 8.0312 263.126 8.6094 Q262.8916 9.1875 262.8916 10.0938 Q262.8916 11.5625 263.4697 12.625 Q264.0479 13.6875 265.001 13.6875 Q265.7041 13.6875 266.1729 13.1016 Q266.6416 12.5156 266.6416 11.0781 Q266.6416 9.2969 265.8604 8.2656 Q265.3447 7.5625 264.5322 7.5625 ZM268.6416 7.2969 L271.7979 7.2969 L271.7979 7.5625 L271.5947 7.5625 Q271.3135 7.5625 271.1572 7.7031 Q271.001 7.8438 271.001 8.0781 Q271.001 8.3281 271.1572 8.6875 L272.7197 12.3906 L274.2822 8.5469 Q274.4541 8.1406 274.4541 7.9219 Q274.4541 7.8125 274.3916 7.75 Q274.3135 7.6406 274.1885 7.6016 Q274.0635 7.5625 273.6885 7.5625 L273.6885 7.2969 L275.876 7.2969 L275.876 7.5625 Q275.501 7.5938 275.3447 7.7188 Q275.0947 7.9375 274.8916 8.4531 L272.501 14.2031 L272.2041 14.2031 L269.8135 8.5469 Q269.6572 8.1406 269.5088 7.9688 Q269.3604 7.7969 269.126 7.6875 Q269.001 7.625 268.6416 7.5625 L268.6416 7.2969 ZM280.2822 13.0312 Q279.251 13.8281 278.9854 13.9531 Q278.5947 14.1406 278.1416 14.1406 Q277.4541 14.1406 277.001 13.6641 Q276.5479 13.1875 276.5479 12.4062 Q276.5479 11.9219 276.7666 11.5625 Q277.0791 11.0625 277.8213 10.625 Q278.5635 10.1875 280.2822 9.5469 L280.2822 9.2969 Q280.2822 8.2812 279.9697 7.9141 Q279.6572 7.5469 279.0479 7.5469 Q278.5791 7.5469 278.3135 7.7812 Q278.0322 8.0312 278.0322 8.3594 L278.0479 8.7812 Q278.0479 9.125 277.876 9.3047 Q277.7041 9.4844 277.4229 9.4844 Q277.1572 9.4844 276.9854 9.2969 Q276.8135 9.1094 276.8135 8.7812 Q276.8135 8.1406 277.4541 7.6172 Q278.0947 7.0938 279.2666 7.0938 Q280.1572 7.0938 280.7197 7.3906 Q281.1572 7.625 281.3604 8.1094 Q281.501 8.4219 281.501 9.3906 L281.501 11.6719 Q281.501 12.625 281.5322 12.8438 Q281.5635 13.0625 281.6494 13.1328 Q281.7354 13.2031 281.8447 13.2031 Q281.9697 13.2031 282.0479 13.1562 Q282.2041 13.0625 282.6416 12.625 L282.6416 13.0312 Q281.8291 14.125 281.0791 14.125 Q280.7197 14.125 280.5088 13.8828 Q280.2979 13.6406 280.2822 13.0312 ZM280.2822 12.5625 L280.2822 10 Q279.1885 10.4375 278.8604 10.625 Q278.2822 10.9531 278.0322 11.3047 Q277.7822 11.6562 277.7822 12.0625 Q277.7822 12.5938 278.0947 12.9453 Q278.4072 13.2969 278.8291 13.2969 Q279.376 13.2969 280.2822 12.5625 ZM285.0962 8.5156 Q286.2837 7.0938 287.3462 7.0938 Q287.8931 7.0938 288.2915 7.3672 Q288.6899 7.6406 288.9243 8.2656 Q289.0806 8.7188 289.0806 9.625 L289.0806 12.4844 Q289.0806 13.125 289.1899 13.3438 Q289.2681 13.5312 289.4478 13.6328 Q289.6274 13.7344 290.1118 13.7344 L290.1118 14 L286.7837 14 L286.7837 13.7344 L286.9243 13.7344 Q287.3931 13.7344 287.5806 13.5938 Q287.7681 13.4531 287.8462 13.1719 Q287.8774 13.0625 287.8774 12.4844 L287.8774 9.7344 Q287.8774 8.8281 287.6353 8.4141 Q287.3931 8 286.8306 8 Q285.9556 8 285.0962 8.9531 L285.0962 12.4844 Q285.0962 13.1719 285.1743 13.3281 Q285.2837 13.5312 285.4634 13.6328 Q285.6431 13.7344 286.1899 13.7344 L286.1899 14 L282.8774 14 L282.8774 13.7344 L283.0181 13.7344 Q283.5337 13.7344 283.7134 13.4766 Q283.8931 13.2188 283.8931 12.4844 L283.8931 10 Q283.8931 8.7812 283.8384 8.5156 Q283.7837 8.25 283.6665 8.1562 Q283.5493 8.0625 283.3618 8.0625 Q283.1587 8.0625 282.8774 8.1719 L282.7681 7.9062 L284.7837 7.0938 L285.0962 7.0938 L285.0962 8.5156 ZM292.5962 8.5156 Q293.7837 7.0938 294.8462 7.0938 Q295.3931 7.0938 295.7915 7.3672 Q296.1899 7.6406 296.4243 8.2656 Q296.5806 8.7188 296.5806 9.625 L296.5806 12.4844 Q296.5806 13.125 296.6899 13.3438 Q296.7681 13.5312 296.9478 13.6328 Q297.1274 13.7344 297.6118 13.7344 L297.6118 14 L294.2837 14 L294.2837 13.7344 L294.4243 13.7344 Q294.8931 13.7344 295.0806 13.5938 Q295.2681 13.4531 295.3462 13.1719 Q295.3774 13.0625 295.3774 12.4844 L295.3774 9.7344 Q295.3774 8.8281 295.1353 8.4141 Q294.8931 8 294.3306 8 Q293.4556 8 292.5962 8.9531 L292.5962 12.4844 Q292.5962 13.1719 292.6743 13.3281 Q292.7837 13.5312 292.9634 13.6328 Q293.1431 13.7344 293.6899 13.7344 L293.6899 14 L290.3774 14 L290.3774 13.7344 L290.5181 13.7344 Q291.0337 13.7344 291.2134 13.4766 Q291.3931 13.2188 291.3931 12.4844 L291.3931 10 Q291.3931 8.7812 291.3384 8.5156 Q291.2837 8.25 291.1665 8.1562 Q291.0493 8.0625 290.8618 8.0625 Q290.6587 8.0625 290.3774 8.1719 L290.2681 7.9062 L292.2837 7.0938 L292.5962 7.0938 L292.5962 8.5156 ZM299.8462 3.5781 Q300.1587 3.5781 300.3774 3.7969 Q300.5962 4.0156 300.5962 4.3281 Q300.5962 4.625 300.3774 4.8516 Q300.1587 5.0781 299.8462 5.0781 Q299.5493 5.0781 299.3228 4.8516 Q299.0962 4.625 299.0962 4.3281 Q299.0962 4.0156 299.3149 3.7969 Q299.5337 3.5781 299.8462 3.5781 ZM300.4556 7.0938 L300.4556 12.4844 Q300.4556 13.1094 300.5493 13.3203 Q300.6431 13.5312 300.8228 13.6328 Q301.0024 13.7344 301.4712 13.7344 L301.4712 14 L298.2212 14 L298.2212 13.7344 Q298.7056 13.7344 298.8774 13.6406 Q299.0493 13.5469 299.1431 13.3281 Q299.2368 13.1094 299.2368 12.4844 L299.2368 9.8906 Q299.2368 8.8125 299.1743 8.4844 Q299.1274 8.25 299.0181 8.1562 Q298.9087 8.0625 298.7212 8.0625 Q298.5024 8.0625 298.2212 8.1719 L298.1118 7.9062 L300.1431 7.0938 L300.4556 7.0938 ZM305.5762 7.9531 L307.6387 7.125 L307.9199 7.125 L307.9199 8.6875 Q308.4355 7.7969 308.959 7.4453 Q309.4824 7.0938 310.0605 7.0938 Q311.0762 7.0938 311.748 7.8906 Q312.5762 8.8438 312.5762 10.4062 Q312.5762 12.1406 311.5762 13.2812 Q310.7637 14.2031 309.5137 14.2031 Q308.9824 14.2031 308.5762 14.0469 Q308.2949 13.9375 307.9199 13.6094 L307.9199 15.6562 Q307.9199 16.3438 308.0059 16.5312 Q308.0918 16.7188 308.3027 16.8281 Q308.5137 16.9375 309.0605 16.9375 L309.0605 17.2031 L305.5449 17.2031 L305.5449 16.9375 L305.7168 16.9375 Q306.123 16.9375 306.4199 16.7812 Q306.5449 16.7031 306.623 16.5234 Q306.7012 16.3438 306.7012 15.6094 L306.7012 9.2656 Q306.7012 8.6094 306.6465 8.4375 Q306.5918 8.2656 306.459 8.1797 Q306.3262 8.0938 306.1074 8.0938 Q305.9355 8.0938 305.6699 8.1875 L305.5762 7.9531 ZM307.9199 9.125 L307.9199 11.625 Q307.9199 12.4375 307.9824 12.7031 Q308.0918 13.125 308.4902 13.4453 Q308.8887 13.7656 309.498 13.7656 Q310.2324 13.7656 310.6855 13.1875 Q311.2793 12.4531 311.2793 11.0938 Q311.2793 9.5469 310.6074 8.7188 Q310.1387 8.1562 309.4824 8.1562 Q309.1387 8.1562 308.7949 8.3281 Q308.5293 8.4688 307.9199 9.125 ZM317.3574 13.0312 Q316.3262 13.8281 316.0605 13.9531 Q315.6699 14.1406 315.2168 14.1406 Q314.5293 14.1406 314.0762 13.6641 Q313.623 13.1875 313.623 12.4062 Q313.623 11.9219 313.8418 11.5625 Q314.1543 11.0625 314.8965 10.625 Q315.6387 10.1875 317.3574 9.5469 L317.3574 9.2969 Q317.3574 8.2812 317.0449 7.9141 Q316.7324 7.5469 316.123 7.5469 Q315.6543 7.5469 315.3887 7.7812 Q315.1074 8.0312 315.1074 8.3594 L315.123 8.7812 Q315.123 9.125 314.9512 9.3047 Q314.7793 9.4844 314.498 9.4844 Q314.2324 9.4844 314.0605 9.2969 Q313.8887 9.1094 313.8887 8.7812 Q313.8887 8.1406 314.5293 7.6172 Q315.1699 7.0938 316.3418 7.0938 Q317.2324 7.0938 317.7949 7.3906 Q318.2324 7.625 318.4355 8.1094 Q318.5762 8.4219 318.5762 9.3906 L318.5762 11.6719 Q318.5762 12.625 318.6074 12.8438 Q318.6387 13.0625 318.7246 13.1328 Q318.8105 13.2031 318.9199 13.2031 Q319.0449 13.2031 319.123 13.1562 Q319.2793 13.0625 319.7168 12.625 L319.7168 13.0312 Q318.9043 14.125 318.1543 14.125 Q317.7949 14.125 317.584 13.8828 Q317.373 13.6406 317.3574 13.0312 ZM317.3574 12.5625 L317.3574 10 Q316.2637 10.4375 315.9355 10.625 Q315.3574 10.9531 315.1074 11.3047 Q314.8574 11.6562 314.8574 12.0625 Q314.8574 12.5938 315.1699 12.9453 Q315.4824 13.2969 315.9043 13.2969 Q316.4512 13.2969 317.3574 12.5625 ZM319.7339 7.9531 L321.7964 7.125 L322.0776 7.125 L322.0776 8.6875 Q322.5933 7.7969 323.1167 7.4453 Q323.6401 7.0938 324.2183 7.0938 Q325.2339 7.0938 325.9058 7.8906 Q326.7339 8.8438 326.7339 10.4062 Q326.7339 12.1406 325.7339 13.2812 Q324.9214 14.2031 323.6714 14.2031 Q323.1401 14.2031 322.7339 14.0469 Q322.4526 13.9375 322.0776 13.6094 L322.0776 15.6562 Q322.0776 16.3438 322.1636 16.5312 Q322.2495 16.7188 322.4604 16.8281 Q322.6714 16.9375 323.2183 16.9375 L323.2183 17.2031 L319.7026 17.2031 L319.7026 16.9375 L319.8745 16.9375 Q320.2808 16.9375 320.5776 16.7812 Q320.7026 16.7031 320.7808 16.5234 Q320.8589 16.3438 320.8589 15.6094 L320.8589 9.2656 Q320.8589 8.6094 320.8042 8.4375 Q320.7495 8.2656 320.6167 8.1797 Q320.4839 8.0938 320.2651 8.0938 Q320.0933 8.0938 319.8276 8.1875 L319.7339 7.9531 ZM322.0776 9.125 L322.0776 11.625 Q322.0776 12.4375 322.1401 12.7031 Q322.2495 13.125 322.6479 13.4453 Q323.0464 13.7656 323.6558 13.7656 Q324.3901 13.7656 324.8433 13.1875 Q325.437 12.4531 325.437 11.0938 Q325.437 9.5469 324.7651 8.7188 Q324.2964 8.1562 323.6401 8.1562 Q323.2964 8.1562 322.9526 8.3281 Q322.687 8.4688 322.0776 9.125 ZM328.8433 9.8125 Q328.8433 11.3125 329.5776 12.1562 Q330.2964 13.0156 331.2964 13.0156 Q331.9526 13.0156 332.437 12.6484 Q332.9214 12.2812 333.2495 11.4062 L333.4839 11.5469 Q333.3276 12.5625 332.5854 13.3828 Q331.8433 14.2031 330.7339 14.2031 Q329.5308 14.2031 328.6714 13.2656 Q327.812 12.3281 327.812 10.7344 Q327.812 9.0156 328.6948 8.0469 Q329.5776 7.0781 330.9058 7.0781 Q332.0308 7.0781 332.7573 7.8281 Q333.4839 8.5781 333.4839 9.8125 L328.8433 9.8125 ZM328.8433 9.3906 L331.9526 9.3906 Q331.9214 8.75 331.7964 8.4844 Q331.6089 8.0781 331.2495 7.8438 Q330.8901 7.6094 330.4995 7.6094 Q329.8901 7.6094 329.4058 8.0781 Q328.9214 8.5469 328.8433 9.3906 ZM336.3447 7.0938 L336.3447 8.6094 Q337.1885 7.0938 338.0635 7.0938 Q338.4697 7.0938 338.7354 7.3359 Q339.001 7.5781 339.001 7.9062 Q339.001 8.1875 338.8057 8.3906 Q338.6104 8.5938 338.3604 8.5938 Q338.0947 8.5938 337.7744 8.3359 Q337.4541 8.0781 337.3135 8.0781 Q337.1729 8.0781 337.0166 8.2344 Q336.6885 8.5312 336.3447 9.2188 L336.3447 12.4375 Q336.3447 12.9844 336.4854 13.2812 Q336.5791 13.4688 336.8213 13.6016 Q337.0635 13.7344 337.5166 13.7344 L337.5166 14 L334.0791 14 L334.0791 13.7344 Q334.5947 13.7344 334.8447 13.5781 Q335.0166 13.4531 335.0947 13.2031 Q335.126 13.0781 335.126 12.4844 L335.126 9.8906 Q335.126 8.7188 335.0791 8.4922 Q335.0322 8.2656 334.9072 8.1641 Q334.7822 8.0625 334.5947 8.0625 Q334.3604 8.0625 334.0791 8.1719 L334.001 7.9062 L336.0322 7.0938 L336.3447 7.0938 Z"
                  style="stroke:none; clip-path:url(#clipPath29);"/>
        </g>
    </g>
</svg>
