<?xml version="1.0" encoding="UTF-8"?>
<!DOCTYPE svg PUBLIC '-//W3C//DTD SVG 1.0//EN'
    'http://www.w3.org/TR/2001/REC-SVG-20010904/DTD/svg10.dtd' >

<svg style="stroke-dasharray:none; shape-rendering:auto; font-family:'Dialog'; text-rendering:auto; fill-opacity:1; color-interpolation:auto; color-rendering:auto; font-size:12px; fill:black; stroke:black; image-rendering:auto; stroke-miterlimit:10; stroke-linecap:square; stroke-linejoin:miter; font-style:normal; stroke-width:1; stroke-dashoffset:0; font-weight:normal; stroke-opacity:1;"
     xmlns="http://www.w3.org/2000/svg" contentScriptType="text/ecmascript"
     preserveAspectRatio="xMidYMid meet"
     xmlns:xlink="http://www.w3.org/1999/xlink" zoomAndPan="magnify"
     version="1.0" contentStyleType="text/css">
    <!--Generated by the Batik Graphics2D SVG Generator-->
    <defs id="genericDefs"/>
    <g>
        <defs id="defs1">
            <clipPath clipPathUnits="userSpaceOnUse" id="clipPath1">
                <path d="M117 351 L303 351 L303 373 L117 373 L117 351 Z"/>
            </clipPath>
            <clipPath clipPathUnits="userSpaceOnUse" id="clipPath2">
                <path d="M120 354 L120 370 L213 370 L213 354 Z"/>
            </clipPath>
            <clipPath clipPathUnits="userSpaceOnUse" id="clipPath3">
                <path d="M-2 0 L-2 16 L91 16 L91 0 Z"/>
            </clipPath>
            <clipPath clipPathUnits="userSpaceOnUse" id="clipPath4">
                <path d="M0 0 L0 16 L93 16 L93 0 Z"/>
            </clipPath>
            <clipPath clipPathUnits="userSpaceOnUse" id="clipPath5">
                <path d="M37 0 L37 15 L92 15 L92 0 Z"/>
            </clipPath>
            <clipPath clipPathUnits="userSpaceOnUse" id="clipPath6">
                <path d="M212 354 L212 370 L301 370 L301 354 Z"/>
            </clipPath>
            <clipPath clipPathUnits="userSpaceOnUse" id="clipPath7">
                <path d="M-2 0 L-2 16 L87 16 L87 0 Z"/>
            </clipPath>
            <clipPath clipPathUnits="userSpaceOnUse" id="clipPath8">
                <path d="M0 0 L0 16 L89 16 L89 0 Z"/>
            </clipPath>
            <clipPath clipPathUnits="userSpaceOnUse" id="clipPath9">
                <path d="M37 0 L37 15 L88 15 L88 0 Z"/>
            </clipPath>
            <clipPath clipPathUnits="userSpaceOnUse" id="clipPath10">
                <path d="M0 0 L410 0 L410 321 L0 321 L0 0 Z"/>
            </clipPath>
            <clipPath clipPathUnits="userSpaceOnUse" id="clipPath11">
                <path d="M35 0 L35 289 L410 289 L410 0 Z"/>
            </clipPath>
            <clipPath clipPathUnits="userSpaceOnUse" id="clipPath12">
                <path d="M5 22 L415 22 L415 343 L5 343 L5 22 Z"/>
            </clipPath>
            <clipPath clipPathUnits="userSpaceOnUse" id="clipPath13">
                <path d="M0 0 L411 0 L411 18 L0 18 L0 0 Z"/>
            </clipPath>
            <clipPath clipPathUnits="userSpaceOnUse" id="clipPath14">
                <path d="M0 0 L411 0 L411 12 L0 12 L0 0 Z"/>
            </clipPath>
        </defs>
        <g style="stroke-linecap:butt; font-size:13px; fill:rgb(86,180,233); text-rendering:optimizeLegibility; image-rendering:optimizeQuality; color-rendering:optimizeQuality; font-family:'Times New Roman'; stroke-linejoin:round; stroke:rgb(86,180,233); color-interpolation:linearRGB; stroke-width:1.5;"
           transform="translate(122,354)">
            <path d="M0 7 L34 7" style="fill:none; clip-path:url(#clipPath3);"/>
        </g>
        <g transform="translate(120,354)"
           style="stroke-linecap:butt; font-size:13px; text-rendering:optimizeLegibility; image-rendering:optimizeQuality; color-rendering:optimizeQuality; font-family:'Times New Roman'; stroke-linejoin:round; color-interpolation:linearRGB; stroke-width:1.5;">
            <path d="M42.2188 12 L42.2188 11.7656 L42.5469 11.7656 Q43.0938 11.7656 43.3281 11.4219 Q43.4531 11.2031 43.4531 10.4688 L43.4531 4.9219 Q43.4531 4.1094 43.2812 3.9062 Q43.0312 3.625 42.5469 3.625 L42.2188 3.625 L42.2188 3.3906 L45.7188 3.3906 Q47.6562 3.3906 48.6641 3.8281 Q49.6719 4.2656 50.2812 5.2891 Q50.8906 6.3125 50.8906 7.6562 Q50.8906 9.4531 49.7969 10.6562 Q48.5781 12 46.0625 12 L42.2188 12 ZM44.6719 11.375 Q45.4844 11.5625 46.0312 11.5625 Q47.5 11.5625 48.4766 10.5234 Q49.4531 9.4844 49.4531 7.7188 Q49.4531 5.9375 48.4766 4.9062 Q47.5 3.875 45.9844 3.875 Q45.4062 3.875 44.6719 4.0625 L44.6719 11.375 ZM60.1694 12 L57.8726 12 L54.9663 7.9688 Q54.6382 7.9844 54.4351 7.9844 Q54.3569 7.9844 54.2632 7.9844 Q54.1694 7.9844 54.0601 7.9688 L54.0601 10.4688 Q54.0601 11.2812 54.2319 11.4844 Q54.4819 11.7656 54.9663 11.7656 L55.2944 11.7656 L55.2944 12 L51.6069 12 L51.6069 11.7656 L51.9351 11.7656 Q52.4819 11.7656 52.7163 11.4062 Q52.8413 11.2188 52.8413 10.4688 L52.8413 4.9219 Q52.8413 4.1094 52.6694 3.9062 Q52.4194 3.625 51.9351 3.625 L51.6069 3.625 L51.6069 3.3906 L54.7476 3.3906 Q56.1226 3.3906 56.771 3.5938 Q57.4194 3.7969 57.8726 4.3281 Q58.3257 4.8594 58.3257 5.6094 Q58.3257 6.4062 57.8101 6.9844 Q57.2944 7.5625 56.2007 7.8125 L57.9819 10.2812 Q58.5913 11.125 59.0288 11.4062 Q59.4663 11.6875 60.1694 11.7656 L60.1694 12 ZM54.0601 7.5781 Q54.1851 7.5781 54.271 7.5781 Q54.3569 7.5781 54.4194 7.5781 Q55.6538 7.5781 56.2788 7.0469 Q56.9038 6.5156 56.9038 5.6875 Q56.9038 4.8906 56.396 4.3828 Q55.8882 3.875 55.0601 3.875 Q54.6851 3.875 54.0601 4 L54.0601 7.5781 ZM66.0122 3.2031 L66.0122 6.1719 L65.7778 6.1719 Q65.6685 5.3125 65.3716 4.8047 Q65.0747 4.2969 64.5278 4 Q63.981 3.7031 63.4028 3.7031 Q62.7466 3.7031 62.3169 4.1094 Q61.8872 4.5156 61.8872 5.0312 Q61.8872 5.4219 62.1528 5.7344 Q62.5435 6.2188 64.0278 7.0156 Q65.231 7.6562 65.6763 8 Q66.1216 8.3438 66.356 8.8203 Q66.5903 9.2969 66.5903 9.7969 Q66.5903 10.7812 65.8325 11.4922 Q65.0747 12.2031 63.8872 12.2031 Q63.5122 12.2031 63.1685 12.1406 Q62.981 12.1094 62.3638 11.9062 Q61.7466 11.7031 61.5747 11.7031 Q61.4185 11.7031 61.3247 11.7969 Q61.231 11.8906 61.1841 12.2031 L60.9497 12.2031 L60.9497 9.25 L61.1841 9.25 Q61.356 10.1719 61.6372 10.6328 Q61.9185 11.0938 62.4888 11.3984 Q63.0591 11.7031 63.7466 11.7031 Q64.5435 11.7031 65.0044 11.2812 Q65.4653 10.8594 65.4653 10.2969 Q65.4653 9.9688 65.2856 9.6484 Q65.106 9.3281 64.7466 9.0469 Q64.4966 8.8594 63.395 8.2422 Q62.2935 7.625 61.8247 7.2578 Q61.356 6.8906 61.1138 6.4453 Q60.8716 6 60.8716 5.4688 Q60.8716 4.5312 61.5825 3.8672 Q62.2935 3.2031 63.3872 3.2031 Q64.0747 3.2031 64.8403 3.5312 Q65.1997 3.6875 65.3403 3.6875 Q65.5122 3.6875 65.6138 3.5938 Q65.7153 3.5 65.7778 3.2031 L66.0122 3.2031 ZM73.7891 6.0156 Q75.1172 6.0156 75.9141 7.0156 Q76.5859 7.875 76.5859 8.9844 Q76.5859 9.7656 76.2109 10.5625 Q75.8359 11.3594 75.1797 11.7656 Q74.5234 12.1719 73.7266 12.1719 Q72.3984 12.1719 71.6328 11.125 Q70.9766 10.25 70.9766 9.1562 Q70.9766 8.3438 71.375 7.5547 Q71.7734 6.7656 72.4219 6.3906 Q73.0703 6.0156 73.7891 6.0156 ZM73.5859 6.4219 Q73.2578 6.4219 72.9141 6.625 Q72.5703 6.8281 72.3672 7.3281 Q72.1641 7.8281 72.1641 8.6094 Q72.1641 9.8906 72.6641 10.8125 Q73.1641 11.7344 73.9922 11.7344 Q74.6016 11.7344 75.0078 11.2266 Q75.4141 10.7188 75.4141 9.4688 Q75.4141 7.9219 74.7422 7.0312 Q74.2891 6.4219 73.5859 6.4219 ZM79.7109 6.6406 L79.7109 10.4688 Q79.7109 11.2812 79.8984 11.4844 Q80.1328 11.7656 80.5234 11.7656 L81.0547 11.7656 L81.0547 12 L77.5859 12 L77.5859 11.7656 L77.8359 11.7656 Q78.0859 11.7656 78.2969 11.6406 Q78.5078 11.5156 78.5859 11.2969 Q78.6641 11.0781 78.6641 10.4688 L78.6641 6.6406 L77.5391 6.6406 L77.5391 6.1875 L78.6641 6.1875 L78.6641 5.7969 Q78.6641 4.9375 78.9453 4.3359 Q79.2266 3.7344 79.8047 3.3594 Q80.3828 2.9844 81.1016 2.9844 Q81.7578 2.9844 82.3203 3.4219 Q82.6953 3.7031 82.6953 4.0625 Q82.6953 4.25 82.5234 4.4141 Q82.3516 4.5781 82.1641 4.5781 Q82.0234 4.5781 81.8594 4.4766 Q81.6953 4.375 81.4609 4.0312 Q81.2266 3.6875 81.0391 3.5625 Q80.8359 3.4375 80.6016 3.4375 Q80.3047 3.4375 80.1016 3.5938 Q79.8984 3.75 79.8047 4.0781 Q79.7109 4.4062 79.7109 5.7656 L79.7109 6.1875 L81.2109 6.1875 L81.2109 6.6406 L79.7109 6.6406 ZM84.04 6.6406 L84.04 10.4688 Q84.04 11.2812 84.2275 11.4844 Q84.4619 11.7656 84.8525 11.7656 L85.3838 11.7656 L85.3838 12 L81.915 12 L81.915 11.7656 L82.165 11.7656 Q82.415 11.7656 82.626 11.6406 Q82.8369 11.5156 82.915 11.2969 Q82.9932 11.0781 82.9932 10.4688 L82.9932 6.6406 L81.8682 6.6406 L81.8682 6.1875 L82.9932 6.1875 L82.9932 5.7969 Q82.9932 4.9375 83.2744 4.3359 Q83.5557 3.7344 84.1338 3.3594 Q84.7119 2.9844 85.4307 2.9844 Q86.0869 2.9844 86.6494 3.4219 Q87.0244 3.7031 87.0244 4.0625 Q87.0244 4.25 86.8525 4.4141 Q86.6807 4.5781 86.4932 4.5781 Q86.3525 4.5781 86.1885 4.4766 Q86.0244 4.375 85.79 4.0312 Q85.5557 3.6875 85.3682 3.5625 Q85.165 3.4375 84.9307 3.4375 Q84.6338 3.4375 84.4307 3.5938 Q84.2275 3.75 84.1338 4.0781 Q84.04 4.4062 84.04 5.7656 L84.04 6.1875 L85.54 6.1875 L85.54 6.6406 L84.04 6.6406 Z"
                  style="stroke:none; clip-path:url(#clipPath5);"/>
        </g>
        <g style="stroke-linecap:butt; font-size:13px; fill:rgb(213,94,0); text-rendering:optimizeLegibility; image-rendering:optimizeQuality; color-rendering:optimizeQuality; font-family:'Times New Roman'; stroke-linejoin:round; stroke:rgb(213,94,0); color-interpolation:linearRGB; stroke-width:1.5;"
           transform="translate(214,354)">
            <path d="M0 7 L34 7" style="fill:none; clip-path:url(#clipPath7);"/>
        </g>
        <g transform="translate(212,354)"
           style="stroke-linecap:butt; font-size:13px; text-rendering:optimizeLegibility; image-rendering:optimizeQuality; color-rendering:optimizeQuality; font-family:'Times New Roman'; stroke-linejoin:round; color-interpolation:linearRGB; stroke-width:1.5;">
            <path d="M42.2188 12 L42.2188 11.7656 L42.5469 11.7656 Q43.0938 11.7656 43.3281 11.4219 Q43.4531 11.2031 43.4531 10.4688 L43.4531 4.9219 Q43.4531 4.1094 43.2812 3.9062 Q43.0312 3.625 42.5469 3.625 L42.2188 3.625 L42.2188 3.3906 L45.7188 3.3906 Q47.6562 3.3906 48.6641 3.8281 Q49.6719 4.2656 50.2812 5.2891 Q50.8906 6.3125 50.8906 7.6562 Q50.8906 9.4531 49.7969 10.6562 Q48.5781 12 46.0625 12 L42.2188 12 ZM44.6719 11.375 Q45.4844 11.5625 46.0312 11.5625 Q47.5 11.5625 48.4766 10.5234 Q49.4531 9.4844 49.4531 7.7188 Q49.4531 5.9375 48.4766 4.9062 Q47.5 3.875 45.9844 3.875 Q45.4062 3.875 44.6719 4.0625 L44.6719 11.375 ZM60.1694 12 L57.8726 12 L54.9663 7.9688 Q54.6382 7.9844 54.4351 7.9844 Q54.3569 7.9844 54.2632 7.9844 Q54.1694 7.9844 54.0601 7.9688 L54.0601 10.4688 Q54.0601 11.2812 54.2319 11.4844 Q54.4819 11.7656 54.9663 11.7656 L55.2944 11.7656 L55.2944 12 L51.6069 12 L51.6069 11.7656 L51.9351 11.7656 Q52.4819 11.7656 52.7163 11.4062 Q52.8413 11.2188 52.8413 10.4688 L52.8413 4.9219 Q52.8413 4.1094 52.6694 3.9062 Q52.4194 3.625 51.9351 3.625 L51.6069 3.625 L51.6069 3.3906 L54.7476 3.3906 Q56.1226 3.3906 56.771 3.5938 Q57.4194 3.7969 57.8726 4.3281 Q58.3257 4.8594 58.3257 5.6094 Q58.3257 6.4062 57.8101 6.9844 Q57.2944 7.5625 56.2007 7.8125 L57.9819 10.2812 Q58.5913 11.125 59.0288 11.4062 Q59.4663 11.6875 60.1694 11.7656 L60.1694 12 ZM54.0601 7.5781 Q54.1851 7.5781 54.271 7.5781 Q54.3569 7.5781 54.4194 7.5781 Q55.6538 7.5781 56.2788 7.0469 Q56.9038 6.5156 56.9038 5.6875 Q56.9038 4.8906 56.396 4.3828 Q55.8882 3.875 55.0601 3.875 Q54.6851 3.875 54.0601 4 L54.0601 7.5781 ZM66.0122 3.2031 L66.0122 6.1719 L65.7778 6.1719 Q65.6685 5.3125 65.3716 4.8047 Q65.0747 4.2969 64.5278 4 Q63.981 3.7031 63.4028 3.7031 Q62.7466 3.7031 62.3169 4.1094 Q61.8872 4.5156 61.8872 5.0312 Q61.8872 5.4219 62.1528 5.7344 Q62.5435 6.2188 64.0278 7.0156 Q65.231 7.6562 65.6763 8 Q66.1216 8.3438 66.356 8.8203 Q66.5903 9.2969 66.5903 9.7969 Q66.5903 10.7812 65.8325 11.4922 Q65.0747 12.2031 63.8872 12.2031 Q63.5122 12.2031 63.1685 12.1406 Q62.981 12.1094 62.3638 11.9062 Q61.7466 11.7031 61.5747 11.7031 Q61.4185 11.7031 61.3247 11.7969 Q61.231 11.8906 61.1841 12.2031 L60.9497 12.2031 L60.9497 9.25 L61.1841 9.25 Q61.356 10.1719 61.6372 10.6328 Q61.9185 11.0938 62.4888 11.3984 Q63.0591 11.7031 63.7466 11.7031 Q64.5435 11.7031 65.0044 11.2812 Q65.4653 10.8594 65.4653 10.2969 Q65.4653 9.9688 65.2856 9.6484 Q65.106 9.3281 64.7466 9.0469 Q64.4966 8.8594 63.395 8.2422 Q62.2935 7.625 61.8247 7.2578 Q61.356 6.8906 61.1138 6.4453 Q60.8716 6 60.8716 5.4688 Q60.8716 4.5312 61.5825 3.8672 Q62.2935 3.2031 63.3872 3.2031 Q64.0747 3.2031 64.8403 3.5312 Q65.1997 3.6875 65.3403 3.6875 Q65.5122 3.6875 65.6138 3.5938 Q65.7153 3.5 65.7778 3.2031 L66.0122 3.2031 ZM73.7891 6.0156 Q75.1172 6.0156 75.9141 7.0156 Q76.5859 7.875 76.5859 8.9844 Q76.5859 9.7656 76.2109 10.5625 Q75.8359 11.3594 75.1797 11.7656 Q74.5234 12.1719 73.7266 12.1719 Q72.3984 12.1719 71.6328 11.125 Q70.9766 10.25 70.9766 9.1562 Q70.9766 8.3438 71.375 7.5547 Q71.7734 6.7656 72.4219 6.3906 Q73.0703 6.0156 73.7891 6.0156 ZM73.5859 6.4219 Q73.2578 6.4219 72.9141 6.625 Q72.5703 6.8281 72.3672 7.3281 Q72.1641 7.8281 72.1641 8.6094 Q72.1641 9.8906 72.6641 10.8125 Q73.1641 11.7344 73.9922 11.7344 Q74.6016 11.7344 75.0078 11.2266 Q75.4141 10.7188 75.4141 9.4688 Q75.4141 7.9219 74.7422 7.0312 Q74.2891 6.4219 73.5859 6.4219 ZM79.1328 7.25 Q80.1641 6.0156 81.0859 6.0156 Q81.5703 6.0156 81.9141 6.25 Q82.2578 6.4844 82.4609 7.0312 Q82.5859 7.4219 82.5859 8.2031 L82.5859 10.6875 Q82.5859 11.2344 82.6797 11.4375 Q82.7578 11.5938 82.9141 11.6797 Q83.0703 11.7656 83.4766 11.7656 L83.4766 12 L80.6016 12 L80.6016 11.7656 L80.7266 11.7656 Q81.1328 11.7656 81.2969 11.6484 Q81.4609 11.5312 81.5234 11.2812 Q81.5391 11.1875 81.5391 10.6875 L81.5391 8.3125 Q81.5391 7.5156 81.3359 7.1562 Q81.1328 6.7969 80.6484 6.7969 Q79.8828 6.7969 79.1328 7.625 L79.1328 10.6875 Q79.1328 11.2812 79.2109 11.4219 Q79.3047 11.5938 79.4609 11.6797 Q79.6172 11.7656 80.0859 11.7656 L80.0859 12 L77.2109 12 L77.2109 11.7656 L77.3359 11.7656 Q77.7891 11.7656 77.9375 11.5469 Q78.0859 11.3281 78.0859 10.6875 L78.0859 8.5312 Q78.0859 7.4844 78.0391 7.25 Q77.9922 7.0156 77.8984 6.9375 Q77.8047 6.8594 77.6328 6.8594 Q77.4609 6.8594 77.2109 6.9531 L77.1172 6.7188 L78.8672 6.0156 L79.1328 6.0156 L79.1328 7.25 Z"
                  style="stroke:none; clip-path:url(#clipPath9);"/>
        </g>
        <g style="text-rendering:optimizeLegibility; font-size:13px; font-family:'Times New Roman'; color-interpolation:linearRGB; color-rendering:optimizeQuality; image-rendering:optimizeQuality;">
            <rect x="118" y="352" width="182"
                  style="fill:none; clip-path:url(#clipPath1);" height="18"/>
        </g>
        <g transform="translate(5,22)"
           style="stroke-linecap:butt; font-size:9px; fill:rgb(165,165,165); text-rendering:optimizeLegibility; image-rendering:optimizeQuality; color-rendering:optimizeQuality; font-family:'Times New Roman'; stroke-linejoin:round; stroke:rgb(165,165,165); color-interpolation:linearRGB;">
            <path d="M63.0168 288 L63.0168 1.0035"
                  style="fill:none; clip-path:url(#clipPath10);"/>
            <path d="M219.3717 288 L219.3717 1.0035"
                  style="fill:none; clip-path:url(#clipPath10);"/>
            <path d="M375.7266 288 L375.7266 1.0035"
                  style="fill:none; clip-path:url(#clipPath10);"/>
        </g>
        <g transform="translate(5,22)"
           style="stroke-linecap:butt; font-size:9px; fill:rgb(165,165,165); text-rendering:optimizeLegibility; image-rendering:optimizeQuality; color-rendering:optimizeQuality; font-family:'Times New Roman'; stroke-linejoin:round; stroke:rgb(165,165,165); color-interpolation:linearRGB;">
            <path d="M36 265.7859 L408.9975 265.7859"
                  style="fill:none; clip-path:url(#clipPath10);"/>
            <path d="M36 205.1439 L408.9975 205.1439"
                  style="fill:none; clip-path:url(#clipPath10);"/>
            <path d="M36 144.5018 L408.9975 144.5018"
                  style="fill:none; clip-path:url(#clipPath10);"/>
            <path d="M36 83.8596 L408.9975 83.8596"
                  style="fill:none; clip-path:url(#clipPath10);"/>
            <path d="M36 23.2176 L408.9975 23.2176"
                  style="fill:none; clip-path:url(#clipPath10);"/>
        </g>
        <g style="stroke-linecap:butt; font-size:13px; fill:rgb(86,180,233); text-rendering:optimizeLegibility; image-rendering:optimizeQuality; color-rendering:optimizeQuality; font-family:'Times New Roman'; stroke-linejoin:round; stroke:rgb(86,180,233); color-interpolation:linearRGB; stroke-width:1.5;"
           transform="translate(5,22)">
            <path d="M63.0168 96.5575 L75.5252 103.3115 L88.0336 109.9746 L100.542 116.5489 L113.0503 123.0363 L125.5587 129.4389 L138.0671 135.7584 L150.5755 141.9968 L163.0839 148.1557 L175.5923 154.2369 L188.1007 160.2419 L200.6091 166.1725 L213.1175 172.0302 L225.6259 177.8164 L238.1342 183.5327 L250.6426 189.1803 L263.151 194.7608 L275.6594 200.2754 L288.1678 205.7255 L300.6762 211.1122 L313.1846 216.4369 L325.693 221.7007 L338.2014 226.9048 L350.7098 232.0502 L363.2182 237.1382 L375.7266 242.1697"
                  style="fill:none; clip-path:url(#clipPath11);"/>
        </g>
        <g style="stroke-linecap:butt; font-size:13px; fill:rgb(213,94,0); text-rendering:optimizeLegibility; image-rendering:optimizeQuality; color-rendering:optimizeQuality; font-family:'Times New Roman'; stroke-linejoin:round; stroke:rgb(213,94,0); color-interpolation:linearRGB; stroke-width:1.5;"
           transform="translate(5,22)">
            <path d="M63.0168 41.7992 L75.5252 48.2296 L88.0336 54.5797 L100.542 60.8513 L113.0503 67.0459 L125.5587 73.1652 L138.0671 79.2107 L150.5755 85.184 L163.0839 91.0866 L175.5923 96.9198 L188.1007 102.6852 L200.6091 108.3839 L213.1175 114.0173 L225.6259 119.5868 L238.1342 125.0934 L250.6426 130.5385 L263.151 135.9232 L275.6594 141.2486 L288.1678 146.5158 L300.6762 151.726 L313.1846 156.88 L325.693 161.9791 L338.2014 167.0241 L350.7098 172.016 L363.2182 176.9558 L375.7266 181.8443"
                  style="fill:none; clip-path:url(#clipPath11);"/>
        </g>
        <g transform="translate(5,22)"
           style="stroke-linecap:butt; font-size:9px; text-rendering:optimizeLegibility; image-rendering:optimizeQuality; color-rendering:optimizeQuality; font-family:'Times New Roman'; stroke-linejoin:round; color-interpolation:linearRGB;">
            <path d="M36 288 L408.9975 288"
                  style="fill:none; clip-path:url(#clipPath10);"/>
            <path d="M36 1.0035 L408.9975 1.0035"
                  style="fill:none; clip-path:url(#clipPath10);"/>
        </g>
        <g transform="translate(5,22)"
           style="font-size:9px; text-rendering:optimizeLegibility; color-rendering:optimizeQuality; image-rendering:optimizeQuality; font-family:'Times New Roman'; color-interpolation:linearRGB;">
            <path d="M63.0168 288 L63.0168 292.025"
                  style="fill:none; clip-path:url(#clipPath10);"/>
            <path d="M51.0312 317.3594 L51.0312 323.8906 Q51.0312 324.3438 51.1016 324.5 Q51.1719 324.6562 51.3125 324.7344 Q51.4531 324.8125 51.8281 324.8125 L51.8281 325 L49.4219 325 L49.4219 324.8125 Q49.75 324.8125 49.875 324.7422 Q50 324.6719 50.0703 324.5078 Q50.1406 324.3438 50.1406 323.8906 L50.1406 319.4219 Q50.1406 318.5938 50.1016 318.3984 Q50.0625 318.2031 49.9844 318.1328 Q49.9062 318.0625 49.7812 318.0625 Q49.6406 318.0625 49.4219 318.1562 L49.3281 317.9688 L50.7969 317.3594 L51.0312 317.3594 ZM54.8062 319.9375 Q55.9312 319.9375 56.603 320.7812 Q57.1812 321.5156 57.1812 322.4531 Q57.1812 323.1094 56.8608 323.7891 Q56.5405 324.4688 55.9858 324.8125 Q55.4312 325.1562 54.7437 325.1562 Q53.6343 325.1562 52.978 324.2656 Q52.4312 323.5156 52.4312 322.5938 Q52.4312 321.9062 52.7671 321.2422 Q53.103 320.5781 53.6499 320.2578 Q54.1968 319.9375 54.8062 319.9375 ZM54.6343 320.2812 Q54.353 320.2812 54.064 320.4531 Q53.7749 320.625 53.603 321.0469 Q53.4312 321.4688 53.4312 322.1406 Q53.4312 323.2188 53.853 323.9922 Q54.2749 324.7656 54.978 324.7656 Q55.4937 324.7656 55.8374 324.3359 Q56.1812 323.9062 56.1812 322.8594 Q56.1812 321.5469 55.6187 320.7969 Q55.228 320.2812 54.6343 320.2812 ZM57.6187 320.0781 L59.6812 320.0781 L59.6812 320.2812 Q59.3999 320.2969 59.314 320.3828 Q59.228 320.4688 59.228 320.6094 Q59.228 320.7812 59.3218 321.0156 L60.3687 323.8438 L61.4312 321.5469 L61.1499 320.8125 Q61.0249 320.5 60.8062 320.375 Q60.6968 320.2969 60.3687 320.2812 L60.3687 320.0781 L62.7124 320.0781 L62.7124 320.2812 Q62.3218 320.2969 62.1655 320.4219 Q62.0562 320.5 62.0562 320.6875 Q62.0562 320.7969 62.103 320.9062 L63.2124 323.7344 L64.2593 321.0156 Q64.3687 320.7188 64.3687 320.5469 Q64.3687 320.4531 64.2593 320.375 Q64.1499 320.2969 63.853 320.2812 L63.853 320.0781 L65.3999 320.0781 L65.3999 320.2812 Q64.9312 320.3438 64.7124 320.9062 L63.0718 325.1562 L62.853 325.1562 L61.6187 322.0156 L60.1812 325.1562 L59.978 325.1562 L58.3999 321.0156 Q58.2437 320.625 58.0952 320.4844 Q57.9468 320.3438 57.6187 320.2812 L57.6187 320.0781 ZM72.0625 324.4531 Q71.7031 324.8281 71.3594 324.9922 Q71.0156 325.1562 70.625 325.1562 Q69.8125 325.1562 69.2109 324.4766 Q68.6094 323.7969 68.6094 322.75 Q68.6094 321.6875 69.2812 320.8047 Q69.9531 319.9219 71 319.9219 Q71.6406 319.9219 72.0625 320.3438 L72.0625 319.4375 Q72.0625 318.5938 72.0234 318.3984 Q71.9844 318.2031 71.8984 318.1328 Q71.8125 318.0625 71.6875 318.0625 Q71.5469 318.0625 71.3125 318.1562 L71.25 317.9688 L72.7188 317.3594 L72.9531 317.3594 L72.9531 323.0469 Q72.9531 323.9219 72.9922 324.1094 Q73.0312 324.2969 73.125 324.375 Q73.2188 324.4531 73.3281 324.4531 Q73.4688 324.4531 73.7188 324.3594 L73.7812 324.5469 L72.3125 325.1562 L72.0625 325.1562 L72.0625 324.4531 ZM72.0625 324.0781 L72.0625 321.5312 Q72.0312 321.1719 71.875 320.8672 Q71.7188 320.5625 71.4531 320.4141 Q71.1875 320.2656 70.9375 320.2656 Q70.4531 320.2656 70.0938 320.6875 Q69.5938 321.25 69.5938 322.3125 Q69.5938 323.4062 70.0703 323.9844 Q70.5469 324.5625 71.125 324.5625 Q71.6094 324.5625 72.0625 324.0781 ZM75.5312 319.9375 L75.5312 321.0469 Q76.1562 319.9375 76.7969 319.9375 Q77.0938 319.9375 77.2891 320.1172 Q77.4844 320.2969 77.4844 320.5312 Q77.4844 320.7344 77.3438 320.8828 Q77.2031 321.0312 77.0156 321.0312 Q76.8281 321.0312 76.5938 320.8438 Q76.3594 320.6562 76.25 320.6562 Q76.1406 320.6562 76.0312 320.7656 Q75.7969 320.9844 75.5312 321.5 L75.5312 323.8438 Q75.5312 324.2656 75.6406 324.4688 Q75.7031 324.6094 75.8828 324.7109 Q76.0625 324.8125 76.3906 324.8125 L76.3906 325 L73.875 325 L73.875 324.8125 Q74.25 324.8125 74.4375 324.6875 Q74.5625 324.6094 74.625 324.4219 Q74.6406 324.3281 74.6406 323.8906 L74.6406 321.9844 Q74.6406 321.125 74.6094 320.9609 Q74.5781 320.7969 74.4844 320.7266 Q74.3906 320.6562 74.25 320.6562 Q74.0781 320.6562 73.875 320.7344 L73.8125 320.5312 L75.3125 319.9375 L75.5312 319.9375 ZM80.5381 324.2969 Q79.7881 324.875 79.6006 324.9688 Q79.3037 325.1094 78.9756 325.1094 Q78.46 325.1094 78.1318 324.7578 Q77.8037 324.4062 77.8037 323.8281 Q77.8037 323.4688 77.96 323.2188 Q78.1943 322.8438 78.7334 322.5234 Q79.2725 322.2031 80.5381 321.7344 L80.5381 321.5469 Q80.5381 320.8125 80.3115 320.5391 Q80.085 320.2656 79.6318 320.2656 Q79.2881 320.2656 79.1006 320.4375 Q78.8975 320.625 78.8975 320.8594 L78.8975 321.1719 Q78.8975 321.4219 78.7725 321.5547 Q78.6475 321.6875 78.4443 321.6875 Q78.2412 321.6875 78.1162 321.5469 Q77.9912 321.4062 77.9912 321.1719 Q77.9912 320.7031 78.4678 320.3203 Q78.9443 319.9375 79.7881 319.9375 Q80.4443 319.9375 80.8662 320.1562 Q81.1787 320.3281 81.335 320.6719 Q81.4287 320.9062 81.4287 321.625 L81.4287 323.2969 Q81.4287 324 81.46 324.1562 Q81.4912 324.3125 81.5459 324.3672 Q81.6006 324.4219 81.6943 324.4219 Q81.7725 324.4219 81.835 324.375 Q81.9443 324.3125 82.2725 323.9844 L82.2725 324.2969 Q81.6787 325.0938 81.1318 325.0938 Q80.8662 325.0938 80.71 324.9141 Q80.5537 324.7344 80.5381 324.2969 ZM80.5381 323.9375 L80.5381 322.0625 Q79.7412 322.3906 79.4912 322.5312 Q79.0693 322.7656 78.8896 323.0234 Q78.71 323.2812 78.71 323.5781 Q78.71 323.9688 78.9365 324.2266 Q79.1631 324.4844 79.4756 324.4844 Q79.8818 324.4844 80.5381 323.9375 ZM83.9517 323.2031 Q83.4985 322.9844 83.2563 322.5938 Q83.0142 322.2031 83.0142 321.7188 Q83.0142 320.9844 83.5688 320.4609 Q84.1235 319.9375 84.9829 319.9375 Q85.686 319.9375 86.2017 320.2812 L87.2485 320.2812 Q87.4673 320.2812 87.5063 320.2969 Q87.5454 320.3125 87.561 320.3438 Q87.5923 320.3906 87.5923 320.5156 Q87.5923 320.6562 87.5767 320.7031 Q87.561 320.7344 87.5142 320.75 Q87.4673 320.7656 87.2485 320.7656 L86.6079 320.7656 Q86.9048 321.1562 86.9048 321.75 Q86.9048 322.4375 86.3813 322.9297 Q85.8579 323.4219 84.9673 323.4219 Q84.5923 323.4219 84.2173 323.3125 Q83.9829 323.5156 83.897 323.6641 Q83.811 323.8125 83.811 323.9219 Q83.811 324.0156 83.9048 324.1016 Q83.9985 324.1875 84.2485 324.2188 Q84.4048 324.25 84.9985 324.2656 Q86.1079 324.2969 86.436 324.3438 Q86.936 324.4062 87.2329 324.7109 Q87.5298 325.0156 87.5298 325.4531 Q87.5298 326.0625 86.9673 326.5938 Q86.1235 327.375 84.7798 327.375 Q83.7329 327.375 83.0298 326.9062 Q82.6235 326.6406 82.6235 326.3438 Q82.6235 326.2188 82.686 326.0938 Q82.7798 325.8906 83.061 325.5312 Q83.0923 325.4844 83.6079 324.9531 Q83.3267 324.7969 83.2095 324.6641 Q83.0923 324.5312 83.0923 324.3594 Q83.0923 324.1719 83.2485 323.9219 Q83.4048 323.6719 83.9517 323.2031 ZM84.8892 320.1875 Q84.4985 320.1875 84.2251 320.5078 Q83.9517 320.8281 83.9517 321.4844 Q83.9517 322.3281 84.3267 322.7969 Q84.5923 323.1562 85.0298 323.1562 Q85.436 323.1562 85.7017 322.8516 Q85.9673 322.5469 85.9673 321.8906 Q85.9673 321.0312 85.5923 320.5469 Q85.3267 320.1875 84.8892 320.1875 ZM83.9048 325 Q83.6548 325.2812 83.522 325.5156 Q83.3892 325.75 83.3892 325.9531 Q83.3892 326.2031 83.7017 326.3906 Q84.2329 326.7344 85.2485 326.7344 Q86.2173 326.7344 86.6782 326.3906 Q87.1392 326.0469 87.1392 325.6562 Q87.1392 325.375 86.8735 325.2656 Q86.5923 325.1406 85.7642 325.125 Q84.5454 325.0938 83.9048 325 Z"
                  style="clip-path:url(#clipPath12); stroke:none;"
                  transform="translate(-5,-22)"/>
        </g>
        <g transform="translate(5,22)"
           style="font-size:9px; text-rendering:optimizeLegibility; color-rendering:optimizeQuality; image-rendering:optimizeQuality; font-family:'Times New Roman'; color-interpolation:linearRGB;">
            <path d="M219.3717 288 L219.3717 292.025"
                  style="fill:none; clip-path:url(#clipPath10);"/>
            <path d="M206.8125 320.9844 Q207.3438 320.4375 207.4375 320.3594 Q207.6875 320.1562 207.9609 320.0469 Q208.2344 319.9375 208.5156 319.9375 Q208.9688 319.9375 209.3047 320.2031 Q209.6406 320.4688 209.75 320.9844 Q210.3125 320.3438 210.6875 320.1406 Q211.0625 319.9375 211.4688 319.9375 Q211.8594 319.9375 212.1641 320.1406 Q212.4688 320.3438 212.6562 320.7969 Q212.7656 321.1094 212.7656 321.7656 L212.7656 323.8906 Q212.7656 324.3438 212.8438 324.5156 Q212.8906 324.6406 213.0391 324.7266 Q213.1875 324.8125 213.5156 324.8125 L213.5156 325 L211.0781 325 L211.0781 324.8125 L211.1875 324.8125 Q211.5 324.8125 211.6719 324.6875 Q211.7969 324.5938 211.8594 324.4062 Q211.875 324.3125 211.875 323.8906 L211.875 321.7656 Q211.875 321.1719 211.7344 320.9219 Q211.5156 320.5781 211.0625 320.5781 Q210.7812 320.5781 210.4922 320.7188 Q210.2031 320.8594 209.7969 321.25 L209.7812 321.3125 L209.7969 321.5469 L209.7969 323.8906 Q209.7969 324.3906 209.8516 324.5156 Q209.9062 324.6406 210.0625 324.7266 Q210.2188 324.8125 210.5938 324.8125 L210.5938 325 L208.1094 325 L208.1094 324.8125 Q208.5156 324.8125 208.6641 324.7109 Q208.8125 324.6094 208.875 324.4219 Q208.9062 324.3281 208.9062 323.8906 L208.9062 321.7656 Q208.9062 321.1719 208.7344 320.9062 Q208.4844 320.5625 208.0625 320.5625 Q207.7812 320.5625 207.5 320.7188 Q207.0469 320.9531 206.8125 321.25 L206.8125 323.8906 Q206.8125 324.375 206.875 324.5156 Q206.9375 324.6562 207.0703 324.7344 Q207.2031 324.8125 207.6094 324.8125 L207.6094 325 L205.1719 325 L205.1719 324.8125 Q205.5156 324.8125 205.6484 324.7344 Q205.7812 324.6562 205.8516 324.5 Q205.9219 324.3438 205.9219 323.8906 L205.9219 322.0156 Q205.9219 321.2031 205.875 320.9531 Q205.8281 320.7812 205.75 320.7188 Q205.6719 320.6562 205.5312 320.6562 Q205.375 320.6562 205.1719 320.7344 L205.0938 320.5312 L206.5781 319.9375 L206.8125 319.9375 L206.8125 320.9844 ZM215.1499 317.3594 Q215.3843 317.3594 215.5405 317.5156 Q215.6968 317.6719 215.6968 317.9062 Q215.6968 318.125 215.5405 318.2891 Q215.3843 318.4531 215.1499 318.4531 Q214.9312 318.4531 214.7671 318.2891 Q214.603 318.125 214.603 317.9062 Q214.603 317.6719 214.7593 317.5156 Q214.9155 317.3594 215.1499 317.3594 ZM215.603 319.9375 L215.603 323.8906 Q215.603 324.3438 215.6655 324.5 Q215.728 324.6562 215.8608 324.7344 Q215.9937 324.8125 216.3374 324.8125 L216.3374 325 L213.9468 325 L213.9468 324.8125 Q214.3062 324.8125 214.4312 324.7422 Q214.5562 324.6719 214.6343 324.5078 Q214.7124 324.3438 214.7124 323.8906 L214.7124 321.9844 Q214.7124 321.1875 214.6499 320.9531 Q214.6187 320.7812 214.5405 320.7188 Q214.4624 320.6562 214.3218 320.6562 Q214.1655 320.6562 213.9468 320.7344 L213.8843 320.5312 L215.3687 319.9375 L215.603 319.9375 ZM220.4248 324.4531 Q220.0654 324.8281 219.7217 324.9922 Q219.3779 325.1562 218.9873 325.1562 Q218.1748 325.1562 217.5732 324.4766 Q216.9717 323.7969 216.9717 322.75 Q216.9717 321.6875 217.6436 320.8047 Q218.3154 319.9219 219.3623 319.9219 Q220.0029 319.9219 220.4248 320.3438 L220.4248 319.4375 Q220.4248 318.5938 220.3857 318.3984 Q220.3467 318.2031 220.2607 318.1328 Q220.1748 318.0625 220.0498 318.0625 Q219.9092 318.0625 219.6748 318.1562 L219.6123 317.9688 L221.0811 317.3594 L221.3154 317.3594 L221.3154 323.0469 Q221.3154 323.9219 221.3545 324.1094 Q221.3936 324.2969 221.4873 324.375 Q221.5811 324.4531 221.6904 324.4531 Q221.8311 324.4531 222.0811 324.3594 L222.1436 324.5469 L220.6748 325.1562 L220.4248 325.1562 L220.4248 324.4531 ZM220.4248 324.0781 L220.4248 321.5312 Q220.3936 321.1719 220.2373 320.8672 Q220.0811 320.5625 219.8154 320.4141 Q219.5498 320.2656 219.2998 320.2656 Q218.8154 320.2656 218.4561 320.6875 Q217.9561 321.25 217.9561 322.3125 Q217.9561 323.4062 218.4326 323.9844 Q218.9092 324.5625 219.4873 324.5625 Q219.9717 324.5625 220.4248 324.0781 ZM228.6748 324.4531 Q228.3154 324.8281 227.9717 324.9922 Q227.6279 325.1562 227.2373 325.1562 Q226.4248 325.1562 225.8232 324.4766 Q225.2217 323.7969 225.2217 322.75 Q225.2217 321.6875 225.8936 320.8047 Q226.5654 319.9219 227.6123 319.9219 Q228.2529 319.9219 228.6748 320.3438 L228.6748 319.4375 Q228.6748 318.5938 228.6357 318.3984 Q228.5967 318.2031 228.5107 318.1328 Q228.4248 318.0625 228.2998 318.0625 Q228.1592 318.0625 227.9248 318.1562 L227.8623 317.9688 L229.3311 317.3594 L229.5654 317.3594 L229.5654 323.0469 Q229.5654 323.9219 229.6045 324.1094 Q229.6436 324.2969 229.7373 324.375 Q229.8311 324.4531 229.9404 324.4531 Q230.0811 324.4531 230.3311 324.3594 L230.3936 324.5469 L228.9248 325.1562 L228.6748 325.1562 L228.6748 324.4531 ZM228.6748 324.0781 L228.6748 321.5312 Q228.6436 321.1719 228.4873 320.8672 Q228.3311 320.5625 228.0654 320.4141 Q227.7998 320.2656 227.5498 320.2656 Q227.0654 320.2656 226.7061 320.6875 Q226.2061 321.25 226.2061 322.3125 Q226.2061 323.4062 226.6826 323.9844 Q227.1592 324.5625 227.7373 324.5625 Q228.2217 324.5625 228.6748 324.0781 ZM232.1436 319.9375 L232.1436 321.0469 Q232.7686 319.9375 233.4092 319.9375 Q233.7061 319.9375 233.9014 320.1172 Q234.0967 320.2969 234.0967 320.5312 Q234.0967 320.7344 233.9561 320.8828 Q233.8154 321.0312 233.6279 321.0312 Q233.4404 321.0312 233.2061 320.8438 Q232.9717 320.6562 232.8623 320.6562 Q232.7529 320.6562 232.6436 320.7656 Q232.4092 320.9844 232.1436 321.5 L232.1436 323.8438 Q232.1436 324.2656 232.2529 324.4688 Q232.3154 324.6094 232.4951 324.7109 Q232.6748 324.8125 233.0029 324.8125 L233.0029 325 L230.4873 325 L230.4873 324.8125 Q230.8623 324.8125 231.0498 324.6875 Q231.1748 324.6094 231.2373 324.4219 Q231.2529 324.3281 231.2529 323.8906 L231.2529 321.9844 Q231.2529 321.125 231.2217 320.9609 Q231.1904 320.7969 231.0967 320.7266 Q231.0029 320.6562 230.8623 320.6562 Q230.6904 320.6562 230.4873 320.7344 L230.4248 320.5312 L231.9248 319.9375 L232.1436 319.9375 ZM237.1504 324.2969 Q236.4004 324.875 236.2129 324.9688 Q235.916 325.1094 235.5879 325.1094 Q235.0723 325.1094 234.7441 324.7578 Q234.416 324.4062 234.416 323.8281 Q234.416 323.4688 234.5723 323.2188 Q234.8066 322.8438 235.3457 322.5234 Q235.8848 322.2031 237.1504 321.7344 L237.1504 321.5469 Q237.1504 320.8125 236.9238 320.5391 Q236.6973 320.2656 236.2441 320.2656 Q235.9004 320.2656 235.7129 320.4375 Q235.5098 320.625 235.5098 320.8594 L235.5098 321.1719 Q235.5098 321.4219 235.3848 321.5547 Q235.2598 321.6875 235.0566 321.6875 Q234.8535 321.6875 234.7285 321.5469 Q234.6035 321.4062 234.6035 321.1719 Q234.6035 320.7031 235.0801 320.3203 Q235.5566 319.9375 236.4004 319.9375 Q237.0566 319.9375 237.4785 320.1562 Q237.791 320.3281 237.9473 320.6719 Q238.041 320.9062 238.041 321.625 L238.041 323.2969 Q238.041 324 238.0723 324.1562 Q238.1035 324.3125 238.1582 324.3672 Q238.2129 324.4219 238.3066 324.4219 Q238.3848 324.4219 238.4473 324.375 Q238.5566 324.3125 238.8848 323.9844 L238.8848 324.2969 Q238.291 325.0938 237.7441 325.0938 Q237.4785 325.0938 237.3223 324.9141 Q237.166 324.7344 237.1504 324.2969 ZM237.1504 323.9375 L237.1504 322.0625 Q236.3535 322.3906 236.1035 322.5312 Q235.6816 322.7656 235.502 323.0234 Q235.3223 323.2812 235.3223 323.5781 Q235.3223 323.9688 235.5488 324.2266 Q235.7754 324.4844 236.0879 324.4844 Q236.4941 324.4844 237.1504 323.9375 ZM240.564 323.2031 Q240.1108 322.9844 239.8687 322.5938 Q239.6265 322.2031 239.6265 321.7188 Q239.6265 320.9844 240.1812 320.4609 Q240.7358 319.9375 241.5952 319.9375 Q242.2983 319.9375 242.814 320.2812 L243.8608 320.2812 Q244.0796 320.2812 244.1187 320.2969 Q244.1577 320.3125 244.1733 320.3438 Q244.2046 320.3906 244.2046 320.5156 Q244.2046 320.6562 244.189 320.7031 Q244.1733 320.7344 244.1265 320.75 Q244.0796 320.7656 243.8608 320.7656 L243.2202 320.7656 Q243.5171 321.1562 243.5171 321.75 Q243.5171 322.4375 242.9937 322.9297 Q242.4702 323.4219 241.5796 323.4219 Q241.2046 323.4219 240.8296 323.3125 Q240.5952 323.5156 240.5093 323.6641 Q240.4233 323.8125 240.4233 323.9219 Q240.4233 324.0156 240.5171 324.1016 Q240.6108 324.1875 240.8608 324.2188 Q241.0171 324.25 241.6108 324.2656 Q242.7202 324.2969 243.0483 324.3438 Q243.5483 324.4062 243.8452 324.7109 Q244.1421 325.0156 244.1421 325.4531 Q244.1421 326.0625 243.5796 326.5938 Q242.7358 327.375 241.3921 327.375 Q240.3452 327.375 239.6421 326.9062 Q239.2358 326.6406 239.2358 326.3438 Q239.2358 326.2188 239.2983 326.0938 Q239.3921 325.8906 239.6733 325.5312 Q239.7046 325.4844 240.2202 324.9531 Q239.939 324.7969 239.8218 324.6641 Q239.7046 324.5312 239.7046 324.3594 Q239.7046 324.1719 239.8608 323.9219 Q240.0171 323.6719 240.564 323.2031 ZM241.5015 320.1875 Q241.1108 320.1875 240.8374 320.5078 Q240.564 320.8281 240.564 321.4844 Q240.564 322.3281 240.939 322.7969 Q241.2046 323.1562 241.6421 323.1562 Q242.0483 323.1562 242.314 322.8516 Q242.5796 322.5469 242.5796 321.8906 Q242.5796 321.0312 242.2046 320.5469 Q241.939 320.1875 241.5015 320.1875 ZM240.5171 325 Q240.2671 325.2812 240.1343 325.5156 Q240.0015 325.75 240.0015 325.9531 Q240.0015 326.2031 240.314 326.3906 Q240.8452 326.7344 241.8608 326.7344 Q242.8296 326.7344 243.2905 326.3906 Q243.7515 326.0469 243.7515 325.6562 Q243.7515 325.375 243.4858 325.2656 Q243.2046 325.1406 242.3765 325.125 Q241.1577 325.0938 240.5171 325 Z"
                  style="clip-path:url(#clipPath12); stroke:none;"
                  transform="translate(-5,-22)"/>
        </g>
        <g transform="translate(5,22)"
           style="font-size:9px; text-rendering:optimizeLegibility; color-rendering:optimizeQuality; image-rendering:optimizeQuality; font-family:'Times New Roman'; color-interpolation:linearRGB;">
            <path d="M375.7266 288 L375.7266 292.025"
                  style="fill:none; clip-path:url(#clipPath10);"/>
            <path d="M361.7812 317.3594 L361.7812 320.9531 Q362.3906 320.3125 362.7344 320.125 Q363.0781 319.9375 363.4375 319.9375 Q363.8438 319.9375 364.1484 320.1641 Q364.4531 320.3906 364.5938 320.8906 Q364.7031 321.2344 364.7031 322.1406 L364.7031 323.8906 Q364.7031 324.3594 364.7812 324.5312 Q364.8281 324.6562 364.9609 324.7344 Q365.0938 324.8125 365.4375 324.8125 L365.4375 325 L363.0156 325 L363.0156 324.8125 L363.125 324.8125 Q363.4688 324.8125 363.6016 324.7031 Q363.7344 324.5938 363.7969 324.3906 Q363.8125 324.3125 363.8125 323.8906 L363.8125 322.1406 Q363.8125 321.3438 363.7266 321.0938 Q363.6406 320.8438 363.4609 320.7109 Q363.2812 320.5781 363.0156 320.5781 Q362.75 320.5781 362.4688 320.7188 Q362.1875 320.8594 361.7812 321.2812 L361.7812 323.8906 Q361.7812 324.3906 361.8438 324.5156 Q361.9062 324.6406 362.0547 324.7266 Q362.2031 324.8125 362.5781 324.8125 L362.5781 325 L360.1406 325 L360.1406 324.8125 Q360.4688 324.8125 360.6562 324.7031 Q360.7656 324.6562 360.8281 324.5 Q360.8906 324.3438 360.8906 323.8906 L360.8906 319.4375 Q360.8906 318.5938 360.8516 318.3984 Q360.8125 318.2031 360.7344 318.1328 Q360.6562 318.0625 360.5156 318.0625 Q360.3906 318.0625 360.1406 318.1562 L360.0625 317.9688 L361.5469 317.3594 L361.7812 317.3594 ZM367.0938 317.3594 Q367.3281 317.3594 367.4844 317.5156 Q367.6406 317.6719 367.6406 317.9062 Q367.6406 318.125 367.4844 318.2891 Q367.3281 318.4531 367.0938 318.4531 Q366.875 318.4531 366.7109 318.2891 Q366.5469 318.125 366.5469 317.9062 Q366.5469 317.6719 366.7031 317.5156 Q366.8594 317.3594 367.0938 317.3594 ZM367.5469 319.9375 L367.5469 323.8906 Q367.5469 324.3438 367.6094 324.5 Q367.6719 324.6562 367.8047 324.7344 Q367.9375 324.8125 368.2812 324.8125 L368.2812 325 L365.8906 325 L365.8906 324.8125 Q366.25 324.8125 366.375 324.7422 Q366.5 324.6719 366.5781 324.5078 Q366.6562 324.3438 366.6562 323.8906 L366.6562 321.9844 Q366.6562 321.1875 366.5938 320.9531 Q366.5625 320.7812 366.4844 320.7188 Q366.4062 320.6562 366.2656 320.6562 Q366.1094 320.6562 365.8906 320.7344 L365.8281 320.5312 L367.3125 319.9375 L367.5469 319.9375 ZM370.2124 323.2031 Q369.7593 322.9844 369.5171 322.5938 Q369.2749 322.2031 369.2749 321.7188 Q369.2749 320.9844 369.8296 320.4609 Q370.3843 319.9375 371.2437 319.9375 Q371.9468 319.9375 372.4624 320.2812 L373.5093 320.2812 Q373.728 320.2812 373.7671 320.2969 Q373.8062 320.3125 373.8218 320.3438 Q373.853 320.3906 373.853 320.5156 Q373.853 320.6562 373.8374 320.7031 Q373.8218 320.7344 373.7749 320.75 Q373.728 320.7656 373.5093 320.7656 L372.8687 320.7656 Q373.1655 321.1562 373.1655 321.75 Q373.1655 322.4375 372.6421 322.9297 Q372.1187 323.4219 371.228 323.4219 Q370.853 323.4219 370.478 323.3125 Q370.2437 323.5156 370.1577 323.6641 Q370.0718 323.8125 370.0718 323.9219 Q370.0718 324.0156 370.1655 324.1016 Q370.2593 324.1875 370.5093 324.2188 Q370.6655 324.25 371.2593 324.2656 Q372.3687 324.2969 372.6968 324.3438 Q373.1968 324.4062 373.4937 324.7109 Q373.7905 325.0156 373.7905 325.4531 Q373.7905 326.0625 373.228 326.5938 Q372.3843 327.375 371.0405 327.375 Q369.9937 327.375 369.2905 326.9062 Q368.8843 326.6406 368.8843 326.3438 Q368.8843 326.2188 368.9468 326.0938 Q369.0405 325.8906 369.3218 325.5312 Q369.353 325.4844 369.8687 324.9531 Q369.5874 324.7969 369.4702 324.6641 Q369.353 324.5312 369.353 324.3594 Q369.353 324.1719 369.5093 323.9219 Q369.6655 323.6719 370.2124 323.2031 ZM371.1499 320.1875 Q370.7593 320.1875 370.4858 320.5078 Q370.2124 320.8281 370.2124 321.4844 Q370.2124 322.3281 370.5874 322.7969 Q370.853 323.1562 371.2905 323.1562 Q371.6968 323.1562 371.9624 322.8516 Q372.228 322.5469 372.228 321.8906 Q372.228 321.0312 371.853 320.5469 Q371.5874 320.1875 371.1499 320.1875 ZM370.1655 325 Q369.9155 325.2812 369.7827 325.5156 Q369.6499 325.75 369.6499 325.9531 Q369.6499 326.2031 369.9624 326.3906 Q370.4937 326.7344 371.5093 326.7344 Q372.478 326.7344 372.939 326.3906 Q373.3999 326.0469 373.3999 325.6562 Q373.3999 325.375 373.1343 325.2656 Q372.853 325.1406 372.0249 325.125 Q370.8062 325.0938 370.1655 325 ZM375.8374 317.3594 L375.8374 320.9531 Q376.4468 320.3125 376.7905 320.125 Q377.1343 319.9375 377.4937 319.9375 Q377.8999 319.9375 378.2046 320.1641 Q378.5093 320.3906 378.6499 320.8906 Q378.7593 321.2344 378.7593 322.1406 L378.7593 323.8906 Q378.7593 324.3594 378.8374 324.5312 Q378.8843 324.6562 379.0171 324.7344 Q379.1499 324.8125 379.4937 324.8125 L379.4937 325 L377.0718 325 L377.0718 324.8125 L377.1812 324.8125 Q377.5249 324.8125 377.6577 324.7031 Q377.7905 324.5938 377.853 324.3906 Q377.8687 324.3125 377.8687 323.8906 L377.8687 322.1406 Q377.8687 321.3438 377.7827 321.0938 Q377.6968 320.8438 377.5171 320.7109 Q377.3374 320.5781 377.0718 320.5781 Q376.8062 320.5781 376.5249 320.7188 Q376.2437 320.8594 375.8374 321.2812 L375.8374 323.8906 Q375.8374 324.3906 375.8999 324.5156 Q375.9624 324.6406 376.1108 324.7266 Q376.2593 324.8125 376.6343 324.8125 L376.6343 325 L374.1968 325 L374.1968 324.8125 Q374.5249 324.8125 374.7124 324.7031 Q374.8218 324.6562 374.8843 324.5 Q374.9468 324.3438 374.9468 323.8906 L374.9468 319.4375 Q374.9468 318.5938 374.9077 318.3984 Q374.8687 318.2031 374.7905 318.1328 Q374.7124 318.0625 374.5718 318.0625 Q374.4468 318.0625 374.1968 318.1562 L374.1187 317.9688 L375.603 317.3594 L375.8374 317.3594 ZM386.1187 324.4531 Q385.7593 324.8281 385.4155 324.9922 Q385.0718 325.1562 384.6812 325.1562 Q383.8687 325.1562 383.2671 324.4766 Q382.6655 323.7969 382.6655 322.75 Q382.6655 321.6875 383.3374 320.8047 Q384.0093 319.9219 385.0562 319.9219 Q385.6968 319.9219 386.1187 320.3438 L386.1187 319.4375 Q386.1187 318.5938 386.0796 318.3984 Q386.0405 318.2031 385.9546 318.1328 Q385.8687 318.0625 385.7437 318.0625 Q385.603 318.0625 385.3687 318.1562 L385.3062 317.9688 L386.7749 317.3594 L387.0093 317.3594 L387.0093 323.0469 Q387.0093 323.9219 387.0483 324.1094 Q387.0874 324.2969 387.1812 324.375 Q387.2749 324.4531 387.3843 324.4531 Q387.5249 324.4531 387.7749 324.3594 L387.8374 324.5469 L386.3687 325.1562 L386.1187 325.1562 L386.1187 324.4531 ZM386.1187 324.0781 L386.1187 321.5312 Q386.0874 321.1719 385.9312 320.8672 Q385.7749 320.5625 385.5093 320.4141 Q385.2437 320.2656 384.9937 320.2656 Q384.5093 320.2656 384.1499 320.6875 Q383.6499 321.25 383.6499 322.3125 Q383.6499 323.4062 384.1265 323.9844 Q384.603 324.5625 385.1812 324.5625 Q385.6655 324.5625 386.1187 324.0781 ZM389.5874 319.9375 L389.5874 321.0469 Q390.2124 319.9375 390.853 319.9375 Q391.1499 319.9375 391.3452 320.1172 Q391.5405 320.2969 391.5405 320.5312 Q391.5405 320.7344 391.3999 320.8828 Q391.2593 321.0312 391.0718 321.0312 Q390.8843 321.0312 390.6499 320.8438 Q390.4155 320.6562 390.3062 320.6562 Q390.1968 320.6562 390.0874 320.7656 Q389.853 320.9844 389.5874 321.5 L389.5874 323.8438 Q389.5874 324.2656 389.6968 324.4688 Q389.7593 324.6094 389.939 324.7109 Q390.1187 324.8125 390.4468 324.8125 L390.4468 325 L387.9312 325 L387.9312 324.8125 Q388.3062 324.8125 388.4937 324.6875 Q388.6187 324.6094 388.6812 324.4219 Q388.6968 324.3281 388.6968 323.8906 L388.6968 321.9844 Q388.6968 321.125 388.6655 320.9609 Q388.6343 320.7969 388.5405 320.7266 Q388.4468 320.6562 388.3062 320.6562 Q388.1343 320.6562 387.9312 320.7344 L387.8687 320.5312 L389.3687 319.9375 L389.5874 319.9375 ZM394.5942 324.2969 Q393.8442 324.875 393.6567 324.9688 Q393.3599 325.1094 393.0317 325.1094 Q392.5161 325.1094 392.188 324.7578 Q391.8599 324.4062 391.8599 323.8281 Q391.8599 323.4688 392.0161 323.2188 Q392.2505 322.8438 392.7896 322.5234 Q393.3286 322.2031 394.5942 321.7344 L394.5942 321.5469 Q394.5942 320.8125 394.3677 320.5391 Q394.1411 320.2656 393.688 320.2656 Q393.3442 320.2656 393.1567 320.4375 Q392.9536 320.625 392.9536 320.8594 L392.9536 321.1719 Q392.9536 321.4219 392.8286 321.5547 Q392.7036 321.6875 392.5005 321.6875 Q392.2974 321.6875 392.1724 321.5469 Q392.0474 321.4062 392.0474 321.1719 Q392.0474 320.7031 392.5239 320.3203 Q393.0005 319.9375 393.8442 319.9375 Q394.5005 319.9375 394.9224 320.1562 Q395.2349 320.3281 395.3911 320.6719 Q395.4849 320.9062 395.4849 321.625 L395.4849 323.2969 Q395.4849 324 395.5161 324.1562 Q395.5474 324.3125 395.6021 324.3672 Q395.6567 324.4219 395.7505 324.4219 Q395.8286 324.4219 395.8911 324.375 Q396.0005 324.3125 396.3286 323.9844 L396.3286 324.2969 Q395.7349 325.0938 395.188 325.0938 Q394.9224 325.0938 394.7661 324.9141 Q394.6099 324.7344 394.5942 324.2969 ZM394.5942 323.9375 L394.5942 322.0625 Q393.7974 322.3906 393.5474 322.5312 Q393.1255 322.7656 392.9458 323.0234 Q392.7661 323.2812 392.7661 323.5781 Q392.7661 323.9688 392.9927 324.2266 Q393.2192 324.4844 393.5317 324.4844 Q393.938 324.4844 394.5942 323.9375 ZM398.0078 323.2031 Q397.5547 322.9844 397.3125 322.5938 Q397.0703 322.2031 397.0703 321.7188 Q397.0703 320.9844 397.625 320.4609 Q398.1797 319.9375 399.0391 319.9375 Q399.7422 319.9375 400.2578 320.2812 L401.3047 320.2812 Q401.5234 320.2812 401.5625 320.2969 Q401.6016 320.3125 401.6172 320.3438 Q401.6484 320.3906 401.6484 320.5156 Q401.6484 320.6562 401.6328 320.7031 Q401.6172 320.7344 401.5703 320.75 Q401.5234 320.7656 401.3047 320.7656 L400.6641 320.7656 Q400.9609 321.1562 400.9609 321.75 Q400.9609 322.4375 400.4375 322.9297 Q399.9141 323.4219 399.0234 323.4219 Q398.6484 323.4219 398.2734 323.3125 Q398.0391 323.5156 397.9531 323.6641 Q397.8672 323.8125 397.8672 323.9219 Q397.8672 324.0156 397.9609 324.1016 Q398.0547 324.1875 398.3047 324.2188 Q398.4609 324.25 399.0547 324.2656 Q400.1641 324.2969 400.4922 324.3438 Q400.9922 324.4062 401.2891 324.7109 Q401.5859 325.0156 401.5859 325.4531 Q401.5859 326.0625 401.0234 326.5938 Q400.1797 327.375 398.8359 327.375 Q397.7891 327.375 397.0859 326.9062 Q396.6797 326.6406 396.6797 326.3438 Q396.6797 326.2188 396.7422 326.0938 Q396.8359 325.8906 397.1172 325.5312 Q397.1484 325.4844 397.6641 324.9531 Q397.3828 324.7969 397.2656 324.6641 Q397.1484 324.5312 397.1484 324.3594 Q397.1484 324.1719 397.3047 323.9219 Q397.4609 323.6719 398.0078 323.2031 ZM398.9453 320.1875 Q398.5547 320.1875 398.2812 320.5078 Q398.0078 320.8281 398.0078 321.4844 Q398.0078 322.3281 398.3828 322.7969 Q398.6484 323.1562 399.0859 323.1562 Q399.4922 323.1562 399.7578 322.8516 Q400.0234 322.5469 400.0234 321.8906 Q400.0234 321.0312 399.6484 320.5469 Q399.3828 320.1875 398.9453 320.1875 ZM397.9609 325 Q397.7109 325.2812 397.5781 325.5156 Q397.4453 325.75 397.4453 325.9531 Q397.4453 326.2031 397.7578 326.3906 Q398.2891 326.7344 399.3047 326.7344 Q400.2734 326.7344 400.7344 326.3906 Q401.1953 326.0469 401.1953 325.6562 Q401.1953 325.375 400.9297 325.2656 Q400.6484 325.1406 399.8203 325.125 Q398.6016 325.0938 397.9609 325 Z"
                  style="clip-path:url(#clipPath12); stroke:none;"
                  transform="translate(-5,-22)"/>
        </g>
        <g transform="translate(5,22)"
           style="stroke-linecap:butt; font-size:9px; text-rendering:optimizeLegibility; image-rendering:optimizeQuality; color-rendering:optimizeQuality; font-family:'Times New Roman'; stroke-linejoin:round; color-interpolation:linearRGB;">
            <path d="M36 288 L36 1.0035"
                  style="fill:none; clip-path:url(#clipPath10);"/>
            <path d="M408.9975 288 L408.9975 1.0035"
                  style="fill:none; clip-path:url(#clipPath10);"/>
        </g>
        <g transform="translate(5,22)"
           style="font-size:9px; text-rendering:optimizeLegibility; color-rendering:optimizeQuality; image-rendering:optimizeQuality; font-family:'Times New Roman'; color-interpolation:linearRGB;">
            <path d="M36 265.7859 L31.975 265.7859"
                  style="fill:none; clip-path:url(#clipPath10);"/>
            <path d="M25.0469 290.5938 L24.5312 292 L20.2344 292 L20.2344 291.7969 Q22.125 290.0781 22.8984 288.9766 Q23.6719 287.875 23.6719 286.9688 Q23.6719 286.2812 23.25 285.8359 Q22.8281 285.3906 22.2344 285.3906 Q21.7031 285.3906 21.2734 285.7031 Q20.8438 286.0156 20.6406 286.625 L20.4531 286.625 Q20.5781 285.625 21.1328 285.0938 Q21.6875 284.5625 22.5312 284.5625 Q23.4062 284.5625 24 285.1328 Q24.5938 285.7031 24.5938 286.4844 Q24.5938 287.0312 24.3438 287.5781 Q23.9375 288.4531 23.0469 289.4219 Q21.7188 290.8906 21.375 291.1875 L23.2812 291.1875 Q23.8594 291.1875 24.0938 291.1484 Q24.3281 291.1094 24.5156 290.9766 Q24.7031 290.8438 24.8438 290.5938 L25.0469 290.5938 ZM27.6094 288.3281 Q26.75 287.625 26.5 287.1953 Q26.25 286.7656 26.25 286.2969 Q26.25 285.5938 26.7969 285.0781 Q27.3438 284.5625 28.25 284.5625 Q29.125 284.5625 29.6641 285.0391 Q30.2031 285.5156 30.2031 286.1406 Q30.2031 286.5469 29.9141 286.9688 Q29.625 287.3906 28.7031 287.9688 Q29.6562 288.7031 29.9531 289.1094 Q30.3594 289.6562 30.3594 290.2656 Q30.3594 291.0312 29.7812 291.5781 Q29.2031 292.125 28.25 292.125 Q27.2031 292.125 26.625 291.4844 Q26.1719 290.9531 26.1719 290.3438 Q26.1719 289.8594 26.4922 289.3828 Q26.8125 288.9062 27.6094 288.3281 ZM28.4531 287.75 Q29.0938 287.1719 29.2656 286.8359 Q29.4375 286.5 29.4375 286.0781 Q29.4375 285.5156 29.125 285.1953 Q28.8125 284.875 28.2656 284.875 Q27.7188 284.875 27.375 285.1953 Q27.0312 285.5156 27.0312 285.9375 Q27.0312 286.2188 27.1719 286.5 Q27.3125 286.7812 27.5781 287.0312 L28.4531 287.75 ZM27.8594 288.5312 Q27.4219 288.9062 27.2031 289.3516 Q26.9844 289.7969 26.9844 290.3125 Q26.9844 291 27.3672 291.4219 Q27.75 291.8438 28.3281 291.8438 Q28.9062 291.8438 29.2578 291.5156 Q29.6094 291.1875 29.6094 290.7188 Q29.6094 290.3281 29.4062 290.0156 Q29.0312 289.4531 27.8594 288.5312 ZM35.7812 284.7188 L35.3594 285.625 L33.1719 285.625 L32.6875 286.6094 Q34.1094 286.8125 34.9375 287.6719 Q35.6562 288.3906 35.6562 289.3906 Q35.6562 289.9531 35.4219 290.4453 Q35.1875 290.9375 34.8359 291.2812 Q34.4844 291.625 34.0469 291.8281 Q33.4219 292.125 32.7812 292.125 Q32.125 292.125 31.8281 291.9062 Q31.5312 291.6875 31.5312 291.4219 Q31.5312 291.2656 31.6562 291.1484 Q31.7812 291.0312 31.9688 291.0312 Q32.0938 291.0312 32.2031 291.0781 Q32.3125 291.125 32.5625 291.2969 Q32.9688 291.5781 33.375 291.5781 Q34.0156 291.5781 34.4844 291.1016 Q34.9531 290.625 34.9531 289.9375 Q34.9531 289.2812 34.5312 288.7109 Q34.1094 288.1406 33.3594 287.8281 Q32.7812 287.5781 31.7656 287.5469 L33.1719 284.7188 L35.7812 284.7188 Z"
                  style="clip-path:url(#clipPath12); stroke:none;"
                  transform="translate(-5,-22)"/>
        </g>
        <g transform="translate(5,22)"
           style="font-size:9px; text-rendering:optimizeLegibility; color-rendering:optimizeQuality; image-rendering:optimizeQuality; font-family:'Times New Roman'; color-interpolation:linearRGB;">
            <path d="M36 205.1439 L31.975 205.1439"
                  style="fill:none; clip-path:url(#clipPath10);"/>
            <path d="M20.5625 226.1094 Q20.875 225.3594 21.3516 224.9609 Q21.8281 224.5625 22.5312 224.5625 Q23.4062 224.5625 23.875 225.1406 Q24.2344 225.5625 24.2344 226.0469 Q24.2344 226.8438 23.2344 227.6875 Q23.9062 227.9531 24.25 228.4375 Q24.5938 228.9219 24.5938 229.5938 Q24.5938 230.5312 23.9844 231.2188 Q23.2031 232.125 21.7188 232.125 Q20.9844 232.125 20.7188 231.9453 Q20.4531 231.7656 20.4531 231.5469 Q20.4531 231.3906 20.5781 231.2734 Q20.7031 231.1562 20.875 231.1562 Q21.0156 231.1562 21.1562 231.2031 Q21.2344 231.2344 21.5625 231.3984 Q21.8906 231.5625 22.0156 231.6094 Q22.2031 231.6562 22.4375 231.6562 Q22.9844 231.6562 23.3906 231.2344 Q23.7969 230.8125 23.7969 230.2344 Q23.7969 229.8125 23.6094 229.4062 Q23.4688 229.1094 23.2969 228.9531 Q23.0625 228.7344 22.6641 228.5625 Q22.2656 228.3906 21.8438 228.3906 L21.6719 228.3906 L21.6719 228.2188 Q22.0938 228.1719 22.5234 227.9219 Q22.9531 227.6719 23.1406 227.3125 Q23.3281 226.9531 23.3281 226.5312 Q23.3281 225.9844 22.9844 225.6406 Q22.6406 225.2969 22.125 225.2969 Q21.2969 225.2969 20.7344 226.1875 L20.5625 226.1094 ZM25.8906 228.4062 Q25.8906 227.1562 26.2734 226.2578 Q26.6562 225.3594 27.2656 224.9219 Q27.75 224.5625 28.2656 224.5625 Q29.1094 224.5625 29.7812 225.4219 Q30.6094 226.4844 30.6094 228.2812 Q30.6094 229.5625 30.2422 230.4453 Q29.875 231.3281 29.3125 231.7266 Q28.75 232.125 28.2188 232.125 Q27.1719 232.125 26.4844 230.9062 Q25.8906 229.8594 25.8906 228.4062 ZM26.9531 228.5312 Q26.9531 230.0469 27.3281 230.9844 Q27.625 231.7969 28.2344 231.7969 Q28.5312 231.7969 28.8359 231.5312 Q29.1406 231.2656 29.3125 230.6562 Q29.5625 229.7344 29.5625 228.0469 Q29.5625 226.8125 29.2969 225.9688 Q29.1094 225.3594 28.7969 225.0938 Q28.5781 224.9219 28.2656 224.9219 Q27.9062 224.9219 27.6094 225.25 Q27.2344 225.6875 27.0938 226.6484 Q26.9531 227.6094 26.9531 228.5312 ZM31.3906 228.4062 Q31.3906 227.1562 31.7734 226.2578 Q32.1562 225.3594 32.7656 224.9219 Q33.25 224.5625 33.7656 224.5625 Q34.6094 224.5625 35.2812 225.4219 Q36.1094 226.4844 36.1094 228.2812 Q36.1094 229.5625 35.7422 230.4453 Q35.375 231.3281 34.8125 231.7266 Q34.25 232.125 33.7188 232.125 Q32.6719 232.125 31.9844 230.9062 Q31.3906 229.8594 31.3906 228.4062 ZM32.4531 228.5312 Q32.4531 230.0469 32.8281 230.9844 Q33.125 231.7969 33.7344 231.7969 Q34.0312 231.7969 34.3359 231.5312 Q34.6406 231.2656 34.8125 230.6562 Q35.0625 229.7344 35.0625 228.0469 Q35.0625 226.8125 34.7969 225.9688 Q34.6094 225.3594 34.2969 225.0938 Q34.0781 224.9219 33.7656 224.9219 Q33.4062 224.9219 33.1094 225.25 Q32.7344 225.6875 32.5938 226.6484 Q32.4531 227.6094 32.4531 228.5312 Z"
                  style="clip-path:url(#clipPath12); stroke:none;"
                  transform="translate(-5,-22)"/>
        </g>
        <g transform="translate(5,22)"
           style="font-size:9px; text-rendering:optimizeLegibility; color-rendering:optimizeQuality; image-rendering:optimizeQuality; font-family:'Times New Roman'; color-interpolation:linearRGB;">
            <path d="M36 144.5018 L31.975 144.5018"
                  style="fill:none; clip-path:url(#clipPath10);"/>
            <path d="M20.5625 165.1094 Q20.875 164.3594 21.3516 163.9609 Q21.8281 163.5625 22.5312 163.5625 Q23.4062 163.5625 23.875 164.1406 Q24.2344 164.5625 24.2344 165.0469 Q24.2344 165.8438 23.2344 166.6875 Q23.9062 166.9531 24.25 167.4375 Q24.5938 167.9219 24.5938 168.5938 Q24.5938 169.5312 23.9844 170.2188 Q23.2031 171.125 21.7188 171.125 Q20.9844 171.125 20.7188 170.9453 Q20.4531 170.7656 20.4531 170.5469 Q20.4531 170.3906 20.5781 170.2734 Q20.7031 170.1562 20.875 170.1562 Q21.0156 170.1562 21.1562 170.2031 Q21.2344 170.2344 21.5625 170.3984 Q21.8906 170.5625 22.0156 170.6094 Q22.2031 170.6562 22.4375 170.6562 Q22.9844 170.6562 23.3906 170.2344 Q23.7969 169.8125 23.7969 169.2344 Q23.7969 168.8125 23.6094 168.4062 Q23.4688 168.1094 23.2969 167.9531 Q23.0625 167.7344 22.6641 167.5625 Q22.2656 167.3906 21.8438 167.3906 L21.6719 167.3906 L21.6719 167.2188 Q22.0938 167.1719 22.5234 166.9219 Q22.9531 166.6719 23.1406 166.3125 Q23.3281 165.9531 23.3281 165.5312 Q23.3281 164.9844 22.9844 164.6406 Q22.6406 164.2969 22.125 164.2969 Q21.2969 164.2969 20.7344 165.1875 L20.5625 165.1094 ZM26.7969 164.4375 L28.5625 163.5625 L28.7344 163.5625 L28.7344 169.7188 Q28.7344 170.3281 28.7891 170.4766 Q28.8438 170.625 29 170.7109 Q29.1562 170.7969 29.6562 170.7969 L29.6562 171 L26.9219 171 L26.9219 170.7969 Q27.4375 170.7969 27.5859 170.7188 Q27.7344 170.6406 27.7969 170.5078 Q27.8594 170.375 27.8594 169.7188 L27.8594 165.7812 Q27.8594 164.9844 27.7969 164.7656 Q27.7656 164.5938 27.6641 164.5156 Q27.5625 164.4375 27.4219 164.4375 Q27.2188 164.4375 26.875 164.5938 L26.7969 164.4375 ZM35.7812 163.7188 L35.3594 164.625 L33.1719 164.625 L32.6875 165.6094 Q34.1094 165.8125 34.9375 166.6719 Q35.6562 167.3906 35.6562 168.3906 Q35.6562 168.9531 35.4219 169.4453 Q35.1875 169.9375 34.8359 170.2812 Q34.4844 170.625 34.0469 170.8281 Q33.4219 171.125 32.7812 171.125 Q32.125 171.125 31.8281 170.9062 Q31.5312 170.6875 31.5312 170.4219 Q31.5312 170.2656 31.6562 170.1484 Q31.7812 170.0312 31.9688 170.0312 Q32.0938 170.0312 32.2031 170.0781 Q32.3125 170.125 32.5625 170.2969 Q32.9688 170.5781 33.375 170.5781 Q34.0156 170.5781 34.4844 170.1016 Q34.9531 169.625 34.9531 168.9375 Q34.9531 168.2812 34.5312 167.7109 Q34.1094 167.1406 33.3594 166.8281 Q32.7812 166.5781 31.7656 166.5469 L33.1719 163.7188 L35.7812 163.7188 Z"
                  style="clip-path:url(#clipPath12); stroke:none;"
                  transform="translate(-5,-22)"/>
        </g>
        <g transform="translate(5,22)"
           style="font-size:9px; text-rendering:optimizeLegibility; color-rendering:optimizeQuality; image-rendering:optimizeQuality; font-family:'Times New Roman'; color-interpolation:linearRGB;">
            <path d="M36 83.8596 L31.975 83.8596"
                  style="fill:none; clip-path:url(#clipPath10);"/>
            <path d="M20.5625 104.1094 Q20.875 103.3594 21.3516 102.9609 Q21.8281 102.5625 22.5312 102.5625 Q23.4062 102.5625 23.875 103.1406 Q24.2344 103.5625 24.2344 104.0469 Q24.2344 104.8438 23.2344 105.6875 Q23.9062 105.9531 24.25 106.4375 Q24.5938 106.9219 24.5938 107.5938 Q24.5938 108.5312 23.9844 109.2188 Q23.2031 110.125 21.7188 110.125 Q20.9844 110.125 20.7188 109.9453 Q20.4531 109.7656 20.4531 109.5469 Q20.4531 109.3906 20.5781 109.2734 Q20.7031 109.1562 20.875 109.1562 Q21.0156 109.1562 21.1562 109.2031 Q21.2344 109.2344 21.5625 109.3984 Q21.8906 109.5625 22.0156 109.6094 Q22.2031 109.6562 22.4375 109.6562 Q22.9844 109.6562 23.3906 109.2344 Q23.7969 108.8125 23.7969 108.2344 Q23.7969 107.8125 23.6094 107.4062 Q23.4688 107.1094 23.2969 106.9531 Q23.0625 106.7344 22.6641 106.5625 Q22.2656 106.3906 21.8438 106.3906 L21.6719 106.3906 L21.6719 106.2188 Q22.0938 106.1719 22.5234 105.9219 Q22.9531 105.6719 23.1406 105.3125 Q23.3281 104.9531 23.3281 104.5312 Q23.3281 103.9844 22.9844 103.6406 Q22.6406 103.2969 22.125 103.2969 Q21.2969 103.2969 20.7344 104.1875 L20.5625 104.1094 ZM26.0625 104.1094 Q26.375 103.3594 26.8516 102.9609 Q27.3281 102.5625 28.0312 102.5625 Q28.9062 102.5625 29.375 103.1406 Q29.7344 103.5625 29.7344 104.0469 Q29.7344 104.8438 28.7344 105.6875 Q29.4062 105.9531 29.75 106.4375 Q30.0938 106.9219 30.0938 107.5938 Q30.0938 108.5312 29.4844 109.2188 Q28.7031 110.125 27.2188 110.125 Q26.4844 110.125 26.2188 109.9453 Q25.9531 109.7656 25.9531 109.5469 Q25.9531 109.3906 26.0781 109.2734 Q26.2031 109.1562 26.375 109.1562 Q26.5156 109.1562 26.6562 109.2031 Q26.7344 109.2344 27.0625 109.3984 Q27.3906 109.5625 27.5156 109.6094 Q27.7031 109.6562 27.9375 109.6562 Q28.4844 109.6562 28.8906 109.2344 Q29.2969 108.8125 29.2969 108.2344 Q29.2969 107.8125 29.1094 107.4062 Q28.9688 107.1094 28.7969 106.9531 Q28.5625 106.7344 28.1641 106.5625 Q27.7656 106.3906 27.3438 106.3906 L27.1719 106.3906 L27.1719 106.2188 Q27.5938 106.1719 28.0234 105.9219 Q28.4531 105.6719 28.6406 105.3125 Q28.8281 104.9531 28.8281 104.5312 Q28.8281 103.9844 28.4844 103.6406 Q28.1406 103.2969 27.625 103.2969 Q26.7969 103.2969 26.2344 104.1875 L26.0625 104.1094 ZM31.3906 106.4062 Q31.3906 105.1562 31.7734 104.2578 Q32.1562 103.3594 32.7656 102.9219 Q33.25 102.5625 33.7656 102.5625 Q34.6094 102.5625 35.2812 103.4219 Q36.1094 104.4844 36.1094 106.2812 Q36.1094 107.5625 35.7422 108.4453 Q35.375 109.3281 34.8125 109.7266 Q34.25 110.125 33.7188 110.125 Q32.6719 110.125 31.9844 108.9062 Q31.3906 107.8594 31.3906 106.4062 ZM32.4531 106.5312 Q32.4531 108.0469 32.8281 108.9844 Q33.125 109.7969 33.7344 109.7969 Q34.0312 109.7969 34.3359 109.5312 Q34.6406 109.2656 34.8125 108.6562 Q35.0625 107.7344 35.0625 106.0469 Q35.0625 104.8125 34.7969 103.9688 Q34.6094 103.3594 34.2969 103.0938 Q34.0781 102.9219 33.7656 102.9219 Q33.4062 102.9219 33.1094 103.25 Q32.7344 103.6875 32.5938 104.6484 Q32.4531 105.6094 32.4531 106.5312 Z"
                  style="clip-path:url(#clipPath12); stroke:none;"
                  transform="translate(-5,-22)"/>
        </g>
        <g transform="translate(5,22)"
           style="font-size:9px; text-rendering:optimizeLegibility; color-rendering:optimizeQuality; image-rendering:optimizeQuality; font-family:'Times New Roman'; color-interpolation:linearRGB;">
            <path d="M36 23.2176 L31.975 23.2176"
                  style="fill:none; clip-path:url(#clipPath10);"/>
            <path d="M20.5625 44.1094 Q20.875 43.3594 21.3516 42.9609 Q21.8281 42.5625 22.5312 42.5625 Q23.4062 42.5625 23.875 43.1406 Q24.2344 43.5625 24.2344 44.0469 Q24.2344 44.8438 23.2344 45.6875 Q23.9062 45.9531 24.25 46.4375 Q24.5938 46.9219 24.5938 47.5938 Q24.5938 48.5312 23.9844 49.2188 Q23.2031 50.125 21.7188 50.125 Q20.9844 50.125 20.7188 49.9453 Q20.4531 49.7656 20.4531 49.5469 Q20.4531 49.3906 20.5781 49.2734 Q20.7031 49.1562 20.875 49.1562 Q21.0156 49.1562 21.1562 49.2031 Q21.2344 49.2344 21.5625 49.3984 Q21.8906 49.5625 22.0156 49.6094 Q22.2031 49.6562 22.4375 49.6562 Q22.9844 49.6562 23.3906 49.2344 Q23.7969 48.8125 23.7969 48.2344 Q23.7969 47.8125 23.6094 47.4062 Q23.4688 47.1094 23.2969 46.9531 Q23.0625 46.7344 22.6641 46.5625 Q22.2656 46.3906 21.8438 46.3906 L21.6719 46.3906 L21.6719 46.2188 Q22.0938 46.1719 22.5234 45.9219 Q22.9531 45.6719 23.1406 45.3125 Q23.3281 44.9531 23.3281 44.5312 Q23.3281 43.9844 22.9844 43.6406 Q22.6406 43.2969 22.125 43.2969 Q21.2969 43.2969 20.7344 44.1875 L20.5625 44.1094 ZM30.625 47.3125 L30.625 48.0781 L29.6406 48.0781 L29.6406 50 L28.75 50 L28.75 48.0781 L25.6719 48.0781 L25.6719 47.3906 L29.0469 42.5625 L29.6406 42.5625 L29.6406 47.3125 L30.625 47.3125 ZM28.75 47.3125 L28.75 43.7031 L26.2031 47.3125 L28.75 47.3125 ZM35.7812 42.7188 L35.3594 43.625 L33.1719 43.625 L32.6875 44.6094 Q34.1094 44.8125 34.9375 45.6719 Q35.6562 46.3906 35.6562 47.3906 Q35.6562 47.9531 35.4219 48.4453 Q35.1875 48.9375 34.8359 49.2812 Q34.4844 49.625 34.0469 49.8281 Q33.4219 50.125 32.7812 50.125 Q32.125 50.125 31.8281 49.9062 Q31.5312 49.6875 31.5312 49.4219 Q31.5312 49.2656 31.6562 49.1484 Q31.7812 49.0312 31.9688 49.0312 Q32.0938 49.0312 32.2031 49.0781 Q32.3125 49.125 32.5625 49.2969 Q32.9688 49.5781 33.375 49.5781 Q34.0156 49.5781 34.4844 49.1016 Q34.9531 48.625 34.9531 47.9375 Q34.9531 47.2812 34.5312 46.7109 Q34.1094 46.1406 33.3594 45.8281 Q32.7812 45.5781 31.7656 45.5469 L33.1719 42.7188 L35.7812 42.7188 Z"
                  style="clip-path:url(#clipPath12); stroke:none;"
                  transform="translate(-5,-22)"/>
        </g>
    </g>
</svg>
