<?xml version="1.0" encoding="UTF-8"?>
<!DOCTYPE svg PUBLIC '-//W3C//DTD SVG 1.0//EN'
    'http://www.w3.org/TR/2001/REC-SVG-20010904/DTD/svg10.dtd' >

<svg style="stroke-dasharray:none; shape-rendering:auto; font-family:'Dialog'; text-rendering:auto; fill-opacity:1; color-interpolation:auto; color-rendering:auto; font-size:12px; fill:black; stroke:black; image-rendering:auto; stroke-miterlimit:10; stroke-linecap:square; stroke-linejoin:miter; font-style:normal; stroke-width:1; stroke-dashoffset:0; font-weight:normal; stroke-opacity:1;"
     xmlns="http://www.w3.org/2000/svg" contentScriptType="text/ecmascript"
     preserveAspectRatio="xMidYMid meet"
     xmlns:xlink="http://www.w3.org/1999/xlink" zoomAndPan="magnify"
     version="1.0" contentStyleType="text/css">
    <!--Generated by the Batik Graphics2D SVG Generator-->
    <defs id="genericDefs"/>
    <g>
        <defs id="defs1">
            <clipPath clipPathUnits="userSpaceOnUse" id="clipPath1">
                <path d="M0 0 L410 0 L410 375 L0 375 L0 0 Z"/>
            </clipPath>
            <clipPath clipPathUnits="userSpaceOnUse" id="clipPath2">
                <path d="M104 6.0181 L104 337 L400.9777 337 L400.9777 6.0181 Z"/>
            </clipPath>
            <clipPath clipPathUnits="userSpaceOnUse" id="clipPath3">
                <path d="M215 358 L215 374 L288 374 L288 358 Z"/>
            </clipPath>
            <clipPath clipPathUnits="userSpaceOnUse" id="clipPath4">
                <path d="M-14 -3 L-14 13 L59 13 L59 -3 Z"/>
            </clipPath>
            <clipPath clipPathUnits="userSpaceOnUse" id="clipPath5">
                <path d="M-24 -3 L-24 13 L49 13 L49 -3 Z"/>
            </clipPath>
            <clipPath clipPathUnits="userSpaceOnUse" id="clipPath6">
                <path d="M5 5 L415 5 L415 380 L5 380 L5 5 Z"/>
            </clipPath>
            <clipPath clipPathUnits="userSpaceOnUse" id="clipPath7">
                <path d="M1 161 L1 184 L88 184 L88 161 Z"/>
            </clipPath>
            <clipPath clipPathUnits="userSpaceOnUse" id="clipPath8">
                <path d="M-37 -4 L-37 19 L50 19 L50 -4 Z"/>
            </clipPath>
            <clipPath clipPathUnits="userSpaceOnUse" id="clipPath9">
                <path d="M-47 -4 L-47 19 L40 19 L40 -4 Z"/>
            </clipPath>
        </defs>
        <g style="stroke-linecap:butt; font-size:13px; fill:rgb(165,165,165); text-rendering:optimizeLegibility; image-rendering:optimizeQuality; color-rendering:optimizeQuality; font-family:'Times New Roman'; stroke-linejoin:round; stroke-dasharray:2,5; stroke:rgb(165,165,165); color-interpolation:linearRGB;"
           transform="translate(5,5)">
            <path d="M105 334 L398.9777 334"
                  style="fill:none; clip-path:url(#clipPath1);"/>
            <path d="M105 298.002 L398.9777 298.002"
                  style="fill:none; clip-path:url(#clipPath1);"/>
            <path d="M105 262.004 L398.9777 262.004"
                  style="fill:none; clip-path:url(#clipPath1);"/>
            <path d="M105 226.006 L398.9777 226.006"
                  style="fill:none; clip-path:url(#clipPath1);"/>
            <path d="M105 190.0081 L398.9777 190.0081"
                  style="fill:none; clip-path:url(#clipPath1);"/>
            <path d="M105 154.0101 L398.9777 154.0101"
                  style="fill:none; clip-path:url(#clipPath1);"/>
            <path d="M105 118.0121 L398.9777 118.0121"
                  style="fill:none; clip-path:url(#clipPath1);"/>
            <path d="M105 82.0141 L398.9777 82.0141"
                  style="fill:none; clip-path:url(#clipPath1);"/>
            <path d="M105 46.0161 L398.9777 46.0161"
                  style="fill:none; clip-path:url(#clipPath1);"/>
            <path d="M105 10.0181 L398.9777 10.0181"
                  style="fill:none; clip-path:url(#clipPath1);"/>
            <path d="M105 316.001 L398.9777 316.001"
                  style="fill:none; clip-path:url(#clipPath1); stroke:rgb(233,233,233);"/>
            <path d="M105 280.003 L398.9777 280.003"
                  style="fill:none; clip-path:url(#clipPath1); stroke:rgb(233,233,233);"/>
            <path d="M105 244.005 L398.9777 244.005"
                  style="fill:none; clip-path:url(#clipPath1); stroke:rgb(233,233,233);"/>
            <path d="M105 208.007 L398.9777 208.007"
                  style="fill:none; clip-path:url(#clipPath1); stroke:rgb(233,233,233);"/>
            <path d="M105 172.0091 L398.9777 172.0091"
                  style="fill:none; clip-path:url(#clipPath1); stroke:rgb(233,233,233);"/>
            <path d="M105 136.0111 L398.9777 136.0111"
                  style="fill:none; clip-path:url(#clipPath1); stroke:rgb(233,233,233);"/>
            <path d="M105 100.0131 L398.9777 100.0131"
                  style="fill:none; clip-path:url(#clipPath1); stroke:rgb(233,233,233);"/>
            <path d="M105 64.0151 L398.9777 64.0151"
                  style="fill:none; clip-path:url(#clipPath1); stroke:rgb(233,233,233);"/>
            <path d="M105 28.0171 L398.9777 28.0171"
                  style="fill:none; clip-path:url(#clipPath1); stroke:rgb(233,233,233);"/>
        </g>
        <g style="stroke-linecap:butt; font-size:13px; fill:rgb(0,116,204); text-rendering:optimizeLegibility; image-rendering:optimizeQuality; color-rendering:optimizeQuality; font-family:'Times New Roman'; stroke-linejoin:round; stroke:rgb(0,116,204); color-interpolation:linearRGB; stroke-width:1.5;"
           transform="translate(5,5)">
            <path d="M107 13.1908 L108.5246 13.437 L109.8511 13.6528 L111.343 13.8975 L112.8447 14.1458 L114.3393 14.395 L115.7249 14.6278 L117.1597 14.8708 L118.6436 15.124 L120.1226 15.3783 L121.6441 15.642 L122.9841 15.876 L124.4928 16.1414 L126.0075 16.41 L127.4673 16.6708 L128.793 16.9092 L130.3693 17.1949 L131.7046 17.4386 L133.2579 17.7242 L134.6329 17.9788 L136.1414 18.2601 L137.5779 18.5299 L139.0767 18.8134 L140.4531 19.0755 L141.9377 19.3602 L143.4798 19.658 L144.8222 19.919 L146.272 20.2027 L147.7698 20.4978 L149.2351 20.7885 L150.6529 21.0716 L152.2271 21.388 L153.6416 21.6743 L155.1518 21.9819 L156.5203 22.2625 L158.0165 22.5712 L159.4243 22.8635 L160.8958 23.1709 L162.3345 23.4734 L163.8406 23.7921 L165.2912 24.101 L166.7747 24.4188 L168.2459 24.736 L169.5977 25.0291 L171.1471 25.3672 L172.5329 25.6714 L174.0104 25.9977 L175.4246 26.3118 L176.9949 26.6627 L178.3547 26.9684 L179.898 27.3174 L181.3046 27.6373 L182.8431 27.9893 L184.1707 28.2948 L185.6826 28.6446 L187.143 28.9845 L188.6024 29.3261 L190.0565 29.6683 L191.4535 29.9989 L192.9636 30.3583 L194.4028 30.7028 L195.9176 31.0673 L197.2888 31.3991 L198.8042 31.7677 L200.2558 32.1228 L201.7038 32.4789 L203.2162 32.8529 L204.6092 33.1992 L206.0359 33.5556 L207.611 33.9514 L209.0372 34.3116 L210.4958 34.6819 L211.9791 35.0605 L213.3425 35.4102 L214.7959 35.7849 L216.2382 36.1587 L217.7811 36.5605 L219.1425 36.9169 L220.7134 37.3302 L222.131 37.7051 L223.5337 38.0779 L225.0419 38.4807 L226.5563 38.8871 L227.9342 39.2588 L229.3974 39.6554 L230.8254 40.0443 L232.3733 40.4679 L233.7127 40.8362 L235.2511 41.2613 L236.6972 41.6628 L238.1294 42.0623 L239.5627 42.464 L241.0245 42.8756 L242.5741 43.314 L243.9949 43.7179 L245.3974 44.1184 L246.8966 44.5485 L248.3926 44.9796 L249.7354 45.3684 L251.326 45.831 L252.6569 46.2198 L254.2135 46.6767 L255.6992 47.1147 L257.0258 47.5076 L258.5176 47.9513 L260.0193 48.3999 L261.5139 48.8484 L262.8995 49.2661 L264.3343 49.7004 L265.8182 50.1516 L267.2973 50.6032 L268.8187 51.0699 L270.1588 51.4827 L271.6674 51.9493 L273.1822 52.42 L274.642 52.8755 L275.9676 53.2908 L277.5439 53.7867 L278.8792 54.2086 L280.4325 54.7014 L281.8075 55.1393 L283.316 55.6219 L284.7525 56.0833 L286.2513 56.5667 L287.6277 57.0125 L289.1123 57.4951 L290.6544 57.9987 L291.9968 58.4388 L293.4466 58.9159 L294.9444 59.4108 L296.4097 59.8969 L297.8275 60.3691 L299.4017 60.8956 L300.8162 61.3705 L302.3264 61.8796 L303.695 62.3427 L305.1911 62.851 L306.5989 63.3311 L308.0704 63.8348 L309.5091 64.3292 L311.0153 64.8488 L312.4659 65.3512 L313.9493 65.8669 L315.4205 66.3804 L316.7724 66.8539 L318.3217 67.3986 L319.7075 67.8877 L321.1851 68.411 L322.5992 68.9138 L324.1696 69.4742 L325.5293 69.9613 L327.0726 70.5161 L328.4792 71.0237 L330.0178 71.581 L331.3453 72.0635 L332.8572 72.615 L334.3176 73.1497 L335.7771 73.686 L337.2312 74.2222 L338.6281 74.7391 L340.1382 75.3 L341.5775 75.8364 L343.0922 76.403 L344.4634 76.9177 L345.9789 77.4885 L347.4304 78.0372 L348.8784 78.5865 L350.3908 79.1622 L351.7838 79.6943 L353.2104 80.2411 L354.7856 80.8469 L356.2118 81.3974 L357.6704 81.9623 L359.1537 82.5388 L360.5171 83.0704 L361.9705 83.6389 L363.4128 84.205 L364.9557 84.8127 L366.3172 85.3507 L367.888 85.9736 L369.3056 86.5376 L370.7083 87.0974 L372.2166 87.7014 L373.7309 88.3099 L375.1088 88.8654 L376.572 89.4571 L378 90.0365 L379.5479 90.6667 L380.8874 91.2137 L382.4257 91.8439 L383.8718 92.4383 L385.304 93.0289 L386.7373 93.6217 L388.1992 94.2284 L389.7487 94.8735 L391.1695 95.4669 L392.572 96.0545 L394.0713 96.6846 L395.5673 97.3153 L396.9777 97.9119"
                  style="fill:none; clip-path:url(#clipPath2);"/>
        </g>
        <g transform="translate(5,5)"
           style="stroke-linecap:butt; font-size:13px; text-rendering:optimizeLegibility; image-rendering:optimizeQuality; color-rendering:optimizeQuality; font-family:'Times New Roman'; stroke-linejoin:round; color-interpolation:linearRGB;">
            <path d="M105 336 L398.9777 336"
                  style="fill:none; clip-path:url(#clipPath1);"/>
            <path d="M105 8.0181 L398.9777 8.0181"
                  style="fill:none; clip-path:url(#clipPath1);"/>
        </g>
        <g transform="translate(5,5)"
           style="stroke-linecap:butt; font-size:13px; text-rendering:optimizeLegibility; image-rendering:optimizeQuality; color-rendering:optimizeQuality; font-family:'Times New Roman'; stroke-linejoin:round; color-interpolation:linearRGB;">
            <path d="M221.2969 365.2344 L223.2812 364.8125 Q223.4844 365.3125 223.625 365.8438 Q223.7969 366.625 223.9219 367.6719 Q223.9688 368.2031 224.0625 369.9375 Q224.9219 368.9844 225.0938 368.7656 Q225.9844 367.5469 226.125 367.3281 Q226.3594 366.9688 226.4375 366.6875 Q226.5156 366.4844 226.5156 366.2969 Q226.5156 366.125 226.1953 365.8906 Q225.875 365.6562 225.875 365.375 Q225.875 365.1562 226.0547 364.9844 Q226.2344 364.8125 226.4688 364.8125 Q226.75 364.8125 226.9688 365.0469 Q227.1875 365.2812 227.1875 365.6406 Q227.1875 365.9844 227.0781 366.2969 Q226.9062 366.8281 226.4219 367.5703 Q225.9375 368.3125 224.8594 369.5781 Q224.7188 369.7344 223.3438 371.1719 L223.0781 371.1719 Q222.9219 366.8438 222.4062 365.7656 Q222.2344 365.4219 221.8281 365.4219 Q221.6562 365.4219 221.3438 365.4688 L221.2969 365.2344 Z"
                  style="stroke:none; clip-path:url(#clipPath3);"/>
            <path d="M237.6406 363.125 L237.1094 364.9844 L238.1719 364.9844 L238.0625 365.4062 L237 365.4062 L235.8125 369.4375 Q235.625 370.0938 235.625 370.2812 Q235.625 370.3906 235.6797 370.4531 Q235.7344 370.5156 235.8125 370.5156 Q235.9844 370.5156 236.2656 370.2812 Q236.4219 370.1406 237 369.4375 L237.2188 369.6094 Q236.5938 370.5312 236.0312 370.9062 Q235.6406 371.1719 235.2656 371.1719 Q234.9531 371.1719 234.7656 370.9766 Q234.5781 370.7812 234.5781 370.5 Q234.5781 370.125 234.7969 369.3594 L235.9375 365.4062 L234.9062 365.4062 L234.9688 365.1406 Q235.7188 364.9375 236.2188 364.5312 Q236.7188 364.125 237.3438 363.125 L237.6406 363.125 Z"
                  style="clip-path:url(#clipPath3); stroke:none;"/>
            <path d="M2.8792 12.6685 L2.6698 13 Q0 11.3423 0 6.37 L0 6.5 L0 6.63 Q0 1.6403 2.6698 0 L2.8792 0.3141 Q1.6926 1.3262 1.2913 3.1584 Q1.047 4.2926 1.047 6.37 L1.047 6.5 L1.047 6.63 Q1.047 8.6899 1.2913 9.8242 Q1.6926 11.6564 2.8792 12.6685 Z"
                  style="clip-path:url(#clipPath4); stroke:none;"
                  transform="translate(229,361)"/>
            <path d="M0 0.3315 L0.2094 0 Q2.8792 1.6577 2.8792 6.63 L2.8792 6.5 L2.8792 6.37 Q2.8792 11.3597 0.2094 13 L0 12.6859 Q1.1866 11.6738 1.5879 9.8416 Q1.8322 8.7074 1.8322 6.63 L1.8322 6.5 L1.8322 6.37 Q1.8322 4.3101 1.5879 3.1758 Q1.1866 1.3436 0 0.3315 Z"
                  style="clip-path:url(#clipPath5); stroke:none;"
                  transform="translate(239,361)"/>
            <path d="M249.1562 373.7812 L246.1562 373.7812 L246.1562 361.5156 L249.1562 361.5156 L249.1562 362.0625 L247.1719 362.0625 L247.1719 373.25 L249.1562 373.25 L249.1562 373.7812 ZM251.959 361.2812 L251.959 367.5 L253.5527 366.0625 Q254.0527 365.5938 254.1309 365.4688 Q254.1934 365.3906 254.1934 365.3125 Q254.1934 365.1719 254.0762 365.0703 Q253.959 364.9688 253.709 364.9531 L253.709 364.7344 L256.4277 364.7344 L256.4277 364.9531 Q255.8652 364.9688 255.4902 365.125 Q255.1152 365.2812 254.6777 365.6875 L253.0684 367.1719 L254.6777 369.2031 Q255.3496 370.0469 255.5684 370.2656 Q255.8965 370.5938 256.1465 370.6875 Q256.3184 370.75 256.7402 370.75 L256.7402 371 L253.709 371 L253.709 370.75 Q253.959 370.75 254.0527 370.6797 Q254.1465 370.6094 254.1465 370.4688 Q254.1465 370.3125 253.8809 369.9688 L251.959 367.5156 L251.959 369.5938 Q251.959 370.2031 252.0449 370.3906 Q252.1309 370.5781 252.2871 370.6641 Q252.4434 370.75 252.959 370.75 L252.959 371 L249.7715 371 L249.7715 370.75 Q250.2559 370.75 250.4902 370.6406 Q250.6465 370.5625 250.709 370.4062 Q250.8184 370.1719 250.8184 369.625 L250.8184 363.9219 Q250.8184 362.8438 250.7715 362.6016 Q250.7246 362.3594 250.6152 362.2656 Q250.5059 362.1719 250.3184 362.1719 Q250.1777 362.1719 249.8965 362.2812 L249.7715 362.0469 L251.6309 361.2812 L251.959 361.2812 ZM258.959 365.8906 Q259.6465 365.2031 259.7715 365.0938 Q260.0684 364.8438 260.4277 364.6953 Q260.7871 364.5469 261.1309 364.5469 Q261.7246 364.5469 262.1465 364.8906 Q262.5684 365.2344 262.709 365.8906 Q263.4121 365.0625 263.8965 364.8047 Q264.3809 364.5469 264.8965 364.5469 Q265.3965 364.5469 265.7871 364.8047 Q266.1777 365.0625 266.3965 365.6406 Q266.5527 366.0469 266.5527 366.8906 L266.5527 369.5781 Q266.5527 370.1719 266.6309 370.3906 Q266.709 370.5469 266.8887 370.6484 Q267.0684 370.75 267.4902 370.75 L267.4902 371 L264.3965 371 L264.3965 370.75 L264.5371 370.75 Q264.9277 370.75 265.1621 370.5938 Q265.3184 370.4844 265.3809 370.25 Q265.4121 370.125 265.4121 369.5781 L265.4121 366.8906 Q265.4121 366.125 265.2246 365.8125 Q264.959 365.375 264.3809 365.375 Q264.0059 365.375 263.6465 365.5547 Q263.2871 365.7344 262.7559 366.2344 L262.7402 366.2969 L262.7559 366.5938 L262.7559 369.5781 Q262.7559 370.2344 262.8262 370.3906 Q262.8965 370.5469 263.0996 370.6484 Q263.3027 370.75 263.7715 370.75 L263.7715 371 L260.6152 371 L260.6152 370.75 Q261.1309 370.75 261.3262 370.625 Q261.5215 370.5 261.5996 370.2656 Q261.6309 370.1406 261.6309 369.5781 L261.6309 366.8906 Q261.6309 366.125 261.4121 365.7969 Q261.0996 365.3594 260.5684 365.3594 Q260.1934 365.3594 259.834 365.5469 Q259.2715 365.8594 258.959 366.2344 L258.959 369.5781 Q258.959 370.2031 259.0449 370.3828 Q259.1309 370.5625 259.2949 370.6562 Q259.459 370.75 259.9746 370.75 L259.9746 371 L256.8809 371 L256.8809 370.75 Q257.3184 370.75 257.4824 370.6562 Q257.6465 370.5625 257.7402 370.3672 Q257.834 370.1719 257.834 369.5781 L257.834 367.1875 Q257.834 366.1562 257.7715 365.8594 Q257.7246 365.6406 257.623 365.5547 Q257.5215 365.4688 257.334 365.4688 Q257.1465 365.4688 256.8809 365.5625 L256.7715 365.3125 L258.6621 364.5469 L258.959 364.5469 L258.959 365.8906 ZM271.4736 361.2812 L268.1143 371.1875 L267.5674 371.1875 L270.9268 361.2812 L271.4736 361.2812 ZM273.7227 361.2812 L273.7227 365.8594 Q274.4727 365.0312 274.918 364.7891 Q275.3633 364.5469 275.8164 364.5469 Q276.3477 364.5469 276.7305 364.8438 Q277.1133 365.1406 277.3008 365.7656 Q277.4258 366.2031 277.4258 367.375 L277.4258 369.5781 Q277.4258 370.1719 277.5195 370.3906 Q277.582 370.5625 277.7461 370.6562 Q277.9102 370.75 278.3477 370.75 L278.3477 371 L275.2695 371 L275.2695 370.75 L275.4258 370.75 Q275.8633 370.75 276.0352 370.6172 Q276.207 370.4844 276.2695 370.2344 Q276.2852 370.125 276.2852 369.5781 L276.2852 367.375 Q276.2852 366.3438 276.1836 366.0234 Q276.082 365.7031 275.8477 365.5391 Q275.6133 365.375 275.2852 365.375 Q274.9414 365.375 274.582 365.5547 Q274.2227 365.7344 273.7227 366.2812 L273.7227 369.5781 Q273.7227 370.2344 273.793 370.3906 Q273.8633 370.5469 274.0586 370.6484 Q274.2539 370.75 274.7227 370.75 L274.7227 371 L271.6289 371 L271.6289 370.75 Q272.0508 370.75 272.2852 370.625 Q272.4258 370.5625 272.5039 370.3672 Q272.582 370.1719 272.582 369.5781 L272.582 363.9219 Q272.582 362.8438 272.5352 362.6016 Q272.4883 362.3594 272.3789 362.2656 Q272.2695 362.1719 272.0977 362.1719 Q271.9414 362.1719 271.6289 362.2812 L271.5352 362.0469 L273.4102 361.2812 L273.7227 361.2812 ZM278.957 361.5156 L281.957 361.5156 L281.957 373.7812 L278.957 373.7812 L278.957 373.25 L280.9414 373.25 L280.9414 362.0625 L278.957 362.0625 L278.957 361.5156 Z"
                  style="clip-path:url(#clipPath3); stroke:none;"/>
        </g>
        <g transform="translate(5,5)"
           style="font-size:13px; text-rendering:optimizeLegibility; color-rendering:optimizeQuality; image-rendering:optimizeQuality; font-family:'Times New Roman'; color-interpolation:linearRGB;">
            <path d="M135.9978 336 L135.9978 340.025"
                  style="fill:none; clip-path:url(#clipPath1);"/>
            <path d="M135.3438 357.9531 L134.5938 360 L128.3438 360 L128.3438 359.7031 Q131.1094 357.1875 132.2344 355.5938 Q133.3594 354 133.3594 352.6875 Q133.3594 351.6719 132.7422 351.0234 Q132.125 350.375 131.2656 350.375 Q130.4844 350.375 129.8594 350.8359 Q129.2344 351.2969 128.9375 352.1719 L128.6562 352.1719 Q128.8438 350.7344 129.6562 349.9609 Q130.4688 349.1875 131.6719 349.1875 Q132.9688 349.1875 133.8281 350.0156 Q134.6875 350.8438 134.6875 351.9688 Q134.6875 352.7656 134.3125 353.5781 Q133.7344 354.8438 132.4375 356.25 Q130.5 358.375 130.0156 358.8125 L132.7812 358.8125 Q133.625 358.8125 133.9609 358.75 Q134.2969 358.6875 134.5703 358.5 Q134.8438 358.3125 135.0469 357.9531 L135.3438 357.9531 ZM137.6094 349.4062 L143.2969 349.4062 L143.2969 349.7031 L139.7656 360.2188 L138.8906 360.2188 L142.0469 350.6719 L139.1406 350.6719 Q138.25 350.6719 137.875 350.8906 Q137.2188 351.25 136.8281 352 L136.5938 351.9062 L137.6094 349.4062 ZM144.5781 354.7656 Q144.5781 352.9531 145.125 351.6406 Q145.6719 350.3281 146.5781 349.6875 Q147.2812 349.1875 148.0312 349.1875 Q149.25 349.1875 150.2188 350.4219 Q151.4375 351.9688 151.4375 354.5938 Q151.4375 356.4375 150.9062 357.7266 Q150.375 359.0156 149.5469 359.6016 Q148.7188 360.1875 147.9531 360.1875 Q146.4375 360.1875 145.4375 358.3906 Q144.5781 356.8906 144.5781 354.7656 ZM146.1094 354.9531 Q146.1094 357.1406 146.6562 358.5312 Q147.0938 359.6875 147.9844 359.6875 Q148.4062 359.6875 148.8594 359.3125 Q149.3125 358.9375 149.5469 358.0469 Q149.9062 356.7031 149.9062 354.25 Q149.9062 352.4375 149.5312 351.2344 Q149.25 350.3281 148.7969 349.9531 Q148.4844 349.7031 148.0312 349.7031 Q147.5 349.7031 147.0781 350.1719 Q146.5156 350.8281 146.3125 352.2188 Q146.1094 353.6094 146.1094 354.9531 Z"
                  style="clip-path:url(#clipPath6); stroke:none;"
                  transform="translate(-5,-5)"/>
        </g>
        <g transform="translate(5,5)"
           style="font-size:13px; text-rendering:optimizeLegibility; color-rendering:optimizeQuality; image-rendering:optimizeQuality; font-family:'Times New Roman'; color-interpolation:linearRGB;">
            <path d="M222.9911 336 L222.9911 340.025"
                  style="fill:none; clip-path:url(#clipPath1);"/>
            <path d="M215.8125 351.4219 Q216.2656 350.3438 216.9609 349.7656 Q217.6562 349.1875 218.6875 349.1875 Q219.9531 349.1875 220.6406 350.0156 Q221.1562 350.625 221.1562 351.3281 Q221.1562 352.4844 219.7031 353.7188 Q220.6719 354.1094 221.1719 354.8203 Q221.6719 355.5312 221.6719 356.4844 Q221.6719 357.8594 220.7969 358.875 Q219.6562 360.1875 217.5 360.1875 Q216.4219 360.1875 216.0391 359.9219 Q215.6562 359.6562 215.6562 359.3438 Q215.6562 359.125 215.8359 358.9531 Q216.0156 358.7812 216.2812 358.7812 Q216.4688 358.7812 216.6719 358.8438 Q216.8125 358.875 217.2812 359.125 Q217.75 359.375 217.9219 359.4219 Q218.2188 359.5 218.5469 359.5 Q219.3438 359.5 219.9297 358.8828 Q220.5156 358.2656 220.5156 357.4219 Q220.5156 356.8125 220.25 356.2188 Q220.0469 355.7812 219.7969 355.5625 Q219.4688 355.25 218.8828 354.9922 Q218.2969 354.7344 217.6875 354.7344 L217.4375 354.7344 L217.4375 354.5 Q218.0469 354.4219 218.6719 354.0547 Q219.2969 353.6875 219.5781 353.1719 Q219.8594 352.6562 219.8594 352.0469 Q219.8594 351.2344 219.3516 350.7422 Q218.8438 350.25 218.0938 350.25 Q216.8906 350.25 216.0781 351.5469 L215.8125 351.4219 ZM223.5781 354.7656 Q223.5781 352.9531 224.125 351.6406 Q224.6719 350.3281 225.5781 349.6875 Q226.2812 349.1875 227.0312 349.1875 Q228.25 349.1875 229.2188 350.4219 Q230.4375 351.9688 230.4375 354.5938 Q230.4375 356.4375 229.9062 357.7266 Q229.375 359.0156 228.5469 359.6016 Q227.7188 360.1875 226.9531 360.1875 Q225.4375 360.1875 224.4375 358.3906 Q223.5781 356.8906 223.5781 354.7656 ZM225.1094 354.9531 Q225.1094 357.1406 225.6562 358.5312 Q226.0938 359.6875 226.9844 359.6875 Q227.4062 359.6875 227.8594 359.3125 Q228.3125 358.9375 228.5469 358.0469 Q228.9062 356.7031 228.9062 354.25 Q228.9062 352.4375 228.5312 351.2344 Q228.25 350.3281 227.7969 349.9531 Q227.4844 349.7031 227.0312 349.7031 Q226.5 349.7031 226.0781 350.1719 Q225.5156 350.8281 225.3125 352.2188 Q225.1094 353.6094 225.1094 354.9531 ZM231.5781 354.7656 Q231.5781 352.9531 232.125 351.6406 Q232.6719 350.3281 233.5781 349.6875 Q234.2812 349.1875 235.0312 349.1875 Q236.25 349.1875 237.2188 350.4219 Q238.4375 351.9688 238.4375 354.5938 Q238.4375 356.4375 237.9062 357.7266 Q237.375 359.0156 236.5469 359.6016 Q235.7188 360.1875 234.9531 360.1875 Q233.4375 360.1875 232.4375 358.3906 Q231.5781 356.8906 231.5781 354.7656 ZM233.1094 354.9531 Q233.1094 357.1406 233.6562 358.5312 Q234.0938 359.6875 234.9844 359.6875 Q235.4062 359.6875 235.8594 359.3125 Q236.3125 358.9375 236.5469 358.0469 Q236.9062 356.7031 236.9062 354.25 Q236.9062 352.4375 236.5312 351.2344 Q236.25 350.3281 235.7969 349.9531 Q235.4844 349.7031 235.0312 349.7031 Q234.5 349.7031 234.0781 350.1719 Q233.5156 350.8281 233.3125 352.2188 Q233.1094 353.6094 233.1094 354.9531 Z"
                  style="clip-path:url(#clipPath6); stroke:none;"
                  transform="translate(-5,-5)"/>
        </g>
        <g transform="translate(5,5)"
           style="font-size:13px; text-rendering:optimizeLegibility; color-rendering:optimizeQuality; image-rendering:optimizeQuality; font-family:'Times New Roman'; color-interpolation:linearRGB;">
            <path d="M309.9844 336 L309.9844 340.025"
                  style="fill:none; clip-path:url(#clipPath1);"/>
            <path d="M302.8125 351.4219 Q303.2656 350.3438 303.9609 349.7656 Q304.6562 349.1875 305.6875 349.1875 Q306.9531 349.1875 307.6406 350.0156 Q308.1562 350.625 308.1562 351.3281 Q308.1562 352.4844 306.7031 353.7188 Q307.6719 354.1094 308.1719 354.8203 Q308.6719 355.5312 308.6719 356.4844 Q308.6719 357.8594 307.7969 358.875 Q306.6562 360.1875 304.5 360.1875 Q303.4219 360.1875 303.0391 359.9219 Q302.6562 359.6562 302.6562 359.3438 Q302.6562 359.125 302.8359 358.9531 Q303.0156 358.7812 303.2812 358.7812 Q303.4688 358.7812 303.6719 358.8438 Q303.8125 358.875 304.2812 359.125 Q304.75 359.375 304.9219 359.4219 Q305.2188 359.5 305.5469 359.5 Q306.3438 359.5 306.9297 358.8828 Q307.5156 358.2656 307.5156 357.4219 Q307.5156 356.8125 307.25 356.2188 Q307.0469 355.7812 306.7969 355.5625 Q306.4688 355.25 305.8828 354.9922 Q305.2969 354.7344 304.6875 354.7344 L304.4375 354.7344 L304.4375 354.5 Q305.0469 354.4219 305.6719 354.0547 Q306.2969 353.6875 306.5781 353.1719 Q306.8594 352.6562 306.8594 352.0469 Q306.8594 351.2344 306.3516 350.7422 Q305.8438 350.25 305.0938 350.25 Q303.8906 350.25 303.0781 351.5469 L302.8125 351.4219 ZM310.8125 351.4219 Q311.2656 350.3438 311.9609 349.7656 Q312.6562 349.1875 313.6875 349.1875 Q314.9531 349.1875 315.6406 350.0156 Q316.1562 350.625 316.1562 351.3281 Q316.1562 352.4844 314.7031 353.7188 Q315.6719 354.1094 316.1719 354.8203 Q316.6719 355.5312 316.6719 356.4844 Q316.6719 357.8594 315.7969 358.875 Q314.6562 360.1875 312.5 360.1875 Q311.4219 360.1875 311.0391 359.9219 Q310.6562 359.6562 310.6562 359.3438 Q310.6562 359.125 310.8359 358.9531 Q311.0156 358.7812 311.2812 358.7812 Q311.4688 358.7812 311.6719 358.8438 Q311.8125 358.875 312.2812 359.125 Q312.75 359.375 312.9219 359.4219 Q313.2188 359.5 313.5469 359.5 Q314.3438 359.5 314.9297 358.8828 Q315.5156 358.2656 315.5156 357.4219 Q315.5156 356.8125 315.25 356.2188 Q315.0469 355.7812 314.7969 355.5625 Q314.4688 355.25 313.8828 354.9922 Q313.2969 354.7344 312.6875 354.7344 L312.4375 354.7344 L312.4375 354.5 Q313.0469 354.4219 313.6719 354.0547 Q314.2969 353.6875 314.5781 353.1719 Q314.8594 352.6562 314.8594 352.0469 Q314.8594 351.2344 314.3516 350.7422 Q313.8438 350.25 313.0938 350.25 Q311.8906 350.25 311.0781 351.5469 L310.8125 351.4219 ZM318.5781 354.7656 Q318.5781 352.9531 319.125 351.6406 Q319.6719 350.3281 320.5781 349.6875 Q321.2812 349.1875 322.0312 349.1875 Q323.25 349.1875 324.2188 350.4219 Q325.4375 351.9688 325.4375 354.5938 Q325.4375 356.4375 324.9062 357.7266 Q324.375 359.0156 323.5469 359.6016 Q322.7188 360.1875 321.9531 360.1875 Q320.4375 360.1875 319.4375 358.3906 Q318.5781 356.8906 318.5781 354.7656 ZM320.1094 354.9531 Q320.1094 357.1406 320.6562 358.5312 Q321.0938 359.6875 321.9844 359.6875 Q322.4062 359.6875 322.8594 359.3125 Q323.3125 358.9375 323.5469 358.0469 Q323.9062 356.7031 323.9062 354.25 Q323.9062 352.4375 323.5312 351.2344 Q323.25 350.3281 322.7969 349.9531 Q322.4844 349.7031 322.0312 349.7031 Q321.5 349.7031 321.0781 350.1719 Q320.5156 350.8281 320.3125 352.2188 Q320.1094 353.6094 320.1094 354.9531 Z"
                  style="clip-path:url(#clipPath6); stroke:none;"
                  transform="translate(-5,-5)"/>
        </g>
        <g transform="translate(5,5)"
           style="font-size:13px; text-rendering:optimizeLegibility; color-rendering:optimizeQuality; image-rendering:optimizeQuality; font-family:'Times New Roman'; color-interpolation:linearRGB;">
            <path d="M396.9777 336 L396.9777 340.025"
                  style="fill:none; clip-path:url(#clipPath1);"/>
            <path d="M389.8125 351.4219 Q390.2656 350.3438 390.9609 349.7656 Q391.6562 349.1875 392.6875 349.1875 Q393.9531 349.1875 394.6406 350.0156 Q395.1562 350.625 395.1562 351.3281 Q395.1562 352.4844 393.7031 353.7188 Q394.6719 354.1094 395.1719 354.8203 Q395.6719 355.5312 395.6719 356.4844 Q395.6719 357.8594 394.7969 358.875 Q393.6562 360.1875 391.5 360.1875 Q390.4219 360.1875 390.0391 359.9219 Q389.6562 359.6562 389.6562 359.3438 Q389.6562 359.125 389.8359 358.9531 Q390.0156 358.7812 390.2812 358.7812 Q390.4688 358.7812 390.6719 358.8438 Q390.8125 358.875 391.2812 359.125 Q391.75 359.375 391.9219 359.4219 Q392.2188 359.5 392.5469 359.5 Q393.3438 359.5 393.9297 358.8828 Q394.5156 358.2656 394.5156 357.4219 Q394.5156 356.8125 394.25 356.2188 Q394.0469 355.7812 393.7969 355.5625 Q393.4688 355.25 392.8828 354.9922 Q392.2969 354.7344 391.6875 354.7344 L391.4375 354.7344 L391.4375 354.5 Q392.0469 354.4219 392.6719 354.0547 Q393.2969 353.6875 393.5781 353.1719 Q393.8594 352.6562 393.8594 352.0469 Q393.8594 351.2344 393.3516 350.7422 Q392.8438 350.25 392.0938 350.25 Q390.8906 350.25 390.0781 351.5469 L389.8125 351.4219 ZM404.1719 349.1875 L404.1719 349.4688 Q403.1406 349.5781 402.4922 349.8828 Q401.8438 350.1875 401.2031 350.8203 Q400.5625 351.4531 400.1484 352.2344 Q399.7344 353.0156 399.4531 354.0781 Q400.5781 353.3125 401.7031 353.3125 Q402.7969 353.3125 403.5938 354.1875 Q404.3906 355.0625 404.3906 356.4375 Q404.3906 357.7656 403.5781 358.8594 Q402.6094 360.1875 401.0156 360.1875 Q399.9375 360.1875 399.1719 359.4688 Q397.6875 358.0625 397.6875 355.8438 Q397.6875 354.4219 398.2578 353.1406 Q398.8281 351.8594 399.8906 350.8672 Q400.9531 349.875 401.9219 349.5312 Q402.8906 349.1875 403.7188 349.1875 L404.1719 349.1875 ZM399.3125 354.6562 Q399.1719 355.7031 399.1719 356.3594 Q399.1719 357.1094 399.4531 357.9844 Q399.7344 358.8594 400.2812 359.375 Q400.6719 359.75 401.25 359.75 Q401.9219 359.75 402.4609 359.1094 Q403 358.4688 403 357.2812 Q403 355.9375 402.4688 354.9609 Q401.9375 353.9844 400.9531 353.9844 Q400.6562 353.9844 400.3203 354.1094 Q399.9844 354.2344 399.3125 354.6562 ZM405.5781 354.7656 Q405.5781 352.9531 406.125 351.6406 Q406.6719 350.3281 407.5781 349.6875 Q408.2812 349.1875 409.0312 349.1875 Q410.25 349.1875 411.2188 350.4219 Q412.4375 351.9688 412.4375 354.5938 Q412.4375 356.4375 411.9062 357.7266 Q411.375 359.0156 410.5469 359.6016 Q409.7188 360.1875 408.9531 360.1875 Q407.4375 360.1875 406.4375 358.3906 Q405.5781 356.8906 405.5781 354.7656 ZM407.1094 354.9531 Q407.1094 357.1406 407.6562 358.5312 Q408.0938 359.6875 408.9844 359.6875 Q409.4062 359.6875 409.8594 359.3125 Q410.3125 358.9375 410.5469 358.0469 Q410.9062 356.7031 410.9062 354.25 Q410.9062 352.4375 410.5312 351.2344 Q410.25 350.3281 409.7969 349.9531 Q409.4844 349.7031 409.0312 349.7031 Q408.5 349.7031 408.0781 350.1719 Q407.5156 350.8281 407.3125 352.2188 Q407.1094 353.6094 407.1094 354.9531 Z"
                  style="clip-path:url(#clipPath6); stroke:none;"
                  transform="translate(-5,-5)"/>
        </g>
        <g transform="translate(5,5)"
           style="stroke-linecap:butt; font-size:13px; text-rendering:optimizeLegibility; image-rendering:optimizeQuality; color-rendering:optimizeQuality; font-family:'Times New Roman'; stroke-linejoin:round; color-interpolation:linearRGB;">
            <path d="M105 336 L105 8.0181"
                  style="fill:none; clip-path:url(#clipPath1);"/>
            <path d="M398.9777 336 L398.9777 8.0181"
                  style="fill:none; clip-path:url(#clipPath1);"/>
        </g>
        <g transform="translate(5,5)"
           style="stroke-linecap:butt; font-size:13px; text-rendering:optimizeLegibility; image-rendering:optimizeQuality; color-rendering:optimizeQuality; font-family:'Times New Roman'; stroke-linejoin:round; color-interpolation:linearRGB;">
            <path d="M11.5469 166.2188 L10.4531 169.8906 L11.6719 169.8906 Q12.5 169.8906 12.9062 169.6406 Q13.3125 169.3906 13.7344 168.5625 L14 168.5625 L13.0312 171.9375 L12.7656 171.9375 Q12.8594 171.5312 12.8594 171.2656 Q12.8594 170.8438 12.5859 170.6172 Q12.3125 170.3906 11.5469 170.3906 L10.3281 170.3906 L9.5156 173.1875 Q9.2969 173.9219 9.2969 174.1719 Q9.2969 174.4219 9.4844 174.5625 Q9.6719 174.7031 10.4062 174.75 L10.3281 175 L6.6562 175 L6.75 174.75 Q7.2812 174.7344 7.4531 174.6562 Q7.7344 174.5312 7.8594 174.3438 Q8.0469 174.0625 8.2969 173.1875 L9.9375 167.5938 Q10.125 166.9219 10.125 166.5312 Q10.125 166.3594 10.0391 166.2344 Q9.9531 166.1094 9.7812 166.0469 Q9.6094 165.9844 9.0781 165.9844 L9.1719 165.7344 L16.3594 165.7344 L15.6719 168.0781 L15.4219 168.0781 Q15.4844 167.6562 15.4844 167.375 Q15.4844 166.9219 15.2344 166.6641 Q14.9844 166.4062 14.6094 166.2969 Q14.3281 166.2188 13.375 166.2188 L11.5469 166.2188 Z"
                  style="stroke:none; clip-path:url(#clipPath7);"/>
            <path d="M17.8594 175.8125 L17.4375 177.2656 L18.2812 177.2656 L18.1875 177.6094 L17.3594 177.6094 L16.4219 180.7812 Q16.2812 181.2812 16.2812 181.4375 Q16.2812 181.5312 16.3203 181.5781 Q16.3594 181.625 16.4219 181.625 Q16.5625 181.625 16.7812 181.4375 Q16.9062 181.3281 17.3594 180.7812 L17.5312 180.9062 Q17.0312 181.625 16.5938 181.9219 Q16.2969 182.125 15.9844 182.125 Q15.75 182.125 15.6016 181.9766 Q15.4531 181.8281 15.4531 181.6094 Q15.4531 181.3125 15.625 180.7188 L16.5156 177.6094 L15.7031 177.6094 L15.7656 177.3906 Q16.3594 177.2344 16.75 176.9141 Q17.1406 176.5938 17.625 175.8125 L17.8594 175.8125 ZM19.8062 177.1406 Q19.9937 177.4531 20.064 177.7266 Q20.1343 178 20.2124 178.7812 L20.4468 181.4375 Q20.7593 181.0469 21.3687 180.2031 Q21.6655 179.7969 22.103 179.0938 Q22.3687 178.6719 22.4312 178.5 Q22.4624 178.4062 22.4624 178.3125 Q22.4624 178.25 22.4233 178.2188 Q22.3843 178.1875 22.228 178.1328 Q22.0718 178.0781 21.9624 177.9453 Q21.853 177.8125 21.853 177.625 Q21.853 177.4062 21.9858 177.2734 Q22.1187 177.1406 22.3062 177.1406 Q22.5405 177.1406 22.7124 177.3359 Q22.8843 177.5312 22.8843 177.875 Q22.8843 178.2969 22.5952 178.8438 Q22.3062 179.3906 21.478 180.5156 Q20.6499 181.6406 19.4624 182.9844 Q18.6655 183.8906 18.2671 184.1328 Q17.8687 184.375 17.5874 184.375 Q17.4312 184.375 17.3062 184.25 Q17.1812 184.125 17.1812 183.9531 Q17.1812 183.75 17.353 183.5781 Q17.5249 183.4062 17.728 183.4062 Q17.8374 183.4062 17.8999 183.4531 Q17.9468 183.4844 18.0015 183.6094 Q18.0562 183.7344 18.0874 183.7656 Q18.1187 183.7969 18.1655 183.7969 Q18.1968 183.7969 18.2749 183.75 Q18.5718 183.5625 18.9624 183.1719 Q19.478 182.6406 19.728 182.3125 L19.4155 178.9062 Q19.353 178.0625 19.1968 177.875 Q19.0405 177.6875 18.6968 177.6875 Q18.5718 177.6875 18.2905 177.7188 L18.2437 177.5312 L19.8062 177.1406 ZM23.5166 177.4375 L25.3604 177.1406 L24.5947 179.75 Q25.5322 178.1406 26.2979 177.5 Q26.7354 177.1406 27.0166 177.1406 Q27.1885 177.1406 27.29 177.2422 Q27.3916 177.3438 27.3916 177.5469 Q27.3916 177.9062 27.2041 178.2188 Q27.0791 178.4688 26.8447 178.4688 Q26.7197 178.4688 26.626 178.3828 Q26.5322 178.2969 26.5166 178.1406 Q26.501 178.0312 26.4697 178 Q26.4229 177.9531 26.3604 177.9531 Q26.2666 177.9531 26.1885 178 Q26.0479 178.0781 25.7666 178.4219 Q25.3291 178.9531 24.7979 179.7812 Q24.5791 180.1406 24.4229 180.5938 Q24.1885 181.2031 24.1572 181.3281 L23.9854 182 L23.1572 182 L24.1572 178.6719 Q24.3291 178.0781 24.3291 177.8438 Q24.3291 177.7344 24.251 177.6719 Q24.1416 177.5938 23.9697 177.5938 Q23.8447 177.5938 23.5479 177.6406 L23.5166 177.4375 ZM28.5317 179.9688 Q28.4849 180.25 28.4849 180.4219 Q28.4849 180.9062 28.8286 181.2344 Q29.1724 181.5625 29.6567 181.5625 Q30.0317 181.5625 30.3911 181.4062 Q30.7505 181.25 31.4536 180.7031 L31.563 180.8594 Q30.2974 182.125 29.1411 182.125 Q28.3599 182.125 27.9614 181.6328 Q27.563 181.1406 27.563 180.5469 Q27.563 179.75 28.0552 178.9062 Q28.5474 178.0625 29.2974 177.6016 Q30.0474 177.1406 30.8286 177.1406 Q31.4067 177.1406 31.6802 177.3672 Q31.9536 177.5938 31.9536 177.9219 Q31.9536 178.3594 31.5942 178.7656 Q31.1255 179.2969 30.2192 179.625 Q29.6255 179.8438 28.5317 179.9688 ZM28.563 179.7188 Q29.3599 179.625 29.8599 179.4062 Q30.5161 179.1094 30.8521 178.6953 Q31.188 178.2812 31.188 177.9062 Q31.188 177.6875 31.0396 177.5469 Q30.8911 177.4062 30.6411 177.4062 Q30.0942 177.4062 29.4771 177.9922 Q28.8599 178.5781 28.563 179.7188 ZM36.0859 177.1406 L35.7578 178.7812 L35.5703 178.7812 Q35.5391 178.0625 35.2578 177.7344 Q34.9766 177.4062 34.5703 177.4062 Q34.2266 177.4062 34.0312 177.5938 Q33.8359 177.7812 33.8359 178.0312 Q33.8359 178.2188 33.9141 178.375 Q33.9922 178.5312 34.2578 178.8281 Q34.9609 179.5938 35.1641 179.9766 Q35.3672 180.3594 35.3672 180.7031 Q35.3672 181.2656 34.9062 181.6953 Q34.4453 182.125 33.7266 182.125 Q33.3359 182.125 32.8359 181.9531 Q32.6641 181.875 32.5703 181.875 Q32.3203 181.875 32.1953 182.125 L31.9922 182.125 L32.3203 180.3906 L32.5234 180.3906 Q32.5547 181.2031 32.8594 181.5391 Q33.1641 181.875 33.6953 181.875 Q34.1172 181.875 34.3516 181.6484 Q34.5859 181.4219 34.5859 181.0938 Q34.5859 180.875 34.5078 180.6875 Q34.3516 180.375 33.875 179.8047 Q33.3984 179.2344 33.2578 178.9531 Q33.1172 178.6719 33.1172 178.375 Q33.1172 177.8594 33.4922 177.5 Q33.8672 177.1406 34.4766 177.1406 Q34.6484 177.1406 34.7891 177.1719 Q34.8516 177.1875 35.1328 177.2891 Q35.4141 177.3906 35.5078 177.3906 Q35.7266 177.3906 35.8828 177.1406 L36.0859 177.1406 Z"
                  style="clip-path:url(#clipPath7); stroke:none;"/>
            <path d="M46.6406 167.125 L46.1094 168.9844 L47.1719 168.9844 L47.0625 169.4062 L46 169.4062 L44.8125 173.4375 Q44.625 174.0938 44.625 174.2812 Q44.625 174.3906 44.6797 174.4531 Q44.7344 174.5156 44.8125 174.5156 Q44.9844 174.5156 45.2656 174.2812 Q45.4219 174.1406 46 173.4375 L46.2188 173.6094 Q45.5938 174.5312 45.0312 174.9062 Q44.6406 175.1719 44.2656 175.1719 Q43.9531 175.1719 43.7656 174.9766 Q43.5781 174.7812 43.5781 174.5 Q43.5781 174.125 43.7969 173.3594 L44.9375 169.4062 L43.9062 169.4062 L43.9688 169.1406 Q44.7188 168.9375 45.2188 168.5312 Q45.7188 168.125 46.3438 167.125 L46.6406 167.125 Z"
                  style="clip-path:url(#clipPath7); stroke:none;"/>
            <path d="M2.8792 12.6685 L2.6698 13 Q0 11.3423 0 6.37 L0 6.5 L0 6.63 Q0 1.6403 2.6698 0 L2.8792 0.3141 Q1.6926 1.3262 1.2913 3.1584 Q1.047 4.2926 1.047 6.37 L1.047 6.5 L1.047 6.63 Q1.047 8.6899 1.2913 9.8242 Q1.6926 11.6564 2.8792 12.6685 Z"
                  style="clip-path:url(#clipPath8); stroke:none;"
                  transform="translate(38,165)"/>
            <path d="M0 0.3315 L0.2094 0 Q2.8792 1.6577 2.8792 6.63 L2.8792 6.5 L2.8792 6.37 Q2.8792 11.3597 0.2094 13 L0 12.6859 Q1.1866 11.6738 1.5879 9.8416 Q1.8322 8.7074 1.8322 6.63 L1.8322 6.5 L1.8322 6.37 Q1.8322 4.3101 1.5879 3.1758 Q1.1866 1.3436 0 0.3315 Z"
                  style="clip-path:url(#clipPath9); stroke:none;"
                  transform="translate(48,165)"/>
            <path d="M61.6562 177.7812 L58.6562 177.7812 L58.6562 165.5156 L61.6562 165.5156 L61.6562 166.0625 L59.6719 166.0625 L59.6719 177.25 L61.6562 177.25 L61.6562 177.7812 ZM64.459 165.2812 L64.459 171.5 L66.0527 170.0625 Q66.5527 169.5938 66.6309 169.4688 Q66.6934 169.3906 66.6934 169.3125 Q66.6934 169.1719 66.5762 169.0703 Q66.459 168.9688 66.209 168.9531 L66.209 168.7344 L68.9277 168.7344 L68.9277 168.9531 Q68.3652 168.9688 67.9902 169.125 Q67.6152 169.2812 67.1777 169.6875 L65.5684 171.1719 L67.1777 173.2031 Q67.8496 174.0469 68.0684 174.2656 Q68.3965 174.5938 68.6465 174.6875 Q68.8184 174.75 69.2402 174.75 L69.2402 175 L66.209 175 L66.209 174.75 Q66.459 174.75 66.5527 174.6797 Q66.6465 174.6094 66.6465 174.4688 Q66.6465 174.3125 66.3809 173.9688 L64.459 171.5156 L64.459 173.5938 Q64.459 174.2031 64.5449 174.3906 Q64.6309 174.5781 64.7871 174.6641 Q64.9434 174.75 65.459 174.75 L65.459 175 L62.2715 175 L62.2715 174.75 Q62.7559 174.75 62.9902 174.6406 Q63.1465 174.5625 63.209 174.4062 Q63.3184 174.1719 63.3184 173.625 L63.3184 167.9219 Q63.3184 166.8438 63.2715 166.6016 Q63.2246 166.3594 63.1152 166.2656 Q63.0059 166.1719 62.8184 166.1719 Q62.6777 166.1719 62.3965 166.2812 L62.2715 166.0469 L64.1309 165.2812 L64.459 165.2812 ZM68.9746 165.7344 L71.4902 165.7344 L77.1621 172.6875 L77.1621 167.3438 Q77.1621 166.4844 76.9746 166.2656 Q76.709 165.9844 76.1621 165.9844 L75.8496 165.9844 L75.8496 165.7344 L79.0684 165.7344 L79.0684 165.9844 L78.7402 165.9844 Q78.1621 165.9844 77.9121 166.3438 Q77.7559 166.5625 77.7559 167.3438 L77.7559 175.1562 L77.5215 175.1562 L71.4121 167.6875 L71.4121 173.3906 Q71.4121 174.25 71.584 174.4531 Q71.8496 174.75 72.3965 174.75 L72.7246 174.75 L72.7246 175 L69.4902 175 L69.4902 174.75 L69.8184 174.75 Q70.4121 174.75 70.6465 174.3906 Q70.8027 174.1719 70.8027 173.3906 L70.8027 166.9531 Q70.3965 166.4688 70.1934 166.3203 Q69.9902 166.1719 69.584 166.0469 Q69.3809 165.9844 68.9746 165.9844 L68.9746 165.7344 ZM79.7881 165.5156 L82.7881 165.5156 L82.7881 177.7812 L79.7881 177.7812 L79.7881 177.25 L81.7725 177.25 L81.7725 166.0625 L79.7881 166.0625 L79.7881 165.5156 Z"
                  style="clip-path:url(#clipPath7); stroke:none;"/>
        </g>
        <g transform="translate(5,5)"
           style="font-size:13px; text-rendering:optimizeLegibility; color-rendering:optimizeQuality; image-rendering:optimizeQuality; font-family:'Times New Roman'; color-interpolation:linearRGB;">
            <path d="M105 334 L100.975 334"
                  style="fill:none; clip-path:url(#clipPath1);"/>
            <path d="M97.5781 339.7656 Q97.5781 337.9531 98.125 336.6406 Q98.6719 335.3281 99.5781 334.6875 Q100.2812 334.1875 101.0312 334.1875 Q102.25 334.1875 103.2188 335.4219 Q104.4375 336.9688 104.4375 339.5938 Q104.4375 341.4375 103.9062 342.7266 Q103.375 344.0156 102.5469 344.6016 Q101.7188 345.1875 100.9531 345.1875 Q99.4375 345.1875 98.4375 343.3906 Q97.5781 341.8906 97.5781 339.7656 ZM99.1094 339.9531 Q99.1094 342.1406 99.6562 343.5312 Q100.0938 344.6875 100.9844 344.6875 Q101.4062 344.6875 101.8594 344.3125 Q102.3125 343.9375 102.5469 343.0469 Q102.9062 341.7031 102.9062 339.25 Q102.9062 337.4375 102.5312 336.2344 Q102.25 335.3281 101.7969 334.9531 Q101.4844 334.7031 101.0312 334.7031 Q100.5 334.7031 100.0781 335.1719 Q99.5156 335.8281 99.3125 337.2188 Q99.1094 338.6094 99.1094 339.9531 Z"
                  style="clip-path:url(#clipPath6); stroke:none;"
                  transform="translate(-5,-5)"/>
        </g>
        <g transform="translate(5,5)"
           style="font-size:13px; text-rendering:optimizeLegibility; color-rendering:optimizeQuality; image-rendering:optimizeQuality; font-family:'Times New Roman'; color-interpolation:linearRGB;">
            <path d="M105 298.002 L100.975 298.002"
                  style="fill:none; clip-path:url(#clipPath1);"/>
            <path d="M98.875 299.4375 L101.4531 298.1875 L101.7188 298.1875 L101.7188 307.125 Q101.7188 308.0156 101.7891 308.2344 Q101.8594 308.4531 102.0938 308.5703 Q102.3281 308.6875 103.0469 308.7031 L103.0469 309 L99.0625 309 L99.0625 308.7031 Q99.8125 308.6875 100.0312 308.5781 Q100.25 308.4688 100.3359 308.2734 Q100.4219 308.0781 100.4219 307.125 L100.4219 301.4062 Q100.4219 300.25 100.3438 299.9219 Q100.2969 299.6719 100.1484 299.5547 Q100 299.4375 99.7969 299.4375 Q99.5156 299.4375 99 299.6875 L98.875 299.4375 Z"
                  style="clip-path:url(#clipPath6); stroke:none;"
                  transform="translate(-5,-5)"/>
        </g>
        <g transform="translate(5,5)"
           style="font-size:13px; text-rendering:optimizeLegibility; color-rendering:optimizeQuality; image-rendering:optimizeQuality; font-family:'Times New Roman'; color-interpolation:linearRGB;">
            <path d="M105 262.004 L100.975 262.004"
                  style="fill:none; clip-path:url(#clipPath1);"/>
            <path d="M104.3438 270.9531 L103.5938 273 L97.3438 273 L97.3438 272.7031 Q100.1094 270.1875 101.2344 268.5938 Q102.3594 267 102.3594 265.6875 Q102.3594 264.6719 101.7422 264.0234 Q101.125 263.375 100.2656 263.375 Q99.4844 263.375 98.8594 263.8359 Q98.2344 264.2969 97.9375 265.1719 L97.6562 265.1719 Q97.8438 263.7344 98.6562 262.9609 Q99.4688 262.1875 100.6719 262.1875 Q101.9688 262.1875 102.8281 263.0156 Q103.6875 263.8438 103.6875 264.9688 Q103.6875 265.7656 103.3125 266.5781 Q102.7344 267.8438 101.4375 269.25 Q99.5 271.375 99.0156 271.8125 L101.7812 271.8125 Q102.625 271.8125 102.9609 271.75 Q103.2969 271.6875 103.5703 271.5 Q103.8438 271.3125 104.0469 270.9531 L104.3438 270.9531 Z"
                  style="clip-path:url(#clipPath6); stroke:none;"
                  transform="translate(-5,-5)"/>
        </g>
        <g transform="translate(5,5)"
           style="font-size:13px; text-rendering:optimizeLegibility; color-rendering:optimizeQuality; image-rendering:optimizeQuality; font-family:'Times New Roman'; color-interpolation:linearRGB;">
            <path d="M105 226.006 L100.975 226.006"
                  style="fill:none; clip-path:url(#clipPath1);"/>
            <path d="M97.8125 228.4219 Q98.2656 227.3438 98.9609 226.7656 Q99.6562 226.1875 100.6875 226.1875 Q101.9531 226.1875 102.6406 227.0156 Q103.1562 227.625 103.1562 228.3281 Q103.1562 229.4844 101.7031 230.7188 Q102.6719 231.1094 103.1719 231.8203 Q103.6719 232.5312 103.6719 233.4844 Q103.6719 234.8594 102.7969 235.875 Q101.6562 237.1875 99.5 237.1875 Q98.4219 237.1875 98.0391 236.9219 Q97.6562 236.6562 97.6562 236.3438 Q97.6562 236.125 97.8359 235.9531 Q98.0156 235.7812 98.2812 235.7812 Q98.4688 235.7812 98.6719 235.8438 Q98.8125 235.875 99.2812 236.125 Q99.75 236.375 99.9219 236.4219 Q100.2188 236.5 100.5469 236.5 Q101.3438 236.5 101.9297 235.8828 Q102.5156 235.2656 102.5156 234.4219 Q102.5156 233.8125 102.25 233.2188 Q102.0469 232.7812 101.7969 232.5625 Q101.4688 232.25 100.8828 231.9922 Q100.2969 231.7344 99.6875 231.7344 L99.4375 231.7344 L99.4375 231.5 Q100.0469 231.4219 100.6719 231.0547 Q101.2969 230.6875 101.5781 230.1719 Q101.8594 229.6562 101.8594 229.0469 Q101.8594 228.2344 101.3516 227.7422 Q100.8438 227.25 100.0938 227.25 Q98.8906 227.25 98.0781 228.5469 L97.8125 228.4219 Z"
                  style="clip-path:url(#clipPath6); stroke:none;"
                  transform="translate(-5,-5)"/>
        </g>
        <g transform="translate(5,5)"
           style="font-size:13px; text-rendering:optimizeLegibility; color-rendering:optimizeQuality; image-rendering:optimizeQuality; font-family:'Times New Roman'; color-interpolation:linearRGB;">
            <path d="M105 190.0081 L100.975 190.0081"
                  style="fill:none; clip-path:url(#clipPath1);"/>
            <path d="M104.4531 197.0938 L104.4531 198.2031 L103.0312 198.2031 L103.0312 201 L101.7344 201 L101.7344 198.2031 L97.25 198.2031 L97.25 197.2031 L102.1719 190.1875 L103.0312 190.1875 L103.0312 197.0938 L104.4531 197.0938 ZM101.7344 197.0938 L101.7344 191.8281 L98.0156 197.0938 L101.7344 197.0938 Z"
                  style="clip-path:url(#clipPath6); stroke:none;"
                  transform="translate(-5,-5)"/>
        </g>
        <g transform="translate(5,5)"
           style="font-size:13px; text-rendering:optimizeLegibility; color-rendering:optimizeQuality; image-rendering:optimizeQuality; font-family:'Times New Roman'; color-interpolation:linearRGB;">
            <path d="M105 154.0101 L100.975 154.0101"
                  style="fill:none; clip-path:url(#clipPath1);"/>
            <path d="M103.9531 154.4062 L103.3438 155.7344 L100.1562 155.7344 L99.4531 157.1562 Q101.5312 157.4531 102.7344 158.6875 Q103.7812 159.75 103.7812 161.1875 Q103.7812 162.0312 103.4375 162.7422 Q103.0938 163.4531 102.5781 163.9531 Q102.0625 164.4531 101.4375 164.75 Q100.5312 165.1875 99.5938 165.1875 Q98.6406 165.1875 98.2031 164.8594 Q97.7656 164.5312 97.7656 164.1406 Q97.7656 163.9219 97.9453 163.7578 Q98.125 163.5938 98.4062 163.5938 Q98.6094 163.5938 98.7578 163.6562 Q98.9062 163.7188 99.2812 163.9688 Q99.8594 164.375 100.4688 164.375 Q101.375 164.375 102.0703 163.6875 Q102.7656 163 102.7656 162 Q102.7656 161.0469 102.1484 160.2109 Q101.5312 159.375 100.4375 158.9219 Q99.5938 158.5781 98.125 158.5156 L100.1562 154.4062 L103.9531 154.4062 Z"
                  style="clip-path:url(#clipPath6); stroke:none;"
                  transform="translate(-5,-5)"/>
        </g>
        <g transform="translate(5,5)"
           style="font-size:13px; text-rendering:optimizeLegibility; color-rendering:optimizeQuality; image-rendering:optimizeQuality; font-family:'Times New Roman'; color-interpolation:linearRGB;">
            <path d="M105 118.0121 L100.975 118.0121"
                  style="fill:none; clip-path:url(#clipPath1);"/>
            <path d="M104.1719 118.1875 L104.1719 118.4688 Q103.1406 118.5781 102.4922 118.8828 Q101.8438 119.1875 101.2031 119.8203 Q100.5625 120.4531 100.1484 121.2344 Q99.7344 122.0156 99.4531 123.0781 Q100.5781 122.3125 101.7031 122.3125 Q102.7969 122.3125 103.5938 123.1875 Q104.3906 124.0625 104.3906 125.4375 Q104.3906 126.7656 103.5781 127.8594 Q102.6094 129.1875 101.0156 129.1875 Q99.9375 129.1875 99.1719 128.4688 Q97.6875 127.0625 97.6875 124.8438 Q97.6875 123.4219 98.2578 122.1406 Q98.8281 120.8594 99.8906 119.8672 Q100.9531 118.875 101.9219 118.5312 Q102.8906 118.1875 103.7188 118.1875 L104.1719 118.1875 ZM99.3125 123.6562 Q99.1719 124.7031 99.1719 125.3594 Q99.1719 126.1094 99.4531 126.9844 Q99.7344 127.8594 100.2812 128.375 Q100.6719 128.75 101.25 128.75 Q101.9219 128.75 102.4609 128.1094 Q103 127.4688 103 126.2812 Q103 124.9375 102.4688 123.9609 Q101.9375 122.9844 100.9531 122.9844 Q100.6562 122.9844 100.3203 123.1094 Q99.9844 123.2344 99.3125 123.6562 Z"
                  style="clip-path:url(#clipPath6); stroke:none;"
                  transform="translate(-5,-5)"/>
        </g>
        <g transform="translate(5,5)"
           style="font-size:13px; text-rendering:optimizeLegibility; color-rendering:optimizeQuality; image-rendering:optimizeQuality; font-family:'Times New Roman'; color-interpolation:linearRGB;">
            <path d="M105 82.0141 L100.975 82.0141"
                  style="fill:none; clip-path:url(#clipPath1);"/>
            <path d="M98.6094 82.4062 L104.2969 82.4062 L104.2969 82.7031 L100.7656 93.2188 L99.8906 93.2188 L103.0469 83.6719 L100.1406 83.6719 Q99.25 83.6719 98.875 83.8906 Q98.2188 84.25 97.8281 85 L97.5938 84.9062 L98.6094 82.4062 Z"
                  style="clip-path:url(#clipPath6); stroke:none;"
                  transform="translate(-5,-5)"/>
        </g>
        <g transform="translate(5,5)"
           style="font-size:13px; text-rendering:optimizeLegibility; color-rendering:optimizeQuality; image-rendering:optimizeQuality; font-family:'Times New Roman'; color-interpolation:linearRGB;">
            <path d="M105 46.0161 L100.975 46.0161"
                  style="fill:none; clip-path:url(#clipPath1);"/>
            <path d="M100.0781 51.6562 Q98.8125 50.625 98.4531 50 Q98.0938 49.375 98.0938 48.7031 Q98.0938 47.6719 98.8906 46.9297 Q99.6875 46.1875 101 46.1875 Q102.2812 46.1875 103.0625 46.8828 Q103.8438 47.5781 103.8438 48.4688 Q103.8438 49.0625 103.4219 49.6797 Q103 50.2969 101.6719 51.125 Q103.0469 52.1875 103.4844 52.7969 Q104.0781 53.5938 104.0781 54.4844 Q104.0781 55.5938 103.2266 56.3906 Q102.375 57.1875 101 57.1875 Q99.4844 57.1875 98.6406 56.2344 Q97.9688 55.4844 97.9688 54.5781 Q97.9688 53.875 98.4453 53.1875 Q98.9219 52.5 100.0781 51.6562 ZM101.2969 50.8281 Q102.2344 49.9844 102.4844 49.4922 Q102.7344 49 102.7344 48.3906 Q102.7344 47.5625 102.2734 47.1016 Q101.8125 46.6406 101.0156 46.6406 Q100.2188 46.6406 99.7188 47.1016 Q99.2188 47.5625 99.2188 48.1719 Q99.2188 48.5781 99.4297 48.9844 Q99.6406 49.3906 100.0156 49.7656 L101.2969 50.8281 ZM100.4375 51.9531 Q99.7969 52.5 99.4844 53.1484 Q99.1719 53.7969 99.1719 54.5469 Q99.1719 55.5469 99.7188 56.1562 Q100.2656 56.7656 101.125 56.7656 Q101.9688 56.7656 102.4766 56.2891 Q102.9844 55.8125 102.9844 55.125 Q102.9844 54.5625 102.6875 54.125 Q102.125 53.2969 100.4375 51.9531 Z"
                  style="clip-path:url(#clipPath6); stroke:none;"
                  transform="translate(-5,-5)"/>
        </g>
        <g transform="translate(5,5)"
           style="font-size:13px; text-rendering:optimizeLegibility; color-rendering:optimizeQuality; image-rendering:optimizeQuality; font-family:'Times New Roman'; color-interpolation:linearRGB;">
            <path d="M105 10.0181 L100.975 10.0181"
                  style="fill:none; clip-path:url(#clipPath1);"/>
            <path d="M97.8438 21.2188 L97.8438 20.9219 Q98.8594 20.9062 99.7344 20.4531 Q100.6094 20 101.4297 18.8594 Q102.25 17.7188 102.5625 16.3438 Q101.3438 17.1406 100.3438 17.1406 Q99.2344 17.1406 98.4375 16.2734 Q97.6406 15.4062 97.6406 13.9844 Q97.6406 12.5938 98.4375 11.5 Q99.3906 10.1875 100.9375 10.1875 Q102.25 10.1875 103.1719 11.2656 Q104.3125 12.5938 104.3125 14.5625 Q104.3125 16.3281 103.4453 17.8516 Q102.5781 19.375 101.0312 20.3906 Q99.7812 21.2188 98.2969 21.2188 L97.8438 21.2188 ZM102.6875 15.7656 Q102.8281 14.75 102.8281 14.1406 Q102.8281 13.3906 102.5703 12.5078 Q102.3125 11.625 101.8438 11.1562 Q101.375 10.6875 100.7656 10.6875 Q100.0781 10.6875 99.5547 11.3125 Q99.0312 11.9375 99.0312 13.1719 Q99.0312 14.8281 99.7188 15.75 Q100.2344 16.4219 100.9688 16.4219 Q101.3281 16.4219 101.8203 16.25 Q102.3125 16.0781 102.6875 15.7656 Z"
                  style="clip-path:url(#clipPath6); stroke:none;"
                  transform="translate(-5,-5)"/>
        </g>
        <g transform="translate(5,5)"
           style="font-size:13px; text-rendering:optimizeLegibility; color-rendering:optimizeQuality; image-rendering:optimizeQuality; font-family:'Times New Roman'; color-interpolation:linearRGB;">
            <path d="M105 316.001 L102.9875 316.001"
                  style="fill:none; clip-path:url(#clipPath1);"/>
        </g>
        <g transform="translate(5,5)"
           style="font-size:13px; text-rendering:optimizeLegibility; color-rendering:optimizeQuality; image-rendering:optimizeQuality; font-family:'Times New Roman'; color-interpolation:linearRGB;">
            <path d="M105 280.003 L102.9875 280.003"
                  style="fill:none; clip-path:url(#clipPath1);"/>
        </g>
        <g transform="translate(5,5)"
           style="font-size:13px; text-rendering:optimizeLegibility; color-rendering:optimizeQuality; image-rendering:optimizeQuality; font-family:'Times New Roman'; color-interpolation:linearRGB;">
            <path d="M105 244.005 L102.9875 244.005"
                  style="fill:none; clip-path:url(#clipPath1);"/>
        </g>
        <g transform="translate(5,5)"
           style="font-size:13px; text-rendering:optimizeLegibility; color-rendering:optimizeQuality; image-rendering:optimizeQuality; font-family:'Times New Roman'; color-interpolation:linearRGB;">
            <path d="M105 208.007 L102.9875 208.007"
                  style="fill:none; clip-path:url(#clipPath1);"/>
        </g>
        <g transform="translate(5,5)"
           style="font-size:13px; text-rendering:optimizeLegibility; color-rendering:optimizeQuality; image-rendering:optimizeQuality; font-family:'Times New Roman'; color-interpolation:linearRGB;">
            <path d="M105 172.0091 L102.9875 172.0091"
                  style="fill:none; clip-path:url(#clipPath1);"/>
        </g>
        <g transform="translate(5,5)"
           style="font-size:13px; text-rendering:optimizeLegibility; color-rendering:optimizeQuality; image-rendering:optimizeQuality; font-family:'Times New Roman'; color-interpolation:linearRGB;">
            <path d="M105 136.0111 L102.9875 136.0111"
                  style="fill:none; clip-path:url(#clipPath1);"/>
        </g>
        <g transform="translate(5,5)"
           style="font-size:13px; text-rendering:optimizeLegibility; color-rendering:optimizeQuality; image-rendering:optimizeQuality; font-family:'Times New Roman'; color-interpolation:linearRGB;">
            <path d="M105 100.0131 L102.9875 100.0131"
                  style="fill:none; clip-path:url(#clipPath1);"/>
        </g>
        <g transform="translate(5,5)"
           style="font-size:13px; text-rendering:optimizeLegibility; color-rendering:optimizeQuality; image-rendering:optimizeQuality; font-family:'Times New Roman'; color-interpolation:linearRGB;">
            <path d="M105 64.0151 L102.9875 64.0151"
                  style="fill:none; clip-path:url(#clipPath1);"/>
        </g>
        <g transform="translate(5,5)"
           style="font-size:13px; text-rendering:optimizeLegibility; color-rendering:optimizeQuality; image-rendering:optimizeQuality; font-family:'Times New Roman'; color-interpolation:linearRGB;">
            <path d="M105 28.0171 L102.9875 28.0171"
                  style="fill:none; clip-path:url(#clipPath1);"/>
        </g>
    </g>
</svg>
